<svg width="254" height="319" viewBox="0 0 254 319" fill="none" xmlns="http://www.w3.org/2000/svg">
<path d="M166.769 171.617C161.199 181.209 150.574 187.608 150.574 187.608C150.574 187.608 147.619 174.596 149.782 164.869C152.017 154.793 159.697 150.989 164.395 152.862C169.079 154.723 171.963 162.675 166.769 171.617Z" fill="#528A4F"/>
<path d="M162.35 159.006C162.35 159.006 162.363 159.017 162.374 159.003C162.505 159.038 162.583 159.168 162.548 159.298C162.521 159.389 160.169 169.013 155.765 177.268C155.702 177.376 155.556 177.419 155.436 177.37C155.328 177.307 155.286 177.161 155.334 177.042C159.72 168.839 162.056 159.294 162.069 159.191C162.118 159.072 162.222 158.996 162.35 159.006Z" fill="#012869"/>
<path d="M189.698 258.835C199.694 263.642 206.901 273.739 206.901 273.739C206.901 273.739 194.158 277.696 184.293 276.296C174.074 274.851 169.683 267.49 171.185 262.661C172.677 257.846 180.38 254.353 189.698 258.835Z" fill="#528A4F"/>
<path d="M177.47 264.221C177.47 264.221 177.48 264.207 177.465 264.197C177.49 264.064 177.612 263.976 177.745 264.001C177.838 264.021 187.616 265.617 196.188 269.366C196.301 269.42 196.355 269.563 196.315 269.685C196.261 269.798 196.119 269.852 195.996 269.813C187.478 266.078 177.779 264.492 177.676 264.487C177.553 264.447 177.47 264.349 177.47 264.221Z" fill="#012869"/>
<path d="M79.1537 139.845C85.2999 141.597 90.3834 146.624 90.3834 146.624C90.3834 146.624 83.5287 150.11 77.7721 150.287C71.8207 150.464 68.6147 146.712 68.9866 143.827C69.3763 140.943 73.4148 138.217 79.1537 139.845Z" fill="#528A4F"/>
<path d="M89.0542 142.7C89.9892 158.127 100.209 187.228 149.36 187.228C216.677 187.228 207.094 232.924 206.51 257.701C205.881 284.347 213.171 306.787 252.44 314.5" stroke="#528A4F" stroke-width="7.71349"/>
<path d="M99.9129 151.296C93.5541 150.588 87.709 146.482 87.709 146.482C87.709 146.482 93.8907 141.898 99.5233 140.765C105.368 139.597 109.159 142.765 109.265 145.668C109.354 148.57 105.829 151.95 99.9129 151.296Z" fill="#528A4F"/>
<path d="M88.2786 182.047C98.0297 176.797 110.435 176.895 110.435 176.895C110.435 176.895 106.138 189.522 99.2085 196.691C92.0238 204.105 83.5098 203.314 80.4795 199.262C77.469 195.224 79.1978 186.946 88.2786 182.047Z" fill="#528A4F"/>
<path d="M100.352 184.665C100.334 184.667 100.319 184.687 100.301 184.689C90.5541 189.386 84.4805 195.826 84.4168 195.887C84.3222 195.988 84.1795 195.988 84.0787 195.893C83.9779 195.798 83.9782 195.655 84.0728 195.555C84.1365 195.493 90.2739 188.992 100.104 184.249C100.223 184.199 100.37 184.235 100.42 184.353C100.471 184.472 100.433 184.602 100.352 184.665Z" fill="#012869"/>
<path d="M220.433 216.76C209.487 215.074 199.647 207.52 199.647 207.52C199.647 207.52 210.685 200.032 220.535 198.487C230.736 196.899 237.054 202.661 237.03 207.721C237 212.757 230.632 218.322 220.433 216.76Z" fill="#528A4F"/>
<path d="M212.376 207.395C212.392 207.404 212.416 207.397 212.431 207.406C223.04 209.532 231.767 208.052 231.855 208.042C231.991 208.018 232.105 208.105 232.128 208.241C232.152 208.377 232.066 208.491 231.929 208.514C231.841 208.525 223.026 210.015 212.323 207.876C212.198 207.844 212.102 207.727 212.134 207.602C212.165 207.477 212.273 207.396 212.376 207.395Z" fill="#012869"/>
<path d="M25.2191 105.688C51.0617 125.315 87.1245 145.738 92.5977 141.615C98.0708 137.509 85.4418 85.2464 62.4686 63.5309C52.5141 54.1155 44.3663 50.8768 37.9013 50.9122C24.8117 50.9829 26.4767 63.3716 17.9215 68.3624C9.38403 73.3179 -7.81487 80.6095 25.2191 105.688Z" fill="#F0ECE4"/>
<path d="M110.31 60.6817C114.898 84.9811 99.0451 120.501 92.8988 121.598C86.7526 122.696 61.9373 94.3788 55.3836 70.5218C48.83 46.6648 54.746 38.3821 82.4307 38.6653C94.8649 38.7892 102.534 19.4098 110.31 60.6817Z" fill="#F0ECE4"/>
<path d="M141.591 80.1142C128.041 100.803 91.9957 115.457 86.7882 111.988C81.5807 108.52 83.3343 70.9289 95.1485 49.178C106.963 27.4271 116.97 25.5688 136.738 44.9128C145.629 53.6379 164.617 44.9659 141.591 80.1142Z" fill="#F0ECE4"/>
<path d="M174.342 96.839C159.711 125.793 93.7672 145.65 88.1877 141.686C82.6083 137.721 110.913 120.607 123.648 91.6711C139.005 56.7352 167.699 56.7352 170.215 70.3804C172.854 84.6804 184.863 75.9907 174.342 96.839Z" fill="#F0ECE4"/>
<path d="M86.0088 38.8422C88.5948 45.5675 127.704 60.2392 124.357 40.4527C123.241 33.8337 132.416 37.3025 126.039 23.0025C123.754 17.8523 130.715 8.64934 117.307 5.19822C112.401 3.92396 105.882 -5.66839 100.622 9.46345C98.5316 15.4985 86.0088 38.8422 86.0088 38.8422Z" fill="#32264C"/>
<path d="M110.522 76.8401C104.022 105.068 97.1671 113.51 77.5062 106.821C57.8452 100.131 53.2577 76.3091 53.0628 76.1676C49.2192 73.619 62.3442 56.6997 64.5406 53.5671C77.949 34.524 96.1044 30.8605 105.846 37.9221C118.475 47.0366 114.844 58.0625 110.522 76.8401Z" fill="#6EB3F2"/>
<path d="M165.255 73.6013C164.918 75.1056 163.058 79.3709 160.419 79.07C154.787 78.4329 154.645 77.5834 152.289 76.5215L152.732 70.7696C152.732 70.7696 155.318 70.3095 156.558 70.3272C158.099 70.3803 165.627 71.9731 165.255 73.6013Z" fill="#FDB88E"/>
<path d="M104.341 78.0257C115.748 69.5129 109.672 97.4404 152.501 78.946C154.237 77.9549 153.954 70.7341 152.625 70.0262C140.811 68.0263 132.646 65.4424 128.147 57.4959C120.831 44.6295 109.69 35.0017 99.5586 33.0549L104.341 78.0257Z" fill="#6EB3F2"/>
<path d="M96.7603 125.793C96.7603 125.793 106.484 59.5136 131.796 74.6631C149.987 85.5474 107.742 128.961 107.742 128.961C106.272 131.403 97.0614 127.51 96.7603 125.793Z" fill="#E54925"/>
<path d="M53.0635 76.1676C59.1035 79.0701 67.8003 81.7248 74.7614 77.4419C90.6673 67.6372 116.067 59.7084 125.118 69.4424C130.361 75.0881 131.495 86.6095 106.803 106.166C104.554 107.936 93.9972 111.758 76.6566 113.334C45.6242 116.165 38.6632 87.6537 53.0635 76.1676Z" fill="#E54925"/>
<path d="M88.6479 120.112C88.6479 120.112 98.3721 53.8327 123.683 68.9822C141.874 79.8665 99.6297 123.28 99.6297 123.28C98.1419 125.722 88.9314 121.829 88.6479 120.112Z" fill="#E54925"/>
<path d="M118.334 96.1133C118.263 96.1133 118.192 96.0956 118.139 96.0425C118.015 95.9363 118.015 95.7416 118.122 95.6355C124.64 88.7155 126.801 83.1937 127.474 79.7957C128.182 76.1322 127.368 74.0615 127.35 74.0261C127.297 73.8845 127.368 73.7075 127.509 73.6544C127.651 73.6013 127.828 73.6544 127.881 73.8137C127.917 73.9022 128.785 76.026 128.041 79.8488C127.368 83.3353 125.189 88.981 118.547 96.0425C118.476 96.0779 118.405 96.1133 118.334 96.1133Z" fill="#016099"/>
<path d="M112.702 96.3433C114.101 96.3433 116.297 95.8832 116.067 94.9452C115.855 94.078 113.162 95.1753 110.381 94.5912C109.106 94.3257 107.211 93.7771 107.158 93.3524C107.353 92.0958 111.993 92.1489 112.135 91.2109C112.223 90.5561 111.444 90.2198 109.106 90.1844C107.264 90.149 106.095 89.8835 104.235 89.9543C103.544 89.972 102.375 90.2021 100.994 90.2552C99.8778 90.2906 97.894 89.7419 97.894 89.7419L96.8667 94.9452C97.6992 95.6354 105.493 100.662 108.929 100.839C112.79 101.033 115.943 99.936 115.837 99.1219C115.784 98.7503 114.243 99.0688 113.64 99.1219C114.562 99.1219 117.006 98.5379 117.006 97.7238C117.006 97.1397 115.04 97.2636 113.215 97.83C114.916 97.4229 117.236 97.2636 117.378 96.4495C117.537 95.4584 114.42 96.0956 112.702 96.3433Z" fill="#FDB98D"/>
<path d="M95.5204 96.3609C85.7608 90.1135 73.5745 90.8037 65.4268 82.3794C62.4333 79.3 59.7765 74.3799 59.2097 68.044C59.1742 67.7077 59.1565 67.3715 59.1211 67.0352C58.2178 52.3104 67.8357 33.0549 88.7542 32.1523L92.3144 49.7619C95.733 56.4695 85.5659 63.7788 88.7896 67.6547C95.2193 75.3887 92.8989 79.4593 94.2274 83.7953C94.316 84.1315 94.4399 84.4678 94.5993 84.8041C95.1307 86.0075 97.9293 87.6535 99.4526 88.9454C101.029 90.3082 97.0614 97.352 95.5204 96.3609Z" fill="#6EB3F2"/>
<path d="M95.7505 24.1531L90.3836 33.0552C89.1083 35.7807 102.782 42.3113 104.27 39.3911L105.847 35.0197L95.7505 24.1531Z" fill="#FDB88E"/>
<path d="M96.601 23.0202C95.2194 32.3471 101.755 35.7805 107.051 35.7805C110.736 35.7805 113.091 31.533 114.066 29.4269L114.083 29.4092C114.544 28.4712 114.845 27.4624 114.987 26.4359C115.04 25.9935 115.057 25.551 115.057 25.1263C115.057 24.79 115.057 24.4538 115.057 24.1175C115.057 23.5689 115.128 22.9671 115.181 22.2946C115.376 20.2062 115.04 19.2505 114.668 18.5072C112.826 14.8614 109.407 16.7728 106.927 10.9678C105.333 7.21586 97.5043 16.9144 96.601 23.0202Z" fill="#FDB88E"/>
<path d="M103.863 25.7987C104.04 27.4623 102.375 28.7719 100.71 28.0286C100.196 27.7985 99.8067 27.3738 99.6119 26.8605C98.9919 25.1084 100.48 23.5333 102.145 23.905C103.084 24.0996 103.757 24.8607 103.863 25.7987Z" fill="#ED715D"/>
<path d="M112.489 27.1968C112.453 28.2232 113.126 29.1258 114.083 29.3913C114.543 28.4533 114.844 27.4445 114.986 26.418C115.039 25.9756 115.057 25.5331 115.057 25.1084C114.968 25.0907 114.88 25.0907 114.791 25.073C113.551 25.0376 112.524 25.9756 112.489 27.1968Z" fill="#ED715D"/>
<path d="M106.042 36.1877C106.166 36.2054 106.272 36.1169 106.29 36.0107C106.308 35.8868 106.219 35.7806 106.113 35.7629C106.06 35.7629 100.179 34.878 97.9118 30.9668C97.8586 30.8606 97.7169 30.8252 97.6106 30.896C97.5044 30.9491 97.4689 31.0906 97.5398 31.1968C99.8956 35.2851 105.794 36.1523 106.042 36.1877Z" fill="#ED715D"/>
<path d="M111.94 23.6574C113.694 23.9406 114.544 23.038 114.579 22.9849C114.668 22.8787 114.668 22.7371 114.562 22.631C114.455 22.5425 114.314 22.5425 114.225 22.6487C114.172 22.7017 113.145 23.7459 110.895 22.8433C110.771 22.7902 110.63 22.861 110.576 22.9849C110.523 23.1088 110.594 23.2504 110.718 23.3035C111.179 23.4982 111.586 23.6043 111.94 23.6574Z" fill="#002869"/>
<path d="M104.235 23.25C105.333 23.3562 106.148 22.9846 106.201 22.9492C106.325 22.8961 106.378 22.7368 106.307 22.6306C106.254 22.5067 106.094 22.4536 105.988 22.5244C105.917 22.5598 104.058 23.427 102.251 21.8519C102.145 21.7634 102.003 21.7811 101.897 21.8696C101.808 21.9758 101.826 22.1173 101.914 22.2235C102.729 22.8961 103.544 23.1792 104.235 23.25Z" fill="#002869"/>
<path d="M108.362 28.4002C108.646 28.4533 108.947 28.4356 109.212 28.3471C109.673 28.2055 109.992 27.8693 110.098 27.4445C110.24 26.8959 109.921 26.4357 109.62 25.9756C109.46 25.7455 109.319 25.5154 109.212 25.2854C108.893 24.4712 108.947 23.1439 108.947 23.1262C108.947 22.9846 108.84 22.8784 108.716 22.8784C108.575 22.8784 108.468 22.9846 108.468 23.1085C108.468 23.1616 108.415 24.5597 108.769 25.4623C108.876 25.7455 109.053 25.9933 109.212 26.241C109.478 26.6481 109.708 26.9844 109.62 27.3206C109.531 27.6746 109.23 27.8162 109.053 27.8693C108.646 27.9932 108.15 27.9047 107.831 27.6569C107.724 27.5684 107.565 27.5861 107.494 27.6923C107.406 27.7985 107.423 27.9578 107.53 28.0285C107.76 28.2232 108.043 28.3471 108.362 28.4002Z" fill="#ED715D"/>
<path d="M107.158 30.6834C106.077 30.3825 105.369 29.7808 105.333 29.7277C105.227 29.6215 105.209 29.4622 105.316 29.3383C105.422 29.2321 105.581 29.2144 105.705 29.3206C105.723 29.3383 107.459 30.8249 109.602 30.117C109.744 30.0639 109.903 30.1524 109.939 30.294C109.992 30.4356 109.903 30.5949 109.761 30.6303C108.769 30.9665 107.866 30.8957 107.158 30.6834Z" fill="#ED715D"/>
<path d="M111.409 7.6406C111.409 7.6406 100.002 -8.44693 85.8139 6.06547C81.2795 10.6847 72.9191 7.92377 72.7774 20.1354C72.7243 24.2768 71.6615 25.5864 69.6423 28.4889C66.0467 33.639 67.446 38.9839 73.5745 40.9306C78.3923 42.4527 75.8417 48.3284 82.3954 48.7709C87.7268 49.1248 89.073 43.2668 93.6428 42.9305C103.739 42.2049 97.6282 30.1348 97.3625 25.1794C97.3448 24.8254 97.3093 24.4538 97.2739 24.0821C97.2208 22.8432 97.5573 21.8698 98.0533 20.7903C100.781 14.8968 109.726 18.6665 109.46 10.7732L111.409 7.6406Z" fill="#32264C"/>
<path d="M63.3185 80.6981C63.23 80.6981 63.1414 80.645 63.0705 80.5742C58.7841 74.2029 58.731 63.708 58.731 63.6018C58.731 63.4425 58.8549 63.3186 59.0144 63.3186C59.1738 63.3186 59.2978 63.4425 59.2978 63.6018C59.2978 63.708 59.3509 74.0259 63.5488 80.2556C63.6373 80.3972 63.6019 80.5742 63.4779 80.6627C63.4425 80.6804 63.3717 80.6981 63.3185 80.6981Z" fill="#012869"/>
<path d="M91.6414 71.4244C91.5351 71.4244 91.4288 71.3713 91.3757 71.2651C91.11 70.7165 90.6672 70.1855 90.1535 69.5838C89.4273 68.6989 88.5063 67.6016 87.7801 66.0442C86.983 64.3275 87.6738 62.9116 88.4 61.4073C89.1616 59.8499 90.0118 58.0978 89.6044 55.5315C89.5867 55.3723 89.693 55.2307 89.8524 55.1953C90.0118 55.1776 90.1535 55.2838 90.189 55.4431C90.6141 58.1863 89.7107 60.0445 88.9314 61.6728C88.2052 63.1594 87.6384 64.3452 88.3114 65.8141C89.0022 67.3007 89.8524 68.3272 90.6141 69.2298C91.1454 69.867 91.606 70.4333 91.9071 71.035C91.9779 71.1766 91.9248 71.3536 91.7831 71.4244C91.73 71.4067 91.6768 71.4244 91.6414 71.4244Z" fill="#012869"/>
<path d="M116.97 111.174C111.798 137.19 95.1835 144.446 88.4882 144.535C81.7751 144.623 61.8839 118.289 58.3768 91.9716C55.2417 68.3801 74.513 76.2911 87.0712 87.0515C95.9452 94.6617 124.055 75.5655 116.97 111.174Z" fill="#F1D669"/>
<path d="M163.908 115.634C146.78 133.297 115.925 142.659 96.9549 144.411C96.6006 144.446 96.2464 144.482 95.9098 144.499C91.6234 144.836 88.01 144.783 85.3531 144.322C79.7028 143.349 105.262 129.562 117.643 106.502C117.909 106.006 118.175 105.511 118.422 104.997C119.149 103.546 119.822 102.077 120.424 100.555C131.671 72.5391 142.476 78.0963 153.405 86.3082C163.164 93.6175 207.8 70.38 163.908 115.634Z" fill="#F1D669"/>
<path d="M118.654 104.248C118.637 104.584 118.583 104.973 118.513 105.434C117.786 109.876 114.527 119.716 109.497 129.025C106.362 134.812 102.513 140.943 97.5 144.5C97.1457 144.535 96.8365 144.482 96.5 144.5C102.115 140.872 106.344 133.839 109.072 128.795C113.553 120.512 116.617 111.823 117.733 106.938C117.981 105.823 118.141 104.885 118.176 104.23C118.176 104.106 118.3 104 118.424 104C118.566 104.018 118.654 104.124 118.654 104.248Z" fill="#016099"/>
<path d="M95.2015 144.571C91.287 144.801 87.2131 144.694 83.0507 144.287C82.7141 144.252 82.3776 144.217 82.0588 144.181C60.3255 141.792 36.2009 131.191 17.1776 115.917C-5.77785 97.4761 -4.28999 71.46 13.1392 76.1854C43.6048 84.4504 44.703 66.8054 58.4479 98.8566C58.8376 99.7769 59.2627 100.679 59.7055 101.582C60.1306 102.449 60.5734 103.299 61.034 104.148C73.911 127.722 100.976 144.234 95.2015 144.571Z" fill="#F1D669"/>
<path d="M83.0507 144.269C82.7142 144.234 82.3776 144.199 82.0588 144.163C77.3296 140.447 72.5117 133.226 67.6762 122.572C64.8068 116.271 62.5041 109.953 60.9809 105.405C60.8214 105.068 61.282 104.856 61.4237 105.21C62.947 109.741 65.2496 116.059 68.119 122.377C73.0785 133.35 78.1621 140.748 83.0507 144.269Z" fill="#016099"/>
<path d="M202.646 127.456C202.593 129.846 201.336 130.801 199.795 130.748C199.724 130.748 199.635 130.748 199.564 130.731C198.147 130.607 197.067 129.563 197.12 127.315C197.173 125.35 199.104 122.82 199.777 121.988C199.919 121.811 200.007 121.705 200.007 121.705C200.007 121.705 202.699 125.085 202.646 127.456Z" fill="#6EB3F2"/>
<path d="M196.074 156.818C196.004 159.49 194.587 160.57 192.886 160.516C192.798 160.516 192.709 160.516 192.62 160.499C191.026 160.357 189.804 159.189 189.875 156.658C189.928 154.446 192.107 151.597 192.868 150.659C193.028 150.464 193.134 150.34 193.134 150.34C193.134 150.34 196.145 154.145 196.074 156.818Z" fill="#6EB3F2"/>
<path d="M155.849 104.432C158.896 105.564 165.095 107.458 168.213 108.378C174.518 110.237 189.485 94.7684 195.437 89.2643C195.968 88.7688 195.525 84.6982 195.189 84.8398L182.701 92.2376C183.215 89.3528 183.87 84.8044 182.418 80.5746C182.276 80.1675 181.94 79.8489 181.515 79.7428C178.787 79.0348 176.75 76.7341 176.219 73.9378C176.112 73.3714 175.758 72.8936 175.227 72.6458C170.427 70.3451 165.113 71.1415 162.243 71.991C157.585 73.3714 155.849 75.3359 153.848 80.3268C149.579 91.1403 152.059 103.033 155.849 104.432ZM155.3 82.7691C160.171 70.9114 168.726 72.6104 172.145 74.0263C175.12 75.2474 153.759 86.5211 155.3 82.7691Z" fill="#32264C"/>
<path d="M165.893 71.6902C165.84 70.7168 164.104 71.1769 161.943 70.9291C161.004 70.8229 158.932 70.2212 156.877 70.2743C155.584 70.292 154.946 70.5575 154.043 70.8052L156.718 75.0882C157.887 72.752 166.017 73.6193 165.893 71.6902Z" fill="#FDB88E"/>
<path d="M159.463 73.1589C160.083 72.0085 165.733 71.8846 165.273 73.619L160.561 78.8046C160.561 78.8046 159.25 79.1231 159.02 77.902C158.737 76.6454 158.436 75.0703 159.463 73.1589Z" fill="#FDB88E"/>
<path d="M197.208 103.812C197.155 105.883 196.057 106.714 194.729 106.697C194.658 106.697 194.587 106.697 194.534 106.679C193.294 106.573 192.355 105.67 192.408 103.688C192.444 101.971 194.144 99.759 194.729 99.0334C194.853 98.8741 194.941 98.7856 194.941 98.7856C194.941 98.7856 197.262 101.724 197.208 103.812Z" fill="#6EB3F2"/>
</svg>
