<svg width="260" height="214" viewBox="0 0 260 214" fill="none" xmlns="http://www.w3.org/2000/svg">
<path d="M171.765 176.756C166.028 186.635 155.084 193.226 155.084 193.226C155.084 193.226 152.041 179.824 154.269 169.806C156.571 159.428 164.481 155.51 169.319 157.439C174.143 159.356 177.114 167.547 171.765 176.756Z" fill="#528A4F"/>
<path d="M167.213 163.768C167.213 163.768 167.227 163.779 167.238 163.764C167.373 163.8 167.453 163.934 167.417 164.068C167.389 164.162 164.968 174.074 160.431 182.576C160.366 182.687 160.216 182.731 160.093 182.681C159.981 182.616 159.937 182.466 159.988 182.343C164.505 173.895 166.91 164.063 166.924 163.958C166.974 163.835 167.082 163.757 167.213 163.768Z" fill="#012869"/>
<path d="M81.5256 144.033C87.8559 145.837 93.0916 151.014 93.0916 151.014C93.0916 151.014 86.0316 154.605 80.1027 154.787C73.973 154.969 70.6711 151.105 71.0542 148.134C71.4555 145.163 75.6149 142.356 81.5256 144.033Z" fill="#528A4F"/>
<path d="M91.7225 146.973C92.6855 162.862 103.211 192.834 153.834 192.834C223.167 192.834 213.297 239.899 212.695 265.417C212.048 292.862 219.556 315.973 260.001 323.917" stroke="#528A4F" stroke-width="7.94446"/>
<path d="M102.906 155.826C96.3571 155.097 90.3369 150.868 90.3369 150.868C90.3369 150.868 96.7037 146.147 102.505 144.98C108.525 143.777 112.429 147.04 112.539 150.029C112.63 153.019 108.999 156.5 102.906 155.826Z" fill="#528A4F"/>
<path d="M90.9241 187.497C100.967 182.09 113.744 182.192 113.744 182.192C113.744 182.192 109.318 195.196 102.181 202.58C94.7815 210.217 86.0125 209.402 82.8915 205.228C79.7908 201.07 81.5714 192.544 90.9241 187.497Z" fill="#528A4F"/>
<path d="M103.358 190.194C103.34 190.197 103.324 190.217 103.306 190.219C93.2673 195.056 87.0119 201.689 86.9462 201.752C86.8487 201.856 86.7018 201.856 86.598 201.758C86.4942 201.661 86.4945 201.514 86.5919 201.41C86.6576 201.347 92.9787 194.651 103.104 189.766C103.226 189.714 103.377 189.751 103.429 189.873C103.481 189.996 103.442 190.129 103.358 190.194Z" fill="#012869"/>
<path d="M25.9762 108.852C52.5927 129.067 89.7353 150.102 95.3724 145.855C101.009 141.626 88.0022 87.7988 64.3411 65.4331C54.0886 55.7358 45.6968 52.4001 39.0382 52.4365C25.5566 52.5094 27.2715 65.269 18.4601 70.4093C9.66702 75.5131 -8.04688 83.0231 25.9762 108.852Z" fill="#F0ECE4"/>
<path d="M113.615 62.4985C118.34 87.5255 102.013 124.109 95.6824 125.239C89.3521 126.369 63.7937 97.2046 57.0438 72.6332C50.2939 48.0619 56.3871 39.5312 84.9008 39.8229C97.7073 39.9505 105.607 19.9908 113.615 62.4985Z" fill="#F0ECE4"/>
<path d="M145.832 82.5128C131.877 103.821 94.7521 118.914 89.3887 115.341C84.0253 111.769 85.8313 73.0525 97.9994 50.6503C110.167 28.2481 120.475 26.3342 140.834 46.2574C149.992 55.2438 169.548 46.312 145.832 82.5128Z" fill="#F0ECE4"/>
<path d="M179.564 99.7385C164.495 129.56 96.5768 150.011 90.8303 145.928C85.0837 141.845 114.236 124.219 127.353 94.416C143.169 58.4339 172.723 58.4339 175.313 72.4877C178.032 87.2159 190.4 78.266 179.564 99.7385Z" fill="#F0ECE4"/>
<path d="M88.5858 40.0052C91.2493 46.9318 131.53 62.0428 128.082 41.6639C126.932 34.8467 136.382 38.4194 129.815 23.6911C127.462 18.3868 134.631 8.90823 120.821 5.35377C115.768 4.04135 109.054 -5.83822 103.636 9.74672C101.484 15.9625 88.5858 40.0052 88.5858 40.0052Z" fill="#32264C"/>
<path d="M113.834 79.1411C107.139 108.215 100.079 116.91 79.8289 110.019C59.5792 103.129 54.8543 78.5943 54.6536 78.4484C50.6949 75.8236 64.2129 58.3976 66.4751 55.1713C80.285 35.558 98.984 31.7848 109.018 39.0577C122.025 48.4452 118.285 59.8012 113.834 79.1411Z" fill="#6EB3F2"/>
<path d="M170.205 75.8052C169.858 77.3546 167.943 81.7475 165.225 81.4376C159.423 80.7814 159.277 79.9065 156.851 78.8128L157.307 72.8887C157.307 72.8887 159.971 72.4148 161.248 72.433C162.835 72.4877 170.588 74.1282 170.205 75.8052Z" fill="#FDB88E"/>
<path d="M107.467 80.3622C119.216 71.5945 112.958 100.358 157.07 81.31C158.858 80.2893 158.566 72.8522 157.197 72.1231C145.029 70.0634 136.619 67.4021 131.986 59.2177C124.451 45.966 112.977 36.0499 102.542 34.0449L107.467 80.3622Z" fill="#6EB3F2"/>
<path d="M99.6595 129.559C99.6595 129.559 109.675 61.2956 135.744 76.8988C154.48 88.109 110.97 132.822 110.97 132.822C109.456 135.338 99.9697 131.328 99.6595 129.559Z" fill="#E54925"/>
<path d="M54.6541 78.4483C60.8749 81.4376 69.8322 84.1719 77.0017 79.7607C93.3839 69.6624 119.544 61.4962 128.866 71.5216C134.266 77.3363 135.434 89.2028 110.003 109.345C107.686 111.168 96.8135 115.105 78.9537 116.727C46.992 119.644 39.8226 90.2782 54.6541 78.4483Z" fill="#E54925"/>
<path d="M91.3041 123.708C91.3041 123.708 101.319 55.4445 127.389 71.0477C146.124 82.2579 102.615 126.971 102.615 126.971C101.082 129.487 91.596 125.476 91.3041 123.708Z" fill="#E54925"/>
<path d="M121.879 98.9913C121.806 98.9913 121.733 98.9731 121.679 98.9184C121.551 98.809 121.551 98.6085 121.661 98.4991C128.374 91.372 130.6 85.6848 131.293 82.185C132.022 78.4118 131.183 76.2792 131.165 76.2427C131.11 76.0969 131.183 75.9146 131.329 75.8599C131.475 75.8052 131.658 75.8599 131.712 76.024C131.749 76.1151 132.643 78.3025 131.877 82.2397C131.183 85.8307 128.939 91.6454 122.098 98.9184C122.025 98.9548 121.952 98.9913 121.879 98.9913Z" fill="#016099"/>
<path d="M116.078 99.2282C117.519 99.2282 119.781 98.7543 119.544 97.7882C119.325 96.895 116.552 98.0251 113.688 97.4236C112.375 97.1502 110.423 96.5851 110.368 96.1477C110.569 94.8535 115.348 94.9082 115.494 93.9421C115.586 93.2676 114.783 92.9213 112.375 92.8848C110.478 92.8484 109.273 92.575 107.358 92.6479C106.647 92.6661 105.442 92.9031 104.02 92.9577C102.87 92.9942 100.827 92.4291 100.827 92.4291L99.7689 97.7882C100.626 98.4991 108.653 103.676 112.192 103.858C116.169 104.059 119.417 102.928 119.307 102.09C119.252 101.707 117.665 102.035 117.045 102.09C117.994 102.09 120.511 101.488 120.511 100.65C120.511 100.048 118.486 100.176 116.607 100.759C118.358 100.34 120.748 100.176 120.894 99.3376C121.058 98.3168 117.848 98.973 116.078 99.2282Z" fill="#FDB98D"/>
<path d="M98.3822 99.2463C88.3304 92.8118 75.7792 93.5227 67.3875 84.8462C64.3044 81.6745 61.568 76.6071 60.9842 70.0815C60.9477 69.7352 60.9295 69.3888 60.893 69.0425C59.9626 53.8768 69.8685 34.0447 91.4134 33.1151L95.0802 51.252C98.6011 58.1604 88.1297 65.6885 91.4499 69.6805C98.0721 77.6461 95.6823 81.8386 97.0505 86.3044C97.1417 86.6508 97.2694 86.9971 97.4336 87.3434C97.9809 88.5829 100.863 90.2781 102.432 91.6088C104.056 93.0123 99.9693 100.267 98.3822 99.2463Z" fill="#6EB3F2"/>
<path d="M98.6191 24.8762L93.0915 34.0448C91.778 36.852 105.862 43.5781 107.394 40.5705L109.018 36.0681L98.6191 24.8762Z" fill="#FDB88E"/>
<path d="M99.4954 23.7095C98.0724 33.3157 104.804 36.8519 110.259 36.8519C114.053 36.8519 116.48 32.4772 117.483 30.308L117.501 30.2898C117.975 29.3237 118.286 28.2847 118.432 27.2275C118.486 26.7718 118.505 26.3161 118.505 25.8786C118.505 25.5323 118.505 25.186 118.505 24.8396C118.505 24.2746 118.578 23.6548 118.632 22.9622C118.833 20.8113 118.486 19.8269 118.103 19.0614C116.206 15.3064 112.685 17.275 110.131 11.2962C108.489 7.43191 100.426 17.4209 99.4954 23.7095Z" fill="#FDB88E"/>
<path d="M106.975 26.571C107.157 28.2845 105.442 29.6333 103.727 28.8678C103.198 28.6308 102.797 28.1933 102.596 27.6647C101.958 25.8602 103.49 24.2379 105.205 24.6207C106.172 24.8212 106.865 25.605 106.975 26.571Z" fill="#ED715D"/>
<path d="M115.859 28.0111C115.822 29.0683 116.516 29.998 117.501 30.2714C117.975 29.3053 118.285 28.2663 118.431 27.2091C118.486 26.7534 118.504 26.2977 118.504 25.8602C118.413 25.842 118.322 25.842 118.23 25.8238C116.953 25.7873 115.895 26.7534 115.859 28.0111Z" fill="#ED715D"/>
<path d="M109.219 37.2714C109.346 37.2897 109.456 37.1985 109.474 37.0891C109.492 36.9616 109.401 36.8522 109.292 36.834C109.237 36.834 103.18 35.9226 100.845 31.8942C100.791 31.7848 100.645 31.7483 100.535 31.8213C100.426 31.8759 100.389 32.0218 100.462 32.1311C102.888 36.3418 108.963 37.235 109.219 37.2714Z" fill="#ED715D"/>
<path d="M115.294 24.3659C117.1 24.6576 117.976 23.728 118.012 23.6733C118.103 23.5639 118.103 23.4181 117.994 23.3087C117.884 23.2176 117.738 23.2176 117.647 23.327C117.592 23.3816 116.534 24.4571 114.217 23.5275C114.09 23.4728 113.944 23.5457 113.889 23.6733C113.834 23.8009 113.907 23.9467 114.035 24.0014C114.509 24.2019 114.929 24.3113 115.294 24.3659Z" fill="#002869"/>
<path d="M107.358 23.9463C108.489 24.0557 109.328 23.6729 109.383 23.6365C109.51 23.5818 109.565 23.4177 109.492 23.3084C109.437 23.1808 109.273 23.1261 109.164 23.199C109.091 23.2354 107.175 24.1286 105.315 22.5063C105.205 22.4152 105.059 22.4334 104.95 22.5246C104.859 22.6339 104.877 22.7797 104.968 22.8891C105.807 23.5818 106.646 23.8734 107.358 23.9463Z" fill="#002869"/>
<path d="M111.608 29.2507C111.9 29.3054 112.21 29.2872 112.484 29.196C112.958 29.0502 113.287 28.7039 113.396 28.2664C113.542 27.7014 113.214 27.2274 112.904 26.7535C112.739 26.5165 112.593 26.2796 112.484 26.0426C112.156 25.2041 112.21 23.837 112.21 23.8188C112.21 23.673 112.101 23.5636 111.973 23.5636C111.827 23.5636 111.718 23.673 111.718 23.8006C111.718 23.8552 111.663 25.2953 112.028 26.2249C112.137 26.5165 112.32 26.7717 112.484 27.0269C112.758 27.4462 112.995 27.7925 112.904 28.1388C112.812 28.5034 112.502 28.6492 112.32 28.7039C111.9 28.8315 111.389 28.7403 111.061 28.4852C110.952 28.394 110.787 28.4122 110.714 28.5216C110.623 28.631 110.641 28.795 110.751 28.8679C110.988 29.0685 111.28 29.196 111.608 29.2507Z" fill="#ED715D"/>
<path d="M110.368 31.6022C109.255 31.2923 108.525 30.6725 108.489 30.6178C108.379 30.5085 108.361 30.3444 108.471 30.2168C108.58 30.1075 108.744 30.0892 108.872 30.1986C108.89 30.2168 110.678 31.748 112.885 31.0189C113.031 30.9642 113.196 31.0553 113.232 31.2011C113.287 31.347 113.196 31.511 113.05 31.5475C112.028 31.8938 111.098 31.8209 110.368 31.6022Z" fill="#ED715D"/>
<path d="M114.746 7.86939C114.746 7.86939 102.998 -8.69986 88.3853 6.2471C83.7151 11.0046 75.1044 8.16104 74.9585 20.7384C74.9038 25.0037 73.8092 26.3526 71.7295 29.342C68.0262 34.6463 69.4674 40.1512 75.7794 42.1562C80.7415 43.7239 78.1145 49.7755 84.8644 50.2312C90.3556 50.5958 91.742 44.5623 96.4487 44.216C106.847 43.4687 100.553 31.0372 100.28 25.9333C100.261 25.5688 100.225 25.186 100.188 24.8032C100.134 23.5272 100.48 22.5247 100.991 21.4128C103.801 15.3429 113.013 19.2254 112.74 11.0957L114.746 7.86939Z" fill="#32264C"/>
<path d="M65.2164 83.1145C65.1252 83.1145 65.034 83.0598 64.961 82.9869C60.5462 76.4248 60.4915 65.6156 60.4915 65.5062C60.4915 65.3422 60.6192 65.2146 60.7833 65.2146C60.9475 65.2146 61.0752 65.3422 61.0752 65.5062C61.0752 65.6156 61.13 76.2425 65.4535 82.6588C65.5448 82.8046 65.5083 82.9869 65.3806 83.078C65.3441 83.0962 65.2711 83.1145 65.2164 83.1145Z" fill="#012869"/>
<path d="M94.3874 73.563C94.278 73.563 94.1685 73.5083 94.1138 73.3989C93.8401 72.8339 93.3841 72.287 92.855 71.6673C92.107 70.7559 91.1584 69.6258 90.4105 68.0217C89.5895 66.2536 90.301 64.7953 91.049 63.246C91.8334 61.6419 92.7091 59.8373 92.2895 57.1943C92.2712 57.0302 92.3807 56.8844 92.5449 56.8479C92.7091 56.8297 92.855 56.9391 92.8915 57.1031C93.3293 59.9285 92.3989 61.8424 91.5962 63.5194C90.8483 65.0505 90.2645 66.2718 90.9577 67.7847C91.6692 69.3159 92.5449 70.3731 93.3293 71.3027C93.8766 71.9589 94.3509 72.5422 94.6611 73.162C94.734 73.3078 94.6793 73.4901 94.5334 73.563C94.4786 73.5448 94.4239 73.563 94.3874 73.563Z" fill="#012869"/>
<path d="M120.474 114.503C115.147 141.298 98.0355 148.771 91.1396 148.862C84.2256 148.954 63.7387 121.83 60.1266 94.7253C56.8976 70.4274 76.746 78.5753 89.6802 89.6579C98.8199 97.4959 127.771 77.8279 120.474 114.503Z" fill="#F1D669"/>
<path d="M168.818 119.096C151.177 137.288 119.398 146.93 99.8599 148.735C99.495 148.771 99.1302 148.808 98.7836 148.826C94.3688 149.172 90.6472 149.118 87.9108 148.644C82.0913 147.641 108.416 133.442 121.168 109.691C121.441 109.18 121.715 108.67 121.97 108.141C122.718 106.647 123.412 105.134 124.032 103.566C135.616 74.7111 146.744 80.4347 158 88.8925C168.052 96.4206 214.024 72.4873 168.818 119.096Z" fill="#F1D669"/>
<path d="M122.209 107.369C122.191 107.716 122.136 108.117 122.063 108.59C121.315 113.166 117.958 123.3 112.777 132.888C109.548 138.849 105.584 145.163 100.421 148.827C100.056 148.863 99.738 148.808 99.3914 148.827C105.174 145.09 109.53 137.846 112.34 132.651C116.955 124.121 120.111 115.171 121.26 110.14C121.516 108.992 121.68 108.025 121.716 107.351C121.716 107.223 121.844 107.114 121.972 107.114C122.118 107.132 122.209 107.242 122.209 107.369Z" fill="#016099"/>
<path d="M98.0539 148.899C94.0222 149.136 89.8263 149.027 85.5392 148.608C85.1926 148.571 84.846 148.535 84.5176 148.498C62.1335 146.038 37.2867 135.119 17.6937 119.388C-5.94912 100.395 -4.41671 73.5997 13.5343 78.4665C44.9122 86.979 46.0433 68.8057 60.1998 101.817C60.6011 102.764 61.039 103.694 61.495 104.624C61.9329 105.517 62.389 106.392 62.8633 107.267C76.1259 131.546 104.001 148.553 98.0539 148.899Z" fill="#F1D669"/>
<path d="M85.539 148.589C85.1924 148.553 84.8457 148.516 84.5174 148.48C79.6465 144.652 74.6844 137.215 69.7041 126.242C66.7487 119.753 64.3772 113.245 62.8083 108.561C62.6441 108.214 63.1184 107.996 63.2643 108.36C64.8332 113.026 67.2048 119.534 70.1602 126.041C75.2682 137.343 80.5039 144.962 85.539 148.589Z" fill="#016099"/>
<path d="M208.716 131.273C208.661 133.734 207.366 134.718 205.779 134.663C205.706 134.663 205.615 134.663 205.542 134.645C204.082 134.518 202.969 133.442 203.024 131.127C203.079 129.104 205.067 126.497 205.761 125.641C205.907 125.458 205.998 125.349 205.998 125.349C205.998 125.349 208.771 128.83 208.716 131.273Z" fill="#6EB3F2"/>
<path d="M201.948 161.513C201.875 164.266 200.415 165.378 198.664 165.323C198.573 165.323 198.481 165.323 198.39 165.305C196.748 165.159 195.49 163.956 195.563 161.349C195.617 159.071 197.861 156.136 198.646 155.17C198.81 154.969 198.919 154.842 198.919 154.842C198.919 154.842 202.021 158.761 201.948 161.513Z" fill="#6EB3F2"/>
<path d="M160.518 107.559C163.656 108.725 170.041 110.676 173.251 111.624C179.746 113.537 195.161 97.6062 201.291 91.9373C201.838 91.4269 201.382 87.2344 201.035 87.3802L188.174 94.9996C188.703 92.0284 189.378 87.3438 187.882 82.9873C187.736 82.5681 187.39 82.24 186.952 82.1306C184.143 81.4015 182.045 79.0318 181.497 76.1518C181.388 75.5685 181.023 75.0763 180.476 74.8212C175.532 72.4515 170.059 73.2718 167.104 74.1467C162.306 75.5685 160.518 77.5918 158.456 82.7321C154.06 93.8694 156.614 106.119 160.518 107.559ZM159.952 85.2476C164.969 73.0348 173.781 74.7847 177.301 76.2429C180.366 77.5007 158.365 89.1119 159.952 85.2476Z" fill="#32264C"/>
<path d="M170.862 73.8369C170.807 72.8344 169.02 73.3083 166.794 73.0531C165.827 72.9437 163.693 72.324 161.576 72.3787C160.245 72.3969 159.588 72.6703 158.658 72.9255L161.412 77.3367C162.616 74.9306 170.99 75.8238 170.862 73.8369Z" fill="#FDB88E"/>
<path d="M164.239 75.3496C164.878 74.1648 170.697 74.0372 170.223 75.8235L165.371 81.1643C165.371 81.1643 164.021 81.4924 163.783 80.2347C163.491 78.9405 163.181 77.3182 164.239 75.3496Z" fill="#FDB88E"/>
<path d="M203.115 106.921C203.061 109.053 201.93 109.91 200.561 109.892C200.488 109.892 200.416 109.892 200.361 109.874C199.084 109.764 198.117 108.835 198.172 106.793C198.208 105.025 199.959 102.746 200.561 101.999C200.689 101.835 200.78 101.744 200.78 101.744C200.78 101.744 203.17 104.77 203.115 106.921Z" fill="#6EB3F2"/>
</svg>
