<svg width="375" height="296" viewBox="0 0 375 296" fill="none" xmlns="http://www.w3.org/2000/svg">
<path d="M374.074 174C381.074 224 377.574 205.5 377.574 225.972L405.574 306.5L-32.9259 314.5C-32.9259 290.943 -52.5734 166.753 29.0741 143C60.0741 133.982 58.4813 110.872 81.0741 87C107.574 59 122.074 68.5 142.074 35C142.074 35 152.276 18.5485 168.778 6.33218C173.602 2.76908 173.94 1.66621 178.51 1.21376C195.773 -3.56532 209.454 6.21906 220.173 22.6489C231.202 39.5595 248.494 38.089 259.693 53.7553C269.537 67.5553 273.574 95 295.074 108C316.574 121 367.517 127.161 374.074 174Z" fill="#32264C"/>
<path d="M131.124 185.83H218.182C215.72 156.377 207.474 143.369 205.848 125.275C205.639 123.021 200.877 120.559 193.746 120.211C177.51 119.421 149.822 122.418 148.568 125.855C142.97 141.395 131.774 154.402 131.124 185.83Z" fill="#528A4F"/>
<path d="M215.084 104.973C225.068 102.905 180.088 151.44 206.754 126.087C196.58 138.839 150.217 131.313 146.919 127.689C143.11 123.508 147.755 112.15 148.545 108.201C150.171 99.9553 147.755 111.177 147.755 111.177C131.701 108.201 127.312 95.0719 130.402 82.8632C133.19 71.8532 136.861 63.8451 146.919 56.7374C157.859 49.0258 165.014 44.6963 180.088 44.6963C221.155 44.6963 237.577 84.8572 231.074 104.973C229.029 111.314 224.173 98.1998 215.084 104.973Z" fill="#6EB3F2"/>
<path d="M176.395 29.691C174.072 30.1788 173.143 30.0162 172.121 30.0627C171.308 30.0859 170.611 30.5505 170.611 30.5505L168.8 26.0907C169.38 25.51 171.68 23.1872 174.746 22.1884C175.303 22.0026 178.532 21.4451 178.904 21.8865C179.159 22.1884 178.788 22.4207 178.253 22.5833C179.368 22.3743 180.576 22.2813 180.715 22.7459C180.808 23.0479 180.321 23.3266 179.693 23.5589C180.599 23.3498 181.273 23.3034 181.435 23.6053C181.714 24.1628 180.367 24.7203 179.391 25.0455C180.088 24.8596 180.762 24.7435 180.808 25.0919C180.948 25.8584 178.486 26.3695 177.417 26.7876C176.511 27.136 175.675 27.856 175.652 28.0419C176.558 28.4367 178.741 27.8096 178.904 28.7619C178.997 29.2497 178.067 29.3426 176.395 29.691Z" fill="#FDB88E"/>
<path d="M172.794 27.1592L168.892 49.1792C168.288 54.6842 188.752 55.1487 189.634 49.1792L188.891 40.5616L172.794 27.1592Z" fill="#C78E85"/>
<path d="M168.892 28.2736C169.217 38.7029 177.324 45.1834 184.896 44.6724C190.169 44.324 193.328 38.9119 194.512 35.8226C194.512 35.7994 194.512 35.7994 194.536 35.7762C195.116 34.3825 195.441 32.8959 195.534 31.4326C195.581 30.7822 195.558 30.155 195.511 29.5279C195.488 29.0633 195.441 28.5755 195.395 28.0645C195.349 27.2748 195.372 26.4154 195.418 25.4398C195.488 22.4202 194.93 21.0962 194.327 20.0509C191.4 15.0337 186.685 18.0998 182.596 9.99327C179.925 4.81346 168.613 19.4238 168.892 28.2736Z" fill="#FDB88E"/>
<path d="M179.553 31.5719C179.971 33.9412 177.695 35.962 175.233 35.0793C174.489 34.8006 173.886 34.2199 173.56 33.4998C172.515 31.0609 174.489 28.6684 176.928 29.0169C178.276 29.2027 179.321 30.2479 179.553 31.5719Z" fill="#ED715D"/>
<path d="M192.051 32.7795C192.097 34.2661 193.143 35.474 194.536 35.7759C195.117 34.3822 195.442 32.8957 195.535 31.4323C195.581 30.7819 195.558 30.1548 195.512 29.5276C195.396 29.5276 195.256 29.5044 195.14 29.5044C193.375 29.5741 192.004 31.0374 192.051 32.7795Z" fill="#ED715D"/>
<path d="M182.48 1.21387C181.11 -0.156573 159.531 -4.22144 150.751 17.4966C146.338 28.3904 147.36 30.1558 138.858 40.8173L132.262 62.1173C147.522 46.7637 155.861 54.7308 168.915 47.9018C175.442 44.4873 173.723 35.8466 174.281 24.883C174.745 15.5919 189.17 16.7533 186.522 10.5979C182.643 1.70166 182.48 1.21387 182.48 1.21387Z" fill="#32264C"/>
<path d="M190.936 27.7632C193.467 27.9954 194.606 26.625 194.675 26.5553C194.791 26.3927 194.768 26.1837 194.629 26.0675C194.466 25.9514 194.257 25.9746 194.141 26.114C194.071 26.1837 192.701 27.7864 189.403 26.7179C189.217 26.6482 189.031 26.7644 188.961 26.9502C188.892 27.136 189.008 27.3218 189.194 27.3915C189.821 27.6006 190.425 27.7167 190.936 27.7632Z" fill="#002869"/>
<path d="M180.32 28.1809C181.899 28.3203 183.061 27.7628 183.13 27.7164C183.293 27.6235 183.386 27.4144 183.293 27.2518C183.2 27.0892 182.991 26.9963 182.828 27.0892C182.712 27.1357 180.064 28.4132 177.44 26.1833C177.3 26.0672 177.068 26.0672 176.952 26.2298C176.836 26.3692 176.836 26.6014 176.998 26.7176C178.136 27.7164 179.321 28.088 180.32 28.1809Z" fill="#002869"/>
<path d="M186.244 34.8937C186.662 34.9401 187.08 34.8704 187.451 34.7311C188.102 34.4756 188.52 33.9878 188.636 33.3606C188.775 32.5709 188.288 31.9205 187.823 31.2933C187.591 30.9914 187.335 30.6662 187.196 30.341C186.662 29.2028 186.615 27.2982 186.615 27.2749C186.615 27.0891 186.453 26.9265 186.267 26.9265C186.081 26.9265 185.918 27.0891 185.918 27.2749C185.918 27.3678 185.965 29.3654 186.569 30.6197C186.755 31.0146 187.033 31.363 187.289 31.7115C187.707 32.2689 188.079 32.7335 187.986 33.2213C187.893 33.7323 187.475 33.9646 187.219 34.0575C186.638 34.2897 185.918 34.1968 185.454 33.8716C185.291 33.7555 185.082 33.7787 184.966 33.9413C184.85 34.1039 184.873 34.313 185.036 34.4291C185.361 34.7078 185.802 34.8472 186.244 34.8937Z" fill="#ED715D"/>
<path d="M185.454 38.5173C187.196 38.5405 188.497 37.774 188.59 37.7275C188.752 37.6346 188.822 37.4256 188.706 37.2397C188.613 37.0771 188.381 37.0075 188.218 37.1236C188.195 37.1468 185.501 38.6566 182.899 37.0771C182.736 36.9842 182.527 37.0307 182.411 37.1933C182.318 37.3559 182.365 37.5649 182.527 37.6811C183.549 38.3082 184.571 38.5173 185.454 38.5173Z" fill="#ED715D"/>
<path d="M218.461 123.646C224.284 122.296 221.78 122.347 226.214 115.565C240.8 93.2536 224.459 70.2174 216.765 71.6939C199.678 74.9953 219.891 99.6428 214.564 110.398C207.291 114.294 215.286 123.716 218.461 123.646Z" fill="#6EB3F2"/>
<path d="M211.276 85.4362C211.28 85.3284 211.325 85.276 211.412 85.2251C211.541 85.1757 211.667 85.234 211.704 85.3971C211.819 85.7787 214.764 95.4825 212.42 102.791C212.372 102.951 212.242 103 212.116 102.942C211.991 102.883 211.954 102.72 212.002 102.56C214.251 95.5185 211.31 85.707 211.269 85.6517C211.273 85.5439 211.275 85.4901 211.276 85.4362Z" fill="#32264C"/>
<path d="M158.36 93.025C158.407 93.0962 158.395 93.1552 158.347 93.2376C158.264 93.3434 158.133 93.378 158.028 93.2946C157.757 93.1156 150.849 88.581 149.387 82.5568C149.352 82.4266 149.436 82.3208 149.566 82.2862C149.696 82.2515 149.802 82.3349 149.837 82.4651C151.253 88.2645 158.208 92.8704 158.267 92.8826C158.313 92.9538 158.337 92.9894 158.36 93.025Z" fill="#32264C"/>
<path d="M194.459 89.3053C194.459 87.1234 193.888 84.9933 193.212 82.9153C192.433 80.1618 191.861 77.4084 190.615 74.8108C188.848 71.1222 186.251 67.4855 181.679 69.8753C179.861 70.8105 178.77 72.0573 178.25 73.512C178.925 73.512 179.601 73.7198 180.224 74.0315C183.861 75.8498 186.251 79.7981 188.277 83.175C189.108 84.6297 190.043 85.9285 190.926 87.2792C191.238 87.7468 191.757 88.5261 191.965 89.2534C192.693 89.3573 193.368 89.4092 194.095 89.4092L194.459 89.3053Z" fill="white"/>
<path d="M188.277 83.175C186.303 79.7981 183.861 75.8498 180.224 74.0315C179.601 73.7198 178.873 73.512 178.25 73.512C177.419 75.7459 177.99 78.3954 179.497 80.7852C182.25 84.9933 186.926 88.4741 191.965 89.2534C191.757 88.5261 191.186 87.6948 190.926 87.2792C190.043 85.9285 189.16 84.6297 188.277 83.175Z" fill="#F0ECE4"/>
<path d="M192.641 89.2009C193.264 87.0709 194.459 85.2526 195.706 83.4862C197.264 81.0964 198.615 78.6027 200.589 76.4727C203.343 73.4595 206.875 70.706 210.616 74.3946C212.071 75.7973 212.746 77.3559 212.798 78.8625C212.175 78.6547 211.447 78.6547 210.772 78.7586C206.772 79.434 203.291 82.4991 200.381 85.1487C199.135 86.2916 197.888 87.2267 196.641 88.2658C196.225 88.5775 195.498 89.2009 195.082 89.8243C194.355 89.7204 193.68 89.5646 193.004 89.3568L192.641 89.2009Z" fill="white"/>
<path d="M200.33 85.149C203.239 82.4995 206.72 79.4343 210.72 78.7589C211.395 78.655 212.123 78.655 212.746 78.8628C212.85 81.2526 211.551 83.5904 209.421 85.4607C205.577 88.6817 200.07 90.6559 195.03 89.9286C195.446 89.3052 196.225 88.6817 196.589 88.37C197.836 87.279 199.083 86.2919 200.33 85.149Z" fill="#F0ECE4"/>
<path d="M190.407 88.3181H165.47V133.516H190.407V88.3181Z" fill="#FFB7AB"/>
<path d="M213.785 88.3181H185.212V133.516H213.785V88.3181Z" fill="#FFA191"/>
<path opacity="0.4" d="M190.251 88.2659H184.952H165.522V99.3836H184.952H190.251H213.785V88.2659H190.251Z" fill="#7B83CE"/>
<path d="M190.355 88.2659H163.392V96.734H190.355V88.2659Z" fill="#FFB7AB"/>
<path d="M215.863 88.2659H184.536V96.734H215.863V88.2659Z" fill="#FFA191"/>
<path d="M204.953 88.3181H194.563V128.841H204.953V88.3181Z" fill="white"/>
<path d="M186.085 101.682C188.313 100.837 191 100.654 192.072 100.425C194.344 99.8934 196.788 98.2837 197.088 99.2018C197.907 101.59 191.809 103.253 191.815 104.689C192.305 105.307 194.697 105.501 196.376 105.439C198.408 105.386 204.12 103.639 204.208 104.853C204.284 105.853 200.158 107.241 198.712 107.458C200.204 107.249 206.638 105.546 206.345 107.24C206.124 108.475 198.679 109.734 197.695 109.859C198.172 109.818 205.275 108.339 204.986 109.563C204.641 110.99 198.163 111.792 197.175 111.941C197.793 111.898 203.858 110.442 203.403 111.969C203.135 112.914 197.252 114.258 196.241 114.403C191.862 115.022 180.637 112.691 179.289 112.147L178.019 105.359C178.019 105.359 180.671 103.923 181.996 103.429C183.672 102.802 185.236 101.993 186.085 101.682Z" fill="#FAB898"/>
<path d="M185.134 114.137C178.048 118.747 150.663 119.229 136.117 99.4938C136.117 99.4938 149.37 74.5191 148.835 79.3497C147.733 89.3588 164.678 100.221 182.246 99.4938C184.963 99.7151 187.58 111.775 185.134 114.137Z" fill="#6EB3F2"/>
<path d="M208.105 116.827C205.938 117.238 203.801 118.68 202.553 118.836C199.768 119.17 198.399 119.369 198.155 119.908C197.29 122.08 204.44 120.499 204.948 122.017C204.85 122.746 203.017 124.055 201.653 124.853C199.986 125.783 194.605 127.158 195.093 128.189C195.524 129.013 199.499 128.117 200.737 127.617C199.435 128.166 193.488 129.926 194.523 131.139C195.29 132.006 201.839 129.38 202.686 129.031C202.287 129.237 195.871 131.509 196.703 132.326C197.655 133.301 203.22 130.78 204.098 130.406C203.579 130.654 198.025 132.464 199.122 133.429C199.784 134.025 205.13 132.275 206.008 131.901C209.825 130.272 217.693 122.966 218.494 121.898L214.045 118.836C214.045 118.836 213.006 117.931 212.147 116.281C210.595 116.57 208.922 116.702 208.105 116.827Z" fill="#FDB98D"/>
<path d="M217.712 123.761C219.5 124.425 223.396 123.761 225.465 115.68C232.078 89.857 223.396 92.4742 223.396 96.8904C216.383 110.513 219.142 99.7578 213.815 110.513C206.542 114.409 214.537 123.831 217.712 123.761Z" fill="#6EB3F2"/>
</svg>
