<svg width="321" height="293" viewBox="0 0 321 293" fill="none" xmlns="http://www.w3.org/2000/svg">
<path d="M156.058 253.366C156.058 253.366 158.444 266.135 159.766 266.783L158.789 269.775C158.004 272.175 155.73 273.759 153.223 273.655C150.684 273.543 148.538 271.719 147.993 269.215L147.345 266.207L144.806 253.518L156.058 253.366Z" fill="#F8B791"/>
<path d="M159.533 266.422L172.403 271.463C173.276 271.895 173.748 274.247 173.532 275.199L147.425 274.471L147.016 265.574C147.016 265.574 149.731 265.406 155.097 267.166C158.308 268.214 159.533 266.422 159.533 266.422Z" fill="#528A4F"/>
<path d="M93.8727 245.078C93.8727 245.078 85.2957 256.07 85.8723 257.422L83.1815 259.054C81.0193 260.366 78.2644 260.094 76.4304 258.382C74.5725 256.646 74.132 253.87 75.3573 251.614L76.8229 248.91L85.2317 237.878L93.8727 245.078Z" fill="#F8B791"/>
<path d="M85.9357 257.006L92.4225 269.198C92.7989 270.094 91.6297 272.182 90.8449 272.766L71.4966 255.246L76.9823 248.222C76.9823 248.222 79.1526 249.862 82.0837 254.678C83.8375 257.566 85.9357 256.998 85.9357 256.998V257.006Z" fill="#528A4F"/>
<path d="M123.255 157.956L94.4411 164.636C94.4411 164.636 94.7054 183.684 94.361 200.389C94.1608 210.053 91.8865 219.549 87.7301 228.278C83.9021 236.31 83.3335 236.582 78.104 245.006L93.7044 254.254C93.7044 254.254 116.624 227.87 119.027 204.517L123.263 157.956H123.255Z" fill="#6EB3F2"/>
<path d="M143.036 159.084L113.021 159.924C113.021 159.924 130.015 226.374 141.347 258.111L158.284 257.423L143.036 159.084Z" fill="#6EB3F2"/>
<path d="M73.0484 67.0747C73.0907 71.8309 73.3853 76.0155 73.8522 79.7156C76.645 82.4205 79.4443 82.2302 82.1799 80.563C80.8808 72.5502 79.524 63.0043 79.524 63.0043C79.524 63.0043 80.5247 57.5551 82.4994 56.4131C82.3876 56.1041 81.9441 55.7029 81.5107 55.7829C79.7851 56.105 78.813 57.7568 78.813 57.7568C78.813 57.7568 77.4772 49.6606 76.8002 50.0502C76.1232 50.4399 76.3572 54.733 76.3572 54.733C76.3572 54.733 75.3002 48.2754 74.7702 48.8674C74.5636 49.0956 74.7702 48.8674 74.7864 54.5743C74.7864 54.5743 73.1984 49.6906 72.9005 50.6054C72.5242 51.7646 73.0433 55.5522 73.0433 55.5522C73.0433 55.5522 71.7667 51.7872 71.5664 52.5452C71.366 53.3033 73.1771 63.5667 73.1771 63.5667L73.0523 67.0591L73.0484 67.0747Z" fill="#F8B791"/>
<path d="M209.514 114.33C204.845 115.274 200.689 115.866 196.973 116.178C193.746 114.018 193.353 111.234 194.41 108.218C202.523 107.818 212.149 107.154 212.157 107.154C212.157 107.154 217.282 105.042 217.987 102.874C218.315 102.922 218.796 103.266 218.812 103.714C218.852 105.466 217.443 106.762 217.443 106.762C217.443 106.762 225.651 106.378 225.411 107.122C225.171 107.866 220.918 108.53 220.918 108.53C220.918 108.53 227.453 108.218 226.989 108.866C226.812 109.114 226.989 108.866 221.399 110.034C221.399 110.034 226.516 110.57 225.675 111.05C224.626 111.658 220.798 111.946 220.798 111.946C220.798 111.946 224.746 112.41 224.05 112.762C223.345 113.122 212.926 113.49 212.926 113.49L209.53 114.338L209.514 114.33Z" fill="#F7A09F"/>
<path d="M207.072 104.994C159.037 105.098 122.495 87.2975 122.495 87.2975L121.214 87.3215C121.07 87.6175 120.349 88.3855 116.633 88.5935C112.244 88.8415 109.514 87.6735 109.257 87.5615L108.528 87.5775C108.528 87.5775 104.54 87.2895 97.1325 89.2816C89.7247 91.2736 102.826 91.198 93.4246 96.8941C84.0228 102.59 81.7767 70.4373 81.7767 70.4373L70.3358 74.7276C70.3358 74.7276 63.1854 104.978 75.3415 117.73C84.8314 135.411 93.4246 120.018 93.4246 120.018C93.4246 120.018 79.498 159.419 87.7226 168.404C93.5528 174.764 122.239 167.412 122.239 167.412C137.03 164.852 142.828 165.828 144.294 164.852C153.512 158.715 144.991 129.979 144.991 129.979L203.996 117.73C203.996 117.73 210.339 104.97 207.064 104.978L207.072 104.994Z" fill="#E54925"/>
<path d="M79.4434 141.258C76.9727 160.111 90.1825 151.863 103.537 160.897C116.892 169.931 128.283 163.647 132.997 144.007C137.71 124.368 145.761 125.251 150.077 121.103C160.51 111.078 139.893 98.8353 140.468 90.247C141.444 75.6282 130.894 77.3916 127.174 71.579C123.66 66.082 120.119 68.19 112.904 59.1878C100.879 55.3302 101.166 66.2344 93.4876 71.579C78.0228 82.3444 89.4858 87.3406 79.4434 95.5371C66.5055 106.107 80.2026 112.311 70.8217 121.237C66.6898 125.166 81.9142 122.404 79.4434 141.258Z" fill="#32264C"/>
<path d="M111.704 59.9251C113.599 57.1693 121.015 58.6662 127.048 72.0291C130.076 78.7225 116.902 84.1002 114.852 73.9645C113.478 67.1038 106.21 68.1556 107.654 64.1874C109.774 58.498 111.704 59.9251 111.704 59.9251Z" fill="#32264C"/>
<path d="M74.2963 238.956C74.2963 238.956 61.9999 247.053 62.1177 248.595L58.8716 249.318C56.2629 249.899 53.6031 248.69 52.3474 246.363C51.082 244.003 51.5799 241.077 53.5655 239.236L55.9431 237.025L68.0924 228.84L74.2966 238.964L74.2963 238.956Z" fill="#F8B791"/>
<path d="M62.3223 248.199L64.6789 262.585C64.7599 263.604 62.8787 265.298 61.8928 265.623L48.4854 241.567L56.3506 236.401C56.3506 236.401 57.9633 238.773 59.2581 244.58C60.0331 248.057 62.3227 248.207 62.3227 248.207L62.3223 248.199Z" fill="#6EB3F2"/>
<path d="M41.409 175.5L51.2709 150.966C51.2709 150.966 113.865 195.015 102.863 215.578C93.0617 233.916 68.4913 243.57 68.4913 243.57L62.598 230.721L78.2999 214.069L41.3999 175.483L41.409 175.5Z" fill="#FFA191"/>
<path d="M52.8658 266.252C52.8658 266.252 54.1076 280.909 55.5276 281.548L54.6169 284.743C53.8853 287.305 51.5498 289.067 48.9018 289.058C46.2197 289.042 43.8829 287.204 43.2082 284.584L42.4035 281.438L41.0041 266.863L52.8658 266.252Z" fill="#F8B791"/>
<path d="M55.2687 281.177L69.0446 285.978C69.9826 286.398 70.5752 288.86 70.3852 289.873L42.8195 290.151L42.0324 280.784C42.0324 280.784 44.8891 280.498 50.619 282.14C54.0481 283.116 55.2687 281.177 55.2687 281.177Z" fill="#6EB3F2"/>
<path d="M61.2701 161.462L32.006 155.999C32.006 155.999 34.7163 235.608 39.9544 271.297L55.9695 270.689L61.2701 161.462Z" fill="#FFA191"/>
<path d="M59.8409 194.878L62.6213 167.19" stroke="#BECBD4" stroke-width="0.128709" stroke-miterlimit="10" stroke-linecap="round"/>
<path d="M63.6244 90.8879C62.9401 86.6803 59.4657 83.3983 55.2022 83.1715C53.9054 83.1024 52.56 83.3141 51.2754 84.0136C48.2247 85.6505 47.321 90.3663 47.0846 93.9413L46.8439 98.7418L47.8172 116.797C50.9879 128.118 59.9855 127.379 59.5196 113.327L59.052 104.134C64.45 102.383 64.3954 95.5993 63.624 90.8795L63.6244 90.8879Z" fill="#F8B791"/>
<path d="M59.0525 104.151C59.0525 104.151 56.5531 105.159 52.9082 102.956C52.9082 102.956 55.0649 106.956 59.2586 108.242L59.0525 104.151Z" fill="#E67F7E"/>
<path d="M126.944 100.567C122.859 103.494 119.109 105.859 115.671 107.764C111.627 107.081 110.043 104.572 109.754 101.211C117.397 97.3213 126.376 92.5185 126.376 92.5185C126.376 92.5185 130.393 88.2676 130.133 85.8775C130.468 85.7803 131.082 85.9007 131.284 86.3324C132.083 88.0006 131.282 89.8563 131.282 89.8563C131.282 89.8563 139.017 85.9373 139.108 86.7536C139.198 87.5698 135.392 90.0466 135.392 90.0466C135.392 90.0466 141.55 86.9228 141.378 87.7405C141.314 88.0556 141.378 87.7405 136.505 91.2888C136.505 91.2888 141.66 89.5889 141.066 90.4227C140.319 91.4651 136.763 93.3916 136.763 93.3916C136.763 93.3916 140.767 92.1241 140.242 92.7778C139.725 93.4228 129.843 98.2852 129.843 98.2852L126.944 100.567Z" fill="#F8B791"/>
<path d="M123.835 91.9894C123.835 91.9894 102.845 104.169 75.1903 110.78C70.5883 111.884 64.5652 112.544 59.6401 112.046C56.6718 113.181 47.6621 111.377 47.5843 111.11C42.2977 111.116 38.7373 111.361 32.107 113.185C18.8299 116.841 11.3564 123.412 4.57055 132.052C1.35934 136.146 2.46233 142.247 6.17857 145.884C9.29767 148.942 21.3518 152.955 31.0856 153.557C31.0856 153.557 28.0594 161.632 31.581 161.701C48.9344 162.031 62.0267 167.542 71.3507 164.036C79.8075 160.858 74.8032 140.235 74.8032 140.235C74.8032 140.235 110.183 136.788 128.117 101.832L123.835 91.981L123.835 91.9894Z" fill="#528A4F"/>
<path d="M69.5488 153.795C69.6202 155.229 68.6007 156.45 67.2583 156.518C65.9159 156.586 64.7746 155.489 64.7032 154.055C64.6318 152.621 65.6513 151.399 66.9937 151.331C68.3361 151.263 69.4774 152.361 69.5488 153.795Z" fill="#EDEBE4"/>
<path d="M62.2177 119.334C62.2891 120.768 61.2697 121.989 59.9273 122.057C58.5849 122.125 57.4435 121.028 57.3722 119.594C57.3008 118.16 58.3202 116.938 59.6626 116.87C61.005 116.802 62.1464 117.9 62.2177 119.334Z" fill="#EDEBE4"/>
<path d="M57.0009 147.688C57.0723 149.122 56.0529 150.344 54.7105 150.412C53.3681 150.48 52.2267 149.382 52.1554 147.948C52.084 146.514 53.1034 145.293 54.4458 145.225C55.7882 145.157 56.9296 146.254 57.0009 147.688Z" fill="#EDEBE4"/>
<path d="M44.5058 134.744C44.5772 136.178 43.5578 137.4 42.2154 137.467C40.873 137.535 39.7316 136.438 39.6602 135.004C39.5889 133.57 40.6083 132.348 41.9507 132.28C43.2931 132.213 44.4345 133.31 44.5058 134.744Z" fill="#EDEBE4"/>
<path d="M41.25 155.013C41.3213 156.447 40.3019 157.668 38.9595 157.736C37.6171 157.804 36.4758 156.707 36.4044 155.273C36.333 153.839 37.3524 152.617 38.6948 152.549C40.0372 152.481 41.1786 153.579 41.25 155.013Z" fill="#EDEBE4"/>
<path d="M25.9331 125.672C26.0044 127.106 24.985 128.328 23.6426 128.396C22.3002 128.464 21.1589 127.366 21.0875 125.932C21.0161 124.499 22.0356 123.277 23.378 123.209C24.7204 123.141 25.8617 124.239 25.9331 125.672Z" fill="#EDEBE4"/>
<path d="M11.5713 139.078C11.6426 140.512 10.6232 141.734 9.28079 141.802C7.93839 141.87 6.79705 140.772 6.72568 139.338C6.6543 137.905 7.67374 136.683 9.01614 136.615C10.3585 136.547 11.4999 137.645 11.5713 139.078Z" fill="#EDEBE4"/>
<path d="M28.2963 142.246C28.3677 143.68 27.3483 144.902 26.0059 144.97C24.6635 145.038 23.5221 143.94 23.4508 142.506C23.3794 141.073 24.3988 139.851 25.7412 139.783C27.0836 139.715 28.225 140.812 28.2963 142.246Z" fill="#EDEBE4"/>
<path d="M42.06 117.759C42.1314 119.192 41.112 120.414 39.7696 120.482C38.4272 120.55 37.2858 119.452 37.2144 118.019C37.1431 116.585 38.1625 115.363 39.5049 115.295C40.8473 115.227 41.9886 116.325 42.06 117.759Z" fill="#EDEBE4"/>
<path d="M98.8349 126.199C98.9063 127.633 97.8869 128.855 96.5445 128.923C95.2021 128.991 94.0607 127.893 93.9893 126.46C93.918 125.026 94.9374 123.804 96.2798 123.736C97.6222 123.668 98.7636 124.766 98.8349 126.199Z" fill="#EDEBE4"/>
<path d="M64.894 134.57C64.9654 136.003 63.9459 137.225 62.6035 137.293C61.2611 137.361 60.1198 136.264 60.0484 134.83C59.9771 133.396 60.9965 132.174 62.3389 132.106C63.6813 132.038 64.8226 133.136 64.894 134.57Z" fill="#EDEBE4"/>
<path d="M79.4961 132.156C79.5674 133.59 78.548 134.811 77.2056 134.879C75.8632 134.947 74.7219 133.85 74.6505 132.416C74.5791 130.982 75.5985 129.76 76.9409 129.692C78.2833 129.624 79.4247 130.722 79.4961 132.156Z" fill="#EDEBE4"/>
<path d="M81.0307 117.115C81.1021 118.549 80.0827 119.771 78.7403 119.838C77.3979 119.906 76.2565 118.809 76.1851 117.375C76.1138 115.941 77.1332 114.719 78.4756 114.652C79.818 114.584 80.9594 115.681 81.0307 117.115Z" fill="#EDEBE4"/>
<path d="M119.613 106.667C119.685 108.101 118.665 109.323 117.323 109.391C115.98 109.459 114.839 108.361 114.768 106.927C114.696 105.493 115.716 104.272 117.058 104.204C118.401 104.136 119.542 105.233 119.613 106.667Z" fill="#EDEBE4"/>
<path d="M102.069 108.652C102.14 110.086 101.121 111.307 99.7784 111.375C98.436 111.443 97.2946 110.346 97.2232 108.912C97.1519 107.478 98.1713 106.256 99.5137 106.188C100.856 106.121 101.997 107.218 102.069 108.652Z" fill="#EDEBE4"/>
<path d="M63.9556 91.8133C64.1044 85.7065 56.779 76.7992 45.6958 84.7663C36.646 91.2618 21.5146 105.34 24.9687 123.233L42.4672 129.388C55.854 121.714 63.7927 98.4361 63.956 91.8218L63.9556 91.8133Z" fill="#F1D669"/>
<path d="M195.735 251.543C195.735 251.543 194.478 266.04 193.156 266.696L194.125 269.688C194.91 272.096 197.176 273.68 199.683 273.576C202.222 273.472 204.368 271.648 204.921 269.144L205.577 266.136L206.41 251.711L195.735 251.543Z" fill="#F8B791"/>
<path d="M193.38 266.335L180.503 271.351C179.63 271.783 179.157 274.128 179.366 275.088L205.473 274.416L205.898 265.519C205.898 265.519 203.183 265.343 197.817 267.095C194.606 268.143 193.38 266.343 193.38 266.343V266.335Z" fill="white"/>
<path d="M180.095 271.751L205.481 271.151" stroke="#535E5E" stroke-width="0.0965318" stroke-miterlimit="10"/>
<path d="M192.612 268.231C192.612 268.231 194.999 266.007 193.821 264.943C192.011 263.303 192.236 266.799 192.332 267.823C192.332 267.871 192.276 267.879 192.26 267.839C191.947 267.095 190.978 265.039 190.057 265.607C188.936 266.295 191.635 268.287 191.635 268.287" stroke="#535E5E" stroke-width="0.0965318" stroke-miterlimit="10"/>
<path d="M199.475 142.564L224.758 149.58C224.758 149.58 213.234 241.695 208.877 259.143C208.429 260.943 192.9 261.551 192.588 259.015C188.752 227.83 199.475 142.564 199.475 142.564Z" fill="#32264C"/>
<path d="M221.731 231.679C221.731 231.679 232.382 241.615 232.078 243.047L235.033 244.127C237.411 244.999 240.062 244.191 241.519 242.159C243.001 240.095 242.897 237.287 241.255 235.311L239.293 232.943L228.442 223.39L221.723 231.679H221.731Z" fill="#F8B791"/>
<path d="M231.933 242.655L227.945 255.879C227.745 256.831 229.307 258.655 230.188 259.071L245.764 238.127L239.013 232.302C239.013 232.302 237.203 234.335 235.265 239.631C234.104 242.799 231.933 242.655 231.933 242.655Z" fill="white"/>
<path d="M228.009 256.448L243.193 236.111" stroke="#535E5E" stroke-width="0.0965318" stroke-miterlimit="10"/>
<path d="M232.958 244.431C232.958 244.431 232.678 241.183 231.116 241.447C228.705 241.855 231.596 243.839 232.469 244.391C232.509 244.415 232.477 244.471 232.437 244.463C231.661 244.247 229.442 243.743 229.322 244.815C229.178 246.119 232.405 245.231 232.405 245.231" stroke="#535E5E" stroke-width="0.0965318" stroke-miterlimit="10"/>
<path d="M207.076 146.028C207.076 146.028 205.346 188.318 206.355 190.342C212.577 202.83 229.083 219.782 236.667 227.711C235.081 230.343 229.731 238.183 225.879 242.271L188.656 208.414C176.628 199.478 180.864 144.076 180.864 144.076L207.076 146.02V146.028Z" fill="#32264C"/>
<path d="M208.156 56.6095C211.104 58.0575 212.121 62.4896 212.465 65.8657L212.857 70.4098L212.553 87.5383C209.934 98.3705 201.389 97.9705 201.534 80.3381L201.662 71.6179C202.102 57.6255 206.915 55.9935 208.156 56.6015V56.6095Z" fill="#C78E85"/>
<path d="M211.977 54.8896C210.423 50.5935 209.142 49.8415 205.458 51.7936C201.774 53.7376 202.495 53.0496 198.707 53.3056C198.683 53.3056 198.635 53.3056 198.579 53.3216C198.427 53.3456 198.282 53.3856 198.154 53.4496C196.288 54.1296 190.819 57.2177 195.223 64.0419C197.009 66.81 194.735 70.178 198.098 73.8021C201.462 77.4262 202.15 74.0821 207.348 74.6982C213.955 75.4742 214.331 75.6022 215.476 69.362C215.957 67.882 215.725 67.082 216.998 64.7779C220.578 58.2817 213.53 59.1858 211.977 54.8896Z" fill="#744956"/>
<path d="M127.351 140.842C132.094 140.409 136.241 139.776 139.891 139.012C142.365 136.009 141.944 133.236 140.06 130.648C132.177 132.599 122.769 134.728 122.769 134.728C122.769 134.728 117.252 134.172 115.959 132.305C115.657 132.443 115.294 132.908 115.413 133.34C115.876 135.033 117.597 135.869 117.597 135.869C117.597 135.869 109.629 137.858 110.073 138.498C110.517 139.137 114.776 138.551 114.776 138.551C114.776 138.551 108.426 140.136 109.059 140.613C109.3 140.803 109.059 140.613 114.749 140.13C114.749 140.13 110.007 142.114 110.949 142.335C112.129 142.616 115.876 141.791 115.876 141.791C115.876 141.791 112.226 143.37 112.999 143.51C113.773 143.65 123.862 141.002 123.862 141.002L127.356 140.836L127.351 140.842Z" fill="#F8B791"/>
<path d="M245.339 170.821C245.612 166.077 245.596 161.877 245.371 158.157C242.769 155.277 239.958 155.285 237.115 156.765C237.884 164.845 238.604 174.461 238.604 174.461C238.604 174.461 237.243 179.829 235.201 180.838C235.289 181.158 235.705 181.582 236.146 181.534C237.891 181.318 238.973 179.741 238.973 179.741C238.973 179.741 239.765 187.91 240.47 187.566C241.167 187.222 241.223 182.926 241.223 182.926C241.223 182.926 241.848 189.438 242.424 188.878C242.649 188.662 242.424 188.878 242.785 183.182C242.785 183.182 244.05 188.158 244.41 187.262C244.867 186.134 244.595 182.318 244.595 182.318C244.595 182.318 245.62 186.158 245.868 185.414C246.124 184.67 244.995 174.309 244.995 174.309L245.347 170.829L245.339 170.821Z" fill="#F8B791"/>
<path d="M124.679 132.289C124.679 132.289 133.617 130.502 167.939 102.972C182.955 87.9562 184.675 79.7547 201.533 80.3388C206.074 80.4988 210.519 80.9868 212.841 81.2828C216.669 81.7708 221.835 84.3069 224.285 85.6829C233.847 91.075 244.21 117.284 246.228 128.308C251.49 156.997 249.536 165.485 249.536 165.485L233.903 166.997L227.433 127.42C227.433 127.42 230.091 150.525 224.814 155.021C215.981 162.549 195.311 153.141 178.397 154.349C168.354 155.061 175.61 114.22 175.61 114.22C175.61 114.22 181.883 145.518 126.824 142.657L124.679 132.289Z" fill="#F1D669"/>
<path d="M217.254 206.094L203.672 188.237L211.248 159.157" stroke="#8698B8" stroke-width="0.128709" stroke-miterlimit="10" stroke-linecap="round"/>
<path d="M270.82 239.468C270.82 239.468 269.899 257.82 268.45 258.748L269.979 262.06C271.213 264.725 274.064 266.245 276.963 265.789C279.902 265.325 282.16 262.941 282.456 259.988L282.817 256.444L283.826 238.172L270.82 239.484V239.468Z" fill="#F8B791"/>
<path d="M268.665 258.301L254.362 265.813C253.409 266.421 253.169 269.189 253.537 270.261L284.554 266.557L283.112 255.668C283.112 255.668 279.933 255.836 273.927 258.565C270.331 260.197 268.665 258.301 268.665 258.301Z" fill="#02143F"/>
<path d="M253.93 266.325L284.122 262.804" stroke="#C9D6DC" stroke-width="0.110833" stroke-miterlimit="10"/>
<path d="M283.065 258.076C283.065 258.076 277.139 259.364 276.202 263.637" stroke="#C9D6DC" stroke-width="0.110833" stroke-miterlimit="10"/>
<path d="M268.017 260.581C268.017 260.581 270.492 257.701 268.986 256.629C266.664 254.989 267.393 258.981 267.641 260.149C267.649 260.197 267.585 260.221 267.561 260.181C267.096 259.373 265.695 257.125 264.702 257.909C263.492 258.853 266.896 260.781 266.896 260.781" stroke="#C9D6DC" stroke-width="0.110833" stroke-miterlimit="10"/>
<path d="M257.966 143.138L284.514 137.466C283.713 207.547 288.919 226.1 285.523 249.108L262.771 251.485L257.966 143.138Z" fill="#528A4F"/>
<path d="M245.065 241.676C245.065 241.676 241.87 259.773 240.316 260.509L241.422 263.981C242.31 266.773 244.953 268.637 247.884 268.541C250.855 268.445 253.394 266.357 254.059 263.461L254.86 259.989L258.135 241.98L245.065 241.668V241.676Z" fill="#F8B791"/>
<path d="M240.58 260.093L225.452 265.765C224.427 266.253 223.843 268.973 224.083 270.077L255.324 270.253L255.252 259.269C255.252 259.269 252.072 259.037 245.77 261.005C241.998 262.181 240.58 260.085 240.58 260.085V260.093Z" fill="#02143F"/>
<path d="M224.964 266.229L255.364 266.477" stroke="#C9D6DC" stroke-width="0.110833" stroke-miterlimit="10"/>
<path d="M254.907 261.66C254.907 261.66 248.869 262.204 247.411 266.325" stroke="#C9D6DC" stroke-width="0.110833" stroke-miterlimit="10"/>
<path d="M239.659 262.277C239.659 262.277 242.478 259.725 241.117 258.477C239.018 256.557 239.243 260.613 239.347 261.797C239.347 261.845 239.283 261.861 239.259 261.813C238.898 260.949 237.793 258.549 236.704 259.205C235.383 259.997 238.522 262.333 238.522 262.333" stroke="#C9D6DC" stroke-width="0.110833" stroke-miterlimit="10"/>
<path d="M244.296 144.498L271.34 142.17C261.827 211.604 264.686 230.668 258.447 253.077L235.583 252.605L244.296 144.506V144.498Z" fill="#528A4F"/>
<path d="M320.824 65.6397L310.349 64.3357" stroke="#5074AC" stroke-width="0.128709" stroke-miterlimit="10" stroke-linecap="round"/>
<path d="M319.51 60.4397C319.47 65.1918 319.174 69.3839 318.717 73.08C315.93 75.7841 313.127 75.5921 310.389 73.928C311.686 65.9118 313.031 56.3676 313.031 56.3676C313.031 56.3676 312.022 50.9195 310.052 49.7834C310.164 49.4714 310.605 49.0714 311.045 49.1514C312.767 49.4794 313.744 51.1275 313.744 51.1275C313.744 51.1275 315.073 43.0313 315.746 43.4153C316.419 43.8073 316.187 48.0954 316.187 48.0954C316.187 48.0954 317.236 41.6392 317.772 42.2312C317.981 42.4552 317.772 42.2312 317.756 47.9354C317.756 47.9354 319.342 43.0473 319.646 43.9673C320.023 45.1193 319.51 48.9114 319.51 48.9114C319.51 48.9114 320.783 45.1513 320.984 45.9113C321.192 46.6713 319.382 56.9356 319.382 56.9356L319.51 60.4317V60.4397Z" fill="#F8B791"/>
<path d="M188.724 119.532C192.863 121.884 196.632 123.742 200.062 125.201C203.799 124.149 205.04 121.632 204.973 118.435C197.388 115.525 188.443 111.896 188.443 111.896C188.443 111.896 184.226 108.289 184.234 106.013C183.904 105.953 183.337 106.132 183.195 106.549C182.616 108.205 183.549 109.875 183.549 109.875C183.549 109.875 175.873 106.956 175.871 107.737C175.869 108.518 179.703 110.47 179.703 110.47C179.703 110.47 173.589 108.14 173.83 108.898C173.923 109.196 173.83 108.898 178.78 111.756C178.78 111.756 173.758 110.672 174.4 111.392C175.205 112.3 178.754 113.761 178.754 113.761C178.754 113.761 174.86 112.966 175.413 113.524C175.965 114.081 185.759 117.677 185.759 117.677L188.719 119.538L188.724 119.532Z" fill="#F8B791"/>
<path d="M268.625 66.7037C271.572 68.1518 272.589 72.5839 272.933 75.96L273.326 80.5041L273.021 97.6325C270.403 108.465 261.858 108.065 262.002 90.4323L262.13 81.7121C262.57 67.7197 267.383 66.0877 268.625 66.6957V66.7037Z" fill="#C78E85"/>
<path d="M245.345 97.252C251.781 91.4246 256.607 91.1971 259.96 91.4246C265.854 91.8246 271.588 90.5286 271.588 90.5286C272.429 90.4726 274.759 90.7446 276.521 90.9446C306.032 94.3127 310.357 64.3359 310.357 64.3359L320.84 65.64C320.84 65.64 320.223 94.0087 312.575 113.457C308.323 124.281 290.288 129.634 284.986 129.85C284.986 129.85 290.079 144.346 284.714 148.458C281.879 150.626 266.863 149.85 259.912 149.514C253.914 149.226 245.457 149.57 243.591 148.034C240.596 145.562 245.345 129.85 245.345 129.85C215.849 142.658 191.18 122.994 191.18 122.994L193.325 113.458C193.325 113.458 225.536 121.422 243.591 99.0396L245.345 97.252Z" fill="#6EB3F2"/>
<path d="M262.466 66.1039C268.977 61.8318 275.144 65.2799 278.876 67.9599C284.658 72.1121 289.735 72.9201 296.87 73.7361C304.03 74.5601 311.093 78.2482 314.953 88.5045C320.391 102.969 311.149 112.201 304.222 115.713C291.849 121.985 269.97 122.849 266.158 90.5205C266.158 90.5205 249.26 74.7681 262.458 66.1039H262.466Z" fill="#32264C"/>
<path d="M260.657 36.0959C258.042 28.218 249.221 33.6422 249.221 33.6422C249.221 33.6422 245.572 23.8296 238.738 28.3816C231.903 32.9336 243.528 50.4159 243.528 50.4159C243.528 50.4159 263.274 43.9738 260.658 36.0959H260.657Z" fill="#FFA191"/>
<path d="M79.2685 6.88264C74.0793 2.91612 70.6777 10.3377 70.6777 10.3377C70.6777 10.3377 63.9579 5.57037 61.4768 11.5486C58.9944 17.5255 74.3305 23.7565 74.3305 23.7565C74.3305 23.7565 84.4563 10.8478 79.2685 6.88264Z" fill="#6EB3F2"/>
<path d="M47.0419 51.0209C42.9892 49.0354 41.6711 54.6369 41.6711 54.6369C41.6711 54.6369 36.4718 52.3193 35.5849 56.7942C34.6987 61.2691 45.944 63.3551 45.944 63.3551C45.944 63.3551 51.0946 53.0064 47.0419 51.0209Z" fill="#E54925"/>
</svg>
