<svg width="375" height="260" viewBox="0 0 375 260" fill="none" xmlns="http://www.w3.org/2000/svg">
<mask id="mask0_469_2522" style="mask-type:alpha" maskUnits="userSpaceOnUse" x="0" y="0" width="375" height="260">
<rect width="375" height="260" fill="white"/>
</mask>
<g mask="url(#mask0_469_2522)">
<path d="M138.653 262.57L250.076 327.988C276.392 315.129 278.478 273.433 289.814 262.57C317.212 236.311 270.582 218.64 272.092 196.145C274.655 157.854 246.95 162.472 237.181 147.247C227.953 132.849 218.654 138.371 199.706 114.791C168.127 104.687 168.879 133.248 148.715 147.247C108.102 175.445 150.71 188.047 124.337 209.516C90.3599 237.201 110.517 287.729 133.815 268.566C122.964 278.859 140.533 255.385 138.653 262.57Z" fill="#32264C"/>
<path d="M156.221 299.332C141.51 296.623 158.159 255.082 150.84 212.38C143.037 166.945 247.755 166.002 243.175 206.722C237.455 257.621 256.31 291.352 244.192 296.188C233.529 300.444 181.182 303.926 156.221 299.332Z" fill="#6EB3F2"/>
<path d="M59.8538 171.557C56.7689 166.803 50.1515 164.17 45.9461 161.17C42.713 158.858 36.1473 151.965 37.3942 150.027C38.6255 148.083 45.6204 157.23 52.0343 157.86C51.5405 155.724 47.0971 151.588 48.7198 149.564C49.2874 148.851 51.1711 151.299 53.6257 153.072C54.7703 153.917 58.8288 155.456 60.7185 157.888C63.7287 161.731 64.0219 163.644 67.2201 166.32L59.8538 171.557Z" fill="#FDB88E"/>
<path d="M160.305 220.527C142.266 225.233 114.039 209.524 100.295 204.831C79.3787 197.684 84.3213 192.796 74.4964 188.939C64.0633 184.844 63.8954 176.652 57.6921 171.73C55.4789 169.528 65.0604 161.991 66.3926 163.091C114.327 182.609 144.16 161.933 195.794 180.921L166.186 233.271L160.305 220.527Z" fill="#6EB3F2"/>
<path d="M201.401 233.86C231.494 243.402 174.581 242.568 205.046 236.801C224.652 233.09 244.246 231.411 246.864 215.411C249.482 199.41 244.831 187.799 225.811 175.831C213.984 168.365 206.385 160.7 181.142 165.605L222.864 220.885C210.606 224.416 202.883 239.675 201.401 244.608C174.225 233.86 188.801 231.542 165.794 233.86C174.773 183.596 181.675 241.181 201.401 233.86Z" fill="#6EB3F2"/>
<path d="M209.109 147.115L214.174 174.5C215.844 183.449 185.428 185.147 184.539 177.276L184.97 162.128L209.109 147.115Z" fill="#C78E85"/>
<path d="M174.165 152.882C174.192 153.879 174.353 159.89 175.242 162.208C175.593 163.098 176.024 164.041 176.536 165.065C178.341 168.65 183.837 175.604 191.191 174.958C198.923 174.257 206.305 167.707 207.706 156.305C214.98 156.494 214.899 141.211 207.679 144.958C208.083 141.211 209.726 138.92 209.322 137.411C203.018 113.502 188.73 125.124 185.389 128.251C170.544 142.145 174.138 151.13 174.165 152.882Z" fill="#FDB98D"/>
<path d="M190.779 168.286C195.324 167.443 195.729 162.174 194.734 162.416C193.398 162.73 190.329 164.268 184.498 164.039C182.503 163.975 185.42 169.282 190.779 168.286Z" fill="white"/>
<path d="M190.779 168.286C195.324 167.443 195.729 162.174 194.734 162.416C193.398 162.73 190.329 164.268 184.498 164.039C182.503 163.975 185.42 169.282 190.779 168.286Z" fill="white"/>
<path d="M195.261 155.093C195.557 157.68 197.901 159.513 200.487 159.217C203.074 158.92 204.906 156.575 204.609 153.988C204.313 151.4 201.969 149.567 199.383 149.864C196.797 150.187 194.965 152.505 195.261 155.093Z" fill="#ED715D"/>
<path d="M195.261 155.093C195.557 157.68 197.901 159.513 200.487 159.217C203.074 158.92 204.906 156.575 204.609 153.988C204.313 151.4 201.969 149.567 199.383 149.864C196.797 150.187 194.965 152.505 195.261 155.093Z" fill="#ED715D"/>
<path d="M174.167 152.883C174.194 153.88 174.167 154.796 174.167 155.362C174.221 158.031 174.356 159.891 175.245 162.236C177.804 161.912 179.636 159.594 179.313 157.033C179.016 154.473 176.726 152.613 174.167 152.883Z" fill="#ED715D"/>
<path d="M174.167 152.883C174.194 153.88 174.167 154.796 174.167 155.362C174.221 158.031 174.356 159.891 175.245 162.236C177.804 161.912 179.636 159.594 179.313 157.033C179.016 154.473 176.726 152.613 174.167 152.883Z" fill="#ED715D"/>
<path d="M192.971 149.783C196.447 149.971 199.276 147.114 199.437 146.952C199.626 146.764 199.626 146.467 199.437 146.279C199.249 146.09 198.952 146.09 198.764 146.279C198.737 146.306 194.965 150.133 191.139 148.354C190.897 148.246 190.628 148.354 190.52 148.57C190.412 148.812 190.52 149.082 190.735 149.19C191.49 149.567 192.244 149.756 192.971 149.783Z" fill="#002869"/>
<path d="M192.971 149.783C196.447 149.971 199.276 147.114 199.437 146.952C199.626 146.764 199.626 146.467 199.437 146.279C199.249 146.09 198.952 146.09 198.764 146.279C198.737 146.306 194.965 150.133 191.139 148.354C190.897 148.246 190.628 148.354 190.52 148.57C190.412 148.812 190.52 149.082 190.735 149.19C191.49 149.567 192.244 149.756 192.971 149.783Z" fill="#002869"/>
<path d="M178.828 151.104C181.576 151.239 182.707 149.783 182.788 149.702C182.95 149.487 182.896 149.19 182.707 149.056C182.492 148.894 182.222 148.948 182.061 149.136C181.98 149.244 180.255 151.32 175.514 149.271C175.271 149.163 175.002 149.271 174.894 149.514C174.787 149.756 174.894 150.026 175.137 150.134C176.592 150.781 177.804 151.05 178.828 151.104Z" fill="#002869"/>
<path d="M178.828 151.104C181.576 151.239 182.707 149.783 182.788 149.702C182.95 149.487 182.896 149.19 182.707 149.056C182.492 148.894 182.222 148.948 182.061 149.136C181.98 149.244 180.255 151.32 175.514 149.271C175.271 149.163 175.002 149.271 174.894 149.514C174.787 149.756 174.894 150.026 175.137 150.134C176.592 150.781 177.804 151.05 178.828 151.104Z" fill="#002869"/>
<path d="M186.83 160.025C187.88 160.079 188.985 159.674 189.793 158.866C189.982 158.677 189.982 158.381 189.793 158.192C189.605 158.003 189.308 158.003 189.12 158.192C188.204 159.108 186.991 159.216 186.21 158.92C185.59 158.704 185.186 158.246 185.106 157.653C185.025 156.952 185.294 156.682 185.671 156.251C186.048 155.847 186.506 155.335 186.668 154.391C186.964 152.639 186.668 149.809 186.668 149.674C186.641 149.405 186.426 149.216 186.156 149.243C185.887 149.27 185.698 149.486 185.725 149.755C185.725 149.782 185.995 152.612 185.725 154.23C185.617 154.903 185.294 155.227 184.971 155.604C184.54 156.089 184.028 156.602 184.163 157.734C184.27 158.677 184.917 159.432 185.887 159.782C186.183 159.944 186.506 159.998 186.83 160.025Z" fill="#ED715D"/>
<path d="M186.83 160.025C187.88 160.079 188.985 159.674 189.793 158.866C189.982 158.677 189.982 158.381 189.793 158.192C189.605 158.003 189.308 158.003 189.12 158.192C188.204 159.108 186.991 159.216 186.21 158.92C185.59 158.704 185.186 158.246 185.106 157.653C185.025 156.952 185.294 156.682 185.671 156.251C186.048 155.847 186.506 155.335 186.668 154.391C186.964 152.639 186.668 149.809 186.668 149.674C186.641 149.405 186.426 149.216 186.156 149.243C185.887 149.27 185.698 149.486 185.725 149.755C185.725 149.782 185.995 152.612 185.725 154.23C185.617 154.903 185.294 155.227 184.971 155.604C184.54 156.089 184.028 156.602 184.163 157.734C184.27 158.677 184.917 159.432 185.887 159.782C186.183 159.944 186.506 159.998 186.83 160.025Z" fill="#ED715D"/>
<path d="M194.615 175.093C194.372 175.093 194.157 174.931 194.103 174.689C194.022 174.392 194.184 174.096 194.48 174.015C194.588 173.988 204.205 171.212 206.495 159.891C206.549 159.595 206.846 159.406 207.142 159.46C207.438 159.514 207.627 159.81 207.573 160.107C205.148 172.074 194.884 175.012 194.803 175.039C194.722 175.093 194.669 175.093 194.615 175.093Z" fill="#ED715D"/>
<path d="M194.163 114.826C199.216 107.667 218.986 111.556 235.07 146.27C247.92 155.246 256.628 213.556 249.812 222.569C242.587 158.989 210.654 203.2 202.556 151.298C198.892 133.475 179.517 136.208 183.367 125.899C189.018 111.119 194.163 114.826 194.163 114.826Z" fill="#32264C"/>
<path d="M300.087 150.034C301.92 144.169 308.061 139.486 311.576 135.125C314.277 131.766 319.12 122.65 317.252 120.99C315.398 119.32 310.766 130.915 304.252 133.446C304.143 131.072 307.575 125.455 305.289 123.815C304.488 123.237 303.237 126.343 301.191 128.911C300.243 130.128 296.454 132.921 295.191 136.012C293.17 140.905 293.423 142.989 290.865 146.717L300.087 150.034Z" fill="#FDB88E"/>
<path d="M241.307 226.088C260.015 218.218 254.659 205.333 267.651 196.409C287.42 182.822 280.834 179.171 289.975 172.268C299.682 164.938 297.474 156.342 302.522 149.39C304.193 146.444 291.992 141.39 290.921 142.928C246.528 177.339 237.932 161.28 189.521 196.224L241.307 226.088Z" fill="#6EB3F2"/>
<path d="M220.304 195.626C218.539 214.057 240.186 218.919 242.852 222.684" stroke="black" stroke-width="0.703843"/>
<path d="M158.934 206.018C152.267 215.037 152.267 217.194 152.268 227.194" stroke="#32264C" stroke-width="0.703843"/>
<path d="M299.113 92.2403C297.011 92.7688 294.726 91.9192 293.532 89.9901C262.933 40.5545 214.085 16.9605 162.868 26.8755C112.017 36.7178 73.1189 77.0168 63.7677 129.54C63.2752 132.308 60.6234 134.165 57.8458 133.686C55.0681 133.208 53.2153 130.576 53.7077 127.808C58.8104 99.1467 72.0634 73.4758 92.0331 53.5696C101.475 44.1573 112.225 36.2212 123.983 29.9805C135.659 23.7831 148.1 19.38 160.961 16.8906C186.763 11.8962 213.007 14.8406 236.857 25.4045C249.489 30.9997 261.345 38.6959 272.097 48.279C283.411 58.3642 293.552 70.5933 302.238 84.6268C303.716 87.0137 302.964 90.1501 300.56 91.6312C300.1 91.9144 299.611 92.117 299.113 92.2433L299.113 92.2403Z" fill="#E54925"/>
<path d="M292.782 121.2C290.497 121.773 288.047 120.699 286.972 118.505C261.048 65.5924 213.309 37.0291 165.347 45.7366C118.49 54.2446 85.9472 94.2757 80.4179 150.211C80.1409 153.01 77.6458 155.058 74.8424 154.787C72.0395 154.517 69.992 152.029 70.2689 149.231C71.8249 133.485 75.4115 118.725 80.9287 105.361C86.1875 92.6237 93.1821 81.1758 101.719 71.3366C109.945 61.8557 119.505 53.9714 130.134 47.9007C140.546 41.9538 151.786 37.8564 163.541 35.722C175.626 33.5282 187.97 33.4579 200.233 35.513C212.774 37.615 224.965 41.9022 236.465 48.2556C248.432 54.8657 259.5 63.6383 269.36 74.3282C279.734 85.5774 288.743 98.9301 296.135 114.019C297.37 116.541 296.322 119.591 293.791 120.83C293.461 120.99 293.123 121.114 292.781 121.199L292.782 121.2Z" fill="#FFA191"/>
<path d="M265.031 112.624C262.923 113.153 260.63 112.289 259.44 110.341C238.715 76.4229 203.432 58.0503 169.551 63.5324C136.662 68.8548 112.345 95.188 102.842 135.779C102.201 138.52 99.4556 140.226 96.7105 139.592C93.9654 138.958 92.2617 136.222 92.903 133.482C95.6457 121.769 99.5774 110.999 104.592 101.47C109.396 92.3409 115.235 84.2649 121.944 77.4666C134.661 64.5839 150.566 56.2885 167.939 53.4766C177.029 52.0061 186.38 52.0412 195.731 53.5834C205.035 55.1177 214.184 58.1164 222.921 62.4968C241.077 71.5999 256.721 86.3045 268.158 105.024C269.625 107.424 268.86 110.558 266.454 112.026C266 112.302 265.521 112.5 265.032 112.623L265.031 112.624Z" fill="#6EB3F2"/>
</g>
</svg>
