<svg width="336" height="217" viewBox="0 0 336 217" fill="none" xmlns="http://www.w3.org/2000/svg">
<path opacity="0.4" d="M130 190C126.686 190 124 187.314 124 184L124 7.99999C124 4.68629 126.686 1.99999 130 1.99999H142C145.314 1.99999 148 4.68629 148 7.99999V184C148 187.314 145.314 190 142 190H130Z" fill="#F0ECE4"/>
<path d="M130 190C126.686 190 124 187.314 124 184L124 37C124 33.6863 126.686 31 130 31H142C145.314 31 148 33.6863 148 37V184C148 187.314 145.314 190 142 190H130Z" fill="#FFA191"/>
<path d="M130 190C126.686 190 124 187.314 124 184V120C124 116.686 126.686 114 130 114H142C145.314 114 148 116.686 148 120V184C148 187.314 145.314 190 142 190H130Z" fill="#FFC7BD"/>
<path d="M130 190C126.686 190 124 187.314 124 184V176C124 172.686 126.686 170 130 170H142C145.314 170 148 172.686 148 176V184C148 187.314 145.314 190 142 190H130Z" fill="#FFD9D3"/>
<path opacity="0.4" d="M164 190C160.686 190 158 187.314 158 184V7.99999C158 4.68629 160.686 1.99999 164 1.99999H176C179.314 1.99999 182 4.68629 182 7.99999V184C182 187.314 179.314 190 176 190H164Z" fill="#F0ECE4"/>
<path d="M164 190C160.686 190 158 187.314 158 184V37C158 33.6863 160.686 31 164 31H176C179.314 31 182 33.6863 182 37V184C182 187.314 179.314 190 176 190H164Z" fill="#FFA191"/>
<path d="M164 190C160.686 190 158 187.314 158 184V62C158 58.6863 160.686 56 164 56H176C179.314 56 182 58.6863 182 62V184C182 187.314 179.314 190 176 190H164Z" fill="#FFB4A7"/>
<path d="M164 190C160.686 190 158 187.314 158 184V140C158 136.686 160.686 134 164 134H176C179.314 134 182 136.686 182 140V184C182 187.314 179.314 190 176 190H164Z" fill="#FFC7BD"/>
<path d="M164 190C160.686 190 158 187.314 158 184V176C158 172.686 160.686 170 164 170H176C179.314 170 182 172.686 182 176V184C182 187.314 179.314 190 176 190H164Z" fill="#FFD9D3"/>
<path opacity="0.4" d="M202 190C198.686 190 196 187.314 196 184V7.99999C196 4.68629 198.686 1.99999 202 1.99999H214C217.314 1.99999 220 4.68629 220 7.99999V184C220 187.314 217.314 190 214 190H202Z" fill="#F0ECE4"/>
<path d="M202 190C198.686 190 196 187.314 196 184V20C196 16.6863 198.686 14 202 14H214C217.314 14 220 16.6863 220 20V184C220 187.314 217.314 190 214 190H202Z" fill="#FFA191"/>
<path d="M202 190C198.686 190 196 187.314 196 184V176C196 172.686 198.686 170 202 170H214C217.314 170 220 172.686 220 176V184C220 187.314 217.314 190 214 190H202Z" fill="#FFD9D3"/>
<path opacity="0.4" d="M238 190C234.686 190 232 187.314 232 184V7.99999C232 4.68629 234.686 1.99999 238 1.99999H250C253.314 1.99999 256 4.68629 256 7.99999V184C256 187.314 253.314 190 250 190H238Z" fill="#F0ECE4"/>
<path d="M238 190C234.686 190 232 187.314 232 184V35C232 31.6863 234.686 29 238 29H250C253.314 29 256 31.6863 256 35V184C256 187.314 253.314 190 250 190H238Z" fill="#FFA191"/>
<path d="M238 190C234.686 190 232 187.314 232 184V62C232 58.6863 234.686 56 238 56H250C253.314 56 256 58.6863 256 62V184C256 187.314 253.314 190 250 190H238Z" fill="#FFB4A7"/>
<path d="M238 190C234.686 190 232 187.314 232 184V176C232 172.686 234.686 170 238 170H250C253.314 170 256 172.686 256 176V184C256 187.314 253.314 190 250 190H238Z" fill="#FFECE9"/>
<path opacity="0.4" d="M272 190C268.686 190 266 187.314 266 184V7.99999C266 4.68629 268.686 1.99999 272 1.99999H284C287.314 1.99999 290 4.68629 290 7.99999V184C290 187.314 287.314 190 284 190H272Z" fill="#F0ECE4"/>
<path d="M272 190C268.686 190 266 187.314 266 184V88C266 84.6863 268.686 82 272 82H284C287.314 82 290 84.6863 290 88V184C290 187.314 287.314 190 284 190H272Z" fill="#FFA191"/>
<path d="M272 190C268.686 190 266 187.314 266 184V113C266 109.686 268.686 107 272 107H284C287.314 107 290 109.686 290 113V184C290 187.314 287.314 190 284 190H272Z" fill="#FFB4A7"/>
<path d="M272 190C268.686 190 266 187.314 266 184V176C266 172.686 268.686 170 272 170H284C287.314 170 290 172.686 290 176V184C290 187.314 287.314 190 284 190H272Z" fill="#FFD9D3"/>
<path opacity="0.4" d="M311 190C307.686 190 305 187.314 305 184V7.99999C305 4.68629 307.686 1.99999 311 1.99999H323C326.314 1.99999 329 4.68629 329 7.99999V184C329 187.314 326.314 190 323 190H311Z" fill="#F0ECE4"/>
<path d="M311 190C307.686 190 305 187.314 305 184V20C305 16.6863 307.686 14 311 14H323C326.314 14 329 16.6863 329 20V184C329 187.314 326.314 190 323 190H311Z" fill="#FFA191"/>
<path d="M311 190C307.686 190 305 187.314 305 184V62C305 58.6863 307.686 56 311 56H323C326.314 56 329 58.6863 329 62V184C329 187.314 326.314 190 323 190H311Z" fill="#FFB4A7"/>
<path d="M311 190C307.686 190 305 187.314 305 184V176C305 172.686 307.686 170 311 170H323C326.314 170 329 172.686 329 176V184C329 187.314 326.314 190 323 190H311Z" fill="#FFD9D3"/>
<path opacity="0.5" d="M56.3532 212C56.0452 212 55.8072 211.921 55.6392 211.762C55.4806 211.594 55.4012 211.356 55.4012 211.048V203.082C55.4012 202.774 55.4806 202.541 55.6392 202.382C55.8072 202.214 56.0452 202.13 56.3532 202.13H61.3512C61.5846 202.13 61.7619 202.191 61.8832 202.312C62.0139 202.433 62.0792 202.606 62.0792 202.83C62.0792 203.063 62.0139 203.245 61.8832 203.376C61.7619 203.497 61.5846 203.558 61.3512 203.558H57.1232V206.274H61.0432C61.2859 206.274 61.4679 206.335 61.5892 206.456C61.7106 206.577 61.7712 206.755 61.7712 206.988C61.7712 207.221 61.7106 207.399 61.5892 207.52C61.4679 207.641 61.2859 207.702 61.0432 207.702H57.1232V210.572H61.3512C61.5846 210.572 61.7619 210.633 61.8832 210.754C62.0139 210.875 62.0792 211.053 62.0792 211.286C62.0792 211.519 62.0139 211.697 61.8832 211.818C61.7619 211.939 61.5846 212 61.3512 212H56.3532Z" fill="#32264C" fill-opacity="0.8"/>
<path opacity="0.5" d="M93.5713 212.112C93.282 212.112 93.0533 212.033 92.8853 211.874C92.7267 211.706 92.6473 211.468 92.6473 211.16V203.082C92.6473 202.774 92.7267 202.541 92.8853 202.382C93.0533 202.214 93.2913 202.13 93.5993 202.13H98.4853C98.728 202.13 98.91 202.191 99.0313 202.312C99.1527 202.433 99.2133 202.606 99.2133 202.83C99.2133 203.063 99.1527 203.245 99.0313 203.376C98.91 203.497 98.728 203.558 98.4853 203.558H94.4393V206.344H98.1913C98.4247 206.344 98.602 206.405 98.7233 206.526C98.854 206.647 98.9193 206.82 98.9193 207.044C98.9193 207.277 98.854 207.459 98.7233 207.59C98.602 207.711 98.4247 207.772 98.1913 207.772H94.4393V211.16C94.4393 211.795 94.15 212.112 93.5713 212.112Z" fill="#32264C" fill-opacity="0.8"/>
<path opacity="0.5" d="M128.341 212.112C128.08 212.112 127.879 212.037 127.739 211.888C127.599 211.739 127.529 211.533 127.529 211.272V202.858C127.529 202.587 127.604 202.382 127.753 202.242C127.902 202.093 128.108 202.018 128.369 202.018C128.602 202.018 128.784 202.065 128.915 202.158C129.055 202.242 129.181 202.391 129.293 202.606L132.751 209.004H132.303L135.761 202.606C135.873 202.391 135.994 202.242 136.125 202.158C136.256 202.065 136.438 202.018 136.671 202.018C136.932 202.018 137.133 202.093 137.273 202.242C137.413 202.382 137.483 202.587 137.483 202.858V211.272C137.483 211.533 137.413 211.739 137.273 211.888C137.142 212.037 136.942 212.112 136.671 212.112C136.41 212.112 136.209 212.037 136.069 211.888C135.929 211.739 135.859 211.533 135.859 211.272V204.79H136.167L133.227 210.152C133.134 210.311 133.036 210.427 132.933 210.502C132.83 210.577 132.69 210.614 132.513 210.614C132.336 210.614 132.191 210.577 132.079 210.502C131.967 210.418 131.869 210.301 131.785 210.152L128.817 204.776H129.153V211.272C129.153 211.533 129.083 211.739 128.943 211.888C128.812 212.037 128.612 212.112 128.341 212.112Z" fill="#32264C" fill-opacity="0.8"/>
<path opacity="0.5" d="M165.467 212.112C165.243 212.112 165.061 212.061 164.921 211.958C164.79 211.855 164.711 211.72 164.683 211.552C164.655 211.375 164.688 211.179 164.781 210.964L168.477 202.774C168.598 202.503 168.743 202.312 168.911 202.2C169.088 202.079 169.289 202.018 169.513 202.018C169.728 202.018 169.919 202.079 170.087 202.2C170.264 202.312 170.414 202.503 170.535 202.774L174.245 210.964C174.348 211.179 174.385 211.375 174.357 211.552C174.329 211.729 174.25 211.869 174.119 211.972C173.988 212.065 173.816 212.112 173.601 212.112C173.34 212.112 173.134 212.051 172.985 211.93C172.845 211.799 172.719 211.603 172.607 211.342L171.697 209.228L172.453 209.718H166.545L167.301 209.228L166.405 211.342C166.284 211.613 166.158 211.809 166.027 211.93C165.896 212.051 165.71 212.112 165.467 212.112ZM169.485 204.076L167.525 208.738L167.161 208.29H171.837L171.487 208.738L169.513 204.076H169.485Z" fill="#32264C" fill-opacity="0.8"/>
<path opacity="0.5" d="M202.341 212.112C202.08 212.112 201.879 212.037 201.739 211.888C201.599 211.739 201.529 211.533 201.529 211.272V202.858C201.529 202.587 201.604 202.382 201.753 202.242C201.902 202.093 202.108 202.018 202.369 202.018C202.602 202.018 202.784 202.065 202.915 202.158C203.055 202.242 203.181 202.391 203.293 202.606L206.751 209.004H206.303L209.761 202.606C209.873 202.391 209.994 202.242 210.125 202.158C210.256 202.065 210.438 202.018 210.671 202.018C210.932 202.018 211.133 202.093 211.273 202.242C211.413 202.382 211.483 202.587 211.483 202.858V211.272C211.483 211.533 211.413 211.739 211.273 211.888C211.142 212.037 210.942 212.112 210.671 212.112C210.41 212.112 210.209 212.037 210.069 211.888C209.929 211.739 209.859 211.533 209.859 211.272V204.79H210.167L207.227 210.152C207.134 210.311 207.036 210.427 206.933 210.502C206.83 210.577 206.69 210.614 206.513 210.614C206.336 210.614 206.191 210.577 206.079 210.502C205.967 210.418 205.869 210.301 205.785 210.152L202.817 204.776H203.153V211.272C203.153 211.533 203.083 211.739 202.943 211.888C202.812 212.037 202.612 212.112 202.341 212.112Z" fill="#32264C" fill-opacity="0.8"/>
<path opacity="0.5" d="M241.669 212.098C241.408 212.107 241.203 212.037 241.053 211.888C240.904 211.739 240.829 211.547 240.829 211.314C240.829 211.137 240.885 210.983 240.997 210.852C241.1 210.712 241.254 210.637 241.459 210.628L241.879 210.6C242.29 210.572 242.598 210.446 242.803 210.222C243.018 209.989 243.125 209.657 243.125 209.228V202.928C243.125 202.629 243.2 202.405 243.349 202.256C243.508 202.097 243.732 202.018 244.021 202.018C244.311 202.018 244.53 202.097 244.679 202.256C244.838 202.405 244.917 202.629 244.917 202.928V209.214C244.917 209.802 244.81 210.301 244.595 210.712C244.39 211.123 244.082 211.445 243.671 211.678C243.261 211.902 242.752 212.033 242.145 212.07L241.669 212.098Z" fill="#32264C" fill-opacity="0.8"/>
<path opacity="0.5" d="M278.669 212.098C278.408 212.107 278.203 212.037 278.053 211.888C277.904 211.739 277.829 211.547 277.829 211.314C277.829 211.137 277.885 210.983 277.997 210.852C278.1 210.712 278.254 210.637 278.459 210.628L278.879 210.6C279.29 210.572 279.598 210.446 279.803 210.222C280.018 209.989 280.125 209.657 280.125 209.228V202.928C280.125 202.629 280.2 202.405 280.349 202.256C280.508 202.097 280.732 202.018 281.021 202.018C281.311 202.018 281.53 202.097 281.679 202.256C281.838 202.405 281.917 202.629 281.917 202.928V209.214C281.917 209.802 281.81 210.301 281.595 210.712C281.39 211.123 281.082 211.445 280.671 211.678C280.261 211.902 279.752 212.033 279.145 212.07L278.669 212.098Z" fill="#32264C" fill-opacity="0.8"/>
<path opacity="0.5" d="M313.467 212.112C313.243 212.112 313.061 212.061 312.921 211.958C312.79 211.855 312.711 211.72 312.683 211.552C312.655 211.375 312.688 211.179 312.781 210.964L316.477 202.774C316.598 202.503 316.743 202.312 316.911 202.2C317.088 202.079 317.289 202.018 317.513 202.018C317.728 202.018 317.919 202.079 318.087 202.2C318.264 202.312 318.414 202.503 318.535 202.774L322.245 210.964C322.348 211.179 322.385 211.375 322.357 211.552C322.329 211.729 322.25 211.869 322.119 211.972C321.988 212.065 321.816 212.112 321.601 212.112C321.34 212.112 321.134 212.051 320.985 211.93C320.845 211.799 320.719 211.603 320.607 211.342L319.697 209.228L320.453 209.718H314.545L315.301 209.228L314.405 211.342C314.284 211.613 314.158 211.809 314.027 211.93C313.896 212.051 313.71 212.112 313.467 212.112ZM317.485 204.076L315.525 208.738L315.161 208.29H319.837L319.487 208.738L317.513 204.076H317.485Z" fill="#32264C" fill-opacity="0.8"/>
<path d="M53 188C49.6863 188 47 185.314 47 182L47 5.99999C47 2.68629 49.6863 -5.48363e-06 53 -5.48363e-06H65C68.3137 -5.48363e-06 71 2.68629 71 5.99999L71 182C71 185.314 68.3137 188 65 188H53Z" fill="#F0ECE4"/>
<path d="M53 188C49.6863 188 47 185.314 47 182L47 5.99999C47 2.68629 49.6863 -5.48363e-06 53 -5.48363e-06H65C68.3137 -5.48363e-06 71 2.68629 71 5.99999L71 182C71 185.314 68.3137 188 65 188H53Z" fill="#FFA191"/>
<path d="M53 188C49.6863 188 47 185.314 47 182L47 60C47 56.6863 49.6863 54 53 54H65C68.3137 54 71 56.6863 71 60V182C71 185.314 68.3137 188 65 188H53Z" fill="#FFB4A7"/>
<path d="M53 188C49.6863 188 47 185.314 47 182L47 116C47 112.686 49.6863 110 53 110H65C68.3137 110 71 112.686 71 116V182C71 185.314 68.3137 188 65 188H53Z" fill="#FFD9D3"/>
<path d="M53 188C49.6863 188 47 185.314 47 182V177C47 173.686 49.6863 171 53 171H65C68.3137 171 71 173.686 71 177V182C71 185.314 68.3137 188 65 188H53Z" fill="#FFECE9"/>
<path opacity="0.4" d="M90 189C86.6863 189 84 186.314 84 183L84 6.99999C84 3.68629 86.6863 0.999995 90 0.999995H102C105.314 0.999995 108 3.68629 108 6.99999L108 183C108 186.314 105.314 189 102 189H90Z" fill="#F0ECE4"/>
<path d="M90 189C86.6863 189 84 186.314 84 183L84 36C84 32.6863 86.6863 30 90 30H102C105.314 30 108 32.6863 108 36L108 183C108 186.314 105.314 189 102 189H90Z" fill="#528A4F"/>
<path d="M90 189C86.6863 189 84 186.314 84 183L84 61C84 57.6863 86.6863 55 90 55H102C105.314 55 108 57.6863 108 61V183C108 186.314 105.314 189 102 189H90Z" fill="#32264C"/>
<path d="M90 189C86.6863 189 84 186.314 84 183V175C84 171.686 86.6863 169 90 169H102C105.314 169 108 171.686 108 175V183C108 186.314 105.314 189 102 189H90Z" fill="#6EB3F2"/>
<path d="M90 189C86.6863 189 84 186.314 84 183L84 36C84 32.6863 86.6863 30 90 30H102C105.314 30 108 32.6863 108 36L108 183C108 186.314 105.314 189 102 189H90Z" fill="#FFA191"/>
<path d="M90 189C86.6863 189 84 186.314 84 183L84 61C84 57.6863 86.6863 55 90 55H102C105.314 55 108 57.6863 108 61V183C108 186.314 105.314 189 102 189H90Z" fill="#FFB4A7"/>
<path d="M90 189C86.6863 189 84 186.314 84 183V175C84 171.686 86.6863 169 90 169H102C105.314 169 108 171.686 108 175V183C108 186.314 105.314 189 102 189H90Z" fill="#FFD9D3"/>
<circle cx="20" cy="14" r="12" fill="#F0ECE4"/>
<path d="M19.3586 16.326C19.2186 16.326 19.1066 16.2793 19.0226 16.186C18.9386 16.0833 18.8966 15.9527 18.8966 15.794C18.8966 15.486 18.934 15.1967 19.0086 14.926C19.0833 14.646 19.2046 14.366 19.3726 14.086C19.5406 13.806 19.7646 13.5073 20.0446 13.19C20.2686 12.938 20.4413 12.714 20.5626 12.518C20.6933 12.322 20.7866 12.1353 20.8426 11.958C20.8986 11.7713 20.9266 11.58 20.9266 11.384C20.9266 11.0293 20.8006 10.7493 20.5486 10.544C20.2966 10.3387 19.942 10.236 19.4846 10.236C19.0833 10.236 18.7146 10.2967 18.3786 10.418C18.0426 10.53 17.716 10.6933 17.3986 10.908C17.2213 11.02 17.0626 11.0713 16.9226 11.062C16.792 11.0527 16.68 11.0107 16.5866 10.936C16.5026 10.852 16.4466 10.7493 16.4186 10.628C16.4 10.4973 16.4186 10.3667 16.4746 10.236C16.54 10.096 16.652 9.97 16.8106 9.858C17.184 9.58733 17.618 9.37733 18.1126 9.228C18.6073 9.07867 19.0926 9.004 19.5686 9.004C20.1286 9.004 20.6186 9.09733 21.0386 9.284C21.4586 9.47067 21.7853 9.732 22.0186 10.068C22.252 10.404 22.3686 10.8007 22.3686 11.258C22.3686 11.5473 22.3266 11.8227 22.2426 12.084C22.1586 12.3453 22.0233 12.6113 21.8366 12.882C21.6593 13.1433 21.4073 13.4327 21.0806 13.75C20.7913 14.0393 20.558 14.3053 20.3806 14.548C20.2033 14.7813 20.0726 15.01 19.9886 15.234C19.914 15.4487 19.8626 15.6773 19.8346 15.92C19.8253 16.0413 19.7786 16.1393 19.6946 16.214C19.6106 16.2887 19.4986 16.326 19.3586 16.326ZM19.3446 19.056C19.074 19.056 18.8546 18.972 18.6866 18.804C18.5186 18.636 18.4346 18.4213 18.4346 18.16C18.4346 17.8987 18.5186 17.6887 18.6866 17.53C18.8546 17.362 19.074 17.278 19.3446 17.278C19.6246 17.278 19.8393 17.362 19.9886 17.53C20.1473 17.6887 20.2266 17.8987 20.2266 18.16C20.2266 18.4213 20.1473 18.636 19.9886 18.804C19.8393 18.972 19.6246 19.056 19.3446 19.056Z" fill="#7E7589"/>
<circle cx="20" cy="46" r="12" fill="#F0ECE4"/>
<path fill-rule="evenodd" clip-rule="evenodd" d="M16.614 41.1577C15.9958 41.1577 15.4949 41.6592 15.4949 42.2774C15.4949 42.8959 15.9958 43.3971 16.614 43.3971C17.2322 43.3971 17.7331 42.8959 17.7331 42.2774C17.7331 41.6592 17.2322 41.1577 16.614 41.1577ZM23.0494 41.1577C22.4314 41.1577 21.9303 41.6592 21.9303 42.2774C21.9303 42.8959 22.4314 43.3971 23.0494 43.3971C23.6676 43.3971 24.1684 42.8959 24.1684 42.2774C24.1684 41.6592 23.6676 41.1577 23.0494 41.1577ZM15.2054 46.8927C14.947 46.8927 14.7373 47.1021 14.7373 47.3608C14.7373 49.5123 16.6344 51.263 18.9649 51.263H20.8447C23.1756 51.263 25.0724 49.5123 25.0724 47.3608C25.0724 47.1021 24.8626 46.8927 24.6042 46.8927H15.2054ZM15.7144 47.8289H24.0953C23.8453 49.2423 22.4828 50.3268 20.8447 50.3268H18.9649C17.3269 50.3268 15.9643 49.2423 15.7144 47.8289Z" fill="#32264C" fill-opacity="0.6"/>
<circle cx="20" cy="78" r="12" fill="#F0ECE4"/>
<path fill-rule="evenodd" clip-rule="evenodd" d="M16.36 73.1577C15.6965 73.1577 15.1582 73.695 15.1582 74.3589C15.1582 75.0228 15.6965 75.5614 16.36 75.5614C17.0236 75.5614 17.5619 75.0228 17.5619 74.3589C17.5619 73.695 17.0236 73.1577 16.36 73.1577ZM23.2692 73.1577C22.6057 73.1577 22.0674 73.695 22.0674 74.3589C22.0674 75.0228 22.6057 75.5614 23.2692 75.5614C23.9331 75.5614 24.4704 75.0228 24.4704 74.3589C24.4704 73.695 23.9331 73.1577 23.2692 73.1577ZM15.7424 78.9799C15.469 78.9799 15.2472 79.2014 15.2472 79.475C15.2472 81.5637 16.9669 83.263 19.0803 83.263H20.7489C22.8983 83.263 24.582 81.6193 24.582 79.5215C24.582 79.2478 24.3605 79.0263 24.0868 79.0263C23.8134 79.0263 23.5916 79.2478 23.5916 79.5215C23.5916 81.0641 22.343 82.2726 20.7489 82.2726H19.0803C17.4861 82.2726 16.2375 81.0434 16.2375 79.475C16.2375 79.2014 16.0157 78.9799 15.7424 78.9799Z" fill="#32264C" fill-opacity="0.6"/>
<circle cx="20" cy="110" r="12" fill="#F0ECE4"/>
<path fill-rule="evenodd" clip-rule="evenodd" d="M15.6437 105.158C14.9103 105.158 14.3154 105.753 14.3154 106.487C14.3154 107.221 14.9103 107.816 15.6437 107.816C16.3779 107.816 16.9727 107.221 16.9727 106.487C16.9727 105.753 16.3779 105.158 15.6437 105.158ZM23.2827 105.158C22.5493 105.158 21.9537 105.753 21.9537 106.487C21.9537 107.221 22.5493 107.816 23.2827 107.816C24.0165 107.816 24.611 107.221 24.611 106.487C24.611 105.753 24.0165 105.158 23.2827 105.158ZM17.9986 111.823C16.1569 111.794 14.74 113.16 14.6808 113.218C14.4626 113.434 14.4605 113.783 14.675 114.002C14.8895 114.221 15.241 114.224 15.4599 114.01C15.4714 113.999 16.6181 112.892 17.9812 112.934C18.7231 112.953 19.4191 113.308 20.051 113.991C20.8329 114.836 21.6727 115.263 22.5491 115.263C22.631 115.263 22.7125 115.259 22.7951 115.251C24.4971 115.098 25.6158 113.367 25.6629 113.294C25.827 113.036 25.7514 112.694 25.4936 112.528C25.2354 112.363 24.8923 112.438 24.7267 112.696C24.7178 112.71 23.847 114.044 22.6909 114.145C22.0923 114.196 21.4742 113.892 20.8663 113.236C20.0203 112.322 19.055 111.846 17.9986 111.823Z" fill="#32264C" fill-opacity="0.6"/>
<circle cx="20" cy="142" r="12" fill="#F0ECE4"/>
<path fill-rule="evenodd" clip-rule="evenodd" d="M16.3507 137.158C15.6923 137.158 15.1582 137.691 15.1582 138.35C15.1582 139.008 15.6923 139.543 16.3507 139.543C17.0092 139.543 17.5433 139.008 17.5433 138.35C17.5433 137.691 17.0092 137.158 16.3507 137.158ZM23.2066 137.158C22.5482 137.158 22.014 137.691 22.014 138.35C22.014 139.008 22.5482 139.543 23.2066 139.543C23.8653 139.543 24.3985 139.008 24.3985 138.35C24.3985 137.691 23.8653 137.158 23.2066 137.158ZM19.05 142.925C16.9529 142.925 15.2465 144.651 15.2465 146.772C15.2465 147.043 15.4666 147.263 15.7378 147.263C16.0091 147.263 16.2292 147.043 16.2292 146.772C16.2292 145.192 17.4947 143.908 19.05 143.908H20.7057C22.261 143.908 23.5265 145.183 23.5265 146.751C23.5265 147.022 23.7466 147.243 24.0178 147.243C24.2894 147.243 24.5092 147.022 24.5092 146.751C24.5092 144.641 22.8028 142.925 20.7057 142.925H19.05Z" fill="#32264C" fill-opacity="0.6"/>
<circle cx="20" cy="142" r="12" fill="#F0ECE4"/>
<path fill-rule="evenodd" clip-rule="evenodd" d="M16.3507 137.158C15.6923 137.158 15.1582 137.691 15.1582 138.35C15.1582 139.008 15.6923 139.543 16.3507 139.543C17.0092 139.543 17.5433 139.008 17.5433 138.35C17.5433 137.691 17.0092 137.158 16.3507 137.158ZM23.2066 137.158C22.5482 137.158 22.014 137.691 22.014 138.35C22.014 139.008 22.5482 139.543 23.2066 139.543C23.8653 139.543 24.3985 139.008 24.3985 138.35C24.3985 137.691 23.8653 137.158 23.2066 137.158ZM19.05 142.925C16.9529 142.925 15.2465 144.651 15.2465 146.772C15.2465 147.043 15.4666 147.263 15.7378 147.263C16.0091 147.263 16.2292 147.043 16.2292 146.772C16.2292 145.192 17.4947 143.908 19.05 143.908H20.7057C22.261 143.908 23.5265 145.183 23.5265 146.751C23.5265 147.022 23.7466 147.243 24.0178 147.243C24.2894 147.243 24.5092 147.022 24.5092 146.751C24.5092 144.641 22.8028 142.925 20.7057 142.925H19.05Z" fill="#32264C" fill-opacity="0.6"/>
<circle cx="20" cy="174" r="12" fill="#F0ECE4"/>
<path fill-rule="evenodd" clip-rule="evenodd" d="M14.8338 169.16C14.6668 169.174 14.5095 169.269 14.4216 169.426C14.2812 169.678 14.3725 169.997 14.6243 170.137L16.2397 171.037L14.6406 171.689C14.3738 171.798 14.2452 172.103 14.3542 172.37C14.4368 172.573 14.6324 172.695 14.8385 172.695C14.904 172.695 14.9707 172.683 15.0351 172.657L17.6422 171.594C17.8285 171.518 17.9541 171.342 17.966 171.141C17.9782 170.94 17.8745 170.751 17.6993 170.653L15.1324 169.224C15.0381 169.172 14.934 169.151 14.8338 169.16ZM24.7058 169.16C24.6056 169.151 24.5021 169.172 24.4079 169.224L21.8409 170.653C21.6727 170.747 21.5698 170.926 21.5729 171.119C21.5757 171.311 21.6849 171.486 21.8559 171.574L24.4229 172.895C24.4995 172.935 24.5808 172.954 24.6616 172.954C24.8511 172.954 25.0339 172.85 25.1269 172.67C25.2588 172.413 25.1573 172.098 24.901 171.966L23.202 171.092L24.916 170.137C25.1681 169.997 25.2587 169.678 25.118 169.426C25.0301 169.268 24.8728 169.174 24.7058 169.16ZM17.0668 177.072C16.9496 177.073 16.8328 177.114 16.7376 177.193L15.3629 178.339C15.1414 178.524 15.111 178.853 15.2956 179.075C15.399 179.199 15.5482 179.263 15.6976 179.263C15.8153 179.263 15.934 179.223 16.0315 179.142L17.0783 178.269L18.1775 179.149C18.375 179.306 18.6566 179.3 18.8468 179.134L19.8208 178.287L20.7955 179.134C20.9832 179.298 21.2602 179.306 21.4573 179.155L22.6 178.275L23.5366 179.127C23.7501 179.321 24.0803 179.306 24.2746 179.092C24.4686 178.878 24.4527 178.548 24.2392 178.354L22.9795 177.208C22.7922 177.038 22.5102 177.026 22.3096 177.18L21.1587 178.066L20.1643 177.201C19.9675 177.029 19.6751 177.029 19.4787 177.201L18.4897 178.06L17.398 177.186C17.3016 177.109 17.1839 177.071 17.0668 177.072Z" fill="#32264C" fill-opacity="0.6"/>
</svg>
