<svg width="17" height="20" viewBox="0 0 17 20" fill="none" xmlns="http://www.w3.org/2000/svg">
<path d="M1.73745 8.60794C1.73745 4.68201 3.88946 2.32645 6.41948 1.62851C6.4776 0.727024 7.2338 0 8.16434 0C9.09488 0 9.85108 0.727024 9.9092 1.62851C12.4392 2.35553 14.5912 4.68201 14.5912 8.60794C14.5912 8.60794 14.5912 12.2431 16.1616 14.5986C16.1616 14.5986 16.9468 16.169 15.3765 16.4308H0.981415C-0.588982 16.169 0.196278 14.5986 0.196278 14.5986C1.73752 12.2721 1.73752 8.60794 1.73752 8.60794H1.73745Z" fill="#32264C"/>
<path d="M8.16445 19.922C6.7104 19.922 5.54717 18.7587 5.54717 17.3047H10.7817C10.7817 18.7297 9.6185 19.922 8.16445 19.922Z" fill="#32264C"/>
</svg>
