<svg width="375" height="656" viewBox="0 0 375 656" fill="none" xmlns="http://www.w3.org/2000/svg">
<path d="M375 0H0V155.305C-2.8623 156.554 -5.70258 157.866 -8.51994 159.245C-59.6516 184.28 -103.173 231.091 -122.853 286.865C-142.533 342.64 -138.31 382.772 -120.9 441.841C-115.449 459.954 -112.158 479.89 -108.893 499.668C-101.552 544.139 -94.3418 587.813 -63.0152 608.177C-29.1274 630.097 27.2274 637.692 77.7401 644.501C94.3432 646.738 110.315 648.891 124.651 651.439C182.895 661.508 250.371 653.66 296.625 638.224C361.816 616.659 396.842 547.522 437.02 496.484C437.02 322 375 176.855 375 0Z" fill="white"/>
</svg>
