<svg width="113" height="70" viewBox="0 0 113 70" fill="none" xmlns="http://www.w3.org/2000/svg">
<mask id="mask0" style="mask-type:alpha" maskUnits="userSpaceOnUse" x="-98" y="-74" width="211" height="217">
<path d="M-18.0645 95.0894C-4.71261 103.07 8.46639 113.024 22.269 114.02C36.0717 115.017 50.4979 107.057 61.8557 96.4764C73.2613 85.978 81.5985 72.8595 84.3436 59.0309C87.2189 45.2367 82.1853 36.4537 78.7144 22.1683C75.1955 7.80072 71.0049 -6.39611 61.587 -14.2434C52.1211 -22.1729 36.951 -30.284 22.2932 -33.3169C7.68324 -36.2676 -12.6272 -43.2232 -25.9392 -40.5393C-39.3334 -37.8075 -45.3824 -18.9395 -55.0142 -6.71962C-64.5981 5.58253 -69.3176 14.6464 -69.8566 29.6142C-70.3957 44.5821 -64.4854 59.6505 -54.7612 70.2943C-45.0369 80.938 -31.4643 87.0269 -18.0645 95.0894Z" fill="white"/>
</mask>
<g mask="url(#mask0)">
<rect x="-12.0713" y="-9.46729" width="104.833" height="106.256" fill="#F0ECE4"/>
<path d="M26.8852 16.0427C26.537 15.0647 28.0827 15.8331 28.5561 15.7493C28.5701 16.1684 28.7511 16.4478 28.4308 16.9369C27.7764 16.9787 27.1637 16.6434 26.8852 16.0427H26.8852Z" fill="white"/>
<path d="M70.1892 49.5767C68.0726 52.6364 73.2162 52.9244 71.0717 55.5789C69.8603 57.2275 72.5015 59.2695 67.6001 59.6746C55.8895 60.6666 53.4388 66.758 49.345 70.1809C48.2032 71.1449 47.0891 72.5141 46.0866 74.6238C41.6864 83.8587 30.0037 79.9747 26.6896 90.2016C20.0614 114.19 -26.4335 106.131 -36.8074 115.506L-32.201 12.9131C-32.201 12.9131 -16.666 -6.20834 2.18227 2.08548C15.5081 6.52835 21.5375 4.48851 27.1491 3.6223C34.7659 2.44874 43.7612 12.9131 43.7612 12.9131C46.6714 16.2662 47.2284 21.3098 54.0236 21.3657C70.4129 21.5473 60.3024 32.3117 70.189 34.9244C76.3714 36.4053 76.121 41.8507 70.1892 49.5767Z" fill="#32264C"/>
<path d="M64.4396 41.4001C65.651 44.823 61.0559 43.2023 61.0977 46.4996C62.4484 58.892 57.0038 58.5847 48.2035 60.5825C48.2035 60.5825 41.2552 55.6088 46.5326 52.7168C49.4428 51.124 45.8224 48.9166 45.7946 47.1143C45.6971 43.4818 51.2809 43.5097 53.2024 41.1067C59.0647 33.8277 64.6067 38.1867 64.6067 38.1867C64.6067 38.1867 63.2978 38.2286 64.4396 41.4001Z" fill="#32264C"/>
<path d="M22.9722 70.2367C29.2383 62.9997 37.7184 69.7757 44.4579 63.4328C46.1567 61.8121 47.8277 60.8761 49.2759 60.4709C49.8328 59.2973 44.9871 62.2033 44.2352 63.2092C37.4539 69.4543 29.1687 62.6783 22.7495 70.0131C10.7743 83.1041 0.999245 68.3645 -11.3519 70.544C-11.3519 70.8514 -11.1988 70.7396 -10.7532 70.7256C-5.99094 70.3205 -1.17306 71.4382 3.5474 73.9949C9.91097 77.2641 17.6112 76.3002 22.9722 70.2367Z" fill="#32264C"/>
<path d="M63.4092 61.7563C63.2978 64.7322 56.0988 67.205 46.5465 62.9998C34.0004 56.7965 28.2635 41.065 26.2444 33.4647C26.2444 33.4647 27.3723 31.1917 27.7622 30.0601C41.7286 57.4017 61.8496 50.8448 63.4092 61.7563Z" fill="#69A8E2"/>
<path d="M27.6518 25.1407C27.5076 24.0807 26.9933 22.9913 26.8612 22.5149C26.573 21.5125 27.0005 20.1631 26.3961 20.3087C25.4053 20.5433 25.7694 23.302 25.2329 23.5375C24.8879 23.4836 24.2921 22.5811 23.9552 21.9093C23.5409 21.103 22.9973 18.4803 22.5054 18.7064C22.093 18.894 22.4334 20.8169 22.6674 21.428C22.4337 20.7922 21.7156 17.9102 21.1218 18.3822C20.6876 18.7278 21.7917 21.9262 21.9491 22.3534C21.8629 22.1496 20.9056 19.052 20.4958 19.4225C20.0109 19.8663 21.0917 22.5848 21.2443 23.0021C21.134 22.7485 20.3986 20.0591 19.8932 20.562C19.5879 20.8696 20.3195 23.4748 20.4721 23.8921C21.1739 25.7504 24.4963 29.6545 24.9997 30.0614L27.936 29.105C27.936 29.105 27.9239 27.7599 27.8383 27.1259C27.7252 26.3333 27.706 25.532 27.6518 25.1407Z" fill="#FAB898"/>
<path d="M36.1587 21.7566C36.1587 21.7566 36.7575 28.7282 28.9736 29.5944C28.9736 29.5944 29.7395 36.1329 24.0861 36.4403C17.3326 36.7477 16.344 31.5364 15.0211 32.249C14.7287 32.4865 14.4224 35.141 13.7401 34.2329C13.4615 33.8556 13.4615 33.0034 13.5312 32.5703C13.6148 32.0534 13.8793 30.3769 13.9628 30.0695C14.6869 28.854 16.3718 29.9577 17.4022 31.1453C20.8137 34.3308 24.5734 33.3388 21.9277 28.2533C21.0922 26.7584 20.0897 24.97 20.577 22.2456C20.8277 20.8486 28.7229 10.6216 35.6156 12.4658C42.4943 14.3101 41.1158 15.8049 39.6537 17.4117C38.1917 19.0043 36.1587 21.7566 36.1587 21.7566H36.1587Z" fill="#ECB694"/>
<path d="M56.6694 53.3876C58.2847 51.2919 60.7772 47.0726 58.9531 44.5578C54.177 41.8613 51.3503 42.7834 52.4921 36.0773C52.4921 35.7 51.8098 34.4007 52.0326 33.5625C52.2554 32.7242 53.2441 34.247 54.5391 32.5007C55.834 30.7403 56.9758 26.9261 60.8608 26.3115C64.7458 25.6967 71.5967 26.4651 72.4322 34.4846C73.2676 42.504 67.4053 42.9651 65.7344 45.8571C64.4533 48.0646 64.9546 51.3199 66.1104 53.4714C66.3193 53.8766 68.0737 55.5951 68.0181 55.8186C67.8649 56.601 64.7597 56.6149 64.1192 56.7687C61.4596 57.4113 59.7051 58.2356 56.9063 57.4951C53.9542 56.9781 55.5972 55.092 56.6694 53.3876Z" fill="#FDB88E"/>
<path d="M39.8453 98.9452C43.8973 83.8843 50.432 78.5632 50.2231 76.1183C46.6445 66.7297 46.8116 64.7877 55.2638 57.4668C58.3689 54.6726 57.798 53.2056 62.4907 54.2395C63.716 54.2395 65.4149 53.7924 66.5845 54.2535C71.5974 56.9638 70.8594 64.2149 70.7062 69.0489C68.3529 76.7889 66.7934 84.8782 66.8491 93.0374L39.8453 98.9452Z" fill="#6EB3F2"/>
<path d="M39.9601 17.1328C37.0776 21.0168 39.236 25.9906 44.3045 25.753C44.3045 25.753 46.3932 25.3758 46.992 25.781C47.5769 26.1861 45.6274 26.242 45.6274 26.242C45.6274 26.242 47.7857 27.3038 47.8693 27.7928C47.9528 28.2958 46.4211 27.234 46.4211 27.234C48.6908 29.0223 47.1173 28.4914 46.0173 27.5693C46.0173 27.5693 47.2983 28.6311 46.978 28.8966C46.6717 29.162 45.8362 27.9744 45.5856 28.0164C45.3349 28.0583 46.5047 29.1341 46.0869 29.3297C45.6552 29.5113 44.3741 27.8348 43.9007 27.2479C32.3572 26.7869 32.9141 11.9635 39.9601 17.1328Z" fill="#ECB694"/>
<path d="M36.3402 12.7737C36.3402 12.7737 35.6579 17.8312 39.2365 18.8092C37.6073 22.8189 40.1416 24.6072 43.3025 25.6131L43.3164 27.3735C43.3164 27.3735 37.1339 26.5911 36.1313 24.1322C36.1313 24.1322 35.268 29.3155 29.35 29.9303C29.35 29.9303 30.1855 34.7922 25.6879 36.7482C25.6879 36.7482 22.0953 33.6746 21.9561 32.0958C21.9561 32.0958 23.2372 30.6149 22.1928 29.1479C21.1485 27.6809 18.1965 23.308 21.1902 20.4858C23.5853 18.2503 29.9766 9.28084 36.3402 12.7737Z" fill="#E54925"/>
<path d="M36.9802 12.9126C36.9802 12.9126 38.3587 12.2978 38.0245 10.9706C38.1638 -0.276237 53.8429 2.21062 51.4339 13.2339C50.3339 17.9422 46.5046 16.2098 47.911 18.8364C48.2173 19.3952 46.978 19.6746 46.6021 19.5489C46.2122 19.4092 45.7109 19.507 45.5438 19.9541C43.2184 22.5247 41.1297 16.8385 39.0549 17.7187C37.6903 18.4731 36.9802 12.9126 36.9802 12.9126Z" fill="#ECB694"/>
<path d="M33.2843 27.1914C33.008 26.158 32.3609 25.1421 32.1701 24.6861C31.7582 23.7279 32.0128 22.3354 31.4314 22.556C30.4779 22.9136 31.1858 25.6046 30.6831 25.9057C30.3341 25.8958 29.6297 25.0755 29.211 24.4514C28.6987 23.7037 27.8299 21.1704 27.3703 21.4568C26.9847 21.6948 27.5641 23.5595 27.873 24.1363C27.5613 23.5349 26.4868 20.7663 25.9569 21.3095C25.5696 21.707 27.0668 24.7408 27.2767 25.1448C27.1655 24.9535 25.8266 22.0011 25.4666 22.4203C25.0414 22.9217 26.4551 25.4824 26.6589 25.8771C26.5177 25.6395 25.4502 23.0641 25.012 23.6267C24.7478 23.9703 25.8009 26.4627 26.0047 26.8574C26.9344 28.6124 30.721 32.0669 31.2715 32.4072L34.0643 31.0884C34.0643 31.0884 33.8833 29.7555 33.7187 29.1373C33.5069 28.3653 33.3872 27.5728 33.2843 27.1914Z" fill="#FAB898"/>
<path d="M67.7954 60.0099C67.684 62.9857 60.485 65.4586 50.9328 61.2533C38.3867 55.0501 32.6497 39.3186 30.6306 31.7183C30.6306 31.7183 33.5966 31.7323 33.9865 30.6006C47.9528 57.9561 66.2498 49.0984 67.7954 60.0099Z" fill="#6EB3F2"/>
<path d="M56.5439 36.3289C55.4021 37.8936 57.644 39.9753 59.1339 38.6201C61.0277 36.7899 57.9921 34.2471 56.5439 36.3289Z" fill="#ED715D"/>
<path d="M56.9071 34.4423C55.9185 34.1628 55.0413 33.101 55.8906 33.3386C55.9324 33.3944 56.9907 34.6239 58.8009 34.079C58.8983 34.0511 59.0098 34.107 59.0376 34.2047C58.8566 34.8614 57.2135 34.5401 56.9071 34.4423Z" fill="#32264C"/>
<path d="M52.3119 39.0812C52.2423 38.7878 52.2701 37.5304 52.3258 37.3208C52.3258 37.3208 52.7714 37.7818 54.7069 38.1451C55.3613 38.2709 52.3815 39.5283 52.3119 39.0812L52.3119 39.0812Z" fill="white"/>
<path d="M46.5607 15.7485C46.6163 15.5669 46.5607 15.3294 46.3239 15.3992C45.6834 15.2874 45.948 16.4191 46.4354 15.9022C46.505 15.8882 46.5607 15.8184 46.5607 15.7485Z" fill="#32264C"/>
<path d="M55.6114 27.4434C55.0545 30.4471 58.4103 32.1796 60.875 32.7804C62.9079 33.1157 64.4536 33.6885 64.9131 35.9099C65.4422 38.9277 63.2004 41.4844 62.4206 44.2647C59.1901 52.5496 70.261 62.8169 70.5247 68.1129C71.4576 66.6181 70.6549 62.6951 71.6017 61.2281C72.4929 60.1802 72.9337 59.8844 73.8109 58.8226C76.2339 55.693 71.9311 51.5715 73.435 48.2604C74.4515 46.025 77.7098 45.2566 78.2389 42.8535C78.7959 39.9475 75.4818 38.1033 74.897 35.5047C74.6046 34.1914 74.9806 32.8362 74.9945 31.495C75.0363 27.3735 72.0982 25.8367 69.2018 23.8248C65.289 21.0865 56.5305 22.3439 55.6114 27.4434Z" fill="#32264C"/>
<path d="M50.8074 13.3746C50.4872 14.6879 52.1442 15.7077 53.1607 14.8276C53.3138 14.6879 53.9266 13.2628 53.5785 13.2488C55.4304 13.179 55.5557 11.237 54.3861 10.1333C54.1494 9.67226 54.5114 9.43475 54.5671 9.00165C54.6786 8.19131 54.2608 7.29717 53.5228 6.91993C53.105 6.6964 51.8797 6.3471 51.8658 7.15744C51.9772 4.53085 48.9973 2.60285 46.658 3.77641C47.1314 3.55288 45.1402 2.22561 44.9314 2.18366C43.9148 1.93217 43.0794 2.30938 42.4946 3.16166C40.7679 1.91822 39.8211 5.39703 41.3109 6.13752C41.4362 6.19339 42.8287 6.26323 42.7173 5.99779C43.0376 6.72427 44.0263 7.04564 44.7085 6.65442C44.7364 7.93978 46.4213 8.09346 47.1036 8.88979C47.5074 9.35082 47.6884 10.0913 48.2872 10.245C48.6074 10.3289 48.9973 10.2171 49.248 10.4406C49.6796 11.5304 49.4986 12.4944 50.9329 12.9834C50.8771 13.1092 50.8353 13.2349 50.8074 13.3746V13.3746Z" fill="#744956"/>
<path d="M44.2913 18.7804C44.6534 17.8164 45.3357 19.3951 45.7534 19.6466C45.5028 19.9679 45.4471 20.3032 44.8901 20.4569C44.361 20.0657 44.1103 19.4091 44.2913 18.7804Z" fill="white"/>
</g>
</svg>
