<svg width="113" height="70" viewBox="0 0 113 70" fill="none" xmlns="http://www.w3.org/2000/svg">
<mask id="mask0" style="mask-type:alpha" maskUnits="userSpaceOnUse" x="-98" y="-74" width="211" height="217">
<path d="M-18.0645 95.0894C-4.71261 103.07 8.46639 113.024 22.269 114.02C36.0717 115.017 50.4979 107.057 61.8557 96.4764C73.2613 85.978 81.5985 72.8595 84.3436 59.0309C87.2189 45.2367 82.1853 36.4537 78.7144 22.1683C75.1955 7.80072 71.0049 -6.39611 61.587 -14.2434C52.1211 -22.1729 36.951 -30.284 22.2932 -33.3169C7.68324 -36.2676 -12.6272 -43.2232 -25.9392 -40.5393C-39.3334 -37.8075 -45.3824 -18.9395 -55.0142 -6.71962C-64.5981 5.58253 -69.3176 14.6464 -69.8566 29.6142C-70.3957 44.5821 -64.4854 59.6505 -54.7612 70.2943C-45.0369 80.938 -31.4643 87.0269 -18.0645 95.0894Z" fill="#F0ECE4"/>
</mask>
<g mask="url(#mask0)">
<rect x="-7" y="-16" width="109" height="102" fill="#F0ECE4"/>
<path d="M96.1997 60.8123C90.8849 60.6514 85.297 59.6242 82.2423 55.045C76.8033 46.8767 80.6776 34.8718 61.9767 26.0723C48.0068 19.5006 47.1376 1.10954 31.3423 5.73823C18.2665 4.45111 17.5712 18.2877 14.9138 23.3867C10.7539 31.3693 2.79416 32.5451 1.70141 46.5673C1.11778 54.1291 1.24196 58.6217 -4.23422 62.0499C-12.3554 67.1241 -16.5401 68.9929 -15.9441 76.6909C-15.5094 82.3221 -8.03402 85.5894 1.7635 86.926C11.6355 88.275 17.9313 89.4755 22.5755 94.525C31.0567 103.733 39.985 103.052 51.7569 97.1364C59.4062 93.2998 66.9189 94.0919 79.2993 96.1711C91.5803 98.2379 92.1019 83.8444 102.409 82.3592C113.026 80.8122 115.298 75.2305 114.714 70.5028C114.168 66.1093 108.543 61.1836 96.1997 60.8123Z" fill="#32264C"/>
<path d="M49.5589 40.763C51.3595 58.0526 44.0455 70.0327 31.5534 70.0451C19.0612 70.0698 16.9999 62.2481 15.3235 62.8298C12.5916 63.758 12.7158 53.9808 12.9766 49.6863C13.7589 36.8398 18.5024 21.679 33.9748 23.9438C44.5671 25.4908 48.3544 29.2532 49.5589 40.763Z" fill="#FFA191"/>
<path d="M21.5205 60.5896C21.5205 60.5896 42.109 54.2654 49.0256 32.3967C51.8196 23.5848 56.5258 41.0971 55.3089 56.7282C54.7749 63.6342 53.0613 69.5747 49.7955 74.2777C44.1951 82.3717 22.2159 85.3296 21.5205 60.5896Z" fill="#D9BBA2"/>
<path d="M60.1142 72.0501C60.1142 72.0501 35.4404 28.783 52.3532 29.2285C64.7087 29.5627 65.8636 70.6516 65.8636 70.6516C66.0126 71.9016 60.4992 72.6566 60.1142 72.0501Z" fill="#E54925"/>
<path d="M15.3117 62.8299C15.3117 62.8299 32.3488 56.7037 39.2778 34.835C39.2778 34.835 48.0198 35.0082 48.0322 54.278C48.0322 56.0354 47.0512 69.5997 39.9608 77.669C33.1932 85.3793 13.8961 82.6937 15.3117 62.8299Z" fill="#E54925"/>
<path d="M50.5526 65.2678C51.3846 65.1069 52.8002 64.748 52.9119 64.3643C53.0858 63.7579 50.0931 64.6242 48.8762 64.3272C47.9821 64.1168 46.6659 63.3247 46.641 63.0277C46.7776 62.1366 49.5467 62.1613 50.0435 61.5549C50.3415 61.1836 49.5219 60.9361 47.8828 61.2579C46.4051 61.5549 45.7842 61.097 44.4679 61.1341C43.9712 61.1465 43.0151 61.2331 42.0217 61.2703C41.2393 61.295 39.9231 60.5029 39.9231 60.5029L39.1904 64.1787C39.7865 64.6613 45.3123 68.2257 47.7462 68.3494C50.4781 68.4856 52.3283 67.6316 52.6512 67.2232C52.8126 67.0128 51.9682 66.9262 51.5212 66.9633C52.3904 66.7282 53.2845 66.493 53.4707 66.2331C53.7067 65.8989 52.0675 66.0103 50.7885 66.2331C51.993 65.9484 53.5328 65.6019 53.7439 65.2554C54.104 64.6489 51.7819 65.0945 50.5526 65.2678Z" fill="#FDB98D"/>
<path d="M54.2282 77.2727C54.2282 77.2727 26.2389 33.9189 44.1824 30.7382C57.0843 28.4486 60.1018 75.7751 60.1018 75.7751C60.3874 77.5078 55.0602 77.9534 54.2282 77.2727Z" fill="#E54925"/>
<path d="M40.9164 66.79C32.907 63.6836 24.6493 62.1365 18.8502 56.1836C16.7268 54.0054 14.8393 50.5153 14.442 46.0351C14.4171 45.8 14.4047 45.5648 14.3799 45.3297C13.7466 34.9089 19.943 22.7431 33.9625 23.4238L29.4301 34.3149C31.8639 39.0549 29.7033 44.6118 32.0005 47.3594C36.5578 52.842 39.6001 58.8321 43.0274 60.1811C44.0084 60.5524 42.1333 67.2603 40.9164 66.79Z" fill="#FFA191"/>
<path d="M21.3088 58.6093C21.2715 58.6093 21.2219 58.5969 21.1846 58.5722C15.9319 54.5994 14.3673 46.5673 14.3549 46.4806C14.33 46.3693 14.4046 46.2702 14.5163 46.2455C14.6281 46.2207 14.7274 46.295 14.7522 46.4064C14.7647 46.4806 16.3045 54.3643 21.433 58.2504C21.5199 58.3123 21.5447 58.4484 21.4702 58.535C21.4329 58.5722 21.3709 58.6093 21.3088 58.6093Z" fill="#32264C"/>
<path d="M59.344 67.966C59.2323 67.966 59.1453 67.8793 59.1329 67.7803C57.4317 49.1542 52.9241 34.6988 47.9198 31.8027C47.8205 31.7409 47.7832 31.6171 47.8453 31.5181C47.9074 31.4191 48.0316 31.3819 48.1309 31.4438C53.247 34.4017 57.8291 48.9933 59.5427 67.7432C59.5551 67.8546 59.4682 67.9536 59.3564 67.966C59.3564 67.966 59.3564 67.966 59.344 67.966Z" fill="#32264C"/>
<path d="M44.3686 59.9584C44.2941 59.9584 44.2196 59.9213 44.1824 59.847C40.9289 53.6837 38.6441 46.3199 37.8866 39.6367C37.8742 39.5253 37.9487 39.4263 38.0604 39.4139C38.1722 39.4016 38.2716 39.4758 38.284 39.5872C39.029 46.2208 41.3139 53.5352 44.5425 59.649C44.5921 59.748 44.5549 59.8718 44.4555 59.9213C44.4307 59.9584 44.4059 59.9584 44.3686 59.9584Z" fill="#32264C"/>
<path d="M65.702 67.2731C65.4164 69.0677 60.6853 68.7335 59.6422 68.6345C59.5181 68.6221 59.3939 68.6716 59.307 68.7706C56.3888 71.8523 50.5277 70.6394 49.3728 69.1172C49.2859 69.0058 49.1493 68.981 49.0252 69.0553C38.6316 75.3795 17.3353 71.2087 15.2492 64.1172C7.83583 73.6221 20.4522 81.1963 29.7281 82.83C43.7601 85.3176 49.2362 83.9562 50.5401 79.6864C54.7497 83.6716 64.8204 80.1691 67.366 77.6072C71.0044 73.9315 67.9 62.2979 65.702 67.2731Z" fill="#6EB3F2"/>
<path d="M29.4177 17.2231L27.9028 26.9261C27.6296 29.4261 36.3468 29.8964 36.7565 27.186V23.3246L29.4177 17.2231Z" fill="#C78E85"/>
<path d="M40.1213 16.4312C40.2082 16.951 40.3075 17.4213 40.3199 17.9411C40.3324 18.6094 40.2454 19.3024 40.0343 19.9708C39.488 21.7158 38.5194 24.0797 36.7561 24.3643C32.9811 24.9584 28.5853 21.592 28.7219 16.9881C28.8336 12.9658 32.1243 6.53021 33.5399 8.78268C35.7378 12.2851 37.7495 10.701 39.2893 12.8544C39.6121 13.3 39.9226 13.8817 40.0095 15.2431C40.0468 15.6762 40.0592 16.0723 40.1213 16.4312Z" fill="#FDB98D"/>
<path d="M33.8265 19.1911C33.9382 20.1564 33.2429 21.0475 32.2743 21.1589C31.3057 21.2703 30.4116 20.5772 30.2999 19.6119C30.1881 18.6465 30.8835 17.7555 31.8521 17.6441C32.8331 17.5327 33.7147 18.2258 33.8265 19.1911Z" fill="#ED715D"/>
<path d="M40.3207 17.941C40.3331 18.6094 40.2834 19.3024 40.0351 19.9707C39.2155 19.8965 38.5325 19.2653 38.4332 18.4113C38.3214 17.4336 39.0168 16.5549 39.9854 16.4435C40.0351 16.4435 40.0723 16.4312 40.1096 16.4312C40.1965 16.951 40.3083 17.4212 40.3207 17.941Z" fill="#ED715D"/>
<path d="M37.7129 21.1585C37.7129 21.1709 37.7004 21.1709 37.7004 21.1709C37.6632 21.208 37.6011 21.2204 37.5638 21.1956C36.3717 20.3045 35.3535 21.4308 35.3038 21.4679C35.2666 21.505 35.2045 21.5174 35.1672 21.4803C35.13 21.4431 35.1176 21.3813 35.1548 21.3441C35.1672 21.3318 36.3469 20.0323 37.6756 21.0347C37.7253 21.0719 37.7253 21.1214 37.7129 21.1585Z" fill="#ED715D"/>
<path d="M37.2036 19.0796C37.1788 19.1291 37.1539 19.1662 37.1291 19.2033C36.8683 19.5375 36.3095 19.6489 35.8128 19.4509C35.7632 19.4261 35.7383 19.3766 35.7632 19.3271C35.7756 19.2776 35.8377 19.2528 35.8873 19.2776C36.3592 19.4632 36.8062 19.3147 36.9801 19.0919C37.1167 18.9063 37.1043 18.6835 36.9304 18.4484C36.0364 17.2479 35.9991 16.4311 35.9991 16.3939C35.9991 16.3444 36.0363 16.2949 36.0984 16.2949C36.1481 16.2949 36.1978 16.3321 36.1978 16.3816C36.1978 16.3939 36.2474 17.186 37.0918 18.337C37.2657 18.5845 37.303 18.8444 37.2036 19.0796Z" fill="#ED715D"/>
<path d="M34.6955 16.5546C34.6955 16.5669 34.683 16.5793 34.6706 16.5917C33.3047 17.7179 31.7773 16.5793 31.7649 16.5669C31.7276 16.5298 31.7152 16.4679 31.7525 16.4308C31.7897 16.3937 31.8518 16.3813 31.8891 16.4184C31.9512 16.4679 33.3047 17.4704 34.5589 16.4555C34.5961 16.4184 34.6582 16.4308 34.6955 16.4679C34.7079 16.4803 34.7079 16.5174 34.6955 16.5546Z" fill="#002869"/>
<path d="M39.6747 15.5027C39.6747 15.5151 39.6623 15.5274 39.6498 15.5274C38.3584 16.7403 37.2408 16.072 37.2284 16.0596C37.1787 16.0349 37.1663 15.973 37.1911 15.9235C37.216 15.874 37.2781 15.8616 37.3277 15.8863C37.365 15.9111 38.346 16.4804 39.5132 15.3789C39.5505 15.3418 39.6126 15.3418 39.6498 15.3789C39.6871 15.4284 39.6995 15.4656 39.6747 15.5027Z" fill="#002869"/>
<path d="M34.8568 5.71372C34.8568 5.71372 29.3434 6.59243 21.9052 15.8127C19.459 18.8449 15.9199 35.2433 15.9199 35.2433C18.1675 29.9215 24.873 32.0502 28.4369 28.0527C30.759 25.4414 30.4361 21.1716 30.4113 16.2582C30.3865 12.0875 35.2542 13.5478 34.981 9.63697C34.683 5.29293 34.8568 5.71372 34.8568 5.71372Z" fill="#32264C"/>
</g>
</svg>
