<svg width="113" height="70" viewBox="0 0 113 70" fill="none" xmlns="http://www.w3.org/2000/svg">
<mask id="mask0" style="mask-type:alpha" maskUnits="userSpaceOnUse" x="-70" y="-42" width="156" height="157">
<path d="M-18.0645 95.0894C-4.71261 103.07 8.46639 113.024 22.269 114.02C36.0717 115.017 50.4979 107.057 61.8557 96.4764C73.2613 85.978 81.5985 72.8595 84.3436 59.0309C87.2189 45.2367 82.1853 36.4537 78.7144 22.1683C75.1955 7.80072 71.0049 -6.39611 61.587 -14.2434C52.1211 -22.1729 36.951 -30.284 22.2932 -33.3169C7.68324 -36.2676 -12.6272 -43.2232 -25.9392 -40.5393C-39.3334 -37.8075 -45.3824 -18.9395 -55.0142 -6.71962C-64.5981 5.58253 -69.3176 14.6464 -69.8566 29.6142C-70.3957 44.5821 -64.4854 59.6505 -54.7612 70.2943C-45.0369 80.938 -31.4643 87.0269 -18.0645 95.0894Z" fill="#F0ECE4"/>
</mask>
<g mask="url(#mask0)">
<rect x="-9" y="-32" width="97" height="105" fill="#F0ECE4"/>
<path d="M92.0002 -31H-50.3818V90.3483H92.0002V-31Z" fill="#F0ECE4"/>
<path d="M70.036 1.92584C68.1753 -1.9573 63.0382 -3.61573 60.8135 -4.18202C47.9101 -7.57977 56.3641 -19.7551 34.9663 -19.9978C26.1079 -20.0787 25.3798 -26.6315 21.5775 -31H-52V85.2112C-52 85.2112 -45.2854 79.2247 -33.2719 82.7034C-18.2652 87.0719 -6.69662 88.0831 -0.71011 69.5573C3.61798 56.2494 18.8674 61.3056 24.6112 49.2921C25.9056 46.5416 27.3618 44.7618 28.8584 43.5079C34.1978 39.0584 37.3933 31.1303 52.6831 29.836C59.0742 29.3101 62.9169 28.0157 64.4944 25.8719C64.4944 25.8719 64.4944 25.8719 64.5348 25.8315C67.2449 22.3528 64.1708 17.6202 66.9214 13.6562C70.7236 8.23595 71.3304 4.63596 70.036 1.92584Z" fill="#32264C"/>
<path d="M59.8832 90.348H43.5416C42.6517 88.3255 41.9236 85.4536 41.4382 83.2694C40.9933 85.2514 40.1843 88.3255 39.2135 90.348H23.5596C23.5596 90.348 23.6 81.4087 24.2877 76.5548C25.2989 69.3952 26.836 64.9053 28.4135 61.7098C29.5461 59.4851 30.2742 57.5435 30.6382 56.9368C34.0764 51.3143 39.0517 44.3166 42.7731 46.4199C45.5641 43.0222 51.1461 52.5682 52.7641 58.2312C53.0877 59.4042 52.2787 61.9525 53.4921 64.8649C56.4854 71.984 58.5483 82.2581 59.8832 90.348Z" fill="#6EB3F2"/>
<path d="M57.6183 34.487C57.9014 37.3184 58.0632 61.3049 54.0992 62.478C42.5306 65.7139 41.479 58.5139 30.3554 59.7274C28.8587 59.8892 27.3217 60.1724 28.1306 55.9252C28.4947 54.0645 29.0205 53.1746 28.616 51.3948C27.7666 47.5117 30.7599 40.5544 32.2969 36.9544C35.452 29.5926 41.1958 19.7634 47.5059 21.3409C53.816 22.9184 56.607 24.6577 57.6183 34.487Z" fill="#528A4F"/>
<path d="M55.5145 54.7524C55.5145 54.7524 57.6178 51.8805 58.4268 53.0535C59.2358 54.2265 57.6583 58.7973 56.7684 58.9187C55.8785 59.04 54.8673 58.2715 54.8268 57.7861C54.7864 57.3007 55.5145 54.7524 55.5145 54.7524Z" fill="#FDB98D"/>
<path d="M54.3013 58.798C48.517 58.0294 29.708 51.8002 28.7372 42.2541C27.0788 26.5598 32.4181 17.9036 40.0226 21.6654C47.0204 25.144 42.4092 41.0811 45.2002 42.2541C53.7755 45.935 50.0541 52.7305 55.2316 53.6609C56.4451 53.944 55.353 58.9598 54.3013 58.798Z" fill="#528A4F"/>
<path d="M35.4514 51.5567C34.6424 51.2331 33.6716 50.4241 33.3076 50.2623C32.2559 49.8578 31.6492 50.3028 30.4357 49.8174C29.1008 49.2511 28.2514 49.0893 28.4132 49.6556C28.6154 50.505 31.1233 50.7477 31.002 51.6781C30.7593 51.7185 29.2626 50.9095 28.4941 50.5859C28.0896 50.4241 27.2402 50.4241 27.7256 51.2736C26.8357 51.1927 26.8357 52.0017 27.5638 52.4871C27.1188 52.2039 26.6739 53.1342 27.4424 53.5387C27.4829 53.5792 27.5638 53.6196 27.6447 53.7005C27.0784 53.5792 26.7952 54.3882 28.0491 55.1567C30.8402 56.8151 36.0177 55.0354 36.6649 54.7522L37.1503 51.314C37.1098 51.2736 36.0986 51.7994 35.4514 51.5567Z" fill="#FDB98D"/>
<path d="M35.6539 56.0875C42.0449 57.7459 54.9482 58.8785 59.3572 50.3437C63.6449 42.0515 63.6449 31.8178 55.8381 24.4965C51.8336 20.7347 42.8134 19.3998 45.928 21.7864C56.1617 29.5527 52.3999 42.456 49.4471 43.0223C40.3056 44.7212 40.8718 51.0718 35.6539 50.8695C34.3999 50.8695 34.6022 55.8043 35.6539 56.0875Z" fill="#528A4F"/>
<path d="M43.2182 13.7368L41.6811 23.6874C41.398 26.2761 50.0541 26.6806 50.4586 23.9301L50.7418 20.0065L43.2182 13.7368Z" fill="#C78E85"/>
<path d="M54.1799 12.8876C54.2608 13.4134 54.3821 13.8988 54.3821 14.4247C54.3821 15.1123 54.3012 15.8404 54.099 16.4876C53.5327 18.2674 52.5619 20.6943 50.7417 21.0179C47.0608 21.6247 42.3686 18.1865 42.5304 13.4539C42.6518 9.32804 46.0091 2.73478 47.4653 5.0404C49.7304 8.6404 51.7529 7.02242 53.3304 9.20669C53.654 9.65164 53.9776 10.2584 54.0585 11.6741C54.099 12.1191 54.099 12.5235 54.1799 12.8876Z" fill="#FDB98D"/>
<path d="M47.708 15.7593C47.8293 16.7705 47.1012 17.6604 46.1304 17.7817C45.1192 17.9031 44.2293 17.175 44.108 16.2042C43.9866 15.193 44.7147 14.3031 45.6855 14.1817C46.6967 14.0199 47.5866 14.748 47.708 15.7593Z" fill="#ED715D"/>
<path d="M54.382 14.4648C54.382 15.1525 54.3416 15.8805 54.0989 16.5277C53.2495 16.4468 52.5618 15.7996 52.4405 14.9502C52.3191 13.939 53.0472 13.0491 54.018 12.9277C54.0585 12.9277 54.0989 12.9277 54.1393 12.9277C54.2607 13.4536 54.3416 13.8985 54.382 14.4648Z" fill="#ED715D"/>
<path d="M48.7593 1.88506C48.7593 1.88506 41.5189 -3.77786 33.8739 5.6873C31.366 8.80191 24.0851 8.76146 24.2065 13.494C24.2469 15.8401 28.9795 18.712 25.1773 20.7749C18.3009 24.5367 27.3615 31.0087 27.3615 31.0087C31.6896 29.512 36.584 30.3615 41.8424 26.0334C45.038 23.4042 44.229 17.7412 44.1885 12.6851C44.1481 8.39742 50.1346 10.5008 48.5571 6.05135C47.0604 1.92551 48.7593 1.88506 48.7593 1.88506Z" fill="#32264C"/>
<path d="M44.634 44.2759C44.6744 44.2759 44.7149 44.2759 44.7553 44.2354C44.8362 44.1545 44.8362 44.0736 44.7553 43.9927C41.5194 40.2714 41.4789 36.3882 41.398 33.5972C41.398 32.6669 41.3576 31.8579 41.2362 31.2107C41.2362 31.1298 41.1149 31.0489 41.034 31.0894C40.9531 31.0894 40.8722 31.2107 40.9126 31.2916C41.034 31.8984 41.034 32.7074 41.0744 33.6377C41.1149 36.5096 41.1958 40.4332 44.5126 44.2759C44.5531 44.2759 44.5935 44.2759 44.634 44.2759Z" fill="#32264C"/>
<path d="M52.1171 55.4403C52.1171 55.3998 52.1171 55.3594 52.1171 55.3189C52.0767 55.238 51.9553 55.1976 51.8744 55.238C47.4655 57.4223 43.7037 56.5324 40.9531 55.8448C40.0228 55.6425 39.2542 55.4403 38.607 55.3998C38.5261 55.3998 38.4452 55.4807 38.4048 55.5616C38.4048 55.6425 38.4857 55.7234 38.5666 55.7639C39.1733 55.8043 39.9823 55.9661 40.8722 56.2088C43.6632 56.8965 47.5059 57.8268 52.0363 55.5616C52.0767 55.5212 52.1171 55.4807 52.1171 55.4403Z" fill="#32264C"/>
<path d="M38.7685 50.1411C38.809 50.1411 38.8899 50.1411 38.9303 50.1007C41.1955 47.3906 44.1079 46.3793 46.9393 45.4085C50.4989 44.1951 53.8562 42.8198 54.6247 38.1681C54.6247 38.0872 54.5843 37.7231 54.5034 37.7231C54.4225 37.7231 54.3011 38.0063 54.3011 38.0872C53.573 42.5366 50.4584 43.7097 46.8584 44.9636C44.1079 45.8939 41.0337 47.0265 38.6877 49.8175C38.6068 49.8984 38.6472 50.0198 38.7281 50.1007C38.6877 50.1007 38.7281 50.1411 38.7685 50.1411Z" fill="#32264C"/>
<path d="M51.7124 17.7816C51.7124 17.7816 51.6719 17.7816 51.7124 17.7816C51.6719 17.8625 51.591 17.8625 51.5506 17.8221C50.3371 16.8918 49.2854 18.0648 49.2449 18.1052C49.2045 18.1457 49.164 18.1457 49.1236 18.1052C49.0831 18.0648 49.0831 18.0243 49.1236 17.9839C49.1236 17.9839 50.3371 16.6491 51.7124 17.6603C51.7124 17.6603 51.7124 17.7412 51.7124 17.7816Z" fill="#ED715D"/>
<path d="M51.1868 15.638C51.1464 15.6785 51.1463 15.7189 51.1059 15.7594C50.8228 16.1234 50.2565 16.2043 49.7711 16.0021C49.7306 16.0021 49.6902 15.9212 49.7306 15.8807C49.7306 15.8403 49.8115 15.7998 49.852 15.8403C50.3374 16.0425 50.7823 15.8807 50.9846 15.638C51.1464 15.4358 51.1059 15.2335 50.9441 14.9908C50.0542 13.7773 49.9733 12.9279 49.9733 12.8875C49.9733 12.847 50.0138 12.7661 50.0542 12.7661C50.0947 12.7661 50.1351 12.8066 50.1756 12.847C50.1756 12.847 50.216 13.6965 51.1059 14.8695C51.2272 15.1122 51.2677 15.3953 51.1868 15.638Z" fill="#ED715D"/>
<path d="M48.5978 13.0496C47.1821 14.2227 45.6046 13.0496 45.6046 13.0496C45.5641 13.0092 45.5641 12.9687 45.6046 12.9283C45.645 12.8878 45.6855 12.8878 45.7259 12.9283C45.7664 12.9687 47.1821 14.0204 48.4765 12.9687C48.5169 12.9283 48.5978 12.9283 48.5978 12.9687C48.5978 12.9687 48.6383 13.0092 48.5978 13.0496Z" fill="#002869"/>
<path d="M53.6945 11.9573C52.3596 13.2517 51.1866 12.5641 51.1866 12.5236C51.1462 12.4832 51.1057 12.4427 51.1461 12.4023C51.1866 12.3618 51.227 12.3214 51.2675 12.3618C51.3079 12.4023 52.3192 12.9686 53.4922 11.836C53.5327 11.7956 53.6136 11.7956 53.6136 11.836C53.7349 11.8765 53.7349 11.9169 53.6945 11.9573Z" fill="#002869"/>
<path d="M-21.2856 50.8394C-24.823 50.8394 -28.1546 49.9499 -30.9104 48.4541C-37.0802 45.139 -43.3733 43.6836 -49.5842 44.2092C-50.0778 44.2496 -50.16 44.2496 -50.2834 44.2092C-50.3657 44.1687 -50.4068 44.0475 -50.3657 43.9666C-50.3246 43.8857 -50.2012 43.8453 -50.0778 43.8857C-50.0778 43.8857 -49.831 43.8453 -49.6253 43.8453C-43.2911 43.3198 -36.9568 44.7347 -30.7048 48.1307C-24.0003 51.7692 -13.3472 51.8096 -5.86127 43.2793C-1.50132 38.3067 3.68126 38.3067 8.65819 38.3067C13.2649 38.3067 18.0362 38.3067 22.1905 34.4256C24.4939 32.2829 26.7191 31.0187 28.6523 30.4932C28.7757 30.4527 28.8579 30.5336 28.8991 30.6145C28.9402 30.7357 28.8579 30.8166 28.7757 30.857C26.8836 31.3826 24.6995 32.6064 22.4784 34.7086C18.2007 38.711 13.3472 38.711 8.65819 38.711C3.51674 38.711 -1.3368 38.711 -5.57335 43.5623C-10.139 48.7775 -15.8974 50.8394 -21.2856 50.8394Z" fill="#F0ECE4"/>
</g>
</svg>
