<svg width="113" height="70" viewBox="0 0 113 70" fill="none" xmlns="http://www.w3.org/2000/svg">
<mask id="mask0" style="mask-type:alpha" maskUnits="userSpaceOnUse" x="-98" y="-74" width="211" height="217">
<path d="M-18.0645 95.0894C-4.71261 103.07 8.46639 113.024 22.269 114.02C36.0717 115.017 50.4979 107.057 61.8557 96.4764C73.2613 85.978 81.5985 72.8595 84.3436 59.0309C87.2189 45.2367 82.1853 36.4537 78.7144 22.1683C75.1955 7.80072 71.0049 -6.39611 61.587 -14.2434C52.1211 -22.1729 36.951 -30.284 22.2932 -33.3169C7.68324 -36.2676 -12.6272 -43.2232 -25.9392 -40.5393C-39.3334 -37.8075 -45.3824 -18.9395 -55.0142 -6.71962C-64.5981 5.58253 -69.3176 14.6464 -69.8566 29.6142C-70.3957 44.5821 -64.4854 59.6505 -54.7612 70.2943C-45.0369 80.938 -31.4643 87.0269 -18.0645 95.0894Z" fill="white"/>
</mask>
<g mask="url(#mask0)">
<rect x="-7" y="-16" width="109" height="102" fill="#F0ECE4"/>
<path d="M25.8943 15.8431C25.6371 15.7002 25.3514 15.5573 25.0942 15.4144C24.3511 15.0143 23.6653 14.6142 23.2937 14.4428C22.4078 14.0427 21.922 13.6426 21.5505 13.2996C21.4362 12.4709 22.6936 12.2994 23.8939 12.0994C24.8941 11.9565 25.8086 11.8136 26.123 11.3278C26.2373 11.1563 26.2373 10.9563 26.1801 10.7276C26.0658 10.3561 25.4657 10.4133 24.5226 10.4704C23.7224 10.5276 22.7222 10.5847 21.6077 10.4704C21.2361 10.4133 20.8075 10.3561 20.436 10.2704C19.7787 10.1561 19.1214 10.0418 18.607 10.0418H18.5212C17.9497 10.0418 16.6065 10.0989 15.6635 10.3275C14.9204 10.5276 13.8916 10.0418 13.8916 10.0132C13.863 10.0132 13.863 10.0132 13.8345 10.0132C13.8059 10.0132 13.8059 10.0418 13.8059 10.0418L12.8057 14.6714C12.8057 14.7 12.8057 14.7 12.8057 14.7285C13.3772 15.3572 16.5779 17.7578 18.7784 18.9295C18.8356 18.9581 18.9213 19.0152 19.0071 19.0438C19.893 19.5296 20.8646 20.044 21.2076 19.7011C21.4076 19.5296 21.4933 19.301 21.4648 19.0724C21.4362 18.9581 21.4076 18.8437 21.3505 18.758C21.5791 18.8723 21.8363 18.9295 22.0935 18.9009C22.3221 18.8723 22.5221 18.758 22.6079 18.558C22.7793 18.215 22.7222 17.9007 22.4364 17.5863C22.665 17.6149 22.9222 17.5577 23.0365 17.5006C23.2937 17.3863 23.4652 17.1005 23.4652 16.8147C23.4652 16.6147 23.3795 16.4146 23.2366 16.2717C23.3509 16.3289 23.4938 16.3861 23.6367 16.4718C24.1511 16.729 24.837 17.0148 25.4657 17.272C25.6657 17.3577 25.8372 17.4149 26.0086 17.5006C26.7802 17.8435 27.4661 18.1293 27.8376 18.015C27.8662 18.015 27.8662 18.015 27.8948 17.9864C28.0091 17.9293 28.0948 17.8435 28.152 17.7292C28.3235 17.2434 27.1232 16.5289 25.8943 15.8431Z" fill="#F8B791"/>
<path d="M-12.9921 -9.49902C-12.9921 -9.49902 -0.254618 -4.96126 2.4317 -3.38947C7.83292 -0.274485 9.83337 6.92714 11.7195 7.7559C12.6912 8.18457 14.3201 9.07048 15.2632 9.38484C16.6349 9.84208 15.3489 17.2152 13.72 17.1009C13.0627 17.0437 9.71906 15.9006 9.03319 15.8149C-3.36961 14.4717 -19.9448 14.3002 -28.8896 -2.76076V-8.76211L-12.9921 -9.49902Z" fill="#FFA191"/>
<path d="M14.0632 10.1274C13.2916 9.8416 12.4057 9.5844 11.8055 8.95569C11.6627 8.8128 11.9199 8.64133 12.0627 8.78422C12.6057 9.35578 13.4916 9.5844 14.2061 9.8416C14.3776 9.92734 14.2632 10.1845 14.0632 10.1274Z" fill="#002869"/>
<path d="M14.2636 11.3557C13.3777 10.8127 12.2346 10.8413 11.2343 10.5555C11.0343 10.4983 11.0915 10.2126 11.2915 10.2697C12.2917 10.5555 13.4634 10.5555 14.3779 11.0985C14.5494 11.1842 14.4351 11.47 14.2636 11.3557Z" fill="#002869"/>
<path d="M13.7207 13.957C12.7491 13.6141 11.7489 13.3855 10.7772 13.0711C10.6057 13.014 10.72 12.7282 10.8915 12.7853C11.8632 13.0997 12.8634 13.3283 13.835 13.6713C14.0351 13.757 13.9208 14.0428 13.7207 13.957Z" fill="#002869"/>
<path d="M13.0345 16.129C12.3772 16.0718 11.8343 16.1861 11.177 15.9575C10.7483 15.8146 10.2339 15.6717 9.89095 15.3574C9.74807 15.2145 9.94811 14.9858 10.091 15.1287C10.4339 15.4431 11.0055 15.586 11.4342 15.7003C11.9771 15.8718 12.5201 15.7574 13.0917 15.8146C13.2917 15.8432 13.2346 16.129 13.0345 16.129Z" fill="#002869"/>
<path d="M14.0348 12.5566C13.006 12.2708 11.92 12.0708 10.9198 11.6421C10.7483 11.5564 10.8626 11.2992 11.0341 11.3563C12.0057 11.785 13.0345 11.9565 14.0633 12.2423C14.2634 12.2994 14.2062 12.6138 14.0348 12.5566Z" fill="#002869"/>
<path d="M13.4347 15.129C13.0061 14.929 12.4917 14.8147 12.0344 14.7004C11.52 14.5575 10.977 14.4146 10.434 14.3288C10.234 14.3003 10.2912 13.9859 10.4912 14.0431C11.0628 14.1574 11.6343 14.3003 12.2059 14.4432C12.6631 14.5575 13.1489 14.6718 13.5776 14.8718C13.7491 14.929 13.6348 15.2148 13.4347 15.129Z" fill="#002869"/>
<path d="M29.3809 56.7099C29.3523 56.5955 29.2666 56.5098 29.1808 56.4527C28.8379 56.2526 28.1235 56.4812 27.3233 56.7099C27.1518 56.767 26.9518 56.8242 26.7803 56.8813C26.1516 57.0528 25.4943 57.2814 24.9513 57.4529C24.8084 57.51 24.6655 57.5672 24.5226 57.5958C24.6655 57.4529 24.7798 57.2814 24.8084 57.0814C24.837 56.7956 24.7227 56.5384 24.4941 56.3955C24.3798 56.3383 24.1511 56.2526 23.9225 56.2526C24.2369 55.9954 24.3226 55.681 24.2083 55.3381C24.1226 55.1381 23.9797 55.0238 23.751 54.9666C23.5224 54.9094 23.2652 54.9666 23.0366 55.0238C23.0937 54.938 23.1509 54.8237 23.1795 54.7094C23.2366 54.4808 23.1795 54.2807 23.008 54.0807C22.6365 53.652 20.7789 54.195 20.3217 54.3379C17.864 55.2238 14.8347 57.4243 14.2918 57.9101L14.2632 57.9387L14.9205 62.4826C14.9205 62.4826 14.9205 62.5112 14.9491 62.5112H14.9776C14.9776 62.5112 16.0064 62.1396 16.7209 62.3968C17.6068 62.7112 18.8642 62.8827 19.4072 62.9684H19.4929C20.0073 63.0256 20.6075 62.997 21.2648 62.9398C21.6363 62.9112 22.0364 62.8827 22.4079 62.8827C22.4365 62.8827 22.4365 62.8827 22.465 62.8827C23.5224 62.8827 24.4655 63.0541 25.2085 63.197C25.6658 63.2828 26.0373 63.3399 26.323 63.3399C26.5802 63.3399 26.7517 63.2828 26.8089 63.1399C26.8946 62.9398 26.8946 62.7398 26.8089 62.5683C26.5802 62.0825 25.6943 61.8539 24.7798 61.5967C23.6653 61.2823 22.4936 60.968 22.6937 60.1964C23.0937 59.9106 23.6081 59.5676 24.4941 59.2819C24.8656 59.1676 25.58 58.8532 26.2945 58.5674C26.5517 58.4531 26.8374 58.3388 27.1232 58.2245C28.2663 57.8244 29.5238 57.2528 29.3809 56.7099Z" fill="#F8B791"/>
<path d="M16.2066 62.9397C17.6069 62.1109 16.0637 55.9953 13.6346 57.1955C5.60417 61.1393 -2.82631 58.1958 -12.6285 65.1116C-16.9152 68.1409 -21.0304 73.1134 -21.7734 77H8.89062C12.7201 71.3988 11.034 65.9975 16.2066 62.9397Z" fill="#E54925"/>
<path d="M23.6941 37.9051C23.3226 37.4764 22.2938 37.3907 21.065 37.305C20.8078 37.2764 20.522 37.2764 20.2362 37.2478C19.2931 37.1621 18.2929 37.1335 17.4927 37.1049C17.2355 37.1049 17.0069 37.0764 16.8068 37.0764C17.0926 36.962 17.3498 36.7906 17.4927 36.5334C17.6928 36.1619 17.6642 35.7618 17.407 35.4188C17.2927 35.2759 17.0069 35.0187 16.664 34.933C17.2355 34.7615 17.5213 34.3615 17.5213 33.8471C17.5213 33.5327 17.3784 33.2755 17.0926 33.104C16.8068 32.904 16.4068 32.8183 16.0638 32.8183C16.2067 32.7325 16.3496 32.6182 16.4353 32.4753C16.6068 32.2181 16.6354 31.9038 16.5211 31.5608C16.2353 30.7892 13.4632 30.5606 12.7488 30.532C8.97651 30.4463 3.77534 31.8752 2.77511 32.2467C2.74654 32.2467 2.74653 32.2753 2.74653 32.2753L1.28906 38.7339C1.28906 38.7624 1.28906 38.7624 1.28906 38.791C1.28906 38.791 1.31764 38.8196 1.34622 38.8196C1.3748 38.8196 2.918 38.8482 3.74676 39.5626C4.74698 40.4485 6.4045 41.3345 7.09037 41.7345L7.20468 41.7917C7.86197 42.1346 8.69073 42.3918 9.60522 42.6776C10.1482 42.8491 10.6912 43.0206 11.177 43.192C12.6631 43.735 13.8348 44.478 14.7778 45.0496C15.6352 45.564 16.2924 45.9641 16.6925 45.9069C16.8068 45.9069 16.8926 45.8498 16.9497 45.764C17.1784 45.5354 17.2927 45.2782 17.2641 44.9924C17.2069 44.2208 16.1496 43.4492 15.035 42.649C13.6633 41.6488 12.263 40.6486 12.9203 39.6769C13.6061 39.5055 14.4635 39.3054 15.8066 39.3626C16.3782 39.3912 17.4641 39.3626 18.6358 39.334C19.0645 39.334 19.4932 39.3054 19.9218 39.3054C21.7794 39.2483 23.7513 39.134 23.837 38.3624C23.837 38.1623 23.8084 38.0194 23.6941 37.9051Z" fill="#F8B791"/>
<path d="M-2.6552 33.304C-2.59805 36.9049 -3.39823 40.3628 -4.88428 43.5349C-2.82667 42.7633 -0.626174 42.3061 2.94606 41.9346C5.6038 41.6774 7.37563 30.532 2.94606 30.0747C0.745564 29.8461 -1.19773 29.2174 -3.22676 28.4458C-2.82667 30.1033 -2.68378 31.7608 -2.6552 33.304Z" fill="#528A4F"/>
<path d="M114 -8.76195V76.9717C114 76.9717 108.523 69.3518 99.7209 70.4949C92.314 70.4949 82.3663 73.2217 77.8224 64.7627C71.7353 53.3887 62.7312 62.4255 58.8732 54.3666C57.9873 52.5376 55.5296 44.2786 45.2415 44.2786C34.5534 44.2786 35.7537 37.5056 35.7537 36.4482C35.7537 34.7336 35.3822 32.0758 34.2676 30.4183C31.7242 26.7318 31.7242 22.8452 32.5529 21.1305C33.7818 18.5013 38.8884 14.6314 41.1746 13.9455C49.7479 11.4306 48.1473 3.65438 62.4934 3.51149C72.0257 1.9657 83.8767 -10.4648 91.8632 -8.50417L114 -8.79053V-8.76195Z" fill="#32264C"/>
<path d="M64.9035 76.9716H42.2412C42.2412 76.9716 41.7268 72.3706 41.8983 70.3416C42.4698 63.7972 45.9563 61.9397 46.8422 60.1393C47.471 58.8819 61.1026 58.9962 62.1886 60.6251C65.2464 65.1976 64.9035 73.2565 64.9035 76.9716Z" fill="#6EB3F2"/>
<path d="M62.731 42.9065C62.9024 43.7067 67.9036 64.8829 63.9312 63.8255C52.643 60.8534 44.8126 65.7117 42.555 63.997C40.9546 62.7681 41.3261 49.308 41.2976 48.3363C41.1547 43.2209 41.9263 33.8187 50.8426 34.8761C54.129 34.6761 61.2449 35.8192 62.731 42.9065Z" fill="#E54925"/>
<path d="M49.2422 29.7036L48.6992 36.0479C48.6992 37.7626 55.1007 38.3056 55.1578 36.448L54.7292 33.333L49.2422 29.7036Z" fill="#F27979"/>
<path d="M57.33 30.1897C57.3014 30.5326 57.3014 30.8755 57.2443 31.2185C57.1585 31.6757 56.9871 32.1044 56.7585 32.533C56.1583 33.619 54.8723 35.3337 53.6435 35.2479C50.7857 35.0193 49.0424 34.2191 48.7852 30.504C48.6138 27.7891 53.4434 22.4736 54.0436 24.1597C54.9866 26.7889 56.5584 26.0459 57.2729 27.6748C57.4157 28.0177 57.5586 28.4464 57.4157 29.3609C57.3872 29.6753 57.3586 29.9325 57.33 30.1897Z" fill="#F8B791"/>
<path d="M38.8689 31.5897C40.8693 29.9893 39.5261 28.3032 39.9262 26.5028C40.4406 24.0165 41.8695 24.931 43.7271 23.1306C43.8986 22.9591 44.07 22.7877 44.2415 22.559C49.3284 16.3576 55.4154 21.9589 55.4154 21.9589C55.4154 21.9589 53.7008 21.2445 54.1009 24.1594C54.5295 27.2458 50.5572 26.7314 49.8428 27.9317C49.5856 28.3318 49.5856 28.789 49.6713 29.2463C49.6999 29.3892 49.6999 29.532 49.757 29.6749C50.4429 32.7899 37.9829 32.3327 38.8689 31.5897Z" fill="#32264C"/>
<path d="M54.4148 31.7041C54.5291 31.7041 54.6434 31.6755 54.7577 31.6183C54.9292 31.5326 55.0149 31.3897 55.0149 31.2182C55.0149 30.9896 54.9578 30.7324 54.9006 30.4466C54.8149 30.1037 54.7291 29.7322 54.7577 29.3321C54.7577 29.2749 54.7005 29.2178 54.6434 29.2178C54.5862 29.2178 54.5291 29.2749 54.5291 29.3321C54.5291 29.7608 54.6148 30.1608 54.7005 30.5038C54.7577 30.7896 54.8149 31.0182 54.8149 31.2182C54.8149 31.304 54.7577 31.3897 54.6434 31.4468C54.4719 31.5326 54.2433 31.5326 54.0433 31.4183C53.9861 31.3897 53.929 31.4183 53.9004 31.4754C53.8718 31.5326 53.9004 31.5897 53.9575 31.6183C54.0718 31.6755 54.2433 31.7041 54.4148 31.7041Z" fill="#F27979"/>
<path d="M56.301 29.7039C56.7296 29.7039 57.1297 29.5324 57.1583 29.5324C57.2155 29.5038 57.244 29.4467 57.2155 29.3895C57.1869 29.3324 57.1297 29.3038 57.0726 29.3324C57.0726 29.3324 56.0724 29.761 55.5865 29.2181C55.558 29.1895 55.4722 29.1609 55.4436 29.2181C55.4151 29.2466 55.3865 29.3324 55.4436 29.3609C55.6723 29.6467 55.9866 29.7039 56.301 29.7039Z" fill="#012869"/>
<path d="M53.4151 32.876C53.4436 32.876 53.4436 32.876 53.4722 32.8474C54.5296 32.1901 55.0726 32.8188 55.1011 32.8188C55.1297 32.876 55.2155 32.876 55.244 32.8188C55.3012 32.7903 55.3012 32.7045 55.244 32.6759C55.244 32.6759 54.5582 31.9043 53.3579 32.6759C53.3007 32.7045 53.3007 32.7617 53.3293 32.8188C53.3579 32.8474 53.3865 32.876 53.4151 32.876Z" fill="#F27979"/>
<path d="M55.301 29.4752C55.2438 28.8179 54.758 26.9032 55.1581 26.8746C55.501 26.846 55.9583 28.2463 56.0154 28.7321C55.9583 28.2463 55.4439 26.103 56.0154 26.2173C56.4441 26.303 56.8156 28.7893 56.8442 29.1037C56.8442 28.9322 56.3869 26.5888 56.8156 26.7031C57.3014 26.846 57.5301 28.9894 57.5586 29.3037C57.5586 29.1037 57.1014 27.0746 57.6158 27.2461C57.9302 27.3604 58.3017 29.0465 58.3302 29.3609C58.6732 31.9614 57.9587 34.1619 57.4158 34.7621L55.4153 34.7049C55.0724 33.7619 55.4153 30.8469 55.301 29.4752Z" fill="#F8B791"/>
<path d="M57.4154 34.819L55.4149 34.7618C55.3864 34.7618 55.3292 34.7333 55.3292 34.7047C55.1292 34.1617 55.1577 32.8471 55.2149 31.6183C55.2435 30.7895 55.272 30.0179 55.2149 29.5035C55.2149 29.332 55.1577 29.0177 55.1006 28.7033C54.9291 27.7603 54.8434 27.103 55.0149 26.8744C55.072 26.8172 55.1292 26.7886 55.1863 26.7886C55.3864 26.7886 55.5578 27.0172 55.7007 27.3316C55.6436 26.7886 55.6436 26.36 55.815 26.1885C55.8722 26.1313 55.9579 26.1028 56.0722 26.1313C56.2723 26.1599 56.4437 26.5314 56.5581 26.9887C56.5866 26.8172 56.6152 26.7029 56.6724 26.6457C56.7295 26.5886 56.7867 26.5886 56.8438 26.6172C56.9867 26.6457 57.1582 26.7886 57.3297 27.3602C57.3582 27.303 57.3868 27.2459 57.4154 27.2173C57.4725 27.1601 57.5583 27.1601 57.644 27.1601C58.0727 27.303 58.4442 29.332 58.4442 29.3606C58.7871 31.9898 58.0727 34.1903 57.5011 34.8476C57.4725 34.819 57.444 34.819 57.4154 34.819ZM57.5297 27.303C57.444 27.3602 57.444 27.6174 57.4726 28.0746C57.5297 28.389 57.5869 28.7319 57.644 29.1892V29.2177C57.644 29.2463 57.644 29.2463 57.644 29.2749C57.644 29.3321 57.6154 29.3892 57.5583 29.3892C57.5011 29.3892 57.444 29.3606 57.444 29.3035V29.2463C57.444 29.1892 57.4154 29.132 57.4154 29.0463C57.3582 28.7033 57.3011 28.389 57.2725 28.1032C57.0725 26.9315 56.8438 26.7886 56.7867 26.76C56.7295 26.7886 56.6438 27.0458 56.8438 28.4461C56.8724 28.7033 56.901 28.9034 56.9296 29.0177C56.9296 29.0463 56.9296 29.0748 56.9296 29.0748C56.9296 29.132 56.901 29.1892 56.8438 29.1892C56.7867 29.1892 56.7295 29.1606 56.7295 29.1034C56.7295 29.0748 56.7295 29.0749 56.7295 29.0463C56.7295 29.0177 56.7295 28.9605 56.7009 28.8748C56.6724 28.7033 56.6438 28.5604 56.6438 28.4176C56.4723 27.4745 56.2151 26.3028 55.9865 26.2742C55.9579 26.2742 55.9293 26.2742 55.9293 26.2742C55.7293 26.4743 55.9579 27.7031 56.0437 28.2175C56.0722 28.4176 56.1008 28.5604 56.1294 28.6462C56.1294 28.7033 56.1008 28.7605 56.0437 28.7605C55.9865 28.7605 55.9293 28.7319 55.9293 28.6748C55.8436 28.046 55.4149 26.9315 55.1863 26.9315C55.0434 27.103 55.2149 28.0175 55.3006 28.589C55.3578 28.9034 55.4149 29.1892 55.4149 29.3892C55.4435 29.9322 55.4435 30.7038 55.4149 31.5325C55.3864 32.7042 55.3292 33.9331 55.5007 34.4761L57.3868 34.5332C57.8726 33.9331 58.5871 31.8755 58.2441 29.2463C58.187 28.7319 57.8155 27.2744 57.5869 27.2173C57.5583 27.303 57.5583 27.303 57.5297 27.303Z" fill="#F27979"/>
<path d="M49.5276 33.1045C49.2704 32.3615 49.3275 31.447 49.1561 31.0469C48.756 30.1324 48.5845 29.6752 48.6988 29.5037C49.2132 28.875 50.0134 31.3327 50.5564 31.2184C50.7564 31.0755 50.6421 30.2182 50.6135 29.7609C50.585 29.1036 50.2992 27.1318 50.6993 27.1318C51.0422 27.1032 51.2994 28.9893 51.3851 29.4752C51.328 28.9893 50.9565 26.3602 51.528 26.4459C51.9281 26.5316 52.071 29.1894 52.0996 29.5323C52.0996 29.3608 51.8996 26.8174 52.2996 26.9317C52.7569 27.046 52.814 29.218 52.8712 29.5323C52.8712 29.3323 52.5854 27.3032 53.0712 27.4747C53.3856 27.5604 53.7 29.4752 53.7285 29.7895C53.9 31.247 53.4428 34.7621 53.0427 35.1621L50.6993 35.8194C50.6993 35.8194 50.242 34.9335 50.0991 34.5049C49.8991 33.9047 49.6419 33.3903 49.5276 33.1045Z" fill="#F8B791"/>
<path d="M50.614 35.8479C50.5854 35.8194 50.1568 34.962 49.9853 34.5048C49.871 34.1904 49.7281 33.8761 49.6138 33.6189C49.5281 33.4188 49.4709 33.2759 49.4137 33.133C49.2708 32.7044 49.2137 32.2471 49.1851 31.847C49.1565 31.5327 49.128 31.2469 49.0422 31.0754C48.6136 30.0752 48.4421 29.6465 48.6136 29.4465C48.7279 29.3322 48.8422 29.3036 48.8993 29.3036C49.1851 29.3322 49.4709 29.7608 49.7852 30.2752C50.0139 30.6468 50.3282 31.1326 50.4997 31.1326C50.5854 30.9897 50.5568 30.4181 50.5283 30.1038C50.5283 29.9895 50.4997 29.8752 50.4997 29.7894C50.4997 29.6465 50.4711 29.4751 50.4711 29.275C50.3854 28.2462 50.3282 27.3889 50.5283 27.1317C50.5854 27.0745 50.6426 27.0459 50.6997 27.0459C50.8426 27.0459 50.9855 27.2174 51.0998 27.5889C51.0998 26.9602 51.157 26.5601 51.2999 26.4458C51.357 26.3887 51.4428 26.3601 51.5285 26.3887C51.7 26.4172 51.8429 26.703 51.9572 27.3889C51.9857 27.1603 52.0429 26.9888 52.1286 26.9031C52.1858 26.8745 52.2429 26.8459 52.3001 26.8745C52.5001 26.9316 52.643 27.1888 52.7288 27.6461C52.7573 27.5603 52.7859 27.5032 52.8431 27.446C52.9002 27.3889 52.986 27.3889 53.0717 27.4175C53.5004 27.5603 53.8147 29.818 53.8147 29.818C53.9862 31.2755 53.5289 34.8477 53.1003 35.2764C53.1003 35.2764 53.0717 35.3049 53.0431 35.3049L50.6997 35.9622H50.6712C50.6712 35.9051 50.614 35.8765 50.614 35.8479ZM53.6147 29.7894C53.529 29.1035 53.2146 27.6461 53.0145 27.5603C52.986 27.5603 52.986 27.5603 52.986 27.5603C52.9288 27.6175 52.8431 27.8175 52.8717 28.532C52.9002 28.732 52.9002 28.9607 52.9288 29.2179C52.9288 29.3036 52.9288 29.3608 52.9574 29.4179C52.9574 29.4465 52.9574 29.5036 52.9574 29.5036C52.9574 29.5608 52.9288 29.618 52.8717 29.618C52.8145 29.618 52.7574 29.5894 52.7574 29.5322C52.7574 29.5036 52.7574 29.4751 52.7574 29.4465C52.7574 29.4465 52.7574 29.4179 52.7574 29.3893C52.7288 29.075 52.7002 28.7892 52.7002 28.5606C52.6145 27.5889 52.4716 27.0745 52.3001 27.0174C52.1858 27.1031 52.1001 27.989 52.2144 29.5036C52.2144 29.5608 52.1858 29.618 52.1286 29.618C52.0715 29.618 52.0143 29.5894 52.0143 29.5322C52.0143 29.4751 51.9857 29.3608 51.9857 29.2179C51.8143 26.9888 51.6142 26.5887 51.5285 26.5601C51.4999 26.5601 51.4999 26.5601 51.4999 26.5601C51.3856 26.6744 51.2427 27.1603 51.5285 29.3608V29.4465C51.5285 29.5036 51.4999 29.5608 51.4428 29.5608C51.3856 29.5608 51.3285 29.5322 51.3285 29.4751C51.157 28.1319 50.8998 27.2746 50.7569 27.246C50.5854 27.446 50.6712 28.6177 50.7283 29.2464C50.7569 29.4465 50.7569 29.6465 50.7569 29.7608C50.7569 29.8466 50.7855 29.9609 50.7855 30.0752C50.8426 30.7039 50.8712 31.1612 50.6712 31.304C50.6712 31.304 50.6426 31.3326 50.614 31.3326C50.2997 31.3898 49.9853 30.9325 49.6424 30.3896C49.4137 30.018 49.0994 29.5322 48.9279 29.5322C48.8993 29.5322 48.8708 29.5322 48.8136 29.5894C48.7279 29.7037 48.9851 30.2752 49.2708 31.0183C49.3566 31.2183 49.3852 31.5041 49.4137 31.847C49.4423 32.2471 49.4995 32.6758 49.6424 33.0759C49.6709 33.1902 49.7567 33.3617 49.8424 33.5331C49.9567 33.7903 50.0996 34.1047 50.2139 34.419C50.3282 34.762 50.6712 35.4478 50.7855 35.6479L53.0145 35.0192C53.3289 34.6191 53.7862 31.2183 53.6147 29.7894Z" fill="#F27979"/>
<path d="M53.9293 34.6478C54.1293 36.4196 56.6728 46.3933 52.4718 51.4516C51.8145 52.2232 49.1854 54.4809 47.8708 54.6809C41.8409 55.5668 33.639 47.9651 42.6125 35.6195C42.6125 35.6195 45.8132 42.2781 47.7279 41.7065C49.4997 41.1921 48.4709 41.3065 49.8141 34.6478C49.9856 33.8762 53.8436 33.9334 53.9293 34.6478Z" fill="#E54925"/>
<path d="M54.8148 34.7625C54.5862 36.9059 49.8137 54.1669 58.9015 55.1957C71.4471 56.596 67.1033 35.8199 58.6442 34.8197C58.6157 35.2483 59.3873 36.763 57.7012 37.2774C57.8155 37.3917 60.3303 40.3638 59.5587 37.1059C59.3873 36.42 58.9872 35.8199 58.5585 34.5625C58.3299 33.7909 54.9005 34.0481 54.8148 34.7625Z" fill="#E54925"/>
<path d="M59.7016 37.3336C60.3875 40.1914 62.1021 42.592 62.5308 45.5069C62.5594 45.6212 62.3593 45.6498 62.3593 45.5355C61.9593 42.6205 60.216 40.2486 59.5301 37.3908C59.5016 37.2765 59.7016 37.3336 59.7016 37.3336Z" fill="#002869"/>
<path d="M49.8131 38.534C49.3559 40.0772 48.6414 41.4775 47.8698 42.8779C47.2125 44.0781 46.3838 45.307 46.098 46.6501C46.0694 46.7644 45.898 46.7073 45.9265 46.593C46.1837 45.3927 46.841 44.3353 47.4126 43.3065C48.2985 41.7633 49.1273 40.1915 49.6417 38.4769C49.6702 38.3625 49.8417 38.4197 49.8131 38.534Z" fill="#002869"/>
<path d="M54.729 40.8204C54.7004 43.8211 54.7004 46.7932 53.5859 49.4795C52.5571 51.9658 50.2423 54.2234 47.4702 54.5949C45.7841 54.8236 44.4124 54.6521 42.9263 53.5376C42.8406 53.4804 42.8692 53.2804 42.9835 53.3661C45.9556 55.6809 50.528 54.252 52.6142 50.8512C54.4432 47.8792 54.5575 44.3641 54.5004 40.849C54.5289 40.6489 54.729 40.5918 54.729 40.8204Z" fill="#002869"/>
<path d="M38.8686 31.5893C40.8691 29.9889 39.5259 28.3028 39.926 26.5024C40.4404 24.0162 41.8693 24.9306 43.7269 23.1302C43.8983 22.9588 44.0698 22.7873 44.2413 22.5587C49.3281 16.3573 49.5853 28.7887 49.6425 29.2745C49.671 29.4174 49.6711 29.5603 49.7282 29.7032C50.4427 32.7896 48.6137 34.247 49.4996 37.162C50.8999 41.763 50.0997 44.7065 47.2705 44.7923C44.4413 44.9066 40.1546 40.1055 39.0115 42.9061C39.0115 42.9061 37.9827 32.3323 38.8686 31.5893Z" fill="#32264C"/>
</g>
</svg>
