<svg width="113" height="70" viewBox="0 0 113 70" fill="none" xmlns="http://www.w3.org/2000/svg">
<mask id="mask0" style="mask-type:alpha" maskUnits="userSpaceOnUse" x="-70" y="-42" width="156" height="157">
<path d="M-18.0645 95.0894C-4.71261 103.07 8.46639 113.024 22.269 114.02C36.0717 115.017 50.4979 107.057 61.8557 96.4764C73.2613 85.978 81.5985 72.8595 84.3436 59.0309C87.2189 45.2367 82.1853 36.4537 78.7144 22.1683C75.1955 7.80072 71.0049 -6.39611 61.587 -14.2434C52.1211 -22.1729 36.951 -30.284 22.2932 -33.3169C7.68324 -36.2676 -12.6272 -43.2232 -25.9392 -40.5393C-39.3334 -37.8075 -45.3824 -18.9395 -55.0142 -6.71962C-64.5981 5.58253 -69.3176 14.6464 -69.8566 29.6142C-70.3957 44.5821 -64.4854 59.6505 -54.7612 70.2943C-45.0369 80.938 -31.4643 87.0269 -18.0645 95.0894Z" fill="#F0ECE4"/>
</mask>
<g mask="url(#mask0)">
<rect x="-5" width="98" height="76" fill="#F0ECE4"/>
<path d="M1.83031 83.4474L71.2913 89.0134C79.988 84.764 72.6466 67.1608 76.3926 63.5709C85.4469 54.8929 67.5542 44.2954 68.0531 36.8613C68.9001 24.2071 59.7443 25.7335 56.516 20.702C53.4665 15.9438 50.3934 17.7685 44.1317 9.97609C33.6955 6.63694 33.944 16.0757 27.2803 20.702C13.8588 30.0207 23.8073 34.3455 15.0918 41.4405C3.86328 50.5895 15.7506 55.9603 7.60925 63.6865C4.02328 67.088 2.45149 81.073 1.83031 83.4474Z" fill="#32264C"/>
<path d="M28.1293 43.7899C27.4185 47.1284 25.1784 63.9072 30.9123 66.0534C44.0861 71.3951 35.4165 64.9531 48.306 67.8624C53.0086 65.7787 61.7676 61.879 58.8812 43.7899C56.7939 30.71 45.5613 35.3362 45.9404 30.71C33.9987 30.6623 30.5934 32.2482 28.1293 43.7899Z" fill="#528A4F"/>
<path d="M24.0944 96.5276H55.8651C59.625 80.0598 54.3191 70.0747 54.3191 70.0747C53.3142 68.0141 29.6456 67.0001 28.9128 70.1394C28.2952 72.7825 24.0944 82.9659 24.0944 96.5276Z" fill="#FFA191"/>
<path d="M29.1854 70.6899C26.0426 67.5846 27.716 51.4992 27.716 51.4992C28.2367 46.4158 53.7572 35.4528 54.1506 35.8586C62.6388 40.3113 61.6649 66.1931 54.5681 70.6899C53.0872 72.452 29.9721 72.3879 29.1854 70.6899Z" fill="#528A4F"/>
<path d="M37.2011 25.3831C37.5295 23.6592 38.925 21.4838 38.3915 21.2375C37.7758 20.9297 36.7702 23.5361 36.4623 24.1517C36.7702 23.5155 38.2273 20.5808 37.6116 20.4166C36.9754 20.2319 35.4978 23.7618 35.2925 24.1928C35.3746 23.9876 37.4064 20.5808 36.606 20.2935C35.9493 20.0472 34.4306 23.454 34.2254 23.8849C34.328 23.6181 35.8467 20.7039 35.0463 20.6013C34.4101 20.5192 33.2608 23.5361 33.0351 23.9465C32.2757 25.2189 32.0705 26.7376 31.3522 29.5081C31.2291 30.0007 30.3877 30.8421 30.3877 30.8421L33.4866 32.9765C33.4866 32.9765 33.9791 32.5044 34.8616 31.5604C37.5295 28.7488 36.647 28.2152 37.2011 25.3831Z" fill="#FDB88E"/>
<path d="M33.6086 33.0995C33.6086 33.0995 34.1011 32.6069 34.9836 31.6834C36.9743 29.5901 37.0358 28.7282 37.1385 27.3121C37.1795 26.799 37.2205 26.2039 37.3642 25.4445C37.5079 24.7057 37.8567 23.8848 38.1441 23.146C38.5956 22.0378 38.9034 21.3195 38.4724 21.0937C38.3698 21.0527 38.2467 21.0322 38.1441 21.0732C38.0414 21.1143 37.9594 21.1758 37.8567 21.2579C37.9594 20.868 37.9594 20.6012 37.8978 20.437C37.8567 20.3344 37.7747 20.2728 37.672 20.2318C37.4668 20.1702 37.2411 20.2934 36.9538 20.6422C36.9538 20.5396 36.9332 20.437 36.9127 20.3755C36.8717 20.2523 36.769 20.1497 36.6664 20.1087C36.4202 20.0266 36.0918 20.1292 35.4351 21.1553C35.4556 20.9296 35.4351 20.7449 35.3735 20.6217C35.3119 20.4986 35.2093 20.437 35.0657 20.4165C34.5526 20.3549 33.9985 21.3605 33.1571 23.2281C33.0339 23.5154 32.9108 23.7617 32.8697 23.8438C32.2746 24.8289 32.0078 25.9576 31.6179 27.6405C31.4947 28.1741 31.3511 28.7692 31.1869 29.4465C31.0843 29.8159 30.4891 30.4931 30.2634 30.7189C30.2223 30.7599 30.2018 30.801 30.2223 30.8625C30.2223 30.9036 30.2634 30.9651 30.3044 30.9857L33.4033 33.12C33.4239 33.1405 33.4649 33.1405 33.5059 33.1405C33.5265 33.1405 33.5675 33.1405 33.6086 33.0995ZM31.5153 29.5491C31.6794 28.8718 31.8231 28.2767 31.9667 27.7431C32.3567 26.0807 32.6235 24.993 33.1981 24.049C33.2597 23.9464 33.3623 23.7206 33.5059 23.3923C33.7317 22.8997 34.0395 22.202 34.3474 21.6479C34.8399 20.7654 35.0451 20.7859 35.0451 20.7859C35.0657 20.7859 35.0862 20.8064 35.0862 20.827C35.1683 20.9706 35.1683 21.5247 34.2448 23.4744C34.2448 23.4949 34.2242 23.4949 34.2242 23.5154C34.2037 23.5565 34.1832 23.577 34.1832 23.618C34.1422 23.7206 34.1011 23.8027 34.0806 23.8233C34.0395 23.9053 34.0806 24.008 34.1627 24.049C34.2448 24.09 34.3474 24.049 34.3884 23.9669C34.4089 23.9259 34.4295 23.8643 34.4705 23.8027C34.491 23.7617 34.491 23.7412 34.5116 23.7001C34.5321 23.6386 34.5731 23.577 34.5936 23.5154C34.8194 23.0639 35.1683 22.3456 35.5172 21.7299C36.2765 20.396 36.5433 20.4781 36.5433 20.4781C36.5638 20.4781 36.5843 20.4986 36.6049 20.5396C36.6459 20.6628 36.6459 20.9501 36.4407 21.5042C36.1123 22.0788 35.7429 22.8382 35.2914 23.8438C35.2298 23.9669 35.1888 24.049 35.1683 24.1106C35.1683 24.1311 35.1478 24.1311 35.1478 24.1311C35.1067 24.2132 35.1478 24.3158 35.2299 24.3568C35.3119 24.3979 35.4146 24.3568 35.4556 24.2748C35.4556 24.2748 35.4556 24.2542 35.4761 24.2542C35.4966 24.2132 35.5377 24.1311 35.5993 24.0285C36.0302 23.2486 36.4817 22.3661 36.7485 21.6479C37.3642 20.5807 37.59 20.6012 37.59 20.6012C37.6105 20.6217 37.7747 20.868 37.0153 22.6124C36.8511 22.9408 36.687 23.2897 36.5228 23.6386C36.4407 23.8027 36.3791 23.9464 36.3381 24.049L36.3175 24.0901C36.2765 24.1721 36.3175 24.2748 36.3996 24.3158C36.4817 24.3568 36.5843 24.3158 36.6254 24.2337C36.6254 24.2132 36.6459 24.2132 36.6459 24.1927L36.6664 24.1516C36.9332 23.618 37.1385 23.146 37.3232 22.7356C37.631 22.1199 38.0004 21.4837 38.2672 21.4016C38.3082 21.3811 38.3288 21.4016 38.3288 21.4016C38.3288 21.4016 38.3903 21.4632 38.2672 21.8736C38.1851 22.1814 38.0004 22.5919 37.8362 23.0024C37.5284 23.7412 37.1795 24.5826 37.0358 25.3625C36.8922 26.1423 36.8306 26.7375 36.8101 27.2711C36.7075 28.6256 36.6459 29.4465 34.7578 31.4371C34.1011 32.1144 33.6701 32.5659 33.4854 32.7506L30.6533 30.8215C30.8996 30.5342 31.3921 29.9595 31.5153 29.5491Z" fill="#EE715D"/>
<path d="M46.1481 22.7769L47.6257 32.2994C47.8925 34.7621 39.3551 35.2136 38.9651 32.5661V28.7695L46.1481 22.7769Z" fill="#C78E85"/>
<path d="M47.8926 23.3532C47.79 28.3607 43.9112 31.5212 40.2582 31.316C37.7134 31.1723 36.1742 28.5865 35.5996 27.0883V27.0678C35.3123 26.4111 35.1481 25.6928 35.107 24.9745C35.0865 24.6666 35.0865 24.3588 35.107 24.0715C35.1276 23.8457 35.1481 23.62 35.1481 23.3737C35.1686 22.9838 35.1481 22.5733 35.1276 22.1218C35.0865 20.6647 35.3533 20.0285 35.6406 19.5155C37.0362 17.0938 39.3142 18.5509 41.2433 14.6311C42.4952 12.1068 47.9952 19.105 47.8926 23.3532Z" fill="#FDB98D"/>
<path d="M42.7832 24.9945C42.5985 26.1437 43.6862 27.1083 44.8765 26.6568C45.2254 26.5131 45.5332 26.2463 45.6769 25.8975C46.1694 24.7071 45.2049 23.5784 44.0351 23.7631C43.3784 23.8452 42.8858 24.3583 42.7832 24.9945Z" fill="#ED715D"/>
<path d="M36.7691 25.6305C36.7485 26.3488 36.256 26.9234 35.5993 27.0876C35.312 26.4309 35.1478 25.7126 35.1067 24.9943C35.0862 24.6865 35.0862 24.3786 35.1067 24.0913C35.1683 24.0913 35.2299 24.0913 35.2914 24.0913C36.1329 24.0913 36.7896 24.7891 36.7691 25.6305Z" fill="#ED715D"/>
<path d="M37.2822 23.2072C36.0508 23.3303 35.5172 22.6736 35.4762 22.6531C35.4146 22.571 35.4351 22.4684 35.4967 22.4068C35.5788 22.3452 35.6814 22.3658 35.743 22.4273C35.7635 22.4684 36.4407 23.2277 38.021 22.6941C38.1031 22.6736 38.2057 22.7146 38.2262 22.7967C38.2467 22.8788 38.2057 22.9814 38.1236 23.002C37.8158 23.1251 37.5284 23.1867 37.2822 23.2072Z" fill="#002869"/>
<path d="M42.3929 23.3507C41.6336 23.4328 41.0795 23.166 41.0385 23.1455C40.9564 23.1045 40.9153 23.0018 40.9564 22.9198C40.9974 22.8377 41.1 22.7966 41.1821 22.8377C41.2437 22.8582 42.5161 23.4533 43.7679 22.3862C43.8295 22.3246 43.9527 22.3246 44.0142 22.4067C44.0758 22.4683 44.0758 22.5914 43.9937 22.653C43.4396 23.125 42.8855 23.3097 42.3929 23.3507Z" fill="#002869"/>
<path d="M39.5814 26.6141C39.3762 26.6346 39.1915 26.6141 39.0068 26.532C38.699 26.4089 38.4937 26.1831 38.4322 25.8753C38.3501 25.4854 38.5963 25.1775 38.8221 24.8697C38.9247 24.726 39.0478 24.5619 39.1299 24.3977C39.3762 23.8436 39.3967 22.9406 39.3967 22.92C39.3967 22.8174 39.4788 22.7559 39.5609 22.7559C39.6635 22.7559 39.7251 22.8379 39.7251 22.92C39.7251 22.9611 39.7046 23.9257 39.4173 24.5413C39.3352 24.726 39.212 24.9107 39.0684 25.0749C38.8631 25.3417 38.699 25.5675 38.74 25.7932C38.781 26.0395 38.9863 26.1421 39.1094 26.2037C39.3967 26.3063 39.7456 26.2652 39.9508 26.101C40.0329 26.0395 40.1355 26.06 40.1971 26.1421C40.2587 26.2242 40.2382 26.3268 40.1561 26.3884C39.9919 26.5115 39.7867 26.5936 39.5814 26.6141Z" fill="#ED715D"/>
<path d="M43.0182 10.8119C44.688 8.44605 51.2213 9.73116 56.5367 21.2033C59.2047 26.9496 47.5978 31.5665 45.7918 22.8649C44.581 16.9749 38.1779 17.8779 39.4503 14.4712C41.3179 9.58678 43.0182 10.8119 43.0182 10.8119Z" fill="#32264C"/>
<path d="M40.9147 28.0516C40.9968 28.031 41.0583 27.9695 41.0789 27.8874C41.0994 27.7848 41.0173 27.6822 40.9147 27.6616C40.258 27.559 39.4781 27.5385 38.7188 27.6001C38.6161 27.6001 38.5341 27.7027 38.5341 27.8053C38.5341 27.9079 38.6367 27.99 38.7393 27.99C39.4781 27.9284 40.2374 27.9489 40.8531 28.0516C40.8736 28.0721 40.8942 28.0721 40.9147 28.0516Z" fill="#ED715D"/>
<path d="M40.8536 31.5216C39.9096 31.5216 39.2939 31.3164 39.2529 31.3164C39.1708 31.2958 39.1092 31.1932 39.1503 31.0906C39.1708 31.0085 39.2734 30.947 39.376 30.988C39.3965 30.988 40.3816 31.3164 41.7361 31.1317C43.5421 30.8854 45.1018 29.8798 46.3742 28.1764C46.4358 28.0943 46.5384 28.0943 46.6205 28.1354C46.7026 28.1969 46.7026 28.2995 46.6615 28.3816C44.9992 30.6186 43.0906 31.2958 41.7771 31.46C41.4283 31.5011 41.1204 31.5216 40.8536 31.5216Z" fill="#EE715D"/>
<path d="M51.4229 30.6175L47.503 31.5C47.503 31.5 46.6 29.4683 46.2922 28.0317C46.0459 26.9029 46.128 25.5895 45.7791 24.707C45.4302 23.7835 43.9321 21.3002 44.5478 20.9514C44.753 20.8282 44.9582 20.9514 45.0814 21.1155C44.8351 20.623 44.712 20.0894 45.0814 19.9457C45.3071 19.8637 45.4918 19.9868 45.697 20.2331C45.5329 19.8431 45.5329 19.5148 45.8407 19.3916C46.1075 19.2685 46.5385 19.4737 46.7642 19.9252C46.6206 19.6995 46.8463 19.5148 47.0515 19.4737C48.0571 19.289 49.6784 22.6137 49.9247 23.0241C50.8072 24.5633 51.074 25.5279 51.4229 30.6175Z" fill="#FDB88E"/>
<path d="M47.5435 31.6629L51.4633 30.7804C51.5454 30.7599 51.6069 30.6778 51.6069 30.5957C51.2786 25.5882 51.0118 24.521 50.0883 22.9202C50.0677 22.8792 50.0062 22.7766 49.9446 22.674C49.0621 21.0116 47.9334 19.1235 47.0304 19.2877C46.9278 19.3082 46.7841 19.3698 46.6815 19.4724C46.4147 19.2056 46.0658 19.0825 45.7991 19.2056C45.6759 19.2672 45.4502 19.4109 45.4296 19.7597C45.3065 19.7187 45.1629 19.7187 45.0397 19.7597C44.8961 19.8213 44.7934 19.9239 44.7319 20.0471C44.6703 20.2112 44.6703 20.437 44.7524 20.7038C44.6498 20.7038 44.5677 20.7243 44.4856 20.7654C43.9315 21.0937 44.424 22.2019 45.1834 23.7617C45.3681 24.1516 45.5528 24.5005 45.6349 24.7262C45.8196 25.2188 45.8811 25.855 45.9427 26.5117C45.9838 27.0247 46.0248 27.5378 46.1479 28.0304C46.4558 29.4875 47.3382 31.4576 47.3793 31.5397C47.3998 31.6013 47.4614 31.6423 47.5435 31.6423C47.5024 31.6834 47.5229 31.6834 47.5435 31.6629ZM44.9371 21.1963C44.9987 21.2579 45.0808 21.2784 45.1629 21.2374C45.2449 21.1963 45.2655 21.0937 45.2244 21.0116C45.0397 20.6422 44.9576 20.3344 45.0192 20.1702C45.0397 20.1292 45.0602 20.0881 45.1218 20.0676C45.1834 20.0471 45.3065 20.006 45.5323 20.2933C45.5938 20.3549 45.6759 20.3754 45.758 20.3344C45.8401 20.2933 45.8606 20.1907 45.8401 20.1086C45.6349 19.5956 45.8196 19.5135 45.9017 19.4929C46.0658 19.4109 46.3942 19.575 46.5789 19.9034C46.5994 19.9239 46.5994 19.9444 46.62 19.965C46.661 20.0471 46.7636 20.0676 46.8457 20.0265C46.9278 19.9855 46.9483 19.8829 46.9073 19.8008C46.9073 19.7803 46.8867 19.7597 46.8867 19.7597C46.8867 19.7392 46.8867 19.7187 46.8867 19.7187C46.9073 19.6777 46.9894 19.6161 47.0714 19.5956C47.4203 19.534 48.1386 20.0265 49.6162 22.8176C49.6778 22.9407 49.7189 23.0228 49.7599 23.0844C50.6424 24.6031 50.9092 25.5471 51.2375 30.452L47.605 31.2729C47.3998 30.8009 46.7226 29.1796 46.4558 27.9483C46.3532 27.4762 46.3121 26.9632 46.2711 26.4706C46.2095 25.7729 46.1479 25.1161 45.9427 24.5826C45.8401 24.3363 45.6759 23.9874 45.4707 23.577C45.2039 23.0228 44.8961 22.4072 44.7319 21.8941C44.4856 21.1553 44.6087 21.0321 44.6498 21.0321C44.6703 21.0116 44.7114 21.0116 44.7319 21.0116C44.814 21.0527 44.8961 21.1348 44.9371 21.1963Z" fill="#EE715D"/>
<path d="M45.082 21.0942C45.6771 21.9972 46.1902 23.1055 46.498 23.8648L45.082 21.0942Z" fill="#FDB88E"/>
<path d="M46.4973 24.0493C46.4358 24.0493 46.3537 24.0083 46.3332 23.9467C46.0458 23.2079 45.5328 22.0996 44.9376 21.1966C44.876 21.1146 44.9171 21.0119 44.9787 20.9504C45.0607 20.8888 45.1634 20.9299 45.2249 20.9914C45.8201 21.9149 46.3537 23.0437 46.6615 23.803C46.7026 23.8851 46.6615 23.9877 46.5589 24.0288C46.5384 24.0493 46.5179 24.0493 46.4973 24.0493Z" fill="#EE715D"/>
<path d="M45.6759 20.2319C46.3942 21.2581 47.0099 22.2842 47.4819 23.3103L45.6759 20.2319Z" fill="#FDB88E"/>
<path d="M47.5028 23.4758C47.4413 23.4758 47.3797 23.4347 47.3386 23.3731C46.8871 22.3881 46.2715 21.3619 45.5532 20.3153C45.4916 20.2332 45.5121 20.1306 45.5942 20.069C45.6763 20.0074 45.7789 20.028 45.8405 20.11C46.5793 21.1567 47.195 22.2034 47.667 23.2295C47.708 23.3116 47.667 23.4142 47.5849 23.4552C47.5439 23.4758 47.5233 23.4758 47.5028 23.4758Z" fill="#EE715D"/>
<path d="M46.7433 19.8833C47.4616 20.8889 48.1593 21.9971 48.6108 22.9822L46.7433 19.8833Z" fill="#FDB88E"/>
<path d="M48.6117 23.1462C48.5502 23.1462 48.4886 23.1051 48.4475 23.0436C48.0166 22.1406 47.3598 21.0529 46.58 19.9652C46.5184 19.8831 46.5389 19.7805 46.621 19.7189C46.7031 19.6573 46.8057 19.6779 46.8673 19.7599C47.6472 20.8477 48.3244 21.9764 48.7554 22.8794C48.7964 22.9615 48.7554 23.0641 48.6733 23.1051C48.6733 23.1462 48.6322 23.1462 48.6117 23.1462Z" fill="#EE715D"/>
<path d="M23.6767 58.4005C27.6746 65.7301 30.5702 63.6882 30.5702 63.6882C30.5702 63.6882 31.8894 63.6882 31.5724 62.4359C29.6002 54.6447 33.5792 39.884 35.2261 32.8719C35.0228 31.4597 31.6477 28.2945 30.5702 29.4145C21.5894 41.4243 20.3371 52.278 23.6767 58.4005Z" fill="#528A4F"/>
<path d="M52.5027 30.558C51.8805 29.1123 47.0272 30.8471 46.8612 32.2928C46.4049 36.1093 43.6879 56.3571 52.5027 66.3321L56.6553 57.4266C55.8204 42.955 55.7176 37.8441 52.5027 30.558Z" fill="#528A4F"/>
<path d="M34.0734 34.2635C31.5107 42.2232 31.7318 48.5947 31.9001 53.689C32.0391 57.3785 32.1319 60.287 31.1819 62.698C31.091 62.9385 30.9972 63.1587 30.8831 63.3817C30.8012 63.5381 30.5635 63.4675 30.6251 63.314C30.7392 63.0909 30.8504 62.8476 30.9442 62.6274C31.8592 60.2627 31.7692 57.3745 31.6358 53.7257C31.4619 48.5907 31.2379 42.1988 33.8154 34.1958C33.8476 34.1291 33.9057 34.1003 33.9695 34.1122C34.0537 34.1213 34.0853 34.1997 34.0734 34.2635Z" fill="#002869"/>
<path d="M50.7033 62.6756C49.6977 61.4442 48.8768 59.8435 48.1996 57.9143C47.1939 54.9796 46.5577 51.2445 46.332 46.7911C45.9831 40.1007 46.6604 33.8002 46.8245 32.3842C46.8451 32.1995 46.8656 32.0969 46.8656 32.0969C46.8656 32.0353 46.9477 31.9737 47.0092 31.9943C47.0708 31.9943 47.1324 32.0764 47.1119 32.1379C47.1119 32.1379 47.0913 32.2611 47.0708 32.4458C46.9066 33.9029 46.2294 40.1623 46.5783 46.7911C46.804 51.2034 47.4402 54.9386 48.4458 57.8528C49.1026 59.7614 49.9235 61.3211 50.888 62.5319C51.0317 62.6551 50.7854 62.7782 50.7033 62.6756Z" fill="#002869"/>
<g opacity="0.62">
<path d="M-1.50547 4.44314C4.47397 -0.185183 9.08418 4.77145 9.80247 4.58674C10.5413 4.42256 11.3211 4.36099 12.1421 4.44308C15.241 4.77145 17.56 7.00841 17.2932 9.43008V9.4506C17.1906 10.3536 17.7447 11.2155 18.6888 11.5644C20.0227 12.0365 21.4798 12.96 21.2951 14.6223C21.1104 16.2846 19.0376 17.4544 16.6775 17.1876C16.616 17.1876 16.5339 17.1671 16.4723 17.1671C15.1178 16.9824 13.7223 17.2082 12.6346 17.947C11.5469 18.6653 10.0898 19.0347 8.53007 18.8705C7.52446 18.7679 6.60095 18.4395 5.8211 17.988C4.24086 17.044 2.31173 16.654 0.505737 17.085C-0.130463 17.2287 -0.807705 17.2902 -1.50547 17.2082C-4.00923 16.9414 -5.54843 15.4843 -5.99993 13.8219C-2.40847 9.94315 -6.88239 6.49541 -1.50547 4.44314Z" fill="white"/>
</g>
<g opacity="0.62">
<path d="M108.977 29.2084C104.177 35.0508 98.5798 31.2437 97.9205 31.5835C97.2368 31.9079 96.4901 32.1414 95.6715 32.244C92.5772 32.6131 89.8187 30.9479 89.5402 28.5276L89.5356 28.5076C89.4348 27.6044 88.7029 26.8873 87.7049 26.7571C86.2993 26.5936 84.6733 26.0173 84.4837 24.3555C84.294 22.6937 86.0547 21.0922 88.415 20.8274C88.475 20.8137 88.5596 20.8155 88.6197 20.8018C89.9813 20.6806 91.2917 20.1501 92.1878 19.1879C93.0885 18.2456 94.427 17.5614 95.9841 17.3746C96.9874 17.2509 97.9608 17.3657 98.8215 17.6324C100.572 18.2013 102.54 18.1524 104.205 17.3306C104.793 17.049 105.439 16.8383 106.138 16.7632C108.638 16.4664 110.463 17.5447 111.273 19.0649C108.634 23.6454 113.763 26.0117 108.977 29.2084Z" fill="white"/>
</g>
<g opacity="0.62">
<path d="M55.928 -2.1895C56.6668 -2.16898 57.2825 -2.66152 57.344 -3.31825V-3.33877C57.5903 -5.61678 59.8683 -7.23807 62.4542 -6.97128C62.7825 -6.93023 63.1109 -6.86866 63.3982 -6.78657C64.7732 -6.37612 66.2509 -6.31455 67.6464 -6.64291C67.8106 -6.68396 72.0894 -7.5566 74.3368 -3.79957C76.1246 -2.82552 77.5607 -4.52114 79.8815 -0.459985C82.6647 4.41024 76.4028 5.93746 75.4287 5.93746C75.4287 5.93746 74.6378 5.9785 74.3368 5.93746C72.9823 5.75276 71.5868 5.9785 70.4991 6.71731C69.4114 7.43561 67.9543 7.80501 66.3945 7.64083C65.3889 7.53822 64.4654 7.20986 63.6855 6.75836C62.1053 5.81432 60.1762 5.42439 58.3702 5.85537C57.734 5.99902 57.0567 6.06059 56.359 5.9785C53.6294 5.69119 52.0287 3.96729 51.7619 2.12025C51.3514 -0.609261 54.3888 -2.23055 55.928 -2.1895Z" fill="white"/>
</g>
<g opacity="0.62">
<path d="M50.4493 34.1843C50.6214 34.1626 50.772 34.141 50.9226 34.141C52.149 34.0977 53.3538 33.6435 54.1929 32.7999C55.0105 31.9563 56.2153 31.3507 57.6138 31.1776C58.5174 31.0695 59.3995 31.1344 60.1741 31.3723C61.5726 31.8049 63.1001 31.9131 64.5631 31.567C64.7137 31.5237 64.8859 31.5021 65.0365 31.4805C66.8007 31.2425 68.4574 32.0212 69.361 33.3407C69.7483 33.9031 70.2646 34.3357 70.8455 34.7034C72.0288 35.4388 72.8464 36.5852 73.04 37.9479C73.3843 40.6085 71.1252 43.0959 68.0055 43.4853C67.1665 43.5934 66.3489 43.5502 65.6174 43.3555C63.8962 42.9229 62.0459 43.1176 60.4538 43.9395C59.7223 44.3072 58.8832 44.5884 57.9795 44.6966C56.495 44.8913 55.075 44.6533 53.9347 44.0909C52.6008 43.442 51.1593 43.0094 49.6532 42.858C47.846 42.6633 45.8451 40.868 45.8021 38.6185C45.759 36.2175 47.9966 34.5087 50.4493 34.1843Z" fill="white"/>
</g>
</g>
</svg>
