<svg width="113" height="70" viewBox="0 0 113 70" fill="none" xmlns="http://www.w3.org/2000/svg">
<mask id="mask0" style="mask-type:alpha" maskUnits="userSpaceOnUse" x="-70" y="-42" width="156" height="157">
<path d="M-18.0645 95.0894C-4.71261 103.07 8.46639 113.024 22.269 114.02C36.0717 115.017 50.4979 107.057 61.8557 96.4764C73.2613 85.978 81.5985 72.8595 84.3436 59.0309C87.2189 45.2367 82.1853 36.4537 78.7144 22.1683C75.1955 7.80072 71.0049 -6.39611 61.587 -14.2434C52.1211 -22.1729 36.951 -30.284 22.2932 -33.3169C7.68324 -36.2676 -12.6272 -43.2232 -25.9392 -40.5393C-39.3334 -37.8075 -45.3824 -18.9395 -55.0142 -6.71962C-64.5981 5.58253 -69.3176 14.6464 -69.8566 29.6142C-70.3957 44.5821 -64.4854 59.6505 -54.7612 70.2943C-45.0369 80.938 -31.4643 87.0269 -18.0645 95.0894Z" fill="#F0ECE4"/>
</mask>
<g mask="url(#mask0)">
<rect x="-9" y="-31" width="97" height="105" fill="#F0ECE4"/>
<path d="M70.7625 -2.31653C67.8557 2.00903 70.8356 7.27651 59.8486 14.1352C54.739 17.3176 57.5634 23.0149 50.1869 25.4658C49.7848 25.5938 39.1451 25.2555 39.1359 25.2646C39.0994 25.2829 39.0628 25.292 39.0263 25.3103C37.8471 25.7584 37.8928 27.4594 37.3718 27.6057C29.0995 29.9377 27.2623 24.9079 25.1142 20.7744C21.4123 13.6322 13.0852 14.8485 11.3942 6.20655C10.3796 1.02138 10.0048 -1.79527 5.07802 -5.53554C0.535136 -8.98319 -0.461192 -13.4916 -1.00049 -16.8936H81C81 -7.64802 73.8794 -6.95301 70.7625 -2.31653Z" fill="#32264C"/>
<path d="M36.9239 62.4841C29.5017 62.5207 9.53857 54.1988 9.53857 54.1988C11.321 49.3154 19.2733 51.0255 27.3811 51.4827C34.6296 51.8943 41.1103 54.6103 41.1103 54.6103C42.134 55.0676 37.582 62.2829 36.9239 62.4841Z" fill="#5598D6"/>
<path d="M36.1195 62.759C43.5051 63.4998 68.8795 56.2478 68.8795 56.2478C67.8375 53.0654 61.5121 52.5258 54.0168 51.968C47.198 51.465 39.0171 51.4102 39.0171 51.4102C37.9477 51.776 35.4888 62.4938 36.1195 62.759Z" fill="#5598D6"/>
<path d="M49.7119 53.6869C49.7119 53.6869 48.4139 47.7427 46.1013 44.2585C41.4579 44.798 36.4123 44.1762 31.842 43.6641C31.842 43.6641 28.4691 49.215 27.7287 53.376C27.2625 55.9731 47.3262 58.5795 49.7119 53.6869Z" fill="#5598D6"/>
<path d="M37.0794 62.5762C37.0794 62.5762 36.7503 59.8328 38.1397 59.6316C40.4614 59.2841 43.7064 58.9732 45.1688 58.9C47.0884 58.8085 48.752 59.7047 48.9531 60.7473C49.2181 62.1099 46.8142 63.0609 45.2146 63.0701C39.0903 63.0884 37.2805 62.3751 37.0794 62.5762Z" fill="#FDB88E"/>
<path d="M42.2803 59.1286C43.4411 59.0189 44.4923 58.9274 45.1687 58.9C47.0882 58.8085 48.7518 59.7047 48.9529 60.7473C49.218 62.1099 46.814 63.0609 45.2144 63.0701C44.1632 63.0701 43.24 63.0518 42.4265 63.0244C42.4265 63.0244 46.6952 62.8415 46.6952 61.2411C46.6952 59.0372 42.2803 59.1286 42.2803 59.1286Z" fill="#ED715D"/>
<path d="M37.6643 63.2618C37.6643 63.2618 4.91344 65.3377 8.47828 54.2266C11.5587 44.6427 38.7154 59.3387 38.7154 59.3387C39.4193 59.677 38.3772 63.3167 37.6643 63.2618Z" fill="#6EB3F2"/>
<path d="M40.3058 64.4228C40.3058 64.4228 40.3423 61.6611 38.8798 61.6062C38.1303 61.5788 37.2985 61.5605 36.4576 61.5605C34.5289 61.5513 32.5454 61.5879 31.4851 61.6519C29.4742 61.7708 27.838 62.8408 27.7374 63.9016C27.6095 65.2916 30.2237 65.9683 31.8873 65.8037C38.2674 65.1544 40.0773 64.2491 40.3058 64.4228Z" fill="#FDB88E"/>
<path d="M34.5106 61.5693C33.2858 61.5785 32.1889 61.6151 31.4851 61.6608C29.4742 61.7797 27.838 62.8496 27.7374 63.9104C27.6095 65.3005 30.2237 65.9772 31.8873 65.8126C32.9842 65.7029 33.9439 65.584 34.7849 65.4651C34.7849 65.4651 30.3151 65.7577 30.1414 64.1574C29.9038 61.9534 34.5106 61.5693 34.5106 61.5693Z" fill="#E54925"/>
<path d="M39.7481 64.798C39.7481 64.798 72.3983 68.0627 69.2357 56.8327C66.5118 47.1483 38.834 60.8382 38.834 60.8382C38.1211 61.1492 39.0351 64.8254 39.7481 64.798Z" fill="#6EB3F2"/>
<path d="M70.8538 30.0387C71.7221 28.9596 73.4589 29.2889 74.8482 28.9596C75.9268 28.7036 78.3308 27.6336 78.2211 27.0026C78.1115 26.3716 75.351 27.9811 73.6417 27.469C73.9982 26.9752 75.5703 26.3808 75.3693 25.6857C75.2961 25.4388 74.5557 25.8686 73.7422 26.0698C73.3583 26.1613 72.1975 26.2253 71.4114 26.5545C70.0403 27.1398 69.0439 28.3195 69.0439 28.3195L70.8538 30.0387Z" fill="#FDB88E"/>
<path d="M9.47482 28.7121C9.04522 28.4743 8.57905 28.1542 8.14944 28.0354C7.27194 27.7793 6.18421 27.8525 5.24272 27.633C4.16413 27.3769 1.76015 26.307 1.86984 25.676C1.97953 25.045 4.73999 26.6545 6.44929 26.1423C6.0928 25.6485 4.52062 25.0541 4.72171 24.3591C4.79483 24.1122 5.53522 24.542 6.34874 24.7432C6.73264 24.8346 7.8935 24.8986 8.67959 25.2279C10.0507 25.8131 11.1019 27.0111 11.1019 27.0111L9.47482 28.7121Z" fill="#FDB88E"/>
<path d="M47.2435 45.9877C47.2435 45.9877 50.077 36.4861 49.6657 28.8409C49.1813 19.9978 30.6624 18.5529 29.1176 28.4568C28.4047 33.0293 30.5893 45.4573 30.5893 45.4573C30.7995 46.2986 47.0515 47.1125 47.2435 45.9877Z" fill="#528A4F"/>
<path d="M49.1452 37.2174C50.2146 31.8128 59.4832 39.5037 71.3569 29.8192C71.8779 29.2248 70.4519 27.2495 69.8669 27.158C55.5162 29.5083 51.5857 21.5979 40.6353 21.479L49.1452 37.2174Z" fill="#528A4F"/>
<path d="M29.4469 37.4732C29.0355 31.5382 19.3191 37.8116 8.85305 28.7032C8.33203 28.1088 9.77625 26.0695 10.3612 25.9781C24.712 28.3283 28.9715 20.7014 40.0043 21.4787L29.4469 37.4732Z" fill="#528A4F"/>
<path d="M41.1743 17.5737L41.9421 22.4114C42.0792 23.6734 37.0336 23.902 36.8325 22.5394V20.5916L41.1743 17.5737Z" fill="#FDB88E"/>
<path d="M41.8058 16.1105C41.8332 20.0885 38.9082 21.1402 36.6961 20.8293C35.1605 20.6098 34.4201 18.6985 34.1459 17.7657V17.7566C34.0088 17.3359 33.9448 16.8969 33.9448 16.4671C33.9448 16.2751 33.9631 16.0922 33.9905 15.9093C34.0088 15.7721 34.0362 15.6349 34.0545 15.4886C34.0819 15.26 34.0911 15.0039 34.1094 14.7204C34.1551 13.8334 34.347 13.4584 34.5481 13.1658C35.517 11.7575 36.8241 12.7634 38.2043 10.4772C39.091 9.00486 41.7875 13.5133 41.8058 16.1105Z" fill="#FDB88E"/>
<path d="M38.6148 16.8507C38.4412 17.5366 39.0627 18.1767 39.8031 17.9664C40.0316 17.9024 40.2144 17.7469 40.3241 17.5366C40.6806 16.8416 40.1596 16.1008 39.4375 16.1465C39.0353 16.1831 38.7062 16.4575 38.6148 16.8507Z" fill="#ED715D"/>
<path d="M34.931 16.9241C34.8853 17.3539 34.5563 17.6923 34.1449 17.7472C34.0078 17.3265 33.9438 16.8876 33.9438 16.4577C33.9438 16.2657 33.9621 16.0828 33.9896 15.8999C34.0261 15.8999 34.0627 15.8999 34.0992 15.8999C34.6111 15.9639 34.9859 16.4212 34.931 16.9241Z" fill="#ED715D"/>
<path d="M37.2252 21.0398C37.1704 21.0398 37.1338 21.0032 37.1338 20.9483C37.1338 20.8934 37.1704 20.8569 37.2252 20.8569C37.2526 20.8569 39.748 20.8386 40.9271 19.3297C40.9546 19.2931 41.0185 19.2839 41.0551 19.3114C41.0917 19.3388 41.1008 19.4028 41.0734 19.4394C39.8394 21.0215 37.3257 21.0398 37.2252 21.0398Z" fill="#ED715D"/>
<path d="M35.3609 15.4799C34.6113 15.489 34.3097 15.0683 34.2914 15.0501C34.2549 15.0043 34.2731 14.9403 34.3188 14.9037C34.3645 14.8672 34.4285 14.8854 34.4651 14.9312C34.4834 14.9586 34.849 15.4524 35.8362 15.2055C35.891 15.1872 35.9459 15.2238 35.9642 15.2787C35.9733 15.3336 35.9459 15.3884 35.891 15.4067C35.6991 15.4616 35.5163 15.4799 35.3609 15.4799Z" fill="#002869"/>
<path d="M38.4684 15.8364C38.0023 15.8456 37.6732 15.6535 37.6549 15.6444C37.6092 15.617 37.5909 15.553 37.6184 15.5072C37.6458 15.4615 37.7098 15.4432 37.7555 15.4706C37.7829 15.4889 38.5324 15.9188 39.3459 15.3243C39.3916 15.2878 39.4556 15.2969 39.4922 15.3426C39.5287 15.3883 39.5196 15.4524 39.4739 15.4889C39.1083 15.745 38.7609 15.8273 38.4684 15.8364Z" fill="#002869"/>
<path d="M36.5855 17.6749C36.4666 17.6749 36.3478 17.6566 36.2381 17.6018C36.0553 17.5103 35.9365 17.3549 35.9182 17.172C35.8908 16.9342 36.0462 16.7604 36.2016 16.5867C36.2747 16.5044 36.357 16.4129 36.4118 16.3215C36.5946 16.0014 36.6495 15.4436 36.6495 15.4344C36.6586 15.3795 36.7043 15.3338 36.7591 15.343C36.814 15.3521 36.8597 15.3978 36.8505 15.4527C36.8505 15.4801 36.7866 16.0563 36.5855 16.4221C36.5215 16.5318 36.4392 16.6324 36.357 16.7239C36.2198 16.8793 36.1102 17.0073 36.1193 17.1537C36.1376 17.3091 36.2564 17.3823 36.3204 17.4189C36.4849 17.5012 36.6952 17.492 36.8414 17.4006C36.8871 17.3731 36.9511 17.3823 36.9877 17.4372C37.0151 17.4829 37.0059 17.5469 36.9511 17.5835C36.8414 17.6383 36.7134 17.6749 36.5855 17.6749Z" fill="#ED715D"/>
<path d="M36.5119 19.1466C35.6893 19.0826 35.5065 18.1407 35.6893 18.159C35.9361 18.1864 36.5119 18.4059 37.554 18.2504C37.9105 18.1955 37.49 19.2198 36.5119 19.1466Z" fill="white"/>
<path d="M38.3049 7.15764C38.771 6.71868 45.9099 5.63044 48.5606 12.8732C49.1913 14.5925 53.7434 23.4631 53.7434 23.4631C49.8769 27.2857 42.3633 25.6396 41.047 22.4663C40.3249 20.7196 40.4895 19.3296 40.4255 15.7173C40.3706 12.6537 36.4585 12.1691 37.4091 10.1755C38.771 7.28567 38.3049 7.15764 38.3049 7.15764Z" fill="#32264C"/>
</g>
</svg>
