<svg width="113" height="70" viewBox="0 0 113 70" fill="none" xmlns="http://www.w3.org/2000/svg">
<mask id="mask0" style="mask-type:alpha" maskUnits="userSpaceOnUse" x="-70" y="-42" width="156" height="157">
<path d="M-18.0645 95.0894C-4.71261 103.07 8.46639 113.024 22.269 114.02C36.0717 115.017 50.4979 107.057 61.8557 96.4764C73.2613 85.978 81.5985 72.8595 84.3436 59.0309C87.2189 45.2367 82.1853 36.4537 78.7144 22.1683C75.1955 7.80072 71.0049 -6.39611 61.587 -14.2434C52.1211 -22.1729 36.951 -30.284 22.2932 -33.3169C7.68324 -36.2676 -12.6272 -43.2232 -25.9392 -40.5393C-39.3334 -37.8075 -45.3824 -18.9395 -55.0142 -6.71962C-64.5981 5.58253 -69.3176 14.6464 -69.8566 29.6142C-70.3957 44.5821 -64.4854 59.6505 -54.7612 70.2943C-45.0369 80.938 -31.4643 87.0269 -18.0645 95.0894Z" fill="#F0ECE4"/>
</mask>
<g mask="url(#mask0)">
<rect x="-7" y="-16" width="109" height="102" fill="#F0ECE4"/>
<path d="M66.5013 32.0477C67.3315 37.1397 22.6983 35.8114 14.8831 33.8631C10.4331 32.9333 15.6469 11.3916 12.8463 4.36229C11.2412 -2.2242 61.4202 -0.486253 65.1175 3.87522C67.9625 7.21828 65.3168 24.8745 66.5013 32.0477Z" fill="white"/>
<path d="M49.3877 22.3507C48.0925 25.738 30.2149 32.8559 31.8422 22.9263C32.3846 19.6054 26.0859 20.812 29.274 13.6277C30.4252 11.0374 26.4291 7.38441 33.2701 5.60218C35.7719 4.94906 39.0707 0.122663 41.8049 7.68329C42.9008 10.6943 49.3877 22.3507 49.3877 22.3507Z" fill="#32264C"/>
<path d="M31.5874 53.4123C39.2587 54.3754 48.9115 52.8367 52.7638 50.1135L55.819 27.1881C54.38 21.8414 47.395 21.9078 42.646 21.1772C35.9599 20.1699 25.6429 22.8709 20.9937 35.4683L31.5874 53.4123Z" fill="#6EB3F2"/>
<path d="M77.8921 82.7358C72.8221 87.1637 44.3286 84.4294 30.6797 85.3814C30.3697 85.4036 30.0487 85.4257 29.7387 85.4478C24.0157 85.8242 18.4919 86.0345 13.9976 85.8906C13.4662 85.8796 12.946 85.8464 12.4368 85.8242C7.49965 85.5475 4.07911 84.7726 3.43706 83.1896C3.06069 82.2598 2.26367 74.5331 2.07549 69.6735C2.06442 69.3967 2.05335 69.1089 2.05335 68.8211C1.78767 60.0982 2.51827 48.3642 4.15659 44.9658C4.23408 44.8109 4.3005 44.667 4.38906 44.5563C7.40003 39.9845 69.9551 42.3755 72.8332 43.084C74.239 43.4382 75.2464 43.7924 75.7556 44.1467C80.2942 47.3237 80.2831 80.6436 77.8921 82.7358Z" fill="#E54925"/>
<path d="M65.0843 46.9697C66.3905 46.9254 67.6968 46.8811 68.9919 46.8368C69.5344 46.8147 69.5344 45.9734 68.9919 45.9845C67.6857 46.0288 66.3795 46.073 65.0843 46.1173C64.5419 46.1395 64.5308 46.9918 65.0843 46.9697Z" fill="white"/>
<path d="M72.0691 52.0731C71.1171 53.6782 70.1762 55.2833 69.2242 56.8884C68.9474 57.3533 69.6338 57.8625 69.9105 57.3865C70.8625 55.7814 71.8034 54.1763 72.7554 52.5712C73.0322 52.1063 72.3458 51.5971 72.0691 52.0731Z" fill="white"/>
<path d="M76.2646 61.4376C76.2646 61.4376 76.2646 64.2272 76.2646 65.6884C76.2646 66.2308 77.117 66.2308 77.117 65.6884C77.117 64.2272 77.117 62.8545 77.117 61.4376C77.106 60.873 76.2646 60.873 76.2646 61.4376C76.2646 61.4376 76.2646 60.873 76.2646 61.4376Z" fill="white"/>
<path d="M53.0626 68.8768C51.9667 68.5669 50.8818 68.2569 49.7859 67.947C49.2657 67.8031 48.9778 68.6001 49.5092 68.7551C50.6051 69.065 51.6899 69.375 52.7858 69.6849C53.3172 69.8288 53.5939 69.0318 53.0626 68.8768Z" fill="white"/>
<path d="M59.1176 56.2016C60.4127 56.9876 61.6304 57.8621 62.7706 58.8473C63.1802 59.2015 63.6562 58.4931 63.2466 58.1388C62.1064 57.1536 60.8887 56.2791 59.5936 55.4932C59.1176 55.2164 58.6416 55.9249 59.1176 56.2016Z" fill="white"/>
<path d="M4.42214 69.7953C3.63619 69.751 2.85024 69.7067 2.07536 69.6624C2.06429 69.3857 2.05322 69.0979 2.05322 68.8101C2.83917 68.8543 3.61405 68.8986 4.4 68.9429C4.93135 68.9872 4.97563 69.8285 4.42214 69.7953Z" fill="white"/>
<path d="M42.4358 58.117C41.4838 56.5119 40.5429 54.9068 39.5909 53.3017C39.3141 52.8367 40.0005 52.3275 40.2772 52.8035C41.2292 54.4087 42.1701 56.0138 43.1221 57.6189C43.3989 58.0949 42.7125 58.593 42.4358 58.117Z" fill="white"/>
<path d="M51.7012 58.5155C51.7012 58.5155 51.7012 55.7259 51.7012 54.2647C51.7012 53.7223 52.5535 53.7223 52.5535 54.2647C52.5535 55.7259 52.5535 57.0986 52.5535 58.5155C52.5425 59.0801 51.7012 59.0801 51.7012 58.5155C51.7012 58.5155 51.7012 59.0801 51.7012 58.5155Z" fill="white"/>
<path d="M41.3062 65.5446C40.2103 65.8546 39.1255 66.1645 38.0296 66.4745C37.5093 66.6184 37.2215 65.8214 37.7528 65.6664C38.8488 65.3564 39.9336 65.0465 41.0295 64.7365C41.5498 64.5926 41.8265 65.3896 41.3062 65.5446Z" fill="white"/>
<path d="M10.0568 50.4347C8.80592 50.0473 7.56611 49.6598 6.31523 49.2724C5.79495 49.1064 6.01635 48.2872 6.53662 48.4532C7.7875 48.8407 9.02731 49.2281 10.2782 49.6156C10.7985 49.7816 10.5771 50.6008 10.0568 50.4347Z" fill="white"/>
<path d="M18.9122 54.3422C19.3992 56.1355 19.8974 57.9398 20.3844 59.7331C20.5284 60.2534 19.7313 60.5634 19.5874 60.032C19.1004 58.2387 18.6022 56.4344 18.1152 54.6411C17.9823 54.1208 18.7683 53.8108 18.9122 54.3422Z" fill="white"/>
<path d="M10.4106 59.3237C10.4106 59.3237 9.68003 62.0137 9.29259 63.4195C9.14868 63.9509 8.32952 63.7295 8.47343 63.1981C8.86087 61.7812 9.2151 60.4639 9.59147 59.1023C9.73538 58.5489 10.5545 58.7703 10.4106 59.3237C10.4106 59.3237 10.5545 58.7703 10.4106 59.3237Z" fill="white"/>
<path d="M24.7903 67.1939C25.9194 67.1828 27.0596 67.1717 28.1887 67.1606C28.7311 67.1606 28.7976 68.0019 28.2441 68.013C27.115 68.0241 25.9748 68.0352 24.8457 68.0462C24.3032 68.0462 24.2368 67.1939 24.7903 67.1939Z" fill="white"/>
<path d="M68.3608 66.7515C66.9106 67.161 65.5048 67.6924 64.1432 68.3455C63.6451 68.5779 63.3794 67.7699 63.8775 67.5374C65.2391 66.8954 66.645 66.364 68.0951 65.9434C68.6154 65.7995 68.8921 66.6075 68.3608 66.7515Z" fill="white"/>
<path d="M72.6118 43.0511C58.1436 41.0696 49.3653 60.3088 21.6357 55.6042C14.7503 54.4308 6.1602 43.6267 4.14551 44.9662C4.223 44.8112 4.28941 44.6673 4.37797 44.5566C10.4774 36.5864 32.2737 39.5752 40.742 40.5715C54.3135 42.1544 60.5901 40.3501 72.6118 43.0511Z" fill="white"/>
<path d="M50.8597 35.7115C50.8929 35.7115 50.9372 35.6894 50.9482 35.6562C50.9704 35.6119 50.9482 35.5455 50.8929 35.5344C49.3985 34.9256 46.9853 31.2172 45.0591 28.2506C44.1514 26.8558 43.3765 25.6602 42.7788 24.8964C42.7456 24.8521 42.6791 24.8411 42.6459 24.8743C42.6017 24.9075 42.5906 24.9628 42.6238 25.0071C43.2105 25.7599 43.9964 26.9554 44.8931 28.3391C46.8414 31.339 49.2656 35.0584 50.8154 35.7005C50.8375 35.7115 50.8486 35.7115 50.8597 35.7115Z" fill="#012869"/>
<path d="M26.0842 53.2342C23.0707 49.0666 16.8649 40.4648 21.5874 31.8634C24.4812 26.5871 34.3086 32.9353 31.6979 36.8899C28.5573 41.6409 31.3806 46.0005 30.7148 51.1875C30.6126 51.9787 26.5017 53.8113 26.0842 53.2342Z" fill="#6EB3F2"/>
<path d="M43.0047 35.8492C46.9126 45.5879 49.9171 56.4016 40.5265 58.4519C33.6905 59.9377 26.9735 51.9476 24.9737 41.0726C23.0867 30.7085 22.2636 22.3831 28.2033 20.5834C34.1584 18.8084 38.6191 24.9037 43.0047 35.8492Z" fill="#F0ECE4"/>
<path d="M35.4833 27.0606C35.5613 27.2684 35.6348 27.4962 35.7128 27.704C35.7663 27.9272 35.8257 28.215 35.8406 28.5134C35.9245 29.6919 35.411 32.08 34.0334 32.4759C31.5662 33.2082 28.6724 31.6077 28.0409 29.5221C27.1037 26.396 28.1853 24.6459 29.8804 23.8813C32.4453 22.7292 34.3074 24.8694 34.9209 25.855C35.0696 26.1214 35.2444 26.4571 35.4833 27.0606Z" fill="#FDB98D"/>
<path d="M31.2112 29.4801C31.3581 29.9357 31.1172 30.4276 30.6569 30.5944C30.2013 30.7412 29.7095 30.5004 29.5426 30.0401C29.3958 29.5845 29.6367 29.0927 30.0969 28.9258C30.5526 28.779 31.0444 29.0199 31.2112 29.4801Z" fill="#ED715D"/>
<path d="M35.4832 27.0604C35.5613 27.2682 35.6347 27.496 35.7128 27.7039C35.7662 27.927 35.8257 28.2148 35.8405 28.5132C35.7573 28.5992 35.6341 28.6759 35.4955 28.728C35.0399 28.8748 34.5481 28.6339 34.3813 28.1737C34.2344 27.7181 34.4753 27.2262 34.9356 27.0594C35.1341 27.0213 35.3233 27.0232 35.4832 27.0604Z" fill="#ED715D"/>
<path d="M28.6064 30.623C30.2008 31.9212 33.6515 30.1323 35.7271 34.0712C38.5845 39.5405 28.8733 33.5509 28.6064 30.623Z" fill="#F0ECE4"/>
<path d="M34.0221 33.3374C33.5529 30.826 36.0138 29.3968 35.7778 28.0565C35.7825 28.0365 40.6813 32.6113 34.0221 33.3374Z" fill="#F0ECE4"/>
<path d="M30.1517 28.6017C30.0118 28.5691 29.9365 28.5305 29.9165 28.5259C29.8612 28.4919 29.8351 28.4226 29.8691 28.3673C29.903 28.312 29.9723 28.286 30.0276 28.3199C30.0676 28.3292 30.73 28.652 31.4558 27.978C31.5097 27.9273 31.5697 27.9413 31.6204 27.9952C31.6711 28.0491 31.6571 28.1091 31.6032 28.1598C31.0145 28.6971 30.4515 28.6714 30.1517 28.6017Z" fill="#002869"/>
<path d="M33.3897 27.5431C33.3297 27.5291 33.3083 27.4399 33.3023 27.3752C33.3163 27.3153 33.3749 27.2446 33.4348 27.2586C33.4548 27.2632 34.1284 27.3568 34.5651 26.6576C34.599 26.6023 34.6683 26.5763 34.7236 26.6102C34.7789 26.6442 34.7756 26.7488 34.7417 26.8041C34.2325 27.6338 33.4097 27.5477 33.3897 27.5431Z" fill="#002869"/>
<path d="M33.8881 30.1084C33.9493 30.1149 34.0084 30.1418 34.0019 30.203C33.9954 30.2642 33.9503 30.3007 33.889 30.2942C33.889 30.2942 33.2359 30.225 32.9595 30.6911C32.9326 30.7501 32.8488 30.7619 32.8123 30.7168C32.7533 30.6899 32.7372 30.6469 32.7641 30.5878C33.0921 30.024 33.8473 30.1041 33.8881 30.1084Z" fill="#ED715D"/>
<path d="M32.9494 29.5263C32.8894 29.5124 32.8634 29.4431 32.8573 29.3785C32.8713 29.3185 32.9252 29.2679 32.9852 29.2818C33.1651 29.3237 33.3436 29.2809 33.4269 29.1949C33.4808 29.1443 33.5147 29.089 33.5041 29.0443C33.486 28.8505 33.4106 28.8119 33.2001 28.7207C32.9741 28.6049 32.6483 28.4659 32.4954 27.9457C32.4894 27.881 32.5033 27.8211 32.5726 27.795C32.6372 27.789 32.6972 27.803 32.7232 27.8722C32.8347 28.2985 33.0853 28.399 33.2912 28.5101C33.4818 28.5966 33.7077 28.7124 33.7379 29.0355C33.7546 29.1448 33.6821 29.2754 33.5742 29.3767C33.511 29.4674 33.3092 29.6101 32.9494 29.5263Z" fill="#ED715D"/>
<path d="M34.4628 35.6103C34.4428 35.6056 34.4228 35.601 34.4075 35.5763C31.852 32.4319 26.078 32.7951 26.0133 32.8011C25.9487 32.8072 25.8981 32.7532 25.892 32.6886C25.886 32.624 25.9399 32.5733 26.0046 32.5673C26.0692 32.5613 31.9478 32.2013 34.5893 35.429C34.62 35.4783 34.626 35.5429 34.5721 35.5935C34.5274 35.6042 34.5028 35.6196 34.4628 35.6103Z" fill="#32264C"/>
<path d="M36.0103 40.7327C35.9703 40.7234 35.935 40.6941 35.9243 40.6495C35.9029 40.5602 34.2732 32.5318 38.7394 28.9142C38.7887 28.8835 38.8533 28.8774 38.904 28.9314C38.9347 28.9807 38.9407 29.0453 38.8868 29.0959C34.5238 32.6322 36.1214 40.5268 36.1428 40.616C36.1488 40.6807 36.1149 40.736 36.0503 40.742C36.0303 40.7374 36.0103 40.7327 36.0103 40.7327Z" fill="#32264C"/>
<path d="M43.0443 14.8345L44.428 21.742C44.428 23.5131 36.8341 23.7677 37.0555 21.908L37.609 18.2329L43.0443 14.8345Z" fill="#FDB88E"/>
<path d="M34.6092 13.1851C34.6424 13.5394 34.6867 13.8604 34.6867 14.1593C34.6867 14.3696 34.6867 14.5689 34.6977 14.7792C34.7088 14.9895 34.7088 15.1888 34.7309 15.4102C34.7863 15.9858 34.8748 16.5061 34.9855 16.982C35.5944 19.6499 36.967 20.7347 38.8267 20.6129C42.5462 20.3694 45.535 18.0669 44.7269 13.3512C44.1734 10.1078 39.8784 5.0821 39.026 7.09679C37.7087 10.2184 35.8379 9.22217 34.8748 11.1594C34.6645 11.569 34.4874 12.0671 34.6092 13.1851Z" fill="#FDB88E"/>
<path d="M40.5424 15.6318C40.4649 16.4731 41.3394 17.1262 42.1918 16.7388C42.4464 16.617 42.6567 16.3956 42.7453 16.1299C43.0441 15.2444 42.2693 14.4584 41.4058 14.6577C40.9298 14.7684 40.5867 15.1558 40.5424 15.6318Z" fill="#ED715D"/>
<path d="M34.6978 14.7798C34.7088 14.9902 34.7088 15.1894 34.731 15.4108C34.7863 15.9864 34.8749 16.5067 34.9856 16.9827C35.1405 16.9716 35.2955 16.9384 35.4616 16.872C35.7162 16.7502 35.9265 16.5288 36.015 16.2632C36.3029 15.3776 35.5501 14.6027 34.6978 14.7798Z" fill="#ED715D"/>
<path d="M36.4468 14.2376C35.5281 14.304 35.1295 13.8169 35.1074 13.7948C35.0631 13.7394 35.0742 13.6619 35.1295 13.6177C35.1849 13.5734 35.2624 13.5844 35.3067 13.6398C35.3288 13.6619 35.8159 14.2376 37.0114 13.8723C37.0778 13.8501 37.1442 13.8833 37.1664 13.9497C37.1885 14.0162 37.1553 14.0826 37.0778 14.1047C36.8564 14.1822 36.635 14.2265 36.4468 14.2376Z" fill="#002869"/>
<path d="M40.3542 14.2926C39.7896 14.348 39.369 14.1598 39.3357 14.1487C39.2693 14.1155 39.2472 14.0491 39.2804 13.9827C39.3136 13.9163 39.3911 13.8941 39.4464 13.9273C39.4907 13.9495 40.4427 14.3812 41.3726 13.5842C41.4279 13.5399 41.5054 13.5399 41.5497 13.5953C41.594 13.6506 41.594 13.7281 41.5386 13.7724C41.129 14.1155 40.7084 14.2484 40.3542 14.2926Z" fill="#002869"/>
<path d="M38.4283 16.6283C38.2844 16.6504 38.1294 16.6504 37.9855 16.6061C37.7531 16.5397 37.576 16.3737 37.5206 16.1633C37.4431 15.8866 37.5981 15.6431 37.7531 15.4106C37.8306 15.2999 37.9081 15.1781 37.9523 15.0564C38.1073 14.6468 38.0741 13.9715 38.0741 13.9605C38.0741 13.8941 38.1184 13.8387 38.1959 13.8276C38.2623 13.8276 38.3287 13.8719 38.3287 13.9383C38.3287 13.9715 38.373 14.6689 38.1959 15.1339C38.1405 15.2778 38.052 15.4106 37.9745 15.5324C37.8416 15.7427 37.7199 15.9198 37.7752 16.0859C37.8306 16.263 37.9855 16.3294 38.0741 16.3626C38.2844 16.429 38.5501 16.3737 38.7051 16.2408C38.7604 16.1966 38.8379 16.1966 38.8822 16.2519C38.9265 16.3073 38.9265 16.3847 38.8711 16.429C38.7383 16.5397 38.5833 16.5951 38.4283 16.6283Z" fill="#ED715D"/>
<path d="M38.4945 20.9891C38.4945 20.9891 38.5056 20.9891 38.4945 20.9891C43.0109 20.7345 43.9851 17.6239 43.9961 17.5906C44.0183 17.5242 43.974 17.4689 43.9186 17.4467C43.8522 17.4246 43.7858 17.4689 43.7747 17.5242C43.7637 17.5574 42.8227 20.5131 38.4945 20.7566C38.4281 20.7566 38.3838 20.8119 38.3838 20.8784C38.3838 20.9448 38.4281 20.9891 38.4945 20.9891Z" fill="#EE715D"/>
<path d="M49.509 22.3398C56.7043 22.7051 61.7632 34.583 59.2282 40.4278C54.4239 51.5197 44.0295 41.6122 43.0664 38.712C40.8524 32.0148 49.509 22.3398 49.509 22.3398Z" fill="#6EB3F2"/>
<path d="M36.8677 6.34392C36.8677 6.34392 42.79 -1.64842 49.9521 5.71295C52.2325 8.05973 57.5791 5.93435 56.8485 12.9968C56.6382 15.0558 57.9444 16.517 59.1843 17.8011C61.1215 19.8047 63.2774 31.7716 58.2628 31.7605C54.2437 30.153 55.1106 32.5773 51.834 33.2414C48.989 33.8281 47.8156 30.3522 45.491 30.153C40.3436 29.7323 43.1885 18.1553 43.266 15.6757C43.4431 9.95266 37.6426 11.8899 37.8418 7.93797L36.8677 6.34392Z" fill="#32264C"/>
<path d="M37.731 17.8676C37.731 18.1001 38.0852 18.2883 38.5169 18.2883C38.9486 18.2883 39.2697 17.7459 39.2697 17.5134C39.2697 17.2809 38.9154 17.3141 38.4837 17.3141C38.0409 17.3141 37.731 17.6241 37.731 17.8676Z" fill="#ED715D"/>
<path d="M41.9817 22.5391C41.9042 21.7531 41.4282 21.1 41.406 20.2919C41.3839 19.196 41.3618 18.6425 41.1514 18.5429C40.4208 18.1887 40.5094 20.0484 40.1994 20.7126C40.0555 21.0225 39.6128 20.945 39.0593 19.7495C38.7493 19.0743 38.4061 16.9267 37.9855 17.0817C37.6313 17.2145 37.8416 18.7975 37.9966 19.3067C37.8305 18.7864 37.432 16.7496 36.9228 17.126C36.5022 17.4359 37.2438 19.6831 37.3545 20.0262C37.2881 19.8602 36.635 17.292 36.2697 17.5909C35.849 17.9341 36.6239 20.1812 36.7457 20.5355C36.6682 20.3251 36.1701 18.1112 35.7273 18.4986C35.4616 18.7422 35.9708 20.8786 36.0704 21.2328C36.9449 24.432 38.5833 25.4504 38.9486 26.7013L42.0481 25.7604C42.0481 25.7604 42.1366 25.1847 42.0924 24.6645C42.0481 24.0114 42.037 23.1922 41.9817 22.5391Z" fill="#FDB88E"/>
<path d="M38.9043 26.7898C38.8711 26.7788 38.86 26.7456 38.8489 26.7234C38.7161 26.2696 38.4061 25.8379 38.0076 25.2954C37.3767 24.432 36.5132 23.2475 35.9708 21.2439C35.9597 21.2218 35.2955 18.72 35.6608 18.399C35.7383 18.3326 35.8269 18.3104 35.9154 18.3326C35.9708 18.3436 36.0261 18.3769 36.0704 18.4322C35.9819 17.7902 36.0815 17.5909 36.2033 17.4913C36.2586 17.447 36.3361 17.4249 36.4025 17.447C36.4911 17.4691 36.5907 17.5688 36.6903 17.7459C36.6461 17.1813 36.79 17.0706 36.8564 17.0153C36.9781 16.9267 37.0778 16.9378 37.1442 16.9599C37.3545 17.0264 37.5206 17.3252 37.6645 17.7459C37.6645 17.3584 37.7309 17.0374 37.9301 16.9599C37.9966 16.9378 38.063 16.9378 38.1294 16.971C38.384 17.1038 38.5611 17.6795 38.8157 18.6315C38.9264 19.0632 39.0371 19.4617 39.1478 19.6831C39.5131 20.458 39.812 20.7347 39.967 20.7347C39.978 20.7347 40.0334 20.7347 40.0777 20.6462C40.1773 20.4358 40.2326 20.0816 40.288 19.7384C40.3876 19.1407 40.4872 18.565 40.7972 18.4101C40.919 18.3547 41.0518 18.3547 41.1846 18.4211C41.4503 18.554 41.4835 19.0078 41.5057 20.2698C41.5167 20.6904 41.6496 21.0557 41.7935 21.4432C41.9152 21.7863 42.0481 22.1295 42.0813 22.5059C42.1145 22.849 42.1366 23.2475 42.1477 23.635C42.1588 23.9671 42.1809 24.3213 42.203 24.6202C42.2473 25.1405 42.1588 25.7161 42.1588 25.7493C42.1477 25.7936 42.1145 25.8268 42.0813 25.8379L38.9818 26.7788C38.9707 26.7788 38.9707 26.7788 38.9596 26.7788C38.9486 26.812 38.9264 26.8009 38.9043 26.7898ZM41.9927 24.6645C41.9706 24.3545 41.9484 24.0113 41.9374 23.6682C41.9152 23.2807 41.9042 22.8933 41.871 22.5501C41.8377 22.1959 41.716 21.8749 41.5942 21.5428C41.4503 21.1554 41.3064 20.7458 41.2953 20.2919C41.2843 19.5613 41.2621 18.72 41.1071 18.6536C41.0075 18.6093 40.9632 18.6204 40.93 18.6315C40.7308 18.7311 40.6311 19.3178 40.5537 19.7938C40.4872 20.1702 40.4319 20.5355 40.3212 20.7679C40.2548 20.9118 40.133 20.9893 40.0002 20.9893C39.6902 20.9893 39.3249 20.5797 38.9707 19.8049C38.86 19.5613 38.7493 19.1517 38.6275 18.7089C38.4947 18.2219 38.218 17.2145 38.0519 17.1924C37.8527 17.2699 37.9301 18.6204 38.1405 19.2735C38.1626 19.3399 38.1294 19.3953 38.063 19.4174C37.9966 19.4396 37.9301 19.4063 37.9191 19.3399C37.8859 19.2403 37.8416 19.0853 37.7973 18.9082C37.6645 18.3879 37.3767 17.292 37.0999 17.1924C37.0888 17.1924 37.0667 17.1813 37.0224 17.2145C36.8896 17.3142 36.8896 17.8344 37.1995 18.9968C37.277 19.2292 37.3434 19.4838 37.432 19.7606C37.4541 19.8381 37.4763 19.9045 37.4873 19.9377C37.4873 19.9488 37.4874 19.9488 37.4984 19.9598L37.5095 19.982C37.5316 20.0373 37.4984 20.1037 37.432 20.1259C37.3767 20.148 37.2992 20.1148 37.277 20.0595C37.277 20.0484 37.266 20.0373 37.266 20.0152C37.1442 19.6499 37.0556 19.3399 36.9781 19.0521C36.635 17.9783 36.4579 17.7237 36.3804 17.6795C36.314 17.7459 36.2033 18.0337 36.5243 19.2292C36.6239 19.506 36.7235 19.8491 36.8232 20.2255C36.8453 20.3141 36.8674 20.3915 36.8785 20.4358L36.8896 20.4912C36.9117 20.5465 36.8785 20.6129 36.8121 20.6351C36.7567 20.6572 36.6903 20.624 36.6571 20.5687C36.6571 20.5576 36.6461 20.5355 36.635 20.5133L36.6239 20.4912C36.4689 20.0262 36.3582 19.6388 36.2697 19.3067C36.1036 18.8418 35.9708 18.5872 35.8601 18.554C35.8601 18.554 35.849 18.554 35.8269 18.565C35.6719 18.7422 35.9819 20.3583 36.2033 21.1775C36.7346 23.1368 37.5538 24.2549 38.2069 25.1515C38.5833 25.6718 38.8932 26.0814 39.0482 26.5352L41.9595 25.6497C41.9706 25.4947 42.0259 25.063 41.9927 24.6645Z" fill="#EE715D"/>
<path d="M37.9411 25.86C39.0813 36.985 45.6014 42.5531 48.6345 44.1914C55.9405 48.1322 54.8225 33.5534 53.3391 33.2767C49.9075 32.6346 46.2877 29.0702 42.834 24.2548C41.9041 23.7456 37.8194 24.6755 37.9411 25.86Z" fill="#6EB3F2"/>
<path d="M13.8205 17.0506C13.5659 17.0174 13.3445 16.807 13.1342 16.4307L13.101 16.3643C12.8685 15.9436 12.5585 15.368 11.9608 15.1798C11.5401 15.058 11.2302 14.7813 11.1305 14.4381C11.0641 14.1946 11.0641 13.8071 11.4848 13.3311C11.7837 12.9991 11.9718 12.6448 12.1822 12.2795C12.2486 12.1578 12.315 12.036 12.3925 11.9142C13.0899 10.7298 13.3113 10.8294 14.7503 11.4936L14.7614 11.5046C15.0492 11.6375 15.3703 11.6153 15.6691 11.5932C16.1341 11.56 16.6765 11.5268 16.7982 12.2352C16.8536 12.5452 16.8093 12.8884 16.765 13.2094C16.7318 13.4308 16.6986 13.6632 16.6986 13.8957C16.6986 13.9621 16.7318 14.095 16.7761 14.2278C16.8757 14.571 17.0086 15.0359 16.8204 15.3901C16.6322 15.7443 16.289 15.8218 15.9348 15.8993C15.5916 15.9768 15.2485 16.0654 14.9275 16.3753L14.8389 16.4639C14.54 16.7628 14.2301 17.0616 13.8869 17.0616C13.8648 17.0616 13.8426 17.0506 13.8205 17.0506Z" fill="#FFA191"/>
<path d="M11.9533 27.4467C11.588 27.2585 11.2116 27.0703 10.8021 27.1699C10.3703 27.2695 10.0272 27.2363 9.77258 27.0592C9.34086 26.7493 9.27445 26.1183 9.2191 25.5537C9.19696 25.2881 9.17482 25.0335 9.1084 24.8785C8.79845 24.1036 9.14161 23.7715 9.46263 23.4616C9.65082 23.2734 9.839 23.0852 9.9497 22.7974C10.3039 21.7679 10.8685 21.8897 11.4109 22.0114C11.7762 22.1 12.1636 22.1885 12.54 21.9229C12.9939 21.624 13.4145 21.5022 13.7688 21.5908C14.0566 21.6572 14.278 21.8454 14.444 22.1553C14.6433 22.5206 14.6986 22.7531 14.754 22.9524C14.8204 23.218 14.8757 23.4173 15.1967 23.8379C15.4735 24.1922 15.8166 24.9338 15.6174 25.5095C15.5067 25.8305 15.2521 26.063 14.8536 26.1736C14.4219 26.2954 14.3333 26.4504 14.1451 26.7382C14.0676 26.86 13.9791 26.9928 13.8573 27.1589C13.5031 27.6127 13.171 27.7566 12.85 27.7566C12.5511 27.7566 12.2411 27.6016 11.9533 27.4467Z" fill="#FFA191"/>
<path d="M21.9306 21.8404C21.7314 21.6743 21.2111 21.2979 20.7019 21.309C20.2702 21.3201 20.0598 21.143 19.9602 20.9991C19.772 20.7112 19.8163 20.2463 20.082 19.7482C20.237 19.4493 20.1927 19.0729 20.1484 18.7408C20.1041 18.4087 20.0598 18.0877 20.248 17.8774C20.3587 17.7445 20.5469 17.6781 20.8015 17.6781C21.3993 17.6671 21.4878 17.6006 21.6871 17.4678C21.7535 17.4235 21.8421 17.3682 21.9528 17.3018C22.3956 17.0582 22.7498 16.9807 23.0155 17.0804C23.3586 17.2021 23.4915 17.5674 23.6132 17.8885C23.6907 18.0877 23.7571 18.287 23.8678 18.3645C24.3438 18.7076 24.5874 19.0176 24.6095 19.3165C24.6316 19.6485 24.3881 19.9031 24.1667 20.1135C24.1114 20.1688 24.0671 20.202 24.0228 20.2463C23.7571 20.4788 23.7018 20.5341 23.6907 21.154C23.6796 21.619 23.4804 21.9953 23.1372 22.1392C23.0376 22.1835 22.9158 22.2057 22.8051 22.2057C22.5173 22.1946 22.2184 22.0728 21.9306 21.8404Z" fill="#FFA191"/>
<path d="M30.6604 51.6307C31.3624 51.9756 32.0024 52.6535 32.3042 52.871C32.9413 53.3275 33.8067 53.471 33.7233 53.8596C33.5458 54.6701 31.2624 53.6154 31.1688 54.0706C31.1175 54.3812 31.6029 55.0833 31.9961 55.5209C32.457 56.0462 34.1644 57.0753 33.8816 57.4555C33.6424 57.7797 32.3821 57.0768 32.0013 56.7497C32.3933 57.0877 34.2362 58.3143 33.7546 58.7303C33.4044 59.0338 31.4234 57.4105 31.1768 57.1813C31.3001 57.3015 33.246 58.7813 32.8623 59.0632C32.4238 59.39 30.7875 57.8839 30.53 57.6659C30.676 57.819 32.3856 59.0141 31.914 59.3525C31.6178 59.5557 29.9747 58.3707 29.7172 58.1527C28.5859 57.1603 26.6879 53.4435 26.5261 52.9254L27.9562 50.5705C27.9562 50.5705 28.901 50.8569 29.3245 51.0727C29.8481 51.3204 30.4041 51.5012 30.6604 51.6307Z" fill="#FDB88E"/>
<path d="M26.469 53.2497C23.4556 49.0821 20.7531 43.2586 20.7532 36.2541C23.6469 30.9778 21.8576 32.3499 24.313 38.7804C26.1245 41.0772 31.0997 44.2924 31.0997 51.203C30.9975 51.9941 26.8866 53.8268 26.469 53.2497Z" fill="#6EB3F2"/>
<path d="M31.5764 39.2097C31.5653 39.2097 31.5542 39.2097 31.5321 39.1986C31.4657 39.1764 31.4324 39.11 31.4546 39.0436C31.5099 38.8997 32.5948 36.5529 32.7165 36.2762C32.7497 36.2098 32.8162 36.1876 32.8826 36.2208C32.949 36.254 32.9711 36.3205 32.9379 36.3869C32.4509 37.4274 31.7203 39.0215 31.6871 39.1322C31.676 39.1764 31.6317 39.2097 31.5764 39.2097Z" fill="#012869"/>
</g>
</svg>
