<svg width="113" height="70" viewBox="0 0 113 70" fill="none" xmlns="http://www.w3.org/2000/svg">
<mask id="mask0" style="mask-type:alpha" maskUnits="userSpaceOnUse" x="-98" y="-74" width="211" height="217">
<path d="M-18.0645 95.0894C-4.71261 103.07 8.46639 113.024 22.269 114.02C36.0717 115.017 50.4979 107.057 61.8557 96.4764C73.2613 85.978 81.5985 72.8595 84.3436 59.0309C87.2189 45.2367 82.1853 36.4537 78.7144 22.1683C75.1955 7.80072 71.0049 -6.39611 61.587 -14.2434C52.1211 -22.1729 36.951 -30.284 22.2932 -33.3169C7.68324 -36.2676 -12.6272 -43.2232 -25.9392 -40.5393C-39.3334 -37.8075 -45.3824 -18.9395 -55.0142 -6.71962C-64.5981 5.58253 -69.3176 14.6464 -69.8566 29.6142C-70.3957 44.5821 -64.4854 59.6505 -54.7612 70.2943C-45.0369 80.938 -31.4643 87.0269 -18.0645 95.0894Z" fill="#F0ECE4"/>
</mask>
<g mask="url(#mask0)">
<rect x="-8" y="-28" width="97" height="105" fill="#F0ECE4"/>
<path d="M54.6547 80.0001C54.3111 78.1055 54.6633 65.7695 51.3901 56.0053L51.3643 50.2616L48.5893 48.1099L33.3657 48.8385C30.0323 53.442 27.034 58.2341 26.0975 65.2294C25.5047 69.6186 26.4412 80.0001 26.4412 80.0001H39.8005L40.5823 72.1132C41.1837 75.9195 41.7078 80.0001 41.7078 80.0001H54.6547Z" fill="#E54925"/>
<path d="M34.9897 21.7145C35.7887 25.0064 51.3131 33.6305 50.9608 24.2177C50.8405 21.0715 56.4678 22.8975 54.3715 15.8508C53.6155 13.3133 57.6877 10.3643 51.6395 7.93826C49.423 7.04671 46.9659 2.18602 43.5981 8.91554C42.2579 11.5988 34.9897 21.7145 34.9897 21.7145Z" fill="#32264C"/>
<path d="M58.349 39.4174C57.1291 36.9313 58.8129 23.7123 46.2955 21.9463C44.8608 21.6463 43.3745 21.5691 41.9742 21.7149C41.347 21.7835 40.6769 21.8435 39.981 21.9206C39.8779 21.4406 39.8092 21.1662 39.8092 21.1662C28.1939 20.8576 22.6439 36.1169 25.4447 42.9664C27.1114 47.0556 30.187 47.87 33.1854 47.2785L33.3744 48.8473C36.6476 51.3933 44.8522 52.8421 51.3729 51.9334L51.8111 48.9587C53.7355 49.3445 55.5397 49.3873 56.5277 49.053C60.6085 47.6471 60.2734 43.3265 58.349 39.4174Z" fill="#6EB3F2"/>
<path d="M40.8572 15.8853L39.5771 22.3576C39.5771 24.0207 46.5704 24.2521 46.3728 22.5119L45.8659 19.0743L40.8572 15.8853Z" fill="#C78E85"/>
<path d="M39.852 14.9937C39.4311 18.7056 41.9741 21.4231 44.6975 21.6289C46.5876 21.7746 47.9879 20.0172 48.5635 18.9799L48.5721 18.9714C48.847 18.5084 49.0361 18.0027 49.1477 17.4883C49.1993 17.2568 49.2165 17.0425 49.2337 16.8111C49.2508 16.6396 49.2594 16.4682 49.268 16.2881C49.2938 16.0052 49.3453 15.7052 49.4055 15.3623C49.5859 14.2907 49.457 13.8021 49.2938 13.3992C48.512 11.4703 46.6735 12.3104 45.6425 9.23285C44.981 7.244 40.2043 11.8475 39.852 14.9937Z" fill="#FDB88E"/>
<path d="M43.3572 16.8709C43.383 17.7282 42.4723 18.3369 41.6475 17.8911C41.3984 17.7539 41.2094 17.5225 41.1321 17.2481C40.8829 16.3309 41.7077 15.5765 42.5582 15.8337C43.0221 15.9622 43.3486 16.3823 43.3572 16.8709Z" fill="#ED715D"/>
<path d="M47.8502 17.7797C47.7901 18.3112 48.0994 18.7913 48.5805 18.9713C48.8554 18.5084 49.0444 18.0026 49.1561 17.4882C49.2076 17.2568 49.2248 17.0425 49.242 16.811C49.1991 16.8024 49.1561 16.7939 49.1046 16.7853C48.486 16.7167 47.919 17.1625 47.8502 17.7797Z" fill="#ED715D"/>
<path d="M47.7212 15.9538C48.6147 16.151 49.0786 15.7138 49.1044 15.6966C49.1559 15.6452 49.1559 15.568 49.1044 15.5166C49.0528 15.4652 48.9755 15.4652 48.9239 15.5166C48.8982 15.5423 48.3397 16.0481 47.2057 15.5166C47.1456 15.4823 47.0682 15.5166 47.0339 15.5766C47.0081 15.6366 47.0339 15.7138 47.094 15.7481C47.326 15.8424 47.5322 15.9109 47.7212 15.9538Z" fill="#002869"/>
<path d="M43.8212 15.5086C44.3797 15.6029 44.8092 15.4315 44.8436 15.4229C44.9123 15.3972 44.9381 15.32 44.9123 15.26C44.8865 15.1914 44.8092 15.1657 44.7491 15.1914C44.7061 15.2086 43.7267 15.5858 42.8504 14.7285C42.7989 14.6771 42.7216 14.6771 42.67 14.7285C42.6185 14.78 42.6185 14.8571 42.67 14.9085C43.048 15.2857 43.4604 15.4486 43.8212 15.5086Z" fill="#002869"/>
<path d="M45.5822 18.1399C45.7282 18.1742 45.8743 18.1742 46.0203 18.1399C46.2609 18.0799 46.4413 17.9256 46.5186 17.7198C46.6131 17.4455 46.4671 17.1883 46.3296 16.9483C46.2609 16.8283 46.1922 16.6997 46.1492 16.5797C46.0203 16.1511 46.0977 15.4738 46.0977 15.4652C46.1062 15.3967 46.0547 15.3367 45.986 15.3281C45.9172 15.3195 45.8571 15.3709 45.8485 15.4395C45.8485 15.4652 45.7626 16.1768 45.9087 16.6568C45.9516 16.8026 46.0289 16.9483 46.1062 17.0769C46.2265 17.2912 46.3296 17.4798 46.2781 17.6427C46.2179 17.8227 46.0547 17.8827 45.9602 17.8999C45.7454 17.9513 45.4877 17.8827 45.3416 17.7456C45.2901 17.6941 45.2128 17.6941 45.1612 17.7456C45.1097 17.797 45.1097 17.8742 45.1612 17.9256C45.2729 18.0199 45.419 18.097 45.5822 18.1399Z" fill="#ED715D"/>
<path d="M44.3227 18.8451C44.3571 18.8451 44.3915 18.8623 44.4172 18.888C45.0358 19.6167 46.1956 19.0509 46.2042 19.0423C46.2643 19.008 46.3416 19.0337 46.3674 19.0937C46.4018 19.1537 46.376 19.2309 46.3159 19.2566C46.2643 19.2823 44.9671 19.9167 44.2282 19.0423C44.1853 18.9909 44.1939 18.9137 44.2454 18.8708C44.2712 18.8537 44.297 18.8451 44.3227 18.8451Z" fill="#ED715D"/>
<path d="M48.2717 8.23852C48.2717 8.23852 43.7699 0.145951 36.3814 6.18966C34.0274 8.1185 32.6242 8.23852 30.5901 12.5357C29.6614 14.4978 27.0656 15.3375 27.0656 19.3274C27.0656 22.195 28.0244 22.0441 23.3457 26.2714C20.1764 30.1942 21.6461 34.5749 23.3457 35.3257C25.5192 36.2858 24.0244 38.9005 27.0656 39.4405C29.5399 39.8777 31.6032 38.4094 33.7596 38.4951C36.0605 38.5823 37.3818 30.496 38.3073 27.9303C42.3624 22.4969 40.7309 16.9205 40.7973 15.7224C40.8059 15.551 40.8059 15.3795 40.8145 15.2081C40.8489 14.6337 41.055 14.1879 41.3471 13.7079C42.9279 11.0932 46.9143 13.3135 47.1978 9.61871L48.2717 8.23852Z" fill="#32264C"/>
<path d="M40.8746 32.5508C41.1667 31.985 41.8626 31.3677 42.3007 30.5362C42.8162 29.5418 43.0653 29.036 43.2973 29.0274C44.2251 29.0103 42.6701 31.4792 43.1684 31.8821C43.4519 31.9507 44.1994 31.4363 44.6805 31.0334C45.2561 30.5448 46.5104 28.6931 46.8197 29.0274C47.0774 29.3017 46.2011 30.6734 45.8317 31.0763C46.2183 30.6648 47.4382 28.5388 47.7475 29.0874C47.9795 29.4903 46.3558 31.7364 46.098 32.0107C46.2269 31.8821 47.7819 29.5332 47.9881 29.9618C48.2201 30.4505 46.6908 32.465 46.4331 32.7394C46.5963 32.5765 48.0225 30.7419 48.2544 31.282C48.3919 31.6163 47.0001 33.3909 46.7424 33.6652C45.6169 34.8739 43.2629 36.477 42.3179 36.4856C41.4931 36.4942 40.1529 35.1311 40.1701 34.3082C40.1787 33.8024 40.4278 33.4252 40.8746 32.5508Z" fill="#FDB88E"/>
<path d="M38.9325 34.3168C39.0012 34.2996 39.0786 34.3425 39.1043 34.4111C39.1301 34.4882 39.0872 34.5654 39.0098 34.5911C38.9669 34.6082 34.2761 36.0827 31.5784 37.8916C31.5097 37.9344 31.4238 37.9173 31.3808 37.8487C31.3379 37.7801 31.3551 37.6944 31.4238 37.6515C34.1558 35.817 38.881 34.3253 38.9325 34.3168C38.9239 34.3168 38.9239 34.3168 38.9325 34.3168Z" fill="#32264C"/>
<path d="M33.4777 47.3557C33.4176 47.3557 33.3574 47.3129 33.3402 47.2528C33.3145 47.1757 33.366 47.0985 33.4348 47.0728C34.0791 46.8928 39.2854 43.9524 42.0689 37.3429C42.1033 37.2657 42.1806 37.2314 42.2579 37.2657C42.3352 37.3 42.3696 37.3772 42.3352 37.4543C39.5173 44.1753 34.1822 47.1671 33.5207 47.3557C33.5035 47.3557 33.4863 47.3557 33.4777 47.3557Z" fill="#32264C"/>
<path d="M45.6688 39.5804C45.2908 39.0746 44.5004 38.5688 43.9334 37.8144C43.2633 36.9143 42.9368 36.4514 42.7134 36.4857C41.7942 36.6143 43.7272 38.8003 43.2976 39.2803C43.0227 39.3918 42.2065 39.006 41.6739 38.6803C41.0295 38.2859 39.4917 36.6657 39.2426 37.0343C39.0278 37.3429 40.1189 38.5602 40.5398 38.9031C40.0931 38.5517 38.5467 36.6485 38.3319 37.2486C38.1687 37.6858 40.1275 39.6404 40.4281 39.8719C40.2821 39.769 38.3663 37.6944 38.2374 38.1488C38.0827 38.6717 39.9127 40.4119 40.2134 40.6434C40.0244 40.5148 38.3233 38.9203 38.1858 39.4947C38.0999 39.8461 39.758 41.3806 40.0587 41.6035C41.3646 42.6237 44.1481 43.601 45.0502 43.3181C46.064 43.0009 46.5966 42.0493 46.4592 41.2435C46.3647 40.7548 46.253 40.3605 45.6688 39.5804Z" fill="#FDB88E"/>
<path d="M57.318 41.6037C57.3008 41.6037 57.2922 41.6037 57.275 41.5951C53.3746 40.4292 47.2662 40.6521 47.2061 40.6521C47.1288 40.6607 47.0601 40.5921 47.0601 40.515C47.0601 40.4378 47.1202 40.3692 47.1975 40.3692C47.2577 40.3692 53.4176 40.1463 57.3609 41.3294C57.4382 41.3551 57.4812 41.4322 57.4554 41.5094C57.4382 41.5608 57.3781 41.6037 57.318 41.6037Z" fill="#32264C"/>
<path d="M51.4502 49.0361C51.4331 49.0361 51.4245 49.0361 51.4073 49.0275C47 47.6816 44.9811 44.2011 44.9639 44.1669C44.9209 44.0983 44.9467 44.0125 45.0154 43.9697C45.0841 43.9268 45.1701 43.9525 45.213 44.0211C45.2302 44.0554 47.1976 47.4416 51.4932 48.7532C51.5705 48.7789 51.6135 48.8561 51.5877 48.9332C51.5705 48.9932 51.519 49.0361 51.4502 49.0361Z" fill="#32264C"/>
<path d="M100.016 70.3214H9.19851C4.96305 70.3214 1.53516 66.8924 1.53516 62.6746C1.53516 58.4483 4.97164 55.0278 9.19851 55.0278H100.016V70.3214Z" fill="#C78E85"/>
<path d="M100.016 70.5787H9.29313C4.92879 70.5787 1.31189 67.0982 1.26894 62.7519C1.22598 58.3541 4.79993 54.7622 9.19003 54.7622L100.008 54.7708L100.016 70.5787ZM9.19862 55.2766C5.09203 55.2766 1.75004 58.637 1.793 62.7433C1.83596 66.8153 5.22089 70.0644 9.29313 70.0644H100.016V55.2766H9.19862Z" fill="white"/>
<path d="M9.80863 64.2439C10.6627 64.2439 11.355 63.553 11.355 62.7008C11.355 61.8486 10.6627 61.1577 9.80863 61.1577C8.95456 61.1577 8.26221 61.8486 8.26221 62.7008C8.26221 63.553 8.95456 64.2439 9.80863 64.2439Z" fill="white"/>
<path d="M86.8714 69.1985C86.8628 69.1985 86.8542 69.1985 86.8456 69.1985C86.6996 69.1899 86.5965 69.0613 86.6137 68.9241L87.1292 57.1796C87.1377 57.0339 87.2666 56.931 87.4041 56.9482C87.5501 56.9567 87.6532 57.0853 87.636 57.2225L87.1206 68.967C87.1206 69.0956 87.0003 69.1985 86.8714 69.1985Z" fill="white"/>
<path d="M69.6893 69.1985C69.6807 69.1985 69.6721 69.1985 69.6635 69.1985C69.5175 69.1899 69.4144 69.0613 69.4316 68.9241L69.947 57.1796C69.9556 57.0339 70.0845 56.931 70.222 56.9482C70.368 56.9567 70.4711 57.0853 70.4539 57.2225L69.9384 68.967C69.9384 69.0956 69.8182 69.1985 69.6893 69.1985Z" fill="white"/>
<path d="M52.5072 69.1985C52.4986 69.1985 52.49 69.1985 52.4814 69.1985C52.3353 69.1899 52.2322 69.0613 52.2494 68.9241L52.7649 57.1796C52.7735 57.0339 52.9024 56.931 53.0398 56.9482C53.1859 56.9567 53.289 57.0853 53.2718 57.2225L52.7563 68.967C52.7563 69.0956 52.636 69.1985 52.5072 69.1985Z" fill="white"/>
<path d="M35.4105 69.1985C35.4019 69.1985 35.3933 69.1985 35.3847 69.1985C35.2387 69.1899 35.1356 69.0613 35.1527 68.9241L35.6682 57.1796C35.6768 57.0339 35.8057 56.931 35.9517 56.9482C36.0978 56.9567 36.2009 57.0853 36.1837 57.2225L35.6682 68.967C35.6596 69.0956 35.5394 69.1985 35.4105 69.1985Z" fill="white"/>
<path d="M18.2279 69.1985C18.2193 69.1985 18.2107 69.1985 18.2021 69.1985C18.056 69.1899 17.9529 69.0613 17.9701 68.9241L18.4856 57.1796C18.4942 57.0339 18.6231 56.931 18.7691 56.9482C18.9152 56.9567 19.0183 57.0853 19.0011 57.2225L18.4856 68.967C18.477 69.0956 18.3567 69.1985 18.2279 69.1985Z" fill="white"/>
<path d="M21.7159 48.8727C22.3173 50.2786 21.3981 51.8131 19.6626 51.8903C18.3997 52.4732 16.6729 51.6931 16.4323 50.2443C16.1488 48.5641 16.7932 47.2011 18.4513 46.8067C20.0664 46.4209 21.1403 47.5182 21.7159 48.8727Z" fill="#EE715D"/>
<path d="M18.3135 47.4069C18.2534 47.4069 18.2018 47.364 18.1846 47.304C18.0816 46.824 18.1675 46.1124 18.1846 46.0696C18.2104 46.001 18.2792 45.9667 18.3479 45.9924C18.408 46.0181 18.4424 46.0782 18.4338 46.1467C18.4252 46.2153 18.3479 46.8411 18.4424 47.244C18.4596 47.3126 18.4166 47.3812 18.3479 47.3983C18.3307 47.4069 18.3221 47.4069 18.3135 47.4069Z" fill="#012869"/>
<path d="M18.2622 47.733C18.0303 47.733 17.867 47.6644 17.8585 47.6558C17.7983 47.6215 17.764 47.553 17.7983 47.4844C17.8327 47.4244 17.9014 47.3901 17.9701 47.4244C17.9873 47.433 18.331 47.5787 18.7519 47.3472C18.8121 47.3129 18.8894 47.3301 18.9238 47.3987C18.9581 47.4587 18.9409 47.5358 18.8722 47.5701C18.6488 47.6901 18.4341 47.733 18.2622 47.733Z" fill="#012869"/>
<path d="M22.4117 47.6213C23.3739 46.4382 25.1695 46.5325 26.0458 48.0242C27.154 48.8643 27.2657 50.7503 26.0887 51.6418C24.7313 52.6705 23.2193 52.7477 22.0938 51.4618C21.0113 50.2188 21.4838 48.7614 22.4117 47.6213Z" fill="#FDB88E"/>
<path d="M25.8564 48.907C25.8135 48.907 25.7705 48.8813 25.7447 48.8384L25.2722 47.9983C25.2379 47.9383 25.2636 47.8612 25.3238 47.8269C25.3839 47.7926 25.4612 47.8183 25.4956 47.8783L25.9681 48.7184C26.0025 48.7784 25.9767 48.8556 25.9166 48.8899C25.8994 48.907 25.8736 48.907 25.8564 48.907Z" fill="#012869"/>
<path d="M24.9199 48.5214C24.9028 48.5214 24.8942 48.5214 24.8856 48.5214C24.8168 48.5129 24.7653 48.4529 24.7739 48.3757C24.7825 48.3071 24.8426 48.2557 24.9113 48.2643C24.9715 48.2643 25.6244 48.2471 26.0282 48.23C26.0969 48.23 26.1571 48.2814 26.1571 48.35C26.1571 48.4186 26.1055 48.4786 26.0368 48.4786C25.401 48.5129 25.0316 48.5214 24.9199 48.5214Z" fill="#012869"/>
<path d="M14.0868 49.6875C14.2844 50.982 14.7139 53.6052 14.9029 54.7368C14.9545 55.054 15.2294 55.2769 15.5473 55.2769H26.1918C26.5183 55.2769 26.7932 55.0368 26.8361 54.7196L27.5234 49.6704C27.575 49.2846 27.2743 48.9331 26.8791 48.9331H14.7225C14.3273 48.9331 14.0266 49.2932 14.0868 49.6875Z" fill="#FFA191"/>
<path d="M85.1794 48.9582C84.578 50.3641 85.4972 51.8986 87.2326 51.9757C88.4956 52.5587 90.2224 51.7786 90.4629 50.3298C90.7465 48.6496 90.1021 47.2865 88.444 46.8922C86.8203 46.5064 85.755 47.6037 85.1794 48.9582Z" fill="#EE715D"/>
<path d="M88.5811 47.4921C88.5725 47.4921 88.5639 47.4921 88.5553 47.4921C88.4866 47.4749 88.4436 47.4064 88.4608 47.3378C88.5553 46.9349 88.478 46.3091 88.4694 46.2405C88.4522 46.1805 88.4866 46.1119 88.5553 46.0862C88.624 46.0605 88.6928 46.0947 88.7185 46.1633C88.7357 46.2062 88.8216 46.9091 88.7185 47.3978C88.6928 47.4492 88.6412 47.4921 88.5811 47.4921Z" fill="#012869"/>
<path d="M88.633 47.8176C88.4611 47.8176 88.2464 47.7833 88.023 47.6547C87.9629 47.6205 87.9371 47.5433 87.9714 47.4833C88.0058 47.4233 88.0831 47.3976 88.1433 47.4319C88.5642 47.6719 88.9079 47.5176 88.9251 47.509C88.9852 47.4833 89.0625 47.509 89.0969 47.569C89.1227 47.629 89.0969 47.7062 89.0368 47.7405C89.0196 47.7405 88.8649 47.8176 88.633 47.8176Z" fill="#012869"/>
<path d="M83.6243 47.6208C82.6621 46.4377 80.8666 46.532 79.9903 48.0237C78.882 48.8638 78.7703 50.7498 79.9473 51.6413C81.3047 52.6701 82.8168 52.7472 83.9422 51.4613C85.0247 50.2183 84.5522 48.7609 83.6243 47.6208Z" fill="#FDB88E"/>
<path d="M80.1793 48.9066C80.1621 48.9066 80.1364 48.898 80.1192 48.8894C80.059 48.8551 80.0333 48.778 80.0676 48.718L80.5402 47.8778C80.5745 47.8178 80.6519 47.7921 80.712 47.8264C80.7721 47.8607 80.7979 47.9378 80.7635 47.9978L80.291 48.838C80.2738 48.8808 80.2223 48.9066 80.1793 48.9066Z" fill="#012869"/>
<path d="M81.1154 48.521C81.0037 48.521 80.6257 48.5125 79.9985 48.4867C79.9298 48.4867 79.8697 48.4267 79.8783 48.3581C79.8783 48.2896 79.947 48.2296 80.0071 48.2381C80.4109 48.2553 81.0724 48.2724 81.124 48.2724C81.1927 48.2638 81.2529 48.3153 81.2615 48.3839C81.27 48.4524 81.2185 48.521 81.1412 48.5296C81.1412 48.521 81.1326 48.521 81.1154 48.521Z" fill="#012869"/>
<path d="M91.9493 49.687C91.7517 50.9815 91.3221 53.6047 91.1331 54.7363C91.0815 55.0535 90.8066 55.2764 90.4888 55.2764H79.8442C79.5178 55.2764 79.2429 55.0363 79.1999 54.7191L78.5126 49.6699C78.4611 49.2841 78.7617 48.9326 79.1569 48.9326H91.3049C91.7087 48.9326 92.0094 49.2927 91.9493 49.687Z" fill="#FFA191"/>
<path d="M50.0848 49.4987C49.6466 50.9561 50.7206 52.3877 52.456 52.2763C53.779 52.7135 55.4028 51.7533 55.4887 50.2874C55.5832 48.59 54.8014 47.2956 53.1003 47.0898C51.4508 46.8841 50.5144 48.0928 50.0848 49.4987Z" fill="#FDB88E"/>
<path d="M53.2892 47.6642C53.2807 47.6642 53.2807 47.6642 53.2721 47.6642C53.2033 47.6556 53.1518 47.5956 53.1604 47.5185C53.2033 47.107 53.0659 46.4897 53.0487 46.4212C53.0229 46.3612 53.0573 46.2926 53.1174 46.2583C53.1776 46.224 53.2549 46.2497 53.2892 46.3183C53.3064 46.3612 53.4782 47.0555 53.4181 47.5442C53.4095 47.6213 53.358 47.6642 53.2892 47.6642Z" fill="#012869"/>
<path d="M53.2638 47.9901C53.1178 47.9901 52.946 47.9643 52.7655 47.8872C52.6968 47.8615 52.671 47.7843 52.6968 47.7157C52.7226 47.6471 52.7999 47.6214 52.8686 47.6471C53.3154 47.8357 53.6504 47.6471 53.6504 47.6386C53.7106 47.6043 53.7879 47.6214 53.8309 47.6814C53.8652 47.7414 53.8481 47.8186 53.7879 47.8615C53.7707 47.87 53.5731 47.9901 53.2638 47.9901Z" fill="#012869"/>
<path d="M54.3372 49.8756C54.1396 48.3583 55.4455 47.1324 57.1379 47.5267C58.5125 47.3124 59.9558 48.5297 59.8012 49.9871C59.6122 51.6759 58.6242 52.8246 56.9231 52.7474C55.2479 52.6789 54.5262 51.333 54.3372 49.8756Z" fill="#EE715D"/>
<path d="M57.5506 48.3152C57.542 48.3152 57.5334 48.3152 57.5162 48.3152L56.5797 48.0751C56.511 48.058 56.4681 47.9894 56.4852 47.9208C56.5024 47.8523 56.5711 47.8094 56.6399 47.8265L57.5763 48.0666C57.6451 48.0837 57.688 48.1523 57.6708 48.2209C57.6622 48.2809 57.6107 48.3152 57.5506 48.3152Z" fill="#012869"/>
<path d="M56.614 48.7353C56.5796 48.7353 56.5367 48.7181 56.5195 48.6924C56.4765 48.641 56.4765 48.5638 56.5281 48.5124C56.571 48.4695 57.0092 47.9809 57.2755 47.6808C57.3185 47.6294 57.4044 47.6208 57.4559 47.6723C57.5075 47.7237 57.5161 47.8008 57.4645 47.8523C56.9834 48.3923 56.7171 48.6838 56.6913 48.701C56.6656 48.7267 56.6398 48.7353 56.614 48.7353Z" fill="#012869"/>
<path d="M51.5105 47.9894C52.9367 48.538 53.4092 50.2611 52.258 51.5642C51.7941 52.8758 50.0414 53.5702 48.8215 52.7386C47.4211 51.7699 46.8799 50.364 47.7476 48.8981C48.6067 47.4579 50.136 47.4579 51.5105 47.9894Z" fill="#EE715D"/>
<path d="M51.4763 51.7361C51.4419 51.7361 51.4162 51.7275 51.3904 51.7018C51.3388 51.6503 51.3388 51.5732 51.3818 51.5217L52.0347 50.8102C52.0863 50.7588 52.1636 50.7588 52.2151 50.8017C52.2667 50.8531 52.2667 50.9302 52.2237 50.9817L51.5708 51.6932C51.545 51.7275 51.5107 51.7361 51.4763 51.7361Z" fill="#012869"/>
<path d="M51.9315 51.7786C51.88 51.7786 51.8284 51.7443 51.8113 51.6928C51.5621 51.007 51.4333 50.647 51.4247 50.6127C51.4075 50.5441 51.4504 50.4755 51.5278 50.4584C51.5965 50.4412 51.6652 50.4841 51.6824 50.5527C51.6996 50.6127 51.923 51.2299 52.0604 51.5985C52.0862 51.6671 52.0518 51.7357 51.9831 51.7614C51.9659 51.77 51.9487 51.7786 51.9315 51.7786Z" fill="#012869"/>
<path d="M46.7855 49.6865C46.9831 50.981 47.4126 53.6042 47.6016 54.7358C47.6532 55.053 47.9281 55.2759 48.246 55.2759H58.8905C59.217 55.2759 59.4919 55.0358 59.5348 54.7187L60.2221 49.6694C60.2737 49.2836 59.973 48.9321 59.5778 48.9321H47.4212C47.026 48.9321 46.7168 49.2922 46.7855 49.6865Z" fill="#FFA191"/>
<g opacity="0.24">
<g opacity="0.24">
<path opacity="0.24" d="M34.8025 76.0704C31.8597 71.3511 29.7243 66.1293 28.5221 60.7102C28.1991 59.2388 27.7505 57.5161 26.3688 56.9419C24.5026 56.1703 22.6364 58.0544 20.6446 58.4313C18.4554 58.826 16.3739 57.3187 14.9024 55.6499C13.431 53.9811 12.1749 52.0073 10.219 50.9486C8.19133 49.854 5.6971 49.9257 3.50791 50.6256C1.31872 51.3254 -0.63719 52.5994 -2.57516 53.8555C-3.38264 54.3938 -4.20808 54.9322 -4.81818 55.6858C-5.41033 56.4395 -5.76922 57.4802 -5.46417 58.3954C-4.96173 59.9745 -3.00582 60.4948 -1.35496 60.441C0.295907 60.3872 2.05443 60.0642 3.50791 60.8537C5.57149 61.9842 5.91243 64.7656 5.93037 67.1162C5.94831 69.4669 6.07392 72.1944 7.95806 73.5941C9.86014 74.9758 12.5518 74.2401 14.5794 73.0558C16.5174 71.9253 18.258 70.5795 20.519 72.1585C22.2954 73.3967 22.116 75.4064 22.5287 77.2547C22.9953 79.3362 23.4977 81.7587 25.2203 83.2121L30.46 84.4323C31.6264 84.3067 32.8107 84.0376 33.9232 83.7505C35.1255 83.4275 36.3457 83.1045 37.3865 82.4226C38.4272 81.7407 39.2527 80.6102 39.2527 79.3721C37.3147 79.4977 35.8253 77.7212 34.8025 76.0704Z" fill="#007F96"/>
</g>
<g opacity="0.24">
<path opacity="0.24" d="M36.6334 80.1253C36.5616 80.0535 36.436 80.0355 36.3642 80.1073C36.3462 80.1253 35.7361 80.6456 34.6595 80.4841C33.529 80.2868 31.6987 79.2639 29.4916 75.388C29.043 74.5985 28.6123 73.8448 28.2175 73.127C24.7723 66.9901 22.6908 63.2937 18.4021 65.0881C14.2929 66.8107 13.0547 64.6574 10.8297 60.7276C10.6502 60.4046 10.4708 60.0816 10.2734 59.7587C8.71226 57.067 7.07934 55.5956 5.14137 55.0932C3.02396 54.5549 0.511784 55.2188 -2.52078 57.1029C-2.6105 57.1568 -2.64639 57.2824 -2.57461 57.3721C-2.52078 57.4618 -2.39517 57.4977 -2.30545 57.4259C0.637392 55.6136 3.04191 54.9676 5.05165 55.47C6.88196 55.9365 8.4431 57.3541 9.95041 59.956C10.1478 60.297 10.3272 60.62 10.5067 60.925C12.6959 64.7651 14.1493 67.3131 18.5815 65.447C22.5472 63.7781 24.4493 67.1696 27.8946 73.3244C28.3073 74.0422 28.72 74.7959 29.1686 75.5854C31.0168 78.8153 32.8471 80.5918 34.6236 80.8789C35.3773 81.0045 35.9515 80.8071 36.2745 80.6456C36.4898 80.538 36.6154 80.4303 36.6334 80.4124C36.6872 80.3406 36.7051 80.215 36.6334 80.1253Z" fill="white"/>
</g>
</g>
<g opacity="0.22">
<g opacity="0.22">
<path opacity="0.22" d="M64.3028 79.6406C67.8558 76.8592 70.8524 73.3422 73.7594 69.9507C74.513 69.0715 75.2487 68.2101 76.0024 67.3488C79.5195 63.3473 83.844 58.933 89.2452 56.5285C95.077 53.9625 101.609 54.3573 105.879 57.5334L105.431 58.1435C101.357 55.1289 95.1309 54.752 89.5502 57.2283C84.2747 59.5611 80.0219 63.9036 76.5766 67.8513C75.823 68.7126 75.0872 69.5739 74.3336 70.4532C71.4087 73.8805 68.3761 77.4155 64.7694 80.2507C59.5476 84.3419 53.8414 86.2081 48.6914 85.4904L48.7991 84.7367C55.4743 85.6519 61.3779 81.9374 64.3028 79.6406Z" fill="#383C5D"/>
</g>
<g opacity="0.22">
<path opacity="0.22" d="M107.871 58.9687C107.136 61.4091 103.475 56.5283 103.475 56.5283C103.475 56.5283 108.607 56.5463 107.871 58.9687Z" fill="#383C5D"/>
</g>
<g opacity="0.22">
<path opacity="0.22" d="M101.591 59.3638C99.9043 61.4813 98.1816 55.2188 98.1816 55.2188C98.1816 55.2188 103.278 57.2285 101.591 59.3638Z" fill="#383C5D"/>
</g>
<g opacity="0.22">
<path opacity="0.22" d="M101.949 51.4865C104.282 52.8682 98.3242 55.4343 98.3242 55.4343C98.3242 55.4343 99.6162 50.1048 101.949 51.4865Z" fill="#383C5D"/>
</g>
<g opacity="0.22">
<path opacity="0.22" d="M92.7804 49.4047C96.3692 49.4944 91.1115 56.2773 91.1115 56.2773C91.1115 56.2773 89.2095 49.3149 92.7804 49.4047Z" fill="#383C5D"/>
</g>
<g opacity="0.22">
<path opacity="0.22" d="M82.3908 50.3197C87.2537 48.5612 83.7726 60.4402 83.7726 60.4402C83.7726 60.4402 77.528 52.0782 82.3908 50.3197Z" fill="#383C5D"/>
</g>
<g opacity="0.22">
<path opacity="0.22" d="M76.1277 56.2596C80.9905 54.5011 77.5094 66.3801 77.5094 66.3801C77.5094 66.3801 71.2648 58.0002 76.1277 56.2596Z" fill="#383C5D"/>
</g>
<g opacity="0.22">
<path opacity="0.22" d="M69.8293 63.455C74.6922 61.6964 71.211 73.5755 71.211 73.5755C71.211 73.5755 64.9665 65.2135 69.8293 63.455Z" fill="#383C5D"/>
</g>
<g opacity="0.22">
<path opacity="0.22" d="M92.5111 65.5545C90.8423 70.4533 83.7544 60.2969 83.7544 60.2969C83.7544 60.2969 94.1799 60.6737 92.5111 65.5545Z" fill="#383C5D"/>
</g>
<g opacity="0.22">
<path opacity="0.22" d="M86.123 71.2606C84.4542 76.1593 77.3662 66.0029 77.3662 66.0029C77.3662 66.0029 87.7918 66.3798 86.123 71.2606Z" fill="#383C5D"/>
</g>
<g opacity="0.22">
<path opacity="0.22" d="M96.3336 60.7098C94.575 63.8321 91.04 56.0264 91.04 56.0264C91.04 56.0264 98.0921 57.5875 96.3336 60.7098Z" fill="#383C5D"/>
</g>
</g>
<g opacity="0.22">
<g opacity="0.22">
<path opacity="0.22" d="M56.3896 64.4426L57.0715 64.5502C61.1269 42.2277 77.5637 23.9426 77.7432 23.7273L77.2407 23.2607C77.0613 23.4761 60.4989 41.9047 56.3896 64.4426Z" fill="white"/>
</g>
<g opacity="0.22">
<path opacity="0.22" d="M64.467 30.0197L63.7935 30.1265L65.4036 40.282L66.0771 40.1752L64.467 30.0197Z" fill="white"/>
</g>
<g opacity="0.22">
<path opacity="0.22" d="M75.7711 38.6697L62.9976 45.2612L63.3103 45.8672L76.0838 39.2756L75.7711 38.6697Z" fill="white"/>
</g>
<g opacity="0.22">
<path opacity="0.22" d="M60.3366 51.1278L55.5455 40.0024L54.9175 40.2716L59.9239 51.8815L71.9285 50.0512L71.8209 49.3693L60.3366 51.1278Z" fill="white"/>
</g>
</g>
</g>
</svg>
