<svg width="113" height="70" viewBox="0 0 113 70" fill="none" xmlns="http://www.w3.org/2000/svg">
<mask id="mask0" style="mask-type:alpha" maskUnits="userSpaceOnUse" x="-70" y="-42" width="156" height="157">
<path d="M-18.0645 95.0894C-4.71261 103.07 8.46639 113.024 22.269 114.02C36.0717 115.017 50.4979 107.057 61.8557 96.4764C73.2613 85.978 81.5985 72.8595 84.3436 59.0309C87.2189 45.2367 82.1853 36.4537 78.7144 22.1683C75.1955 7.80072 71.0049 -6.39611 61.587 -14.2434C52.1211 -22.1729 36.951 -30.284 22.2932 -33.3169C7.68324 -36.2676 -12.6272 -43.2232 -25.9392 -40.5393C-39.3334 -37.8075 -45.3824 -18.9395 -55.0142 -6.71962C-64.5981 5.58253 -69.3176 14.6464 -69.8566 29.6142C-70.3957 44.5821 -64.4854 59.6505 -54.7612 70.2943C-45.0369 80.938 -31.4643 87.0269 -18.0645 95.0894Z" fill="#F0ECE4"/>
</mask>
<g mask="url(#mask0)">
<rect x="-8" y="-28" width="97" height="105" fill="#F0ECE4"/>
<path d="M-20 89.7666C-18.5811 82.531 -12.5365 77.9727 -9.02974 74.9145C-1.54321 68.4059 -6.21508 63.3167 -2.28148 54.4424C0.763893 47.5991 7.50062 46.6759 11.1574 39.3594C13.4068 34.8703 11.7341 28.9272 15.5293 23.6418C19.8436 17.6294 26.4996 18.1949 30.7331 11.6978C34.8513 5.3969 40.123 1.62329 46.7674 3.4697C48.5208 3.6428 48.6593 4.06979 50.5165 5.43152C56.861 10.1283 62.2481 15.9099 62.2481 15.9099C65.3627 27.1038 68.6272 25.7652 72.4916 31.0159C78.79 39.5672 72.6646 44.4833 76.033 52.9306C83.3004 71.1755 66.274 76.2647 70.3921 87.3432L54.9461 89.7666H-20Z" fill="#32264C"/>
<path d="M74.0138 89.766H26.7183C27.5604 80.7416 34.2971 67.3551 35.3699 60.7426C35.5429 59.704 38.1961 59.2539 41.5298 59.0808C49.1202 58.7115 62.0515 60.1079 62.6398 61.7235C65.2468 68.9938 72.2489 78.2259 74.0138 89.766Z" fill="#6EB3F2"/>
<path d="M34.7012 52.9417C34.7358 54.2342 33.5246 63.8471 34.4705 64.251C44.8986 68.7863 62.0172 65.0242 63.6322 63.3855C64.3013 62.7046 62.9977 55.319 62.6286 53.4725C61.8673 49.6181 68.9731 56.0229 68.9731 56.0229C73.472 51.3722 70.5304 38.205 65.5702 32.5388C61.452 27.8304 55.2805 24.7607 48.2438 24.7607C29.0603 24.7607 22.139 42.2556 24.5038 51.1876C25.2997 54.2111 34.632 50.5183 34.7012 52.9417Z" fill="#E54925"/>
<path d="M51.312 16.3018L52.8578 26.2724C53.1462 28.8459 43.8486 29.3767 43.4448 26.5955L43.7909 22.568L51.312 16.3018Z" fill="#FAB898"/>
<path d="M52.0161 16.0481C52.1545 20.7795 47.6441 24.2416 43.7797 23.6299C41.9802 23.3414 40.9766 20.918 40.4229 19.1178C40.4229 19.1178 40.4229 19.1062 40.4229 19.0947C40.2152 18.4253 40.123 17.7214 40.146 17.029C40.1576 16.7289 40.1922 16.4404 40.2383 16.1519C40.2729 15.9327 40.3191 15.7134 40.3537 15.4826C40.4114 15.1133 40.4344 14.721 40.4575 14.2594C40.5498 12.8515 40.8728 12.2629 41.1958 11.8013C42.7761 9.59716 44.841 11.2128 47.0904 7.6238C48.5439 5.2927 51.9007 11.9167 52.0161 16.0481Z" fill="#FAB898"/>
<path d="M47.5635 17.779C47.2751 18.8638 48.2325 19.9024 49.4207 19.5908C49.7783 19.4985 50.0897 19.2562 50.2628 18.9215C50.8511 17.8252 50.0436 16.625 48.8901 16.6943C48.2671 16.7289 47.7365 17.1674 47.5635 17.779Z" fill="#EE5D37"/>
<path d="M41.7033 17.8021C41.6226 18.4945 41.0804 19.0138 40.4229 19.0946C40.2152 18.4253 40.123 17.7213 40.146 17.0289C40.1576 16.7289 40.1922 16.4404 40.2383 16.1519C40.296 16.1519 40.3537 16.1519 40.4114 16.1634C41.2304 16.2557 41.8072 16.9943 41.7033 17.8021Z" fill="#EE5D37"/>
<path d="M46.7903 3.46931C47.4247 2.82306 57.6798 1.69213 60.7828 10.6588C62.5824 15.8519 62.617 20.8141 68.0848 28.5229L67.9464 36.1047C64.3473 29.5038 58.9372 31.0156 53.4232 26.6765C50.5624 24.4262 50.8854 19.6601 50.6201 14.5363C50.4009 10.1857 43.6642 10.7396 44.8985 7.85455C46.698 3.70011 46.7903 3.46931 46.7903 3.46931Z" fill="#32264C"/>
<path d="M44.3679 33.4162C46.4673 34.1663 48.14 35.7588 49.0397 37.7552C49.1666 38.0437 49.4896 38.1361 49.7549 37.9514C51.5314 36.682 53.7808 36.1396 55.9726 36.5435C61.4058 37.5475 64.1282 43.9984 61.8095 49.63C58.1643 58.5159 45.8905 62.5434 43.0759 63.3627C42.7298 63.4666 42.3376 63.3627 42.0838 63.0973C40.0651 60.9855 31.4596 51.3495 32.7516 41.8289C33.5822 35.7703 39.1653 31.5582 44.3679 33.4162Z" fill="#F8CFC6"/>
<path d="M43.5721 52.7229C42.5224 52.342 41.2766 52.2728 40.769 52.1574C39.6962 51.9266 38.9695 51.0496 38.508 51.4996C37.6775 52.319 41.0689 53.3691 40.9074 54.1538C40.6882 54.4424 39.5693 54.5462 38.7734 54.5347C37.8274 54.5116 35.1512 53.7384 35.1051 54.3039C35.0705 54.777 37.02 55.4002 37.689 55.4925C36.9854 55.4002 33.9746 54.6501 34.1246 55.4233C34.2284 56.0003 37.7121 56.5426 38.185 56.6119C37.9543 56.5888 34.6321 55.9426 34.7821 56.5196C34.9551 57.1774 37.9774 57.5236 38.4504 57.5813C38.162 57.5582 35.3242 56.9119 35.5319 57.6274C35.6588 58.0659 38.4158 58.666 38.8887 58.7237C40.942 58.9891 46.1791 57.8467 46.8021 57.5813L47.3673 54.4077C47.3673 54.4077 46.1215 53.7499 45.4985 53.5191C44.6911 53.2306 43.9643 52.8614 43.5721 52.7229Z" fill="#FAB898"/>
<path d="M44.4835 46.0759C43.653 45.3373 42.511 44.8065 42.0842 44.518C41.1728 43.9063 40.3884 42.7985 40.0885 43.1447C39.3272 44.0564 41.715 45.7989 41.4728 46.4221C41.1613 46.6067 40.077 46.2951 39.3502 45.9836C38.4735 45.6143 36.2703 43.9063 36.028 44.4141C35.8204 44.8411 37.4007 46.1336 37.9891 46.4798C37.3777 46.1336 34.8514 44.3218 34.7014 45.1065C34.5861 45.672 37.6314 47.4722 38.0352 47.703C37.8275 47.5992 34.9783 45.7758 34.8975 46.3644C34.8168 47.0452 37.5046 48.4762 37.9083 48.707C37.6545 48.5801 35.2436 46.9414 35.1859 47.6684C35.1513 48.1185 37.493 49.6995 37.8968 49.9303C39.7078 50.9343 44.9911 51.7998 45.6717 51.7882L47.3674 49.0417C47.3674 49.0417 46.4446 47.98 45.9601 47.5299C45.3487 46.9645 44.795 46.3528 44.4835 46.0759Z" fill="#FAB898"/>
<path d="M44.3336 52.4345C46.9983 55.8389 61.8791 63.213 68.985 56.0235C68.985 56.0235 70.0578 51.3382 68.4082 49.7803C62.0637 43.7679 54.8425 49.0071 46.7907 47.38C45.5218 47.2761 43.3762 51.1651 44.3336 52.4345Z" fill="#E54925"/>
<path d="M51.0819 52.8268C52.1431 52.4806 53.4005 52.469 53.9081 52.3767C54.9809 52.1921 56.0537 51.1766 56.1921 51.8113C56.4228 52.8499 53.6658 53.7615 53.6889 54.3732C53.8965 54.6732 55.0155 54.8232 55.7999 54.8348C56.7458 54.8578 59.4566 54.177 59.4682 54.7424C59.4797 55.2156 57.5187 55.7695 56.8381 55.8272C57.5417 55.758 60.5756 55.1233 60.4025 55.8965C60.2756 56.4619 56.7689 56.8774 56.2959 56.9235C56.5266 56.912 59.8719 56.4042 59.7104 56.9581C59.5143 57.6159 56.4689 57.8352 56.0075 57.8814C56.2959 57.8698 59.1567 57.339 58.9145 58.0429C58.7645 58.4699 55.9844 58.9661 55.523 59.0123C53.4582 59.1969 48.2787 57.8467 47.6674 57.5582L47.229 54.3616C47.229 54.3616 48.4979 53.7615 49.1324 53.5538C49.9283 53.2999 50.6897 52.9537 51.0819 52.8268Z" fill="#FAB898"/>
<path d="M48.6475 58.4815C41.8992 60.801 26.384 59.8086 24.4922 51.1996L26.707 44.8872C35.0241 43.9871 42.3491 52.3998 49.1666 52.6768C50.1933 52.8268 50.2163 57.9391 48.6475 58.4815Z" fill="#E54925"/>
<path d="M42.4299 15.5177C41.2418 15.5177 40.7688 14.8369 40.7457 14.8022C40.6996 14.7215 40.7111 14.6291 40.7919 14.5714C40.8726 14.5253 40.9649 14.5368 41.0226 14.6176C41.0457 14.6522 41.6224 15.46 43.2028 15.1023C43.2951 15.0792 43.3758 15.1369 43.3989 15.2292C43.422 15.3215 43.3643 15.4023 43.272 15.4254C42.9606 15.4831 42.6837 15.5177 42.4299 15.5177Z" fill="#2D3F4C"/>
<path d="M47.3556 16.1641C46.6173 16.1641 46.0982 15.8525 46.0636 15.8294C45.9829 15.7832 45.9598 15.6794 46.0059 15.5986C46.0521 15.5178 46.1559 15.4947 46.2366 15.5409C46.2828 15.5755 47.4709 16.2679 48.7745 15.3447C48.8437 15.287 48.9475 15.3101 49.0052 15.3793C49.0628 15.4486 49.0398 15.5524 48.9706 15.6101C48.3938 16.0371 47.8286 16.1641 47.3556 16.1641Z" fill="#2D3F4C"/>
<path d="M44.3102 19.0379C44.1141 19.0379 43.9296 18.9917 43.7565 18.9109C43.4681 18.7609 43.2836 18.5186 43.2605 18.2185C43.2259 17.8492 43.4797 17.5607 43.7335 17.2953C43.8603 17.1568 43.9872 17.0184 44.068 16.8799C44.3679 16.3721 44.4717 15.4835 44.4717 15.4835C44.4833 15.3912 44.564 15.3335 44.6563 15.3335C44.7486 15.345 44.8063 15.4258 44.8063 15.5181C44.8063 15.5528 44.6909 16.4875 44.3564 17.053C44.2526 17.2261 44.1141 17.3761 43.9757 17.5261C43.7565 17.7685 43.572 17.9646 43.595 18.1954C43.6181 18.4378 43.8027 18.5647 43.918 18.6224C44.1718 18.7494 44.5179 18.7494 44.7486 18.6109C44.8293 18.5647 44.9216 18.5878 44.9793 18.6686C45.0254 18.7494 45.0024 18.8417 44.9216 18.8994C44.737 18.9802 44.5294 19.0379 44.3102 19.0379Z" fill="#2D3F4C"/>
<path d="M44.5296 20.7572C43.7221 20.688 43.1454 20.2841 43.1108 20.261C43.0415 20.2033 43.0185 20.111 43.0761 20.0302C43.1338 19.961 43.2261 19.9379 43.3069 19.9956C43.3184 20.0071 44.5066 20.8265 45.787 20.2033C45.8677 20.1687 45.9716 20.1918 46.0062 20.2841C46.0408 20.3649 46.0177 20.4687 45.9254 20.5034C45.4179 20.7342 44.9449 20.7919 44.5296 20.7572Z" fill="#2D3F4C"/>
<path d="M45.8329 23.7573C45.7406 23.7573 45.6714 23.6881 45.6714 23.5957C45.6714 23.5034 45.7406 23.4342 45.8329 23.4342C48.6129 23.4342 50.0433 21.4378 50.0549 21.4262C50.1126 21.357 50.2048 21.3339 50.2856 21.3916C50.3548 21.4493 50.3779 21.5416 50.3202 21.6224C50.274 21.6916 48.786 23.7573 45.8329 23.7573Z" fill="#2D3F4C"/>
<g opacity="0.24">
<g opacity="0.24">
<path opacity="0.24" d="M34.8025 76.0704C31.8597 71.3511 29.7243 66.1293 28.5221 60.7102C28.1991 59.2388 27.7505 57.5161 26.3688 56.9419C24.5026 56.1703 22.6364 58.0544 20.6446 58.4313C18.4554 58.826 16.3739 57.3187 14.9024 55.6499C13.431 53.9811 12.1749 52.0073 10.219 50.9486C8.19133 49.854 5.6971 49.9257 3.50791 50.6256C1.31872 51.3254 -0.63719 52.5994 -2.57516 53.8555C-3.38264 54.3938 -4.20808 54.9322 -4.81818 55.6858C-5.41033 56.4395 -5.76922 57.4802 -5.46417 58.3954C-4.96173 59.9745 -3.00582 60.4948 -1.35496 60.441C0.295907 60.3872 2.05443 60.0642 3.50791 60.8537C5.57149 61.9842 5.91243 64.7656 5.93037 67.1162C5.94831 69.4669 6.07392 72.1944 7.95806 73.5941C9.86014 74.9758 12.5518 74.2401 14.5794 73.0558C16.5174 71.9253 18.258 70.5795 20.519 72.1585C22.2954 73.3967 22.116 75.4064 22.5287 77.2547C22.9953 79.3362 23.4977 81.7587 25.2203 83.2121L30.46 84.4323C31.6264 84.3067 32.8107 84.0376 33.9232 83.7505C35.1255 83.4275 36.3457 83.1045 37.3865 82.4226C38.4272 81.7407 39.2527 80.6102 39.2527 79.3721C37.3147 79.4977 35.8253 77.7212 34.8025 76.0704Z" fill="#007F96"/>
</g>
<g opacity="0.24">
<path opacity="0.24" d="M36.6334 80.1253C36.5616 80.0535 36.436 80.0355 36.3642 80.1073C36.3462 80.1253 35.7361 80.6456 34.6595 80.4841C33.529 80.2868 31.6987 79.2639 29.4916 75.388C29.043 74.5985 28.6123 73.8448 28.2175 73.127C24.7723 66.9901 22.6908 63.2937 18.4021 65.0881C14.2929 66.8107 13.0547 64.6574 10.8297 60.7276C10.6502 60.4046 10.4708 60.0816 10.2734 59.7587C8.71226 57.067 7.07934 55.5956 5.14137 55.0932C3.02396 54.5549 0.511784 55.2188 -2.52078 57.1029C-2.6105 57.1568 -2.64639 57.2824 -2.57461 57.3721C-2.52078 57.4618 -2.39517 57.4977 -2.30545 57.4259C0.637392 55.6136 3.04191 54.9676 5.05165 55.47C6.88196 55.9365 8.4431 57.3541 9.95041 59.956C10.1478 60.297 10.3272 60.62 10.5067 60.925C12.6959 64.7651 14.1493 67.3131 18.5815 65.447C22.5472 63.7781 24.4493 67.1696 27.8946 73.3244C28.3073 74.0422 28.72 74.7959 29.1686 75.5854C31.0168 78.8153 32.8471 80.5918 34.6236 80.8789C35.3773 81.0045 35.9515 80.8071 36.2745 80.6456C36.4898 80.538 36.6154 80.4303 36.6334 80.4124C36.6872 80.3406 36.7051 80.215 36.6334 80.1253Z" fill="white"/>
</g>
</g>
<g opacity="0.22">
<g opacity="0.22">
<path opacity="0.22" d="M64.3028 79.6406C67.8558 76.8592 70.8524 73.3422 73.7594 69.9507C74.513 69.0715 75.2487 68.2101 76.0024 67.3488C79.5195 63.3473 83.844 58.933 89.2452 56.5285C95.077 53.9625 101.609 54.3573 105.879 57.5334L105.431 58.1435C101.357 55.1289 95.1309 54.752 89.5502 57.2283C84.2747 59.5611 80.0219 63.9036 76.5766 67.8513C75.823 68.7126 75.0872 69.5739 74.3336 70.4532C71.4087 73.8805 68.3761 77.4155 64.7694 80.2507C59.5476 84.3419 53.8414 86.2081 48.6914 85.4904L48.7991 84.7367C55.4743 85.6519 61.3779 81.9374 64.3028 79.6406Z" fill="#383C5D"/>
</g>
<g opacity="0.22">
<path opacity="0.22" d="M82.3908 50.3197C87.2537 48.5612 83.7726 60.4402 83.7726 60.4402C83.7726 60.4402 77.528 52.0782 82.3908 50.3197Z" fill="#383C5D"/>
</g>
<g opacity="0.22">
<path opacity="0.22" d="M76.1277 56.2596C80.9905 54.5011 77.5094 66.3801 77.5094 66.3801C77.5094 66.3801 71.2648 58.0002 76.1277 56.2596Z" fill="#383C5D"/>
</g>
<g opacity="0.22">
<path opacity="0.22" d="M69.8293 63.455C74.6922 61.6964 71.211 73.5755 71.211 73.5755C71.211 73.5755 64.9665 65.2135 69.8293 63.455Z" fill="#383C5D"/>
</g>
<g opacity="0.22">
<path opacity="0.22" d="M92.5111 65.5545C90.8423 70.4533 83.7544 60.2969 83.7544 60.2969C83.7544 60.2969 94.1799 60.6737 92.5111 65.5545Z" fill="#383C5D"/>
</g>
<g opacity="0.22">
<path opacity="0.22" d="M86.123 71.2606C84.4542 76.1593 77.3662 66.0029 77.3662 66.0029C77.3662 66.0029 87.7918 66.3798 86.123 71.2606Z" fill="#383C5D"/>
</g>
</g>
<g opacity="0.22">
<g opacity="0.22">
<path opacity="0.22" d="M56.3896 64.4426L57.0715 64.5502C61.1269 42.2277 77.5637 23.9426 77.7432 23.7273L77.2407 23.2607C77.0613 23.4761 60.4989 41.9047 56.3896 64.4426Z" fill="white"/>
</g>
<g opacity="0.22">
<path opacity="0.22" d="M64.4674 30.0197L63.7939 30.1265L65.4041 40.282L66.0776 40.1752L64.4674 30.0197Z" fill="white"/>
</g>
<g opacity="0.22">
<path opacity="0.22" d="M75.7711 38.6697L62.9976 45.2612L63.3103 45.8672L76.0838 39.2756L75.7711 38.6697Z" fill="white"/>
</g>
<g opacity="0.22">
<path opacity="0.22" d="M60.3371 51.1278L55.546 40.0024L54.918 40.2716L59.9244 51.8815L71.929 50.0512L71.8214 49.3693L60.3371 51.1278Z" fill="white"/>
</g>
</g>
</g>
</svg>
