<svg width="113" height="70" viewBox="0 0 113 70" fill="none" xmlns="http://www.w3.org/2000/svg">
<mask id="mask0" style="mask-type:alpha" maskUnits="userSpaceOnUse" x="-70" y="-42" width="156" height="157">
<path d="M-18.0645 95.0894C-4.71261 103.07 8.46639 113.024 22.269 114.02C36.0717 115.017 50.4979 107.057 61.8557 96.4764C73.2613 85.978 81.5985 72.8595 84.3436 59.0309C87.2189 45.2367 82.1853 36.4537 78.7144 22.1683C75.1955 7.80072 71.0049 -6.39611 61.587 -14.2434C52.1211 -22.1729 36.951 -30.284 22.2932 -33.3169C7.68324 -36.2676 -12.6272 -43.2232 -25.9392 -40.5393C-39.3334 -37.8075 -45.3824 -18.9395 -55.0142 -6.71962C-64.5981 5.58253 -69.3176 14.6464 -69.8566 29.6142C-70.3957 44.5821 -64.4854 59.6505 -54.7612 70.2943C-45.0369 80.938 -31.4643 87.0269 -18.0645 95.0894Z" fill="#F0ECE4"/>
</mask>
<g mask="url(#mask0)">
<rect x="-9" y="-33" width="97" height="105" fill="#F0ECE4"/>
<path d="M34.7967 73.7291C35.792 76.3982 38.1896 77.2577 40.4063 78.1625C41.2206 78.4791 45.7897 82.7315 39.0492 81.4196C37.873 81.1934 33.8467 80.2434 31.9919 79.3839C30.0919 78.5244 31.1324 75.6743 30.7705 74.5886C30.8157 74.5886 33.3039 69.8386 34.7967 73.7291Z" fill="#FDB98D"/>
<path d="M40.3161 68.5273C41.1304 71.2417 43.3924 72.3274 45.5638 73.3679C46.3781 73.775 50.54 78.3441 43.9805 76.4893C42.8043 76.1727 38.9137 74.906 37.1042 73.9107C35.2947 72.9155 36.4709 70.1559 36.2447 69.025C36.2447 69.025 39.1399 64.5011 40.3161 68.5273Z" fill="#FDB98D"/>
<path d="M17.0186 32.1995C18.1948 44.0972 33.0782 44.5949 33.8473 28.7614C34.0283 25.5947 37.1949 17.6779 27.3329 14.3755C22.9448 12.9279 17.0186 32.1995 17.0186 32.1995Z" fill="#32264C"/>
<path d="M24.935 42.4694C22.1755 58.0767 20.3207 75.9911 8.96581 75.9911C-2.38907 75.9911 -3.61051 62.0124 -5.19386 61.741C-6.91292 61.4695 -7.68198 58.5743 -7.5915 54.4576C-7.5915 54.1409 -7.5915 53.8242 -7.54626 53.5528C-6.82244 41.2479 1.18478 19.8501 15.073 22.7453C26.2017 25.0977 27.6041 27.224 24.935 42.4694Z" fill="#6EB3F2"/>
<path d="M0.416504 59.7052C0.416504 59.7052 19.1453 53.9599 25.4334 34.0097C27.9668 25.9572 32.2645 41.9264 31.1335 56.2218C30.6359 62.51 29.0978 67.9386 26.112 72.2363C21.0453 79.5649 1.04984 82.2792 0.416504 59.7052Z" fill="#E89485"/>
<path d="M35.5215 70.1558C35.5215 70.1558 13.0831 30.7078 28.4643 31.1149C39.6834 31.4316 40.7691 68.8891 40.7691 68.8891C40.9049 70.0201 35.8834 70.6987 35.5215 70.1558Z" fill="#E89485"/>
<path d="M-5.19343 61.7411C-5.19343 61.7411 10.2782 56.1768 16.6116 36.2266C16.6116 36.2266 24.5735 36.3623 24.5735 53.9601C24.5735 55.5887 23.6688 67.9388 17.2449 75.3127C11.0472 82.3246 -6.50535 79.8818 -5.19343 61.7411Z" fill="#FFA191"/>
<path d="M26.7454 64.8169C27.5144 64.6812 28.7811 64.3192 28.8716 64.0026C29.0525 63.4597 26.293 64.2288 25.2073 63.9573C24.393 63.7764 23.081 63.0978 23.0358 62.8264C23.1715 62.0121 25.7954 62.0121 26.2477 61.4692C26.5192 61.1526 25.7501 60.8811 24.3025 61.1978C22.9453 61.4692 22.4025 61.0621 21.181 61.1073C20.7286 61.1073 19.8691 61.1978 18.9643 61.243C18.2405 61.2883 17.0643 60.5645 17.0643 60.5645L16.3857 63.9121C16.9286 64.3645 21.9501 67.6217 24.1668 67.7121C26.6549 67.8479 28.3287 67.0788 28.6002 66.6717C28.7359 66.4907 27.9668 66.4002 27.5597 66.4455C28.3287 66.2193 29.143 65.9931 29.324 65.7669C29.5502 65.4502 28.0573 65.5407 26.8811 65.7669C27.9668 65.4955 29.3692 65.1788 29.5502 64.8621C30.0026 64.274 27.8763 64.6812 26.7454 64.8169Z" fill="#FDB98D"/>
<path d="M30.1834 74.951C30.1834 74.951 4.80459 35.8196 21.0452 32.5172C35.0692 29.6672 35.5216 73.5938 35.5216 73.5938C35.7478 75.1319 30.9072 75.5391 30.1834 74.951Z" fill="#FFA191"/>
<path d="M16.0236 64.8177C9.73542 60.7915 1.41153 61.1987 -3.83615 55.77C-5.78141 53.7795 -7.50047 50.6128 -7.86238 46.4961C-7.90762 46.2699 -7.90762 46.0437 -7.90762 45.8628C-8.49572 36.3627 -2.29803 23.9221 11.2283 23.334L13.5355 34.6889C15.7521 39.0318 9.19256 43.7366 11.2735 46.2247C15.4355 51.2009 13.9426 53.87 14.7569 56.6296C14.8021 56.8558 14.8926 57.0819 14.9831 57.2629C15.345 58.032 17.1093 59.1177 18.1046 59.932C19.145 60.8367 17.0188 65.4511 16.0236 64.8177Z" fill="#6EB3F2"/>
<path d="M20.3212 23.3335L13.0378 27.5859C11.183 29.4859 14.5307 34.4169 16.7021 32.4264L19.8688 30.2098L20.3212 23.3335Z" fill="#C78E85"/>
<path d="M26.2924 31.4768C25.8401 31.7934 25.4329 32.1101 24.9353 32.3363C24.3019 32.653 23.6234 32.8791 22.8995 32.9696C20.9995 33.2411 18.059 33.1506 17.109 31.5672C15.4352 28.7624 16.5661 23.1981 20.9995 21.2981C24.8448 19.6242 32.1735 19.579 30.6806 21.8862C28.3282 25.5053 30.6806 26.7267 29.3234 29.1243C29.052 29.622 28.6448 30.1648 27.3782 30.8434C26.971 31.0696 26.6091 31.2506 26.2924 31.4768Z" fill="#FDB98D"/>
<path d="M20.909 26.7271C20.0495 27.27 18.9185 26.9985 18.3757 26.139C17.8328 25.2795 18.1042 24.1485 18.9638 23.6056C19.8233 23.0628 20.9543 23.3342 21.4971 24.1937C22.04 25.0533 21.7686 26.1842 20.909 26.7271Z" fill="#ED715D"/>
<path d="M24.9351 32.291C24.3018 32.6077 23.6232 32.7887 22.8994 32.9244C22.6279 32.1101 22.8994 31.2053 23.6684 30.7077C24.528 30.1648 25.6589 30.4363 26.2018 31.2958C26.247 31.341 26.247 31.3863 26.247 31.4315C25.8399 31.7482 25.4327 32.0649 24.9351 32.291Z" fill="#ED715D"/>
<path d="M23.578 26.6813C23.578 26.6813 22.1304 26.6361 22.2209 23.967C22.2209 23.6504 22.4471 25.0075 22.7637 25.7313C23.1256 26.4552 23.9399 26.7266 23.578 26.6813Z" fill="#002869"/>
<path d="M26.7901 30.7077C26.4282 30.7077 24.5281 29.8934 25.2067 28.8077C25.3877 28.5362 25.071 29.3958 25.7044 29.8934C26.2925 30.4362 27.0163 30.7077 26.7901 30.7077Z" fill="#002869"/>
<path d="M21.4966 29.0338C21.7228 29.4862 22.1752 30.0743 22.7633 29.8933C22.9895 29.8029 23.1252 29.6219 23.2609 29.3957C23.5776 28.8528 23.8942 28.4005 24.4823 28.0838C24.5728 28.0385 24.5276 27.9028 24.4371 27.9481C23.8942 28.2195 23.5323 28.6719 23.2156 29.1695C23.0347 29.4862 22.899 29.8029 22.4466 29.7124C22.0394 29.6671 21.768 29.26 21.6323 28.9433C21.5871 28.8981 21.4966 28.9433 21.4966 29.0338Z" fill="#ED715D"/>
<path d="M33.6211 19.9859C33.6211 19.9859 30.3187 9.762 20.0495 14.0597C16.1138 15.6882 8.19701 10.4406 7.65415 20.0764C7.33748 25.9122 -0.760222 18.9454 0.41598 30.7075C1.1398 37.9456 11.0018 45.5005 14.078 42.5147C19.4614 37.267 11.1828 31.6575 18.4209 25.9574C19.5067 25.2336 20.0948 24.2383 20.6829 23.3336C20.8186 23.1526 20.909 22.9717 21.0448 22.7907C21.4519 22.2026 21.9495 21.705 22.6281 21.524C24.6638 20.9359 24.7543 24.9169 27.7853 25.5955C32.0377 26.5907 33.6211 19.9859 33.6211 19.9859Z" fill="#32264C"/>
<path d="M20.6823 31.7482C20.4108 31.6577 21.0442 30.3005 19.3703 29.5315C19.1894 29.1243 21.3156 29.8934 20.6823 31.7482Z" fill="#ED715D"/>
<path d="M44.9281 43.1755C45.4188 43.1318 47.7408 41.4413 49.8088 39.9611C53.2752 37.4491 57.1833 34.6113 58.6026 34.6553C61.8582 34.7541 65.5012 34.4535 68.8463 33.8724C78.7135 32.1169 84.6638 25.0215 83.2812 16.5842C82.6565 12.7484 80.1094 9.0805 76.2918 6.46364C71.7244 3.35425 66.0544 2.26321 60.7764 3.42914C48.9044 6.07263 42.2321 13.7916 44.0684 22.6899C44.9227 26.6519 47.0739 29.4752 50.6236 31.2667C50.6709 31.3 50.7655 31.3666 50.7865 31.4875C50.9651 32.0377 49.9747 33.746 47.9344 37.2973C46.625 39.5592 44.8301 42.6112 44.9281 43.1755Z" fill="white"/>
<path d="M72.4654 13.0435C71.5186 10.3408 68.6366 8.82312 65.8913 9.80907C65.559 9.91744 65.1539 9.8179 64.962 9.52293C63.7681 7.79218 61.6786 6.88227 59.5676 7.40451C57.6219 7.893 56.3247 9.47431 55.875 11.3382C55.8199 11.6634 55.564 11.8979 55.2726 12.008C52.1133 13.0988 50.4854 16.6311 51.5317 19.8704C52.7237 23.5255 56.9561 25.061 60.151 23.1529C60.3198 23.0374 60.5633 23.0889 60.7196 23.2595C62.1534 25.1236 64.4863 26.085 66.8478 25.4509C68.049 25.1347 69.1028 24.4435 69.8811 23.4948C70.0535 23.2975 70.1459 23.0559 70.3165 22.8995C70.6594 22.546 70.7749 22.7148 71.2618 22.8179C71.9512 22.9707 72.6477 22.9601 73.3087 22.8251C75.5032 22.2656 76.8253 20.1121 76.6762 17.8946C76.5218 15.7997 75.0809 14.0991 73.0944 13.6441C72.8119 13.5499 72.5756 13.3349 72.4654 13.0435Z" fill="#6EB3F2"/>
<path d="M64.9806 21.3159L62.9262 26.1808L65.4244 27.1085L64.9745 31.7976L67.2866 26.6574L64.4633 25.6745L64.9806 21.3159Z" fill="#F1D669"/>
<path d="M69.8399 27.2599C69.815 27.8321 69.4774 28.063 69.1095 28.047L69.0687 28.0452C68.7027 27.9884 68.4273 27.7307 68.4504 27.1994C68.4718 26.709 68.9907 26.0765 69.163 25.8793C69.2057 25.8402 69.2074 25.7993 69.2074 25.7993C69.2074 25.7993 69.8648 26.6878 69.8399 27.2599Z" fill="#6EB3F2"/>
<path d="M59.7134 26.6139C59.6885 27.1861 59.3509 27.417 58.9831 27.401L58.9422 27.3992C58.5762 27.3424 58.3008 27.0847 58.3239 26.5534C58.3453 26.063 58.8642 25.4305 59.0366 25.2333C59.0792 25.1942 59.081 25.1533 59.081 25.1533C59.081 25.1533 59.7384 26.0418 59.7134 26.6139Z" fill="#6EB3F2"/>
<path d="M63.0455 30.9767C63.0205 31.5489 62.6829 31.7798 62.3151 31.7638L62.2743 31.762C61.9082 31.7052 61.6328 31.4475 61.656 30.9162C61.6773 30.4258 62.1962 29.7933 62.3686 29.5961C62.4112 29.557 62.413 29.5161 62.413 29.5161C62.413 29.5161 63.0704 30.4046 63.0455 30.9767Z" fill="#6EB3F2"/>
</g>
</svg>
