<svg width="113" height="70" viewBox="0 0 113 70" fill="none" xmlns="http://www.w3.org/2000/svg">
<mask id="mask0" style="mask-type:alpha" maskUnits="userSpaceOnUse" x="-98" y="-74" width="211" height="217">
<path d="M-18.0645 95.0894C-4.71261 103.07 8.46639 113.024 22.269 114.02C36.0717 115.017 50.4979 107.057 61.8557 96.4764C73.2613 85.978 81.5985 72.8595 84.3436 59.0309C87.2189 45.2367 82.1853 36.4537 78.7144 22.1683C75.1955 7.80072 71.0049 -6.39611 61.587 -14.2434C52.1211 -22.1729 36.951 -30.284 22.2932 -33.3169C7.68324 -36.2676 -12.6272 -43.2232 -25.9392 -40.5393C-39.3334 -37.8075 -45.3824 -18.9395 -55.0142 -6.71962C-64.5981 5.58253 -69.3176 14.6464 -69.8566 29.6142C-70.3957 44.5821 -64.4854 59.6505 -54.7612 70.2943C-45.0369 80.938 -31.4643 87.0269 -18.0645 95.0894Z" fill="#F0ECE4"/>
</mask>
<g mask="url(#mask0)">
<rect x="-12.0718" y="-9.46729" width="104.833" height="106.256" fill="#F0ECE4"/>
<path d="M91.518 69.5635V94.6978H-19.8242C-17.6141 89.3427 -13.6131 85.711 -10.279 82.5923C-3.17242 75.9445 -7.61163 70.733 -3.87736 61.6641C-1.00045 54.6676 5.40116 53.7237 8.88774 46.2553C11.0216 41.6593 8.67817 36.5708 13.0412 30.1898C19.3094 21.0389 28.4355 26.1683 31.9221 17.5508C34.5894 10.9851 40.5909 6.67638 45.9828 10.0003C51.165 7.86641 57.2046 11.0672 59.7957 17.5508C63.2442 26.1888 67.9121 23.7677 72.3703 30.1898C76.7714 36.5298 74.3899 41.6593 76.5238 46.2553C79.9913 53.7237 86.3929 54.6676 89.2889 61.6641C90.3558 64.2699 91.156 66.9988 91.518 69.5635Z" fill="#32264C"/>
<path d="M45.3726 94.6982H2.84766C4.04796 80.9102 8.43001 72.026 8.43001 72.026C8.90632 69.3176 29.0066 65.3167 36.8943 67.3274C38.2661 67.6762 39.1996 68.1481 39.4664 68.7636C41.9051 74.3855 44.1532 83.3723 45.3726 94.6982Z" fill="#FFA191"/>
<path d="M44.9347 47.8971C45.2395 54.0319 41.8673 73.0519 39.1047 75.1653C32.3029 80.3973 11.3834 78.3866 4.0292 74.837C3.53384 74.5908 0.733132 55.7554 2.80984 46.7686C5.2295 36.3455 12.336 26.4559 19.5378 25.5532C48.1355 21.942 44.9347 47.8971 44.9347 47.8971Z" fill="#E54925"/>
<path d="M68.5593 94.6982H26.7012C28.8922 85.4857 32.7408 74.3445 34.0554 68.1686C34.284 67.1222 36.6275 66.5888 39.7902 66.4246C46.992 66.0553 58.4615 67.5736 59.014 69.215C60.4811 73.729 65.8539 83.7417 68.5593 94.6982Z" fill="#6EB3F2"/>
<path d="M31.7697 94.6977C33.3701 82.6127 38.095 67.0397 38.1522 66.855L37.9236 66.7729C37.8664 66.9576 33.1224 82.5717 31.522 94.6977H31.7697Z" fill="white"/>
<path d="M41.0858 68.6197L40.8381 68.5581C40.8 68.7428 37.5992 83.8644 36.5132 94.6978H36.7609C37.8659 83.9054 41.0477 68.8043 41.0858 68.6197Z" fill="white"/>
<path d="M43.0675 94.6979C44.1154 84.7468 44.1154 68.5377 44.1154 68.3325H43.8677C43.8677 68.5377 43.8868 84.7878 42.8198 94.6979H43.0675Z" fill="white"/>
<path d="M51.4884 69.2559L51.2407 69.3174C51.2788 69.4816 55.2036 84.6237 56.3468 94.6774H56.5944C55.4513 84.6032 51.5265 69.4405 51.4884 69.2559Z" fill="white"/>
<path d="M32.3217 60.0432C32.3598 61.3769 30.9309 70.4047 32.5504 71.0408C42.7053 74.9802 59.0903 72.395 60.805 70.9382C61.7386 70.138 60.5002 65.583 60.2144 60.0432C60.0049 56.0423 65.4348 60.0638 65.4348 60.0638C66.9971 49.456 60.8813 32.1185 46.1728 31.3593C30.3022 30.5591 22.9098 40.6949 22.7955 52.4311C22.7574 54.4624 32.2455 57.5811 32.3217 60.0432Z" fill="#528A4F"/>
<path d="M49.0685 22.7007L50.5355 32.898C50.8022 35.5243 42.3239 36.0168 41.9238 33.1648V29.1022L49.0685 22.7007Z" fill="#C78E85"/>
<path d="M38.6661 21.86C38.5899 22.414 38.4755 22.9064 38.4755 23.4398C38.4565 24.1374 38.5517 24.8761 38.7423 25.5737C39.2757 27.4203 40.2093 29.903 41.924 30.1902C45.5821 30.8057 49.8689 27.2767 49.7355 22.455C49.6212 18.2283 46.4204 11.478 45.0486 13.8375C42.9147 17.5102 40.9523 15.8482 39.4663 18.1052C39.1614 18.5771 38.8566 19.1721 38.7613 20.6289C38.7423 21.0803 38.7232 21.4907 38.6661 21.86Z" fill="#FDB98D"/>
<path d="M44.7815 24.7728C44.6672 25.7987 45.3531 26.722 46.2866 26.8451C47.2393 26.9682 48.0966 26.2296 48.2109 25.2242C48.3252 24.1983 47.6394 23.275 46.7058 23.1519C45.7532 23.0288 44.8958 23.7469 44.7815 24.7728Z" fill="#ED715D"/>
<path d="M38.4751 23.4393C38.456 24.1369 38.5132 24.8755 38.7418 25.5731C39.542 25.491 40.2089 24.8345 40.3041 23.9317C40.4184 22.9058 39.7325 21.9825 38.799 21.8594C38.7609 21.8594 38.7228 21.8594 38.6656 21.8389C38.5894 22.4134 38.4751 22.9058 38.4751 23.4393Z" fill="#ED715D"/>
<path d="M41.0856 26.1267C41.1428 26.0652 41.2 26.0857 41.2381 26.1267C42.2097 27.2963 43.391 26.3319 43.4481 26.2909C43.4862 26.2498 43.5434 26.2704 43.5815 26.3114C43.6196 26.3524 43.6006 26.414 43.5624 26.455C43.5434 26.4755 42.1907 27.563 41.1047 26.2498C41.0475 26.2293 41.0475 26.1678 41.0856 26.1267Z" fill="#ED715D"/>
<path d="M41.5054 24.6494C41.5245 24.6904 41.5435 24.7315 41.5816 24.7725C41.8293 25.1213 42.3818 25.2444 42.8582 25.0392C42.9153 25.0187 42.9344 24.9571 42.9153 24.9161C42.8963 24.8546 42.8391 24.834 42.801 24.8546C42.3437 25.0597 41.9055 24.8956 41.7341 24.6494C41.6007 24.4647 41.6197 24.2185 41.7912 23.9723C42.6486 22.7207 42.6867 21.8384 42.7057 21.8179C42.7057 21.7564 42.6676 21.7153 42.6105 21.7153C42.5533 21.7153 42.5152 21.7564 42.5152 21.8179C42.5152 21.8179 42.4771 22.6592 41.6388 23.8697C41.4483 24.1364 41.3911 24.4032 41.5054 24.6494Z" fill="#ED715D"/>
<path d="M45.6583 10.4105C46.2871 9.79498 59.8905 38.8892 59.8905 38.8892C57.8328 36.263 52.2505 35.709 50.25 33.6367C47.7922 31.0925 48.0971 26.8453 48.1161 21.6748C48.1352 17.284 43.4102 18.8228 43.6769 14.7193C43.9436 10.1643 45.6583 10.4105 45.6583 10.4105Z" fill="#32264C"/>
<path d="M45.4488 22.5779C44.5343 22.5779 43.8865 21.9829 43.8675 21.9829C43.8294 21.9419 43.8103 21.8598 43.8484 21.8188C43.8865 21.7777 43.9627 21.7572 44.0008 21.7982C44.058 21.8393 45.2392 22.9267 46.7253 21.9008C46.7825 21.8598 46.8396 21.8803 46.8777 21.9419C46.9158 22.0034 46.8968 22.065 46.8396 22.106C46.3443 22.4548 45.868 22.5779 45.4488 22.5779Z" fill="#FFA191"/>
<path d="M40.7052 21.7368C39.6764 21.7368 39.0286 21.0187 39.0286 20.9981C38.9905 20.9571 38.9905 20.875 39.0286 20.834C39.0667 20.793 39.1429 20.793 39.181 20.834C39.2191 20.875 40.0765 21.8394 41.4292 21.3675C41.4863 21.3469 41.5435 21.388 41.5625 21.4495C41.5816 21.5111 41.5435 21.5726 41.4863 21.5932C41.2196 21.6957 40.9529 21.7368 40.7052 21.7368Z" fill="#FFA191"/>
<path d="M47.3736 43.0348C52.956 51.6318 57.9477 61.4803 49.8885 65.6044C44.0204 68.6 36.2661 62.3421 32.1698 52.2063C28.2831 42.5424 25.7872 34.6225 30.779 31.5243C35.7898 28.4466 41.1054 33.3709 47.3736 43.0348Z" fill="white"/>
<path d="M38.7239 36.1814C38.8382 36.3661 38.9525 36.5713 39.0668 36.7559C39.1621 36.9611 39.2764 37.2278 39.3526 37.5151C39.6765 38.6436 39.7146 41.0852 38.5524 41.7828C36.4757 43.0549 33.5226 42.1521 32.5128 40.2645C31.0077 37.433 31.6174 35.4838 32.9891 34.3553C35.0658 32.6524 37.1997 34.3143 37.9618 35.135C38.1523 35.3607 38.381 35.648 38.7239 36.1814Z" fill="#FDB98D"/>
<path d="M35.3704 39.5049C35.5991 39.9152 35.4847 40.4487 35.1037 40.7154C34.7227 40.9617 34.2273 40.8385 33.9796 40.4282C33.751 40.0178 33.8653 39.4844 34.2463 39.2176C34.6274 38.9714 35.1228 39.0945 35.3704 39.5049Z" fill="#ED715D"/>
<path d="M38.7241 36.1812C38.8384 36.3658 38.9528 36.571 39.0671 36.7557C39.1623 36.9608 39.2767 37.2276 39.3529 37.5148C39.2957 37.6174 39.2004 37.72 39.0861 37.8021C38.7051 38.0483 38.2097 37.9252 37.962 37.5148C37.7334 37.1045 37.8477 36.571 38.2288 36.3043C38.4002 36.2222 38.5717 36.1812 38.7241 36.1812Z" fill="#ED715D"/>
<path d="M33.2559 41.2088C34.9706 42.1116 37.7141 39.5879 40.4196 42.9529C44.1538 47.6309 34.1132 43.9993 33.2559 41.2088Z" fill="white"/>
<path d="M38.7239 42.6234C37.7713 40.2844 39.6955 38.3352 39.2002 37.0836C39.2002 37.0631 44.592 40.4075 38.7239 42.6234Z" fill="white"/>
<path d="M34.2273 38.8899C34.0939 38.8899 34.0177 38.8694 33.9986 38.8694C33.9415 38.8489 33.9034 38.7873 33.9224 38.7257C33.9415 38.6642 33.9986 38.6232 34.0558 38.6437C34.0939 38.6437 34.7607 38.8078 35.2752 37.9871C35.3133 37.9256 35.3704 37.9256 35.4276 37.9666C35.4847 38.0076 35.4847 38.0692 35.4466 38.1307C35.0275 38.7873 34.5131 38.8899 34.2273 38.8899Z" fill="#FFA191"/>
<path d="M36.9327 37.126C36.8755 37.126 36.8374 37.044 36.8184 36.9824C36.8184 36.9209 36.8565 36.8388 36.9136 36.8388C36.9327 36.8388 37.5614 36.7772 37.8091 35.9976C37.8281 35.936 37.8853 35.895 37.9424 35.9155C37.9996 35.936 38.0187 36.0386 37.9996 36.1002C37.7138 37.0235 36.9517 37.126 36.9327 37.126Z" fill="#FFA191"/>
<path d="M37.085 40.3049C37.0279 40.3049 36.9707 40.2844 36.9707 40.2228C36.9707 40.1613 37.0088 40.1202 37.066 40.1202C37.066 40.1202 37.6756 40.1202 37.8852 39.6278C37.9043 39.5663 37.9805 39.5457 38.0186 39.5868C38.0757 39.6073 38.0948 39.6483 38.0757 39.7099C37.8281 40.3049 37.1231 40.3049 37.085 40.3049Z" fill="#ED715D"/>
<path d="M36.9517 39.1556C36.8945 39.1556 36.8564 39.0941 36.8374 39.0325C36.8374 38.971 36.8755 38.9094 36.9327 38.9094C37.1041 38.9094 37.2565 38.8273 37.3137 38.7248C37.3518 38.6632 37.3709 38.6016 37.3518 38.5606C37.2946 38.376 37.2184 38.3554 37.0089 38.3144C36.7802 38.2528 36.4563 38.1913 36.2087 37.7194C36.1896 37.6578 36.1896 37.5963 36.2468 37.5552C36.3039 37.5347 36.3611 37.5347 36.3992 37.5963C36.5897 37.9861 36.8374 38.0272 37.047 38.0887C37.2375 38.1297 37.4661 38.1913 37.5614 38.4991C37.5995 38.6017 37.5614 38.7453 37.4852 38.8684C37.4471 38.971 37.2946 39.1556 36.9517 39.1556Z" fill="#ED715D"/>
<path d="M39.6004 44.7378C39.5814 44.7378 39.5623 44.7378 39.5432 44.7173C36.5711 42.2346 31.4269 43.8966 31.3698 43.9171C31.3126 43.9376 31.2555 43.8966 31.2364 43.835C31.2173 43.7735 31.2555 43.7119 31.3126 43.6914C31.3698 43.6709 36.6092 41.9884 39.6766 44.5326C39.7147 44.5737 39.7338 44.6352 39.6957 44.6968C39.6576 44.7173 39.6385 44.7378 39.6004 44.7378Z" fill="#2F2F2A"/>
<path d="M42.077 49.374C42.0389 49.374 42.0008 49.3535 41.9817 49.3124C41.9436 49.2304 38.7809 41.7824 42.0579 37.248C42.096 37.2069 42.1532 37.1864 42.2104 37.2274C42.2485 37.2685 42.2675 37.33 42.2294 37.3916C39.0286 41.8234 42.1341 49.1483 42.1722 49.2304C42.1913 49.2919 42.1723 49.3535 42.1151 49.374C42.096 49.374 42.077 49.374 42.077 49.374Z" fill="#2F2F2A"/>
<path d="M46.6687 56.4328C47.6404 56.0019 48.8788 56.043 49.4123 55.7762C50.6126 55.1607 51.2223 54.8529 51.4509 55.0376C52.3464 55.7557 49.0884 57.0278 49.2408 57.828C49.4694 58.1153 50.5364 58.1768 51.2794 58.1563C52.1749 58.1153 54.6898 57.233 54.747 57.8075C54.7851 58.2794 52.9751 58.9975 52.3273 59.1001C52.9941 58.977 55.8139 58.1153 55.7186 58.9155C55.6424 59.5105 52.3463 60.1671 51.9081 60.2491C52.1177 60.2286 55.2614 59.4489 55.1471 60.0439C55.0137 60.721 52.1368 61.1724 51.6986 61.2545C51.9653 61.2135 54.6517 60.4748 54.4612 61.2135C54.3469 61.6648 51.7557 62.3625 51.3175 62.4445C49.3742 62.7933 44.3824 61.7674 43.7728 61.5212L43.144 58.2999C43.144 58.2999 44.3062 57.6023 44.8969 57.3356C45.6018 56.9868 46.2877 56.5969 46.6687 56.4328Z" fill="#FDB98D"/>
<path d="M50.2883 62.5874C47.9639 62.5874 44.1915 61.7872 43.7152 61.6025C43.6771 61.582 43.658 61.5615 43.658 61.5205L43.0293 58.2992C43.0293 58.2581 43.0483 58.1966 43.0865 58.1761C43.1436 58.1555 44.2677 57.4579 44.8393 57.2117C45.2584 57.0271 45.6776 56.8219 46.0015 56.6372C46.2492 56.5141 46.4587 56.391 46.6302 56.3295C47.1827 56.1038 47.7924 56.0012 48.3259 55.9191C48.7641 55.8576 49.1451 55.796 49.3737 55.6729C50.6884 54.9958 51.2409 54.7291 51.5076 54.9343C51.641 55.0368 51.6981 55.1599 51.6981 55.3036C51.6981 55.7139 51.0885 56.1448 50.4597 56.6167C49.9453 56.986 49.3166 57.4579 49.3356 57.7452C49.5262 57.9299 50.3645 58.053 51.2599 58.0119C51.5648 57.9914 52.0411 57.8888 52.5745 57.7657C53.6986 57.499 54.4798 57.3554 54.7465 57.5605C54.8037 57.6016 54.8418 57.6836 54.8608 57.7657C54.8799 58.053 54.4988 58.3402 54.0225 58.5864C54.8418 58.4223 55.5086 58.3812 55.7372 58.6069C55.8135 58.689 55.8516 58.7916 55.8325 58.9147C55.7944 59.202 55.2419 59.4687 54.556 59.6944C54.8989 59.6944 55.0895 59.7354 55.1847 59.838C55.2419 59.8996 55.2609 59.9816 55.2419 60.0637C55.1847 60.3304 54.8418 60.5561 54.194 60.7818C54.3274 60.8023 54.4417 60.8434 54.4988 60.9255C54.556 60.987 54.5941 61.0691 54.556 61.2127C54.4036 61.8077 51.3552 62.5258 51.3171 62.5258C51.0313 62.5669 50.6884 62.5874 50.2883 62.5874ZM43.8485 61.3974C44.6106 61.6641 49.3737 62.6284 51.279 62.2796C51.9268 62.1565 54.2702 61.4589 54.3464 61.1306C54.3655 61.0691 54.3464 61.0691 54.3274 61.0486C54.2131 60.9049 53.7558 60.946 53.2604 61.0075C52.8413 61.1101 52.3459 61.2127 51.7743 61.2948H51.7553C51.7172 61.2948 51.6981 61.2948 51.6791 61.3153C51.6219 61.3153 51.5648 61.2743 51.5648 61.2127C51.5648 61.1511 51.6029 61.0896 51.66 61.0896L51.7172 61.0691C51.7743 61.0486 51.8696 61.028 51.9839 61.0075C52.4602 60.9049 52.8794 60.8229 53.2414 60.7613C54.7465 60.392 54.9942 60.0842 55.0323 59.9611C54.9942 59.879 54.6894 59.7559 52.746 60.1253C52.4031 60.2073 52.1363 60.2484 52.003 60.2689C51.9649 60.2689 51.9268 60.2894 51.9077 60.2894C51.8506 60.2894 51.7934 60.2484 51.7934 60.1868C51.7934 60.1253 51.8315 60.0637 51.8887 60.0637C51.9077 60.0637 51.9268 60.0637 51.9649 60.0432C52.022 60.0432 52.0792 60.0227 52.1744 60.0022C52.384 59.9611 52.5745 59.9201 52.746 59.879C54.0035 59.5918 55.5848 59.1199 55.6229 58.8121C55.6229 58.7506 55.6039 58.73 55.5848 58.7095C55.299 58.4223 53.6986 58.8121 52.9365 58.9968C52.6889 59.0583 52.4793 59.0994 52.3459 59.1199C52.2888 59.1199 52.2316 59.0789 52.2316 59.0173C52.2126 58.9557 52.2697 58.8942 52.3269 58.8942C53.1271 58.7506 54.6894 58.053 54.6513 57.7247C54.6513 57.7042 54.6513 57.7042 54.6322 57.6836C54.4226 57.5195 53.3938 57.7452 52.6317 57.9298C52.0982 58.053 51.6029 58.1555 51.298 58.1761C51.2218 58.1761 49.5262 58.2581 49.1832 57.8067C49.1642 57.7862 49.1642 57.7862 49.1642 57.7657C49.0689 57.3348 49.6976 56.8629 50.3835 56.3705C50.917 55.9807 51.5076 55.5293 51.5267 55.242C51.5267 55.201 51.5076 55.1394 51.4124 55.0574C51.2409 54.9137 50.555 55.2831 49.4881 55.8165C49.2213 55.9396 48.8403 56.0012 48.383 56.0832C47.8496 56.1653 47.2589 56.2474 46.7445 56.4731C46.5921 56.5346 46.3825 56.6577 46.1348 56.7809C45.7919 56.945 45.3727 57.1707 44.9536 57.3554C44.4582 57.5605 43.5437 58.1145 43.277 58.2787L43.8485 61.3974Z" fill="#ED715D"/>
<path d="M44.0772 62.7727C39.1427 63.4087 30.2071 65.8709 24.8153 58.3203C19.8235 51.3032 25.5393 46.3584 25.5393 46.3584C31.2359 46.3584 34.0176 56.4121 44.2487 56.9866C45.2013 57.2739 45.4871 62.1776 44.0772 62.7727Z" fill="#528A4F"/>
<path d="M41.0479 59.2231C40.1144 58.7101 38.895 58.6281 38.3806 58.2998C37.2375 57.5611 36.6659 57.2123 36.4182 57.356C35.4656 57.9715 38.6092 59.5719 38.3615 60.3516C38.1139 60.6183 37.0469 60.5773 36.3039 60.4747C35.4084 60.331 32.9888 59.2026 32.8745 59.7771C32.7982 60.249 34.5511 61.1312 35.1607 61.3159C34.513 61.1312 31.7694 59.9822 31.8075 60.803C31.8456 61.398 35.0655 62.3828 35.4846 62.5059C35.2751 62.4649 32.2076 61.3775 32.2838 61.9725C32.36 62.6701 35.1798 63.3882 35.618 63.5113C35.3513 63.4498 32.7411 62.4444 32.8745 63.183C32.9507 63.6344 35.4656 64.5988 35.9038 64.7219C37.809 65.2553 42.877 64.7424 43.4866 64.5577L44.3821 61.398C44.3821 61.398 43.2771 60.5773 42.7245 60.2695C42.0577 59.9002 41.3909 59.4283 41.0479 59.2231Z" fill="#FDB98D"/>
<path d="M42.0006 65.0913C44.5917 66.3634 51.4506 67.9638 55.8708 67.02C67.7976 64.4758 66.4829 57.1919 63.1488 55.3864C55.7374 51.3854 50.6123 58.6282 42.858 59.4079C41.9054 59.1206 40.7813 64.127 42.0006 65.0913Z" fill="#528A4F"/>
<path d="M47.1252 66.8557C44.3626 66.2607 42.5145 65.3784 42.4764 65.3579C42.4193 65.3374 42.4002 65.2553 42.4193 65.2143C42.4383 65.1527 42.4955 65.1322 42.5526 65.1527C42.6288 65.1937 50.4022 68.8459 57.8136 66.2812C57.8707 66.2607 57.9279 66.3017 57.947 66.3633C57.966 66.4248 57.9279 66.4864 57.8707 66.5069C54.0222 67.8405 50.0593 67.5123 47.1252 66.8557Z" fill="#2F2F2A"/>
<path d="M54.4793 55.1609C54.4412 55.1609 54.4222 55.1404 54.4031 55.0994C54.3841 55.0378 54.4031 54.9763 54.4603 54.9558C54.5937 54.8942 57.985 53.3143 60.5952 54.3197C60.6523 54.3402 60.6714 54.4018 60.6523 54.4633C60.6333 54.5249 60.5761 54.5454 60.519 54.5249C58.004 53.5605 54.5746 55.1404 54.5556 55.1609C54.5175 55.1609 54.4984 55.1609 54.4793 55.1609Z" fill="#2F2F2A"/>
<path d="M45.0107 58.1972C45.4489 56.7814 44.8773 56.802 44.744 56.8225C44.5534 56.843 44.3248 57.2123 44.02 57.6637C44.1152 57.4791 44.1724 57.3149 44.2486 57.1302C44.5534 56.3301 44.3057 56.0428 44.0009 56.0633C43.7532 56.0838 43.4865 56.5352 43.2579 56.802C42.4767 57.7253 41.2383 58.3613 39.5236 58.2382C40.1142 57.9304 41.7337 57.5611 42.0766 56.4942C42.229 56.0223 42.1528 55.4478 41.4479 55.7966C40.9335 56.0633 41.0478 56.5147 38.4186 56.6789C35.8274 56.843 34.7033 59.2231 33.846 59.2025C32.6076 59.182 31.3311 58.7922 30.9881 59.4077C30.5309 60.2284 29.6735 64.8655 31.5025 65.1732C32.2265 65.2963 34.1318 64.3936 35.6941 63.6754C36.7229 63.2035 40.1523 64.0858 42.0004 63.3882C43.7532 62.7111 45.0869 60.7414 44.6868 60.3105C45.5061 58.9358 45.2774 58.3818 45.0107 58.1972Z" fill="#FDB98D"/>
<path d="M31.5032 65.2755C31.4841 65.2755 31.4841 65.2755 31.465 65.2755C31.0649 65.214 30.7601 64.9472 30.5505 64.4753C29.9028 62.998 30.5505 59.9819 30.8935 59.3664C31.1793 58.8534 31.9414 58.9355 32.8368 59.0381C33.1607 59.0791 33.5037 59.0997 33.8275 59.1202C34.1133 59.1202 34.4563 58.8124 34.8945 58.4021C35.6756 57.6839 36.7426 56.6991 38.3811 56.5965C40.4006 56.4734 40.7626 56.1861 41.0675 55.9399C41.1627 55.8578 41.258 55.7963 41.3723 55.7347C41.6771 55.5911 41.9058 55.5706 42.0582 55.7142C42.2487 55.8989 42.2106 56.2682 42.1344 56.5349C41.8677 57.3967 40.8198 57.807 40.0767 58.1148C40.0386 58.1353 39.9815 58.1558 39.9434 58.1764C41.62 58.1558 42.6297 57.4172 43.1823 56.7606C43.2394 56.6991 43.2966 56.617 43.3537 56.5554C43.5633 56.2887 43.7729 56.0015 44.0015 55.9809C44.1539 55.9604 44.3064 56.022 44.3826 56.1451C44.4778 56.2682 44.535 56.5144 44.4016 56.9658C44.5159 56.8222 44.6302 56.7401 44.7446 56.7401C44.9351 56.7196 45.0685 56.7811 45.1637 56.9042C45.3352 57.1299 45.3161 57.5403 45.1256 58.1764C45.2209 58.2584 45.2971 58.3815 45.3352 58.5662C45.4114 58.9766 45.2399 59.5716 44.7827 60.3307C44.8208 60.4128 44.8589 60.5359 44.8208 60.7206C44.6684 61.4797 43.5062 62.9365 42.0201 63.511C40.9912 63.9008 39.467 63.8188 38.1334 63.7367C37.1046 63.6751 36.1519 63.6136 35.7137 63.8188L35.5232 63.9008C33.98 64.5779 32.2271 65.3781 31.5032 65.2755ZM41.8296 55.7963C41.7343 55.7758 41.6009 55.8168 41.4676 55.8989C41.3532 55.9604 41.277 56.022 41.2008 56.0835C40.8769 56.3297 40.4768 56.658 38.4192 56.7811C36.8378 56.8837 35.7899 57.8276 35.0278 58.5457C34.5515 58.9765 34.1895 59.3254 33.8275 59.3254C33.4846 59.3254 33.1417 59.2843 32.8178 59.2433C31.9985 59.1612 31.2745 59.0791 31.0459 59.4895C30.722 60.0845 30.1123 63.0186 30.722 64.4138C30.8935 64.8036 31.1602 65.0293 31.5032 65.0909H31.5222C32.2081 65.1729 33.999 64.3522 35.447 63.6956L35.6375 63.6136C36.1138 63.3879 37.0474 63.4494 38.1524 63.5315C39.4671 63.6136 40.9531 63.7162 41.9629 63.3263C43.3728 62.7929 44.5159 61.3771 44.6493 60.6795C44.6684 60.5975 44.6684 60.4744 44.6112 60.4128C44.5731 60.3718 44.5731 60.3307 44.5921 60.2897C45.1447 59.3869 45.2018 58.874 45.1447 58.6278C45.1256 58.4841 45.0494 58.3815 44.9541 58.32C44.916 58.2995 44.897 58.2379 44.916 58.1969C45.1637 57.4172 45.0685 57.1299 44.9922 57.0479C44.916 56.9453 44.8208 56.9453 44.7446 56.9658C44.6112 56.9863 44.4016 57.2941 44.173 57.6429L44.0777 57.766C44.0587 57.807 44.0015 57.8276 43.9444 57.7865C43.9063 57.766 43.8872 57.7044 43.9063 57.6634C43.9825 57.4993 44.0587 57.3146 44.1349 57.1299C44.3254 56.5965 44.2683 56.3708 44.2111 56.2887C44.1539 56.2066 44.0587 56.1861 44.0015 56.2066C43.8491 56.2272 43.6586 56.4939 43.4871 56.6991C43.4299 56.7811 43.3728 56.8427 43.3156 56.9248C42.6869 57.6634 41.5247 58.5252 39.5052 58.4021C39.4671 58.4021 39.4289 58.361 39.4289 58.32C39.4289 58.2789 39.448 58.2379 39.4861 58.2174C39.6195 58.1353 39.81 58.0738 40.0386 57.9712C40.7626 57.6839 41.7533 57.2941 42.001 56.5144C42.0772 56.2477 42.0772 56.0015 41.982 55.8989C41.9248 55.8168 41.8867 55.7963 41.8296 55.7963Z" fill="#ED715D"/>
<path d="M41.2007 60.0431C41.1626 60.0431 41.1245 60.002 41.1245 59.961C41.1245 59.8995 41.1436 59.8584 41.2007 59.8379C43.0488 59.5096 44.0395 57.3758 44.0395 57.3552C44.0586 57.3142 44.1157 57.2937 44.1729 57.3142C44.211 57.3347 44.2301 57.3963 44.211 57.4578C44.1729 57.5399 43.1631 59.7148 41.2198 60.0636C41.2198 60.0431 41.2198 60.0431 41.2007 60.0431Z" fill="#ED715D"/>
<path d="M41.2388 61.6232C41.2007 61.6232 41.1626 61.5822 41.1626 61.5411C41.1626 61.4796 41.1816 61.4386 41.2388 61.4386C43.7537 61.0487 44.5158 59.1816 44.8778 58.2788C44.8969 58.2173 44.9159 58.1557 44.954 58.1147C44.9731 58.0736 45.0302 58.0326 45.0683 58.0736C45.1064 58.0942 45.1445 58.1557 45.1064 58.1967C45.0874 58.2378 45.0683 58.2993 45.0302 58.3609C44.6873 59.2226 43.868 61.2334 41.2579 61.6437C41.2579 61.6232 41.2388 61.6232 41.2388 61.6232Z" fill="#ED715D"/>
<path d="M41.5248 62.8331C41.4867 62.8331 41.4676 62.8125 41.4486 62.7715C41.4295 62.7099 41.4485 62.6689 41.5057 62.6484C41.5248 62.6484 43.7158 61.8277 44.5922 60.2683C44.6112 60.2273 44.6684 60.2068 44.7256 60.2273C44.7637 60.2478 44.7827 60.3094 44.7637 60.3709C43.8492 61.9918 41.6772 62.8125 41.5819 62.8331C41.5629 62.8331 41.5438 62.8331 41.5248 62.8331Z" fill="#ED715D"/>
<path d="M35.5041 64.2499C29.9408 68.1277 5.72522 72.4775 1.1336 60.4746C-6.94462 39.3823 9.1356 23.7272 23.9584 25.307L13.7082 42.0086C16.7375 47.2816 15.2895 48.841 16.6422 52.7189C17.5949 55.4477 27.2354 57.7662 34.2467 58.2176C35.8089 58.3202 36.6663 63.4497 35.5041 64.2499Z" fill="#E54925"/>
<path d="M18.6806 17.7764C18.6806 17.7764 18.0328 12.4623 19.5189 9.83597C20.7954 7.5585 22.7578 7.92782 22.7578 7.92782C24.3391 4.60393 26.7397 5.38361 27.94 5.835C29.4261 6.4095 30.6264 4.50134 32.5697 5.93759C33.6748 6.7583 33.027 7.96885 35.5419 8.35869C38.7999 8.85112 37.39 11.8467 38.6094 13.7138C39.7144 15.3963 39.8097 18.0841 34.7608 19.2947C32.5697 19.8076 33.1985 15.7041 32.3411 13.3445C32.1125 12.688 24.7773 20.6489 23.558 23.0084C23.0626 23.9728 21.9576 25.8809 21.2336 25.3064C21.1383 25.368 18.109 26.9478 17.3278 25.1628C16.5848 23.5214 18.6615 22.4134 19.4617 21.6542C18.6615 22.0851 17.6708 21.8184 17.385 21.3875C16.2418 19.6845 18.8139 18.8228 18.6806 17.7764Z" fill="#F1D669"/>
<path d="M21.7096 18.2891L19.3662 28.548C18.5278 31.8924 28.9876 33.4107 29.5211 30.4356L29.7878 24.6701L21.7096 18.2891Z" fill="#C78E85"/>
<path d="M34.0558 21.8792C33.9986 22.2485 33.6747 24.5055 33.2365 25.3467C33.0841 25.675 32.8745 26.0033 32.6459 26.3521C31.8457 27.6037 29.5975 29.9632 27.0445 29.3477C24.3581 28.6911 22.0909 25.8597 22.129 21.4894C19.576 21.2021 20.319 15.4366 22.6625 17.2217C22.7006 15.7854 22.2243 14.8416 22.4338 14.2876C25.7489 5.58805 33.9796 13.1181 35.0084 14.4518C36.0563 17.2832 34.1511 21.2226 34.0558 21.8792Z" fill="#FDB98D"/>
<path d="M26.5677 21.6532C26.339 22.6176 25.4436 23.1921 24.5481 22.9458C23.6526 22.6996 23.1192 21.7353 23.3478 20.771C23.5764 19.8066 24.4719 19.2321 25.3673 19.4783C26.2628 19.7245 26.7963 20.7094 26.5677 21.6532Z" fill="#ED715D"/>
<path d="M34.0554 21.8796C33.9982 22.2489 33.9792 22.5977 33.9411 22.8234C33.8077 23.8288 33.6744 24.5264 33.2362 25.3471C32.3597 25.1009 31.8263 24.1366 32.0549 23.1722C32.2835 22.2284 33.179 21.6539 34.0554 21.8796Z" fill="#ED715D"/>
<path d="M31.5978 14.9443C34.2651 14.6161 34.5128 18.2067 36.6848 17.2834C38.5328 16.4832 38.7615 12.0924 36.1894 12.5848C33.2172 13.1798 28.0159 3.10557 21.3095 13.385C20.1092 15.2111 22.9099 16.1344 22.7003 19.0889C23.0432 19.13 23.5196 19.7866 24.053 18.0631C24.6818 16.1139 25.1771 12.4207 27.1014 13.2414C28.759 13.98 28.759 15.2932 31.5978 14.9443Z" fill="#F1D669"/>
<path d="M27.177 24.465C28.3011 25.7576 29.6538 25.4293 29.8443 25.3883C29.9587 25.3678 30.073 25.573 29.9015 25.6345C29.8825 25.6345 28.1296 26.0449 27.0055 24.6086C26.9103 24.4855 27.0627 24.3419 27.177 24.465Z" fill="#ED715D"/>
<path d="M29.94 23.5211C29.9019 23.5622 29.8638 23.6032 29.8066 23.6237C29.4065 23.8699 28.7968 23.7263 28.3967 23.2954C28.3586 23.2544 28.3586 23.1723 28.3967 23.1313C28.4348 23.0902 28.5111 23.0902 28.5492 23.1313C28.9302 23.5416 29.4446 23.5827 29.7114 23.4185C29.9209 23.2954 29.9971 23.0287 29.9209 22.7004C29.5399 21.018 29.8447 20.1152 29.8638 20.0741C29.8828 20.0126 29.94 19.9921 29.9971 20.0126C30.0543 20.0331 30.0733 20.0946 30.0543 20.1562C30.0543 20.1562 29.7685 21.0385 30.1305 22.6389C30.2067 23.0287 30.1496 23.3159 29.94 23.5211Z" fill="#ED715D"/>
<path d="M28.4539 19.5816C28.4348 19.6021 28.4348 19.6021 28.4158 19.6021C26.5867 20.1972 25.5579 18.289 25.5389 18.2685C25.5008 18.2069 25.5198 18.1454 25.577 18.1249C25.6341 18.0838 25.6913 18.1043 25.7103 18.1659C25.7484 18.248 26.682 19.9304 28.3396 19.397C28.3967 19.3765 28.4539 19.4175 28.4729 19.479C28.492 19.5201 28.4729 19.5611 28.4539 19.5816Z" fill="#002869"/>
<path d="M33.9025 20.6902C33.9025 20.6902 33.8834 20.7107 33.8644 20.7107C32.0925 21.4493 31.2542 20.2183 31.2351 20.1977C31.197 20.1567 31.2161 20.0746 31.2542 20.0336C31.2923 19.9926 31.3685 20.0131 31.4066 20.0541C31.4447 20.0952 32.1687 21.1416 33.7881 20.485C33.8453 20.4645 33.9025 20.485 33.9215 20.5465C33.9596 20.6081 33.9406 20.6491 33.9025 20.6902Z" fill="#002869"/>
<path d="M16.68 69.091C12.2217 69.091 9.03998 67.9625 6.90612 66.752C3.11469 64.5976 1.68576 61.7046 1.66671 61.6841C1.6286 61.6225 1.66671 61.5405 1.72386 61.5199C1.78102 61.4789 1.85723 61.5199 1.87628 61.5815C1.89534 61.602 3.30521 64.454 7.03948 66.5673C10.488 68.5165 16.68 70.2195 26.6063 67.2854C26.6635 67.2649 26.7397 67.306 26.7587 67.3675C26.7778 67.4291 26.7397 67.5111 26.6825 67.5317C22.7958 68.6601 19.4807 69.091 16.68 69.091Z" fill="#2F2F2A"/>
<path d="M25.9208 57.2737C25.9017 57.2737 25.9017 57.2737 25.8827 57.2737C25.2158 57.0686 24.4919 56.9455 23.806 56.7608C19.9383 55.7144 15.9183 54.6475 16.4708 51.7544C17.2329 47.774 16.0897 44.2244 14.9847 43.6294C14.9276 43.5884 14.9085 43.5268 14.9276 43.4652C14.9657 43.4037 15.0228 43.3832 15.08 43.4037C16.2612 44.0603 17.4806 47.6509 16.6804 51.816C16.166 54.4628 20.0717 55.5092 23.825 56.5146C24.5109 56.6992 25.2349 56.8429 25.9017 57.0275C25.9589 57.048 25.997 57.1096 25.9779 57.1917C26.016 57.2327 25.9779 57.2737 25.9208 57.2737Z" fill="#2F2F2A"/>
</g>
</svg>
