<svg width="113" height="70" viewBox="0 0 113 70" fill="none" xmlns="http://www.w3.org/2000/svg">
<mask id="mask0" style="mask-type:alpha" maskUnits="userSpaceOnUse" x="-70" y="-42" width="156" height="157">
<path d="M-18.0645 95.0894C-4.71261 103.07 8.46639 113.024 22.269 114.02C36.0717 115.017 50.4979 107.057 61.8557 96.4764C73.2613 85.978 81.5985 72.8595 84.3436 59.0309C87.2189 45.2367 82.1853 36.4537 78.7144 22.1683C75.1955 7.80072 71.0049 -6.39611 61.587 -14.2434C52.1211 -22.1729 36.951 -30.284 22.2932 -33.3169C7.68324 -36.2676 -12.6272 -43.2232 -25.9392 -40.5393C-39.3334 -37.8075 -45.3824 -18.9395 -55.0142 -6.71962C-64.5981 5.58253 -69.3176 14.6464 -69.8566 29.6142C-70.3957 44.5821 -64.4854 59.6505 -54.7612 70.2943C-45.0369 80.938 -31.4643 87.0269 -18.0645 95.0894Z" fill="#F0ECE4"/>
</mask>
<g mask="url(#mask0)">
<rect x="-4" y="-10" width="103" height="88" fill="#F0ECE4"/>
<path d="M20.0937 28.9067C21.1652 36.83 15.066 54.3077 19.0972 55.2624C25.5485 57.0666 59.9405 59.9608 68.0477 58.5475C68.8494 58.4648 70.0483 58.0514 70.3854 57.7507C71.4644 56.7809 71.3295 52.8795 71.1497 50.5265C70.9549 48.0158 71.2396 45.084 71.5243 42.25C72.0413 36.9954 72.446 30.1772 69.9583 28.0723C69.3215 27.5311 68.3849 27.1702 67.201 26.9146C58.2021 24.2685 29.8868 22.081 21.9744 25.554C20.6632 26.1253 19.8989 27.4935 20.0937 28.9067ZM70.0857 57.4274C69.9733 57.5327 69.8385 57.6079 69.6961 57.653C66.7964 51.0302 71.7416 32.8684 69.8235 28.5534C71.9664 30.6658 71.5768 37.1908 71.0823 42.2124C70.805 45.0614 70.5128 48.0082 70.7076 50.5641C70.8725 52.684 71.0298 56.578 70.0857 57.4274Z" fill="#FFA191"/>
<path d="M76.702 90.4425C72.2693 94.3048 47.3573 91.9199 35.4239 92.7502C35.1529 92.7696 34.8723 92.7889 34.6013 92.8082C29.5976 93.1365 24.7681 93.3199 20.8387 93.1944C20.3741 93.1847 19.9192 93.1558 19.474 93.1365C15.1575 92.8951 12.1669 92.2192 11.6056 90.8384C11.2765 90.0273 10.5797 83.2877 10.4151 79.0488C10.4054 78.8074 10.3958 78.5564 10.3958 78.3053C10.1635 70.6967 10.8023 60.4616 12.2346 57.4973C12.3024 57.3622 12.3605 57.2366 12.4379 57.1401C15.0704 53.1523 69.7626 55.2379 72.279 55.8559C73.5081 56.1649 74.3889 56.4738 74.8341 56.7828C78.8022 59.554 78.7925 88.6176 76.702 90.4425Z" fill="#528A4F"/>
<path d="M65.5039 59.2452C66.6459 59.2066 67.7879 59.1679 68.9203 59.1293C69.3946 59.11 69.3946 58.3762 68.9203 58.3858C67.7783 58.4245 66.6362 58.4631 65.5039 58.5017C65.0296 58.521 65.0199 59.2645 65.5039 59.2452Z" fill="white"/>
<path d="M71.6106 63.6962C70.7783 65.0962 69.9556 66.4963 69.1233 67.8964C68.8813 68.3019 69.4814 68.7461 69.7233 68.3309C70.5557 66.9308 71.3783 65.5307 72.2107 64.1307C72.4526 63.7251 71.8526 63.281 71.6106 63.6962Z" fill="white"/>
<path d="M60.2871 67.2979C61.4195 67.9835 62.4841 68.7463 63.481 69.6056C63.8391 69.9146 64.2553 69.2966 63.8972 68.9876C62.9003 68.1283 61.8357 67.3655 60.7033 66.6799C60.2871 66.4385 59.871 67.0565 60.2871 67.2979Z" fill="white"/>
<path d="M45.7019 68.9686C44.8696 67.5685 44.0469 66.1684 43.2146 64.7684C42.9726 64.3628 43.5727 63.9187 43.8147 64.3339C44.647 65.7339 45.4697 67.134 46.302 68.5341C46.5439 68.9493 45.9439 69.3838 45.7019 68.9686Z" fill="white"/>
<path d="M53.8027 69.316C53.8027 69.316 53.8027 66.8828 53.8027 65.6083C53.8027 65.1351 54.5479 65.1351 54.5479 65.6083C54.5479 66.8828 54.5479 68.0801 54.5479 69.316C54.5383 69.8085 53.8027 69.8085 53.8027 69.316C53.8027 69.316 53.8027 69.8085 53.8027 69.316Z" fill="white"/>
<path d="M17.393 62.2672C16.2993 61.9292 15.2153 61.5913 14.1217 61.2533C13.6668 61.1085 13.8604 60.394 14.3153 60.5388C15.4089 60.8767 16.4929 61.2147 17.5865 61.5526C18.0414 61.6975 17.8478 62.412 17.393 62.2672Z" fill="white"/>
<path d="M25.1358 65.6765C25.5616 67.2407 25.9972 68.8146 26.423 70.3788C26.5488 70.8327 25.852 71.103 25.7262 70.6395C25.3003 69.0753 24.8648 67.5014 24.4389 65.9372C24.3228 65.4834 25.01 65.213 25.1358 65.6765Z" fill="white"/>
<path d="M17.7021 70.0206C17.7021 70.0206 17.0634 72.3669 16.7246 73.5932C16.5988 74.0567 15.8826 73.8636 16.0084 73.4001C16.3472 72.1642 16.6569 71.0151 16.9859 69.8275C17.1117 69.3447 17.8279 69.5378 17.7021 70.0206C17.7021 70.0206 17.8279 69.5378 17.7021 70.0206Z" fill="white"/>
<path d="M72.0856 55.827C59.436 54.0987 51.7611 70.8803 27.5169 66.7766C21.4969 65.7531 13.9866 56.3291 12.2251 57.4975C12.2928 57.3623 12.3509 57.2368 12.4283 57.1402C17.7611 50.1881 36.8177 52.7951 44.2217 53.6642C56.0873 55.0449 61.5749 53.471 72.0856 55.827Z" fill="white"/>
<path d="M42.2943 31.1523C41.4827 35.6493 33.059 40.0113 32.7959 33.6973C32.7133 31.7454 30.7971 30.882 29.9329 28.885C28.6028 25.8068 31.3456 24.4029 31.4058 21.4899C31.4884 17.1055 34.8174 9.47023 45.3377 15.4613C48.8545 17.4734 42.2943 31.1523 42.2943 31.1523Z" fill="#32264C"/>
<path d="M19.7357 48.2546C19.9912 37.3611 29.9329 29.3204 43.1585 30.1012C54.7083 30.7919 68.6478 42.684 61.8396 57.031C61.6743 57.3839 50.8008 57.8569 42.0163 55.9499C42.129 57.3389 41.881 58.9755 41.077 59.2908C36.1474 59.8764 19.375 63.6828 19.7357 48.2546Z" fill="#6EB3F2"/>
<path d="M46.5923 22.2935L48.1553 31.3552C48.3883 33.4873 39.5662 33.3972 39.8142 31.4903L39.957 27.4587L46.5923 22.2935Z" fill="#C78E85"/>
<path d="M36.6582 23.8623C36.6732 24.3352 36.6657 24.7707 36.7408 25.2211C36.846 25.8142 37.0414 26.4073 37.3345 26.9554C38.116 28.4044 39.3709 30.2062 40.964 30.2588C43.2559 30.3413 47.8398 29.4629 46.7502 22.3983C46.2016 18.8397 41.9709 13.7795 41.1143 16.0093C39.7917 19.4628 37.7478 18.4192 36.7709 20.5739C36.568 21.0244 36.3876 21.5799 36.5454 22.8037C36.598 23.1941 36.6506 23.5394 36.6582 23.8623Z" fill="#FDB98D"/>
<path d="M42.7377 25.311C42.8054 26.1819 43.5643 26.8426 44.4435 26.775C45.3152 26.7075 45.9765 25.9492 45.9089 25.0708C45.8412 24.1999 45.0823 23.5392 44.2031 23.6068C43.3314 23.6744 42.6776 24.4402 42.7377 25.311Z" fill="#ED715D"/>
<path d="M36.7414 25.2287C36.8466 25.8219 37.0119 26.4225 37.335 26.963C38.0414 26.7603 38.5298 26.0846 38.4772 25.3188C38.4096 24.448 37.6506 23.7873 36.7714 23.8549C36.7338 23.8549 36.6963 23.8624 36.6587 23.8699C36.6812 24.3353 36.6662 24.7708 36.7414 25.2287Z" fill="#ED715D"/>
<path d="M41.8289 27.5724C41.8289 27.5799 41.8214 27.5799 41.8214 27.5875C41.7913 27.625 41.7387 27.6325 41.7012 27.6025C40.6416 26.7992 39.7173 27.8052 39.6798 27.8502C39.6497 27.8878 39.5896 27.8878 39.5595 27.8577C39.522 27.8277 39.5219 27.7676 39.552 27.7376C39.5595 27.7226 40.6191 26.5664 41.8064 27.4673C41.8289 27.4899 41.8439 27.5349 41.8289 27.5724Z" fill="#ED715D"/>
<path d="M39.6795 25.6943C39.702 25.7318 39.7321 25.7619 39.7697 25.7919C40.0552 26.0397 40.5662 26.0397 40.972 25.7844C41.0096 25.7619 41.0246 25.7018 41.002 25.6643C40.9795 25.6192 40.9194 25.6117 40.8818 25.6342C40.4986 25.882 40.0853 25.8294 39.8899 25.6568C39.7321 25.5216 39.7171 25.3114 39.8298 25.0787C40.4009 23.8775 40.2957 23.1417 40.2957 23.1117C40.2882 23.0666 40.2431 23.0291 40.198 23.0366C40.1529 23.0441 40.1153 23.0892 40.1229 23.1342C40.1229 23.1417 40.2205 23.8549 39.672 25.0036C39.5367 25.2664 39.5442 25.5141 39.6795 25.6943Z" fill="#ED715D"/>
<path d="M43.0756 23.3514C42.2415 23.5166 41.5652 23.1337 41.5577 23.1337C41.5126 23.1037 41.4976 23.0511 41.5201 22.9986C41.5502 22.9535 41.6028 22.9385 41.6554 22.961C41.708 22.9911 42.9629 23.6893 44.1202 22.5706C44.1577 22.5331 44.2178 22.5331 44.2554 22.5706C44.293 22.6082 44.293 22.6682 44.2554 22.7058C43.8647 23.0962 43.4514 23.2839 43.0756 23.3514Z" fill="#002869"/>
<path d="M38.597 23.3891C37.6727 23.5693 36.9739 23.0738 36.9664 23.0663C36.9213 23.0363 36.9138 22.9762 36.9438 22.9312C36.9739 22.8861 37.034 22.8786 37.0791 22.9086C37.1167 22.9387 38.056 23.5993 39.1982 22.9612C39.2433 22.9312 39.3034 22.9537 39.3334 22.9987C39.3635 23.0438 39.341 23.1038 39.2959 23.1339C39.0479 23.2615 38.8149 23.3441 38.597 23.3891Z" fill="#002869"/>
<path d="M39.268 42.9816C44.8182 50.9 49.7812 59.9713 41.7684 63.7699C35.934 66.529 28.2243 60.765 24.1516 51.4292C20.2873 42.528 17.8058 35.2332 22.7688 32.3795C27.7508 29.5448 33.0358 34.0804 39.268 42.9816Z" fill="#F0ECE4"/>
<path d="M30.668 36.6699C30.7816 36.84 30.8953 37.029 31.0089 37.199C31.1037 37.388 31.2173 37.6337 31.2931 37.8983C31.6151 38.9377 31.653 41.1866 30.4975 41.8292C28.4327 43.0009 25.4966 42.1693 24.4926 40.4307C22.9961 37.8227 23.6023 36.0273 24.9662 34.9879C27.031 33.4194 29.1525 34.9501 29.9103 35.7061C30.0997 35.9139 30.327 36.1785 30.668 36.6699Z" fill="#FDB98D"/>
<path d="M27.3339 39.731C27.5612 40.109 27.4476 40.6004 27.0687 40.846C26.6899 41.0728 26.1974 40.9594 25.9511 40.5815C25.7238 40.2035 25.8374 39.7121 26.2163 39.4665C26.5952 39.2397 27.0877 39.3531 27.3339 39.731Z" fill="#ED715D"/>
<path d="M30.6683 36.6694C30.7819 36.8395 30.8956 37.0285 31.0093 37.1986C31.104 37.3876 31.2176 37.6333 31.2934 37.8978C31.2366 37.9923 31.1419 38.0868 31.0282 38.1624C30.6493 38.3892 30.1568 38.2758 29.9106 37.8978C29.6833 37.5199 29.7969 37.0285 30.1758 36.7828C30.3463 36.7072 30.5167 36.6694 30.6683 36.6694Z" fill="#ED715D"/>
<path d="M25.2314 41.2994C26.9363 42.131 29.6641 39.8064 32.3539 42.9058C36.0667 47.2146 26.0839 43.8696 25.2314 41.2994Z" fill="#F0ECE4"/>
<path d="M30.6676 42.6032C29.7205 40.4487 31.6337 38.6534 31.1412 37.5006C31.1412 37.4817 36.502 40.5621 30.6676 42.6032Z" fill="#F0ECE4"/>
<path d="M26.1977 39.1644C26.0651 39.1644 25.9893 39.1455 25.9703 39.1455C25.9135 39.1266 25.8756 39.0699 25.8946 39.0132C25.9135 38.9565 25.9703 38.9187 26.0272 38.9376C26.0651 38.9376 26.7281 39.0888 27.2395 38.3328C27.2774 38.2761 27.3342 38.2761 27.3911 38.3139C27.4479 38.3517 27.4479 38.4084 27.41 38.4651C26.9933 39.0699 26.4818 39.1644 26.1977 39.1644Z" fill="#002869"/>
<path d="M28.8871 37.5384C28.8303 37.5384 28.7924 37.4628 28.7734 37.4061C28.7734 37.3494 28.8113 37.2738 28.8682 37.2738C28.8871 37.2738 29.5122 37.2171 29.7585 36.499C29.7774 36.4423 29.8342 36.4045 29.8911 36.4234C29.9479 36.4423 29.9668 36.5368 29.9479 36.5935C29.6638 37.4439 28.906 37.5384 28.8871 37.5384Z" fill="#002869"/>
<path d="M29.8718 39.7359C29.9282 39.7289 29.9869 39.7407 29.9939 39.797C30.0008 39.8533 29.9679 39.8954 29.9115 39.9024C29.9115 39.9024 29.3099 39.9766 29.1589 40.4523C29.1471 40.5109 29.0742 40.5389 29.032 40.506C28.9732 40.4942 28.9498 40.459 28.9616 40.4005C29.1386 39.8264 29.8342 39.7405 29.8718 39.7359Z" fill="#ED715D"/>
<path d="M28.9063 39.4097C28.8495 39.4097 28.8116 39.353 28.7927 39.2963C28.7927 39.2396 28.8306 39.1829 28.8874 39.1829C29.0579 39.1829 29.2094 39.1073 29.2663 39.0128C29.3041 38.9561 29.3231 38.8994 29.3041 38.8616C29.2473 38.6916 29.1715 38.6727 28.9632 38.6349C28.7359 38.5782 28.4138 38.5215 28.1676 38.0868C28.1486 38.0301 28.1486 37.9734 28.2055 37.9356C28.2623 37.9167 28.3191 37.9167 28.357 37.9734C28.5464 38.3325 28.7927 38.3703 29.0011 38.427C29.1905 38.4648 29.4178 38.5215 29.5125 38.805C29.5504 38.8994 29.5125 39.0317 29.4367 39.1451C29.3989 39.2396 29.2473 39.4097 28.9063 39.4097Z" fill="#ED715D"/>
<path d="M31.5396 44.5501C31.5206 44.5501 31.5017 44.5501 31.4827 44.5312C28.5277 42.2445 23.4131 43.7753 23.3563 43.7942C23.2994 43.8131 23.2426 43.7753 23.2237 43.7186C23.2047 43.6619 23.2426 43.6052 23.2994 43.5863C23.3563 43.5674 28.5655 42.0177 31.6153 44.3611C31.6532 44.3989 31.6722 44.4556 31.6343 44.5123C31.5964 44.5312 31.5774 44.5501 31.5396 44.5501Z" fill="#32264C"/>
<path d="M34.0019 48.8213C33.964 48.8213 33.9262 48.8024 33.9072 48.7646C33.8693 48.689 30.7248 41.8289 33.983 37.6523C34.0209 37.6145 34.0777 37.5956 34.1345 37.6334C34.1724 37.6712 34.1914 37.7279 34.1535 37.7846C30.9711 41.8666 34.0588 48.6134 34.0966 48.689C34.1156 48.7457 34.0966 48.8024 34.0398 48.8213C34.0209 48.8213 34.0019 48.8213 34.0019 48.8213Z" fill="#32264C"/>
<path d="M38.3711 14.0572C38.3711 14.0572 45.9608 7.55556 52.4759 15.1007C54.7302 17.7134 59.2615 18.1939 58.3823 24.2675C58.0667 26.4523 57.8939 27.9238 59.3442 29.5079C63.5974 34.1251 62.5754 37.0155 60.9372 40.5591C57.7887 36.0695 49.9284 36.7302 46.5168 34.4854C42.7972 32.0379 46.2463 28.5169 45.7429 23.6144C45.1717 18.0587 38.8671 20.2284 39.6411 15.9941L38.3711 14.0572Z" fill="#32264C"/>
<path d="M36.7561 55.6269C35.9972 54.8762 34.9226 54.3131 34.5243 54.0203C33.6827 53.3897 33.2393 52.3011 32.6757 52.6089C31.6763 53.1494 34.111 55.2365 33.8405 55.8221C33.5249 55.9873 32.5104 55.6269 31.8266 55.3041C31.0075 54.9137 29.0838 53.2395 28.7156 53.6374C28.2797 54.1104 29.948 55.3567 30.4965 55.7095C29.9179 55.3492 27.7237 53.4647 27.4005 54.2305C27.1 54.9362 30.0983 56.648 30.4815 56.8807C30.2936 56.7756 27.7537 54.6585 27.5358 55.4392C27.363 56.0699 29.9329 57.5939 30.3162 57.8342C30.0757 57.699 27.9716 55.8897 27.7462 56.708C27.626 57.1285 29.8578 58.7651 30.241 59.0054C31.9318 60.0639 36.9665 61.145 37.6203 61.1676L39.3787 58.615C39.3787 58.615 38.5521 57.5489 38.0937 57.0984C37.5376 56.5203 37.0417 55.9047 36.7561 55.6269Z" fill="#FDB98D"/>
<path d="M36.6355 62.0085C39.9719 64.4935 56.9247 67.8044 61.8392 57.0234C61.8392 57.0234 48.5084 46.4001 48.3206 48.5774C47.7344 55.2742 46.2541 55.8297 38.3713 56.3553C37.1615 56.5805 35.4331 61.07 36.6355 62.0085Z" fill="#6EB3F2"/>
<path d="M1.00189 9.29498C0.904696 14.0952 4.54953 18.486 12.8306 18.486C21.1117 18.486 26.1269 15.5961 26.1998 9.02208C26.2825 1.80475 18.9928 -1.64067 12.9715 -1.08998C5.49719 -0.407724 1.12339 3.10591 1.00189 9.29498Z" fill="white"/>
<path d="M23.2703 17.8564C23.2545 18.6445 23.8479 19.3654 25.1959 19.3654C26.544 19.3654 27.3605 18.891 27.3723 17.8116C27.3858 16.6267 26.1991 16.061 25.2189 16.1514C24.0021 16.2635 23.2901 16.8403 23.2703 17.8564Z" fill="white"/>
<path d="M27.3732 21.6281C27.3642 22.1296 27.7032 22.5883 28.4736 22.5883C29.2439 22.5883 29.7104 22.2864 29.7172 21.5995C29.7249 20.8455 29.0468 20.4855 28.4867 20.5431C27.7914 20.6143 27.3845 20.9814 27.3732 21.6281Z" fill="white"/>
<path d="M3.41606 10.8505C2.90681 10.1897 2.44725 9.45543 2.24853 8.64164C2.13053 8.16438 2.10569 7.63817 2.29821 7.17314C2.42862 6.86109 2.67082 6.57963 2.99997 6.46337C3.2608 6.37159 3.5651 6.41442 3.75141 6.62246C3.85698 6.73872 3.91287 6.87945 3.93772 7.03242C3.9874 7.33224 4.0495 7.6137 4.19855 7.88292C4.46559 8.36018 4.90652 8.70283 5.28534 9.08219C5.76353 9.55945 6.11752 10.1101 6.30383 10.7587C6.39077 11.0769 6.45287 11.3951 6.38456 11.7194C6.32867 11.9763 6.19204 12.215 6.01815 12.4046C5.31018 13.1634 3.82593 13.3408 3.12417 12.4781C2.92544 12.2333 2.79503 11.9335 2.69566 11.6337C2.57146 11.2605 2.50315 10.8627 2.4783 10.465C2.43483 9.61452 2.57146 8.69059 3.01239 7.95023C3.39121 7.31388 3.97498 6.76932 4.68295 6.50621C5.41576 6.23087 6.20446 6.3716 6.81307 6.85497C7.11116 7.08749 7.34715 7.38119 7.48998 7.73607C7.60798 8.03589 7.65145 8.36018 7.64524 8.67836C7.64524 8.97817 7.60798 9.27799 7.58314 9.5778C7.56451 9.82255 7.53967 10.0795 7.60798 10.3182C7.72597 10.722 8.26006 10.8933 8.63267 10.7587C8.97424 10.6363 9.17296 10.2509 9.28475 9.92657C9.45243 9.44319 9.50832 8.9231 9.52074 8.41525C9.53316 7.8768 9.50211 7.33835 9.41516 6.80602C9.35306 6.41442 9.27233 5.99224 9.0736 5.64959C8.85624 5.26411 8.34079 5.0316 7.87502 5.08055C7.67629 5.0989 7.46514 5.17845 7.34715 5.34365C7.1981 5.54557 7.22915 5.81479 7.30989 6.03506C7.38441 6.2431 7.50861 6.42667 7.59556 6.62858C7.6825 6.8305 7.75081 7.03853 7.78807 7.25881C7.84397 7.60757 7.82534 7.96858 7.70113 8.30511C7.59556 8.59269 7.42167 8.84968 7.22294 9.08831C7.03663 9.30246 6.83791 9.51662 6.57087 9.63287C6.21067 9.79196 5.8008 9.82867 5.41576 9.85926C5.04935 9.88986 4.60842 9.85927 4.30412 10.0918C3.88803 10.41 4.21718 11.0708 4.57737 11.291C5.06799 11.597 5.71385 11.4379 6.00573 10.9484C6.12373 10.7465 6.14857 10.4834 6.32866 10.3182C6.45287 10.208 6.61434 10.1897 6.76959 10.2447C6.9559 10.3059 7.11737 10.4405 7.25399 10.5752C7.44651 10.7526 7.60798 10.9606 7.76324 11.1687C8.12343 11.6459 8.42773 12.166 8.70098 12.6922C8.81898 12.9247 8.92455 13.1573 9.01771 13.3959C9.11707 13.6468 9.20402 13.9221 9.07981 14.1852C8.93698 14.4667 8.59541 14.5829 8.29732 14.5829C7.95575 14.5829 7.57693 14.4422 7.3782 14.1546C7.21052 13.9099 7.21052 13.5305 7.38441 13.2857C7.53345 13.0716 7.78186 12.9247 8.00543 12.8085C8.30353 12.6555 8.62646 12.5331 8.95561 12.4658C9.24749 12.4046 9.57042 12.3802 9.85609 12.4842C10.1542 12.5943 10.3591 12.8391 10.4523 13.1328C10.5392 13.4081 10.5392 13.7079 10.6324 13.9833C10.7317 14.277 10.9926 14.4605 11.3031 14.4728C11.626 14.4911 11.9303 14.332 12.1911 14.1668C12.483 13.9894 12.7439 13.7691 13.0233 13.5794C13.2407 13.4326 13.4891 13.2674 13.7623 13.2552C14.2281 13.2307 14.4393 13.6529 14.5386 14.0384C14.6628 14.4973 14.6815 14.9868 14.8802 15.4212C14.9609 15.6047 15.0851 15.7761 15.2776 15.8556C15.5198 15.9596 15.8179 15.9107 16.0601 15.8311C16.8054 15.5925 17.3643 14.9256 17.6189 14.2219C17.8797 13.4999 17.9605 12.6739 17.8487 11.9152C17.8052 11.6031 17.7245 11.2788 17.5382 11.0157C17.3953 10.8077 17.1718 10.6914 16.9296 10.6241C16.4328 10.4956 15.9111 10.5813 15.4081 10.514C15.2155 10.4895 15.0044 10.4344 14.874 10.2815C14.7187 10.104 14.7249 9.85315 14.7622 9.63287C14.7995 9.43096 14.8678 9.24127 14.8988 9.03935C14.9361 8.8252 14.9547 8.61104 14.9547 8.39689C14.9485 8.03588 14.8926 7.66265 14.7374 7.33224C14.6194 7.08137 14.4393 6.84274 14.1784 6.72037C13.93 6.60411 13.6444 6.62858 13.3959 6.73872C12.7314 7.04465 12.3216 7.7483 12.0732 8.39689C11.831 9.03935 11.6881 9.73077 11.6757 10.4161C11.6695 10.6547 11.6757 10.9117 11.744 11.1442C11.8372 11.4501 12.129 11.7194 12.3961 11.8907C12.7625 12.1232 13.1786 12.2456 13.6071 12.2823C14.0418 12.319 14.5076 12.319 14.8926 12.5454C15.582 12.9492 15.582 13.8303 16.0229 14.4177C16.0539 14.4605 16.085 14.4973 16.1222 14.534C16.0912 14.5095 16.1285 14.534 16.1471 14.5401C16.1098 14.5278 16.1595 14.5462 16.1719 14.5462C16.1906 14.5523 16.2092 14.5523 16.234 14.5584C16.203 14.5523 16.2651 14.5584 16.2837 14.5646C16.3148 14.5646 16.3458 14.5646 16.3707 14.5646C16.4328 14.5646 16.4949 14.5584 16.557 14.5523C16.8923 14.5217 17.2649 14.4299 17.6065 14.3259C18.0598 14.1913 18.5008 14.0261 18.9231 13.8242C19.8049 13.4142 20.7054 12.8758 21.2954 12.0987C21.5562 11.7561 21.7549 11.3583 21.8046 10.93C21.8605 10.4528 21.7301 9.98164 21.5003 9.56557C21.2147 9.0516 20.7861 8.47643 20.1713 8.3357C19.6186 8.20721 19.0535 8.4642 18.5815 8.72118C17.8673 9.10666 17.209 9.59004 16.5321 10.0367C16.3396 10.1652 16.1409 10.2937 15.9484 10.4161C15.7683 10.5262 15.5944 10.6363 15.4515 10.7954C15.2652 11.0096 15.1783 11.291 15.2714 11.5603C15.3522 11.805 15.5695 11.9825 15.8179 12.0498C16.1595 12.1415 16.4886 12.0131 16.7743 11.8295C17.4326 11.4012 17.9108 10.7771 18.4759 10.2509C18.7057 10.0367 18.9541 9.83479 19.2522 9.72466C19.5503 9.61452 19.8608 9.63899 20.1589 9.75525C20.8545 10.0245 21.165 10.6853 21.4382 11.3278C21.5935 11.6888 21.7425 12.0559 21.9661 12.3863C22.1151 12.6066 22.3201 12.833 22.5871 12.9125C23.0964 13.0532 23.4814 12.5454 23.6863 12.1599C24.0465 11.4685 24.1397 10.6486 24.09 9.88374C24.0341 9.04548 23.7919 8.20109 23.3199 7.49744C22.9597 6.96511 22.4691 6.5368 21.9226 6.20639C21.4258 5.90046 20.8855 5.66794 20.3638 5.41096C19.9105 5.18457 19.4447 4.9337 19.0907 4.56045C18.6871 4.12603 18.4635 3.41014 18.8299 2.87781C19.2087 2.32712 20.0409 2.30265 20.5564 2.66977C21.1401 3.08584 21.3947 3.85068 21.3699 4.5421C21.3575 4.96429 21.2271 5.37424 21.0532 5.7536C20.8917 6.09625 20.6619 6.44502 20.339 6.65305C20.0595 6.8305 19.7242 6.85498 19.4323 6.68977C19.1156 6.50621 18.9727 6.19415 18.8175 5.8821C18.7243 5.69242 18.625 5.50274 18.5194 5.31918C18.4138 5.14173 18.2896 4.96429 18.1033 4.85416C17.7742 4.66448 17.3767 4.8358 17.296 5.20904C17.2215 5.58228 17.4947 5.91269 17.8052 6.0779C18.0598 6.21251 18.3207 6.40831 18.4449 6.67141C18.7554 7.31388 18.1903 7.96858 17.7431 8.37854C17.0538 9.00876 16.2154 9.52885 15.3149 9.79808C14.1225 10.153 12.8619 9.99388 11.7689 9.42484C11.3776 9.22292 10.9615 8.97817 10.6634 8.65388C10.3405 8.30511 10.1852 7.8768 10.2163 7.40566C10.2411 7.00182 10.3715 6.61023 10.5889 6.26758C10.8001 5.93717 11.0857 5.64959 11.4211 5.44155C11.744 5.23963 12.1477 5.08055 12.5327 5.09891C13.2407 5.13562 13.8617 5.70466 14.1412 6.32265C14.4082 6.91616 14.4331 7.76055 13.93 8.25004C13.458 8.70283 12.5886 8.64164 12.1849 8.12767C11.7813 7.60758 11.9489 6.88556 12.3278 6.4083C12.837 5.75972 13.458 5.16009 14.2281 4.81744C14.7498 4.58493 15.2963 4.48703 15.8614 4.4442C16.3707 4.40137 16.8923 4.38913 17.3457 4.11991C17.8487 3.82009 18.0474 3.26941 17.9667 2.7126C17.8984 2.24146 17.65 1.77032 17.2339 1.51333C16.7805 1.23187 16.2589 1.32365 15.88 1.69077C15.6006 1.96 15.4205 2.30877 15.2839 2.66365C15.1845 2.92064 15.1597 3.19598 15.1969 3.47132C15.2839 4.0526 15.6068 4.57881 15.9421 5.04995C16.2713 5.51498 16.6501 5.94328 16.9793 6.4083C17.1594 6.65917 17.4637 7.06913 17.2774 7.39342C17.1221 7.66265 16.7619 7.7116 16.4886 7.65041C16.116 7.57086 15.7745 7.33223 15.4826 7.09972C15.0851 6.78155 14.7311 6.40831 14.402 6.01671C13.7065 5.19069 13.0916 4.26063 12.7004 3.25716C12.5576 2.89616 12.4396 2.49233 12.4582 2.10073C12.4644 1.94776 12.4955 1.79479 12.5762 1.66018C12.7314 1.37872 13.042 1.15233 13.3338 1.02383C13.9052 0.779084 14.5759 0.883105 15.1038 1.19516C15.6378 1.51333 16.203 2.0579 16.0726 2.73096C15.9732 3.24493 15.4826 3.56311 14.9796 3.60594C14.6753 3.63041 14.3647 3.55086 14.0915 3.41013C13.9362 3.33059 13.7996 3.22045 13.6568 3.13479C13.5139 3.04913 13.3587 2.96959 13.2034 2.90228C12.5824 2.63306 11.8868 2.51068 11.2099 2.51068C10.62 2.51068 9.99893 2.59634 9.47106 2.85333C9.11086 3.03077 8.73204 3.32448 8.73825 3.7589C8.74446 4.33406 9.29096 4.79909 9.82504 4.91534C10.3157 5.01936 10.9926 4.9031 11.3031 4.47479C11.3838 4.36465 11.4087 4.24228 11.4335 4.10155C11.4645 3.93023 11.4645 3.73443 11.4521 3.55698C11.4211 3.12255 11.2845 2.69424 11.036 2.33324C10.7504 1.9294 10.3094 1.67854 9.81262 1.62347C9.47106 1.58676 9.1357 1.63571 8.80656 1.70913C8.40289 1.80703 7.99922 1.9294 7.61419 2.09461C6.91864 2.38831 6.26035 2.79826 5.71385 3.31835C4.8382 4.14438 4.14886 5.37425 4.46559 6.59799C4.61463 7.17315 4.98725 7.79114 5.55859 8.03589C6.1051 8.26228 6.71991 8.09095 7.22915 7.8462C7.77565 7.58922 8.26626 7.23433 8.75066 6.88557C9.16054 6.59187 9.58284 6.31652 10.0983 6.22474C10.5082 6.1452 10.9739 6.20027 11.2658 6.52456C11.5267 6.82438 11.5701 7.24046 11.4645 7.60758C11.3279 8.09708 10.9677 8.49479 10.5516 8.78237C10.2722 8.97205 9.96167 9.11278 9.64494 9.2168C9.34064 9.3147 9.03634 9.36977 8.7693 9.54721C8.41531 9.77972 8.19174 10.1897 8.25384 10.6119C8.31595 11.0157 8.62025 11.3216 9.01771 11.4195C9.60768 11.5664 10.1542 11.2666 10.6572 11.0035C11.1478 10.7465 11.6695 10.5262 12.2098 10.3977C12.6134 10.2998 13.2407 10.1897 13.5264 10.5874C13.812 10.9912 13.5636 11.4991 13.2655 11.8111C12.6693 12.4414 11.2037 13.1573 11.8496 14.2097C11.98 14.4238 12.2284 14.534 12.4644 14.5952C12.7873 14.6808 13.1289 14.6869 13.458 14.6747C14.1784 14.638 14.9361 14.4789 15.5882 14.173C16.0539 13.9527 16.5073 13.6773 16.942 13.4081C17.3146 13.1756 17.681 12.9309 18.0226 12.6616C18.5008 12.2884 18.9603 11.8723 19.2957 11.3706C19.513 11.0463 19.6683 10.6853 19.7242 10.2998C19.7677 10.0061 19.749 9.68794 19.718 9.38813C19.6869 9.1189 19.6497 8.84356 19.6683 8.56822C19.6994 8.16438 19.8919 7.81562 20.1713 7.5158C20.6309 7.0263 21.3326 6.86109 21.9288 7.2221C22.4567 7.54027 22.7921 8.15826 22.8914 8.75178C23.0467 9.69406 22.5064 10.4834 21.8233 11.083C21.1215 11.7071 20.2955 12.1599 19.5503 12.7228C19.2895 12.9247 19.01 13.145 18.8672 13.4387C18.8423 13.4815 18.8299 13.5366 18.8113 13.5978C18.8051 13.6223 18.8051 13.7263 18.8051 13.7508C18.8237 13.8976 18.8982 14.02 19.0038 14.1362C19.6186 14.8277 20.8296 14.8889 21.4693 14.2036C21.9537 13.6896 22.0096 12.9615 22.1524 12.3006C22.2828 11.7132 22.4319 11.1075 22.73 10.5813C22.9597 10.1713 23.2951 9.82255 23.7236 9.6084C24.2639 9.33917 24.8849 9.26575 25.4873 9.26575C25.6364 9.26575 25.6364 9.49214 25.4873 9.49214C24.8601 9.49826 24.2018 9.56557 23.6615 9.9021C23.2206 10.1774 22.9287 10.6119 22.7362 11.083C22.4878 11.6949 22.3573 12.3496 22.2331 12.9921C22.1151 13.6162 21.8854 14.228 21.3389 14.6074C20.575 15.1397 19.364 14.9623 18.7802 14.2341C18.5753 13.9772 18.5008 13.6773 18.6312 13.3775C18.7616 13.0777 19.0286 12.8391 19.2833 12.6372C20.0037 12.062 20.8296 11.6153 21.5376 11.0218C22.1959 10.465 22.8045 9.71853 22.6554 8.81296C22.5623 8.23169 22.2269 7.60146 21.6618 7.34447C20.9849 7.03854 20.3452 7.50356 20.0285 8.07872C19.9043 8.30511 19.8732 8.54374 19.8794 8.80685C19.8857 9.08831 19.9353 9.36365 19.954 9.64511C19.9788 9.97552 19.9602 10.3059 19.8732 10.6241C19.7615 11.0524 19.5317 11.4379 19.2584 11.7805C18.8361 12.3068 18.302 12.7412 17.7555 13.1267C17.3643 13.402 16.9606 13.6529 16.5445 13.8976C16.1471 14.1301 15.7496 14.3626 15.3149 14.5217C14.6318 14.7726 13.8803 14.9133 13.1537 14.9011C12.6134 14.895 11.9117 14.8032 11.6198 14.2892C11.4832 14.0506 11.4149 13.7814 11.4521 13.5121C11.4894 13.2735 11.6136 13.0594 11.7689 12.8697C12.1042 12.4475 12.57 12.1538 12.9612 11.7867C13.1165 11.6398 13.2842 11.4746 13.3587 11.2727C13.4208 11.1014 13.4332 10.8627 13.3152 10.7098C13.1972 10.5629 12.9736 10.5384 12.7998 10.5446C12.5327 10.5507 12.2657 10.618 12.0111 10.6914C11.508 10.8444 11.0236 11.0585 10.5641 11.3155C10.0548 11.6031 9.40896 11.8111 8.8314 11.6092C8.42152 11.4685 8.11101 11.1258 8.03028 10.7036C7.94954 10.2631 8.11722 9.81032 8.45257 9.5105C8.66372 9.32082 8.91834 9.19233 9.18538 9.11278C9.52695 9.01488 9.8623 8.9231 10.179 8.74566C10.6262 8.50091 11.0422 8.12767 11.2037 7.63817C11.3155 7.31388 11.3093 6.92228 11.0671 6.6653C10.7752 6.35936 10.297 6.38995 9.9182 6.50621C9.4338 6.65306 9.04876 6.95288 8.63888 7.24657C8.14206 7.60146 7.6204 7.95022 7.04906 8.17662C6.50255 8.39077 5.88153 8.47643 5.34124 8.20109C4.7761 7.91351 4.39728 7.30164 4.23581 6.71424C3.90046 5.49662 4.49043 4.26063 5.32261 3.37954C5.82564 2.84721 6.44045 2.41278 7.09874 2.08237C7.45893 1.90493 7.83776 1.75196 8.22901 1.62959C8.60162 1.51333 8.98666 1.41543 9.3779 1.39096C9.93062 1.35424 10.4833 1.5011 10.9056 1.86822C11.2534 2.17415 11.477 2.60859 11.5825 3.05525C11.6757 3.44073 11.7067 3.85681 11.6198 4.24228C11.5204 4.67059 11.1789 4.93982 10.769 5.08055C10.1914 5.27634 9.51453 5.19068 9.04255 4.8052C8.6513 4.49315 8.35942 3.92411 8.54573 3.42849C8.7134 2.98183 9.16675 2.71872 9.59526 2.55964C10.1728 2.33936 10.8187 2.27817 11.4335 2.30265C12.1166 2.33324 12.7935 2.48009 13.4084 2.76767C13.5636 2.84109 13.7065 2.92064 13.8493 3.01242C13.9921 3.1042 14.135 3.20822 14.2964 3.27552C14.5573 3.38566 14.8491 3.42849 15.1286 3.36119C15.5944 3.24493 15.9359 2.82274 15.8117 2.34548C15.731 2.02731 15.4888 1.77032 15.2342 1.57452C14.9858 1.38484 14.7125 1.23799 14.4082 1.16457C14.0915 1.08502 13.7561 1.09114 13.4518 1.20739C13.1662 1.31753 12.8619 1.54393 12.7314 1.80091C12.6756 1.91105 12.6569 2.0579 12.6631 2.19251C12.6631 2.37608 12.7004 2.55351 12.7439 2.73096C12.8681 3.18986 13.0668 3.62429 13.2966 4.04036C13.5636 4.52374 13.8679 4.98876 14.2033 5.42931C14.5262 5.85762 14.8802 6.26146 15.2714 6.62858C15.5757 6.91005 15.9111 7.1915 16.2961 7.35671C16.4265 7.41177 16.5694 7.45461 16.706 7.44849C16.8178 7.44849 16.9358 7.41178 17.0103 7.34447C17.06 7.30164 17.0724 7.28328 17.0848 7.2221C17.091 7.1915 17.0848 7.23434 17.0848 7.21598C17.0848 7.20986 17.0848 7.19762 17.0848 7.1915C17.0848 7.17927 17.0848 7.16091 17.0848 7.14868C17.0848 7.1242 17.0786 7.0936 17.0662 7.05077C17.0103 6.87333 16.8985 6.70201 16.7867 6.54904C16.4638 6.09013 16.0912 5.66794 15.762 5.20904C15.4205 4.7379 15.0913 4.21169 14.9733 3.63653C14.8367 2.98183 15.0665 2.321 15.464 1.78867C15.7993 1.34201 16.3148 1.01772 16.8985 1.14009C17.9294 1.36036 18.4449 2.70037 18.0661 3.60594C17.8301 4.17498 17.2587 4.48703 16.6625 4.58493C16.1843 4.66447 15.6937 4.65224 15.2155 4.7379C14.5635 4.85415 13.9673 5.12338 13.4518 5.53945C13.0792 5.83927 12.7501 6.18804 12.4582 6.5674C12.2657 6.81215 12.1539 7.10584 12.1539 7.41789C12.1539 7.70547 12.2719 7.99918 12.5203 8.16438C12.7935 8.34182 13.1786 8.39077 13.4829 8.2684C14.1598 7.98694 14.1598 7.06913 13.9424 6.50009C13.7065 5.88821 13.0668 5.28858 12.365 5.33141C11.9738 5.35589 11.5763 5.55781 11.2782 5.80256C10.9739 6.04731 10.7255 6.36548 10.5703 6.72648C10.3964 7.13032 10.3281 7.62593 10.4957 8.04201C10.6386 8.40301 10.9367 8.67223 11.2596 8.88027C11.5701 9.08831 11.8993 9.27187 12.247 9.41872C12.7811 9.63899 13.3587 9.76748 13.9424 9.76748C14.7249 9.7736 15.4826 9.55333 16.1719 9.19232C16.6253 8.95369 17.0538 8.65388 17.445 8.31735C17.7431 8.06036 18.0598 7.75442 18.2089 7.38118C18.3083 7.14255 18.3083 6.8978 18.1592 6.67753C18.0785 6.56127 17.9667 6.46338 17.8487 6.38384C17.7059 6.29206 17.5506 6.22475 17.4202 6.11461C17.1407 5.8821 16.973 5.50274 17.0476 5.14173C17.1221 4.79297 17.4574 4.5115 17.8239 4.53598C18.2399 4.56657 18.507 4.89699 18.7057 5.2274C18.9044 5.56393 19.0411 5.93716 19.2646 6.25534C19.4447 6.51232 19.7801 6.65306 20.0782 6.51844C20.4259 6.36548 20.6557 6.00448 20.811 5.68018C21.1588 4.97041 21.2581 4.12602 20.8793 3.40402C20.7303 3.11644 20.5005 2.85333 20.19 2.72484C19.8919 2.60246 19.5193 2.60858 19.2398 2.76767C18.6809 3.09808 18.8113 3.87516 19.1591 4.30347C19.4758 4.69507 19.9478 4.95205 20.4011 5.17233C20.9228 5.42931 21.4569 5.66183 21.9537 5.96164C22.5064 6.29205 23.0032 6.70201 23.382 7.21598C23.8664 7.87068 24.1397 8.66611 24.2515 9.46155C24.3633 10.2631 24.3136 11.1136 24.0279 11.8784C23.8416 12.3679 23.5249 12.9553 22.9784 13.1144C22.4008 13.2858 21.9288 12.8085 21.6618 12.3618C21.4569 12.0253 21.314 11.6521 21.1525 11.291C21.0159 10.9729 20.8669 10.6425 20.6371 10.3732C20.4135 10.1101 20.0968 9.92045 19.7428 9.87151C19.4634 9.83479 19.1963 9.95104 18.9665 10.104C18.6809 10.2998 18.4387 10.5568 18.2027 10.8015C17.9356 11.083 17.6686 11.3645 17.3767 11.6153C16.8737 12.0559 16.1781 12.5209 15.495 12.1538C14.9671 11.8723 14.8305 11.2115 15.1721 10.7342C15.4205 10.3916 15.8241 10.1958 16.1719 9.9694C16.5445 9.72466 16.9172 9.47378 17.2898 9.22292C17.8735 8.83132 18.4759 8.42137 19.1466 8.18886C19.6621 8.01142 20.2148 8.00529 20.6868 8.29899C20.96 8.47031 21.1774 8.70283 21.3699 8.95982C21.5624 9.2168 21.7239 9.49214 21.8481 9.78584C22.022 10.2203 22.0779 10.6914 21.9785 11.1503C21.8854 11.5909 21.6494 11.9886 21.3637 12.3373C20.7303 13.1022 19.8298 13.6406 18.9293 14.0506C18.1778 14.3871 17.3643 14.6869 16.5383 14.7665C16.352 14.7848 16.085 14.8093 15.9359 14.6686C15.6751 14.4238 15.5447 14.0383 15.4205 13.7202C15.2901 13.3898 15.1597 13.0226 14.8616 12.7962C14.5014 12.5209 14.0045 12.5331 13.576 12.4964C13.1537 12.4597 12.7377 12.3496 12.365 12.1354C12.0421 11.9519 11.7192 11.6704 11.5639 11.3339C11.4646 11.132 11.4459 10.8933 11.4397 10.6731C11.4149 10.0122 11.5329 9.32694 11.7254 8.69059C11.9303 8.00529 12.247 7.33835 12.7935 6.85497C13.2531 6.45114 13.9052 6.21863 14.4455 6.61023C14.9982 7.01406 15.1783 7.77278 15.1783 8.41525C15.1783 8.6294 15.1597 8.83744 15.1224 9.0516C15.0851 9.25963 15.023 9.45543 14.9796 9.65735C14.9423 9.83479 14.9361 10.0551 15.0789 10.1652C15.228 10.2815 15.4515 10.2876 15.6378 10.2937C15.8987 10.3059 16.1595 10.2937 16.4203 10.312C16.9606 10.3426 17.5071 10.4834 17.7928 10.979C17.9543 11.2666 18.0288 11.5909 18.0723 11.9152C18.1219 12.3067 18.1219 12.6984 18.0847 13.0899C18.004 13.8793 17.7742 14.6625 17.2401 15.2743C16.8116 15.7577 16.1409 16.186 15.4577 16.1187C14.3772 16.0025 14.5324 14.5523 14.2219 13.8242C14.1598 13.6773 14.0666 13.5305 13.9114 13.4815C13.694 13.4142 13.4705 13.5366 13.2966 13.6468C12.7439 13.9894 12.2533 14.5217 11.595 14.6502C11.2845 14.7114 10.9491 14.6625 10.6945 14.4605C10.4585 14.2709 10.3778 13.9772 10.3281 13.6896C10.2846 13.4081 10.2598 13.0838 10.0548 12.8636C9.84988 12.6372 9.55179 12.6004 9.25991 12.6188C8.93076 12.6433 8.59541 12.7473 8.29732 12.8819C8.04891 12.992 7.78187 13.1328 7.59556 13.3347C7.41546 13.5366 7.42167 13.8915 7.62661 14.0873C7.8626 14.3137 8.27248 14.3932 8.58299 14.2831C8.7072 14.2403 8.82519 14.1546 8.87487 14.0322C8.93076 13.8915 8.8935 13.7447 8.85003 13.61C8.77551 13.3959 8.68856 13.1817 8.5892 12.9798C8.33458 12.4475 8.03649 11.9274 7.68871 11.444C7.53346 11.2299 7.37199 11.0157 7.19189 10.826C7.06148 10.6853 6.90622 10.5384 6.72612 10.4589C6.67023 10.4344 6.62055 10.4222 6.55224 10.4283C6.57708 10.4222 6.53982 10.4344 6.53361 10.4344C6.50255 10.4467 6.5336 10.4344 6.50876 10.4467C6.4715 10.465 6.4715 10.465 6.44045 10.5017C6.39077 10.5507 6.35972 10.6425 6.33488 10.722C6.27898 10.8872 6.20446 11.0463 6.09889 11.187C5.73869 11.6521 5.09282 11.7928 4.55874 11.5358C4.11781 11.3278 3.7452 10.7342 3.90666 10.2447C3.99361 9.97552 4.24202 9.81032 4.50906 9.73077C4.92515 9.60228 5.38471 9.63899 5.81321 9.58392C6.14236 9.54109 6.50876 9.47379 6.75717 9.24127C6.96211 9.05159 7.15463 8.83744 7.30368 8.59881C7.47135 8.32347 7.58314 8.01753 7.59556 7.69936C7.61419 7.25269 7.46514 6.82438 7.25399 6.4389C7.10495 6.16356 6.97453 5.86374 7.02421 5.53945C7.06148 5.31306 7.1981 5.11726 7.39683 5.001C7.83155 4.73789 8.44015 4.82968 8.84382 5.10502C9.20401 5.34365 9.37169 5.69242 9.48348 6.09013C9.6201 6.56739 9.68841 7.06301 9.72568 7.55251C9.76294 8.10319 9.75673 8.65388 9.6822 9.19845C9.58284 9.91434 9.27233 11.083 8.32216 11.0279C8.06754 11.0096 7.79429 10.93 7.60798 10.7526C7.43409 10.5874 7.36578 10.361 7.34715 10.1346C7.32231 9.86538 7.35957 9.59616 7.38441 9.32694C7.41546 9.021 7.4403 8.70895 7.41546 8.40301C7.35336 7.65653 6.87517 7.03242 6.17962 6.73872C5.47786 6.44502 4.714 6.64694 4.12402 7.07525C3.503 7.52191 3.04965 8.18885 2.86955 8.91698C2.65841 9.77972 2.63356 10.7098 2.91302 11.5664C3.00618 11.8478 3.13659 12.1538 3.34153 12.3802C3.51542 12.5699 3.73899 12.6983 3.9874 12.7657C4.49664 12.9064 5.07419 12.8024 5.52133 12.5209C5.97468 12.2394 6.25414 11.7622 6.18583 11.2299C6.09268 10.5507 5.75732 9.90821 5.29155 9.40648C4.91894 9.00264 4.4718 8.66612 4.14887 8.21945C3.98119 7.98694 3.85698 7.71771 3.78867 7.44237C3.73899 7.24657 3.73899 7.02018 3.64584 6.85497C3.58994 6.76319 3.503 6.68977 3.41606 6.6653C3.30427 6.6347 3.21112 6.6347 3.08691 6.67753C2.81366 6.76319 2.5963 7.03242 2.49073 7.32C2.33547 7.75442 2.37894 8.23168 2.49694 8.66611C2.70809 9.42483 3.1428 10.1101 3.62099 10.7342C3.70173 10.8505 3.503 10.9668 3.41606 10.8505Z" fill="#6EB3F2" stroke="#6EB3F2" stroke-width="0.5"/>
</g>
</svg>
