<svg width="375" height="51" viewBox="0 0 375 51" fill="none" xmlns="http://www.w3.org/2000/svg">
<mask id="mask0_2839_1375" style="mask-type:alpha" maskUnits="userSpaceOnUse" x="0" y="0" width="375" height="51">
<rect width="375" height="51" fill="#F8CFC6"/>
</mask>
<g mask="url(#mask0_2839_1375)">
<mask id="mask1_2839_1375" style="mask-type:alpha" maskUnits="userSpaceOnUse" x="-316" y="-791" width="957" height="841">
<path d="M482.397 -563.676C542.687 -498.194 614.289 -435.587 634.39 -360.812C654.491 -286.037 623.091 -199.092 573.258 -126.43C523.954 -53.5841 456.216 4.98033 378.553 33.5484C301.224 62.7975 244.877 43.7496 158.115 38.6505C70.8242 33.3689 -16.1678 24.2335 -71.6088 -19.7893C-127.578 -63.9948 -190.514 -139.328 -223.355 -216.808C-255.667 -294.106 -317.2 -398.778 -315.365 -474.454C-313.335 -550.629 -209.755 -602.25 -148.591 -667.041C-86.8977 -731.651 -39.0183 -766.402 47.5631 -783.976C134.144 -801.55 227.992 -783.828 300.031 -740.855C372.07 -697.882 421.578 -629.341 482.397 -563.676Z" fill="#F0ECE4"/>
</mask>
<g mask="url(#mask1_2839_1375)">
<rect x="1" y="-52" width="375" height="104" fill="#F0ECE4"/>
</g>
</g>
</svg>
