<svg width="375" height="171" viewBox="0 0 375 171" fill="none" xmlns="http://www.w3.org/2000/svg">
<mask id="mask0_2847_1450" style="mask-type:alpha" maskUnits="userSpaceOnUse" x="0" y="0" width="375" height="171">
<rect width="375" height="171" fill="#F8CFC6"/>
</mask>
<g mask="url(#mask0_2847_1450)">
<mask id="mask1_2847_1450" style="mask-type:alpha" maskUnits="userSpaceOnUse" x="-300" y="-668" width="957" height="841">
<path d="M498.397 -440.676C558.687 -375.194 630.289 -312.587 650.39 -237.812C670.491 -163.037 639.091 -76.0924 589.258 -3.42958C539.954 69.4159 472.216 127.98 394.553 156.548C317.224 185.798 260.877 166.75 174.115 161.651C86.8242 156.369 -0.167838 147.234 -55.6088 103.211C-111.578 59.0052 -174.514 -16.328 -207.355 -93.8083C-239.667 -171.106 -301.2 -275.778 -299.365 -351.454C-297.335 -427.629 -193.755 -479.25 -132.591 -544.041C-70.8977 -608.651 -23.0183 -643.402 63.5631 -660.976C150.144 -678.55 243.992 -660.828 316.031 -617.855C388.07 -574.882 437.578 -506.341 498.397 -440.676Z" fill="#F0ECE4"/>
</mask>
<g mask="url(#mask1_2847_1450)">
<rect x="-0.00683594" y="-2" width="375" height="175" fill="#F0ECE4"/>
</g>
</g>
</svg>
