<svg width="375" height="42" viewBox="0 0 375 42" fill="none" xmlns="http://www.w3.org/2000/svg">
<mask id="mask0_2950_1368" style="mask-type:alpha" maskUnits="userSpaceOnUse" x="0" y="0" width="375" height="42">
<rect width="375" height="42" fill="#F8CFC6"/>
</mask>
<g mask="url(#mask0_2950_1368)">
<mask id="mask1_2950_1368" style="mask-type:alpha" maskUnits="userSpaceOnUse" x="-352" y="-834" width="978" height="872">
<path d="M416.828 -657.593C488.746 -600.25 571.231 -547.965 605.423 -473.619C639.615 -399.274 625.512 -302.869 590.528 -218.009C556.099 -133.055 500.789 -59.6452 429.932 -15.7209C359.536 28.8529 300.453 19.2306 214.155 29.6901C127.301 40.0552 39.9968 46.3461 -23.0126 10.5066C-86.577 -25.4272 -162.996 -92.5647 -210.237 -167.415C-256.923 -242.171 -337.624 -340.167 -350.418 -419.442C-363.118 -499.272 -271.224 -571.956 -223.579 -650.667C-175.38 -729.282 -135.003 -774.24 -53.2558 -808.317C28.4915 -842.395 124.193 -840.976 203.321 -809.25C282.449 -777.524 344.354 -715.03 416.828 -657.593Z" fill="#F8CFC6"/>
</mask>
<g mask="url(#mask1_2950_1368)">
<rect y="-409.547" width="375" height="490" fill="#F8CFC6"/>
</g>
</g>
</svg>
