<svg width="375" height="490" viewBox="0 0 375 490" fill="none" xmlns="http://www.w3.org/2000/svg">
<mask id="mask0" mask-type="alpha" maskUnits="userSpaceOnUse" x="-217" y="-202" width="810" height="763">
<path d="M110.762 427.309C50.1661 417.252 -14.9491 413.58 -59.0698 381.336C-103.191 349.092 -126.317 288.276 -133.509 227.402C-141.055 166.655 -132.669 105.85 -105.624 57.1868C-79.0601 8.29478 -41.4698 -5.30702 5.46414 -39.4729C52.7525 -73.7642 101.628 -105.826 150.035 -105.413C198.796 -105.125 265.203 -90.8184 317.099 -62.5238C368.641 -34.1036 447.581 -3.18992 480.824 38.8878C514.193 81.3199 484.232 153.599 482.039 215.003C479.493 276.532 470.563 315.885 433.964 362.347C397.366 408.808 341.085 439.104 284.614 446.332C228.144 453.56 171.713 437.242 110.762 427.309Z" fill="#F0ECE4"/>
</mask>
<g mask="url(#mask0)">
<rect width="375" height="490" fill="#F8CFC6"/>
</g>
</svg>
