<svg width="375" height="245" viewBox="0 0 375 245" fill="none" xmlns="http://www.w3.org/2000/svg">
<path d="M570.919 272.951C549.286 337.168 495.83 396.14 436.876 444.652C378.095 493.532 313.931 530.999 242.943 559.98C172.417 588.744 95.5289 608.806 23.5196 604.512C-49.1252 600.067 -116.717 571.633 -140.683 520.822C-164.476 470.379 -144.295 398.295 -149.977 331.207C-155.946 264.706 -187.604 203.569 -164.043 157.797C-140.655 111.657 -62.6829 80.7316 4.90817 60.1036C72.7872 38.8897 129.65 27.8232 181.561 28.9944C233.473 30.1656 279.971 43.7922 344.192 53.1112C408.412 62.4301 490.354 67.4413 536.476 104.201C582.598 140.961 592.727 209.102 570.919 272.951Z" fill="#32264C"/>
</svg>
