<svg width="375" height="95" viewBox="0 0 375 95" fill="none" xmlns="http://www.w3.org/2000/svg">
<path d="M162.297 508.044C110.924 474.371 52.8384 444.715 25.4979 397.399C-1.84266 350.083 1.56245 285.107 19.5672 226.514C37.197 167.893 69.4261 115.655 113.82 82.0588C157.867 48.0596 197.748 50.7976 254.483 38.4967C311.592 26.2241 369.253 16.6328 413.37 36.56C457.862 56.5155 512.834 96.4229 548.882 143.266C584.556 190.081 644.287 250.242 657.705 302.162C671.095 354.456 614.495 408.478 587.691 463.766C560.512 519.026 536.45 551.421 484.205 579.144C431.96 606.867 368.237 611.852 313.658 595.659C259.078 579.465 214.044 541.746 162.297 508.044Z" fill="#FFA191"/>
</svg>
