<svg width="22" height="22" viewBox="0 0 22 22" fill="none" xmlns="http://www.w3.org/2000/svg">
<path fill-rule="evenodd" clip-rule="evenodd" d="M3.58179 0.0372541C2.10207 0.26795 0.862372 1.24156 0.299471 2.61509C0.184064 2.89669 0.0575198 3.38208 0.0212767 3.6821C0.00164496 3.84476 -0.0035933 4.94825 0.00225846 7.70518L0.0103047 11.5041L0.0638907 11.7401C0.185598 12.2758 0.397582 12.787 0.675517 13.2148C1.23738 14.0797 2.14457 14.735 3.12839 14.9867L3.34578 15.0423L3.35255 16.4468L3.35933 17.8514L3.42275 17.9867C3.50038 18.1524 3.67339 18.3293 3.83124 18.4047C3.99974 18.4851 4.30342 18.4994 4.47224 18.4349C4.5393 18.4093 5.69349 17.6543 7.03711 16.7572L9.48007 15.1261H12.0048C14.7287 15.1261 14.8012 15.1232 15.2894 14.9991C16.8007 14.6149 17.9724 13.4468 18.353 11.9449C18.4765 11.4576 18.4744 11.5398 18.4672 7.44562C18.4598 3.25707 18.4709 3.58221 18.3155 3.03828C17.8613 1.44953 16.5029 0.270451 14.8569 0.0364753C14.5114 -0.0126511 3.89717 -0.0119195 3.58179 0.0372541ZM14.6461 5.12878C15.1621 5.40058 15.2693 6.06133 14.8633 6.46741C14.7302 6.60052 14.578 6.67569 14.3854 6.70354C14.1875 6.73216 4.25125 6.73263 4.07673 6.70406C3.88513 6.67265 3.72999 6.59172 3.59149 6.45087C3.43184 6.28851 3.36515 6.11919 3.3636 5.87214C3.36256 5.70919 3.37134 5.6728 3.45022 5.51318C3.55937 5.29232 3.73337 5.1422 3.96088 5.0726C3.99339 5.06264 6.38254 5.05629 9.27007 5.05846L14.5201 5.06245L14.6461 5.12878ZM19.959 9.32029C19.959 11.6023 19.9564 11.6514 19.8033 12.2695C19.4048 13.879 18.3662 15.2037 16.9055 15.9657C16.3755 16.2422 15.8457 16.4212 15.2162 16.5366L14.8741 16.5993L12.3965 16.6118L9.91896 16.6244L9.31136 17.0316C8.9772 17.2556 8.70377 17.448 8.70377 17.459C8.70377 17.4963 9.09461 17.8547 9.27153 17.9796C9.62002 18.2256 10.0436 18.408 10.4962 18.5067C10.7124 18.5539 10.8005 18.5561 12.7463 18.5645L14.7714 18.5733L16.6151 19.8025C17.629 20.4786 18.5016 21.0512 18.554 21.075C18.7866 21.1807 19.1128 21.1035 19.2851 20.9022C19.438 20.7236 19.4399 20.7074 19.4399 19.5508V18.5097L19.6699 18.4452C19.9644 18.3627 20.4091 18.1466 20.6717 17.9583C20.9139 17.7846 21.2442 17.4508 21.4194 17.2025C21.6704 16.8468 21.8713 16.3624 21.9577 15.9047C21.9969 15.6968 22 15.4696 22 12.7783V9.87599L21.9468 9.6356C21.754 8.76508 21.2629 8.03002 20.5702 7.57519C20.3649 7.44041 20.0361 7.26866 19.9832 7.26866C19.9668 7.26866 19.959 7.93042 19.959 9.32029ZM12.9315 8.47582C13.1106 8.55977 13.2661 8.70769 13.3458 8.86982C13.404 8.98834 13.4111 9.02883 13.4111 9.2389C13.4111 9.45315 13.4048 9.48744 13.3419 9.61158C13.2575 9.77809 13.1102 9.91823 12.9315 10.002L12.7976 10.0648H9.23468H5.67171L5.53781 10.002C5.35872 9.91804 5.20322 9.77012 5.12358 9.60799C5.0654 9.48947 5.05822 9.44898 5.05822 9.2389C5.05822 9.03985 5.06674 8.98584 5.11266 8.89356C5.22741 8.66291 5.42441 8.49675 5.65824 8.43337C5.7421 8.41062 6.54816 8.40512 9.28187 8.40859L12.7976 8.41305L12.9315 8.47582Z" fill="#847D94"/>
</svg>
