<svg width="26" height="26" viewBox="0 0 26 26" fill="none" xmlns="http://www.w3.org/2000/svg">
<path fill-rule="evenodd" clip-rule="evenodd" d="M5.58179 2.03725C4.10207 2.26795 2.86237 3.24156 2.29947 4.61509C2.18406 4.89669 2.05752 5.38208 2.02128 5.6821C2.00164 5.84477 1.99641 6.94825 2.00226 9.70518L2.0103 13.5041L2.06389 13.7401C2.1856 14.2758 2.39758 14.787 2.67552 15.2148C3.23738 16.0797 4.14457 16.735 5.12839 16.9867L5.34578 17.0423L5.35255 18.4468L5.35933 19.8514L5.42275 19.9867C5.50038 20.1524 5.67339 20.3293 5.83124 20.4047C5.99974 20.4851 6.30342 20.4994 6.47224 20.4349C6.5393 20.4093 7.69349 19.6543 9.03711 18.7572L11.4801 17.1261H14.0048C16.7287 17.1261 16.8012 17.1232 17.2894 16.9991C18.8007 16.6149 19.9724 15.4468 20.353 13.9449C20.4765 13.4576 20.4744 13.5398 20.4672 9.44562C20.4598 5.25707 20.4709 5.58221 20.3155 5.03828C19.8613 3.44953 18.5029 2.27045 16.8569 2.03648C16.5114 1.98735 5.89717 1.98808 5.58179 2.03725ZM16.6461 7.12878C17.1621 7.40058 17.2693 8.06133 16.8633 8.46741C16.7302 8.60052 16.578 8.67569 16.3854 8.70354C16.1875 8.73216 6.25125 8.73263 6.07673 8.70406C5.88513 8.67265 5.72999 8.59172 5.59148 8.45087C5.43184 8.28851 5.36515 8.11919 5.3636 7.87214C5.36256 7.70919 5.37134 7.6728 5.45022 7.51318C5.55937 7.29232 5.73337 7.1422 5.96088 7.0726C5.99339 7.06264 8.38254 7.05629 11.2701 7.05846L16.5201 7.06245L16.6461 7.12878ZM21.959 11.3203C21.959 13.6023 21.9564 13.6514 21.8033 14.2695C21.4048 15.879 20.3662 17.2037 18.9055 17.9657C18.3755 18.2422 17.8457 18.4212 17.2162 18.5366L16.8741 18.5993L14.3965 18.6118L11.919 18.6244L11.3114 19.0316C10.9772 19.2556 10.7038 19.4479 10.7038 19.459C10.7038 19.4963 11.0946 19.8547 11.2715 19.9796C11.62 20.2256 12.0436 20.408 12.4962 20.5067C12.7124 20.5539 12.8005 20.5561 14.7463 20.5645L16.7714 20.5733L18.6151 21.8025C19.629 22.4786 20.5016 23.0512 20.554 23.075C20.7866 23.1807 21.1128 23.1035 21.2851 22.9022C21.438 22.7236 21.4399 22.7074 21.4399 21.5508V20.5097L21.6699 20.4452C21.9644 20.3627 22.4091 20.1466 22.6717 19.9583C22.9139 19.7846 23.2442 19.4508 23.4194 19.2025C23.6704 18.8468 23.8713 18.3624 23.9577 17.9047C23.9969 17.6968 24 17.4696 24 14.7783V11.876L23.9468 11.6356C23.754 10.7651 23.2629 10.03 22.5702 9.57519C22.3649 9.44041 22.0361 9.26866 21.9832 9.26866C21.9668 9.26866 21.959 9.93042 21.959 11.3203ZM14.9315 10.4758C15.1106 10.5598 15.2661 10.7077 15.3458 10.8698C15.404 10.9883 15.4111 11.0288 15.4111 11.2389C15.4111 11.4532 15.4048 11.4874 15.3419 11.6116C15.2575 11.7781 15.1102 11.9182 14.9315 12.002L14.7976 12.0648H11.2347H7.67171L7.53781 12.002C7.35872 11.918 7.20322 11.7701 7.12358 11.608C7.0654 11.4895 7.05822 11.449 7.05822 11.2389C7.05822 11.0399 7.06674 10.9858 7.11266 10.8936C7.22741 10.6629 7.42441 10.4967 7.65824 10.4334C7.7421 10.4106 8.54816 10.4051 11.2819 10.4086L14.7976 10.4131L14.9315 10.4758Z" fill="white"/>
</svg>
