<svg width="17" height="17" viewBox="0 0 17 17" fill="none" xmlns="http://www.w3.org/2000/svg">
<g opacity="0.4">
<path d="M11.8056 0H5.19456C2.3282 0 0.00017087 2.47444 0.00017087 5.51556V15.5172C-0.00414272 15.8005 0.0732971 16.079 0.223213 16.3193C0.37313 16.5597 0.589165 16.7518 0.84544 16.8725C1.02458 16.9554 1.21943 16.9989 1.41682 17C1.74133 16.9995 2.05479 16.8821 2.29987 16.6694L5.23706 14.3083C5.31538 14.2393 5.41597 14.2007 5.52039 14.1997H11.8056C14.672 14.1997 17 11.7253 17 8.68417V5.51556C17 2.47444 14.672 0 11.8056 0Z" fill="white"/>
<path d="M8.09552 9.71426C8.00332 9.71426 7.91443 9.6861 7.84516 9.63495C7.58354 9.4421 7.3313 9.26088 7.10876 9.10101L7.10763 9.10018C6.45517 8.63147 5.89176 8.22669 5.49974 7.82796C5.06153 7.3822 4.85742 6.95955 4.85742 6.49784C4.85742 6.04924 5.03989 5.63539 5.37118 5.33245C5.70642 5.02593 6.16643 4.85712 6.6666 4.85712C7.04043 4.85712 7.38279 4.95675 7.68413 5.15322C7.83622 5.2524 7.97407 5.37377 8.09552 5.51535C8.21701 5.37377 8.35482 5.2524 8.50695 5.15322C8.8083 4.95675 9.15066 4.85712 9.52449 4.85712C10.0246 4.85712 10.4847 5.02593 10.8199 5.33245C11.1512 5.63539 11.3336 6.04924 11.3336 6.49784C11.3336 6.95955 11.1296 7.3822 10.6913 7.82792C10.2993 8.22669 9.73596 8.63143 9.08361 9.1001C8.86067 9.26021 8.60804 9.44173 8.34583 9.63504C8.2766 9.6861 8.18767 9.71426 8.09552 9.71426Z" fill="#32264C"/>
<path d="M8.09497 9.39433C7.83142 9.20006 7.5782 9.01813 7.35482 8.85764L7.35363 8.85681C6.71467 8.39776 6.16282 8.00131 5.7918 7.6239C5.40794 7.23346 5.23674 6.88616 5.23674 6.49784C5.23674 6.1298 5.38353 5.79292 5.65005 5.54921C5.91266 5.30913 6.27364 5.17692 6.6666 5.17692C6.95441 5.17692 7.2187 5.25406 7.45206 5.40618C7.66007 5.5418 7.80494 5.71324 7.88983 5.83319C7.9335 5.89488 8.01038 5.9317 8.09552 5.9317C8.18065 5.9317 8.25753 5.89488 8.30121 5.83319C8.38614 5.71324 8.53101 5.5418 8.73898 5.40618C8.97234 5.25406 9.23663 5.17692 9.52449 5.17692C9.91739 5.17692 10.2784 5.30913 10.541 5.54921C10.8075 5.79292 10.9543 6.1298 10.9543 6.49784C10.9543 6.88616 10.7831 7.23346 10.3993 7.6239M8.09552 9.71426C8.00332 9.71426 7.91443 9.6861 7.84516 9.63495C7.58354 9.4421 7.3313 9.26088 7.10876 9.10101L7.10763 9.10018C6.45517 8.63147 5.89176 8.22669 5.49974 7.82796C5.06153 7.3822 4.85742 6.95955 4.85742 6.49784C4.85742 6.04924 5.03989 5.63539 5.37118 5.33245C5.70642 5.02593 6.16643 4.85712 6.6666 4.85712C7.04043 4.85712 7.38279 4.95675 7.68413 5.15322C7.83622 5.2524 7.97407 5.37377 8.09552 5.51535C8.21701 5.37377 8.35482 5.2524 8.50695 5.15322C8.8083 4.95675 9.15066 4.85712 9.52449 4.85712C10.0246 4.85712 10.4847 5.02593 10.8199 5.33245C11.1512 5.63539 11.3336 6.04924 11.3336 6.49784C11.3336 6.95955 11.1296 7.3822 10.6913 7.82792C10.2993 8.22669 9.73596 8.63143 9.08361 9.1001C8.86067 9.26021 8.60804 9.44173 8.34583 9.63504C8.2766 9.6861 8.18767 9.71426 8.09552 9.71426Z" stroke="#32264C" stroke-width="0.3"/>
</g>
</svg>
