<svg width="295" height="309" viewBox="0 0 295 309" fill="none" xmlns="http://www.w3.org/2000/svg">
<path d="M43.4274 83.0104L49.2644 82.3096L45.4755 86.8047C43.4568 89.1973 42.5285 92.3166 42.8984 95.4271L43.5992 101.264L39.1041 97.4753C36.7141 95.4613 33.5922 94.5283 30.4816 94.8982L24.6447 95.5989L28.4335 91.1038C30.4474 88.7139 31.3805 85.5919 31.0106 82.4814L30.3099 76.6444L34.805 80.4333C37.1949 82.4472 40.3169 83.3803 43.4274 83.0104Z" fill="#91B5F8"/>
<path d="M14.3867 128.451C14.4625 126.665 16.4321 126.525 17.3087 126.893C16.2373 126.849 13.6508 125.464 14.3651 123.787C14.8845 122.575 16.0749 122.52 17.0056 122.726C16.3347 122.347 15.8585 121.438 15.7611 121.092C15.3282 119.49 17.1572 118.127 19.1376 119.241C17.9796 118.592 17.4277 115.486 20.6851 115.562C23.2499 115.627 25.2737 117.077 26.713 117.348C30.8037 114.978 19.4406 105.508 24.1265 103.701C25.6633 103.106 27.5463 108.084 32.2972 112.651C34.2451 114.534 36.8641 116.384 38.2817 118.17C39.115 119.231 41.5392 122.228 42.7296 124.685C43.6603 126.611 46.4632 127.921 46.4632 127.921L38.8228 138.559C34.7862 135.28 26.2477 134.684 20.0683 132.044C18.6398 131.438 14.3326 129.901 14.3975 128.451H14.3867Z" fill="#F8B791"/>
<path d="M178.754 74.5907C172.856 73.292 165.67 73.7249 156.937 76.5062C154.697 76.03 154.772 72.7401 132.685 74.2335C111.322 75.6837 109.785 109.405 113.616 138.549C114.893 148.299 104.883 174.467 104.883 204.747C104.883 223.166 133.269 219.656 156.937 220.5C174.323 250.123 197.5 177.5 205.067 138.549C201.755 93.7132 225.224 80.0342 178.765 74.5907H178.754Z" fill="#E54925"/>
<path d="M37.218 140.842C47.4881 145.116 90.2328 187.656 116 149.498C146.54 104.294 149.237 75.7148 149.237 75.7148C108 82.5 96.5444 110.432 90.2784 118.581C82.9735 128.104 65.0631 136.773 45.3887 120.702C42.1204 118.04 33.8091 139.424 37.2072 140.831L37.218 140.842Z" fill="#E54925"/>
<path d="M140.795 79.1556C131.239 96.1353 103.849 99.2088 111.63 73.4091C114.032 65.4333 104.974 58.3665 104.682 52.4685C104.032 39.0492 115.937 38.3024 120.222 26.6471C126.694 9.08298 147.396 -15.6453 180.89 13.3252C193.942 24.6234 140.795 79.1448 140.795 79.1448V79.1556Z" fill="#32264C"/>
<path d="M168.588 49.2891L168.069 82.491C167.939 92.3391 142.172 92.1767 142.172 83.2919L142.313 65.6087L168.588 49.2891Z" fill="#C78E85"/>
<path d="M129.199 44.1767C128.81 46.2005 128.333 48.0186 128.214 50.0315C128.063 52.6504 128.312 55.3667 129.026 57.964C130.898 64.8576 135.314 74.8572 142.186 75.8203C154.328 77.5302 171.708 65.626 171.838 47.6506C171.946 31.9695 161.633 6.67843 155.821 15.2711C146.807 28.6038 139.199 22.1756 132.922 30.3354C131.602 32.0453 130.325 34.2313 129.773 39.5666C129.6 41.2764 129.481 42.7807 129.21 44.1767H129.199Z" fill="#F8B791"/>
<path d="M153.246 55.8427C152.662 59.6088 155.249 63.1476 159.015 63.732C162.781 64.3164 166.319 61.7299 166.904 57.9638C167.488 54.1978 164.902 50.659 161.136 50.0746C157.37 49.4902 153.831 52.0767 153.246 55.8427Z" fill="#F27979"/>
<path d="M128.211 50.0413C128.059 52.6602 128.352 55.3658 129.023 57.9739C132.215 57.8007 134.964 55.4199 135.473 52.13C136.057 48.3531 133.471 44.8251 129.704 44.2407C129.531 44.2191 129.369 44.1974 129.207 44.1758C128.817 46.1995 128.341 48.0176 128.222 50.0305L128.211 50.0413Z" fill="#F27979"/>
<path d="M149.566 46.5223C149.566 46.5223 151.785 51.4139 160.865 47.2257C162.001 46.7063 157.142 47.6045 154.209 47.4963C151.19 47.3773 148.939 45.4509 149.566 46.5223Z" fill="#002869"/>
<path d="M131.01 41.3828C131.562 42.5949 137.114 48.0059 139.852 44.0991C140.566 43.071 137.947 45.0839 135.328 43.7745C132.634 42.4217 130.653 40.6144 131.01 41.3828V41.3828Z" fill="#002869"/>
<path d="M144.429 57.1091C142.611 56.9793 139.894 56.2217 139.667 54.0357C139.57 53.0725 140.143 52.3366 140.663 51.5791C142.005 49.6636 143.206 47.8996 143.422 45.4755C143.455 45.1616 143.953 45.14 143.92 45.4646C143.715 47.7806 142.708 49.5446 141.388 51.4168C140.619 52.5098 139.743 53.4621 140.555 54.8582C141.301 56.1135 143.044 56.5139 144.407 56.6113C144.721 56.633 144.743 57.1308 144.418 57.1091H144.429Z" fill="#F27979"/>
<path d="M150.599 62.3812C151.26 61.3748 141.888 62.9223 137.884 59.7623C135.503 57.8793 140.492 73.7985 150.599 62.3812Z" fill="white"/>
<path d="M207.723 308.741H145.424C145.424 308.741 141.138 285.476 140.333 281.991C139.527 284.27 134.521 308.741 134.521 308.741H68.3281C68.8654 299.76 75.4626 274.618 76.537 268.049C81.9093 232.123 91.1764 221.533 97.3545 210.272C101.652 202.363 104.338 195.526 106.084 185.606C110.114 162.147 137.378 142.441 150.406 150.35C161.016 138.554 183.445 169.118 188.549 189.628C189.623 193.918 182.773 204.776 186.937 216.707C194.189 236.949 206.246 284.344 207.723 308.741Z" fill="#FFA191"/>
<path d="M176.194 146.567C185.335 158.381 191.622 172.844 191.88 186.439C183.498 201 201.396 230.354 140.537 230.354C86.907 230.354 82 188.5 98.5052 160C115.68 130.344 106.114 153.223 115.504 140.5L176.199 146.562L176.194 146.567Z" fill="#E54925"/>
<path d="M263.219 206.917C266.968 210.963 273.777 209.227 279.411 210.16C283.754 210.879 293.627 214.518 293.342 217.069C293.06 219.599 281.673 213.933 274.994 216.433C276.533 218.315 282.961 220.266 282.336 223.059C282.116 224.047 279.048 222.537 275.751 221.959C274.198 221.687 269.574 221.765 266.359 220.637C260.759 218.67 256.462 214.251 256.462 214.251L263.219 206.919L263.219 206.917Z" fill="#FDB88E"/>
<path d="M181.41 165.839C201.08 156.021 199.465 204.054 259.028 217.939C262.163 218.141 264.923 208.818 263.782 206.729C249.948 193.835 251.545 177.378 242.597 168.452C224.239 150.14 234.756 126.601 211.032 99.8262L181.41 165.839V165.839Z" fill="#E54925"/>
<path d="M151.138 3.12327C151.138 3.12327 200.865 -12.2657 203.235 35.3945C204.036 51.5843 232.162 56.9195 212.239 84.5915C205.951 93.3248 254.641 124.171 203.235 160.275C168.594 184.604 134.564 128.972 140.538 113.745C147.15 96.8955 170.509 96.4091 162.836 73.0552C158.93 61.1834 165.856 55.1988 167.565 51.5735C167.901 50.8267 168.236 50.0584 168.594 49.29C169.665 46.7035 170.282 44.2361 169.492 41.6388C167.133 33.9336 144.634 35.8058 151.343 19.1507C157.674 3.41546 151.148 3.11244 151.148 3.11244L151.138 3.12327Z" fill="#32264C"/>
<path d="M104.505 152.002C91.4987 166.499 89.0045 186.5 90.9982 197.001" stroke="#32264C" stroke-width="2"/>
<path d="M16.6012 104.643L34.3062 102.563C34.4829 102.544 34.6386 102.691 34.6573 102.897L38.3505 144.657C38.3692 144.863 38.24 145.046 38.0654 145.066L20.3604 147.146C20.1837 147.165 20.028 147.018 20.0093 146.812L16.3162 105.052C16.2974 104.846 16.4266 104.663 16.6012 104.643Z" fill="#E9CCBC"/>
<path d="M18.5543 104.409L36.2594 102.329C36.436 102.309 36.5917 102.457 36.6105 102.663L40.3036 144.423C40.3223 144.629 40.1932 144.811 40.0185 144.831L22.3135 146.911C22.1369 146.931 21.9811 146.783 21.9624 146.577L18.2693 104.817C18.2506 104.611 18.3797 104.429 18.5543 104.409Z" fill="white"/>
<path d="M19.8905 109.484L35.9075 107.509C36.0673 107.49 36.2076 107.626 36.2239 107.816L39.4281 143.224C39.4443 143.414 39.3269 143.583 39.169 143.602L23.152 145.577C22.9922 145.596 22.8518 145.46 22.8356 145.27L19.6314 109.862C19.6151 109.672 19.7325 109.503 19.8905 109.484Z" fill="#32264C"/>
<path d="M33.8571 124.04C33.8571 126.446 32.932 127.711 29.3403 127.985C27.7078 128.11 25.4766 126.336 25.4766 123.93C25.4766 121.524 27.735 119.848 29.8029 119.848C32.2517 119.957 33.7483 121.218 33.8571 124.04Z" fill="white"/>
<path d="M30.7171 123.922C30.2129 123.922 29.9295 124.923 29.8262 125.561C29.8068 125.68 29.8026 125.805 29.8501 125.916C30.0562 126.398 30.7344 126.489 30.8905 126.463C31.0506 126.436 31.6326 126.041 31.7994 125.571C31.8269 125.494 31.8325 125.411 31.8307 125.328C31.8042 124.138 31.3882 123.922 30.7171 123.922Z" fill="#8965D8"/>
<path d="M30.0477 123.374C30.0477 124.378 29.1069 125.192 28.016 125.192C26.9251 125.192 25.9844 124.378 25.9844 123.374C25.9844 122.37 26.7462 121.634 28.016 121.634C29.7091 121.556 30.0477 122.37 30.0477 123.374Z" fill="#FFA191"/>
<path d="M26.711 133.298C26.6601 133.303 26.6158 133.291 26.5781 133.263C26.5403 133.235 26.5192 133.198 26.5146 133.152L26.3052 131.023C26.3004 130.975 26.3139 130.934 26.3457 130.901C26.3773 130.867 26.4185 130.847 26.4693 130.842L27.0967 130.78C27.2954 130.76 27.4786 130.773 27.6463 130.818C27.8162 130.86 27.9666 130.931 28.0977 131.031C28.2286 131.128 28.3337 131.248 28.4131 131.39C28.4924 131.533 28.541 131.694 28.5587 131.874C28.5764 132.055 28.5604 132.223 28.5105 132.381C28.4605 132.536 28.3808 132.675 28.2716 132.798C28.1622 132.919 28.0284 133.018 27.8703 133.095C27.7144 133.169 27.537 133.216 27.3383 133.236L26.711 133.298ZM26.8627 132.991L27.3098 132.947C27.5039 132.927 27.671 132.871 27.8111 132.777C27.9532 132.68 28.0601 132.557 28.1318 132.408C28.2033 132.258 28.23 132.091 28.2121 131.908C28.1939 131.724 28.1352 131.566 28.0359 131.434C27.9366 131.302 27.8079 131.203 27.6499 131.138C27.4941 131.073 27.3192 131.05 27.1251 131.069L26.678 131.113L26.8627 132.991Z" fill="white"/>
<path d="M29.8495 132.992C29.6868 133.008 29.5369 132.983 29.3999 132.916C29.2625 132.847 29.1492 132.747 29.06 132.617C28.9727 132.485 28.9205 132.332 28.9033 132.157C28.8861 131.982 28.9107 131.821 28.9773 131.674C29.046 131.526 29.1455 131.406 29.2759 131.313C29.4082 131.217 29.5613 131.161 29.7352 131.144C29.909 131.126 30.069 131.152 30.2153 131.22C30.3613 131.286 30.4812 131.385 30.5752 131.517C30.6714 131.648 30.728 131.801 30.7452 131.976L30.6149 131.989C30.6321 132.163 30.6096 132.324 30.5476 132.471C30.4875 132.615 30.3969 132.735 30.2757 132.83C30.1543 132.922 30.0122 132.976 29.8495 132.992ZM29.887 132.687C30.0007 132.676 30.0995 132.639 30.1834 132.577C30.2671 132.513 30.33 132.432 30.3721 132.334C30.414 132.234 30.4292 132.125 30.4176 132.008C30.4059 131.889 30.3698 131.785 30.3094 131.697C30.2488 131.607 30.1713 131.54 30.0769 131.495C29.9823 131.449 29.8782 131.431 29.7645 131.442C29.6531 131.453 29.5544 131.491 29.4685 131.555C29.3846 131.617 29.3206 131.698 29.2764 131.799C29.2343 131.897 29.2191 132.005 29.2309 132.125C29.2424 132.242 29.2785 132.346 29.3391 132.436C29.4018 132.523 29.4804 132.591 29.575 132.637C29.6716 132.681 29.7756 132.698 29.887 132.687ZM30.6642 132.902C30.6152 132.907 30.5724 132.895 30.536 132.868C30.5015 132.838 30.4819 132.798 30.4771 132.749L30.4271 132.242L30.456 131.884L30.7452 131.976L30.8181 132.716C30.8229 132.765 30.8102 132.807 30.78 132.844C30.7518 132.878 30.7133 132.897 30.6642 132.902Z" fill="white"/>
<path d="M32.7932 132.698C32.7405 132.703 32.6947 132.692 32.6558 132.665C32.619 132.635 32.5982 132.595 32.5934 132.546L32.5128 131.727C32.5003 131.6 32.465 131.5 32.4069 131.425C32.3487 131.35 32.2747 131.298 32.1848 131.268C32.0971 131.237 31.9982 131.226 31.8881 131.237C31.7876 131.247 31.6985 131.275 31.6208 131.32C31.5431 131.366 31.4835 131.424 31.442 131.493C31.4002 131.56 31.3834 131.634 31.3915 131.716L31.1653 131.739C31.1515 131.599 31.1752 131.471 31.2363 131.355C31.2996 131.237 31.3915 131.139 31.512 131.062C31.6325 130.985 31.7718 130.939 31.9298 130.923C32.0949 130.907 32.2454 130.926 32.3812 130.98C32.5192 131.031 32.6316 131.117 32.7182 131.236C32.8073 131.355 32.8609 131.507 32.879 131.691L32.9596 132.51C32.9644 132.559 32.9505 132.602 32.9179 132.639C32.8874 132.673 32.8459 132.693 32.7932 132.698ZM31.3175 132.843C31.2648 132.849 31.219 132.837 31.18 132.81C31.1433 132.78 31.1225 132.74 31.1176 132.692L30.9715 131.206C30.9665 131.155 30.9792 131.112 31.0096 131.078C31.0425 131.043 31.0852 131.023 31.1379 131.018C31.1929 131.013 31.2388 131.024 31.2753 131.052C31.3119 131.08 31.3327 131.119 31.3377 131.17L31.4839 132.656C31.4887 132.704 31.476 132.747 31.4458 132.784C31.4153 132.818 31.3725 132.838 31.3175 132.843Z" fill="white"/>
<path d="M34.1386 132.566C33.9759 132.582 33.826 132.557 33.6889 132.49C33.5516 132.421 33.4383 132.321 33.349 132.192C33.2618 132.06 33.2095 131.906 33.1923 131.731C33.1751 131.556 33.1998 131.395 33.2663 131.248C33.3351 131.101 33.4346 130.98 33.5649 130.887C33.6973 130.791 33.8504 130.735 34.0242 130.718C34.198 130.701 34.358 130.726 34.5042 130.795C34.6503 130.861 34.7703 130.959 34.8642 131.091C34.9604 131.222 35.0171 131.375 35.0343 131.55L34.9039 131.563C34.9211 131.738 34.8987 131.898 34.8366 132.045C34.7766 132.19 34.6859 132.309 34.5648 132.404C34.4434 132.496 34.3013 132.55 34.1386 132.566ZM34.176 132.261C34.2897 132.25 34.3884 132.213 34.4725 132.151C34.5561 132.087 34.619 132.006 34.6612 131.908C34.7031 131.808 34.7182 131.7 34.7067 131.582C34.6949 131.463 34.6589 131.359 34.5985 131.271C34.5378 131.181 34.4604 131.114 34.366 131.07C34.2713 131.023 34.1673 131.005 34.0536 131.017C33.9422 131.027 33.8435 131.065 33.7576 131.129C33.6736 131.191 33.6096 131.272 33.5655 131.373C33.5234 131.471 33.5082 131.58 33.5199 131.699C33.5315 131.816 33.5676 131.92 33.6282 132.01C33.6908 132.098 33.7694 132.165 33.864 132.211C33.9606 132.255 34.0646 132.272 34.176 132.261ZM34.9533 132.476C34.9043 132.481 34.8614 132.47 34.825 132.442C34.7905 132.412 34.7709 132.372 34.7661 132.324L34.7161 131.816L34.7451 131.458L35.0343 131.55L35.1071 132.29C35.1119 132.339 35.0992 132.381 35.069 132.418C35.0409 132.452 35.0023 132.471 34.9533 132.476Z" fill="white"/>
<path d="M20.3103 106.22C20.6113 105.864 21.1042 105.859 21.4102 106.212C21.7165 106.564 21.7218 107.138 21.4191 107.496C21.118 107.852 20.6252 107.856 20.3192 107.504C20.0129 107.152 20.0076 106.578 20.3103 106.22Z" fill="#32264C" fill-opacity="0.8"/>
<path d="M22.6135 107.116C22.4368 106.929 22.4237 106.611 22.584 106.405C22.744 106.2 23.0167 106.186 23.1934 106.372C23.3701 106.559 23.3831 106.877 23.2229 107.083C23.0628 107.288 22.7902 107.302 22.6135 107.116Z" fill="#32264C" fill-opacity="0.8"/>
<path d="M13.3168 132.01C10.2322 131.036 11.2552 128.151 13.0905 127.436C13.2459 127.384 13.3992 127.322 13.2448 127.263C10.909 126.344 11.2046 123.114 13.4665 122.67C13.6259 122.639 13.5791 122.395 13.459 122.286C12.0472 121.014 12.2098 116.916 16.1824 118.039C23.4395 120.087 28.2648 123.647 22.0379 123.87C27.1492 125.646 28.5057 128.24 21.5017 127.973C25.6554 129.006 26.9887 132.112 21.4721 131.901C23.069 132.587 26.0239 134.897 18.3009 136.399C16.4515 136.753 15.5292 136.368 14.6298 136.044C11.9275 135.053 12.3606 133.46 12.8005 132.593C12.9299 132.348 13.1856 131.958 13.3274 132.008L13.3168 132.01Z" fill="#F8B791"/>
<path d="M77.7078 42.522L70.2554 50L75.2979 40.8219C76.8812 37.9329 75.6794 34.3479 72.6463 32.9189L63 28.3668L73.5683 30.1778C76.8939 30.7445 80.0415 28.5331 80.5121 25.293L82 15L83.488 25.293C83.9585 28.5331 87.1061 30.7445 90.4317 30.1778L101 28.3668L91.3537 32.9189C88.3206 34.3541 87.1188 37.9391 88.7021 40.8219L93.7447 50L86.2922 42.522C83.9458 40.169 80.0542 40.169 77.7142 42.522H77.7078Z" fill="#91B5F8"/>
<path d="M243.553 108.163L236.109 107.5L243.553 106.837C250.177 105.719 255.37 100.403 256.462 93.6213L257.109 86L257.757 93.6213C258.849 100.403 264.042 105.719 270.665 106.837L278.109 107.5L270.665 108.163C264.042 109.281 258.849 114.597 257.757 121.379L257.109 129L256.462 121.379C255.37 114.597 250.177 109.281 243.553 108.163Z" fill="#91B5F8"/>
</svg>
