<svg width="375" height="245" viewBox="0 0 375 245" fill="none" xmlns="http://www.w3.org/2000/svg">
<path d="M637.222 243.951C615.588 308.168 562.132 367.14 503.178 415.652C444.397 464.532 380.233 501.999 309.246 530.98C238.719 559.744 161.831 579.806 89.8218 575.512C17.1771 571.067 -50.415 542.633 -74.3812 491.822C-98.1737 441.379 -77.9929 369.295 -83.6744 302.207C-89.6439 235.706 -121.302 174.569 -97.7407 128.797C-74.3528 82.6575 3.61942 51.7316 71.2105 31.1036C139.09 9.88969 195.952 -1.17684 247.864 -0.00564699C299.775 1.16555 346.274 14.7922 410.494 24.1111C474.714 33.4301 556.656 38.4413 602.778 75.2012C648.9 111.961 659.029 180.102 637.222 243.951Z" fill="#32264C"/>
</svg>
