<svg width="750" height="360" viewBox="0 0 750 360" fill="none" xmlns="http://www.w3.org/2000/svg">
<mask id="mask0" style="mask-type:alpha" maskUnits="userSpaceOnUse" x="0" y="0" width="750" height="360">
<rect width="750" height="360" fill="white"/>
</mask>
<g mask="url(#mask0)">
<mask id="mask1" style="mask-type:alpha" maskUnits="userSpaceOnUse" x="0" y="-7" width="806" height="450">
<path d="M0 -7.00001H806V443H0V-7.00001Z" fill="white"/>
</mask>
<g mask="url(#mask1)">
<path d="M786 247L792.345 381.803H-17.1782L-6.44184 275.513C-17.1782 244.914 -26.4066 257.741 0.5368 219.147C20.3991 190.695 12.8304 140.819 28.9882 119.298C45.3549 97.4992 67.4498 89.5689 79.986 60.2482C89.2488 38.7277 108.974 22.6708 127.226 29.1127C136.559 23.0535 158.362 23.2077 171.782 39.8491C195.616 69.4027 280.446 72.1592 331 130C386.5 193.5 454.14 158.312 522 211C645 306.5 748.287 266.677 786 247Z" fill="#32264C"/>
<path d="M171.138 206.87C157.859 159.335 161.062 112.503 161.062 112.503C195.509 131.47 204.336 177.288 208.789 185.483C241.908 246.756 183.636 251.517 171.138 206.87Z" fill="#FFA191"/>
<path d="M181.371 204.216C212.694 255.81 87.0118 248.785 79.6692 217.564L43.1908 220.92C34.6766 180.956 36.6294 111.176 123.412 104.62C178.013 100.483 199.259 152.467 208.867 200.782C208.867 200.782 176.45 196.177 181.371 204.216Z" fill="#FFA191"/>
<path d="M92.6352 199.845C127.161 209.446 161.452 206.09 175.512 192.977C176.684 189.464 233.472 241.995 195.978 300.301C196.056 304.282 202.227 332.147 204.258 345.572H54.5945C53.9696 326.059 53.8915 287.812 65.7645 259.635C75.6067 236.219 87.7922 211.475 92.6352 199.845Z" fill="#E54925"/>
<path d="M111.461 71.6808L105.446 110.474C104.352 120.464 139.112 122.338 140.753 111.488V96.0336L111.461 71.6808Z" fill="#C78E85"/>
<path d="M154.11 68.4808C154.423 70.5883 154.891 72.4616 154.891 74.491C154.969 77.1448 154.579 79.9548 153.798 82.6086C151.611 89.6335 147.783 99.078 140.753 100.171C125.755 102.512 108.18 89.0871 108.727 70.7444C109.196 54.6653 122.319 28.9856 127.943 37.9618C136.691 51.9334 144.737 45.6111 150.829 54.197C152.079 55.9922 153.329 58.2558 153.72 63.7976C153.798 65.5148 153.876 67.0759 154.11 68.4808Z" fill="#FDB98D"/>
<path d="M129.036 79.5649C129.505 83.4676 126.693 86.98 122.865 87.4484C118.96 87.9167 115.445 85.1067 114.976 81.2821C114.507 77.3794 117.319 73.867 121.147 73.3987C125.053 72.9303 128.568 75.6622 129.036 79.5649Z" fill="#ED715D"/>
<path d="M154.891 74.4914C154.969 77.1453 154.735 79.9552 153.798 82.6091C150.517 82.2968 147.783 79.7991 147.393 76.3647C146.924 72.462 149.736 68.9496 153.563 68.4813C153.72 68.4813 153.876 68.4813 154.11 68.4032C154.423 70.5887 154.891 72.462 154.891 74.4914Z" fill="#ED715D"/>
<path d="M144.19 84.7164C143.956 84.4822 143.722 84.5603 143.565 84.7164C139.582 89.1654 134.739 85.4969 134.504 85.3408C134.348 85.1847 134.114 85.2627 133.958 85.4188C133.801 85.575 133.88 85.8091 134.036 85.9652C134.114 86.0433 139.66 90.1801 144.112 85.1847C144.347 85.1066 144.347 84.8725 144.19 84.7164Z" fill="#ED715D"/>
<path d="M142.472 79.0966C142.394 79.2527 142.315 79.4088 142.159 79.5649C141.144 80.8918 138.878 81.3601 136.926 80.5796C136.691 80.5015 136.613 80.2674 136.691 80.1113C136.769 79.8771 137.004 79.7991 137.16 79.8771C139.035 80.6576 140.831 80.0332 141.534 79.0966C142.081 78.3941 142.003 77.4574 141.3 76.5208C137.785 71.7595 137.629 68.4032 137.551 68.3251C137.551 68.091 137.707 67.9349 137.941 67.9349C138.175 67.9349 138.332 68.091 138.332 68.3251C138.332 68.3251 138.488 71.5253 141.925 76.1305C142.706 77.1452 142.94 78.1599 142.472 79.0966Z" fill="#ED715D"/>
<path d="M118.637 34.4809C83.3799 66.045 20.3817 167.843 45.2995 155.979C58.1099 125.304 90.2141 129.362 106.618 113.361C116.616 103.605 115.444 87.5255 115.366 67.8559C115.288 51.1524 134.66 57.0064 133.566 41.3956C132.473 23.9896 118.637 34.4809 118.637 34.4809Z" fill="#32264C"/>
<path d="M126.302 71.2126C130.051 71.2126 132.707 68.9491 132.785 68.9491C132.941 68.793 133.019 68.4808 132.863 68.3247C132.707 68.1685 132.394 68.0905 132.238 68.2466C132.004 68.4027 127.161 72.5396 121.068 68.6369C120.834 68.4808 120.599 68.5588 120.443 68.793C120.287 69.0271 120.365 69.2613 120.599 69.4174C122.63 70.7443 124.583 71.2126 126.302 71.2126Z" fill="#002869"/>
<path d="M145.752 68.0123C149.97 68.0123 152.626 65.2805 152.626 65.2024C152.782 65.0463 152.782 64.7341 152.626 64.578C152.47 64.4219 152.157 64.4219 152.001 64.578C151.845 64.7341 148.33 68.4026 142.784 66.6074C142.549 66.5293 142.315 66.6854 142.237 66.9196C142.159 67.1537 142.315 67.3879 142.549 67.466C143.643 67.8562 144.737 68.0123 145.752 68.0123Z" fill="#002869"/>
<path d="M123.802 265.801C127.942 266.972 131.848 270.094 134.269 270.64C139.581 271.811 142.315 272.358 142.627 273.45C143.877 277.821 130.285 273.606 129.036 276.416C129.114 277.821 132.394 280.709 134.972 282.426C138.019 284.534 148.251 288.046 147.08 289.92C146.142 291.481 138.565 289.061 136.222 287.89C138.643 289.139 149.892 293.588 147.705 295.696C146.064 297.257 133.801 291.169 132.16 290.31C132.941 290.778 144.892 296.242 143.174 297.725C141.143 299.442 130.754 293.666 129.114 292.808C130.051 293.354 140.518 297.803 138.253 299.52C136.847 300.613 126.77 296.242 125.13 295.461C118.022 291.715 104.04 276.26 102.634 273.997L108.023 262.679C108.023 262.679 113.413 263.459 115.913 264.084C119.037 264.864 122.24 265.411 123.802 265.801Z" fill="#FDB98D"/>
<path d="M105.133 279.694C93.5728 277.899 71.0765 265.956 58.6566 249.955C28.0366 210.616 46.1587 188.371 61.3906 187.512C71.3108 186.966 92.9479 187.824 92.4011 194.615C90.8389 213.66 94.0415 244.57 116.147 262.756C118.178 267.205 110.992 280.552 105.133 279.694Z" fill="#FFA191"/>
<path d="M174.732 319.969C174.497 319.969 174.263 319.813 174.185 319.657C174.029 319.345 174.185 319.033 174.497 318.877C187.464 312.945 194.416 301.627 194.494 301.549C194.65 301.236 195.041 301.158 195.275 301.315C195.588 301.471 195.666 301.861 195.509 302.095C195.431 302.173 188.323 313.803 175.044 319.891C174.888 319.969 174.81 319.969 174.732 319.969Z" fill="#002869"/>
<path d="M194.182 209.836C191.135 210.929 187.464 213.973 182.855 215.612C177.388 217.563 174.654 218.422 174.497 219.593C173.716 224.276 187.386 218.188 189.104 220.998C189.261 222.481 186.136 225.915 183.715 228.022C180.824 230.598 170.514 235.594 171.92 237.389C173.091 238.95 180.746 235.438 183.012 233.876C180.668 235.516 168.951 240.199 171.529 242.15C173.404 243.633 185.98 236.999 187.62 235.906C186.917 236.452 173.794 242.697 175.825 244.023C178.169 245.585 189.495 239.262 191.057 238.169C190.12 238.872 179.731 244.804 182.309 246.365C183.949 247.302 193.947 241.526 195.51 240.433C202.462 235.594 211.523 223.495 211.523 218.656C211.523 213.192 207.695 209.133 203.477 208.587C200.977 208.197 198.868 208.197 194.182 209.836Z" fill="#FDB98D"/>
<path d="M175.201 195.083C175.123 195.083 174.966 195.083 174.888 195.005C174.576 194.849 174.498 194.459 174.732 194.225C180.512 184.936 179.966 175.726 178.481 169.638C176.45 161.286 171.686 154.73 168.092 152.622C167.78 152.466 167.702 152.076 167.858 151.842C168.014 151.529 168.405 151.451 168.639 151.607C172.467 153.871 177.466 160.74 179.575 169.404C181.137 175.726 181.684 185.327 175.669 194.927C175.591 194.927 175.435 195.083 175.201 195.083Z" fill="#ED715D"/>
<path d="M93.6514 211.241C93.339 211.241 93.0265 210.616 93.0265 210.304C90.0582 195.396 94.5106 168.779 94.5887 168.545C94.6669 168.233 94.9012 167.999 95.2918 168.077C95.6042 168.155 95.8385 168.467 95.7604 168.779C95.6823 169.013 91.3862 195.942 94.2763 210.616C94.3544 210.928 94.1201 211.241 93.8076 211.319C93.7295 211.241 93.6514 211.241 93.6514 211.241Z" fill="#ED715D"/>
<rect y="335.636" width="402.614" height="445.56" fill="#32264C"/>
<path d="M82.4583 898.391C27.1252 877.311 -17.1394 831.683 -50.6323 782.434C-84.5005 733.296 -106.734 680.688 -119.77 623.293C-132.694 566.273 -136.307 504.841 -118.286 448.803C-100 392.278 -60.4548 341.258 -8.66341 325.807C42.7527 310.468 105.664 330.922 168.984 330.825C231.817 330.466 294.683 309.668 332.535 331.061C370.762 352.341 384.239 415.325 390.19 469.522C396.629 523.983 395.805 569.171 384.598 609.693C373.391 650.216 351.689 685.698 330.527 735.319C309.364 784.94 288.741 848.699 245.66 882.388C202.58 916.077 137.416 919.583 82.4583 898.391Z" fill="#32264C"/>
<path d="M250.181 124.117C250.632 131.6 246.183 138.651 242.121 145.021C239.928 148.422 237.607 151.762 235.608 155.225C234.06 157.947 233.795 158.604 232.427 163.389C219.595 157.328 209.105 144.279 206.01 132.033C204.14 124.612 204.204 115.458 214.199 117.128C219.938 118.056 224.645 127.518 227.676 132.157C231.094 125.23 249.02 103.708 250.181 124.117Z" fill="#F0ECE4"/>
<path d="M205.044 81.5891C205.344 86.6265 202.382 91.3725 199.677 95.6605C198.217 97.9502 196.671 100.198 195.34 102.53C194.309 104.361 194.133 104.804 193.222 108.025C184.678 103.945 177.693 95.1609 175.632 86.9179C174.387 81.9221 174.43 75.7607 181.085 76.8847C184.906 77.5092 188.041 83.8788 190.059 87.0012C192.334 82.3384 204.271 67.8507 205.044 81.5891Z" fill="#F0ECE4"/>
</g>
</g>
</svg>
