<svg width="750" height="360" viewBox="0 0 750 360" fill="none" xmlns="http://www.w3.org/2000/svg">
<mask id="mask0" style="mask-type:alpha" maskUnits="userSpaceOnUse" x="0" y="0" width="750" height="360">
<rect width="750" height="360" fill="white"/>
</mask>
<g mask="url(#mask0)">
<mask id="mask1" style="mask-type:alpha" maskUnits="userSpaceOnUse" x="-107" y="-12" width="857" height="461">
<rect x="-107" y="-12" width="857" height="461" fill="white"/>
</mask>
<g mask="url(#mask1)">
<rect x="337" y="308.488" width="413" height="476.877" fill="#32264C"/>
<path d="M-21.5 424.5C-16.0892 396.991 -163 376 -4 274.5C85 202 122 258.661 217.5 197C264.837 166.436 364.763 180.928 415.5 116.5C450.192 72.4467 506.597 105.498 525.327 57.9759C541.023 33.9783 551.702 19.4806 576.98 26.461C583.672 27.1218 584.167 28.7327 591.23 33.937C615.393 51.7803 617.84 57.9759 617.84 57.9759C643.721 93.728 660.728 77.7586 697.686 138.883C740.638 209.919 856.829 158.156 856.829 327.211L322.838 413.5L-21.5 424.5Z" fill="#32264C"/>
<path d="M668.303 354.787H513.496C517.874 302.413 532.537 279.283 535.428 247.107C535.8 243.101 544.267 238.723 556.947 238.103C585.819 236.699 635.053 242.027 637.284 248.14C647.238 275.772 667.147 298.903 668.303 354.787Z" fill="#E9CCBC"/>
<path d="M531.009 214.684C531.174 219.599 531.339 245.455 533.817 248.553C551.908 271.229 634.351 257.846 640.216 251.403C646.99 243.968 638.729 223.771 637.325 216.749C634.434 202.086 677.927 235.997 677.927 235.997C693.87 219.062 694.738 196.386 689.41 175.28C684.453 155.702 672.186 137.115 654.301 124.476C634.847 110.763 608.041 103.824 581.234 103.824C508.209 103.824 479.007 175.238 490.572 211.008C494.207 222.284 530.719 205.473 531.009 214.684Z" fill="#E54925"/>
<path d="M511.843 279.117C511.182 280.645 512.422 282.834 518.411 283.826C522.004 284.404 522.211 283.908 526.217 284.28C531.132 284.776 535.056 287.46 537.617 284.858C539.558 282.876 538.526 280.645 539.765 278.126C540.921 275.73 550.38 267.593 555.915 263.421C555.915 263.421 548.232 254.252 543.813 251.361C543.813 251.361 536.75 264.785 529.315 272.261C526.424 275.193 521.095 276.887 518.865 277.382C513.289 278.58 512.38 277.878 511.843 279.117Z" fill="#FDB88E"/>
<path d="M587.802 77.1411C591.932 78.0085 593.584 77.7194 595.402 77.802C596.847 77.8433 598.086 78.6694 598.086 78.6694L601.308 70.739C600.275 69.7064 596.186 65.576 590.734 63.7999C589.743 63.4695 584.002 62.4782 583.341 63.263C582.886 63.7999 583.547 64.213 584.497 64.5021C582.515 64.1304 580.367 63.9651 580.119 64.7912C579.954 65.3282 580.821 65.8238 581.936 66.2369C580.326 65.8651 579.128 65.7825 578.839 66.3195C578.343 67.3108 580.739 68.3021 582.473 68.8803C581.234 68.5499 580.037 68.3434 579.954 68.9629C579.706 70.326 584.084 71.2346 585.984 71.9781C587.595 72.5977 589.082 73.8781 589.123 74.2085C587.513 74.9107 583.63 73.7955 583.341 75.489C583.176 76.3563 584.828 76.5216 587.802 77.1411Z" fill="#FDB88E"/>
<path d="M656.532 197.46C655.541 182.838 660.167 170.199 657.358 146.284C656.656 140.295 652.525 123.567 645.256 114.48C610.395 70.8632 588.835 80.6936 581.4 78.7523C578.054 77.8849 571.322 87.9631 573.015 89.1196C594.906 111.135 613.452 119.354 612.254 133.439C607.091 137.074 607.71 141.824 603.745 148.763C591.189 170.612 596.021 185.358 589.289 202.664C585.902 211.338 572.685 211.875 559.963 226.001C551.372 235.501 536.626 247.438 531.628 264.91C531.133 266.81 542.285 278.044 543.896 276.144C555.13 270.196 580.78 251.362 589.867 249.297C606.471 245.538 630.676 251.899 645.215 237.814C655.747 227.653 657.606 213.403 656.532 197.46Z" fill="#6EB3F2"/>
<path d="M594.204 72.6387L601.143 111.795C602.217 121.584 565.828 122.41 564.259 111.795L565.581 96.4711L594.204 72.6387Z" fill="#C78E85"/>
<path d="M601.143 74.6218C600.564 93.1673 586.149 104.691 572.684 103.782C563.308 103.163 557.691 93.539 555.584 88.0456C555.584 88.0043 555.584 88.0043 555.543 87.963C554.51 85.4848 553.932 82.8413 553.767 80.2391C553.684 79.0826 553.726 77.9674 553.808 76.8522C553.849 76.0261 553.932 75.1587 554.015 74.2501C554.097 72.8457 554.056 71.3175 553.973 69.5827C553.85 64.2132 554.841 61.8589 555.915 60.0002C561.119 51.0785 569.504 56.5306 576.773 42.1155C581.523 32.9047 601.638 58.885 601.143 74.6218Z" fill="#FDB88E"/>
<path d="M582.186 80.4867C581.443 84.6997 585.49 88.2932 589.869 86.7236C591.19 86.228 592.264 85.1954 592.842 83.915C594.701 79.578 591.19 75.3237 586.853 75.9433C584.458 76.2737 582.599 78.1324 582.186 80.4867Z" fill="#ED715D"/>
<path d="M559.963 82.6344C559.88 85.2779 558.021 87.4257 555.543 87.9626C554.51 85.4844 553.932 82.8409 553.767 80.2388C553.684 79.0823 553.726 77.9671 553.808 76.8518C554.015 76.8518 554.263 76.8105 554.469 76.8105C557.608 76.9344 560.045 79.5366 559.963 82.6344Z" fill="#ED715D"/>
<path d="M576.98 26.5025C579.417 24.0656 610.351 14.9827 627.751 57.9346C635.599 77.3062 639.432 77.9674 654.549 96.9259L666.28 134.802C639.143 107.5 624.315 121.667 601.102 109.524C589.496 103.452 592.552 88.0868 591.561 68.5913C590.735 52.0697 565.085 54.1349 569.794 43.1894C576.691 27.3699 576.98 26.5025 576.98 26.5025Z" fill="#32264C"/>
<path d="M584.786 219.145C581.11 217.038 576.443 215.965 574.625 215.262C570.784 213.693 566.943 210.182 566.158 211.71C564.051 215.675 574.295 220.301 573.882 222.821C572.849 223.771 568.595 223.441 565.662 222.862C562.11 222.201 552.569 217.534 552.073 219.641C551.66 221.375 558.517 224.969 560.995 225.754C558.434 224.969 547.612 220.178 547.654 223.234C547.695 225.464 560.417 229.76 562.11 230.256C561.284 230.049 549.223 225.464 549.388 227.695C549.595 230.297 560.747 233.519 562.44 234.056C561.367 233.808 551.123 229.554 551.495 232.362C551.701 234.097 561.656 238.103 563.39 238.64C570.908 240.953 591.271 240.003 593.79 239.425L597.921 227.86C597.921 227.86 593.666 224.597 591.477 223.358C588.71 221.788 586.19 219.93 584.786 219.145Z" fill="#FAB898"/>
<path d="M582.97 241.283C594.122 251.362 651.245 259.705 677.928 235.955C677.928 235.955 656.863 181.723 656.45 190.355C655.582 208.24 622.787 222.573 592.139 216.377C587.307 216.005 579.335 236.451 582.97 241.283Z" fill="#E54925"/>
<path d="M604.366 201.756C607.505 198.947 611.883 196.923 613.494 195.849C616.963 193.536 619.937 189.282 621.052 190.645C623.944 194.115 614.857 200.765 615.807 203.119C617.005 203.821 621.094 202.623 623.861 201.467C627.165 200.062 635.55 193.578 636.5 195.478C637.285 197.088 631.296 202.045 629.024 203.325C631.378 202.004 640.961 195.147 641.539 198.08C641.993 200.269 630.387 207.084 628.859 207.951C629.644 207.58 640.507 200.599 640.796 202.83C641.126 205.391 630.883 210.884 629.313 211.751C630.304 211.256 639.433 205.019 639.68 207.828C639.804 209.562 630.924 215.551 629.354 216.419C622.457 220.26 602.342 223.523 599.781 223.482L593.337 213.032C593.337 213.032 596.848 208.984 598.707 207.291C601.102 205.143 603.168 202.83 604.366 201.756Z" fill="#FDB88E"/>
<path d="M608.371 225.63C598.21 238.558 506.639 259.416 490.407 210.512C490.407 210.512 532.124 167.804 532.826 176.437C534.767 200.476 572.395 208.282 599.036 206.382C603.828 205.969 611.964 220.756 608.371 225.63Z" fill="#E54925"/>
<path d="M561.945 73.7131C557.443 74.1262 555.419 71.6892 555.295 71.5653C555.089 71.2762 555.13 70.9045 555.378 70.6979C555.667 70.4914 556.039 70.5327 556.245 70.7805C556.369 70.9045 558.806 73.7544 564.671 71.8544C565.002 71.7305 565.332 71.9371 565.456 72.2675C565.58 72.5979 565.373 72.9284 565.043 73.0523C563.928 73.424 562.854 73.6305 561.945 73.7131Z" fill="#002869"/>
<path d="M580.822 74.4561C578.013 74.7039 575.948 73.7126 575.824 73.63C575.535 73.4648 575.37 73.093 575.535 72.8039C575.7 72.5148 576.072 72.3496 576.361 72.5148C576.568 72.5974 581.277 74.8691 585.944 70.9039C586.192 70.6974 586.605 70.6974 586.811 70.9865C587.018 71.2343 587.018 71.6474 586.729 71.8539C584.705 73.63 582.598 74.2908 580.822 74.4561Z" fill="#002869"/>
<path d="M570.289 86.3934C569.546 86.476 568.802 86.3521 568.141 86.1042C566.985 85.6499 566.241 84.7825 566.035 83.6673C565.787 82.263 566.654 81.1065 567.481 79.9912C567.894 79.4543 568.348 78.876 568.596 78.2978C569.546 76.2739 569.628 72.887 569.628 72.8456C569.628 72.5152 569.918 72.2261 570.248 72.2261C570.578 72.2261 570.868 72.5152 570.868 72.8456C570.868 73.0109 570.785 76.563 569.711 78.7934C569.381 79.4956 568.885 80.1152 568.431 80.7347C567.687 81.726 567.026 82.5521 567.191 83.4195C567.357 84.3282 568.1 84.7412 568.554 84.9064C569.587 85.3195 570.868 85.1543 571.694 84.576C571.983 84.3695 572.354 84.4108 572.561 84.6999C572.767 84.989 572.726 85.3608 572.437 85.5673C571.859 86.0629 571.074 86.3108 570.289 86.3934Z" fill="#ED715D"/>
<path d="M571.693 92.8371C568.595 92.8784 566.282 91.5154 566.117 91.4328C565.828 91.2676 565.704 90.8958 565.91 90.5654C566.076 90.2763 566.489 90.1524 566.778 90.3589C566.819 90.4002 571.61 93.085 576.236 90.2763C576.525 90.1111 576.897 90.1937 577.104 90.4828C577.269 90.7719 577.186 91.1437 576.897 91.3502C575.08 92.4654 573.262 92.8371 571.693 92.8371Z" fill="#ED715D"/>
<path d="M631.914 81.5611C626.421 72.5982 616.342 80.1981 616.342 80.1981C606.801 77.2242 596.764 78.3807 591.23 84.3285C589.206 86.4763 590.28 89.5328 593.419 90.1524C589.247 90.5241 585.323 92.6719 583.712 95.1915C581.895 98.0828 583.754 103.535 591.23 105.394C595.773 106.55 601.39 104.567 606.925 104.444C609.527 104.402 613.286 105.765 616.838 107.789C619.895 111.672 622.497 116.876 623.901 119.974C625.016 122.411 628.981 122.989 631.047 121.296C631.418 121.006 631.708 124.146 632.121 124.146C636.499 124.187 636.54 108.409 636.54 108.409C640.794 102.007 643.521 83.709 631.914 81.5611Z" fill="#32264C"/>
<path d="M630.179 112.333L633.442 131.912L609.733 138.727L609.857 127.699L630.179 112.333Z" fill="#C78E85"/>
<path d="M627.329 118.074C626.09 129.763 616.094 132.242 610.436 132.035C605.314 131.87 602.092 128.648 599.242 124.559C599.119 124.353 598.953 124.146 598.788 123.857C598.045 122.618 597.136 120.759 596.806 119.809C596.351 118.446 596.145 116.918 596.269 115.348C596.31 114.77 596.392 114.192 596.516 113.572C596.682 112.87 596.764 112.168 596.806 111.466C596.806 111.383 596.806 111.301 596.806 111.218C596.847 110.144 596.805 109.07 596.64 107.996C596.475 106.881 596.31 105.683 596.227 104.775C595.773 100.562 595.814 95.3986 598.045 93.9116C601.39 91.3095 626.462 78.1335 630.344 100.727C630.592 102.131 628.899 104.114 628.197 107.542C635.218 104.692 634.062 118.818 627.329 118.074Z" fill="#FDB88E"/>
<path d="M614.526 117.824C614.65 120.426 616.839 122.45 619.441 122.326C622.043 122.202 624.067 120.013 623.943 117.411C623.819 114.809 621.63 112.785 619.028 112.909C616.426 113.033 614.402 115.222 614.526 117.824Z" fill="#ED715D"/>
<path d="M599.242 123.897C599.077 123.897 598.953 123.897 598.788 123.897C598.045 122.658 597.136 120.799 596.806 119.849C596.351 118.486 596.145 116.958 596.269 115.388C596.971 114.851 597.838 114.562 598.788 114.521C601.39 114.397 603.579 116.421 603.703 119.023C603.869 121.584 601.845 123.773 599.242 123.897Z" fill="#ED715D"/>
<path d="M594.492 101.015C594.492 101.015 590.279 86.6409 604.736 82.5518C619.44 78.3801 619.44 85.03 619.44 85.03C623.157 82.8409 630.757 77.3888 636.498 85.6083C640.587 91.4735 640.422 99.0734 636.209 105.476C634.35 108.326 628.444 104.278 627.329 110.639C623.529 110.845 623.611 102.626 620.307 97.0495C619.894 96.3473 618.944 96.1408 618.283 96.6778C615.185 98.9495 597.218 103.989 594.492 101.015Z" fill="#32264C"/>
<path d="M618.407 110.928C618.861 110.598 619.109 110.309 619.109 110.267C619.274 110.061 619.233 109.772 619.067 109.648C618.861 109.483 618.613 109.524 618.448 109.689C618.365 109.772 616.424 112.002 612.665 110.68C612.417 110.598 612.17 110.722 612.087 110.97C612.004 111.217 612.128 111.465 612.376 111.548C615.391 112.622 617.415 111.672 618.407 110.928Z" fill="#002869"/>
<path d="M604.942 112.085C605.148 111.961 605.066 111.548 604.942 111.341C604.818 111.135 604.487 111.011 604.281 111.135C604.198 111.217 601.885 112.58 599.201 110.722C598.994 110.598 598.705 110.598 598.54 110.804C598.416 111.011 598.54 111.424 598.746 111.548C602.009 113.819 604.818 112.167 604.942 112.085Z" fill="#002869"/>
<path d="M611.922 122.122C612.129 121.956 612.253 121.791 612.088 121.585C611.922 121.378 611.675 121.378 611.509 121.543C611.468 121.543 609.403 123.03 607.544 122.039C607.338 121.915 607.049 121.998 606.925 122.245C606.801 122.452 606.842 122.659 607.049 122.782C609.403 124.022 611.798 122.204 611.922 122.122Z" fill="#ED715D"/>
<path d="M609.651 118.734C609.858 118.61 609.858 118.28 609.734 118.073C609.61 117.867 609.321 117.784 609.114 117.95C608.495 118.363 607.834 118.486 607.338 118.321C607.09 118.239 606.884 118.073 606.843 117.908C606.595 117.206 606.843 116.876 607.462 116.215C608.123 115.471 609.073 114.439 608.784 112.291C608.743 112.043 608.536 111.878 608.288 111.919C608.04 111.96 607.875 112.167 607.916 112.415C608.123 114.15 607.462 114.893 606.801 115.636C606.223 116.256 605.562 117 606.017 118.239C606.182 118.693 606.595 119.065 607.132 119.23C607.503 119.354 608.495 119.56 609.651 118.734Z" fill="#ED715D"/>
<path d="M541.417 143.724C540.137 144.921 543.193 147.565 543.524 149.3C543.276 149.465 541.376 148.887 539.972 147.895C538.278 146.697 535.139 143.558 534.148 144.508C533.693 144.921 534.52 145.83 535.47 146.656C534.024 145.5 531.876 144.054 531.298 145.004C531.009 145.541 531.752 146.491 532.909 147.606C531.959 146.904 531.05 146.45 530.678 146.863C530.141 147.523 531.463 149.217 532.867 150.704C532.083 150.084 531.422 149.754 531.215 150.415C530.926 151.365 534.933 155.66 535.717 156.28C540.178 159.832 545.878 160.989 547.324 161.319L552.156 154.256C552.156 154.256 550.793 153.678 549.967 152.48C548.935 150.993 548.232 149.506 545.259 146.491C543.111 144.384 542.078 143.104 541.417 143.724Z" fill="#FDB88E"/>
<path d="M607.835 134.843C596.311 141.824 584.911 152.934 551.083 150.704C549.183 149.961 542.079 160.039 544.64 162.393C551.207 168.341 597.22 191.802 629.974 171.232C642.241 163.508 650.998 143.6 640.713 130.795C637.574 126.83 631.543 120.469 607.835 134.843Z" fill="#6EB3F2"/>
<path d="M637.078 108.657C637.037 108.657 636.995 108.657 636.913 108.615C636.706 108.533 636.582 108.285 636.665 108.078C640.341 98.661 640.878 90.8545 638.152 86.0633C636.789 83.6263 634.641 82.1394 631.956 81.6437C631.874 81.6437 631.75 81.5611 631.708 81.4785C626.628 75.0351 621.052 77.9264 618.078 79.4959C617.004 80.0742 616.467 80.3633 616.013 80.1155C615.022 79.5372 603.787 76.2329 594.493 82.0981C594.287 82.222 594.039 82.1807 593.915 81.9742C593.791 81.7677 593.833 81.5198 594.039 81.3959C603.622 75.3655 614.939 78.6285 616.343 79.372C616.55 79.3307 617.128 79.0416 617.665 78.7938C620.639 77.2655 626.793 74.0438 632.245 80.9003C635.095 81.4372 637.367 83.0894 638.854 85.6915C641.663 90.6893 641.167 98.7436 637.408 108.409C637.408 108.574 637.243 108.657 637.078 108.657Z" fill="#F0ECE4"/>
<path d="M823.844 480.664C823.77 532.948 799.964 583.782 769.794 626.857C739.834 670.207 703.364 705.04 660.062 733.777C617.035 762.305 567.45 784.528 515.541 787.199C463.148 789.806 408.642 773.137 379.666 735.218C350.9 697.573 348.083 639.229 328.172 586.983C308.197 535.222 271.338 489.834 277.144 451.884C282.741 413.66 330.519 382.808 373.399 360.921C416.345 338.549 453.909 325.077 490.874 321.638C527.838 318.199 563.928 325.004 611.522 326.934C659.116 328.865 718.214 325.922 759.519 350.938C800.825 375.954 824.128 428.654 823.844 480.664Z" fill="#32264C"/>
</g>
</g>
</svg>
