<svg width="33" height="32" viewBox="0 0 33 32" fill="none" xmlns="http://www.w3.org/2000/svg">
    <path fill-rule="evenodd" clip-rule="evenodd" d="M16.5568 31.9944C19.8729 31.9121 22.9909 30.7142 25.7473 28.8708C28.597 26.9651 31.3207 24.6283 32.4224 21.3842C33.5315 18.1184 32.9056 14.5516 31.7087 11.3169C30.549 8.18269 28.4888 5.51362 25.8098 3.51276C23.1009 1.48958 19.939 0.0226402 16.5568 0.000261307C13.1606 -0.0222092 9.96663 1.40199 7.21431 3.38972C4.45672 5.38126 2.20629 8.00488 1.04772 11.2009C-0.138992 14.4746 -0.399273 18.0773 0.691298 21.3842C1.77907 24.6826 4.13941 27.4035 7.02829 29.3355C9.83738 31.2141 13.1773 32.0783 16.5568 31.9944Z" fill="#F8CFC6"/>
</svg>
