<svg width="750" height="419" viewBox="0 0 750 419" fill="none" xmlns="http://www.w3.org/2000/svg">
<mask id="mask0" style="mask-type:alpha" maskUnits="userSpaceOnUse" x="0" y="0" width="750" height="419">
<rect width="750" height="419" fill="white"/>
</mask>
<g mask="url(#mask0)">
<path d="M375 331H750V741H375V331Z" fill="#32264C"/>
<path d="M-1.3204 486.796C4.09043 459.287 -142.82 438.296 16.1796 336.796C105.18 264.296 142.18 320.957 237.68 259.296C285.017 228.732 340.763 257.428 391.5 193C426.192 148.947 472.5 181.5 512.5 131.5C554 120.272 571.882 81.7766 597.16 88.7569C603.851 89.4178 604.347 91.0287 611.41 96.233C635.573 114.076 638.019 120.272 638.019 120.272C663.901 156.024 648.041 239.876 685 301C727.952 372.036 726.5 259.945 726.5 429L343.017 475.796L-1.3204 486.796Z" fill="#32264C"/>
<path d="M370.5 362C359 313 407.699 286.856 419 277C443.128 256.024 444.323 253.6 457 225C466.815 202.946 483.628 208.756 495.413 185.177C502.662 170.71 497.271 151.557 509.502 134.523C523.406 115.147 544.857 116.969 558.5 96.0308C571.772 75.7246 588.761 63.5632 610.175 69.5137C615.826 70.0716 616.272 71.4477 622.257 75.8362C642.704 90.9728 660.065 109.605 660.065 109.605C670.102 145.681 680.623 141.366 693.077 158.288C713.375 185.847 697.332 233.786 718 253.5C766.5 299.762 748.229 326.297 761.5 362L636.533 347.627L370.5 362Z" fill="#32264C"/>
<path d="M697.984 347.627H545.562C548.276 318.544 569.987 275.403 573.444 254.092C574.002 250.745 582.553 249.295 593.296 248.737C617.758 247.547 659.432 252.047 661.328 257.253C669.73 280.684 692.296 310.436 697.984 347.627Z" fill="#6EB3F2"/>
<path d="M571.288 228.951C571.4 233.117 567.496 264.097 570.545 265.398C604.152 280.014 659.321 267.89 664.525 262.609C666.682 260.415 662.481 236.613 661.291 230.662C658.838 218.24 681.738 238.881 681.738 238.881C696.237 223.893 686.757 181.459 670.771 163.198C657.499 148.024 637.61 138.131 614.933 138.131C553.109 138.131 530.804 194.513 538.425 223.298C540.99 233.042 571.065 221.141 571.288 228.951Z" fill="#E54925"/>
<path d="M624.822 110.87L629.803 143.003C630.733 151.297 600.769 153.007 599.468 144.044L600.583 131.065L624.822 110.87Z" fill="#FAB898"/>
<path d="M627.089 110.052C627.536 125.3 613 136.457 600.546 134.486C594.746 133.557 591.512 125.746 589.728 119.945C589.728 119.945 589.728 119.907 589.728 119.87C589.058 117.713 588.761 115.445 588.835 113.213C588.873 112.246 588.984 111.316 589.133 110.387C589.244 109.68 589.393 108.973 589.505 108.23C589.69 107.039 589.765 105.775 589.839 104.287C590.137 99.75 591.177 97.8533 592.218 96.3657C597.311 89.2622 603.966 94.4689 611.215 82.9026C615.899 75.39 626.718 96.7376 627.089 110.052Z" fill="#FAB898"/>
<path d="M612.74 115.631C611.811 119.127 614.896 122.474 618.725 121.47C619.878 121.172 620.882 120.391 621.439 119.313C623.335 115.779 620.733 111.912 617.015 112.135C615.008 112.246 613.298 113.66 612.74 115.631Z" fill="#EE5D37"/>
<path d="M593.854 115.705C593.594 117.936 591.847 119.61 589.728 119.87C589.058 117.713 588.761 115.445 588.835 113.213C588.873 112.246 588.984 111.316 589.133 110.387C589.319 110.387 589.505 110.387 589.69 110.424C592.33 110.721 594.189 113.102 593.854 115.705Z" fill="#EE5D37"/>
<path d="M610.248 69.5137C612.293 67.4311 645.342 63.7864 655.343 92.6836C661.142 109.42 661.254 125.412 678.875 150.255L678.429 174.689C666.83 153.416 649.394 158.288 631.624 144.305C622.405 137.052 623.446 121.692 622.591 105.18C621.884 91.1588 600.174 92.944 604.151 83.6463C609.951 70.2576 610.248 69.5137 610.248 69.5137Z" fill="#32264C"/>
<path d="M602.442 166.024C609.208 168.441 614.599 173.574 617.498 180.008C617.907 180.937 618.948 181.235 619.803 180.64C625.528 176.549 632.778 174.801 639.841 176.103C657.351 179.338 666.124 200.128 658.652 218.277C646.904 246.914 607.349 259.894 598.278 262.534C597.163 262.869 595.899 262.534 595.081 261.679C588.575 254.873 560.842 223.818 565.006 193.136C567.682 173.611 585.676 160.036 602.442 166.024Z" fill="#F8CFC6"/>
<path d="M599.877 228.244C596.494 227.017 592.479 226.794 590.843 226.422C587.386 225.678 585.043 222.852 583.556 224.302C580.88 226.943 591.809 230.327 591.289 232.856C590.583 233.786 586.977 234.12 584.411 234.083C581.363 234.009 572.738 231.517 572.59 233.339C572.478 234.864 578.761 236.872 580.917 237.17C578.649 236.872 568.946 234.455 569.43 236.947C569.764 238.806 580.991 240.554 582.515 240.777C581.772 240.703 571.065 238.62 571.549 240.48C572.106 242.6 581.846 243.716 583.371 243.902C582.441 243.827 573.296 241.744 573.965 244.05C574.374 245.464 583.259 247.397 584.783 247.583C591.401 248.439 608.278 244.757 610.286 243.902L612.108 233.674C612.108 233.674 608.093 231.554 606.085 230.81C603.483 229.881 601.141 228.69 599.877 228.244Z" fill="#FAB898"/>
<path d="M602.815 206.822C600.138 204.442 596.458 202.731 595.082 201.802C592.145 199.831 589.617 196.26 588.651 197.376C586.197 200.314 593.893 205.93 593.112 207.938C592.108 208.533 588.614 207.529 586.271 206.525C583.446 205.335 576.346 199.831 575.565 201.467C574.896 202.843 579.989 207.008 581.885 208.124C579.914 207.008 571.773 201.169 571.29 203.698C570.918 205.521 580.732 211.322 582.033 212.066C581.364 211.732 572.182 205.855 571.922 207.752C571.661 209.946 580.323 214.558 581.624 215.302C580.807 214.893 573.037 209.612 572.851 211.955C572.739 213.405 580.286 218.5 581.587 219.244C587.424 222.48 604.451 225.269 606.644 225.232L612.109 216.38C612.109 216.38 609.135 212.959 607.573 211.508C605.603 209.686 603.819 207.715 602.815 206.822Z" fill="#FAB898"/>
<path d="M602.33 227.315C610.918 238.286 658.875 262.051 681.775 238.881C681.775 238.881 685.233 223.782 679.917 218.761C659.47 199.385 636.198 216.269 610.249 211.025C606.16 210.691 599.245 223.224 602.33 227.315Z" fill="#E54925"/>
<path d="M624.079 228.579C627.499 227.463 631.551 227.426 633.187 227.129C636.644 226.534 640.102 223.261 640.548 225.306C641.291 228.654 632.406 231.592 632.481 233.563C633.15 234.53 636.756 235.013 639.284 235.05C642.332 235.125 651.069 232.93 651.106 234.753C651.143 236.278 644.823 238.063 642.63 238.249C644.897 238.026 654.675 235.98 654.117 238.472C653.708 240.294 642.407 241.633 640.882 241.782C641.626 241.745 652.407 240.108 651.886 241.893C651.254 244.013 641.44 244.72 639.953 244.869C640.882 244.832 650.102 243.121 649.321 245.389C648.838 246.765 639.879 248.365 638.392 248.513C631.737 249.108 615.045 244.757 613.075 243.827L611.662 233.526C611.662 233.526 615.751 231.592 617.796 230.922C620.361 230.104 622.815 228.988 624.079 228.579Z" fill="#FAB898"/>
<path d="M616.234 246.802C594.486 254.278 544.485 251.079 538.388 223.335L545.525 202.992C572.329 200.091 595.936 227.203 617.907 228.095C621.216 228.579 621.29 245.054 616.234 246.802Z" fill="#E54925"/>
<path d="M596.196 108.341C592.367 108.341 590.843 106.147 590.769 106.035C590.62 105.775 590.657 105.477 590.917 105.291C591.178 105.142 591.475 105.18 591.661 105.44C591.735 105.551 593.594 108.155 598.687 107.002C598.985 106.928 599.245 107.113 599.319 107.411C599.393 107.709 599.208 107.969 598.91 108.043C597.906 108.229 597.014 108.341 596.196 108.341Z" fill="#2D3F4C"/>
<path d="M612.071 110.424C609.692 110.424 608.019 109.42 607.907 109.345C607.647 109.196 607.573 108.862 607.721 108.601C607.87 108.341 608.205 108.267 608.465 108.415C608.614 108.527 612.443 110.758 616.644 107.783C616.867 107.597 617.201 107.672 617.387 107.895C617.573 108.118 617.499 108.453 617.276 108.639C615.417 110.015 613.595 110.424 612.071 110.424Z" fill="#2D3F4C"/>
<path d="M602.256 119.684C601.624 119.684 601.029 119.536 600.471 119.275C599.542 118.792 598.947 118.011 598.873 117.044C598.761 115.854 599.579 114.924 600.397 114.069C600.806 113.622 601.215 113.176 601.475 112.73C602.441 111.093 602.776 108.23 602.776 108.23C602.813 107.932 603.073 107.746 603.371 107.746C603.668 107.783 603.854 108.044 603.854 108.341C603.854 108.453 603.482 111.465 602.404 113.288C602.07 113.845 601.624 114.329 601.177 114.812C600.471 115.593 599.876 116.226 599.951 116.969C600.025 117.75 600.62 118.16 600.992 118.345C601.809 118.755 602.925 118.755 603.668 118.308C603.928 118.16 604.226 118.234 604.412 118.494C604.56 118.755 604.486 119.052 604.226 119.238C603.631 119.498 602.962 119.684 602.256 119.684Z" fill="#2D3F4C"/>
<path d="M602.962 125.226C600.36 125.002 598.501 123.701 598.39 123.626C598.167 123.44 598.092 123.143 598.278 122.882C598.464 122.659 598.761 122.585 599.022 122.771C599.059 122.808 602.888 125.449 607.015 123.44C607.275 123.329 607.609 123.403 607.721 123.701C607.832 123.961 607.758 124.296 607.461 124.407C605.825 125.151 604.301 125.337 602.962 125.226Z" fill="#2D3F4C"/>
<path d="M607.163 134.895C606.866 134.895 606.643 134.671 606.643 134.374C606.643 134.076 606.866 133.853 607.163 133.853C616.122 133.853 620.732 127.419 620.769 127.382C620.955 127.159 621.253 127.084 621.513 127.27C621.736 127.456 621.81 127.754 621.624 128.014C621.476 128.237 616.68 134.895 607.163 134.895Z" fill="#ED715D"/>
<path d="M504.803 872.157C453.265 852.523 412.036 810.025 380.841 764.153C349.295 718.386 328.587 669.386 316.445 615.927C304.408 562.818 301.042 505.599 317.828 453.405C334.859 400.756 371.692 353.236 419.931 338.845C467.821 324.558 526.417 343.609 585.394 343.519C643.918 343.184 702.472 323.813 737.728 343.738C773.333 363.559 785.886 422.223 791.429 472.703C797.425 523.429 796.658 565.517 786.22 603.26C775.781 641.003 755.568 674.052 735.857 720.269C716.146 766.487 696.938 825.873 656.812 857.252C616.686 888.63 555.991 891.896 504.803 872.157Z" fill="#32264C"/>
</g>
</svg>
