<svg width="750" height="332" viewBox="0 0 750 332" fill="none" xmlns="http://www.w3.org/2000/svg">
<path d="M805 291.5C799.143 261.723 804.441 339.608 790 327C790 273.5 774 234.5 722 202.5C670 170.5 621 187 561.5 138C502 89 477.5 130 446.5 76.5C428.75 51.7305 424.262 62.9183 406.781 36.1815C389.791 10.2048 368.106 -5.26494 340.743 2.2911C333.5 3.00647 332.964 4.75017 325.318 10.3837C299.163 29.6985 279.714 36.4051 279.714 36.4051C264.87 87.2854 219.809 66.5372 181.5 124C143.191 181.463 125.528 174.334 43.5 202.5C-39.5 231 -49 319.754 -49 357L798 343.5L805 291.5Z" fill="#32264C"/>
<path d="M241.889 357.696H409.464C404.724 301.003 388.852 275.965 385.723 241.136C385.32 236.799 376.155 232.06 362.428 231.389C331.176 229.869 277.881 235.637 275.467 242.254C264.692 272.165 243.141 297.203 241.889 357.696Z" fill="#528A4F"/>
<path d="M403.501 202.057C422.719 198.078 336.139 291.5 387.466 242.699C367.883 267.245 278.642 252.759 272.293 245.784C264.96 237.736 273.902 215.873 275.422 208.272C278.552 192.4 273.902 214 273.902 214C243.001 208.272 234.551 183 240.501 159.5C245.866 138.307 252.933 122.893 272.293 109.212C293.351 94.3678 307.122 86.0342 336.139 86.0342C415.187 86.0342 446.797 163.338 434.278 202.057C430.344 214.263 420.995 189.021 403.501 202.057Z" fill="#6EB3F2"/>
<path d="M329.03 57.1508C324.559 58.0897 322.77 57.7768 320.803 57.8662C319.238 57.9109 317.897 58.8051 317.897 58.8051L314.41 50.2207C315.527 49.103 319.954 44.6319 325.855 42.7094C326.928 42.3517 333.143 41.2787 333.859 42.1282C334.35 42.7094 333.635 43.1565 332.607 43.4695C334.753 43.0671 337.078 42.8882 337.346 43.7824C337.525 44.3637 336.586 44.9002 335.379 45.3473C337.122 44.9449 338.419 44.8555 338.732 45.4367C339.268 46.5098 336.675 47.5828 334.797 48.2088C336.139 47.8511 337.435 47.6275 337.525 48.2982C337.793 49.7736 333.054 50.7572 330.997 51.562C329.253 52.2327 327.644 53.6187 327.599 53.9764C329.343 54.7365 333.546 53.5293 333.859 55.3624C334.037 56.3013 332.249 56.4802 329.03 57.1508Z" fill="#FDB88E"/>
<path d="M322.099 52.2783L314.588 94.6637C313.425 105.26 352.815 106.154 354.514 94.6637L353.083 78.0762L322.099 52.2783Z" fill="#C78E85"/>
<path d="M314.588 54.4237C315.214 74.4986 330.818 86.9728 345.393 85.9892C355.543 85.3185 361.623 74.901 363.903 68.9546C363.903 68.9099 363.903 68.9099 363.948 68.8651C365.066 66.1825 365.692 63.3211 365.871 60.5043C365.96 59.2524 365.915 58.0453 365.826 56.8381C365.781 55.9439 365.692 55.005 365.602 54.0213C365.513 52.5012 365.558 50.8469 365.647 48.9691C365.781 43.1567 364.708 40.6082 363.546 38.5963C357.912 28.9389 348.836 34.8406 340.967 19.2367C335.825 9.26632 314.051 37.3891 314.588 54.4237Z" fill="#FDB88E"/>
<path d="M335.109 60.7716C335.913 65.332 331.532 69.2218 326.792 67.5228C325.362 66.9863 324.199 65.8685 323.573 64.4825C321.561 59.7879 325.362 55.1828 330.056 55.8534C332.65 56.2111 334.662 58.2231 335.109 60.7716Z" fill="#ED715D"/>
<path d="M359.165 63.0961C359.254 65.9576 361.266 68.2825 363.949 68.8638C365.067 66.1812 365.693 63.3197 365.871 60.5029C365.961 59.2511 365.916 58.0439 365.827 56.8367C365.603 56.8367 365.335 56.792 365.111 56.792C361.713 56.9261 359.075 59.7429 359.165 63.0961Z" fill="#ED715D"/>
<path d="M340.743 2.33653C338.105 -0.30138 296.569 -8.12568 279.669 33.6784C271.174 54.6476 273.141 58.0456 256.777 78.5676L244.079 119.567C273.454 90.0134 289.505 105.349 314.632 92.2042C327.196 85.6318 323.887 68.9996 324.96 47.8963C325.854 30.0122 353.62 32.2477 348.523 20.3995C341.056 3.27545 340.743 2.33653 340.743 2.33653Z" fill="#32264C"/>
<path d="M357.018 53.4402C361.892 53.8873 364.082 51.2494 364.217 51.1153C364.44 50.8023 364.395 50.3999 364.127 50.1763C363.814 49.9528 363.412 49.9975 363.188 50.2658C363.054 50.3999 360.416 53.4849 354.067 51.4282C353.71 51.2941 353.352 51.5176 353.218 51.8753C353.084 52.233 353.307 52.5907 353.665 52.7248C354.872 53.1272 356.035 53.3508 357.018 53.4402Z" fill="#002869"/>
<path d="M336.584 54.2442C339.625 54.5125 341.86 53.4394 341.994 53.35C342.307 53.1711 342.486 52.7687 342.307 52.4558C342.128 52.1428 341.726 51.964 341.413 52.1428C341.189 52.2322 336.092 54.6913 331.04 50.3991C330.772 50.1755 330.325 50.1755 330.101 50.4885C329.878 50.7568 329.878 51.2039 330.191 51.4274C332.382 53.35 334.662 54.0653 336.584 54.2442Z" fill="#002869"/>
<path d="M347.987 67.1657C348.791 67.2551 349.596 67.121 350.312 66.8527C351.564 66.3609 352.368 65.422 352.592 64.2148C352.86 62.6947 351.921 61.4428 351.027 60.2356C350.58 59.6544 350.088 59.0284 349.82 58.4025C348.791 56.2117 348.702 52.5454 348.702 52.5007C348.702 52.1431 348.389 51.8301 348.031 51.8301C347.674 51.8301 347.361 52.1431 347.361 52.5007C347.361 52.6796 347.45 56.5247 348.613 58.939C348.97 59.6991 349.507 60.3697 349.999 61.0404C350.803 62.1135 351.519 63.0077 351.34 63.9466C351.161 64.9302 350.356 65.3773 349.865 65.5561C348.747 66.0032 347.361 65.8244 346.467 65.1985C346.154 64.9749 345.751 65.0196 345.528 65.3326C345.304 65.6456 345.349 66.048 345.662 66.2715C346.288 66.808 347.137 67.0763 347.987 67.1657Z" fill="#ED715D"/>
<path d="M346.467 74.1405C349.82 74.1852 352.324 72.7098 352.503 72.6204C352.816 72.4415 352.95 72.0391 352.727 71.6815C352.548 71.3685 352.101 71.2344 351.788 71.4579C351.743 71.5026 346.557 74.4088 341.549 71.3685C341.236 71.1897 340.834 71.2791 340.61 71.592C340.431 71.905 340.521 72.3074 340.834 72.531C342.801 73.7381 344.768 74.1405 346.467 74.1405Z" fill="#ED715D"/>
<path d="M410 238.001C421.21 235.402 416.39 235.5 424.924 222.446C453 179.5 421.546 135.158 406.736 138C373.845 144.355 412.753 191.798 402.5 212.5C388.5 220 403.889 238.136 410 238.001Z" fill="#6EB3F2"/>
<path d="M396.171 164.453C396.178 164.246 396.264 164.145 396.432 164.047C396.681 163.952 396.923 164.064 396.994 164.378C397.215 165.113 402.883 183.791 398.373 197.858C398.28 198.166 398.03 198.261 397.788 198.149C397.546 198.037 397.475 197.723 397.567 197.415C401.896 183.86 396.235 164.975 396.157 164.868C396.164 164.661 396.168 164.557 396.171 164.453Z" fill="#32264C"/>
<path d="M294.315 179.06C294.405 179.197 294.382 179.311 294.29 179.47C294.129 179.673 293.879 179.74 293.675 179.579C293.154 179.235 279.858 170.506 277.043 158.911C276.976 158.66 277.137 158.456 277.388 158.39C277.638 158.323 277.842 158.484 277.909 158.734C280.635 169.897 294.021 178.763 294.135 178.786C294.225 178.923 294.27 178.992 294.315 179.06Z" fill="#32264C"/>
<path d="M363.8 171.9C363.8 167.7 362.7 163.6 361.4 159.6C359.9 154.3 358.8 149 356.4 144C353 136.9 348 129.9 339.2 134.5C335.7 136.3 333.6 138.7 332.6 141.5C333.9 141.5 335.2 141.9 336.4 142.5C343.4 146 348 153.6 351.9 160.1C353.5 162.9 355.3 165.4 357 168C357.6 168.9 358.6 170.4 359 171.8C360.4 172 361.7 172.1 363.1 172.1L363.8 171.9Z" fill="white"/>
<path d="M351.9 160.1C348.1 153.6 343.4 146 336.4 142.5C335.2 141.9 333.8 141.5 332.6 141.5C331 145.8 332.1 150.9 335 155.5C340.3 163.6 349.3 170.3 359 171.8C358.6 170.4 357.5 168.8 357 168C355.3 165.4 353.6 162.9 351.9 160.1Z" fill="#F0ECE4"/>
<path d="M360.3 171.7C361.5 167.6 363.8 164.1 366.2 160.7C369.2 156.1 371.8 151.3 375.6 147.2C380.9 141.4 387.7 136.1 394.9 143.2C397.7 145.9 399 148.9 399.1 151.8C397.9 151.4 396.5 151.4 395.2 151.6C387.5 152.9 380.8 158.8 375.2 163.9C372.8 166.1 370.4 167.9 368 169.9C367.2 170.5 365.8 171.7 365 172.9C363.6 172.7 362.3 172.4 361 172L360.3 171.7Z" fill="white"/>
<path d="M375.1 163.899C380.7 158.799 387.4 152.899 395.1 151.599C396.4 151.399 397.8 151.399 399 151.799C399.2 156.399 396.7 160.899 392.6 164.499C385.2 170.699 374.6 174.499 364.9 173.099C365.7 171.899 367.2 170.699 367.9 170.099C370.3 167.999 372.7 166.099 375.1 163.899Z" fill="#F0ECE4"/>
<path d="M356 170H308V257H356V170Z" fill="#FFB7AB"/>
<path d="M401 170H346V257H401V170Z" fill="#FFA191"/>
<path opacity="0.4" d="M355.7 169.899H345.5H308.1V191.299H345.5H355.7H401V169.899H355.7Z" fill="#7B83CE"/>
<path d="M355.9 169.899H304V186.199H355.9V169.899Z" fill="#FFB7AB"/>
<path d="M405 169.899H344.7V186.199H405V169.899Z" fill="#FFA191"/>
<path d="M384 170H364V248H384V170Z" fill="white"/>
<path d="M347.682 195.723C351.97 194.098 357.142 193.745 359.205 193.304C363.579 192.281 368.283 189.183 368.861 190.95C370.438 195.548 358.699 198.747 358.712 201.511C359.654 202.703 364.258 203.074 367.491 202.956C371.401 202.855 382.395 199.491 382.566 201.827C382.712 203.752 374.771 206.425 371.988 206.842C374.859 206.439 387.243 203.161 386.678 206.422C386.254 208.799 371.923 211.223 370.028 211.464C370.947 211.384 384.62 208.539 384.064 210.895C383.4 213.641 370.929 215.185 369.028 215.47C370.218 215.388 381.893 212.586 381.017 215.525C380.5 217.344 369.177 219.931 367.231 220.209C358.801 221.401 337.195 216.916 334.601 215.868L332.156 202.802C332.156 202.802 337.26 200.038 339.811 199.087C343.037 197.881 346.047 196.323 347.682 195.723Z" fill="#FAB898"/>
<path d="M345.85 219.698C332.212 228.571 279.5 229.5 251.5 191.512C251.5 191.512 277.01 143.439 275.98 152.737C273.86 172.003 306.475 192.912 340.292 191.512C345.521 191.938 350.559 215.152 345.85 219.698Z" fill="#6EB3F2"/>
<path d="M390.068 224.875C385.895 225.667 381.783 228.442 379.38 228.743C374.018 229.385 371.384 229.767 370.914 230.805C369.249 234.986 383.012 231.944 383.99 234.865C383.8 236.268 380.273 238.788 377.648 240.323C374.438 242.114 364.08 244.761 365.021 246.745C365.85 248.331 373.501 246.606 375.884 245.643C373.378 246.7 361.931 250.088 363.922 252.424C365.4 254.092 378.006 249.038 379.636 248.365C378.868 248.763 366.518 253.135 368.118 254.708C369.952 256.585 380.663 251.732 382.354 251.012C381.356 251.49 370.665 254.974 372.776 256.831C374.049 257.979 384.34 254.61 386.031 253.89C393.378 250.754 408.522 236.691 410.064 234.635L401.5 228.743C401.5 228.743 399.5 227 397.847 223.824C394.86 224.38 391.639 224.634 390.068 224.875Z" fill="#FDB98D"/>
<path d="M408.559 238.223C412 239.5 419.5 238.223 423.483 222.668C436.211 172.962 419.5 178 419.5 186.501C406 212.723 411.312 192.02 401.059 212.722C387.059 220.222 402.447 238.358 408.559 238.223Z" fill="#6EB3F2"/>
</svg>
