<svg width="750" height="419" viewBox="0 0 750 419" fill="none" xmlns="http://www.w3.org/2000/svg">
<mask id="mask0" style="mask-type:alpha" maskUnits="userSpaceOnUse" x="0" y="0" width="750" height="419">
<rect width="750" height="419" fill="white"/>
</mask>
<g mask="url(#mask0)">
<path d="M357.5 454L177.5 425.5L-48 434.5C-91.2808 413.385 2.78021 290.936 -15.8624 273.098C-60.9233 229.977 -4.01523 205.548 -6.49779 168.608C-10.7135 105.73 44.4672 102.426 60.5336 77.4251C75.71 53.7815 89.6134 20.2512 122.602 27.9053C167.981 19.2655 175.337 60.0119 208.5 83C242.045 110.532 298 138 321 194.5C348.885 263 470 211.5 548.5 297C612.415 366.614 723.53 293.5 756.5 378C832 571.5 786 434.5 357.5 454Z" fill="#32264C"/>
<path d="M-41.4999 429C-41.4999 429 39.5001 473 54.5482 379.108C55.1693 373.311 60.9665 320.723 61.7946 304.574C63.451 267.307 70.9044 259.646 76.4945 248.259C80.4283 240.184 82.9127 233.352 84.155 223.414C87.4676 200.226 113.555 179.522 127.012 186.975C137.157 174.76 157.033 208.921 162.83 229.211C164.073 233.352 160.967 242.876 165.315 253.228C184.362 298.363 193.058 379.937 195.129 389.46C199.702 410.5 193.472 491.117 187.054 503.747C186.019 505.61 168.834 506.852 167.385 502.918C164.694 499.192 150.408 453.626 162.83 420.5C145.646 398.761 122.457 332.731 119.559 305.402C136.329 296.913 90.9873 408.593 76.4945 423.5C54.9623 445.446 -14.7451 425.262 -33.9998 420.5C-37.7266 417.601 -45.8477 430.656 -41.4999 429Z" fill="#6EB3F2"/>
<path d="M372.051 536.334C371.984 583.807 350.368 629.964 322.974 669.076C295.77 708.438 262.656 740.065 223.339 766.158C184.27 792.061 139.247 812.239 92.1148 814.665C44.5425 817.032 -4.94839 801.897 -31.2587 767.466C-57.3783 733.286 -59.936 680.309 -78.0146 632.871C-96.1519 585.872 -129.619 544.661 -124.347 510.202C-119.265 475.495 -75.884 447.482 -36.9486 427.608C2.04547 407.295 36.1533 395.063 69.7168 391.94C103.28 388.818 136.05 394.996 179.265 396.749C222.48 398.502 276.14 395.83 313.645 418.545C351.15 441.259 372.309 489.11 372.051 536.334Z" fill="#32264C"/>
<path d="M112.347 349.502C112.554 349.502 112.761 349.294 112.968 349.087C116.488 340.392 125.805 310.371 127.875 297.534C127.875 297.12 127.668 296.913 127.254 296.913C126.84 296.913 126.633 297.12 126.633 297.534C124.563 310.164 115.246 339.978 111.726 348.673C111.519 349.087 111.726 349.294 112.14 349.502H112.347Z" fill="#E8E2E3"/>
<path d="M101.339 103.952C106.929 118.031 159.932 142.668 159.932 109.335C159.932 98.7758 193.886 93.8068 169.869 73.7239C162.002 67.3056 182.706 40.8045 153.927 37.2848C143.368 36.0426 129.497 14.7174 118.73 46.8086C114.59 59.6451 101.339 103.952 101.339 103.952Z" fill="#32264C"/>
<path d="M157.447 150.122C159.518 160.06 177.53 239.356 163.658 245.153C123.7 261.302 116.867 232.938 77.9437 241.427C60.5523 245.36 72.3536 190.081 74.6311 156.333C76.2874 135.008 102.996 122.585 101.96 108.507C137.985 108.507 149.994 115.546 157.447 150.122Z" fill="#528A4F"/>
<path d="M-20.8145 172.068C5.06551 184.491 11.8978 196.085 45.8525 191.53C106.101 183.248 122.664 165.236 123.7 108.507L110.449 101.26C61.1734 95.6703 61.7946 137.907 37.5708 145.981C18.1091 152.606 12.3119 152.399 -17.7089 152.813C-22.0568 153.02 -24.3342 170.205 -20.8145 172.068Z" fill="#528A4F"/>
<path d="M241.973 131.36C243.553 128.127 244.807 123.977 245.736 122.608C247.737 119.662 246.991 117.527 248.313 118.246C251.717 120.061 246.803 126.059 248.313 127.616C250.424 127.616 253.262 122.898 254.203 121.952C256.366 119.777 259.789 113.228 261.152 114.426C262.292 115.448 257.47 123.971 256.085 125.715C257.522 123.911 266.607 113.213 268.009 115.347C269.073 116.933 260.778 126.438 259.848 127.616C260.349 127.069 269.249 118.869 270.196 120.541C271.282 122.461 263.698 128.908 262.735 130.1C263.36 129.388 270.507 123.572 271.607 125.715C272.264 127.048 265.233 132.588 264.27 133.779C260.048 139.039 245.182 148.095 243.143 148.886L234.681 142.691C234.681 142.691 238.45 142.292 239.375 140.354C240.58 137.884 241.026 133.298 241.973 131.36Z" fill="#FDB88E"/>
<path d="M248.349 148.469C235.446 165.448 190.296 233.072 145.011 197.877C96.0989 159.927 110.37 119.104 110.37 119.104C154.585 78.1808 169.083 154.779 186.101 148.469C214.962 137.767 223.465 148.021 235.795 136.588C238.544 133.996 250.103 146.161 248.349 148.469Z" fill="#528A4F"/>
<path d="M108.379 78.693L106.308 105.608C106.308 113.476 132.809 115.96 133.016 107.265L133.844 95.6703L108.379 78.693Z" fill="#C78E85"/>
<path d="M151.65 75.7944C151.65 77.6578 151.857 79.5211 151.65 81.3845C151.443 83.869 150.615 86.3535 149.579 88.6309C146.681 94.6351 141.712 102.917 135.294 103.538C121.008 104.987 106.929 90.4943 109.828 73.724C112.312 59.2312 128.047 35.4216 131.981 44.3243C137.985 58.196 146.267 53.4341 150.615 62.1298C151.443 63.9931 152.271 66.2706 152.064 71.2395C151.857 72.8958 151.65 74.3451 151.65 75.7944Z" fill="#FDB88E"/>
<path d="M127.426 82.4199C127.426 85.9395 124.321 88.8381 120.801 88.8381C117.281 88.8381 114.383 85.7325 114.383 82.2128C114.383 78.6931 117.488 75.7946 121.008 75.7946C124.735 76.0016 127.426 78.9002 127.426 82.4199Z" fill="#EA5A3D"/>
<path d="M151.65 81.3847C151.443 83.8691 150.615 86.3536 149.58 88.6311C146.681 88.01 144.611 85.3184 144.611 82.2128C144.611 78.6931 147.716 75.7946 151.236 75.7946C151.443 75.7946 151.65 75.7946 151.65 75.7946C151.65 77.6579 151.857 79.5213 151.65 81.3847Z" fill="#EA5A3D"/>
<path d="M134.051 85.1112C136.122 85.3182 139.641 85.1112 140.263 82.4197C140.677 81.3845 140.056 80.3493 139.641 79.3141C138.399 76.8296 137.364 74.3451 137.778 71.6536C137.778 71.2395 137.157 71.2395 137.157 71.4465C136.95 74.1381 137.778 76.4155 138.813 78.9C139.434 80.3493 140.263 81.5915 139.02 83.0408C137.778 84.283 135.708 84.4901 134.051 84.283C133.637 84.4901 133.637 85.1112 134.051 85.1112Z" fill="#EA5A3D"/>
<path d="M128.875 89.0449C128.461 88.0097 136.95 91.1153 141.091 88.8379C143.575 87.3886 136.122 101.26 128.875 89.0449Z" fill="white"/>
<path d="M74.6311 182.627H74.8381C79.6 180.143 82.0845 174.967 84.569 169.377C87.0535 163.994 89.9521 157.782 95.7492 153.021C95.9562 152.813 95.9562 152.399 95.7492 152.192C95.5421 151.985 95.1281 151.985 94.921 152.192C88.9168 157.161 86.0183 163.373 83.5338 168.963C81.0493 174.553 78.7719 179.315 74.424 181.592C74.217 181.799 74.0099 182.213 74.217 182.42C74.217 182.42 74.424 182.627 74.6311 182.627Z" fill="#E8E2E3"/>
<path d="M165.315 194.221C165.729 194.221 165.936 194.221 165.936 194.014C166.971 169.17 159.932 150.95 159.725 150.95C159.518 150.536 159.311 150.536 158.896 150.743C158.482 150.95 158.482 151.364 158.482 151.571C158.482 151.778 165.729 169.377 164.487 194.014C164.694 194.221 164.901 194.221 165.315 194.221Z" fill="#E8E2E3"/>
<path d="M128.876 74.7593C124.942 74.7593 121.629 72.6889 121.422 72.4818C121.215 72.2748 121.215 72.0677 121.215 72.0677C121.422 71.8607 121.629 71.8607 121.629 71.8607C121.629 71.8607 127.634 75.5874 132.395 73.1029C132.603 73.1029 132.81 73.1029 132.81 73.31C132.81 73.517 132.81 73.7241 132.603 73.7241C131.567 74.5522 130.118 74.7593 128.876 74.7593Z" fill="#32264C" stroke="#32264C" stroke-width="0.4"/>
<path d="M145.439 73.7239C143.576 73.7239 142.126 73.1028 142.126 73.1028C141.919 73.1028 141.919 72.8958 141.919 72.6887C141.919 72.4817 142.126 72.4817 142.334 72.4817C142.541 72.4817 147.095 74.5521 149.994 71.0324C150.201 70.8253 150.408 70.8253 150.408 71.0324C150.615 71.2394 150.615 71.4465 150.408 71.4465C148.959 73.3098 147.095 73.7239 145.439 73.7239Z" fill="#32264C" stroke="#32264C" stroke-width="0.4"/>
<path d="M109.899 98.8778C109.899 122.397 85.1923 90.4109 53.9237 131.334C33.2391 141.878 38.4011 125.69 38.4011 125.69C38.4011 125.69 94.9309 42.5776 95.5407 43.1868C95.5407 43.1868 118.805 25.2383 132.595 40.75C147.323 57.3394 109.899 63.8863 109.899 98.8778Z" fill="#32264C"/>
</g>
</svg>
