<svg width="531" height="547" viewBox="0 0 531 547" fill="none" xmlns="http://www.w3.org/2000/svg">
<path d="M250.114 297.3C263.857 289.469 281.544 289.198 281.544 289.198C281.544 289.198 275.857 307.357 266.217 317.797C256.238 328.616 244.042 327.799 239.594 322.122C235.155 316.469 237.301 304.599 250.114 297.3Z" fill="#528A4F"/>
<path d="M246.521 316.014C246.521 316.014 246.512 315.99 246.488 316C246.353 315.863 246.349 315.648 246.485 315.512C246.584 315.419 256.383 305.241 267.731 298.223C267.886 298.135 268.097 298.187 268.209 298.333C268.297 298.488 268.245 298.698 268.099 298.81C256.812 305.777 247.089 315.87 246.999 315.987C246.854 316.099 246.671 316.117 246.521 316.014Z" fill="#012869"/>
<path d="M270.526 369.117C284.781 375.972 295.058 390.369 295.058 390.369C295.058 390.369 276.886 396.013 262.816 394.017C248.243 391.957 241.982 381.459 244.124 374.573C246.251 367.707 257.237 362.725 270.526 369.117Z" fill="#528A4F"/>
<path d="M253.087 376.799C253.087 376.799 253.101 376.778 253.08 376.764C253.115 376.575 253.29 376.449 253.479 376.485C253.613 376.513 267.556 378.789 279.78 384.136C279.941 384.213 280.018 384.416 279.962 384.591C279.885 384.752 279.682 384.829 279.507 384.773C267.359 379.447 253.528 377.185 253.381 377.178C253.206 377.121 253.087 376.981 253.087 376.799Z" fill="#012869"/>
<path d="M112.881 199.429C121.646 201.928 128.895 209.096 128.895 209.096C128.895 209.096 119.12 214.068 110.911 214.32C102.423 214.573 97.8514 209.222 98.3819 205.108C98.9376 200.994 104.697 197.107 112.881 199.429Z" fill="#528A4F"/>
<path d="M127 203.5C128.333 225.5 142.907 267 213 267C309 267 295.333 332.167 294.5 367.5C293.604 405.5 303.5 561.5 545.5 457" stroke="#528A4F" stroke-width="11"/>
<path d="M142.485 215.758C133.417 214.749 125.081 208.893 125.081 208.893C125.081 208.893 133.897 202.357 141.929 200.741C150.265 199.076 155.67 203.593 155.822 207.732C155.948 211.872 150.921 216.692 142.485 215.758Z" fill="#528A4F"/>
<path d="M212.172 248.862C199.747 258.609 182.291 261.485 182.291 261.485C182.291 261.485 185.259 242.697 193.252 230.938C201.545 218.773 213.7 217.815 218.944 222.774C224.156 227.716 223.74 239.77 212.172 248.862Z" fill="#528A4F"/>
<path d="M194.57 248.115C194.594 248.107 194.611 248.076 194.635 248.069C207.19 239.1 214.159 228.575 214.234 228.473C214.343 228.309 214.543 228.274 214.708 228.383C214.872 228.492 214.907 228.692 214.798 228.857C214.724 228.959 207.68 239.586 195.019 248.639C194.864 248.738 194.649 248.724 194.55 248.57C194.45 248.415 194.471 248.224 194.57 248.115Z" fill="#012869"/>
<path d="M325.233 328.197C313.446 338.706 296.206 342.675 296.206 342.675C296.206 342.675 297.986 323.737 305.224 311.499C312.734 298.836 324.806 297.116 330.351 301.735C335.863 306.339 336.206 318.395 325.233 328.197Z" fill="#528A4F"/>
<path d="M307.62 328.559C307.643 328.55 307.658 328.517 307.682 328.508C319.648 318.768 325.941 307.825 326.009 307.719C326.107 307.548 326.305 307.501 326.476 307.599C326.647 307.697 326.694 307.895 326.596 308.066C326.528 308.173 320.167 319.222 308.1 329.053C307.952 329.162 307.737 329.162 307.628 329.014C307.518 328.866 307.528 328.674 307.62 328.559Z" fill="#012869"/>
<path d="M357.455 447.454C349.995 461.373 335.167 471.021 335.167 471.021C335.167 471.021 330.334 452.624 332.928 438.644C335.633 424.172 346.379 418.41 353.173 420.844C359.932 423.275 364.395 434.48 357.455 447.454Z" fill="#528A4F"/>
<path d="M341.037 453.843C341.057 453.827 341.059 453.791 341.079 453.775C348.971 440.517 351.123 428.079 351.151 427.956C351.184 427.761 351.354 427.649 351.548 427.683C351.743 427.716 351.855 427.886 351.822 428.08C351.794 428.203 349.615 440.765 341.659 454.143C341.557 454.296 341.354 454.37 341.201 454.268C341.048 454.167 340.991 453.983 341.037 453.843Z" fill="#012869"/>
<path d="M481.225 449.876C482.604 465.608 475.48 481.801 475.48 481.801C475.48 481.801 461.362 469.053 455.878 455.935C450.216 442.344 456.053 431.639 463.071 429.955C470.057 428.288 479.927 435.22 481.225 449.876Z" fill="#528A4F"/>
<path d="M470.986 464.212C470.993 464.188 470.976 464.156 470.983 464.132C470.327 448.717 465.317 437.131 465.273 437.013C465.194 436.832 465.275 436.645 465.456 436.567C465.636 436.488 465.823 436.569 465.902 436.75C465.946 436.868 471.001 448.572 471.67 464.123C471.669 464.306 471.54 464.479 471.356 464.478C471.172 464.477 471.023 464.354 470.986 464.212Z" fill="#012869"/>
<path d="M367.611 515.417C374.062 501.003 388.167 490.324 388.167 490.324C388.167 490.324 394.296 508.331 392.702 522.46C391.034 537.088 380.725 543.599 373.774 541.655C366.86 539.711 361.611 528.852 367.611 515.417Z" fill="#528A4F"/>
<path d="M383.533 507.877C383.515 507.895 383.514 507.93 383.496 507.948C376.567 521.733 375.305 534.293 375.286 534.418C375.267 534.614 375.105 534.738 374.909 534.719C374.713 534.7 374.589 534.538 374.608 534.342C374.627 534.217 375.907 521.532 382.891 507.622C382.982 507.462 383.179 507.374 383.339 507.465C383.499 507.555 383.569 507.734 383.533 507.877Z" fill="#012869"/>
<path d="M35.9656 150.718C72.819 178.708 124.247 207.833 132.052 201.953C139.858 196.097 121.848 121.568 89.0861 90.5996C74.8903 77.1726 63.271 72.5539 54.0513 72.6044C35.3846 72.7054 37.759 90.3725 25.5587 97.4898C13.3836 104.557 -11.1432 114.955 35.9656 150.718Z" fill="#F0ECE4"/>
<path d="M157.312 86.5366C163.854 121.189 141.247 171.843 132.482 173.408C123.717 174.973 88.3283 134.591 78.9823 100.569C69.6363 66.5476 78.073 54.7359 117.553 55.1397C135.286 55.3163 146.223 27.6799 157.312 86.5366Z" fill="#F0ECE4"/>
<path d="M201.92 114.249C182.597 143.753 131.194 164.65 123.767 159.704C116.341 154.757 118.842 101.15 135.69 70.1315C152.538 39.1131 166.809 36.463 194.999 64.0489C207.679 76.4916 234.757 64.1247 201.92 114.249Z" fill="#F0ECE4"/>
<path d="M248.625 138.099C227.76 179.39 133.72 207.708 125.763 202.054C117.806 196.401 158.171 171.995 176.332 130.73C198.232 80.9084 239.152 80.9084 242.739 100.367C246.503 120.76 263.629 108.368 248.625 138.099Z" fill="#F0ECE4"/>
<path d="M122.656 55.3921C126.344 64.9828 182.117 85.9057 177.343 57.6888C175.751 48.2496 188.836 53.1963 179.742 32.8035C176.484 25.459 186.411 12.3349 167.289 7.41331C160.293 5.59613 150.997 -8.08326 143.495 13.4958C140.514 22.1022 122.656 55.3921 122.656 55.3921Z" fill="#32264C"/>
<path d="M157.615 109.579C148.345 149.835 138.569 161.874 110.532 152.334C82.4936 142.794 75.9514 108.822 75.6736 108.62C70.1923 104.986 88.9095 80.8578 92.0417 76.3906C111.163 49.2337 137.054 44.0093 150.947 54.0795C168.957 67.0775 163.778 82.8012 157.615 109.579Z" fill="#6EB3F2"/>
<path d="M235.667 104.961C235.187 107.106 232.534 113.189 228.771 112.76C220.738 111.851 220.536 110.64 217.177 109.125L217.808 100.923C217.808 100.923 221.496 100.266 223.264 100.292C225.462 100.367 236.197 102.639 235.667 104.961Z" fill="#FDB88E"/>
<path d="M148.8 111.271C165.067 99.1309 156.403 138.958 217.48 112.583C219.955 111.17 219.551 100.872 217.657 99.8628C200.809 97.0108 189.164 93.326 182.748 81.9938C172.316 63.6453 156.428 49.9154 141.979 47.1392L148.8 111.271Z" fill="#6EB3F2"/>
<path d="M137.989 179.389C137.989 179.389 151.856 84.8704 187.952 106.475C213.893 121.997 153.649 183.907 153.649 183.907C151.553 187.39 138.418 181.838 137.989 179.389Z" fill="#FFA191"/>
<path d="M75.6735 108.62C84.287 112.76 96.6894 116.545 106.616 110.438C129.299 96.4554 165.521 85.1484 178.429 99.0297C185.906 107.081 187.522 123.511 152.311 151.4C149.103 153.924 134.048 159.376 109.319 161.622C65.0646 165.66 55.1376 125 75.6735 108.62Z" fill="#FFA191"/>
<path d="M126.42 171.288C126.42 171.288 140.287 76.7694 176.383 98.3737C202.324 113.895 142.081 175.806 142.081 175.806C139.959 179.289 126.824 173.736 126.42 171.288Z" fill="#FFA191"/>
<path d="M168.755 137.065C168.654 137.065 168.553 137.039 168.477 136.964C168.3 136.812 168.3 136.535 168.452 136.383C177.747 126.515 180.829 118.64 181.788 113.795C182.799 108.57 181.637 105.617 181.612 105.567C181.536 105.365 181.637 105.112 181.839 105.037C182.041 104.961 182.294 105.037 182.369 105.264C182.42 105.39 183.658 108.419 182.597 113.87C181.637 118.842 178.53 126.893 169.058 136.964C168.957 137.014 168.856 137.065 168.755 137.065Z" fill="#016099"/>
<path d="M160.722 137.393C162.718 137.393 165.85 136.736 165.521 135.399C165.218 134.162 161.379 135.727 157.413 134.894C155.594 134.515 152.892 133.733 152.816 133.127C153.094 131.335 159.712 131.411 159.914 130.073C160.04 129.14 158.929 128.66 155.594 128.609C152.967 128.559 151.3 128.18 148.648 128.281C147.663 128.307 145.996 128.635 144.026 128.71C142.434 128.761 139.605 127.979 139.605 127.979L138.14 135.399C139.327 136.383 150.441 143.551 155.342 143.803C160.848 144.081 165.344 142.516 165.193 141.355C165.117 140.825 162.92 141.279 162.061 141.355C163.374 141.355 166.86 140.522 166.86 139.361C166.86 138.528 164.056 138.705 161.455 139.513C163.879 138.932 167.188 138.705 167.391 137.544C167.618 136.131 163.172 137.039 160.722 137.393Z" fill="#FDB98D"/>
<path d="M136.22 137.418C122.303 128.508 104.924 129.493 93.3047 117.479C89.0359 113.088 85.247 106.071 84.4387 97.0357C84.3881 96.5562 84.3629 96.0766 84.3124 95.5971C83.0241 74.5985 96.74 47.1387 126.571 45.8516L131.648 70.9641C136.524 80.5296 122.025 90.9532 126.622 96.4804C135.791 107.51 132.482 113.315 134.376 119.498C134.503 119.978 134.68 120.457 134.907 120.937C135.665 122.653 139.656 125 141.828 126.843C144.076 128.786 138.418 138.831 136.22 137.418Z" fill="#6EB3F2"/>
<path d="M136.549 34.4438L128.895 47.1389C127.076 51.0257 146.577 60.3388 148.698 56.1744L150.946 49.9404L136.549 34.4438Z" fill="#FDB88E"/>
<path d="M137.761 32.8284C135.791 46.1292 145.112 51.0255 152.664 51.0255C157.918 51.0255 161.278 44.9683 162.667 41.9648L162.692 41.9396C163.349 40.602 163.778 39.1633 163.98 37.6995C164.056 37.0685 164.081 36.4376 164.081 35.8318C164.081 35.3523 164.081 34.8728 164.081 34.3932C164.081 33.6108 164.182 32.7527 164.258 31.7936C164.536 28.8155 164.056 27.4526 163.526 26.3926C160.899 21.1934 156.024 23.9192 152.487 15.6409C150.214 10.2903 139.049 24.1211 137.761 32.8284Z" fill="#FDB88E"/>
<path d="M148.118 36.791C148.37 39.1634 145.996 41.0311 143.621 39.9711C142.889 39.643 142.333 39.0372 142.055 38.3053C141.171 35.8067 143.293 33.5604 145.667 34.0904C147.006 34.3681 147.966 35.4533 148.118 36.791Z" fill="#ED715D"/>
<path d="M160.419 38.7849C160.368 40.2488 161.328 41.5359 162.692 41.9145C163.349 40.5769 163.778 39.1383 163.98 37.6744C164.056 37.0434 164.081 36.4125 164.081 35.8067C163.955 35.7815 163.829 35.7815 163.703 35.7563C161.934 35.7058 160.469 37.0434 160.419 38.7849Z" fill="#ED715D"/>
<path d="M151.224 51.6067C151.401 51.632 151.553 51.5058 151.578 51.3543C151.603 51.1777 151.477 51.0262 151.326 51.001C151.25 51.001 142.864 49.739 139.63 44.1613C139.555 44.0099 139.353 43.9594 139.201 44.0603C139.049 44.1361 138.999 44.338 139.1 44.4894C142.459 50.3195 150.871 51.5562 151.224 51.6067Z" fill="#ED715D"/>
<path d="M159.636 33.7372C162.137 34.141 163.349 32.8538 163.4 32.7781C163.526 32.6267 163.526 32.4248 163.374 32.2733C163.223 32.1472 163.021 32.1472 162.894 32.2986C162.819 32.3743 161.354 33.8634 158.146 32.5762C157.969 32.5005 157.767 32.6014 157.691 32.7781C157.615 32.9548 157.716 33.1567 157.893 33.2324C158.55 33.51 159.131 33.6615 159.636 33.7372Z" fill="#002869"/>
<path d="M148.648 33.1564C150.214 33.3078 151.376 32.7778 151.452 32.7274C151.629 32.6516 151.704 32.4245 151.603 32.2731C151.528 32.0964 151.3 32.0207 151.149 32.1216C151.048 32.1721 148.395 33.4088 145.819 31.1626C145.667 31.0364 145.465 31.0616 145.314 31.1878C145.187 31.3392 145.213 31.5411 145.339 31.6926C146.501 32.6516 147.663 33.0555 148.648 33.1564Z" fill="#002869"/>
<path d="M154.533 40.5009C154.938 40.5767 155.367 40.5514 155.746 40.4252C156.403 40.2233 156.857 39.7438 157.009 39.1381C157.211 38.3557 156.756 37.6994 156.327 37.0432C156.099 36.7151 155.897 36.387 155.746 36.0589C155.291 34.8979 155.367 33.005 155.367 32.9798C155.367 32.7779 155.215 32.6265 155.039 32.6265C154.837 32.6265 154.685 32.7779 154.685 32.9546C154.685 33.0303 154.609 35.0241 155.114 36.3113C155.266 36.7151 155.519 37.0685 155.746 37.4218C156.125 38.0023 156.453 38.4818 156.327 38.9614C156.201 39.4662 155.771 39.6681 155.519 39.7438C154.938 39.9205 154.23 39.7943 153.776 39.4409C153.624 39.3147 153.397 39.34 153.296 39.4914C153.169 39.6428 153.195 39.87 153.346 39.9709C153.675 40.2486 154.079 40.4252 154.533 40.5009Z" fill="#ED715D"/>
<path d="M152.816 43.757C151.275 43.328 150.265 42.4699 150.214 42.3941C150.062 42.2427 150.037 42.0156 150.189 41.8389C150.34 41.6875 150.568 41.6622 150.744 41.8137C150.77 41.8389 153.245 43.9589 156.302 42.9494C156.504 42.8737 156.731 42.9999 156.781 43.2018C156.857 43.4037 156.731 43.6308 156.529 43.6813C155.114 44.1609 153.826 44.0599 152.816 43.757Z" fill="#ED715D"/>
<path d="M158.878 10.8961C158.878 10.8961 142.611 -12.0459 122.378 8.64981C115.912 15.2371 103.989 11.2999 103.787 28.7146C103.711 34.6205 102.196 36.4881 99.3163 40.6273C94.1887 47.9717 96.1842 55.5938 104.924 58.3701C111.794 60.5406 108.157 68.9199 117.503 69.5508C125.106 70.0556 127.026 61.7016 133.543 61.2221C147.941 60.1873 139.226 42.9745 138.847 35.9076C138.822 35.4029 138.772 34.8728 138.721 34.3428C138.645 32.5761 139.125 31.188 139.832 29.6484C143.722 21.2439 156.478 26.6198 156.099 15.3633L158.878 10.8961Z" fill="#32264C"/>
<path d="M90.2988 115.081C90.1725 115.081 90.0462 115.006 89.9452 114.905C83.8324 105.819 83.7566 90.8521 83.7566 90.7007C83.7566 90.4735 83.9334 90.2969 84.1607 90.2969C84.3881 90.2969 84.5649 90.4735 84.5649 90.7007C84.5649 90.8521 84.6407 105.566 90.6272 114.45C90.7535 114.652 90.7029 114.905 90.5261 115.031C90.4756 115.056 90.3746 115.081 90.2988 115.081Z" fill="#012869"/>
<path d="M130.689 101.857C130.537 101.857 130.386 101.781 130.31 101.629C129.931 100.847 129.299 100.09 128.567 99.2318C127.531 97.9698 126.218 96.405 125.182 94.184C124.045 91.7359 125.031 89.7168 126.066 87.5715C127.152 85.3505 128.365 82.8519 127.784 79.1922C127.759 78.9651 127.91 78.7632 128.137 78.7127C128.365 78.6875 128.567 78.8389 128.617 79.066C129.224 82.978 127.935 85.6281 126.824 87.9501C125.788 90.0701 124.98 91.7611 125.94 93.8559C126.925 95.976 128.137 97.4398 129.224 98.727C129.981 99.6356 130.638 100.443 131.068 101.301C131.169 101.503 131.093 101.756 130.891 101.857C130.815 101.831 130.739 101.857 130.689 101.857Z" fill="#012869"/>
<path d="M166.809 158.542C159.433 195.643 135.74 205.991 126.192 206.117C116.619 206.244 88.2524 168.688 83.2511 131.158C78.7802 97.5151 106.262 108.797 124.171 124.142C136.826 134.995 176.913 107.762 166.809 158.542Z" fill="white"/>
<path d="M233.747 164.903C209.321 190.091 165.319 203.442 138.266 205.941C137.761 205.992 137.256 206.042 136.776 206.067C130.663 206.547 125.51 206.471 121.721 205.815C113.664 204.427 150.113 184.766 167.769 151.88C168.148 151.173 168.527 150.466 168.881 149.734C169.916 147.665 170.876 145.57 171.735 143.4C187.775 103.447 203.183 111.372 218.768 123.082C232.686 133.506 296.34 100.368 233.747 164.903Z" fill="white"/>
<path d="M135.766 206.168C130.183 206.496 124.374 206.345 118.438 205.764C117.958 205.714 117.478 205.664 117.023 205.613C86.0299 202.206 51.6266 187.088 24.498 165.307C-8.23824 139.008 -6.11645 101.907 18.7388 108.646C62.185 120.432 63.7511 95.2694 83.3524 140.977C83.9081 142.289 84.5143 143.576 85.1458 144.863C85.752 146.1 86.3835 147.312 87.0403 148.523C105.404 182.141 144 205.689 135.766 206.168Z" fill="white"/>
<path d="M168.098 152.485C168.072 152.965 167.997 153.52 167.895 154.176C166.86 160.511 162.212 174.544 155.038 187.819C150.568 196.072 144.429 205.335 137.281 210.408C136.776 210.459 136.271 210.509 135.791 210.534C143.798 205.36 150.542 194.684 154.432 187.491C160.823 175.68 165.193 163.287 166.784 156.321C167.138 154.731 167.365 153.394 167.416 152.46C167.416 152.283 167.592 152.132 167.769 152.132C167.971 152.157 168.098 152.309 168.098 152.485Z" fill="#016099"/>
<path d="M118.438 205.739C117.958 205.689 117.478 205.638 117.023 205.588C110.279 200.288 103.408 189.99 96.5125 174.797C92.4205 165.812 89.1368 156.801 86.9644 150.315C86.7371 149.836 87.3939 149.533 87.5959 150.037C89.7682 156.499 93.052 165.509 97.144 174.519C104.217 190.167 111.466 200.717 118.438 205.739Z" fill="#016099"/>
<path d="M288.99 181.762C288.914 185.169 287.12 186.532 284.923 186.457C284.822 186.457 284.695 186.457 284.594 186.431C282.574 186.255 281.033 184.766 281.109 181.56C281.184 178.759 283.938 175.15 284.898 173.963C285.1 173.711 285.226 173.56 285.226 173.56C285.226 173.56 289.065 178.38 288.99 181.762Z" fill="#6EB3F2"/>
<path d="M279.618 223.633C279.517 227.444 277.496 228.984 275.071 228.908C274.945 228.908 274.819 228.908 274.693 228.883C272.419 228.681 270.676 227.015 270.777 223.406C270.853 220.251 273.96 216.188 275.046 214.85C275.274 214.573 275.425 214.396 275.425 214.396C275.425 214.396 279.719 219.822 279.618 223.633Z" fill="#6EB3F2"/>
<path d="M222.254 148.927C226.599 150.542 235.439 153.243 239.885 154.555C248.877 157.205 270.222 135.147 278.709 127.297C279.467 126.591 278.835 120.786 278.355 120.988L260.547 131.538C261.28 127.424 262.214 120.937 260.143 114.905C259.941 114.325 259.461 113.87 258.855 113.719C254.965 112.709 252.06 109.428 251.302 105.441C251.151 104.633 250.646 103.952 249.888 103.598C243.042 100.317 235.465 101.453 231.373 102.664C224.729 104.633 222.254 107.435 219.4 114.552C213.312 129.973 216.848 146.933 222.254 148.927ZM221.471 118.035C228.417 101.125 240.618 103.548 245.493 105.567C249.736 107.308 219.273 123.385 221.471 118.035Z" fill="#E54925"/>
<path d="M236.576 102.235C236.5 100.847 234.025 101.503 230.943 101.15C229.604 100.999 226.649 100.14 223.719 100.216C221.875 100.241 220.966 100.62 219.677 100.973L223.492 107.081C225.159 103.75 236.753 104.986 236.576 102.235Z" fill="#FDB88E"/>
<path d="M227.407 104.33C228.291 102.689 236.349 102.513 235.692 104.986L228.973 112.381C228.973 112.381 227.104 112.835 226.775 111.094C226.371 109.302 225.942 107.056 227.407 104.33Z" fill="#FDB88E"/>
<path d="M281.235 148.043C281.159 150.996 279.593 152.182 277.699 152.157C277.597 152.157 277.496 152.157 277.421 152.132C275.653 151.981 274.314 150.693 274.39 147.867C274.44 145.418 276.865 142.264 277.699 141.229C277.875 141.002 278.002 140.875 278.002 140.875C278.002 140.875 281.311 145.065 281.235 148.043Z" fill="#6EB3F2"/>
</svg>
