<svg width="750" height="812" viewBox="0 0 750 812" fill="none" xmlns="http://www.w3.org/2000/svg">
<mask id="mask0" style="mask-type:alpha" maskUnits="userSpaceOnUse" x="0" y="0" width="750" height="812">
<rect width="750" height="812" fill="white"/>
</mask>
<g mask="url(#mask0)">
<path d="M209.112 1340.99C304.026 1315.53 676.417 1281.82 752 1200.91C828.101 1120.29 743.127 1076.82 791.54 976.721C839.595 877.266 831.326 706.893 831.67 602.28C831.854 496.734 844.96 601.5 756.5 402C580.5 204.5 488.404 349.077 352.5 295C262.533 259.202 195.5 200 78.9998 247.499C-88.4166 352 -11.3774 406.45 -47.39 502.398C-84.277 598.709 -105.474 680 -108.507 755.239C-111.541 830.479 -96.0544 899.02 -88.4168 992.817C-80.7793 1086.61 -80.9908 1205.67 -31.9883 1275.77C17.0141 1345.87 114.714 1366.74 209.112 1340.99Z" fill="#32264C"/>
</g>
</svg>