<svg width="750" height="419" viewBox="0 0 750 419" fill="none" xmlns="http://www.w3.org/2000/svg">
<mask id="mask0" style="mask-type:alpha" maskUnits="userSpaceOnUse" x="0" y="0" width="750" height="419">
<rect width="750" height="419" fill="white"/>
</mask>
<g mask="url(#mask0)">
<path d="M471.5 221.5C444 192 424.357 193.391 412.499 169.5C403.876 152.113 391.07 138.015 372.499 144.5C338.953 137.312 332.777 179.568 312.999 193C283.192 213.237 210.999 214.5 172.499 279.5C129.853 351.5 69.9991 283 -8.50106 364C-72.5009 377 -219.001 488 312.999 488C330.284 485.35 771.755 440.157 804.999 441C850.785 442.164 854.091 362.221 715 326C667 313.5 619.5 335.5 569.5 279.5C532.679 238.26 499 251 471.5 221.5Z" fill="#32264C"/>
<path d="M325.455 331.736C325.455 331.736 332.912 310.936 342.921 295.859C363 298.187 385.491 298.007 405.248 295.798C405.248 295.798 420.524 317.582 423.74 335.55C425.75 346.833 335.786 352.876 325.455 331.736Z" fill="#6EB3F2"/>
<path d="M369.714 344.384C369.814 344.384 369.895 344.364 369.995 344.304C389.11 331.836 419.459 318.385 419.761 318.245C420.022 318.124 420.122 317.843 420.022 317.582C419.901 317.321 419.62 317.221 419.359 317.321C419.057 317.462 388.627 330.933 369.433 343.461C369.191 343.621 369.131 343.923 369.292 344.163C369.392 344.304 369.553 344.384 369.714 344.384Z" fill="#012869"/>
<path d="M371.02 365.263C371.02 365.263 370.558 353.357 364.488 353.418C354.318 353.518 340.269 354.381 333.957 355.064C325.697 355.967 319.185 360.906 319.024 365.484C318.803 371.487 329.757 373.916 336.59 372.852C362.759 368.816 370.015 364.54 371.02 365.263Z" fill="#FDB88E"/>
<path d="M346.439 354.081C341.394 354.382 336.852 354.744 333.957 355.065C325.697 355.968 319.185 360.907 319.024 365.485C318.803 371.488 329.757 373.917 336.59 372.853C341.093 372.15 345.032 371.447 348.469 370.765C348.469 370.765 330.098 372.893 329.013 366.027C327.526 356.691 346.439 354.081 346.439 354.081Z" fill="#E54925"/>
<path d="M368.99 368.617C368.99 368.617 498.67 357.836 483.314 317.582C468.481 278.673 361.111 350.769 361.111 350.769C358.318 352.676 365.975 369.339 368.99 368.617Z" fill="#6EB3F2"/>
<path d="M386.798 354.623C386.979 354.623 387.14 354.523 387.24 354.362C387.381 354.121 387.3 353.82 387.059 353.68C386.155 353.178 384.245 351.993 381.612 350.347C370.558 343.481 347.524 329.166 328.913 321.135C328.651 321.035 328.37 321.135 328.249 321.396C328.149 321.657 328.249 321.939 328.511 322.059C347.042 330.07 370.035 344.344 381.07 351.21C383.723 352.857 385.632 354.041 386.557 354.563C386.637 354.603 386.717 354.623 386.798 354.623Z" fill="#012869"/>
<path d="M377.672 369.179C377.672 369.179 379.501 357.394 385.792 358.217C389.008 358.639 392.565 359.181 396.183 359.763C404.424 361.109 412.825 362.715 417.348 363.759C425.829 365.726 432.04 371.448 431.678 376.025C431.236 382.028 419.579 383.032 412.584 381.105C385.852 373.757 378.797 368.597 377.672 369.179Z" fill="#FDB88E"/>
<path d="M404.465 361.189C409.67 362.133 414.353 363.057 417.328 363.759C425.81 365.727 432.02 371.449 431.659 376.026C431.217 382.029 419.559 383.033 412.565 381.106C407.962 379.841 403.962 378.636 400.465 377.532C400.465 377.532 419.318 381.989 421.227 375.303C423.84 366.189 404.465 361.189 404.465 361.189Z" fill="#E54925"/>
<path d="M379.26 372.532C379.26 372.532 240.195 361.049 259.088 320.092C277.519 280.139 386.536 354.965 386.536 354.965C389.35 356.792 382.275 373.175 379.26 372.532Z" fill="#6EB3F2"/>
<path d="M236.537 235.83C231.009 231.875 222.467 231.835 216.458 230.329C211.835 229.164 201.484 224.346 202.026 221.636C202.549 218.925 214.367 226.073 221.804 223.964C220.317 221.796 213.543 219.126 214.468 216.155C214.789 215.111 217.965 217.018 221.482 217.921C223.13 218.363 228.336 218.303 231.512 220.19C236.557 223.161 237.722 225.169 242.466 226.755L236.537 235.83Z" fill="#FDB88E"/>
<path d="M337.112 306.038C324.912 303.789 338.72 269.298 332.65 233.842C326.178 196.118 413.026 195.335 409.228 229.144C404.484 271.406 420.121 299.413 410.072 303.428C401.228 306.962 357.814 309.853 337.112 306.038Z" fill="#528A4F"/>
<path d="M339.263 263.877C317.516 269.398 313.657 254.461 296.251 255.244C269.76 256.428 273.137 248.819 260.474 248.819C247.028 248.819 243.25 239.765 234.165 236.994C230.728 235.508 238.124 222.92 240.094 223.563C302.18 224.346 299.065 204.45 365.05 203.024L339.263 263.877Z" fill="#528A4F"/>
<path d="M498.146 235.83C503.673 231.875 512.215 231.835 518.225 230.329C522.848 229.164 533.199 224.346 532.656 221.636C532.134 218.925 520.315 226.073 512.879 223.964C514.366 221.796 521.139 219.126 520.215 216.155C519.893 215.111 516.718 217.018 513.2 217.921C511.552 218.363 506.346 218.303 503.171 220.19C498.126 223.161 496.96 225.169 492.217 226.755L498.146 235.83Z" fill="#FDB88E"/>
<path d="M395.42 263.877C417.167 269.398 421.026 254.461 438.432 255.244C464.923 256.428 461.546 248.819 474.208 248.819C487.655 248.819 491.433 239.765 500.518 236.994C503.955 235.508 496.558 222.92 494.589 223.563C432.503 224.346 435.618 204.45 369.633 203.024L395.42 263.877Z" fill="#528A4F"/>
<path d="M362.759 185.196L358.156 205.694C357.573 210.994 380.848 211.817 381.692 206.076L381.069 197.904L362.759 185.196Z" fill="#C78E85"/>
<path d="M359.2 180.216C359.964 196.94 372.546 200.734 381.772 198.927C388.183 197.663 390.876 189.451 391.841 185.476C391.841 185.456 391.841 185.436 391.861 185.436C392.344 183.649 392.525 181.762 392.404 179.955C392.344 179.152 392.223 178.389 392.082 177.626C391.962 177.044 391.841 176.462 391.721 175.859C391.54 174.896 391.439 173.832 391.319 172.647C390.937 168.933 390.032 167.407 389.128 166.202C384.746 160.501 379.42 164.998 373.129 155.702C369.069 149.699 358.698 169.294 359.2 180.216Z" fill="#FDB88E"/>
<path d="M372.827 182.604C373.691 185.455 371.239 188.286 368.083 187.563C367.119 187.342 366.274 186.74 365.792 185.877C364.124 183.046 366.174 179.794 369.209 179.854C370.877 179.894 372.324 180.998 372.827 182.604Z" fill="#ED715D"/>
<path d="M388.344 182.125C388.626 183.932 390.113 185.257 391.862 185.417C392.344 183.63 392.525 181.743 392.404 179.936C392.344 179.133 392.224 178.37 392.083 177.607C391.922 177.607 391.761 177.628 391.621 177.648C389.47 177.989 388.023 179.997 388.344 182.125Z" fill="#ED715D"/>
<path d="M379.601 199.932C379.822 199.911 379.983 199.731 379.963 199.53C379.943 199.309 379.762 199.149 379.561 199.169C379.46 199.169 368.908 199.65 363.622 193.587C363.482 193.427 363.24 193.407 363.08 193.547C362.919 193.688 362.899 193.929 363.039 194.089C368.587 200.454 379.159 199.972 379.601 199.932Z" fill="#ED715D"/>
<path d="M386.213 176.142C389.369 176.022 390.555 174.175 390.615 174.074C390.736 173.874 390.675 173.592 390.474 173.472C390.273 173.352 390.012 173.412 389.871 173.612C389.811 173.713 388.364 175.881 384.143 175.078C383.902 175.038 383.681 175.178 383.641 175.419C383.6 175.66 383.741 175.881 383.982 175.921C384.806 176.122 385.55 176.162 386.213 176.142Z" fill="#002869"/>
<path d="M373.23 178.31C375.179 178.25 376.526 177.366 376.626 177.306C376.827 177.165 376.888 176.904 376.747 176.704C376.606 176.503 376.345 176.443 376.144 176.583C376.023 176.664 372.948 178.631 369.391 176.322C369.19 176.182 368.928 176.242 368.788 176.443C368.647 176.643 368.707 176.904 368.908 177.045C370.476 178.089 371.983 178.37 373.23 178.31Z" fill="#002869"/>
<path d="M381.57 185.619C382.073 185.599 382.595 185.478 383.038 185.217C383.781 184.816 384.244 184.133 384.284 183.35C384.344 182.346 383.641 181.644 382.957 180.941C382.616 180.6 382.274 180.238 382.033 179.857C381.188 178.552 380.847 176.223 380.827 176.183C380.786 175.942 380.565 175.781 380.324 175.822C380.083 175.862 379.922 176.083 379.962 176.323C379.983 176.424 380.344 178.873 381.289 180.339C381.57 180.801 381.972 181.182 382.334 181.564C382.937 182.166 383.46 182.688 383.42 183.31C383.379 183.953 382.897 184.314 382.616 184.455C381.952 184.816 381.048 184.836 380.425 184.495C380.224 184.374 379.942 184.455 379.842 184.655C379.721 184.856 379.802 185.137 380.003 185.238C380.445 185.539 381.008 185.639 381.57 185.619Z" fill="#ED715D"/>
<path d="M382.175 191.822C385.652 191.38 386.195 187.345 385.431 187.486C384.406 187.666 382.014 188.71 377.612 188.269C376.105 188.128 378.074 192.344 382.175 191.822Z" fill="white"/>
<path d="M366.617 145.163C364.567 143.436 340.77 143.075 331.223 174.133C328.952 181.481 308.712 211.476 308.712 211.476C331.424 204.449 351.724 218.703 361.995 204.067C366.597 197.502 365.452 193.447 364.909 178.249C364.447 165.34 380.828 162.449 376.406 154.257C370.014 142.412 366.617 145.163 366.617 145.163Z" fill="#32264C"/>
<path d="M210.709 146.97C213.563 147.231 216.377 145.665 217.563 142.895C247.812 71.8234 307.024 30.9874 375.944 33.6375C444.381 36.2675 503.191 81.2996 525.782 148.356C526.968 151.889 530.807 153.796 534.344 152.592C537.882 151.407 539.791 147.573 538.585 144.039C526.244 107.459 503.854 76.441 473.826 54.3566C459.616 43.9168 443.999 35.6652 427.397 29.8631C410.896 24.0609 393.771 20.8085 376.466 20.1259C341.735 18.8008 308.009 27.9558 278.905 46.6472C263.489 56.545 249.52 69.0327 237.34 83.7891C224.537 99.3084 213.704 117.418 205.101 137.595C203.634 141.028 205.242 144.983 208.679 146.448C209.362 146.729 210.026 146.89 210.709 146.97Z" fill="#E54925"/>
<path d="M224.156 183.31C227.271 183.611 230.266 181.704 231.231 178.612C254.666 104.007 311.526 56.9473 376.105 58.7342C439.196 60.4808 489.785 106.436 508.176 178.712C509.1 182.326 512.778 184.515 516.396 183.591C520.014 182.668 522.205 178.994 521.28 175.38C516.115 155.042 508.477 136.391 498.588 119.988C489.162 104.328 477.726 90.7364 464.581 79.5336C451.918 68.7524 437.829 60.3202 422.694 54.498C407.861 48.7962 392.325 45.6843 376.507 45.2426C360.247 44.8009 344.047 47.1901 328.389 52.3498C312.371 57.6299 297.256 65.7008 283.448 76.3414C269.057 87.3836 256.314 101.116 245.521 117.117C234.165 133.962 225.02 153.275 218.347 174.557C217.221 178.11 219.211 181.905 222.769 183.029C223.211 183.169 223.693 183.27 224.156 183.31Z" fill="#FFA191"/>
<path d="M258.987 166.806C261.861 167.067 264.675 165.481 265.861 162.69C286.241 114.064 328.791 82.8854 374.235 83.2668C418.352 83.6282 455.415 113.261 475.916 164.557C477.303 168.011 481.242 169.697 484.699 168.332C488.157 166.946 489.845 163.011 488.478 159.558C482.569 144.762 475.273 131.431 466.811 119.947C458.711 108.945 449.466 99.5289 439.336 91.96C420.121 77.6253 397.65 69.956 374.356 69.7552C362.155 69.6548 349.935 71.5822 337.996 75.477C326.118 79.3519 314.742 85.1339 304.17 92.6226C282.181 108.222 264.635 130.628 253.379 157.47C251.932 160.903 253.56 164.859 256.997 166.304C257.64 166.585 258.324 166.746 258.987 166.806Z" fill="#F0ECE4"/>
</g>
</svg>
