<svg width="375" height="675" viewBox="0 0 375 675" fill="none" xmlns="http://www.w3.org/2000/svg">
<path d="M82.8511 869.532C148.301 851.975 405.088 828.728 457.207 772.937C509.683 717.343 451.088 687.372 484.472 618.344C517.609 549.764 447.905 416.177 448.142 344.04C448.269 271.26 424.137 202.015 374.931 174.905C326.083 147.991 252.873 163.604 186.275 153.719C120.28 143.584 61.2527 108.148 14.0913 128.788C-33.4267 149.232 -69.1893 225.107 -94.0222 291.269C-119.458 357.682 -134.074 413.737 -136.166 465.619C-138.258 517.502 -127.579 564.765 -122.313 629.443C-117.046 694.122 -117.192 776.217 -83.4017 824.557C-49.6115 872.897 17.7582 887.286 82.8511 869.532Z" fill="#32264C"/>
</svg>
