<svg width="310" height="560" viewBox="0 0 310 560" fill="none" xmlns="http://www.w3.org/2000/svg">
<path d="M137.788 135.18C137.788 135.18 145.517 201.335 150.98 206.151C156.442 210.971 201.546 228.724 201.546 228.724L199.333 238.143C199.333 238.143 133.742 230.946 126.185 218.606C118.628 206.266 114.508 154.508 114.508 154.508L137.788 135.176V135.18Z" fill="#FDB88E"/>
<path d="M107.409 499.562C107.409 499.562 104.197 531.255 110.669 534.848C122.388 541.357 143.999 547.568 142.19 553.157C140.382 558.746 88.5794 558.967 87.1433 553.869C85.7031 548.771 91.5089 533.17 85.3594 502.803L107.413 499.562H107.409Z" fill="#FDB88E"/>
<path d="M87.6578 542.486C87.1054 548.161 86.6267 552.052 87.1423 553.869C88.5784 558.967 140.381 558.75 142.189 553.157C143.531 549.012 132.092 544.336 121.237 539.68C118.671 543.992 113.197 550.71 87.6578 542.482V542.486Z" fill="#F1D669"/>
<path d="M10.2474 498.654C10.2474 498.654 1.68791 529.337 7.45285 533.981C17.8903 542.393 38.131 552.188 35.3937 557.388C32.6565 562.588 -18.4218 553.984 -18.9742 548.714C-19.5224 543.444 -11.1472 529.063 -12.0391 498.09L10.2433 498.65L10.2474 498.654Z" fill="#FDB88E"/>
<path d="M-16.5233 537.59C-18.0331 543.089 -19.1664 546.841 -18.97 548.719C-18.4218 553.989 32.6607 562.593 35.3979 557.393C37.4273 553.534 26.949 546.98 17.0475 540.548C13.7825 544.357 7.24836 550.048 -16.5192 537.594L-16.5233 537.59Z" fill="#F1D669"/>
<path d="M151 113.5C148 137.5 128.03 130.45 122.851 137.5C117.719 144.486 126.071 121.773 105.544 123.627C56.22 127.761 70.249 148.357 53 162.614C48.1532 166.606 74.6341 181.775 70.5 190.614C51.968 229.393 81.3192 231.484 63.5 273.114C25.7473 318.315 -18.5 425.5 -112 452C-191.5 483.5 -280.58 292.492 -306 280.115L-315 59.1143C-284.417 17.7816 -222 84.1149 -134.5 9.95125C-90.5 -23.8856 -17.8535 40.0595 14.8793 32.2714C42.674 25.6581 45.9803 0.858572 78.2163 9.95181C85.6554 1.68529 122.851 6.64517 122.851 45.4978C122.851 63.2815 154 89.5 151 113.5Z" fill="#32264C"/>
<path d="M102.777 215.817C102.777 215.817 116.463 243.667 117.887 267.959C120.731 316.541 111.296 511.939 111.296 511.939H83.1831C83.1831 511.939 68.2696 301.444 68.2696 299.574C68.2696 292.221 12.9115 511.939 12.9115 511.939H-15.1562C-15.1562 511.939 -0.44729 252.456 34.8051 216.41L68.2696 220.669L102.777 215.812V215.817Z" fill="#528A4F"/>
<path d="M18.014 142.294C18.014 142.294 -7.37374 200.456 -11.6028 211.746C-15.8311 223.041 -33.749 253.085 -34.6612 254.544C-35.5733 256.002 -59.634 259.126 -58.4905 261.591C-57.347 264.056 -46.8451 259.547 -46.0935 262.547C-45.3464 265.548 -60.9623 288.266 -58.9158 288.706C-55.082 289.525 -48.8037 275.134 -47.0973 275.833C-45.3901 276.536 -55.101 290.32 -52.7358 292.468C-50.3706 294.617 -44.8075 278.64 -43.2485 278.539C-41.6895 278.437 -46.3762 294.171 -43.0125 293.721C-41.1847 293.477 -39.203 279.642 -37.2722 280.49C-35.3421 281.334 -35.1372 292.092 -33.0562 291.617C-30.9752 291.142 -34.5081 282.658 -32.1227 277.423C-29.7372 272.187 -30.8321 267.315 -24.4962 259.971C-18.1648 252.628 7.2729 229.139 14.7787 211.064C22.2889 192.987 38.9937 153.081 38.9937 153.081L18.0103 142.299L18.014 142.294Z" fill="#FDB98D"/>
<path d="M108.997 106.48C108.997 106.48 129.295 112.744 136.582 120.677C141.798 126.352 145.865 159.35 145.865 159.35L131.271 163.303C131.271 163.303 131.709 178.683 115.449 182.655L105.834 221.463C105.834 221.463 64.0256 240.858 30.5039 216.501C30.5039 216.501 44.7314 148.099 43.6471 148.099L34.5 176.5L8 159.35C8 159.35 27.6412 106.185 47.2272 102.27C62.4885 99.2174 88.2077 100.093 88.2077 100.093L108.993 106.484L108.997 106.48Z" fill="#6EB3F2"/>
<path d="M131.167 163.763C130.938 163.709 130.779 163.493 130.803 163.251C130.811 163.165 131.634 154.618 126.581 147.114C126.433 146.897 126.495 146.603 126.708 146.46C126.924 146.312 127.219 146.374 127.362 146.586C132.612 154.385 131.777 162.989 131.74 163.349C131.711 163.607 131.478 163.795 131.22 163.771C131.2 163.771 131.184 163.767 131.163 163.763H131.167Z" fill="#32264C"/>
<path d="M307.304 15.2192C292.946 -3.16887 274 19.3721 274 19.3721C274 19.3721 255.054 -3.16887 240.696 15.2192C226.338 33.6073 274 69 274 69C274 69 321.662 33.6073 307.304 15.2192Z" fill="#FF6760"/>
<path d="M68.8858 64.9297L63.0316 102.675C61.9633 112.411 97.174 113.137 98.7551 102.59L97.3876 88.6702L68.8858 64.9297Z" fill="#C78E85"/>
<path d="M63.4601 69.1529C67.4768 88.6236 84.8258 98.1881 98.9271 94.7722C108.713 92.3811 112.9 81.194 114.097 75.0026C114.097 74.9599 114.097 74.9599 114.097 74.9172C114.738 72.1418 114.866 69.2383 114.567 66.4202C114.439 65.1819 114.182 64.029 113.883 62.8762C113.669 61.9795 113.413 61.1255 113.199 60.1861C112.858 58.6917 112.644 57.1118 112.387 55.2758C111.533 49.5541 110.037 47.2911 108.542 45.4977C101.406 37.0434 93.5002 44.3022 83.1593 30.4251C76.5786 21.4583 60.0416 52.6284 63.4601 69.1529Z" fill="#FDB98D"/>
<path d="M90.963 82.036C90.3166 80.955 100.339 82.9061 104.552 79.6276C107.065 77.5681 101.224 94.3701 90.963 82.036Z" fill="white"/>
<path d="M84.6144 71.8898C86.1527 76.2024 82.5633 80.7712 77.6492 79.8745C76.1536 79.6183 74.8289 78.7216 73.9743 77.4407C71.1968 73.1708 74.1452 68.0469 78.8456 67.9188C81.4095 67.8761 83.717 69.456 84.6144 71.8898Z" fill="#ED715D"/>
<path d="M108.457 70.095C109.013 72.8704 111.406 74.7919 114.098 74.92C114.739 72.1446 114.867 69.241 114.568 66.4229C114.44 65.1846 114.183 64.0318 113.884 62.8789C113.628 62.8789 113.414 62.9216 113.158 62.9643C109.953 63.6475 107.816 66.8072 108.457 70.095Z" fill="#ED715D"/>
<path d="M68.8899 88.2388C71.7529 90.4592 82.0084 97.5899 96.1525 96.5224C96.5371 96.4797 96.8362 96.1381 96.7935 95.7538C96.7507 95.3695 96.4089 95.0706 96.0243 95.1133C80.2565 96.3089 69.1463 86.659 69.0181 86.5309C68.719 86.2747 68.2917 86.2747 67.9926 86.5736C67.7362 86.8725 67.7789 87.2994 68.0353 87.5983C68.1635 87.641 68.4626 87.8972 68.8899 88.2388Z" fill="#ED715D"/>
<path d="M104.779 61.0021C109.651 60.6178 111.317 57.6716 111.403 57.5435C111.574 57.2019 111.445 56.8176 111.146 56.6468C110.804 56.476 110.42 56.6041 110.249 56.903C110.163 57.0738 108.07 60.5324 101.532 59.5503C101.147 59.5076 100.805 59.7638 100.762 60.1054C100.72 60.4897 100.976 60.8313 101.318 60.874C102.6 61.0448 103.754 61.0875 104.779 61.0021Z" fill="#002869"/>
<path d="M84.9969 65.223C87.9881 64.796 89.911 63.2589 90.0392 63.1735C90.3383 62.9173 90.3811 62.533 90.1247 62.2341C89.8683 61.9352 89.4837 61.8925 89.1846 62.1487C89.0136 62.3195 84.6123 65.7781 78.8009 62.7892C78.459 62.6184 78.0744 62.7465 77.9035 63.0881C77.7326 63.4297 77.8608 63.8139 78.2026 63.9847C80.7665 65.2657 83.1167 65.4792 84.9969 65.223Z" fill="#002869"/>
<path d="M98.2829 75.9398C99.052 75.8971 99.8212 75.6409 100.505 75.214C101.616 74.5308 102.3 73.4633 102.3 72.2677C102.342 70.7306 101.189 69.6631 100.078 68.6383C99.5221 68.126 98.9666 67.6136 98.582 67.0585C97.2146 65.0943 96.4881 61.5076 96.4881 61.5076C96.4027 61.1233 96.0608 60.9099 95.719 60.9953C95.3344 61.0807 95.1207 61.4222 95.2062 61.7638C95.2489 61.9346 95.9754 65.6494 97.5137 67.8271C97.9838 68.5102 98.6247 69.0653 99.223 69.6204C100.206 70.5171 101.018 71.2857 101.018 72.225C101.018 73.2071 100.291 73.8049 99.8639 74.0611C98.8384 74.6589 97.471 74.7443 96.4881 74.2746C96.1463 74.1038 95.7617 74.2319 95.5908 74.5735C95.4199 74.9151 95.5481 75.2994 95.8899 75.4702C96.5309 75.8544 97.3855 76.0252 98.2829 75.9398Z" fill="#ED715D"/>
<path d="M80.975 11.1245C77.6847 8.60524 30.7657 6.04331 18.2027 54.5919C11.8784 78.9302 14.5705 82.3888 -5.12863 104.678L-10 170.775C0.469179 142.551 23.6723 140.118 44.9098 125.771C62.5578 113.815 69.3521 107.325 70.2067 72.0984C70.7622 48.2297 94.0936 41.6114 86.7438 29.3142C76.0609 11.4661 80.975 11.1245 80.975 11.1245Z" fill="#32264C"/>
</svg>
