<svg width="24" height="17" viewBox="0 0 24 17" fill="none" xmlns="http://www.w3.org/2000/svg">
<path d="M0 1.87079C0 1.87079 2.58584 15.2377 4.50885 15.115C6.43186 14.9922 6.7919 4.18658 6.84918 4.35024C6.90646 4.51799 8.39168 15.831 10.9939 16.5552C13.5961 17.2794 13.4529 4.82484 13.4529 4.82484C13.4529 4.82484 14.0707 15.5405 15.8791 15.9374C17.6876 16.3343 18.2154 6.01138 18.9314 6.02775C19.6433 6.04412 18.5181 14.8818 20.7398 15.471C22.9615 16.0601 25.0278 3.66287 23.0761 1.94443C21.1245 0.226001 18.9887 1.80124 18.9887 1.80124C18.9887 1.80124 15.4045 -0.723239 13.3097 0.451023C13.3097 0.451023 7.50384 -1.0301 6.36231 1.37571C6.36231 1.37571 2.25034 -1.88113 0.008191 1.86669L0 1.87079Z" fill="#FDB88E"/>
</svg>
