<?xml version="1.0" encoding="utf-8"?>
<!-- Generator: Adobe Illustrator 24.1.0, SVG Export Plug-In . SVG Version: 6.00 Build 0)  -->
<svg version="1.1" id="Capa_1" xmlns="http://www.w3.org/2000/svg" xmlns:xlink="http://www.w3.org/1999/xlink" x="0px" y="0px"
	 viewBox="0 0 375 381.8" style="enable-background:new 0 0 375 381.8;" xml:space="preserve">
<style type="text/css">
	.st0{fill:#FBF4F0;}
	.st1{fill:#FBEBDF;}
	.st2{fill:#FEFEFE;}
	.st3{fill:#B9CBC3;}
	.st4{fill:#8F96CF;}
	.st5{fill:#5861A6;}
	.st6{fill:#F1B99F;}
	.st7{fill:#6971A4;}
	.st8{fill:#62669D;}
	.st9{fill:#CAC7BC;}
	.st10{fill:#7A7EB0;}
	.st11{fill:#DD7864;}
	.st12{fill:#EFE4E7;}
	.st13{fill:#ECE2E5;}
	.st14{fill:#A38EB3;}
	.st15{fill:#E0A691;}
	.st16{fill:#E79780;}
	.st17{fill:#E49681;}
	.st18{fill:#D5C2AC;}
	.st19{fill:#DAAFAA;}
	.st20{fill:#D5A6A4;}
	.st21{fill:#69688C;}
	.st22{fill:#DFD4E8;}
	.st23{fill:#B5A7CE;}
	.st24{fill:#5F6A9F;}
	.st25{fill:#A68CAD;}
	.st26{fill:#9D97C0;}
	.st27{fill:#727BBA;}
	.st28{fill:#E1B5AD;}
	.st29{fill:#F2B994;}
	.st30{fill:#FDFBF9;}
	.st31{fill:#D8846E;}
	.st32{fill:#DB8D73;}
	.st33{fill:#D8866E;}
	.st34{fill:#261F34;}
	.st35{fill:#493D4E;}
	.st36{fill:#54495A;}
	.st37{fill:#393853;}
	.st38{fill:#594C5B;}
	.st39{fill:#3F2D71;}
	.st40{fill:#3E2D71;}
	.st41{fill:#3D2C75;}
	.st42{fill:#4D336C;}
	.st43{fill:#494075;}
	.st44{fill:#573B6E;}
	.st45{fill:#6F5F92;}
	.st46{fill:#CCC1D3;}
	.st47{fill:#7F7298;}
</style>
<rect x="-0.7" y="-0.1" class="st0" width="376.4" height="332.2"/>
<g>
	<path class="st1" d="M306.2,321.6c0.4-0.9,1.3-0.7,2-0.7c21.4,0,42.8,0,64.2,0c0.7,0.7,0.6,1.6,0.6,2.5c0,18.4,0,36.9,0,55.3
		c0,2.6-0.2,2.8-2.8,2.8c-60.5,0-121,0-181.4,0c-62,0-124,0-186,0c-0.9,0-1.9,0.3-2.7-0.3c0-19.9,0-39.7,0-59.6
		c2.5,0.4,4.9,0.8,7.4,1.1c3.9,0.5,7.8,1.1,11.8,1.5c5.6,0.6,11.2,1.1,16.8,1.6c0.2,0,0.3,0,0.5,0c7.4,0,14.7,0.6,22.1,0.3
		c0.7,0,1.3,0,1.7-0.7c0.5,0.3,0.5,0.8,0.5,1.3c0.1,6.4,3.6,10.8,8.3,14.5c4.5,3.6,9.7,5.8,15.2,7.6c10.2,3.3,20.6,5.1,31.2,6.3
		c8.4,1,16.7,1.4,25.1,2c0.4,0.1,0.7,0.2,0.8,0.6c0,0.1,0,0.2,0,0.3c-0.4,4.1,0.5,5.7,4.3,7.3c4.4,1.8,8.9,2.4,13.6,1.7
		c1.5-0.2,3-0.3,4.5-0.5c0.9,0,1.8,0,2.7-0.3c5.3-0.8,10.5-1.7,15.7-2.7c2-0.4,4-1.2,6.1-1c1.2,0.9,2.5,1,4,1.1
		c2.7,0.1,5.4,0.5,8.1,0.8c0.4,0.1,0.9,0.1,1.3,0.1c13.7,0.7,27.3,0.8,41,0.7c4.1,0,8.1-0.8,12.2-0.7c2,0.1,3.9-0.1,5.8-0.6
		c2.4-0.6,4.9-0.2,7.3-0.7c4.5-0.9,9-1.3,13.5-2.4c5.1-1.2,10.1-2.7,14.8-4.9c4.1-1.9,8-4,11.1-7.4c2.3-2.5,3.9-5.4,4.6-8.8
		c0.6-2.9,0.1-5.6-0.1-8.4c-0.1-0.6-0.4-1.1-0.7-1.6c-1.4-2.7-2.8-5.4-4.9-7.7C306.1,322,306.1,321.8,306.2,321.6z"/>
	<path class="st2" d="M0,381.1c123.1,0,246.2,0,369.3,0c0.4,0,0.9-0.1,1.3,0c1.4,0.2,1.8-0.4,1.8-1.8c0-19.5,0-39,0-58.5
		c0-67.3,0-134.5,0-201.8c1.7-0.4,2,0.3,2,2c-0.1,86.4,0,172.8,0,259.2c0,1.2-0.3,1.5-1.5,1.5c-123.8,0-247.6,0-371.4-0.1
		C1.1,381.7,0,382.5,0,381.1z"/>
	<path class="st3" d="M197.7,190.9c2.6,3.4,6.2,5.3,10,7c1.9,0.8,3.9,1.5,6,1.8c2.5,0.6,5.1,0.6,7.6,1c0.1,0,0.2,0,0.2,0
		c1.3,0.2,2.7,0.2,4,0l0,0c2.4-0.4,4.9-0.4,7.3-1c3.5-0.6,6.7-2.2,9.8-3.9c-0.1,0.9,0.6,0.9,1.1,1.2c10.3,4.5,20.8,8.5,31.9,10.4
		c7.8,1.4,15.7,1.8,23.6,1.4c5-0.3,9.9-1,14.9-1.6c3.6,1.8,5.4,5,6.5,8.6c0.2,0.7-0.1,1.3-0.3,1.9c-1.6,2.1-3.9,3.5-5.9,5
		c-9.8,7.1-20.6,12.4-32.5,15.1c-5.4,1.3-10.8,1.8-16.3,2.2c-3.7,0.2-7.4,0.4-11.1,0.2c-4.5-0.3-8.9-0.2-13.4-0.2
		c-2,0-3.9,0.3-5.8,1c-3.3,1.3-5.1,2.9-5.2,7c-0.1,5.1-0.9,10.2-1.5,15.2c-0.7,5.8-1.6,11.5-2.4,17.3c-0.4,2.7-0.9,5.4-1.5,8
		c-0.3,1.5-0.6,2.9,0,4.3c0.3,0.6,0.2,1.3,0.1,1.9c-0.2,0.1-0.4,0-0.5-0.1c-0.1-0.1-0.2-0.3-0.2-0.5c0-0.1-0.1-0.2-0.2-0.2
		c-2.8,1.7-6,1.7-9.1,2c-5.3,0.5-10.6,0.3-15.8,0.2c-6.2,0-12.4-0.4-18.6-0.9c-5.5-0.4-10.9-0.9-16.4-1.4c-3.1-0.3-6.1-0.9-9.1-1.7
		c-3-0.5-3-3-3.2-5.2c-0.1-0.5,0.1-1-0.2-1.4c0.2-3.4-0.8-6.6-1.2-9.8c-0.6-5.2-1.4-10.4-2.1-15.7c-0.5-4.5-1-9.1-1.4-13.6
		c-0.4-3.8-3.2-5.7-6.5-7c-3.4-1.3-7-1.6-10.5-2c-5.6-0.6-11.2-0.9-16.7-1.6c-6.1-0.8-12-1.9-17.8-3.8c-6.5-2.1-12.7-4.8-18.6-8.4
		c-4.5-2.7-8.7-5.8-12.7-9.2c-0.9-0.8-1.6-1.6-1.6-2.9c-0.3-0.7,0-1.3,0.2-1.9c1-2.5,2.5-4.7,4.4-6.6c0.3-0.3,0.5-0.6,1-0.4
		c1-0.5,2.1-0.3,3.2-0.2c8.9,1.5,17.9,2,26.8,1.4c13-0.8,25.4-4.1,37.5-8.7c0.7-0.3,1.3-0.5,1.3-1.4c0.6,0.8,1.3,0.5,2,0.2
		c8.6-3.2,17.2-6.4,26.2-8.5c0.3-0.1,0.6-0.1,1-0.2c1.5-0.4,3.1-0.6,4.6-0.9c2.5-0.3,5-0.6,7.5-0.9c0.8,0.9,0.4,2.1,0.4,3.1
		c0.1,2.4,1,3.5,3.2,4.1c4.4,1.3,8.8,1.3,13.1,0c0.6-0.2,1-0.6,1.6-0.7C197.2,189.9,197.4,190.4,197.7,190.9z"/>
	<path class="st4" d="M306.2,321.6c2.3,2.2,3.9,4.9,5.2,7.8c2.6,7,1.2,14.5-4,19.7c-4.6,4.6-10.3,7.2-16.2,9.3
		c-4.5,1.6-9,2.7-13.7,3.6c-4.7,0.8-9.4,1.8-14.2,2c-2.1,0.1-4.2,0.7-6.3,0.8c-11,0.6-22,1.1-33,0.8c-10.1-0.2-20.1-0.4-30.2-1.6
		c-1-0.1-2,0-2.9-0.1c-0.9-0.1-1.7-0.4-2.3-1c-0.7-0.5-1.1-1.2-1.4-1.9c-1.1-2.7-2-5.4-2.2-8.3c0-0.6-0.1-1.3-0.6-1.8
		c-0.6-0.5-1.4-0.3-2.1-0.3c-7.7,0-15.5,0.1-23.2-0.1c-4.2-0.1-8.2,0.6-12,2.3c-0.6,0.3-1.3,0.3-1.7,0.9c-0.1,0.1-0.3,0.2-0.4,0.3
		c-1.2,0.5-2.1,1.5-3,2.4c-0.4,0.5-0.8,0.9-1.4,1.1c-4.4,0.1-8.8-0.3-13.2-0.7c-4-0.3-7.9-0.7-11.9-1.1c-5.4-0.6-10.7-1.4-16-2.4
		c-7.3-1.4-14.6-3.3-21.5-6.2c-5.2-2.2-10-5.1-13.7-9.5c-2.9-3.5-4.3-7.5-4.2-12.1c0.5-5.2,2-9.9,6-13.5c3.8-3.4,8.4-4.9,13.4-5.4
		c3.1-0.4,6.2-0.5,9.2-0.7c7.6,0.4,15.1,1.8,22.5,3.8c9,2.4,17.8,5.3,26.4,8.7c8.1,3.1,16.2,6.5,24.1,10.2c0.5,0.2,1,0.5,1.4,0.8
		c0.5,0.4,1.1,0.7,1.7,0.8c6.9,3,13.6,6.5,20.2,10c0.6,0.3,1.1,0.7,1.3,1.4c0.2,1.2,0.1,2.4,0.1,3.6c0,2,0.1,2.1,1.8,1.2
		c3.3-1.7,6.7-3.1,10-4.7c1.1-0.5,2.3-0.9,3.1-2c5.4-2.5,10.9-4.7,16.4-7c11.9-4.8,24-9,36.5-12.3c8.2-2.2,16.6-3.9,25.1-4.6
		c2.3,0,4.6,0.1,6.9,0c2.6-0.1,5.1,0.3,7.6,0.5C298.4,317.5,302.5,319,306.2,321.6z"/>
	<path class="st5" d="M163.3,329.7c-7.6-3.7-15.5-6.9-23.4-10.1c-8.3-3.3-16.7-6.2-25.3-8.7c-7.1-2.1-14.3-3.5-21.7-4.5
		c-1.4-0.2-2.8,0.1-4.1-0.7c0.1,0,0.2,0,0.3,0c2.3-0.3,4.6-0.2,6.8-0.2c3.4,0,6.8,0,10.3,0.2c6.8,0.5,13.6,1.1,20.4,1.6
		c5.4,0.4,10.9,0.7,16.3,1.1c1.1,0.1,1.4-0.6,1.7-1.3c1.8-4.6,3.4-9.2,4.7-13.9c0.1-0.4,0.3-0.8,0.5-1.2c0.7-1.5,1-3.1,1.3-4.7
		c0-0.1,0-0.2,0-0.2c0.3-0.3,0.6-0.7,0.8,0c0.2,0.6,0.4,1.3,0.3,1.9c-0.1,1.4,0.7,2.2,1.9,2.7c3.5,1,7,1.6,10.6,1.9
		c1.8,0.2,3.7,0.4,5.5,0.6c2.3,0.3,4.7,0.4,7,0.6c11.6,1.1,23.3,1.1,35,1c3.3,0,6.6-0.4,9.9-1.1c0.5-0.1,0.9-0.3,1.3-0.6
		c0.5-0.4,0.9-0.3,1.2,0.2c0,0.1,0,0.2,0,0.3c0.7,4.3,2,8.5,3,12.8c0.3,1.3,1,2,2.5,2.1c7.1,0.3,14.2,0.5,21.3,1.3
		c3.8,0.4,7.7,0.4,11.5,0.9c4.9,0.6,9.8,1,14.7,1.6c3.4,0.4,6.7,1.1,10.1,1.7c0.6,0.1,1.6,0,1.3,1.2c-2.7,0.1-5.4,0-8.2,0.1
		c-0.5,0-1.1-0.1-1.6,0.2c-9.6,0.9-18.9,2.9-28.1,5.5c-10.4,2.9-20.6,6.5-30.6,10.3c-6.1,2.3-12,5-18.1,7.6
		c-0.3,0.1-0.6,0.2-0.9,0.2c-0.7,0.5-1.6,0.4-2.4,0.7c-3.9,0.3-7.7,0.9-11.6,1.4c-0.5,0-1-0.1-1.4-0.5c-1-1.4-2.6-1.8-3.9-2.5
		c-5.8-3-11.6-5.8-17.4-8.6C164.4,330,163.8,330,163.3,329.7z"/>
	<path class="st6" d="M67.9,202.6c-2.6,2.5-4.5,5.5-5.6,8.9c-3.5-1.7-7.3-1.5-11-2c-5.9-0.7-11.1-3.1-15.9-6.5
		c-0.7-0.5-1.4-1.4-1.1-2.2c0.4-1,1.6-0.6,2.4-0.4c2.9,0.7,5.7,1.6,8.5,2.2c2.1,0.5,4.3,0.9,6.4,0.3c0.3-0.1,0.9,0.1,0.9-0.4
		c0.1-0.4-0.4-0.6-0.7-0.9c-1.2-0.8-2.4-1.6-3.5-2.4c-0.8-0.6-1.5-1.3-2.1-2c-0.4-0.5-0.7-1.2-0.2-1.8c0.5-0.6,1.1-0.3,1.7-0.1
		c3.9,1.8,8.2,1.9,12.3,2.9C63.1,199.1,65.7,200.6,67.9,202.6z"/>
	<path class="st4" d="M106.3,305.7c-5.7,0-11.4,0-17.1,0c2.9-0.5,5.9-0.5,8.9-0.5c2.4,0,4.8,0.2,7.1,0.3
		C105.6,305.5,106,305.5,106.3,305.7z"/>
	<path class="st7" d="M153.8,291.7c-2-0.6-1.6-2.4-2-3.8c-0.1-0.4,0.2-1.1-0.7-0.8c-0.1-0.6,0.3-1.1,0.4-1.6c1,0.7,0.8,2,0.9,2.9
		c0.1,1.8,0.8,2.8,2.4,3.3C154.5,292,154.1,291.9,153.8,291.7z"/>
	<path class="st7" d="M151.1,287.3c0,1.7-0.3,3.3-1.3,4.7C150.1,290.4,150.4,288.8,151.1,287.3z"/>
	<path class="st6" d="M316,207.2c1.8-1.6,4-2.6,6.3-3.3c3.1-1,6.4-0.8,9.4-1.9c1.1-0.4,2.2-0.8,3.2-1.1c0.6-0.2,1.2-0.5,1.6,0.1
		c0.3,0.5,0.2,1.1-0.2,1.7c-0.6,1-1.5,1.5-2.4,2.2c-1.1,0.8-2.2,1.6-3.3,2.4c-0.3,0.2-0.6,0.3-0.6,0.7c0.1,0.5,0.6,0.4,0.9,0.5
		c1.9,0.6,3.8,0.1,5.6-0.3c3.2-0.7,6.3-1.6,9.5-2.4c0.7-0.2,1.6-0.5,2,0.4c0.5,0.9-0.2,1.6-0.8,2.1c-1.9,1.7-4.2,2.8-6.6,3.9
		c-4.3,2.1-8.9,2.9-13.6,3.1c-1.8,0.1-3.7,0.4-5.4,1c-0.8,0.3-1.3,0.1-1.5-0.7c-0.6-2.8-2.3-4.8-4-6.9
		C316,208.2,315.6,207.8,316,207.2z"/>
	<path class="st8" d="M289.2,315.9c-0.3-0.7-1.1-0.8-1.7-0.9c-4.9-0.6-9.9-1.4-14.8-2.1c-4.3-0.6-8.7-0.2-12.9-1.5
		c-0.5-0.1-1,0-1.5-0.1c-7.8-0.3-15.5-0.9-23.2-1.6c-1.6-0.1-3.3,0-4.9,0c-1.8,0-2.6-0.7-3-2.4c-0.9-3.3-1.4-6.7-2.5-10
		c-0.3-0.8-0.1-1.8-0.1-2.8c0.1,0,0.2,0.1,0.3,0.1c0.8,4.3,2,8.5,3,12.7c0.3,1.2,0.9,1.7,2.3,1.8c12.3,0.5,24.6,1.4,36.9,2.6
		c7.9,0.7,15.7,1.7,23.4,3.6c0.2,0.1,0.6,0.1,0.6,0.4c0.1,0.4-0.3,0.4-0.5,0.4C290.1,316,289.6,316.2,289.2,315.9z"/>
	<path class="st9" d="M316,207.2c0,1.5,1.4,2.1,2.1,3.2c1,1.6,2.2,3.1,2.5,5.1c0.1,0.8,0.6,1,1.3,1c-0.6,0.4-1.2,0.7-1.6,1.3
		c-0.1-4.4-2.7-7.5-5.9-10.2c-0.1-0.1-0.2-0.2-0.3-0.3C314.7,207.1,315.4,207.7,316,207.2z"/>
	<path class="st10" d="M289.2,315.9c0.4,0,0.8,0,1.2,0c0.9-0.1,0.1-0.4,0.1-0.6c1.3,0.1,2.4,0.5,3.6,0.9c-0.4,0.5-1,0.4-1.5,0.3
		c-4.4-0.7-8.8-0.2-13.3-0.3c0.9-0.6,1.9-0.3,2.8-0.3C284.5,315.9,286.8,315.9,289.2,315.9z"/>
	<path class="st6" d="M185.2,350.3c0.4,4.2,1.3,8.3,3.3,12.1c-0.1,0.2-0.2,0.3-0.3,0.3c-5.9,1.3-11.7,2.6-17.7,3.3
		c-1.3,0.2-2.6,0.7-4,0.6c-0.5,0.1,0.7-0.7-0.2-0.4c-1.5,0.5-3.1,0.1-4.6,0.2c-2.5,0-5-0.4-7.3-1.4c-2.1-0.8-4-2-4.2-4.5
		c-0.2-2.4,0.8-4.3,2.7-5.8c3.4-2.7,7.4-3.8,11.6-4.5c0.4-0.1,0.9-0.2,1.3-0.2c5.9,0,11.8,0,17.7,0
		C184.1,350.2,184.7,350,185.2,350.3z"/>
	<path class="st11" d="M165.3,350.4c-2.4,0.9-5,1.2-7.5,2.2c-1.8,0.7-3.6,1.7-5,2.9c-2.7,2.4-3.7,7,1.3,9c2.4,1,5,1.5,7.6,1.5
		c0.7,0.3,1.5,0,2.2,0.2c0.8,0.1,0.5,0.5,0.1,0.8c-2.6,0.3-5.2,0.8-7.8,0.8c-4.5,0-9-0.6-12.9-3.3c-2.7-1.8-3.2-3.7-2-6.7
		c0.7-2,2.2-3.2,4-4.1c3-2,6.4-3,9.9-3.3c3.1-0.3,6.2-0.2,9.3-0.2C164.8,350.2,165.1,350.1,165.3,350.4z"/>
	<path class="st12" d="M257.4,364.4c11.8-1.2,23.5-2.6,34.7-6.6c5.6-2,10.9-4.5,15.1-8.9c4.7-4.8,6.1-10.5,4.7-17
		c-0.2-0.8-0.4-1.7-0.5-2.6c1.2,0.9,0.9,2.3,1.1,3.6c1.3,7-0.9,12.7-6.1,17.4c-3.7,3.3-8,5.4-12.5,7.3c-3.8,1.6-7.7,2.8-11.7,3.6
		c-3.7,0.8-7.4,1.4-11.2,2c-4,0.7-8.1,0.6-12.1,1.6c-1.2,0.3-2.4,0.2-3.6,0.2C255.8,364,256.8,364.9,257.4,364.4z"/>
	<path class="st13" d="M257.4,364.4c-0.5,0.7-1.5,0-2,0.7c-13,0.9-26,0.9-39,0.6c-6.5-0.2-13.1-0.2-19.6-1.2
		c-1.6-0.2-3.2-0.4-4.9-0.3c-1.4,0-2.7-0.2-3.7-1.3c0.1-0.1,0.2-0.2,0.3-0.3c1,1,2.4,1.2,3.7,1.3c9.6,0.7,19.1,1.2,28.7,1.4
		c5.7,0.1,11.4,0.2,17.2,0.1C244.5,365.1,251,364.7,257.4,364.4z"/>
	<path class="st14" d="M144.9,353.9c-1.3,1.2-2.6,2.4-3.6,3.8c-0.2-0.1-0.4-0.2-0.6-0.4c1.2-1.5,2.3-3.1,4.2-3.8
		C145.1,353.7,145.1,353.8,144.9,353.9z"/>
	<path class="st15" d="M163.9,367c0.2-0.5,0-0.6-0.5-0.7c-0.6,0-1.3,0.2-1.8-0.3c1.9,0,3.9,0,6,0c-0.5,0.3-0.8,0.5-1.1,0.6
		C165.7,367.1,164.8,367.1,163.9,367z"/>
	<path class="st6" d="M178,180.7c-3.2-0.3-5.4-2.2-7.1-4.6c-1.7-2.4-2.9-5-3.6-7.9c-0.1-0.6,0.4-0.8,0.8-1.1c2.6-2,2.3-4.7-0.5-6.2
		c-0.3-0.2-0.6-0.3-0.7-0.6c0-0.4,0-0.8,0-1.1c0.3-2,0.5-2.1,2.4-1.2c1.6,0.7,3.3,0.3,5.3,0.3c-0.7-0.9-1.3-0.7-1.8-0.6
		c-1.9,0.2-3.5-0.7-4.9-1.7c-0.5-0.4-0.6-0.9-0.6-1.4c0-0.9,0.1-1.7,0.3-2.6l0,0c0.7-1.6,1.3-3.2,2.6-4.3c1.1-1.2,2.6-1.6,4-2.3l0,0
		c1.9-0.5,3.6-1.1,5.1-2.5c1.5-1.5,1.7-1.4,3.1,0.6l0,0c2.9,2.5,6,4.8,8.2,8c1.7,2.3,2.7,4.9,2.5,7.9c0,1.1-0.1,2.2,0.1,3.3
		c0.1,0.4,0.1,0.8-0.3,1.1c-0.5,0.3-0.8-0.2-1.1-0.4c-0.2-0.1-0.3-0.3-0.5-0.4c-1.4-1.1-3.4-1-4.6,0.2c-1.1,1.3-1,3.3,0.2,4.6
		c1.2,1.2,3.3,1.2,4.6,0c0.2-0.2,0.4-0.4,0.6-0.6c0.6-0.6,1-0.3,1,0.4c0.1,0.8,0.1,1.6,0,2.4c-0.1,2.2,0.2,4.3,0,6.5
		c-0.6,1.5-2,1.8-3.2,2.5c-1,0.5-2,1-3.1,1.3c-2.2,0.4-4.4,1.3-6.7,1c-0.5-0.1-0.9,0.1-1.4,0.3C178.2,181.5,178.3,180.8,178,180.7z"
		/>
	<path class="st16" d="M192.8,176.4c0-3.1,0-6.3,0-9.4c-0.9,1-1.6,1.9-3.1,1.9c-1.2,0-2.3,0-3.2-0.9c-1.5-1.5-1.7-4.2-0.2-5.6
		c1.7-1.7,4.2-1.3,6.5,1.2c0-1.7,0-3.1,0-4.6c0.1-0.1,0.2-0.1,0.2,0.1c0,1,0,1.9,0,2.9c0.4,1,0.2,2,0.2,3c0,3.7,0.1,7.4,0.1,11.2
		C193.2,176.4,193.1,176.5,192.8,176.4z"/>
	<path class="st17" d="M166.9,160.3c1.9,0.4,3.1,1.5,3.3,3c0.2,2-0.5,3.3-2.4,4.3c-0.2,0.1-0.4,0.4-0.6,0.5
		c-0.9-2.5-1.3-5.1-0.7-7.8C166.7,160.2,166.8,160.2,166.9,160.3z"/>
	<path class="st18" d="M178,180.7c0.2,0.2,0.5,0.4,0.7,0.6c0.6,0.5,0.5,1.2,0.4,1.9c-0.3,1.6-0.4,3.2,0.1,4.8c1,1.5,2.5,2.1,4.2,2.3
		c3.4,0.6,6.7,0.5,10.1,0c1.1-0.1,1.9-0.8,2.9-1c0.5,0,0.6,0.3,0.5,0.8c-1.7,1.5-4,1.5-6.1,1.9c-3.5,0.6-7-0.1-10.3-1.4
		c-1.7-0.7-2.6-1.8-2.4-3.7c0.1-1.1,0-2.3,0-3.4C178.1,182.5,178.2,181.6,178,180.7z"/>
	<path class="st19" d="M166.9,160.3c-0.1,0-0.2,0-0.3,0c0.3-2.8,0-5.8,1-8.5c0,0.1,0,0.2,0,0.3c0.2,1.1-0.6,2.4,0.4,3.2
		c1.5,1.3,3.2,2.1,5.2,1.7c0.8-0.2,1.6-0.3,1.7,0.6c0.1,1-0.9,1.1-1.7,1.1c-1.8-0.1-3.6,0.5-5.2-0.9c-0.5-0.5-0.8-0.1-0.9,0.4
		C167.2,158.9,166.8,159.6,166.9,160.3z"/>
	<path class="st20" d="M177.4,143.7c0.6-0.3,1.3-0.5,1.9-0.8c-1.4,1.6-3.3,2.1-5.3,2.3C175,144.4,176.5,144.6,177.4,143.7z"/>
	<path class="st19" d="M170.2,147.6c-1.2,1.2-1.6,2.9-2.7,4.2c0.2-1.7,1.1-3.1,2.3-4.3C170,147.4,170.1,147.4,170.2,147.6z"/>
	<path class="st20" d="M170.2,147.6c-0.1,0-0.2,0-0.4,0c1.1-1.3,2.6-2.1,4.3-2.3C172.9,146.1,171.3,146.5,170.2,147.6z"/>
	<path class="st21" d="M170.5,184.3c-1.5,0.6-3.1,0.8-4.6,0.9C167.4,184.4,168.9,184.3,170.5,184.3z"/>
	<path class="st22" d="M262.6,163.6c0.4-1.2,1.1-2.1,2-2.9c0.2,0.9-1.3,1.4-0.6,2.4c-0.4,0.3-0.7,0.6-1.1,0.9
		C262.6,164,262.4,164,262.6,163.6z"/>
	<path class="st22" d="M265.3,162c-0.3,0.5-0.7,0.9-1.3,1C264.2,162.4,264.6,162,265.3,162z"/>
	<path class="st23" d="M262.6,163.6c0.1,0.1,0.2,0.2,0.3,0.3c0,0.4-0.4,0.7-0.6,0.5C261.9,164.1,262.4,163.8,262.6,163.6z"/>
	<path class="st24" d="M153.8,291.7c0.3,0,0.7,0,1,0c6.9,1.5,14,2.1,21,2.7c11.9,1,23.8,1.5,35.8,1.2c3.1-0.1,6.3-0.2,9.4-0.9
		c1.2-0.3,2.7-0.4,3.1-2.2c0.5,0.6,0.6,1.2,0.6,1.9c-0.2-0.1-0.5-0.3-0.6-0.2c-5.3,2.4-10.9,1.8-16.5,1.8c-5.8,0-11.7,0.2-17.5,0
		c-6.7-0.3-13.3-0.8-20-1.5c-3.9-0.4-7.8-0.6-11.6-1.5C156.9,292.6,155.1,292.8,153.8,291.7z"/>
	<path class="st25" d="M144.9,353.9c0-0.1,0-0.2,0-0.4c0.1,0,0.2,0,0.3,0c0.3-0.5,0.8-0.8,1.3-1c2.7-1.4,5.6-2.5,8.7-2.6
		c9.4-0.1,18.8,0,28.2,0c0.6,0,1.2-0.2,1.7,0.3c-6.7,0-13.3,0-20,0c-4.7-0.3-9.3,0.1-13.9,1c-1.8,0.4-3.5,1.1-5.1,2.1
		C145.9,353.7,145.5,354,144.9,353.9z"/>
	<path class="st26" d="M199.3,340.1c0.7-0.5,1.5-0.3,2.3-0.3c-0.5,1.8-2.4,1.7-3.7,2.4c-3.3,1.7-6.8,3.1-10.1,4.8
		c-1.5,0.7-1.6,0-1.6-1.1c0-1.5,0-3.1,0-4.6c0.4,0,0.8,0,1.3,0c-0.3,1.2-0.1,2.5-0.3,3.7c-0.1,0.7,0.1,1,0.8,0.7
		c3.7-1.8,7.5-3.5,11.2-5.3C199.3,340.5,199.3,340.3,199.3,340.1z"/>
	<path class="st27" d="M163.3,329.7c0.6,0,1.2,0.1,1.6,0.7C164.3,330.3,163.7,330.2,163.3,329.7z"/>
	<path class="st14" d="M146.6,352.6c-0.4,0.3-0.9,0.6-1.3,1C145.3,352.8,145.9,352.6,146.6,352.6z"/>
	<path class="st28" d="M199.3,340.1c0.2,0.1,0.6,0.2,0.7,0.3c0.2,0.3-0.2,0.4-0.4,0.5c-4,1.6-7.9,3.6-11.9,5.5
		c-0.6,0.3-1.2,0.4-1.1-0.5c0.1-1.3,0.4-2.6,0.2-3.9c0-0.2,0.4-0.4,0.7-0.6C191.4,341,195.4,340.3,199.3,340.1z"/>
	<path class="st29" d="M193.3,179c0.4,3.7,1.4,7.2,3.1,10.6c-1.2,1.4-3,1.5-4.6,1.6c-3,0.1-6,0.4-8.9-0.3c-1.6-0.4-3.4-0.8-4.2-2.6
		c-0.3-1.6-0.3-3.3,0-4.9c0-0.7,0-1.3,0-2c0-0.6,0.5-0.7,1-0.7c0.8,0.9,1.8,0.5,2.7,0.4c1.9-0.3,3.8-0.8,5.7-1.4
		c1.2-0.5,2.4-1,3.5-1.7C193,177.1,193.2,177.2,193.3,179z"/>
	<path class="st30" d="M177.5,173.8c-2,0-3.5-1.1-4.1-2.8c-0.3-0.9-0.1-1.3,0.8-1.2c2.2,0.4,4.3,0.3,6.5,0.3c1.1,0,1,0.6,0.6,1.3
		C180.4,173,179,173.6,177.5,173.8z"/>
	<path class="st31" d="M177.6,166.5c0.4,0.2,1-0.5,1.1,0.3c0,0.5-0.5,0.6-1,0.7c-1.2,0.1-2.3-0.1-3-1.2c-0.7-1-0.3-2,0.3-2.7
		c1.2-1.3,2-2.8,2.3-4.6c0.1-0.4,0.1-1,0.7-0.9c0.7,0.2,0.3,0.7,0.2,1.1c-0.3,1.6-0.7,3.2-1.9,4.4c-0.6,0.5-1.2,1.2-0.8,2
		C175.8,166.5,176.6,166.8,177.6,166.5z"/>
	<path class="st32" d="M188.2,180c-2.5,1-5.1,1.6-7.8,1.6c-0.7,0-1.2-0.1-0.7-1c2.5,0.3,4.8-0.8,7.2-1
		C187.3,179.9,187.9,179.5,188.2,180z"/>
	<path class="st33" d="M188.2,180c-0.5,0-1,0.1-1.3-0.3c2.1-0.9,4.3-1.6,5.9-3.3c0.1,0,0.2,0,0.2,0c0.1,0.8,0.5,1.7,0.3,2.5
		c-0.2-1.2-0.8-1.3-1.6-0.6C190.7,179.2,189.4,179.6,188.2,180z"/>
	<path class="st34" d="M186.6,159.6c-1.5,0.4-2.9,0.4-4.3-0.2c0.1-1,0.8-0.6,1.2-0.5c0.6,0.2,1.2,0.3,1.9,0.3c0.4,0,0.7-0.3,1.1-0.3
		C187.2,159,187.1,159.3,186.6,159.6z"/>
	<path class="st35" d="M186.6,159.6c0-1.1-0.7,0.1-1-0.3c-0.1-0.1-0.2-0.2-0.1-0.2c0-0.1,0.1-0.1,0.1-0.1c1.1-0.2,2-0.9,3.3-1
		C188.4,159.1,187.5,159.5,186.6,159.6z"/>
	<path class="st36" d="M185.6,159c0,0.1,0,0.2,0,0.4c-1.1,0.4-2.2-0.8-3.3,0.1c-0.4-0.1-1-0.2-0.8-0.8c0.2-0.6,0.7-0.2,1.1-0.1
		C183.5,158.9,184.5,159,185.6,159z"/>
	<path class="st6" d="M178.7,183.3c0,1.6,0,3.3,0,4.9C178.2,186.5,178.2,184.9,178.7,183.3z"/>
	<path class="st37" d="M174.1,158.1c-2.6,1-4.8,0.5-6.5-1.5c1.1-0.4,1.6,0.9,2.5,0.9c1,0.3,2,0,3,0.1
		C173.5,157.6,174.1,157.3,174.1,158.1z"/>
	<path class="st38" d="M174.1,158.1c-0.7-0.6-1.5-0.2-2.3-0.3c-0.6-0.1-1.2,0.1-1.7-0.3c1.1,0,2.3,0,3.4,0
		C174,157.4,174.7,157.3,174.1,158.1z"/>
	<path class="st6" d="M197.6,340.9c-0.9,1.1-1.9,1.2-2.7,1.6c-1.8,0.9-3.6,1.7-5.3,2.5c-0.7,0.3-1.5,0.8-1.8,0
		c-0.3-0.8-0.6-2,0.4-2.7c0.5-0.4,1.3-0.7,2-0.7C192.4,341.5,194.8,341.4,197.6,340.9z"/>
</g>
<g id="rcUljb.tif">
	<g>
		<path class="st39" d="M0.6,54.3c0-0.7,0-1.5-0.1-2.2c0.8-0.3,1.3,0.3,1.9,0.7c3.4,2.9,7,5.6,10.6,8.1c7.4,5.1,15.3,9.2,23.3,13.3
			c7.6,4,15,8.2,21.1,14.5c5,5.2,8.5,11.4,10.7,18.3c1.3,4,1.7,8.1,3.2,12c0.6,1.8,1.4,3.6,2.2,5.3c0.2,0.5,0.4,1.1,0.8,1.6
			c0.1,0.1,0.2,0.2,0.2,0.4c0.2,0.4,0.4,0.7,0.7,1c0.3,0.4,0.5,0.8,0.8,1.2c0.2,0.3,0.2,0.7,0.1,1.1c0.4,1.4,1.5,2.4,2.5,3.3
			c1.9,1.9,3.4,4.1,5,6.2c1.6,2.2,3.7,4,5.8,5.8c4.6,3.8,9.7,7,14.9,10c7.1,4.1,13.8,8.5,19.4,14.5c3.6,3.8,6.4,8.2,8.7,12.9
			c1.7,3.4,3.3,6.7,5.2,10c0.6,1,1,1.2,2.2,0.8c5.2-1.8,10.4-3.9,15.7-5.5c3.4-1,6.8-2.2,10.3-2.8c1.9-0.4,3.7-1,5.6-0.9
			c1.8,0.1,3.4-0.4,5.1-1.2c-0.9-0.8-2-1-2.8-1.7c-0.5-0.4-1.2-0.7-0.9-1.5c0.6-0.5,1,0.1,1.5,0.3c0.6,0.5,1.4,0.8,2.2,1.1
			c2.2,1,2.4,1.4,1.7,3.2c-2.4,0.3-4.8,0.7-7.2,1c-1.5,0.3-3.1,0.5-4.6,0.9c-8.5,1.9-16.6,4.9-24.8,7.9c-0.9,0.3-1.7,0.6-2.6,1
			c-0.7,0.3-1.2,0.2-1.7-0.3c-2.8-5.4-5.5-10.9-8.5-16.2c-4.3-7.5-10.7-13-17.8-17.7c-6.2-4.1-12.9-7.6-18.9-11.9
			c-4.6-3.3-8.7-7.2-11.9-12c-0.7-1-1.7-1.8-2.5-2.7c-5.4-5.6-8.5-12.5-10-20.1C64.7,99.6,57,89.1,44.8,81.7
			c-6.5-4-13.4-7.3-20.1-11C16.1,66.1,8.1,60.6,0.6,54.3z"/>
		<path class="st40" d="M372.5,58.7c0,0.6,0,1.2,0,1.8c-5.4,1.9-10.3,4.6-15.2,7.5c-7.8,4.7-15,10.1-21.2,16.8
			c-5.3,5.7-9.6,12-11.2,19.8c-0.7,3.5-0.4,7.1-0.7,10.6c-0.4,6.4-1.6,12.7-4.3,18.7c-4.2,9-11.4,14.5-20.6,17.5
			c-4.4,1.5-8.9,2.4-13.5,3.4c-7.8,1.6-14.3,5.7-20.4,10.5c-0.5,0.4-1,0.9-1.5,1.2c-3.8,2.4-5.1,6.3-6.5,10.2
			c-2.2,6-5,11.7-9.9,16.1c-1.5,1.3-3,2.5-4.6,3.6c-3.1,1.8-6.2,3.3-9.8,3.9c-0.5,0.2-1,0.1-1.5,0.1c0-1,0-1,0.9-1.2
			c6.4-1.3,11.8-4.5,16.2-9.3c2.9-3.2,4.9-6.9,6.5-10.9c1.2-3,2.3-6,3.6-8.9c0.5-1,1.1-1.9,2-2.5c0.9-0.7,1.5-1.5,1.8-2.6
			c0.4-0.5,0.8-0.9,1.3-1.3c0.1-0.1,0.2-0.2,0.3-0.3c0.4-0.2,0.7-0.5,1-0.8c0.1-0.1,0.2-0.2,0.3-0.3c0.5-0.3,0.9-0.7,1.3-1.2
			c5.8-3.9,11.8-7.4,18.8-8.8c5.3-1.1,10.6-2.2,15.6-4.2c9.5-3.8,15.7-10.6,18.5-20.4c1.4-4.8,2.4-9.8,2.2-14.8
			c-0.4-9.3,2.7-17.3,8.2-24.6c4.4-5.9,9.7-10.9,15.6-15.3c7.6-5.8,15.8-10.7,24.7-14.3C371,58.6,371.7,58,372.5,58.7z"/>
		<path class="st41" d="M262.9,164.6c0,1.2-0.7,2-1.6,2.6c-2.2,1.5-2.7,4-3.6,6.3c-0.8,2-1.6,3.9-2.4,5.9c-1.3,3.3-3.2,6.3-5.2,9.2
			c-1.4,2-3.3,3.5-5.1,5c-2.3,1.8-4.9,3.1-7.5,4.3c-1.3,0.6-2.7,1.4-4.3,1.3c-0.6,0-1.3-0.1-1.7,0.6c0,0.7-0.5,0.4-0.8,0.5
			c-1.5,0.2-3,0.2-4.5,0.5l-0.1,0l-0.1,0c-1.5,0.2-2.9,0.2-4.4,0l-0.1,0l-0.1,0c-2.4-0.4-4.9-0.4-7.3-1c-6.2-1.4-11.8-3.7-16-8.8
			c-2-2.6-2.9-5.7-3.8-8.7c-0.2-0.7-0.2-1.4-0.2-2.1c-0.6-6.8-0.7-13.7-0.7-20.5c0-4.8-2.4-8.4-5.8-11.6c-1.9-1.8-4.1-3.3-5.6-5.4
			c-0.4-0.6-1.2-0.7-1.7-0.2c-0.6,0.5-1.4,0.9-1.9,1.5c-0.9,1.1-2.3,1.1-3.4,1.7c-0.1,0.1-0.3,0.1-0.4,0.2c-1.5,0.4-2.9,1-4,2.2
			c-1.2,1.1-1.9,2.5-2.2,4.1c0,0.2-0.1,0.3-0.2,0.5c-0.5,2.6-0.4,5.3-0.7,8c-0.6,2.6,0,5.1,0.5,7.6c0.5,1.9,1.5,3.7,2.1,5.6
			c0.3,1.4,1.1,2.5,2,3.6c0.4,0.5,1.1,0.8,0.8,1.6c-0.1,1.3,1.3,1.1,1.8,1.8c0,0.1,0.2,0.1,0.3,0.1c0.8,0.4,2.2,0.6,2.3,1.5
			c0.1,1-1.4,0.3-2,0.8c-1,0.8-2.2,0.7-3.4,0.7c-2.5,0-4.8,0.8-7.3,1.3c-1.9,0.3-3.8,0.8-5.5,1.4c-2.2,0.8-4.5,1.4-6.8,2.1
			c-2.3,0.7-4.6,1.7-6.9,2.5c-2,0.7-4.1,1.1-5.9,2.2c-1,0.6-1.5,0.2-2-0.6c-1.9-3.6-3.8-7.1-5.6-10.8c-1.4-2.9-3.3-5.6-5-8.3
			c-2-3.1-4.7-5.6-7.3-8.1c-2.9-2.8-6.2-4.9-9.6-7.2c-4.3-2.9-8.8-5.3-13.2-8.1c-4.7-3-9.3-6.2-12.8-10.4c-2.8-3.4-5.6-6.8-8.4-10.2
			c-0.2-0.2-0.5-0.5-0.1-0.8c0.1-0.1,0.4,0.1,0.6,0.2c0.1,0,0.1,0,0.2,0c1.1-0.6,0-1-0.1-1.5c-0.1-0.1-0.1-0.3-0.2-0.4
			c-0.1-1.8-0.9-3.5-1.2-5.2c-0.5-2.7-1.5-5.3-1.5-8.1c0-0.6-0.1-1.2-0.5-1.7c-0.2-0.3-0.4-0.7-0.4-1.1c0.1-3.1-1.1-6.1-1.9-9
			c-1.4-4.8-3.2-9.6-6-13.9c-3.3-5.2-7.5-9.6-12-13.6c-4-3.6-8.5-6.5-13-9.5C32.2,60.2,25,55,19.1,48.5c-2.5-2.7-4.6-5.8-6.7-8.8
			C8.9,34.4,6.3,28.8,4,22.9c-1.3-3.5-2-7.1-3.3-10.6c0-3.7,0-7.4-0.1-11.1c0-0.8,0.2-1.1,1-1c0.4,0,0.8,0,1.1,0
			c122.5,0,245.1,0,367.6,0c2.1,0,2.1,0,2.1,2.2c0,2.7,0,5.5,0,8.2c-0.5,4.6-1.6,9.1-2.9,13.6c-3.2,11.4-7.9,22.1-15.4,31.3
			c-5.5,6.7-12.3,11.9-19.5,16.5c-3.2,2-6.4,3.9-9.4,6.2c-4.4,3.3-7.9,7.3-9.8,12.5c-0.2,0.6-0.5,1.1-0.8,1.6
			c-0.5,0.6-0.6,1.2-0.6,2c-1.7,6.4-2.9,13-5,19.3c-2.5,7.5-6.4,14.2-11.7,20.2c-6.8,7.8-15.1,14-23.8,19.5c-2.7,1.7-4.9,3.8-7,6.1
			c-0.5,0.4-0.9,0.7-1.2,1.3c-0.1,0.2-0.3,0.4-0.4,0.5C264.3,162.2,263.4,163.3,262.9,164.6z"/>
		<path class="st42" d="M177.7,144.4c0.5-1.1,1.7-1.4,2.6-2.1c0.6-0.5,1.3-0.3,1.7,0.3c2,2.7,4.8,4.6,7.1,6.9
			c3.2,3.2,4.7,6.9,4.7,11.4c0,3.7,0,7.3,0,11c0.1,3.4,0.5,6.8,0.8,10.2c0.2,2.7,1.4,5.4,2.8,7.8c0.3,0.5,0.7,1,0.6,1.7
			c-0.3-0.3-0.6-0.5-0.9-0.8c-1.4-0.8-1.6-2.3-2.1-3.5c-1-2.5-1.6-5.2-1.7-7.9c0.1-0.9-0.4-1.7-0.3-2.5c0-5.5,0-11-0.1-16.5
			c-0.2-5.5-3.3-9.4-7.3-12.7c-1.3-1-2.5-2.2-3.6-3.4c-0.7-0.8-1.4-1-2.2-0.3C179.1,144.2,178.5,144.8,177.7,144.4z"/>
		<path class="st43" d="M214,200.4c2.4,0.2,4.9,0.2,7.3,1C218.8,201.5,216.3,201.1,214,200.4z"/>
		<path class="st43" d="M226.1,201.3c1.2-0.6,2.5-0.5,3.7-0.7c0.5-0.1,1.1,0.2,1.5-0.3c0.6,0,1.1,0,1.7,0
			C230.8,201.1,228.5,201.5,226.1,201.3z"/>
		<path class="st21" d="M166.2,185.9c1.4-0.8,3-0.9,4.6-0.9C169.4,185.6,167.8,185.8,166.2,185.9z"/>
		<path class="st44" d="M178.3,181.4c0.2,0.9,0.2,1.8,0.1,2.7c-0.1,0-0.2-0.1-0.3-0.1c0.4-1.7-0.7-2.4-2-2.9
			c0.1-0.1,0.1-0.1,0.2-0.2C177,180.6,177.7,180.8,178.3,181.4z"/>
		<path class="st43" d="M221.5,201.3c1.5,0,2.9,0,4.4,0C224.4,201.7,223,201.7,221.5,201.3z"/>
		<path class="st39" d="M71.3,108.3C69,95,62.6,84,52.2,75.3c-5.9-4.9-12.4-8.9-18.6-13.3C23.4,54.8,14.8,46.2,8.8,35.2
			c-3.1-5.8-5.6-11.8-7.3-18.1c-0.2-0.7-0.4-1.3-0.6-2c-0.1-0.4-0.2-0.7-0.3-1.1c0-0.4,0-0.8,0-1.2c0.5,0.3,0.8,0.7,0.9,1.3
			c0.6,2.6,1,5.3,2.1,7.7c1.2,2.5,2,5.2,3.1,7.8c1.3,2.7,2.7,5.4,4.1,8c1,2,2.5,3.8,3.9,5.6c2.5,3.3,5.1,6.6,8.2,9.4
			c4.6,4,9.3,7.8,14.4,11.1c4.7,3.1,9.5,6.1,13.8,9.8c3.9,3.4,7.8,7,10.9,11.2c2.4,3.3,4.5,6.8,6.1,10.6c1.4,3.2,2.4,6.5,3.2,9.9
			c0.5,2,1,4.1,1.4,6.1c0.4,2.2,0.5,4.5,1.3,6.7c0.7,2.1,1,4.4,1.4,6.6c0.2,1.2,1,2.3,0.6,3.6c-0.2,0.1-0.3,0-0.5-0.1
			c-0.4-0.4-0.5-0.8-0.5-1.3c0.1-1-0.5-1.8-0.8-2.7c-0.4-0.8-0.2-1.7-0.5-2.6c-0.6-2.9-1.1-5.9-1.7-8.8
			C71.8,111.2,71.6,109.7,71.3,108.3z"/>
		<path class="st44" d="M172.8,179.4c-1.2-1.6-3-2.8-3.2-5c0.1,0,0.3,0,0.3,0.1c1.4,1.8,3.1,3.5,4.3,5.5c0,0.1-0.1,0.1-0.1,0.2
			C173.5,180.1,173.2,179.6,172.8,179.4z"/>
		<path class="st44" d="M176,181.1c-0.8-0.1-1.5-0.3-1.9-1c0,0,0.1-0.1,0.1-0.1c0.9-0.2,1.6,0.1,1.9,1L176,181.1z"/>
		<path class="st39" d="M75.9,129.6c1.2-0.3,0-1.1,0.3-1.6c0.7,0.4,1.3,0.9,0.7,1.8C76.5,130.5,76.1,130.5,75.9,129.6z"/>
		<path class="st45" d="M314.2,92.7c0.1,0.7-0.2,1.4-0.6,2C313.5,93.9,313.6,93.2,314.2,92.7z"/>
		<path class="st46" d="M71.3,108.3c0.6,1.4,0.8,2.8,0.9,4.3C71.5,111.3,71.3,109.8,71.3,108.3z"/>
		<path class="st47" d="M1,15.1c0.6,0.6,0.7,1.3,0.6,2C1.1,16.5,0.9,15.8,1,15.1z"/>
	</g>
</g>
</svg>
