<svg width="50" height="50" viewBox="0 0 50 50" fill="none" xmlns="http://www.w3.org/2000/svg">
<g clip-path="url(#clip0_2006_845)">
<path d="M33.3165 40.1013C29.3721 42.4045 25.6515 44.7952 21.9871 44.7309C18.2916 44.6802 14.6609 42.1523 11.7277 39.226C8.7634 36.3133 6.52764 32.9887 5.56537 29.3102C4.59436 25.6541 4.89685 21.6442 6.21921 17.9295C7.53283 14.2372 9.86632 10.8402 13.0829 8.48477C16.3131 6.16052 20.4127 4.84678 24.3555 5.12303C28.3119 5.43041 32.1514 7.29176 35.6128 9.85679C39.0965 12.4306 42.2109 15.6857 43.8097 19.716C45.4309 23.7552 45.5278 28.592 43.4853 32.1027C41.4428 35.6134 37.2521 37.8204 33.3165 40.1013Z" fill="#E54925"/>
<path fill-rule="evenodd" clip-rule="evenodd" d="M18.9772 17.4677C17.9999 17.4677 17.207 18.2591 17.207 19.2369C17.207 20.2148 17.9999 21.0081 18.9772 21.0081C19.9545 21.0081 20.7474 20.2148 20.7474 19.2369C20.7474 18.2591 19.9545 17.4677 18.9772 17.4677ZM29.1539 17.4677C28.1765 17.4677 27.3837 18.2591 27.3837 19.2369C27.3837 20.2148 28.1765 21.0081 29.1539 21.0081C30.1317 21.0081 30.9231 20.2148 30.9231 19.2369C30.9231 18.2591 30.1317 17.4677 29.1539 17.4677ZM22.9839 26.029C19.871 26.029 17.3381 28.59 17.3381 31.7384C17.3381 32.1415 17.6648 32.4677 18.0674 32.4677C18.47 32.4677 18.7968 32.1415 18.7968 31.7384C18.7968 29.3943 20.6752 27.4877 22.9839 27.4877H25.4416C27.7502 27.4877 29.6287 29.3809 29.6287 31.707C29.6287 32.1101 29.9554 32.4373 30.358 32.4373C30.7611 32.4373 31.0874 32.1101 31.0874 31.707C31.0874 28.5762 28.5544 26.029 25.4416 26.029H22.9839Z" fill="#32264C" fill-opacity="0.8"/>
</g>
<defs>
<clipPath id="clip0_2006_845">
<rect width="50" height="50" fill="white"/>
</clipPath>
</defs>
</svg>
