<svg width="50" height="50" viewBox="0 0 50 50" fill="none" xmlns="http://www.w3.org/2000/svg">
<g clip-path="url(#clip0_2006_873)">
<path d="M33.3165 40.1013C29.3721 42.4045 25.6515 44.7952 21.9871 44.7309C18.2916 44.6802 14.6609 42.1523 11.7277 39.226C8.7634 36.3133 6.52764 32.9887 5.56537 29.3102C4.59436 25.6541 4.89685 21.6442 6.21921 17.9295C7.53283 14.2372 9.86632 10.8402 13.0829 8.48477C16.3131 6.16052 20.4127 4.84678 24.3555 5.12303C28.3119 5.43041 32.1514 7.29176 35.6128 9.85679C39.0965 12.4306 42.2109 15.6857 43.8097 19.716C45.4309 23.7552 45.5278 28.592 43.4853 32.1027C41.4428 35.6134 37.2521 37.8204 33.3165 40.1013Z" fill="#528A4F"/>
<path d="M19.0963 18.3153C18.6438 18.3153 18.3581 18.5673 18.1923 18.7951C18.0265 18.5673 17.7409 18.3153 17.2882 18.3153C16.5176 18.3153 16 19.132 16 19.8947C16 21.0051 17.8643 22.4932 18.0768 22.6592C18.1116 22.6864 18.152 22.6999 18.1923 22.6999C18.2327 22.6999 18.273 22.6863 18.3078 22.6592C18.5204 22.4932 20.3846 21.0051 20.3846 19.8947C20.3846 19.132 19.8669 18.3153 19.0963 18.3153Z" fill="#32264C" fill-opacity="0.8"/>
<path d="M30.7887 18.3153C30.3362 18.3153 30.0505 18.5673 29.8847 18.7951C29.7189 18.5673 29.4333 18.3153 28.9806 18.3153C28.21 18.3153 27.6924 19.132 27.6924 19.8947C27.6924 21.0051 29.5566 22.4932 29.7692 22.6592C29.804 22.6864 29.8444 22.6999 29.8847 22.6999C29.925 22.6999 29.9654 22.6863 30.0002 22.6592C30.2127 22.4932 32.077 21.0051 32.077 19.8947C32.077 19.132 31.5593 18.3153 30.7887 18.3153Z" fill="#32264C" fill-opacity="0.8"/>
<path d="M18 27.3153C18 27.3153 17.6497 34.3153 24.1497 34.3153C30.6497 34.3153 30 27.3153 30 27.3153" stroke="#32264C" stroke-opacity="0.8" stroke-width="1.42" stroke-linecap="round"/>
</g>
<defs>
<clipPath id="clip0_2006_873">
<rect width="50" height="50" fill="white"/>
</clipPath>
</defs>
</svg>
