<svg width="50" height="50" viewBox="0 0 50 50" fill="none" xmlns="http://www.w3.org/2000/svg">
<g clip-path="url(#clip0_2006_859)">
<path d="M42.9364 12.2936C50.2072 21.4747 40.3156 43.8998 28.0748 45.8728C15.817 47.8875 1.30929 29.4419 6.25506 18.2293C11.2421 7.03357 35.6825 3.07081 42.9364 12.2936Z" fill="#F1D669"/>
<path fill-rule="evenodd" clip-rule="evenodd" d="M18.9716 18C17.883 18 17 18.8835 17 19.9727C17 21.0625 17.883 21.9454 18.9716 21.9454C20.0614 21.9454 20.9444 21.0625 20.9444 19.9727C20.9444 18.8835 20.0614 18 18.9716 18ZM30.3108 18C29.2221 18 28.3381 18.8835 28.3381 19.9727C28.3381 21.0625 29.2221 21.9454 30.3108 21.9454C31.4 21.9454 32.2824 21.0625 32.2824 19.9727C32.2824 18.8835 31.4 18 30.3108 18ZM22.4671 27.8937C19.7334 27.8513 17.6303 29.8778 17.5423 29.9652C17.2185 30.2847 17.2154 30.8038 17.5337 31.1282C17.8521 31.4526 18.3739 31.4584 18.6989 31.14C18.7159 31.1235 20.418 29.4805 22.4414 29.5432C23.5427 29.5707 24.5757 30.0988 25.5137 31.1121C26.6744 32.3663 27.921 33 29.2219 33C29.3434 33 29.4644 32.9938 29.587 32.9828C32.1134 32.7546 33.774 30.1863 33.8439 30.0769C34.0874 29.6937 33.9753 29.1859 33.5926 28.9407C33.2093 28.6949 32.7 28.8072 32.4543 29.1899C32.4411 29.2102 31.1484 31.1902 29.4323 31.3408C28.5438 31.4167 27.6263 30.9653 26.724 29.991C25.4682 28.634 24.0352 27.9283 22.4671 27.8937Z" fill="#32264C" fill-opacity="0.8"/>
</g>
<defs>
<clipPath id="clip0_2006_859">
<rect width="50" height="50" fill="white"/>
</clipPath>
</defs>
</svg>
