<svg width="50" height="50" viewBox="0 0 50 50" fill="none" xmlns="http://www.w3.org/2000/svg">
<path d="M37.2945 9.90905C42.2527 13.6903 45.6402 19.5917 45.6818 25.473C45.7532 31.3725 42.4787 37.252 37.7235 40.9446C32.9384 44.6191 26.6666 46.0828 20.6697 45.0305C14.6909 43.9482 8.98701 40.35 6.3654 35.1788C3.77374 30.0257 4.2585 23.2755 6.92533 17.6217C9.58626 11.9439 14.4533 7.35664 20.1423 5.90862C25.8254 4.43654 32.3603 6.12185 37.2945 9.90905Z" fill="#E54925"/>
<path fill-rule="evenodd" clip-rule="evenodd" d="M17.9461 18.3525C17.6972 18.374 17.4628 18.5147 17.3318 18.7483C17.1226 19.1225 17.2586 19.595 17.6339 19.8033L20.0416 21.1391L17.6582 22.1073C17.2606 22.2691 17.069 22.7215 17.2314 23.118C17.3544 23.4188 17.6459 23.6006 17.9532 23.6006C18.0508 23.6006 18.1502 23.5828 18.2462 23.544L22.1319 21.966C22.4096 21.8533 22.5968 21.5913 22.6145 21.2935C22.6326 20.9958 22.4782 20.7144 22.2171 20.5696L18.3912 18.4484C18.2506 18.3701 18.0955 18.3396 17.9461 18.3525ZM32.6598 18.3525C32.5104 18.3397 32.3561 18.3703 32.2158 18.4484L28.3899 20.5696C28.1392 20.7087 27.9858 20.9744 27.9904 21.2602C27.9946 21.5461 28.1573 21.8054 28.4122 21.9367L32.2381 23.8974C32.3523 23.9558 32.4735 23.9842 32.5939 23.9842C32.8763 23.9842 33.1487 23.8299 33.2873 23.5632C33.484 23.1822 33.3328 22.7142 32.9508 22.5182L30.4184 21.2209L32.9731 19.8033C33.3488 19.595 33.4838 19.1225 33.2741 18.7483C33.1431 18.514 32.9087 18.3738 32.6598 18.3525ZM21.2743 30.0976C21.0997 30.0993 20.9256 30.1594 20.7836 30.2773L18.7348 31.9775C18.4047 32.252 18.3594 32.7417 18.6345 33.071C18.7886 33.255 19.0109 33.3496 19.2336 33.3496C19.409 33.3496 19.586 33.2909 19.7313 33.1699L21.2915 31.8745L22.9298 33.18C23.2241 33.4136 23.6439 33.4048 23.9273 33.1588L25.379 31.9008L26.8317 33.1588C27.1115 33.4012 27.5243 33.4139 27.8181 33.1891L29.5212 31.8836L30.9172 33.1477C31.2353 33.4356 31.7275 33.4131 32.0171 33.0962C32.3062 32.7788 32.2825 32.2877 31.9644 31.9997L30.0869 30.2995C29.8076 30.0467 29.3873 30.0296 29.0883 30.2581L27.3731 31.5727L25.8909 30.2884C25.5977 30.0341 25.1618 30.0341 24.8691 30.2884L23.3951 31.5636L21.768 30.2672C21.6242 30.1522 21.4489 30.0958 21.2743 30.0976Z" fill="#32264C" fill-opacity="0.8"/>
</svg>
