<svg width="50" height="50" viewBox="0 0 50 50" fill="none" xmlns="http://www.w3.org/2000/svg">
<path d="M37.2945 9.90905C42.2527 13.6903 45.6402 19.5917 45.6818 25.473C45.7532 31.3725 42.4787 37.252 37.7235 40.9446C32.9384 44.6191 26.6666 46.0828 20.6697 45.0305C14.6909 43.9482 8.98701 40.35 6.3654 35.1788C3.77374 30.0257 4.2585 23.2755 6.92533 17.6217C9.58626 11.9439 14.4533 7.35664 20.1423 5.90862C25.8254 4.43654 32.3603 6.12185 37.2945 9.90905Z" fill="#F1D669"/>
<path fill-rule="evenodd" clip-rule="evenodd" d="M19.784 17.8536C18.799 17.8536 18 18.6512 18 19.6366C18 20.622 18.799 21.4215 19.784 21.4215C20.7689 21.4215 21.5679 20.622 21.5679 19.6366C21.5679 18.6512 20.7689 17.8536 19.784 17.8536ZM30.0398 17.8536C29.0549 17.8536 28.2559 18.6512 28.2559 19.6366C28.2559 20.622 29.0549 21.4215 30.0398 21.4215C31.0252 21.4215 31.8228 20.622 31.8228 19.6366C31.8228 18.6512 31.0252 17.8536 30.0398 17.8536ZM18.8671 26.4958C18.4614 26.4958 18.1321 26.8246 18.1321 27.2308C18.1321 30.3312 20.6847 32.8536 23.8218 32.8536H26.2987C29.4892 32.8536 31.9884 30.4138 31.9884 27.2998C31.9884 26.8935 31.6596 26.5647 31.2534 26.5647C30.8476 26.5647 30.5183 26.8935 30.5183 27.2998C30.5183 29.5896 28.6649 31.3835 26.2987 31.3835H23.8218C21.4555 31.3835 19.6021 29.5589 19.6021 27.2308C19.6021 26.8246 19.2728 26.4958 18.8671 26.4958Z" fill="#32264C" fill-opacity="0.8"/>
</svg>
