<svg width="50" height="50" viewBox="0 0 50 50" fill="none" xmlns="http://www.w3.org/2000/svg">
<path d="M35.9256 8.42893C39.3764 10.7449 42.1555 14.1957 43.7304 18.2254C45.2821 22.2552 45.6295 26.8639 44.2862 30.8937C42.943 34.9003 39.8859 38.3511 36.2498 40.8755C32.6138 43.423 28.3988 45.0674 24.23 44.9979C20.0613 44.9516 15.9157 43.1914 12.5345 40.5744C9.17632 37.9574 6.53613 34.4603 5.14655 30.5C3.75698 26.5165 3.5717 22.0931 4.91496 18.1791C6.25821 14.2883 9.13 10.9302 12.5808 8.6142C16.0547 6.32141 20.1076 5.04763 24.2069 5.00131C28.3293 4.95499 32.4517 6.13613 35.9256 8.42893Z" fill="#528A4F"/>
<path d="M21.3287 20.9975C21.0891 20.9957 20.8681 20.8549 20.7483 20.627C20.5236 20.1621 20.152 19.8028 19.7031 19.6168C19.2542 19.4308 18.759 19.4308 18.3101 19.6168C17.8612 19.8027 17.4895 20.1621 17.2649 20.627C17.0784 20.9828 16.6643 21.1056 16.34 20.901C16.0156 20.6967 15.9037 20.2424 16.0902 19.8866C16.4743 19.1211 17.0963 18.5327 17.8427 18.2284C18.5893 17.9239 19.4105 17.9239 20.1571 18.2284C20.9034 18.5327 21.5254 19.1211 21.9095 19.8866C22.0298 20.115 22.0302 20.3964 21.9106 20.6251C21.7908 20.8539 21.5693 20.9958 21.3288 20.9975L21.3287 20.9975Z" fill="#32264C" fill-opacity="0.8"/>
<path d="M33.329 20.9975C33.0891 20.9957 32.8681 20.8549 32.7483 20.627C32.5236 20.1621 32.152 19.8028 31.7031 19.6168C31.2542 19.4308 30.759 19.4308 30.3101 19.6168C29.8612 19.8027 29.4895 20.1621 29.2649 20.627C29.0784 20.9828 28.6643 21.1056 28.34 20.901C28.0156 20.6967 27.9037 20.2424 28.0902 19.8866C28.4743 19.1211 29.0963 18.5327 29.8427 18.2284C30.5893 17.9239 31.4105 17.9239 32.1571 18.2284C32.9034 18.5327 33.5254 19.1211 33.9095 19.8866C34.0298 20.115 34.0302 20.3964 33.9106 20.6251C33.7908 20.8539 33.5693 20.9958 33.329 20.9975L33.329 20.9975Z" fill="#32264C" fill-opacity="0.8"/>
<path d="M25.1529 34C18.6529 34 19.0033 27 19.0033 27H31.0033C31.0033 27 31.6529 34 25.1529 34Z" stroke="#32264C" stroke-opacity="0.8" stroke-width="1.42" stroke-linecap="round" stroke-linejoin="round"/>
</svg>
