<svg width="50" height="50" viewBox="0 0 50 50" fill="none" xmlns="http://www.w3.org/2000/svg">
<path d="M35.0357 11.6818C38.6164 14.5176 42.1971 17.113 43.4708 20.5495C44.7685 24.0101 43.7352 28.3118 42.077 32.1088C40.4428 35.9298 38.1598 39.2222 35.0837 41.4571C32.0317 43.6921 28.1866 44.8696 24.2454 44.9898C20.3283 45.1099 16.315 44.1727 12.9505 42.0339C9.61011 39.871 6.89452 36.5306 5.71697 32.7576C4.56345 28.9606 4.89989 24.707 6.02938 20.5495C7.15887 16.368 9.05738 12.2826 12.2296 9.3267C15.4018 6.34677 19.8717 4.49632 23.885 5.12115C27.8983 5.74597 31.479 8.84607 35.0357 11.6818Z" fill="#F1D669"/>
<path fill-rule="evenodd" clip-rule="evenodd" d="M18.784 19.8477C17.799 19.8477 17 20.6452 17 21.6307C17 22.6161 17.799 23.4156 18.784 23.4156C19.7689 23.4156 20.5679 22.6161 20.5679 21.6307C20.5679 20.6452 19.7689 19.8477 18.784 19.8477ZM29.0398 19.8477C28.0549 19.8477 27.2559 20.6452 27.2559 21.6307C27.2559 22.6161 28.0549 23.4156 29.0398 23.4156C30.0252 23.4156 30.8228 22.6161 30.8228 21.6307C30.8228 20.6452 30.0252 19.8477 29.0398 19.8477Z" fill="#32264C" fill-opacity="0.8"/>
<line x1="18.71" y1="30.9973" x2="30.29" y2="30.9973" stroke="#32264C" stroke-opacity="0.8" stroke-width="1.42" stroke-linecap="round"/>
</svg>
