<svg width="50" height="50" viewBox="0 0 50 50" fill="none" xmlns="http://www.w3.org/2000/svg">
<path d="M35.9256 8.42893C39.3764 10.7449 42.1555 14.1957 43.7304 18.2254C45.2821 22.2552 45.6295 26.8639 44.2862 30.8937C42.943 34.9003 39.8859 38.3511 36.2498 40.8755C32.6138 43.423 28.3988 45.0674 24.23 44.9979C20.0613 44.9516 15.9157 43.1914 12.5345 40.5744C9.17632 37.9574 6.53613 34.4603 5.14655 30.5C3.75698 26.5165 3.5717 22.0931 4.91496 18.1791C6.25821 14.2883 9.13 10.9302 12.5808 8.6142C16.0547 6.32141 20.1076 5.04763 24.2069 5.00131C28.3293 4.95499 32.4517 6.13613 35.9256 8.42893Z" fill="#F1D669"/>
<path fill-rule="evenodd" clip-rule="evenodd" d="M19.0231 16.8477C17.9061 16.8477 17 17.7521 17 18.8696C17 19.9871 17.9061 20.8938 19.0231 20.8938C20.14 20.8938 21.0461 19.9871 21.0461 18.8696C21.0461 17.7521 20.14 16.8477 19.0231 16.8477ZM30.6535 16.8477C29.5365 16.8477 28.6304 17.7521 28.6304 18.8696C28.6304 19.9871 29.5365 20.8938 30.6535 20.8938C31.771 20.8938 32.6754 19.9871 32.6754 18.8696C32.6754 17.7521 31.771 16.8477 30.6535 16.8477Z" fill="#32264C" fill-opacity="0.8"/>
<circle cx="24.2321" cy="30.3477" r="3.79" stroke="#32264C" stroke-opacity="0.8" stroke-width="1.42"/>
</svg>
