<svg width="50" height="50" viewBox="0 0 50 50" fill="none" xmlns="http://www.w3.org/2000/svg">
<path d="M35.0357 11.6818C38.6164 14.5176 42.1971 17.113 43.4708 20.5495C44.7685 24.0101 43.7352 28.3118 42.077 32.1088C40.4428 35.9298 38.1598 39.2222 35.0837 41.4571C32.0317 43.6921 28.1866 44.8696 24.2454 44.9898C20.3283 45.1099 16.315 44.1727 12.9505 42.0339C9.61011 39.871 6.89452 36.5306 5.71697 32.7576C4.56345 28.9606 4.89989 24.707 6.02938 20.5495C7.15887 16.368 9.05738 12.2826 12.2296 9.3267C15.4018 6.34677 19.8717 4.49632 23.885 5.12115C27.8983 5.74597 31.479 8.84607 35.0357 11.6818Z" fill="#E54925"/>
<path d="M17 18.7692C17 17.7914 17.7929 17 18.7702 17C19.7475 17 20.5404 17.7914 20.5404 18.7692C20.5404 19.747 19.7475 20.5404 18.7702 20.5404C17.7929 20.5404 17 19.747 17 18.7692Z" fill="#32264C" fill-opacity="0.8"/>
<path d="M27.1766 18.7692C27.1766 17.7914 27.9695 17 28.9468 17C29.9246 17 30.7161 17.7914 30.7161 18.7692C30.7161 19.747 29.9246 20.5404 28.9468 20.5404C27.9695 20.5404 27.1766 19.747 27.1766 18.7692Z" fill="#32264C" fill-opacity="0.8"/>
<path fill-rule="evenodd" clip-rule="evenodd" d="M17.1311 31.2707C17.1311 28.1223 19.664 25.5613 22.7768 25.5613H25.2346C28.3474 25.5613 30.8803 28.1085 30.8803 31.2393C30.8803 31.6424 30.5541 31.9696 30.151 31.9696C30.0992 31.9696 30.0487 31.9642 30 31.9539V32H18V31.9867C17.9548 31.9954 17.9081 32 17.8604 32C17.4578 32 17.1311 31.6737 17.1311 31.2707ZM18.645 30.58H29.3706C29.0555 28.5658 27.3206 27.0199 25.2346 27.0199H22.7768C20.6998 27.0199 18.9709 28.5633 18.645 30.58Z" fill="#32264C" fill-opacity="0.8"/>
</svg>
