<svg width="50" height="50" viewBox="0 0 50 50" fill="none" xmlns="http://www.w3.org/2000/svg">
<path d="M35.0357 11.6818C38.6164 14.5176 42.1971 17.113 43.4708 20.5495C44.7685 24.0101 43.7352 28.3118 42.077 32.1088C40.4428 35.9298 38.1598 39.2222 35.0837 41.4571C32.0317 43.6921 28.1866 44.8696 24.2454 44.9898C20.3283 45.1099 16.315 44.1727 12.9505 42.0339C9.61011 39.871 6.89452 36.5306 5.71697 32.7576C4.56345 28.9606 4.89989 24.707 6.02938 20.5495C7.15887 16.368 9.05738 12.2826 12.2296 9.3267C15.4018 6.34677 19.8717 4.49632 23.885 5.12115C27.8983 5.74597 31.479 8.84607 35.0357 11.6818Z" fill="#528A4F"/>
<path fill-rule="evenodd" clip-rule="evenodd" d="M15.9461 18.1551C15.6972 18.1766 15.4628 18.3173 15.3318 18.5509C15.1226 18.9251 15.2586 19.3976 15.6339 19.6059L18.0416 20.9417L15.6582 21.9099C15.2606 22.0717 15.069 22.5241 15.2314 22.9206C15.3544 23.2214 15.6459 23.4032 15.9532 23.4032C16.0508 23.4032 16.1502 23.3854 16.2462 23.3466L20.1319 21.7686C20.4096 21.6559 20.5968 21.3939 20.6145 21.0962C20.6326 20.7984 20.4782 20.517 20.2171 20.3723L16.3912 18.251C16.2506 18.1727 16.0955 18.1422 15.9461 18.1551ZM30.6598 18.1551C30.5104 18.1423 30.3561 18.1729 30.2158 18.251L26.3899 20.3723C26.1392 20.5113 25.9858 20.777 25.9904 21.0628C25.9946 21.3487 26.1573 21.608 26.4122 21.7393L30.2381 23.7C30.3523 23.7584 30.4735 23.7868 30.5939 23.7868C30.8763 23.7868 31.1487 23.6326 31.2873 23.3658C31.484 22.9848 31.3328 22.5168 30.9508 22.3208L28.4184 21.0235L30.9731 19.6059C31.3488 19.3976 31.4838 18.9251 31.2741 18.5509C31.1431 18.3166 30.9087 18.1764 30.6598 18.1551Z" fill="#32264C" fill-opacity="0.8"/>
<path fill-rule="evenodd" clip-rule="evenodd" d="M16.3555 27.6532C15.9719 27.6532 15.6606 27.964 15.6606 28.3481C15.6606 31.5416 18.4766 34.1403 21.9361 34.1403H24.7263C28.1862 34.1403 31.0017 31.5416 31.0017 28.3481C31.0017 27.964 30.6904 27.6532 30.3069 27.6532H16.3555ZM17.111 29.0429H29.5514C29.1804 31.1409 27.1579 32.7506 24.7263 32.7506H21.9361C19.5045 32.7506 17.482 31.1409 17.111 29.0429Z" fill="#32264C" fill-opacity="0.8"/>
</svg>
