<svg width="50" height="50" viewBox="0 0 50 50" fill="none" xmlns="http://www.w3.org/2000/svg">
<circle cx="25" cy="25" r="25" fill="#F0ECE4"/>
<path fill-rule="evenodd" clip-rule="evenodd" d="M15.9252 14.9122C14.3972 14.9122 13.158 16.1523 13.158 17.681C13.158 19.2105 14.3972 20.4497 15.9252 20.4497C17.4547 20.4497 18.6939 19.2105 18.6939 17.681C18.6939 16.1523 17.4547 14.9122 15.9252 14.9122ZM31.8398 14.9122C30.3118 14.9122 29.071 16.1523 29.071 17.681C29.071 19.2105 30.3118 20.4497 31.8398 20.4497C33.3685 20.4497 34.607 19.2105 34.607 17.681C34.607 16.1523 33.3685 14.9122 31.8398 14.9122ZM20.8311 28.7981C16.9943 28.7387 14.0426 31.5828 13.9191 31.7055C13.4646 32.1539 13.4602 32.8825 13.907 33.3378C14.3538 33.7931 15.0863 33.8012 15.5424 33.3544C15.5663 33.3312 17.9551 31.0252 20.795 31.1132C22.3407 31.1518 23.7906 31.893 25.1071 33.3152C26.7361 35.0754 28.4856 35.9649 30.3115 35.9649C30.482 35.9649 30.6518 35.9562 30.8239 35.9407C34.3698 35.6205 36.7005 32.0158 36.7985 31.8623C37.1403 31.3244 36.9829 30.6118 36.4458 30.2676C35.9079 29.9227 35.1931 30.0802 34.8481 30.6173C34.8296 30.6459 33.0153 33.4248 30.6069 33.6362C29.3598 33.7427 28.072 33.1091 26.8057 31.7417C25.0432 29.8371 23.032 28.8467 20.8311 28.7981Z" fill="#32264C" fill-opacity="0.6"/>
</svg>
