<svg width="15" height="16" viewBox="0 0 15 16" fill="none" xmlns="http://www.w3.org/2000/svg">
<circle cx="7.28942" cy="7.95824" r="7.28942" fill="#FFD9D3"/>
<path fill-rule="evenodd" clip-rule="evenodd" d="M5.07207 5.01685C4.67212 5.01685 4.34766 5.34072 4.34766 5.74087C4.34766 6.14102 4.67212 6.46567 5.07207 6.46567C5.47202 6.46567 5.79648 6.14102 5.79648 5.74087C5.79648 5.34072 5.47202 5.01685 5.07207 5.01685ZM9.23666 5.01685C8.83671 5.01685 8.51225 5.34072 8.51225 5.74087C8.51225 6.14102 8.83671 6.46567 9.23666 6.46567C9.63681 6.46567 9.96068 6.14102 9.96068 5.74087C9.96068 5.34072 9.63681 5.01685 9.23666 5.01685ZM6.71171 8.52037C5.43784 8.52037 4.40129 9.56844 4.40129 10.8568C4.40129 11.0218 4.535 11.1553 4.69976 11.1553C4.86451 11.1553 4.99823 11.0218 4.99823 10.8568C4.99823 9.89755 5.76695 9.11731 6.71171 9.11731H7.71749C8.66225 9.11731 9.43098 9.89209 9.43098 10.844C9.43098 11.009 9.56469 11.1429 9.72945 11.1429C9.8944 11.1429 10.0279 11.009 10.0279 10.844C10.0279 9.56278 8.99136 8.52037 7.71749 8.52037H6.71171Z" fill="#32264C" fill-opacity="0.6"/>
</svg>
