<svg width="50" height="50" viewBox="0 0 50 50" fill="none" xmlns="http://www.w3.org/2000/svg">
<circle cx="25" cy="25" r="25" fill="#F0ECE4"/>
<path fill-rule="evenodd" clip-rule="evenodd" d="M17.4159 14.9122C16.0336 14.9122 14.9121 16.0316 14.9121 17.4147C14.9121 18.7977 16.0336 19.9198 17.4159 19.9198C18.7983 19.9198 19.9197 18.7977 19.9197 17.4147C19.9197 16.0316 18.7983 14.9122 17.4159 14.9122ZM31.8101 14.9122C30.4277 14.9122 29.3063 16.0316 29.3063 17.4147C29.3063 18.7977 30.4277 19.9198 31.8101 19.9198C33.1931 19.9198 34.3125 18.7977 34.3125 17.4147C34.3125 16.0316 33.1931 14.9122 31.8101 14.9122ZM16.1291 27.0417C15.5596 27.0417 15.0975 27.5032 15.0975 28.0733C15.0975 32.4246 18.6801 35.9649 23.083 35.9649H26.5594C31.0372 35.9649 34.5449 32.5406 34.5449 28.17C34.5449 27.5999 34.0835 27.1384 33.5133 27.1384C32.9439 27.1384 32.4817 27.5999 32.4817 28.17C32.4817 31.3838 29.8805 33.9016 26.5594 33.9016H23.083C19.762 33.9016 17.1607 31.3408 17.1607 28.0733C17.1607 27.5032 16.6985 27.0417 16.1291 27.0417Z" fill="#32264C" fill-opacity="0.6"/>
</svg>
