<svg width="15" height="16" viewBox="0 0 15 16" fill="none" xmlns="http://www.w3.org/2000/svg">
<circle cx="7.28942" cy="7.95824" r="7.28942" fill="#FFC7BD"/>
<path fill-rule="evenodd" clip-rule="evenodd" d="M4.64377 5.01685C4.19826 5.01685 3.83691 5.37841 3.83691 5.82414C3.83691 6.27011 4.19826 6.63144 4.64377 6.63144C5.08974 6.63144 5.45107 6.27011 5.45107 5.82414C5.45107 5.37841 5.08974 5.01685 4.64377 5.01685ZM9.28409 5.01685C8.83858 5.01685 8.47679 5.37841 8.47679 5.82414C8.47679 6.27011 8.83858 6.63144 9.28409 6.63144C9.72983 6.63144 10.091 6.27011 10.091 5.82414C10.091 5.37841 9.72983 5.01685 9.28409 5.01685ZM6.07423 9.06564C4.9555 9.04832 4.09485 9.8776 4.05884 9.91337C3.92632 10.0441 3.92505 10.2566 4.05533 10.3893C4.18561 10.5221 4.39917 10.5244 4.53215 10.3942C4.53912 10.3874 5.23566 9.71501 6.06369 9.74066C6.51438 9.75191 6.93714 9.96804 7.321 10.3827C7.79599 10.896 8.30611 11.1553 8.83848 11.1553C8.8882 11.1553 8.93772 11.1528 8.98789 11.1483C10.0218 11.0549 10.7014 10.0039 10.7299 9.95908C10.8296 9.80225 10.7837 9.59448 10.6271 9.49412C10.4703 9.39355 10.2618 9.43948 10.1613 9.59608C10.1559 9.60441 9.62686 10.4147 8.92461 10.4763C8.561 10.5074 8.18551 10.3226 7.81628 9.92392C7.30236 9.36861 6.71595 9.07982 6.07423 9.06564Z" fill="#32264C" fill-opacity="0.6"/>
</svg>
