<svg width="15" height="15" viewBox="0 0 15 15" fill="none" xmlns="http://www.w3.org/2000/svg">
<circle cx="7.28942" cy="7.37511" r="7.28942" fill="#FFECE9"/>
<path fill-rule="evenodd" clip-rule="evenodd" d="M4.15177 4.43489C4.05032 4.44371 3.9548 4.50126 3.90139 4.59685C3.81614 4.75001 3.87157 4.94337 4.02451 5.02862L5.0058 5.57525L4.03443 5.97148C3.87239 6.0377 3.79427 6.22282 3.86048 6.38507C3.91062 6.50819 4.02943 6.58257 4.15466 6.58257C4.19443 6.58257 4.23493 6.5753 4.27407 6.55943L5.85777 5.91364C5.97094 5.86752 6.04724 5.76032 6.05444 5.63847C6.06184 5.51662 5.99888 5.40145 5.89247 5.34222L4.33315 4.47414C4.27588 4.44209 4.21264 4.4296 4.15177 4.43489ZM10.1486 4.43489C10.0877 4.42966 10.0248 4.44217 9.96761 4.47414L8.40829 5.34222C8.30611 5.39913 8.24359 5.50785 8.2455 5.62483C8.24719 5.74182 8.31351 5.84792 8.41738 5.90166L9.9767 6.70404C10.0232 6.72795 10.0726 6.73957 10.1217 6.73957C10.2368 6.73957 10.3478 6.67644 10.4043 6.56728C10.4845 6.41137 10.4229 6.21982 10.2672 6.13965L9.23505 5.60872L10.2762 5.02862C10.4294 4.94337 10.4844 4.75001 10.399 4.59685C10.3455 4.501 10.25 4.44361 10.1486 4.43489ZM5.50822 9.24134C5.43706 9.24206 5.3661 9.26665 5.30824 9.31489L4.47322 10.0107C4.33868 10.123 4.3202 10.3234 4.43232 10.4581C4.49515 10.5334 4.58575 10.5722 4.6765 10.5722C4.748 10.5722 4.82014 10.5481 4.87937 10.4986L5.51525 9.96853L6.18293 10.5028C6.30288 10.5984 6.47399 10.5948 6.5895 10.4941L7.18116 9.97927L7.77324 10.4941C7.88726 10.5933 8.05552 10.5985 8.17526 10.5065L8.86939 9.97225L9.43833 10.4895C9.56801 10.6074 9.76858 10.5981 9.88662 10.4685C10.0045 10.3386 9.99482 10.1376 9.86514 10.0198L9.09994 9.32398C8.98613 9.22053 8.81482 9.21353 8.69297 9.30704L7.99388 9.84499L7.38981 9.31943C7.27029 9.21535 7.09265 9.21535 6.97334 9.31943L6.37258 9.84127L5.70944 9.31076C5.65084 9.26369 5.57938 9.24063 5.50822 9.24134Z" fill="#32264C" fill-opacity="0.6"/>
</svg>
