<svg width="15" height="16" viewBox="0 0 15 16" fill="none" xmlns="http://www.w3.org/2000/svg">
<circle cx="7.28942" cy="7.95824" r="7.28942" fill="#FFA191"/>
<path fill-rule="evenodd" clip-rule="evenodd" d="M5.23181 5.01685C4.85627 5.01685 4.55202 5.32146 4.55202 5.697C4.55202 6.07273 4.85627 6.37716 5.23181 6.37716C5.60735 6.37716 5.9116 6.07273 5.9116 5.697C5.9116 5.32146 5.60735 5.01685 5.23181 5.01685ZM9.14097 5.01685C8.76562 5.01685 8.46118 5.32146 8.46118 5.697C8.46118 6.07273 8.76562 6.37716 9.14097 6.37716C9.51651 6.37716 9.82075 6.07273 9.82075 5.697C9.82075 5.32146 9.51651 5.01685 9.14097 5.01685ZM4.37615 8.50058C4.21919 8.50058 4.0918 8.62778 4.0918 8.78493C4.0918 10.0918 5.24417 11.1553 6.65989 11.1553H7.80175C9.21766 11.1553 10.3698 10.0918 10.3698 8.78493C10.3698 8.62778 10.2425 8.50058 10.0855 8.50058H4.37615ZM4.68532 9.06929H9.77632C9.62448 9.92785 8.79681 10.5866 7.80175 10.5866H6.65989C5.66483 10.5866 4.83716 9.92785 4.68532 9.06929Z" fill="#32264C" fill-opacity="0.6"/>
</svg>
