<svg width="15" height="16" viewBox="0 0 15 16" fill="none" xmlns="http://www.w3.org/2000/svg">
<circle cx="7.28942" cy="7.95824" r="7.28942" fill="#FFB4A7"/>
<path fill-rule="evenodd" clip-rule="evenodd" d="M5.07771 5.01685C4.67464 5.01685 4.34766 5.34324 4.34766 5.74651C4.34766 6.14977 4.67464 6.47695 5.07771 6.47695C5.48077 6.47695 5.80776 6.14977 5.80776 5.74651C5.80776 5.34324 5.48077 5.01685 5.07771 5.01685ZM9.27472 5.01685C8.87165 5.01685 8.54467 5.34324 8.54467 5.74651C8.54467 6.14977 8.87165 6.47695 9.27472 6.47695C9.67798 6.47695 10.0044 6.14977 10.0044 5.74651C10.0044 5.34324 9.67798 5.01685 9.27472 5.01685ZM4.7025 8.55352C4.53646 8.55352 4.40171 8.68807 4.40171 8.85431C4.40171 10.1231 5.44633 11.1553 6.73011 11.1553H7.74372C9.04937 11.1553 10.0721 10.1569 10.0721 8.88251C10.0721 8.71627 9.93758 8.58172 9.77134 8.58172C9.6053 8.58172 9.47054 8.71627 9.47054 8.88251C9.47054 9.81958 8.71208 10.5537 7.74372 10.5537H6.73011C5.76176 10.5537 5.00329 9.80703 5.00329 8.85431C5.00329 8.68807 4.86854 8.55352 4.7025 8.55352Z" fill="#32264C" fill-opacity="0.6"/>
</svg>
