<svg width="50" height="50" viewBox="0 0 50 50" fill="none" xmlns="http://www.w3.org/2000/svg">
<circle cx="25" cy="25" r="25" fill="white"/>
<path fill-rule="evenodd" clip-rule="evenodd" d="M17.3966 14.9122C16.0249 14.9122 14.9121 16.023 14.9121 17.3954C14.9121 18.7677 16.0249 19.8812 17.3966 19.8812C18.7683 19.8812 19.881 18.7677 19.881 17.3954C19.881 16.023 18.7683 14.9122 17.3966 14.9122ZM31.6796 14.9122C30.3079 14.9122 29.1951 16.023 29.1951 17.3954C29.1951 18.7677 30.3079 19.8812 31.6796 19.8812C33.0519 19.8812 34.1627 18.7677 34.1627 17.3954C34.1627 16.023 33.0519 14.9122 31.6796 14.9122ZM23.0199 26.928C18.651 26.928 15.096 30.5225 15.096 34.9412C15.096 35.507 15.5546 35.9649 16.1197 35.9649C16.6847 35.9649 17.1433 35.507 17.1433 34.9412C17.1433 31.6512 19.7798 28.9753 23.0199 28.9753H26.4694C29.7096 28.9753 32.346 31.6325 32.346 34.8972C32.346 35.463 32.8046 35.9222 33.3696 35.9222C33.9354 35.9222 34.3933 35.463 34.3933 34.8972C34.3933 30.5031 30.8383 26.928 26.4694 26.928H23.0199Z" fill="#E54925"/>
</svg>
