<svg width="50" height="51" viewBox="0 0 50 51" fill="none" xmlns="http://www.w3.org/2000/svg">
<circle cx="25" cy="25.4531" r="25" fill="#F0ECE4"/>
<path fill-rule="evenodd" clip-rule="evenodd" d="M14.2378 15.3694C13.8899 15.3996 13.5623 15.597 13.3791 15.9249C13.0867 16.4501 13.2768 17.1133 13.8014 17.4057L17.1668 19.2804L13.8354 20.6393C13.2796 20.8664 13.0117 21.5013 13.2388 22.0578C13.4107 22.48 13.8182 22.7351 14.2477 22.7351C14.3841 22.7351 14.523 22.7102 14.6572 22.6558L20.0887 20.4409C20.4769 20.2828 20.7386 19.9151 20.7632 19.4972C20.7886 19.0793 20.5727 18.6843 20.2078 18.4812L14.8599 15.504C14.6634 15.3941 14.4466 15.3512 14.2378 15.3694ZM34.8046 15.3694C34.5958 15.3514 34.3801 15.3944 34.184 15.504L28.8361 18.4812C28.4856 18.6764 28.2712 19.0492 28.2778 19.4504C28.2836 19.8517 28.511 20.2156 28.8672 20.3998L34.2151 23.1517C34.3747 23.2337 34.5442 23.2736 34.7125 23.2736C35.1072 23.2736 35.488 23.0571 35.6818 22.6827C35.9567 22.148 35.7453 21.491 35.2113 21.2161L31.6716 19.3952L35.2425 17.4057C35.7678 17.1133 35.9564 16.4501 35.6633 15.9249C35.4801 15.5961 35.1526 15.3993 34.8046 15.3694ZM18.8899 31.8537C18.6459 31.8562 18.4025 31.9405 18.2041 32.106L15.3403 34.4922C14.8788 34.8775 14.8154 35.5647 15.2 36.0269C15.4154 36.2852 15.7262 36.418 16.0374 36.418C16.2827 36.418 16.5301 36.3355 16.7332 36.1658L18.914 34.3477L21.2039 36.1799C21.6153 36.5079 22.2022 36.4955 22.5983 36.1502L24.6275 34.3845L26.6581 36.1502C27.0491 36.4904 27.6262 36.5083 28.0369 36.1927L30.4175 34.3605L32.3687 36.1346C32.8135 36.5387 33.5014 36.5071 33.9062 36.0623C34.3103 35.6168 34.2773 34.9275 33.8325 34.5234L31.2082 32.1371C30.8179 31.7824 30.2303 31.7584 29.8124 32.079L27.4148 33.924L25.3431 32.1215C24.9332 31.7646 24.3239 31.7646 23.9147 32.1215L21.8544 33.9113L19.58 32.0918C19.379 31.9304 19.134 31.8513 18.8899 31.8537Z" fill="#32264C" fill-opacity="0.6"/>
</svg>
