<svg width="617" height="908" viewBox="0 0 617 908" fill="none" xmlns="http://www.w3.org/2000/svg">
<rect width="616.624" height="907.67" fill="#F8CFC6"/>
<rect opacity="0.4" x="32.3867" y="175.445" width="551.851" height="83.2165" rx="41.6082" fill="white" stroke="white"/>
<path d="M412.463 223.109C412.139 223.109 411.869 223.037 411.653 222.893C411.449 222.737 411.281 222.509 411.149 222.209L406.451 211.661C406.319 211.361 406.283 211.097 406.343 210.869C406.403 210.641 406.529 210.461 406.721 210.329C406.913 210.197 407.141 210.131 407.405 210.131C407.753 210.131 408.011 210.209 408.179 210.365C408.359 210.509 408.509 210.731 408.629 211.031L412.895 220.913H412.121L416.369 211.013C416.501 210.725 416.657 210.509 416.837 210.365C417.017 210.209 417.269 210.131 417.593 210.131C417.857 210.131 418.073 210.197 418.241 210.329C418.421 210.461 418.535 210.641 418.583 210.869C418.631 211.097 418.589 211.361 418.457 211.661L413.759 222.209C413.627 222.509 413.459 222.737 413.255 222.893C413.063 223.037 412.799 223.109 412.463 223.109ZM422.051 223.091C421.691 223.091 421.415 222.983 421.223 222.767C421.031 222.551 420.935 222.251 420.935 221.867V215.261C420.935 214.865 421.031 214.565 421.223 214.361C421.415 214.145 421.691 214.037 422.051 214.037C422.411 214.037 422.687 214.145 422.879 214.361C423.083 214.565 423.185 214.865 423.185 215.261V221.867C423.185 222.251 423.089 222.551 422.897 222.767C422.705 222.983 422.423 223.091 422.051 223.091ZM422.897 212.885C422.777 213.053 422.633 213.149 422.465 213.173C422.297 213.197 422.135 213.167 421.979 213.083C421.823 212.999 421.709 212.879 421.637 212.723C421.577 212.567 421.595 212.393 421.691 212.201L423.059 209.519C423.167 209.291 423.311 209.147 423.491 209.087C423.671 209.015 423.857 209.003 424.049 209.051C424.241 209.099 424.403 209.189 424.535 209.321C424.679 209.453 424.763 209.615 424.787 209.807C424.823 209.987 424.775 210.173 424.643 210.365L422.897 212.885ZM426.639 223.109C426.279 223.109 426.003 223.013 425.811 222.821C425.619 222.617 425.523 222.329 425.523 221.957V215.153C425.523 214.781 425.619 214.499 425.811 214.307C426.003 214.115 426.273 214.019 426.621 214.019C426.969 214.019 427.239 214.115 427.431 214.307C427.623 214.499 427.719 214.781 427.719 215.153V216.377L427.521 215.927C427.785 215.291 428.193 214.811 428.745 214.487C429.309 214.151 429.945 213.983 430.653 213.983C431.361 213.983 431.943 214.115 432.399 214.379C432.855 214.643 433.197 215.045 433.425 215.585C433.653 216.113 433.767 216.785 433.767 217.601V221.957C433.767 222.329 433.671 222.617 433.479 222.821C433.287 223.013 433.011 223.109 432.651 223.109C432.291 223.109 432.009 223.013 431.805 222.821C431.613 222.617 431.517 222.329 431.517 221.957V217.709C431.517 217.025 431.385 216.527 431.121 216.215C430.869 215.903 430.473 215.747 429.933 215.747C429.273 215.747 428.745 215.957 428.349 216.377C427.965 216.785 427.773 217.331 427.773 218.015V221.957C427.773 222.725 427.395 223.109 426.639 223.109ZM440.121 223.145C439.197 223.145 438.393 222.959 437.709 222.587C437.025 222.203 436.497 221.663 436.125 220.967C435.753 220.271 435.567 219.455 435.567 218.519C435.567 217.811 435.669 217.181 435.873 216.629C436.089 216.065 436.395 215.591 436.791 215.207C437.187 214.811 437.667 214.511 438.231 214.307C438.795 214.091 439.425 213.983 440.121 213.983C440.517 213.983 440.943 214.037 441.399 214.145C441.867 214.253 442.305 214.433 442.713 214.685C442.905 214.805 443.031 214.949 443.091 215.117C443.151 215.285 443.163 215.459 443.127 215.639C443.091 215.807 443.013 215.957 442.893 216.089C442.785 216.209 442.647 216.287 442.479 216.323C442.311 216.347 442.125 216.305 441.921 216.197C441.657 216.041 441.387 215.927 441.111 215.855C440.835 215.771 440.571 215.729 440.319 215.729C439.923 215.729 439.575 215.795 439.275 215.927C438.975 216.047 438.717 216.227 438.501 216.467C438.297 216.695 438.141 216.983 438.033 217.331C437.925 217.679 437.871 218.081 437.871 218.537C437.871 219.425 438.081 220.127 438.501 220.643C438.933 221.147 439.539 221.399 440.319 221.399C440.571 221.399 440.829 221.363 441.093 221.291C441.369 221.219 441.645 221.105 441.921 220.949C442.125 220.841 442.305 220.805 442.461 220.841C442.629 220.877 442.767 220.961 442.875 221.093C442.983 221.213 443.049 221.363 443.073 221.543C443.097 221.711 443.073 221.879 443.001 222.047C442.941 222.215 442.821 222.353 442.641 222.461C442.245 222.701 441.825 222.875 441.381 222.983C440.937 223.091 440.517 223.145 440.121 223.145ZM447.729 223.145C446.997 223.145 446.391 223.013 445.911 222.749C445.431 222.473 445.071 222.065 444.831 221.525C444.603 220.985 444.489 220.313 444.489 219.509V215.153C444.489 214.769 444.585 214.487 444.777 214.307C444.969 214.115 445.245 214.019 445.605 214.019C445.965 214.019 446.241 214.115 446.433 214.307C446.637 214.487 446.739 214.769 446.739 215.153V219.545C446.739 220.169 446.865 220.631 447.117 220.931C447.369 221.231 447.771 221.381 448.323 221.381C448.923 221.381 449.415 221.177 449.799 220.769C450.183 220.349 450.375 219.797 450.375 219.113V215.153C450.375 214.769 450.471 214.487 450.663 214.307C450.855 214.115 451.131 214.019 451.491 214.019C451.851 214.019 452.127 214.115 452.319 214.307C452.523 214.487 452.625 214.769 452.625 215.153V221.957C452.625 222.725 452.259 223.109 451.527 223.109C451.179 223.109 450.909 223.013 450.717 222.821C450.525 222.617 450.429 222.329 450.429 221.957V220.589L450.681 221.129C450.429 221.777 450.045 222.275 449.529 222.623C449.025 222.971 448.425 223.145 447.729 223.145ZM457.973 223.145C456.977 223.145 456.227 222.863 455.723 222.299C455.219 221.723 454.967 220.883 454.967 219.779V211.265C454.967 210.893 455.063 210.611 455.255 210.419C455.447 210.227 455.723 210.131 456.083 210.131C456.443 210.131 456.719 210.227 456.911 210.419C457.115 210.611 457.217 210.893 457.217 211.265V219.671C457.217 220.223 457.331 220.631 457.559 220.895C457.799 221.159 458.135 221.291 458.567 221.291C458.663 221.291 458.753 221.291 458.837 221.291C458.921 221.279 459.005 221.267 459.089 221.255C459.257 221.231 459.371 221.279 459.431 221.399C459.491 221.507 459.521 221.735 459.521 222.083C459.521 222.383 459.461 222.617 459.341 222.785C459.221 222.953 459.023 223.055 458.747 223.091C458.627 223.103 458.501 223.115 458.369 223.127C458.237 223.139 458.105 223.145 457.973 223.145ZM464.641 223.145C463.729 223.145 462.937 222.959 462.265 222.587C461.593 222.215 461.071 221.687 460.699 221.003C460.327 220.307 460.141 219.491 460.141 218.555C460.141 217.847 460.243 217.217 460.447 216.665C460.663 216.101 460.969 215.621 461.365 215.225C461.761 214.817 462.235 214.511 462.787 214.307C463.339 214.091 463.957 213.983 464.641 213.983C465.553 213.983 466.345 214.169 467.017 214.541C467.689 214.913 468.211 215.441 468.583 216.125C468.955 216.809 469.141 217.619 469.141 218.555C469.141 219.263 469.033 219.899 468.817 220.463C468.613 221.027 468.313 221.513 467.917 221.921C467.521 222.317 467.047 222.623 466.495 222.839C465.943 223.043 465.325 223.145 464.641 223.145ZM464.641 221.435C465.085 221.435 465.475 221.327 465.811 221.111C466.147 220.895 466.405 220.577 466.585 220.157C466.777 219.725 466.873 219.191 466.873 218.555C466.873 217.595 466.669 216.881 466.261 216.413C465.853 215.933 465.313 215.693 464.641 215.693C464.197 215.693 463.807 215.801 463.471 216.017C463.135 216.221 462.871 216.539 462.679 216.971C462.499 217.391 462.409 217.919 462.409 218.555C462.409 219.503 462.613 220.223 463.021 220.715C463.429 221.195 463.969 221.435 464.641 221.435ZM474.22 223.145C473.704 223.145 473.158 223.091 472.582 222.983C472.006 222.875 471.49 222.689 471.034 222.425C470.842 222.305 470.704 222.167 470.62 222.011C470.548 221.843 470.518 221.681 470.53 221.525C470.554 221.357 470.614 221.213 470.71 221.093C470.818 220.973 470.95 220.895 471.106 220.859C471.274 220.823 471.454 220.853 471.646 220.949C472.126 221.177 472.576 221.339 472.996 221.435C473.416 221.519 473.83 221.561 474.238 221.561C474.814 221.561 475.24 221.465 475.516 221.273C475.804 221.069 475.948 220.805 475.948 220.481C475.948 220.205 475.852 219.995 475.66 219.851C475.48 219.695 475.204 219.581 474.832 219.509L473.032 219.167C472.288 219.023 471.718 218.753 471.322 218.357C470.938 217.949 470.746 217.427 470.746 216.791C470.746 216.215 470.902 215.717 471.214 215.297C471.538 214.877 471.982 214.553 472.546 214.325C473.11 214.097 473.758 213.983 474.49 213.983C475.018 213.983 475.51 214.043 475.966 214.163C476.434 214.271 476.884 214.445 477.316 214.685C477.496 214.781 477.616 214.907 477.676 215.063C477.748 215.219 477.766 215.381 477.73 215.549C477.694 215.705 477.622 215.849 477.514 215.981C477.406 216.101 477.268 216.179 477.1 216.215C476.944 216.239 476.764 216.203 476.56 216.107C476.188 215.915 475.828 215.777 475.48 215.693C475.144 215.609 474.82 215.567 474.508 215.567C473.92 215.567 473.482 215.669 473.194 215.873C472.918 216.077 472.78 216.347 472.78 216.683C472.78 216.935 472.864 217.145 473.032 217.313C473.2 217.481 473.458 217.595 473.806 217.655L475.606 217.997C476.386 218.141 476.974 218.405 477.37 218.789C477.778 219.173 477.982 219.689 477.982 220.337C477.982 221.213 477.64 221.903 476.956 222.407C476.272 222.899 475.36 223.145 474.22 223.145Z" fill="#32264C" fill-opacity="0.6"/>
<g filter="url(#filter0_d_5084_4346)">
<rect x="31.2422" y="172.656" width="276.247" height="88.7938" rx="44.3969" fill="#FFA191"/>
</g>
<path d="M128.088 222.965C127.692 222.965 127.386 222.863 127.17 222.659C126.966 222.443 126.864 222.137 126.864 221.741V211.499C126.864 211.103 126.966 210.803 127.17 210.599C127.386 210.383 127.692 210.275 128.088 210.275H134.514C134.814 210.275 135.042 210.353 135.198 210.509C135.366 210.665 135.45 210.887 135.45 211.175C135.45 211.475 135.366 211.709 135.198 211.877C135.042 212.033 134.814 212.111 134.514 212.111H129.078V215.603H134.118C134.43 215.603 134.664 215.681 134.82 215.837C134.976 215.993 135.054 216.221 135.054 216.521C135.054 216.821 134.976 217.049 134.82 217.205C134.664 217.361 134.43 217.439 134.118 217.439H129.078V221.129H134.514C134.814 221.129 135.042 221.207 135.198 221.363C135.366 221.519 135.45 221.747 135.45 222.047C135.45 222.347 135.366 222.575 135.198 222.731C135.042 222.887 134.814 222.965 134.514 222.965H128.088ZM138.541 223.109C138.181 223.109 137.905 223.013 137.713 222.821C137.521 222.617 137.425 222.329 137.425 221.957V215.153C137.425 214.781 137.521 214.499 137.713 214.307C137.905 214.115 138.175 214.019 138.523 214.019C138.871 214.019 139.141 214.115 139.333 214.307C139.525 214.499 139.621 214.781 139.621 215.153V216.467L139.423 215.927C139.663 215.327 140.035 214.853 140.539 214.505C141.043 214.157 141.643 213.983 142.339 213.983C143.047 213.983 143.629 214.151 144.085 214.487C144.541 214.823 144.859 215.339 145.039 216.035H144.787C145.027 215.399 145.423 214.901 145.975 214.541C146.527 214.169 147.163 213.983 147.883 213.983C148.555 213.983 149.107 214.115 149.539 214.379C149.983 214.643 150.313 215.045 150.529 215.585C150.745 216.113 150.853 216.785 150.853 217.601V221.957C150.853 222.329 150.751 222.617 150.547 222.821C150.355 223.013 150.079 223.109 149.719 223.109C149.359 223.109 149.083 223.013 148.891 222.821C148.699 222.617 148.603 222.329 148.603 221.957V217.691C148.603 217.019 148.489 216.527 148.261 216.215C148.045 215.903 147.673 215.747 147.145 215.747C146.557 215.747 146.095 215.957 145.759 216.377C145.423 216.785 145.255 217.355 145.255 218.087V221.957C145.255 222.329 145.159 222.617 144.967 222.821C144.775 223.013 144.499 223.109 144.139 223.109C143.779 223.109 143.497 223.013 143.293 222.821C143.101 222.617 143.005 222.329 143.005 221.957V217.691C143.005 217.019 142.891 216.527 142.663 216.215C142.447 215.903 142.081 215.747 141.565 215.747C140.977 215.747 140.515 215.957 140.179 216.377C139.843 216.785 139.675 217.355 139.675 218.087V221.957C139.675 222.725 139.297 223.109 138.541 223.109ZM157.188 223.145C156.276 223.145 155.484 222.959 154.812 222.587C154.14 222.215 153.618 221.687 153.246 221.003C152.874 220.307 152.688 219.491 152.688 218.555C152.688 217.847 152.79 217.217 152.994 216.665C153.21 216.101 153.516 215.621 153.912 215.225C154.308 214.817 154.782 214.511 155.334 214.307C155.886 214.091 156.504 213.983 157.188 213.983C158.1 213.983 158.892 214.169 159.564 214.541C160.236 214.913 160.758 215.441 161.13 216.125C161.502 216.809 161.688 217.619 161.688 218.555C161.688 219.263 161.58 219.899 161.364 220.463C161.16 221.027 160.86 221.513 160.464 221.921C160.068 222.317 159.594 222.623 159.042 222.839C158.49 223.043 157.872 223.145 157.188 223.145ZM157.188 221.435C157.632 221.435 158.022 221.327 158.358 221.111C158.694 220.895 158.952 220.577 159.132 220.157C159.324 219.725 159.42 219.191 159.42 218.555C159.42 217.595 159.216 216.881 158.808 216.413C158.4 215.933 157.86 215.693 157.188 215.693C156.744 215.693 156.354 215.801 156.018 216.017C155.682 216.221 155.418 216.539 155.226 216.971C155.046 217.391 154.956 217.919 154.956 218.555C154.956 219.503 155.16 220.223 155.568 220.715C155.976 221.195 156.516 221.435 157.188 221.435ZM167.613 223.145C166.689 223.145 165.885 222.959 165.201 222.587C164.517 222.203 163.989 221.663 163.617 220.967C163.245 220.271 163.059 219.455 163.059 218.519C163.059 217.811 163.161 217.181 163.365 216.629C163.581 216.065 163.887 215.591 164.283 215.207C164.679 214.811 165.159 214.511 165.723 214.307C166.287 214.091 166.917 213.983 167.613 213.983C168.009 213.983 168.435 214.037 168.891 214.145C169.359 214.253 169.797 214.433 170.205 214.685C170.397 214.805 170.523 214.949 170.583 215.117C170.643 215.285 170.655 215.459 170.619 215.639C170.583 215.807 170.505 215.957 170.385 216.089C170.277 216.209 170.139 216.287 169.971 216.323C169.803 216.347 169.617 216.305 169.413 216.197C169.149 216.041 168.879 215.927 168.603 215.855C168.327 215.771 168.063 215.729 167.811 215.729C167.415 215.729 167.067 215.795 166.767 215.927C166.467 216.047 166.209 216.227 165.993 216.467C165.789 216.695 165.633 216.983 165.525 217.331C165.417 217.679 165.363 218.081 165.363 218.537C165.363 219.425 165.573 220.127 165.993 220.643C166.425 221.147 167.031 221.399 167.811 221.399C168.063 221.399 168.321 221.363 168.585 221.291C168.861 221.219 169.137 221.105 169.413 220.949C169.617 220.841 169.797 220.805 169.953 220.841C170.121 220.877 170.259 220.961 170.367 221.093C170.475 221.213 170.541 221.363 170.565 221.543C170.589 221.711 170.565 221.879 170.493 222.047C170.433 222.215 170.313 222.353 170.133 222.461C169.737 222.701 169.317 222.875 168.873 222.983C168.429 223.091 168.009 223.145 167.613 223.145ZM173.151 223.091C172.791 223.091 172.515 222.983 172.323 222.767C172.131 222.551 172.035 222.251 172.035 221.867V215.261C172.035 214.865 172.131 214.565 172.323 214.361C172.515 214.145 172.791 214.037 173.151 214.037C173.511 214.037 173.787 214.145 173.979 214.361C174.183 214.565 174.285 214.865 174.285 215.261V221.867C174.285 222.251 174.189 222.551 173.997 222.767C173.805 222.983 173.523 223.091 173.151 223.091ZM173.151 212.363C172.731 212.363 172.401 212.261 172.161 212.057C171.933 211.841 171.819 211.547 171.819 211.175C171.819 210.791 171.933 210.497 172.161 210.293C172.401 210.089 172.731 209.987 173.151 209.987C173.583 209.987 173.913 210.089 174.141 210.293C174.369 210.497 174.483 210.791 174.483 211.175C174.483 211.547 174.369 211.841 174.141 212.057C173.913 212.261 173.583 212.363 173.151 212.363ZM180.637 223.145C179.725 223.145 178.933 222.959 178.261 222.587C177.589 222.215 177.067 221.687 176.695 221.003C176.323 220.307 176.137 219.491 176.137 218.555C176.137 217.847 176.239 217.217 176.443 216.665C176.659 216.101 176.965 215.621 177.361 215.225C177.757 214.817 178.231 214.511 178.783 214.307C179.335 214.091 179.953 213.983 180.637 213.983C181.549 213.983 182.341 214.169 183.013 214.541C183.685 214.913 184.207 215.441 184.579 216.125C184.951 216.809 185.137 217.619 185.137 218.555C185.137 219.263 185.029 219.899 184.813 220.463C184.609 221.027 184.309 221.513 183.913 221.921C183.517 222.317 183.043 222.623 182.491 222.839C181.939 223.043 181.321 223.145 180.637 223.145ZM180.637 221.435C181.081 221.435 181.471 221.327 181.807 221.111C182.143 220.895 182.401 220.577 182.581 220.157C182.773 219.725 182.869 219.191 182.869 218.555C182.869 217.595 182.665 216.881 182.257 216.413C181.849 215.933 181.309 215.693 180.637 215.693C180.193 215.693 179.803 215.801 179.467 216.017C179.131 216.221 178.867 216.539 178.675 216.971C178.495 217.391 178.405 217.919 178.405 218.555C178.405 219.503 178.609 220.223 179.017 220.715C179.425 221.195 179.965 221.435 180.637 221.435ZM188.11 223.109C187.75 223.109 187.474 223.013 187.282 222.821C187.09 222.617 186.994 222.329 186.994 221.957V215.153C186.994 214.781 187.09 214.499 187.282 214.307C187.474 214.115 187.744 214.019 188.092 214.019C188.44 214.019 188.71 214.115 188.902 214.307C189.094 214.499 189.19 214.781 189.19 215.153V216.377L188.992 215.927C189.256 215.291 189.664 214.811 190.216 214.487C190.78 214.151 191.416 213.983 192.124 213.983C192.832 213.983 193.414 214.115 193.87 214.379C194.326 214.643 194.668 215.045 194.896 215.585C195.124 216.113 195.238 216.785 195.238 217.601V221.957C195.238 222.329 195.142 222.617 194.95 222.821C194.758 223.013 194.482 223.109 194.122 223.109C193.762 223.109 193.48 223.013 193.276 222.821C193.084 222.617 192.988 222.329 192.988 221.957V217.709C192.988 217.025 192.856 216.527 192.592 216.215C192.34 215.903 191.944 215.747 191.404 215.747C190.744 215.747 190.216 215.957 189.82 216.377C189.436 216.785 189.244 217.331 189.244 218.015V221.957C189.244 222.725 188.866 223.109 188.11 223.109ZM201.861 223.145C200.865 223.145 200.007 222.959 199.287 222.587C198.567 222.215 198.009 221.687 197.613 221.003C197.229 220.319 197.037 219.509 197.037 218.573C197.037 217.661 197.223 216.863 197.595 216.179C197.979 215.495 198.501 214.961 199.161 214.577C199.833 214.181 200.595 213.983 201.447 213.983C202.071 213.983 202.629 214.085 203.121 214.289C203.625 214.493 204.051 214.787 204.399 215.171C204.759 215.555 205.029 216.023 205.209 216.575C205.401 217.115 205.497 217.727 205.497 218.411C205.497 218.627 205.419 218.795 205.263 218.915C205.119 219.023 204.909 219.077 204.633 219.077H198.855V217.781H203.913L203.625 218.051C203.625 217.499 203.541 217.037 203.373 216.665C203.217 216.293 202.983 216.011 202.671 215.819C202.371 215.615 201.993 215.513 201.537 215.513C201.033 215.513 200.601 215.633 200.241 215.873C199.893 216.101 199.623 216.431 199.431 216.863C199.251 217.283 199.161 217.787 199.161 218.375V218.501C199.161 219.485 199.389 220.223 199.845 220.715C200.313 221.195 200.997 221.435 201.897 221.435C202.209 221.435 202.557 221.399 202.941 221.327C203.337 221.243 203.709 221.105 204.057 220.913C204.309 220.769 204.531 220.709 204.723 220.733C204.915 220.745 205.065 220.811 205.173 220.931C205.293 221.051 205.365 221.201 205.389 221.381C205.413 221.549 205.377 221.723 205.281 221.903C205.197 222.083 205.047 222.239 204.831 222.371C204.411 222.635 203.925 222.833 203.373 222.965C202.833 223.085 202.329 223.145 201.861 223.145ZM210.501 223.145C209.985 223.145 209.439 223.091 208.863 222.983C208.287 222.875 207.771 222.689 207.315 222.425C207.123 222.305 206.985 222.167 206.901 222.011C206.829 221.843 206.799 221.681 206.811 221.525C206.835 221.357 206.895 221.213 206.991 221.093C207.099 220.973 207.231 220.895 207.387 220.859C207.555 220.823 207.735 220.853 207.927 220.949C208.407 221.177 208.857 221.339 209.277 221.435C209.697 221.519 210.111 221.561 210.519 221.561C211.095 221.561 211.521 221.465 211.797 221.273C212.085 221.069 212.229 220.805 212.229 220.481C212.229 220.205 212.133 219.995 211.941 219.851C211.761 219.695 211.485 219.581 211.113 219.509L209.313 219.167C208.569 219.023 207.999 218.753 207.603 218.357C207.219 217.949 207.027 217.427 207.027 216.791C207.027 216.215 207.183 215.717 207.495 215.297C207.819 214.877 208.263 214.553 208.827 214.325C209.391 214.097 210.039 213.983 210.771 213.983C211.299 213.983 211.791 214.043 212.247 214.163C212.715 214.271 213.165 214.445 213.597 214.685C213.777 214.781 213.897 214.907 213.957 215.063C214.029 215.219 214.047 215.381 214.011 215.549C213.975 215.705 213.903 215.849 213.795 215.981C213.687 216.101 213.549 216.179 213.381 216.215C213.225 216.239 213.045 216.203 212.841 216.107C212.469 215.915 212.109 215.777 211.761 215.693C211.425 215.609 211.101 215.567 210.789 215.567C210.201 215.567 209.763 215.669 209.475 215.873C209.199 216.077 209.061 216.347 209.061 216.683C209.061 216.935 209.145 217.145 209.313 217.313C209.481 217.481 209.739 217.595 210.087 217.655L211.887 217.997C212.667 218.141 213.255 218.405 213.651 218.789C214.059 219.173 214.263 219.689 214.263 220.337C214.263 221.213 213.921 221.903 213.237 222.407C212.553 222.899 211.641 223.145 210.501 223.145Z" fill="white"/>
<path d="M230.828 96.9271C230.305 96.9271 229.904 96.7778 229.624 96.4791C229.344 96.1805 229.204 95.7698 229.204 95.2471V78.4191C229.204 77.8778 229.353 77.4671 229.652 77.1871C229.95 76.8885 230.361 76.7391 230.884 76.7391C231.35 76.7391 231.714 76.8325 231.976 77.0191C232.256 77.1871 232.508 77.4858 232.732 77.9151L239.648 90.7111H238.752L245.668 77.9151C245.892 77.4858 246.134 77.1871 246.396 77.0191C246.657 76.8325 247.021 76.7391 247.488 76.7391C248.01 76.7391 248.412 76.8885 248.692 77.1871C248.972 77.4671 249.112 77.8778 249.112 78.4191V95.2471C249.112 95.7698 248.972 96.1805 248.692 96.4791C248.43 96.7778 248.029 96.9271 247.488 96.9271C246.965 96.9271 246.564 96.7778 246.284 96.4791C246.004 96.1805 245.864 95.7698 245.864 95.2471V82.2831H246.48L240.6 93.0071C240.413 93.3245 240.217 93.5578 240.012 93.7071C239.806 93.8565 239.526 93.9311 239.172 93.9311C238.817 93.9311 238.528 93.8565 238.304 93.7071C238.08 93.5391 237.884 93.3058 237.716 93.0071L231.78 82.2551H232.452V95.2471C232.452 95.7698 232.312 96.1805 232.032 96.4791C231.77 96.7778 231.369 96.9271 230.828 96.9271ZM254.856 96.8991C254.296 96.8991 253.867 96.7311 253.568 96.3951C253.269 96.0591 253.12 95.5925 253.12 94.9951V84.7191C253.12 84.1031 253.269 83.6365 253.568 83.3191C253.867 82.9831 254.296 82.8151 254.856 82.8151C255.416 82.8151 255.845 82.9831 256.144 83.3191C256.461 83.6365 256.62 84.1031 256.62 84.7191V94.9951C256.62 95.5925 256.471 96.0591 256.172 96.3951C255.873 96.7311 255.435 96.8991 254.856 96.8991ZM254.856 80.2111C254.203 80.2111 253.689 80.0525 253.316 79.7351C252.961 79.3991 252.784 78.9418 252.784 78.3631C252.784 77.7658 252.961 77.3085 253.316 76.9911C253.689 76.6738 254.203 76.5151 254.856 76.5151C255.528 76.5151 256.041 76.6738 256.396 76.9911C256.751 77.3085 256.928 77.7658 256.928 78.3631C256.928 78.9418 256.751 79.3991 256.396 79.7351C256.041 80.0525 255.528 80.2111 254.856 80.2111ZM274.606 96.9831C273.057 96.9831 271.722 96.6938 270.602 96.1151C269.482 95.5365 268.614 94.7151 267.998 93.6511C267.401 92.5871 267.102 91.3271 267.102 89.8711C267.102 88.4525 267.392 87.2111 267.97 86.1471C268.568 85.0831 269.38 84.2525 270.406 83.6551C271.452 83.0391 272.637 82.7311 273.962 82.7311C274.933 82.7311 275.801 82.8898 276.566 83.2071C277.35 83.5245 278.013 83.9818 278.554 84.5791C279.114 85.1765 279.534 85.9045 279.814 86.7631C280.113 87.6031 280.262 88.5551 280.262 89.6191C280.262 89.9551 280.141 90.2165 279.898 90.4031C279.674 90.5711 279.348 90.6551 278.918 90.6551H269.93V88.6391H277.798L277.35 89.0591C277.35 88.2005 277.22 87.4818 276.958 86.9031C276.716 86.3245 276.352 85.8858 275.866 85.5871C275.4 85.2698 274.812 85.1111 274.102 85.1111C273.318 85.1111 272.646 85.2978 272.086 85.6711C271.545 86.0258 271.125 86.5391 270.826 87.2111C270.546 87.8645 270.406 88.6485 270.406 89.5631V89.7591C270.406 91.2898 270.761 92.4378 271.47 93.2031C272.198 93.9498 273.262 94.3231 274.662 94.3231C275.148 94.3231 275.689 94.2671 276.286 94.1551C276.902 94.0245 277.481 93.8098 278.022 93.5111C278.414 93.2871 278.76 93.1938 279.058 93.2311C279.357 93.2498 279.59 93.3525 279.758 93.5391C279.945 93.7258 280.057 93.9591 280.094 94.2391C280.132 94.5005 280.076 94.7711 279.926 95.0511C279.796 95.3311 279.562 95.5738 279.226 95.7791C278.573 96.1898 277.817 96.4978 276.958 96.7031C276.118 96.8898 275.334 96.9831 274.606 96.9831ZM288.359 96.9271C287.893 96.9271 287.482 96.8058 287.127 96.5631C286.791 96.3205 286.511 95.9471 286.287 95.4431L281.835 85.1111C281.667 84.7005 281.602 84.3178 281.639 83.9631C281.695 83.6085 281.863 83.3285 282.143 83.1231C282.442 82.8991 282.843 82.7871 283.347 82.7871C283.777 82.7871 284.122 82.8898 284.383 83.0951C284.645 83.2818 284.878 83.6458 285.083 84.1871L288.863 93.6231H288.023L291.915 84.1591C292.121 83.6365 292.354 83.2818 292.615 83.0951C292.895 82.8898 293.269 82.7871 293.735 82.7871C294.146 82.7871 294.473 82.8991 294.715 83.1231C294.958 83.3285 295.107 83.6085 295.163 83.9631C295.219 84.2991 295.154 84.6725 294.967 85.0831L290.431 95.4431C290.226 95.9471 289.946 96.3205 289.591 96.5631C289.255 96.8058 288.845 96.9271 288.359 96.9271ZM303.552 96.9831C302.133 96.9831 300.901 96.6938 299.856 96.1151C298.81 95.5365 297.998 94.7151 297.42 93.6511C296.841 92.5685 296.552 91.2991 296.552 89.8431C296.552 88.7418 296.71 87.7618 297.028 86.9031C297.364 86.0258 297.84 85.2791 298.456 84.6631C299.072 84.0285 299.809 83.5525 300.668 83.2351C301.526 82.8991 302.488 82.7311 303.552 82.7311C304.97 82.7311 306.202 83.0205 307.248 83.5991C308.293 84.1778 309.105 84.9991 309.684 86.0631C310.262 87.1271 310.552 88.3871 310.552 89.8431C310.552 90.9445 310.384 91.9338 310.048 92.8111C309.73 93.6885 309.264 94.4445 308.648 95.0791C308.032 95.6951 307.294 96.1711 306.436 96.5071C305.577 96.8245 304.616 96.9831 303.552 96.9831ZM303.552 94.3231C304.242 94.3231 304.849 94.1551 305.372 93.8191C305.894 93.4831 306.296 92.9885 306.576 92.3351C306.874 91.6631 307.024 90.8325 307.024 89.8431C307.024 88.3498 306.706 87.2391 306.072 86.5111C305.437 85.7645 304.597 85.3911 303.552 85.3911C302.861 85.3911 302.254 85.5591 301.732 85.8951C301.209 86.2125 300.798 86.7071 300.5 87.3791C300.22 88.0325 300.08 88.8538 300.08 89.8431C300.08 91.3178 300.397 92.4378 301.032 93.2031C301.666 93.9498 302.506 94.3231 303.552 94.3231ZM318.116 96.9831C316.567 96.9831 315.4 96.5445 314.616 95.6671C313.832 94.7711 313.44 93.4645 313.44 91.7471V78.5031C313.44 77.9245 313.59 77.4858 313.888 77.1871C314.187 76.8885 314.616 76.7391 315.176 76.7391C315.736 76.7391 316.166 76.8885 316.464 77.1871C316.782 77.4858 316.94 77.9245 316.94 78.5031V91.5791C316.94 92.4378 317.118 93.0725 317.472 93.4831C317.846 93.8938 318.368 94.0991 319.04 94.0991C319.19 94.0991 319.33 94.0991 319.46 94.0991C319.591 94.0805 319.722 94.0618 319.852 94.0431C320.114 94.0058 320.291 94.0805 320.384 94.2671C320.478 94.4351 320.524 94.7898 320.524 95.3311C320.524 95.7978 320.431 96.1618 320.244 96.4231C320.058 96.6845 319.75 96.8431 319.32 96.8991C319.134 96.9178 318.938 96.9365 318.732 96.9551C318.527 96.9738 318.322 96.9831 318.116 96.9831ZM327.338 96.9831C326.199 96.9831 325.257 96.7778 324.51 96.3671C323.763 95.9378 323.203 95.3031 322.83 94.4631C322.475 93.6231 322.298 92.5778 322.298 91.3271V84.5511C322.298 83.9538 322.447 83.5151 322.746 83.2351C323.045 82.9365 323.474 82.7871 324.034 82.7871C324.594 82.7871 325.023 82.9365 325.322 83.2351C325.639 83.5151 325.798 83.9538 325.798 84.5511V91.3831C325.798 92.3538 325.994 93.0725 326.386 93.5391C326.778 94.0058 327.403 94.2391 328.262 94.2391C329.195 94.2391 329.961 93.9218 330.558 93.2871C331.155 92.6338 331.454 91.7751 331.454 90.7111V84.5511C331.454 83.9538 331.603 83.5151 331.902 83.2351C332.201 82.9365 332.63 82.7871 333.19 82.7871C333.75 82.7871 334.179 82.9365 334.478 83.2351C334.795 83.5151 334.954 83.9538 334.954 84.5511V95.1351C334.954 96.3298 334.385 96.9271 333.246 96.9271C332.705 96.9271 332.285 96.7778 331.986 96.4791C331.687 96.1618 331.538 95.7138 331.538 95.1351V93.0071L331.93 93.8471C331.538 94.8551 330.941 95.6298 330.138 96.1711C329.354 96.7125 328.421 96.9831 327.338 96.9831ZM344.925 96.9831C343.487 96.9831 342.237 96.6938 341.173 96.1151C340.109 95.5178 339.287 94.6778 338.709 93.5951C338.13 92.5125 337.841 91.2431 337.841 89.7871C337.841 88.6858 337.999 87.7058 338.317 86.8471C338.653 85.9698 339.129 85.2325 339.745 84.6351C340.361 84.0191 341.107 83.5525 341.985 83.2351C342.862 82.8991 343.842 82.7311 344.925 82.7311C345.541 82.7311 346.203 82.8151 346.913 82.9831C347.641 83.1511 348.322 83.4311 348.957 83.8231C349.255 84.0098 349.451 84.2338 349.545 84.4951C349.638 84.7565 349.657 85.0271 349.601 85.3071C349.545 85.5685 349.423 85.8018 349.237 86.0071C349.069 86.1938 348.854 86.3151 348.593 86.3711C348.331 86.4085 348.042 86.3431 347.725 86.1751C347.314 85.9325 346.894 85.7551 346.465 85.6431C346.035 85.5125 345.625 85.4471 345.233 85.4471C344.617 85.4471 344.075 85.5498 343.609 85.7551C343.142 85.9418 342.741 86.2218 342.405 86.5951C342.087 86.9498 341.845 87.3978 341.677 87.9391C341.509 88.4805 341.425 89.1058 341.425 89.8151C341.425 91.1965 341.751 92.2885 342.405 93.0911C343.077 93.8751 344.019 94.2671 345.233 94.2671C345.625 94.2671 346.026 94.2111 346.437 94.0991C346.866 93.9871 347.295 93.8098 347.725 93.5671C348.042 93.3991 348.322 93.3431 348.565 93.3991C348.826 93.4551 349.041 93.5858 349.209 93.7911C349.377 93.9778 349.479 94.2111 349.517 94.4911C349.554 94.7525 349.517 95.0138 349.405 95.2751C349.311 95.5365 349.125 95.7511 348.845 95.9191C348.229 96.2925 347.575 96.5631 346.885 96.7311C346.194 96.8991 345.541 96.9831 344.925 96.9831ZM353.54 96.8991C352.98 96.8991 352.55 96.7311 352.252 96.3951C351.953 96.0591 351.804 95.5925 351.804 94.9951V84.7191C351.804 84.1031 351.953 83.6365 352.252 83.3191C352.55 82.9831 352.98 82.8151 353.54 82.8151C354.1 82.8151 354.529 82.9831 354.828 83.3191C355.145 83.6365 355.304 84.1031 355.304 84.7191V94.9951C355.304 95.5925 355.154 96.0591 354.856 96.3951C354.557 96.7311 354.118 96.8991 353.54 96.8991ZM353.54 80.2111C352.886 80.2111 352.373 80.0525 352 79.7351C351.645 79.3991 351.468 78.9418 351.468 78.3631C351.468 77.7658 351.645 77.3085 352 76.9911C352.373 76.6738 352.886 76.5151 353.54 76.5151C354.212 76.5151 354.725 76.6738 355.08 76.9911C355.434 77.3085 355.612 77.7658 355.612 78.3631C355.612 78.9418 355.434 79.3991 355.08 79.7351C354.725 80.0525 354.212 80.2111 353.54 80.2111ZM365.184 96.9831C363.766 96.9831 362.534 96.6938 361.488 96.1151C360.443 95.5365 359.631 94.7151 359.052 93.6511C358.474 92.5685 358.184 91.2991 358.184 89.8431C358.184 88.7418 358.343 87.7618 358.66 86.9031C358.996 86.0258 359.472 85.2791 360.088 84.6631C360.704 84.0285 361.442 83.5525 362.3 83.2351C363.159 82.8991 364.12 82.7311 365.184 82.7311C366.603 82.7311 367.835 83.0205 368.88 83.5991C369.926 84.1778 370.738 84.9991 371.316 86.0631C371.895 87.1271 372.184 88.3871 372.184 89.8431C372.184 90.9445 372.016 91.9338 371.68 92.8111C371.363 93.6885 370.896 94.4445 370.28 95.0791C369.664 95.6951 368.927 96.1711 368.068 96.5071C367.21 96.8245 366.248 96.9831 365.184 96.9831ZM365.184 94.3231C365.875 94.3231 366.482 94.1551 367.004 93.8191C367.527 93.4831 367.928 92.9885 368.208 92.3351C368.507 91.6631 368.656 90.8325 368.656 89.8431C368.656 88.3498 368.339 87.2391 367.704 86.5111C367.07 85.7645 366.23 85.3911 365.184 85.3911C364.494 85.3911 363.887 85.5591 363.364 85.8951C362.842 86.2125 362.431 86.7071 362.132 87.3791C361.852 88.0325 361.712 88.8538 361.712 89.8431C361.712 91.3178 362.03 92.4378 362.664 93.2031C363.299 93.9498 364.139 94.3231 365.184 94.3231ZM366.5 81.0231C366.314 81.2845 366.09 81.4338 365.828 81.4711C365.567 81.5085 365.315 81.4618 365.072 81.3311C364.83 81.2005 364.652 81.0138 364.54 80.7711C364.447 80.5285 364.475 80.2578 364.624 79.9591L366.752 75.7871C366.92 75.4325 367.144 75.2085 367.424 75.1151C367.704 75.0031 367.994 74.9845 368.292 75.0591C368.591 75.1338 368.843 75.2738 369.048 75.4791C369.272 75.6845 369.403 75.9365 369.44 76.2351C369.496 76.5151 369.422 76.8045 369.216 77.1031L366.5 81.0231ZM376.809 96.9271C376.249 96.9271 375.82 96.7778 375.521 96.4791C375.223 96.1618 375.073 95.7138 375.073 95.1351V84.5511C375.073 83.9725 375.223 83.5338 375.521 83.2351C375.82 82.9365 376.24 82.7871 376.781 82.7871C377.323 82.7871 377.743 82.9365 378.041 83.2351C378.34 83.5338 378.489 83.9725 378.489 84.5511V86.4551L378.181 85.7551C378.592 84.7658 379.227 84.0191 380.085 83.5151C380.963 82.9925 381.952 82.7311 383.053 82.7311C384.155 82.7311 385.06 82.9365 385.769 83.3471C386.479 83.7578 387.011 84.3831 387.365 85.2231C387.72 86.0445 387.897 87.0898 387.897 88.3591V95.1351C387.897 95.7138 387.748 96.1618 387.449 96.4791C387.151 96.7778 386.721 96.9271 386.161 96.9271C385.601 96.9271 385.163 96.7778 384.845 96.4791C384.547 96.1618 384.397 95.7138 384.397 95.1351V88.5271C384.397 87.4631 384.192 86.6885 383.781 86.2031C383.389 85.7178 382.773 85.4751 381.933 85.4751C380.907 85.4751 380.085 85.8018 379.469 86.4551C378.872 87.0898 378.573 87.9391 378.573 89.0031V95.1351C378.573 96.3298 377.985 96.9271 376.809 96.9271Z" fill="#32264C"/>
<g filter="url(#filter1_d_5084_4346)">
<rect x="32.8867" y="300.914" width="550.851" height="531.119" rx="20" fill="white"/>
</g>
<circle cx="73.9898" cy="462.056" r="19.732" fill="#F0ECE4"/>
<path fill-rule="evenodd" clip-rule="evenodd" d="M68.418 454.09C67.4014 454.09 66.5778 454.914 66.5778 455.931C66.5778 456.948 67.4014 457.772 68.418 457.772C69.4345 457.772 70.2581 456.948 70.2581 455.931C70.2581 454.914 69.4345 454.09 68.418 454.09ZM78.9998 454.09C77.9837 454.09 77.1596 454.914 77.1596 455.931C77.1596 456.948 77.9837 457.772 78.9998 457.772C80.0163 457.772 80.8399 456.948 80.8399 455.931C80.8399 454.914 80.0163 454.09 78.9998 454.09ZM66.1018 463.52C65.6769 463.52 65.332 463.864 65.332 464.29C65.332 467.827 68.4514 470.706 72.2837 470.706H75.3746C79.2074 470.706 82.3263 467.827 82.3263 464.29C82.3263 463.864 81.9814 463.52 81.5565 463.52H66.1018ZM66.9386 465.06H80.7197C80.3086 467.384 78.0682 469.167 75.3746 469.167H72.2837C69.5901 469.167 67.3497 467.384 66.9386 465.06Z" fill="#32264C" fill-opacity="0.6"/>
<circle cx="73.9898" cy="527.83" r="19.732" fill="#F0ECE4"/>
<path fill-rule="evenodd" clip-rule="evenodd" d="M67.9996 519.863C66.9086 519.863 66.0234 520.747 66.0234 521.838C66.0234 522.93 66.9086 523.816 67.9996 523.816C69.0907 523.816 69.9758 522.93 69.9758 521.838C69.9758 520.747 69.0907 519.863 67.9996 519.863ZM79.3606 519.863C78.2696 519.863 77.3845 520.747 77.3845 521.838C77.3845 522.93 78.2696 523.816 79.3606 523.816C80.4523 523.816 81.3358 522.93 81.3358 521.838C81.3358 520.747 80.4523 519.863 79.3606 519.863ZM66.984 529.437C66.5345 529.437 66.1697 529.801 66.1697 530.251C66.1697 533.685 68.9975 536.48 72.4726 536.48H75.2164C78.7506 536.48 81.5192 533.777 81.5192 530.327C81.5192 529.877 81.155 529.513 80.705 529.513C80.2555 529.513 79.8907 529.877 79.8907 530.327C79.8907 532.864 77.8376 534.851 75.2164 534.851H72.4726C69.8513 534.851 67.7982 532.83 67.7982 530.251C67.7982 529.801 67.4334 529.437 66.984 529.437Z" fill="#32264C" fill-opacity="0.6"/>
<circle cx="73.9898" cy="593.603" r="19.732" fill="#F0ECE4"/>
<path fill-rule="evenodd" clip-rule="evenodd" d="M66.8208 585.637C65.6149 585.637 64.6367 586.615 64.6367 587.822C64.6367 589.029 65.6149 590.007 66.8208 590.007C68.028 590.007 69.0061 589.029 69.0061 587.822C69.0061 586.615 68.028 585.637 66.8208 585.637ZM79.3819 585.637C78.1759 585.637 77.1966 586.615 77.1966 587.822C77.1966 589.029 78.1759 590.007 79.3819 590.007C80.5884 590.007 81.566 589.029 81.566 587.822C81.566 586.615 80.5884 585.637 79.3819 585.637ZM70.693 596.597C67.6647 596.55 65.3349 598.794 65.2375 598.891C64.8787 599.245 64.8753 599.82 65.228 600.18C65.5806 600.539 66.1587 600.545 66.5187 600.193C66.5376 600.174 68.423 598.354 70.6644 598.424C71.8844 598.454 73.0288 599.039 74.0679 600.162C75.3537 601.551 76.7345 602.253 78.1756 602.253C78.3102 602.253 78.4442 602.246 78.5801 602.234C81.3788 601.981 83.2183 599.136 83.2957 599.015C83.5655 598.59 83.4412 598.028 83.0173 597.756C82.5928 597.484 82.0286 597.608 81.7563 598.032C81.7417 598.055 80.3097 600.248 78.4088 600.415C77.4245 600.499 76.4081 599.999 75.4086 598.92C74.0174 597.417 72.4301 596.635 70.693 596.597Z" fill="#32264C" fill-opacity="0.6"/>
<circle cx="73.9898" cy="659.376" r="19.732" fill="#F0ECE4"/>
<path fill-rule="evenodd" clip-rule="evenodd" d="M67.9844 651.41C66.9017 651.41 66.0234 652.287 66.0234 653.37C66.0234 654.453 66.9017 655.332 67.9844 655.332C69.067 655.332 69.9453 654.453 69.9453 653.37C69.9453 652.287 69.067 651.41 67.9844 651.41ZM79.2576 651.41C78.175 651.41 77.2967 652.287 77.2967 653.37C77.2967 654.453 78.175 655.332 79.2576 655.332C80.3408 655.332 81.2175 654.453 81.2175 653.37C81.2175 652.287 80.3408 651.41 79.2576 651.41ZM72.4228 660.894C68.9745 660.894 66.1686 663.731 66.1686 667.219C66.1686 667.665 66.5306 668.027 66.9766 668.027C67.4225 668.027 67.7845 667.665 67.7845 667.219C67.7845 664.622 69.8654 662.51 72.4228 662.51H75.1454C77.7027 662.51 79.7836 664.607 79.7836 667.184C79.7836 667.63 80.1456 667.993 80.5916 667.993C81.0381 667.993 81.3995 667.63 81.3995 667.184C81.3995 663.716 78.5936 660.894 75.1454 660.894H72.4228Z" fill="#32264C" fill-opacity="0.6"/>
<circle cx="73.9898" cy="725.15" r="19.732" fill="#F0ECE4"/>
<path fill-rule="evenodd" clip-rule="evenodd" d="M65.489 717.187C65.2144 717.211 64.9558 717.366 64.8112 717.625C64.5805 718.04 64.7305 718.563 65.1445 718.794L67.8008 720.274L65.1714 721.346C64.7327 721.525 64.5213 722.027 64.7005 722.466C64.8362 722.799 65.1578 723 65.4968 723C65.6045 723 65.7141 722.981 65.8201 722.938L70.107 721.19C70.4134 721.065 70.6199 720.775 70.6394 720.445C70.6594 720.115 70.489 719.803 70.201 719.643L65.98 717.293C65.825 717.206 65.6538 717.172 65.489 717.187ZM81.722 717.187C81.5572 717.173 81.3869 717.206 81.2321 717.293L77.0111 719.643C76.7345 719.797 76.5653 720.091 76.5705 720.408C76.575 720.725 76.7546 721.012 77.0357 721.157L81.2567 723.329C81.3827 723.394 81.5164 723.425 81.6493 723.425C81.9608 723.425 82.2614 723.254 82.4143 722.959C82.6313 722.537 82.4644 722.018 82.0429 721.801L79.2491 720.364L82.0676 718.794C82.4821 718.563 82.6311 718.04 82.3997 717.625C82.2551 717.366 81.9966 717.21 81.722 717.187ZM69.1608 730.198C68.9682 730.199 68.7761 730.266 68.6195 730.397L66.3592 732.28C65.995 732.584 65.9449 733.127 66.2484 733.491C66.4185 733.695 66.6638 733.8 66.9094 733.8C67.103 733.8 67.2982 733.735 67.4586 733.601L69.1798 732.166L70.9872 733.612C71.3119 733.871 71.7751 733.861 72.0878 733.589L73.6894 732.195L75.2921 733.589C75.6007 733.857 76.0562 733.871 76.3803 733.622L78.2593 732.176L79.7994 733.576C80.1504 733.895 80.6933 733.87 81.0129 733.519C81.3318 733.168 81.3057 732.624 80.9547 732.305L78.8834 730.421C78.5753 730.141 78.1116 730.122 77.7817 730.375L75.8893 731.832L74.2542 730.409C73.9306 730.127 73.4498 730.127 73.1268 730.409L71.5006 731.821L69.7055 730.385C69.5469 730.258 69.3535 730.196 69.1608 730.198Z" fill="#32264C" fill-opacity="0.6"/>
<g opacity="0.6">
<line opacity="0.5" x1="115.102" y1="693.41" x2="542.627" y2="693.41" stroke="#32264C" stroke-opacity="0.2" stroke-dasharray="4 4"/>
<line opacity="0.5" x1="115.102" y1="627.637" x2="542.627" y2="627.637" stroke="#32264C" stroke-opacity="0.2" stroke-dasharray="4 4"/>
<line opacity="0.5" x1="115.102" y1="561.863" x2="542.627" y2="561.863" stroke="#32264C" stroke-opacity="0.2" stroke-dasharray="4 4"/>
<line opacity="0.5" x1="115.102" y1="496.09" x2="542.627" y2="496.09" stroke="#32264C" stroke-opacity="0.2" stroke-dasharray="4 4"/>
<line opacity="0.5" x1="115.102" y1="430.316" x2="542.627" y2="430.316" stroke="#32264C" stroke-opacity="0.2" stroke-dasharray="4 4"/>
</g>
<line opacity="0.5" x1="115.102" y1="759.184" x2="542.627" y2="759.184" stroke="#32264C" stroke-opacity="0.2"/>
<line opacity="0.5" x1="114.602" y1="759.684" x2="114.602" y2="429.173" stroke="#32264C" stroke-opacity="0.2"/>
<path opacity="0.5" d="M143.579 787.836C143.29 787.836 143.066 787.757 142.907 787.598C142.748 787.43 142.669 787.201 142.669 786.912V778.834C142.669 778.535 142.744 778.311 142.893 778.162C143.052 778.003 143.276 777.924 143.565 777.924C143.854 777.924 144.074 778.003 144.223 778.162C144.382 778.311 144.461 778.535 144.461 778.834V786.31H148.521C148.773 786.31 148.964 786.375 149.095 786.506C149.235 786.637 149.305 786.823 149.305 787.066C149.305 787.309 149.235 787.5 149.095 787.64C148.964 787.771 148.773 787.836 148.521 787.836H143.579Z" fill="#32264C" fill-opacity="0.8"/>
<path opacity="0.5" d="M202.202 787.948C201.941 787.948 201.74 787.873 201.6 787.724C201.46 787.575 201.39 787.369 201.39 787.108V778.694C201.39 778.423 201.465 778.218 201.614 778.078C201.764 777.929 201.969 777.854 202.23 777.854C202.464 777.854 202.646 777.901 202.776 777.994C202.916 778.078 203.042 778.227 203.154 778.442L206.612 784.84H206.164L209.622 778.442C209.734 778.227 209.856 778.078 209.986 777.994C210.117 777.901 210.299 777.854 210.532 777.854C210.794 777.854 210.994 777.929 211.134 778.078C211.274 778.218 211.344 778.423 211.344 778.694V787.108C211.344 787.369 211.274 787.575 211.134 787.724C211.004 787.873 210.803 787.948 210.532 787.948C210.271 787.948 210.07 787.873 209.93 787.724C209.79 787.575 209.72 787.369 209.72 787.108V780.626H210.028L207.088 785.988C206.995 786.147 206.897 786.263 206.794 786.338C206.692 786.413 206.552 786.45 206.374 786.45C206.197 786.45 206.052 786.413 205.94 786.338C205.828 786.254 205.73 786.137 205.646 785.988L202.678 780.612H203.014V787.108C203.014 787.369 202.944 787.575 202.804 787.724C202.674 787.873 202.473 787.948 202.202 787.948Z" fill="#32264C" fill-opacity="0.8"/>
<path opacity="0.5" d="M263.042 787.948C262.781 787.948 262.58 787.873 262.44 787.724C262.3 787.575 262.23 787.369 262.23 787.108V778.694C262.23 778.423 262.305 778.218 262.454 778.078C262.604 777.929 262.809 777.854 263.07 777.854C263.304 777.854 263.486 777.901 263.616 777.994C263.756 778.078 263.882 778.227 263.994 778.442L267.452 784.84H267.004L270.462 778.442C270.574 778.227 270.696 778.078 270.826 777.994C270.957 777.901 271.139 777.854 271.372 777.854C271.634 777.854 271.834 777.929 271.974 778.078C272.114 778.218 272.184 778.423 272.184 778.694V787.108C272.184 787.369 272.114 787.575 271.974 787.724C271.844 787.873 271.643 787.948 271.372 787.948C271.111 787.948 270.91 787.873 270.77 787.724C270.63 787.575 270.56 787.369 270.56 787.108V780.626H270.868L267.928 785.988C267.835 786.147 267.737 786.263 267.634 786.338C267.532 786.413 267.392 786.45 267.214 786.45C267.037 786.45 266.892 786.413 266.78 786.338C266.668 786.254 266.57 786.137 266.486 785.988L263.518 780.612H263.854V787.108C263.854 787.369 263.784 787.575 263.644 787.724C263.514 787.873 263.313 787.948 263.042 787.948Z" fill="#32264C" fill-opacity="0.8"/>
<path opacity="0.5" d="M326.211 787.934C325.949 787.943 325.744 787.873 325.595 787.724C325.445 787.575 325.371 787.383 325.371 787.15C325.371 786.973 325.427 786.819 325.539 786.688C325.641 786.548 325.795 786.473 326.001 786.464L326.421 786.436C326.831 786.408 327.139 786.282 327.345 786.058C327.559 785.825 327.667 785.493 327.667 785.064V778.764C327.667 778.465 327.741 778.241 327.891 778.092C328.049 777.933 328.273 777.854 328.563 777.854C328.852 777.854 329.071 777.933 329.221 778.092C329.379 778.241 329.459 778.465 329.459 778.764V785.05C329.459 785.638 329.351 786.137 329.137 786.548C328.931 786.959 328.623 787.281 328.213 787.514C327.802 787.738 327.293 787.869 326.687 787.906L326.211 787.934Z" fill="#32264C" fill-opacity="0.8"/>
<path opacity="0.5" d="M388.889 787.948C388.637 787.948 388.427 787.892 388.259 787.78C388.1 787.659 387.969 787.481 387.867 787.248L384.213 779.044C384.11 778.811 384.082 778.605 384.129 778.428C384.175 778.251 384.273 778.111 384.423 778.008C384.572 777.905 384.749 777.854 384.955 777.854C385.225 777.854 385.426 777.915 385.557 778.036C385.697 778.148 385.813 778.321 385.907 778.554L389.225 786.24H388.623L391.927 778.54C392.029 778.316 392.151 778.148 392.291 778.036C392.431 777.915 392.627 777.854 392.879 777.854C393.084 777.854 393.252 777.905 393.383 778.008C393.523 778.111 393.611 778.251 393.649 778.428C393.686 778.605 393.653 778.811 393.551 779.044L389.897 787.248C389.794 787.481 389.663 787.659 389.505 787.78C389.355 787.892 389.15 787.948 388.889 787.948Z" fill="#32264C" fill-opacity="0.8"/>
<path opacity="0.5" d="M449.785 787.976C449.374 787.976 448.964 787.943 448.553 787.878C448.142 787.822 447.755 787.733 447.391 787.612C447.027 787.481 446.7 787.323 446.411 787.136C446.243 787.024 446.126 786.889 446.061 786.73C445.996 786.571 445.972 786.417 445.991 786.268C446.019 786.109 446.08 785.974 446.173 785.862C446.276 785.741 446.402 785.666 446.551 785.638C446.7 785.61 446.864 785.652 447.041 785.764C447.452 786.007 447.886 786.184 448.343 786.296C448.8 786.408 449.281 786.464 449.785 786.464C450.522 786.464 451.059 786.343 451.395 786.1C451.731 785.848 451.899 785.526 451.899 785.134C451.899 784.807 451.778 784.551 451.535 784.364C451.302 784.177 450.896 784.023 450.317 783.902L448.777 783.58C447.89 783.393 447.228 783.081 446.789 782.642C446.36 782.194 446.145 781.606 446.145 780.878C446.145 780.421 446.238 780.005 446.425 779.632C446.612 779.259 446.873 778.937 447.209 778.666C447.554 778.395 447.96 778.19 448.427 778.05C448.903 777.901 449.426 777.826 449.995 777.826C450.555 777.826 451.087 777.896 451.591 778.036C452.095 778.176 452.548 778.381 452.949 778.652C453.098 778.755 453.196 778.881 453.243 779.03C453.299 779.179 453.313 779.329 453.285 779.478C453.257 779.618 453.192 779.739 453.089 779.842C452.986 779.945 452.856 780.005 452.697 780.024C452.548 780.043 452.375 779.996 452.179 779.884C451.834 779.688 451.484 779.548 451.129 779.464C450.774 779.38 450.392 779.338 449.981 779.338C449.552 779.338 449.183 779.399 448.875 779.52C448.567 779.641 448.329 779.814 448.161 780.038C448.002 780.253 447.923 780.509 447.923 780.808C447.923 781.144 448.035 781.415 448.259 781.62C448.483 781.816 448.866 781.97 449.407 782.082L450.933 782.404C451.857 782.6 452.543 782.908 452.991 783.328C453.448 783.748 453.677 784.308 453.677 785.008C453.677 785.456 453.584 785.862 453.397 786.226C453.22 786.59 452.958 786.903 452.613 787.164C452.277 787.425 451.871 787.626 451.395 787.766C450.919 787.906 450.382 787.976 449.785 787.976Z" fill="#32264C" fill-opacity="0.8"/>
<path opacity="0.5" d="M507.263 787.836C506.955 787.836 506.717 787.757 506.549 787.598C506.39 787.43 506.311 787.192 506.311 786.884V778.918C506.311 778.61 506.39 778.377 506.549 778.218C506.717 778.05 506.955 777.966 507.263 777.966H509.979C511.631 777.966 512.905 778.391 513.801 779.24C514.706 780.089 515.159 781.307 515.159 782.894C515.159 783.687 515.042 784.392 514.809 785.008C514.585 785.615 514.249 786.128 513.801 786.548C513.362 786.968 512.821 787.29 512.177 787.514C511.542 787.729 510.809 787.836 509.979 787.836H507.263ZM508.103 786.352H509.867C510.445 786.352 510.945 786.282 511.365 786.142C511.794 785.993 512.149 785.778 512.429 785.498C512.718 785.209 512.933 784.849 513.073 784.42C513.213 783.981 513.283 783.473 513.283 782.894C513.283 781.737 512.998 780.873 512.429 780.304C511.859 779.735 511.005 779.45 509.867 779.45H508.103V786.352Z" fill="#32264C" fill-opacity="0.8"/>
<path opacity="0.4" d="M189.896 528.392C151.836 528.392 139.825 724.618 140.584 761.325H540.979V452.191C499.836 452.191 476.979 494.622 458.694 537.052C431.503 600.146 417.499 683.393 397.437 683.393C364.396 683.393 363.609 521.465 325.209 521.465C294.124 521.465 279.495 617.582 256.638 627.108C227.381 627.108 219.523 528.392 189.896 528.392Z" fill="url(#paint0_linear_5084_4346)"/>
<path d="M139.762 759.683C139.003 723.17 150.192 527.989 188.252 527.989C217.879 527.989 225.737 626.179 254.994 626.179C277.851 616.705 292.479 521.099 323.565 521.099C361.964 521.099 362.752 682.165 395.793 682.165C415.855 682.165 429.859 599.361 457.049 536.602C475.335 494.398 499.836 451.371 540.979 451.371" stroke="#FFA191" stroke-width="2"/>
<line opacity="0.5" x1="33.625" y1="391.391" x2="584.476" y2="391.391" stroke="#F0ECE4"/>
<path d="M535.292 354.645C535.379 354.733 535.498 354.782 535.621 354.783C535.683 354.784 535.744 354.772 535.8 354.748C535.857 354.724 535.908 354.689 535.95 354.645L543.712 346.896C543.756 346.853 543.79 346.801 543.814 346.745C543.838 346.689 543.85 346.628 543.85 346.567C543.85 346.506 543.838 346.445 543.814 346.389C543.79 346.332 543.756 346.281 543.712 346.238L535.95 338.487C535.908 338.442 535.856 338.405 535.799 338.38C535.742 338.355 535.681 338.341 535.618 338.34C535.556 338.339 535.494 338.35 535.436 338.374C535.378 338.397 535.325 338.432 535.281 338.476C535.237 338.52 535.202 338.573 535.179 338.631C535.155 338.688 535.144 338.75 535.145 338.813C535.146 338.875 535.159 338.937 535.185 338.994C535.21 339.051 535.246 339.102 535.292 339.144L542.725 346.567L535.292 353.988C535.249 354.031 535.214 354.082 535.191 354.138C535.167 354.195 535.155 354.255 535.155 354.316C535.155 354.378 535.167 354.438 535.191 354.494C535.214 354.551 535.249 354.602 535.292 354.645Z" fill="#32264C" stroke="#32264C"/>
<path d="M456.559 338.476C456.472 338.388 456.354 338.339 456.23 338.338C456.169 338.337 456.108 338.349 456.051 338.373C455.995 338.397 455.944 338.432 455.901 338.476L448.139 346.225C448.096 346.268 448.061 346.32 448.038 346.376C448.014 346.432 448.002 346.493 448.002 346.554C448.002 346.615 448.014 346.676 448.038 346.732C448.061 346.789 448.096 346.84 448.139 346.883L455.901 354.634C455.944 354.679 455.995 354.716 456.052 354.741C456.109 354.767 456.171 354.78 456.233 354.781C456.296 354.782 456.358 354.771 456.416 354.747C456.474 354.724 456.526 354.689 456.571 354.645C456.615 354.601 456.65 354.548 456.673 354.491C456.696 354.433 456.708 354.371 456.707 354.308C456.706 354.246 456.692 354.185 456.667 354.128C456.642 354.071 456.605 354.019 456.559 353.977L449.127 346.554L456.559 339.133C456.603 339.09 456.637 339.039 456.661 338.983C456.684 338.926 456.696 338.866 456.696 338.805C456.696 338.744 456.684 338.683 456.661 338.627C456.637 338.57 456.603 338.519 456.559 338.476Z" fill="#32264C" stroke="#32264C"/>
<rect x="52.2109" y="319.105" width="186.454" height="54.9072" rx="27.4536" stroke="#32264C"/>
<path d="M200.892 343.984C200.813 344.063 200.768 344.169 200.767 344.281C200.767 344.336 200.778 344.391 200.799 344.442C200.82 344.493 200.852 344.539 200.892 344.577L207.866 351.562C207.905 351.602 207.951 351.633 208.002 351.654C208.052 351.675 208.107 351.686 208.162 351.686C208.217 351.686 208.272 351.675 208.322 351.654C208.373 351.633 208.419 351.602 208.458 351.562L215.434 344.577C215.475 344.538 215.508 344.492 215.53 344.441C215.553 344.389 215.565 344.334 215.566 344.278C215.567 344.222 215.557 344.166 215.536 344.114C215.515 344.061 215.484 344.014 215.444 343.974C215.404 343.935 215.357 343.903 215.305 343.882C215.253 343.861 215.197 343.851 215.141 343.852C215.085 343.853 215.029 343.865 214.978 343.888C214.927 343.91 214.881 343.943 214.842 343.984L208.162 350.674L201.483 343.984C201.444 343.945 201.398 343.914 201.348 343.893C201.297 343.872 201.242 343.861 201.187 343.861C201.132 343.861 201.078 343.872 201.027 343.893C200.977 343.914 200.93 343.945 200.892 343.984Z" fill="#32264C" stroke="#32264C"/>
<path d="M107.977 351.646C107.538 351.646 107.109 351.608 106.689 351.534C106.269 351.459 105.877 351.352 105.513 351.212C105.158 351.072 104.836 350.894 104.547 350.68C104.435 350.596 104.356 350.502 104.309 350.4C104.272 350.288 104.262 350.18 104.281 350.078C104.309 349.966 104.356 349.872 104.421 349.798C104.496 349.723 104.584 349.681 104.687 349.672C104.79 349.662 104.902 349.695 105.023 349.77C105.443 350.068 105.891 350.288 106.367 350.428C106.843 350.558 107.38 350.624 107.977 350.624C108.817 350.624 109.438 350.47 109.839 350.162C110.25 349.844 110.455 349.429 110.455 348.916C110.455 348.496 110.306 348.169 110.007 347.936C109.718 347.693 109.228 347.502 108.537 347.362L107.081 347.068C106.204 346.881 105.546 346.578 105.107 346.158C104.678 345.728 104.463 345.159 104.463 344.45C104.463 344.011 104.552 343.614 104.729 343.26C104.906 342.896 105.154 342.588 105.471 342.336C105.788 342.074 106.166 341.874 106.605 341.734C107.044 341.594 107.529 341.524 108.061 341.524C108.649 341.524 109.195 341.608 109.699 341.776C110.212 341.934 110.674 342.177 111.085 342.504C111.188 342.588 111.258 342.686 111.295 342.798C111.332 342.9 111.337 343.003 111.309 343.106C111.281 343.199 111.23 343.278 111.155 343.344C111.09 343.409 111.001 343.446 110.889 343.456C110.786 343.465 110.67 343.428 110.539 343.344C110.166 343.064 109.778 342.863 109.377 342.742C108.976 342.611 108.532 342.546 108.047 342.546C107.552 342.546 107.123 342.62 106.759 342.77C106.404 342.919 106.124 343.138 105.919 343.428C105.723 343.708 105.625 344.034 105.625 344.408C105.625 344.856 105.76 345.21 106.031 345.472C106.311 345.733 106.764 345.924 107.389 346.046L108.845 346.354C109.788 346.55 110.483 346.848 110.931 347.25C111.388 347.642 111.617 348.178 111.617 348.86C111.617 349.27 111.533 349.648 111.365 349.994C111.197 350.339 110.954 350.638 110.637 350.89C110.32 351.132 109.937 351.319 109.489 351.45C109.041 351.58 108.537 351.646 107.977 351.646ZM116.31 351.646C115.592 351.646 114.971 351.506 114.448 351.226C113.935 350.936 113.534 350.53 113.244 350.008C112.964 349.485 112.824 348.86 112.824 348.132C112.824 347.422 112.964 346.806 113.244 346.284C113.524 345.752 113.907 345.336 114.392 345.038C114.887 344.739 115.456 344.59 116.1 344.59C116.558 344.59 116.968 344.669 117.332 344.828C117.696 344.977 118.004 345.196 118.256 345.486C118.518 345.775 118.714 346.125 118.844 346.536C118.984 346.946 119.054 347.408 119.054 347.922C119.054 348.071 119.012 348.183 118.928 348.258C118.844 348.323 118.723 348.356 118.564 348.356H113.692V347.614H118.298L118.074 347.796C118.074 347.292 118 346.867 117.85 346.522C117.701 346.167 117.482 345.896 117.192 345.71C116.912 345.523 116.558 345.43 116.128 345.43C115.652 345.43 115.246 345.542 114.91 345.766C114.584 345.98 114.336 346.284 114.168 346.676C114 347.058 113.916 347.506 113.916 348.02V348.104C113.916 348.962 114.122 349.616 114.532 350.064C114.952 350.512 115.545 350.736 116.31 350.736C116.628 350.736 116.94 350.694 117.248 350.61C117.566 350.526 117.874 350.386 118.172 350.19C118.303 350.106 118.42 350.068 118.522 350.078C118.634 350.078 118.723 350.11 118.788 350.176C118.854 350.232 118.896 350.306 118.914 350.4C118.942 350.484 118.933 350.577 118.886 350.68C118.849 350.782 118.77 350.871 118.648 350.946C118.34 351.17 117.976 351.342 117.556 351.464C117.136 351.585 116.721 351.646 116.31 351.646ZM121.284 351.618C121.097 351.618 120.957 351.566 120.864 351.464C120.77 351.361 120.724 351.216 120.724 351.03V345.192C120.724 345.005 120.77 344.865 120.864 344.772C120.957 344.669 121.092 344.618 121.27 344.618C121.447 344.618 121.582 344.669 121.676 344.772C121.778 344.865 121.83 345.005 121.83 345.192V346.424L121.676 346.228C121.853 345.705 122.138 345.304 122.53 345.024C122.931 344.734 123.407 344.59 123.958 344.59C124.536 344.59 125.003 344.73 125.358 345.01C125.722 345.28 125.964 345.705 126.086 346.284H125.876C126.044 345.761 126.342 345.35 126.772 345.052C127.21 344.744 127.719 344.59 128.298 344.59C128.811 344.59 129.231 344.688 129.558 344.884C129.894 345.08 130.146 345.378 130.314 345.78C130.482 346.172 130.566 346.671 130.566 347.278V351.03C130.566 351.216 130.514 351.361 130.412 351.464C130.318 351.566 130.178 351.618 129.992 351.618C129.814 351.618 129.674 351.566 129.572 351.464C129.478 351.361 129.432 351.216 129.432 351.03V347.334C129.432 346.708 129.324 346.251 129.11 345.962C128.895 345.663 128.531 345.514 128.018 345.514C127.458 345.514 127.014 345.71 126.688 346.102C126.37 346.484 126.212 347.007 126.212 347.67V351.03C126.212 351.216 126.16 351.361 126.058 351.464C125.964 351.566 125.824 351.618 125.638 351.618C125.46 351.618 125.32 351.566 125.218 351.464C125.124 351.361 125.078 351.216 125.078 351.03V347.334C125.078 346.708 124.966 346.251 124.742 345.962C124.527 345.663 124.168 345.514 123.664 345.514C123.104 345.514 122.66 345.71 122.334 346.102C122.016 346.484 121.858 347.007 121.858 347.67V351.03C121.858 351.422 121.666 351.618 121.284 351.618ZM134.828 351.646C134.361 351.646 133.941 351.557 133.568 351.38C133.204 351.193 132.914 350.941 132.7 350.624C132.485 350.306 132.378 349.952 132.378 349.56C132.378 349.056 132.504 348.659 132.756 348.37C133.017 348.08 133.442 347.875 134.03 347.754C134.627 347.632 135.439 347.572 136.466 347.572H137.096V348.314H136.48C135.724 348.314 135.126 348.351 134.688 348.426C134.258 348.491 133.955 348.608 133.778 348.776C133.61 348.944 133.526 349.182 133.526 349.49C133.526 349.872 133.656 350.185 133.918 350.428C134.188 350.67 134.552 350.792 135.01 350.792C135.383 350.792 135.71 350.703 135.99 350.526C136.279 350.348 136.503 350.106 136.662 349.798C136.83 349.49 136.914 349.135 136.914 348.734V347.138C136.914 346.559 136.797 346.144 136.564 345.892C136.33 345.63 135.948 345.5 135.416 345.5C135.089 345.5 134.762 345.542 134.436 345.626C134.109 345.71 133.764 345.845 133.4 346.032C133.269 346.097 133.157 346.12 133.064 346.102C132.97 346.074 132.896 346.022 132.84 345.948C132.784 345.873 132.751 345.789 132.742 345.696C132.732 345.593 132.751 345.495 132.798 345.402C132.854 345.308 132.938 345.234 133.05 345.178C133.46 344.972 133.866 344.823 134.268 344.73C134.669 344.636 135.052 344.59 135.416 344.59C136.004 344.59 136.489 344.688 136.872 344.884C137.254 345.07 137.539 345.36 137.726 345.752C137.912 346.134 138.006 346.629 138.006 347.236V351.03C138.006 351.216 137.959 351.361 137.866 351.464C137.782 351.566 137.656 351.618 137.488 351.618C137.31 351.618 137.175 351.566 137.082 351.464C136.988 351.361 136.942 351.216 136.942 351.03V349.938H137.068C136.993 350.292 136.848 350.596 136.634 350.848C136.428 351.1 136.172 351.296 135.864 351.436C135.556 351.576 135.21 351.646 134.828 351.646ZM140.67 351.618C140.483 351.618 140.343 351.566 140.25 351.464C140.156 351.361 140.11 351.216 140.11 351.03V345.192C140.11 345.005 140.156 344.865 140.25 344.772C140.343 344.669 140.478 344.618 140.656 344.618C140.833 344.618 140.968 344.669 141.062 344.772C141.164 344.865 141.216 345.005 141.216 345.192V346.396L141.062 346.228C141.258 345.686 141.575 345.28 142.014 345.01C142.462 344.73 142.975 344.59 143.554 344.59C144.095 344.59 144.543 344.688 144.898 344.884C145.262 345.08 145.532 345.378 145.71 345.78C145.887 346.172 145.976 346.671 145.976 347.278V351.03C145.976 351.216 145.924 351.361 145.822 351.464C145.728 351.566 145.593 351.618 145.416 351.618C145.229 351.618 145.084 351.566 144.982 351.464C144.888 351.361 144.842 351.216 144.842 351.03V347.348C144.842 346.713 144.716 346.251 144.464 345.962C144.221 345.663 143.829 345.514 143.288 345.514C142.662 345.514 142.163 345.71 141.79 346.102C141.426 346.484 141.244 346.998 141.244 347.642V351.03C141.244 351.422 141.052 351.618 140.67 351.618ZM150.209 351.646C149.742 351.646 149.322 351.557 148.949 351.38C148.585 351.193 148.295 350.941 148.081 350.624C147.866 350.306 147.759 349.952 147.759 349.56C147.759 349.056 147.885 348.659 148.137 348.37C148.398 348.08 148.823 347.875 149.411 347.754C150.008 347.632 150.82 347.572 151.847 347.572H152.477V348.314H151.861C151.105 348.314 150.507 348.351 150.069 348.426C149.639 348.491 149.336 348.608 149.159 348.776C148.991 348.944 148.907 349.182 148.907 349.49C148.907 349.872 149.037 350.185 149.299 350.428C149.569 350.67 149.933 350.792 150.391 350.792C150.764 350.792 151.091 350.703 151.371 350.526C151.66 350.348 151.884 350.106 152.043 349.798C152.211 349.49 152.295 349.135 152.295 348.734V347.138C152.295 346.559 152.178 346.144 151.945 345.892C151.711 345.63 151.329 345.5 150.797 345.5C150.47 345.5 150.143 345.542 149.817 345.626C149.49 345.71 149.145 345.845 148.781 346.032C148.65 346.097 148.538 346.12 148.445 346.102C148.351 346.074 148.277 346.022 148.221 345.948C148.165 345.873 148.132 345.789 148.123 345.696C148.113 345.593 148.132 345.495 148.179 345.402C148.235 345.308 148.319 345.234 148.431 345.178C148.841 344.972 149.247 344.823 149.649 344.73C150.05 344.636 150.433 344.59 150.797 344.59C151.385 344.59 151.87 344.688 152.253 344.884C152.635 345.07 152.92 345.36 153.107 345.752C153.293 346.134 153.387 346.629 153.387 347.236V351.03C153.387 351.216 153.34 351.361 153.247 351.464C153.163 351.566 153.037 351.618 152.869 351.618C152.691 351.618 152.556 351.566 152.463 351.464C152.369 351.361 152.323 351.216 152.323 351.03V349.938H152.449C152.374 350.292 152.229 350.596 152.015 350.848C151.809 351.1 151.553 351.296 151.245 351.436C150.937 351.576 150.591 351.646 150.209 351.646Z" fill="#32264C"/>
<path d="M493.02 353.29C492.478 353.29 491.932 353.211 491.382 353.052C490.84 352.893 490.369 352.66 489.968 352.352C489.846 352.268 489.767 352.175 489.73 352.072C489.692 351.96 489.683 351.857 489.702 351.764C489.73 351.661 489.781 351.577 489.856 351.512C489.93 351.437 490.019 351.395 490.122 351.386C490.234 351.377 490.355 351.414 490.486 351.498C490.896 351.769 491.307 351.965 491.718 352.086C492.128 352.207 492.553 352.268 492.992 352.268C493.468 352.268 493.869 352.198 494.196 352.058C494.522 351.918 494.77 351.713 494.938 351.442C495.106 351.162 495.19 350.821 495.19 350.42C495.19 349.841 494.998 349.403 494.616 349.104C494.233 348.805 493.678 348.656 492.95 348.656H491.956C491.778 348.656 491.643 348.614 491.55 348.53C491.456 348.437 491.41 348.311 491.41 348.152C491.41 348.003 491.456 347.886 491.55 347.802C491.643 347.709 491.778 347.662 491.956 347.662H492.852C493.281 347.662 493.645 347.587 493.944 347.438C494.252 347.289 494.49 347.079 494.658 346.808C494.826 346.528 494.91 346.192 494.91 345.8C494.91 345.277 494.742 344.881 494.406 344.61C494.07 344.33 493.584 344.19 492.95 344.19C492.53 344.19 492.133 344.251 491.76 344.372C491.386 344.493 491.018 344.699 490.654 344.988C490.542 345.072 490.43 345.114 490.318 345.114C490.215 345.105 490.126 345.072 490.052 345.016C489.986 344.951 489.935 344.867 489.898 344.764C489.87 344.661 489.874 344.559 489.912 344.456C489.949 344.344 490.028 344.241 490.15 344.148C490.523 343.831 490.962 343.588 491.466 343.42C491.97 343.252 492.488 343.168 493.02 343.168C493.654 343.168 494.196 343.271 494.644 343.476C495.101 343.672 495.451 343.961 495.694 344.344C495.936 344.717 496.058 345.17 496.058 345.702C496.058 346.103 495.978 346.472 495.82 346.808C495.67 347.135 495.456 347.415 495.176 347.648C494.905 347.881 494.574 348.049 494.182 348.152V347.998C494.863 348.11 495.39 348.39 495.764 348.838C496.146 349.277 496.338 349.832 496.338 350.504C496.338 351.073 496.202 351.568 495.932 351.988C495.67 352.399 495.292 352.721 494.798 352.954C494.303 353.178 493.71 353.29 493.02 353.29ZM499.132 353.164C498.927 353.164 498.773 353.117 498.67 353.024C498.577 352.921 498.53 352.786 498.53 352.618C498.53 352.515 498.554 352.417 498.6 352.324C498.656 352.221 498.731 352.119 498.824 352.016L501.96 348.656C502.436 348.143 502.777 347.671 502.982 347.242C503.197 346.803 503.304 346.36 503.304 345.912C503.304 345.352 503.132 344.927 502.786 344.638C502.45 344.339 501.956 344.19 501.302 344.19C500.882 344.19 500.486 344.255 500.112 344.386C499.739 344.517 499.38 344.717 499.034 344.988C498.913 345.081 498.801 345.123 498.698 345.114C498.605 345.105 498.521 345.067 498.446 345.002C498.372 344.937 498.32 344.853 498.292 344.75C498.264 344.647 498.264 344.545 498.292 344.442C498.33 344.339 498.404 344.246 498.516 344.162C498.88 343.863 499.319 343.625 499.832 343.448C500.346 343.261 500.868 343.168 501.4 343.168C502.063 343.168 502.623 343.271 503.08 343.476C503.538 343.681 503.883 343.985 504.116 344.386C504.35 344.778 504.466 345.259 504.466 345.828C504.466 346.22 504.401 346.607 504.27 346.99C504.149 347.363 503.958 347.746 503.696 348.138C503.444 348.53 503.113 348.936 502.702 349.356L499.72 352.506V352.184H504.438C504.616 352.184 504.746 352.226 504.83 352.31C504.924 352.385 504.97 352.501 504.97 352.66C504.97 352.828 504.924 352.954 504.83 353.038C504.746 353.122 504.616 353.164 504.438 353.164H499.132Z" fill="#32264C"/>
<defs>
<filter id="filter0_d_5084_4346" x="12.2422" y="157.656" width="314.246" height="126.793" filterUnits="userSpaceOnUse" color-interpolation-filters="sRGB">
<feFlood flood-opacity="0" result="BackgroundImageFix"/>
<feColorMatrix in="SourceAlpha" type="matrix" values="0 0 0 0 0 0 0 0 0 0 0 0 0 0 0 0 0 0 127 0" result="hardAlpha"/>
<feOffset dy="4"/>
<feGaussianBlur stdDeviation="9.5"/>
<feComposite in2="hardAlpha" operator="out"/>
<feColorMatrix type="matrix" values="0 0 0 0 0.898039 0 0 0 0 0.286275 0 0 0 0 0.145098 0 0 0 0.2 0"/>
<feBlend mode="normal" in2="BackgroundImageFix" result="effect1_dropShadow_5084_4346"/>
<feBlend mode="normal" in="SourceGraphic" in2="effect1_dropShadow_5084_4346" result="shape"/>
</filter>
<filter id="filter1_d_5084_4346" x="13.8867" y="285.914" width="588.852" height="569.117" filterUnits="userSpaceOnUse" color-interpolation-filters="sRGB">
<feFlood flood-opacity="0" result="BackgroundImageFix"/>
<feColorMatrix in="SourceAlpha" type="matrix" values="0 0 0 0 0 0 0 0 0 0 0 0 0 0 0 0 0 0 127 0" result="hardAlpha"/>
<feOffset dy="4"/>
<feGaussianBlur stdDeviation="9.5"/>
<feComposite in2="hardAlpha" operator="out"/>
<feColorMatrix type="matrix" values="0 0 0 0 0.898039 0 0 0 0 0.286275 0 0 0 0 0.145098 0 0 0 0.2 0"/>
<feBlend mode="normal" in2="BackgroundImageFix" result="effect1_dropShadow_5084_4346"/>
<feBlend mode="normal" in="SourceGraphic" in2="effect1_dropShadow_5084_4346" result="shape"/>
</filter>
<linearGradient id="paint0_linear_5084_4346" x1="328.854" y1="537.052" x2="323.113" y2="777.794" gradientUnits="userSpaceOnUse">
<stop stop-color="#F8CFC6"/>
<stop offset="1" stop-color="#F8CFC6" stop-opacity="0"/>
</linearGradient>
</defs>
</svg>
