<svg width="50" height="50" viewBox="0 0 50 50" fill="none" xmlns="http://www.w3.org/2000/svg">
<circle cx="25" cy="25" r="25" fill="#F0ECE4"/>
<path fill-rule="evenodd" clip-rule="evenodd" d="M17.945 14.9122C16.657 14.9122 15.6136 15.957 15.6136 17.2449C15.6136 18.5335 16.657 19.5776 17.945 19.5776C19.2329 19.5776 20.2764 18.5335 20.2764 17.2449C20.2764 15.957 19.2329 14.9122 17.945 14.9122ZM31.3519 14.9122C30.0646 14.9122 29.0205 15.957 29.0205 17.2449C29.0205 18.5335 30.0646 19.5776 31.3519 19.5776C32.6399 19.5776 33.6833 18.5335 33.6833 17.2449C33.6833 15.957 32.6399 14.9122 31.3519 14.9122ZM15.0104 26.8601C14.4721 26.8601 14.0352 27.2964 14.0352 27.8354C14.0352 32.3175 17.9874 35.9649 22.8427 35.9649H26.7589C31.6149 35.9649 35.5665 32.3175 35.5665 27.8354C35.5665 27.2964 35.1296 26.8601 34.5913 26.8601H15.0104ZM16.0707 28.8106H33.531C33.0102 31.7552 30.1716 34.0144 26.7589 34.0144H22.8427C19.4301 34.0144 16.5915 31.7552 16.0707 28.8106Z" fill="#32264C" fill-opacity="0.6"/>
</svg>
