<svg width="18" height="6" viewBox="0 0 18 6" fill="none" xmlns="http://www.w3.org/2000/svg">
<path d="M17.25 0.639994L16.6126 0C14.8353 1.31733 12.0066 2.88778 8.62476 2.88778C5.24287 2.88778 2.41448 1.31733 0.637114 0L0 0.639994C0.505584 1.01484 1.09429 1.40845 1.75145 1.78498L0.286286 3.52482L1.07742 4.02095L2.58366 2.23239C3.2638 2.572 4.00556 2.88208 4.80011 3.13121L3.9838 5.29883L4.91404 5.55956L5.73305 3.38433C6.4946 3.56469 7.29699 3.68366 8.1358 3.71741V6H9.11372V3.71762C9.95253 3.68387 10.7549 3.5649 11.5162 3.38454L12.3357 5.55998L13.266 5.29925L12.4494 3.13121C13.244 2.88208 13.9855 2.57242 14.6656 2.2326L16.1723 4.02159L16.9635 3.52545L15.4978 1.78498C16.1555 1.40845 16.7442 1.01505 17.25 0.639994Z" fill="#32264C"/>
</svg>
