<svg width="19" height="10" viewBox="0 0 19 10" fill="none" xmlns="http://www.w3.org/2000/svg">
<path d="M18.2598 3.65737C16.6987 2.35778 13.4133 0.0127859 9.44269 0C5.47206 0.0127859 2.1867 2.35778 0.625603 3.65707C0.210062 4.00472 -0.00151397 4.50764 8.15468e-06 4.99989C-0.00120955 5.49215 0.210366 5.99506 0.625908 6.34302C2.1867 7.64261 5.47206 9.98761 9.44269 10.0004C13.4133 9.98761 16.6987 7.64261 18.2598 6.34332C18.6753 5.99567 18.8866 5.49245 18.8854 5.0005C18.8866 4.50794 18.675 4.00503 18.2598 3.65737ZM9.44269 7.71842C7.85815 7.71568 6.57622 6.43374 6.57348 4.8492C6.57622 3.26497 7.85815 1.98303 9.44269 1.97999C11.0272 1.98303 12.3092 3.26497 12.3119 4.8492C12.3092 6.43343 11.0272 7.71537 9.44269 7.71842ZM1.32426 5.0002L1.47678 4.67203C2.50239 3.80502 4.36943 2.48807 6.58596 1.79398C5.76797 2.55931 5.24922 3.64002 5.24892 4.8489C5.24922 6.33693 6.02886 7.63592 7.19694 8.38024C4.71191 7.75951 2.59554 6.27422 1.47647 5.32837L1.32426 5.0002ZM11.6881 8.38024C12.8562 7.63592 13.6362 6.33693 13.6362 4.8489C13.6359 3.64002 13.1171 2.55931 12.2991 1.79398C14.5156 2.48777 16.383 3.80502 17.4083 4.67172L17.5611 5.0002L17.4086 5.32837C16.2898 6.27422 14.1735 7.75951 11.6881 8.38024Z" fill="#32264C"/>
<path d="M9.44282 6.67909C10.4538 6.67909 11.2733 5.85954 11.2733 4.84858C11.2733 3.83761 10.4538 3.01807 9.44282 3.01807C8.43185 3.01807 7.6123 3.83761 7.6123 4.84858C7.6123 5.85954 8.43185 6.67909 9.44282 6.67909Z" fill="#32264C"/>
</svg>
