<svg width="18" height="18" viewBox="0 0 18 18" fill="none" xmlns="http://www.w3.org/2000/svg">
<path d="M17.5 8.5H15C14.8978 7.25776 14.4081 6.07896 13.6 5.13L15.39 3.345C15.4842 3.25085 15.537 3.12315 15.537 2.99C15.537 2.85685 15.4842 2.72915 15.39 2.635C15.2958 2.54085 15.1682 2.48795 15.035 2.48795C14.9018 2.48795 14.7742 2.54085 14.68 2.635L12.87 4.425C11.921 3.61687 10.7422 3.12716 9.5 3.025V0.5C9.5 0.367392 9.44732 0.240215 9.35355 0.146447C9.25979 0.0526784 9.13261 0 9 0C8.86739 0 8.74021 0.0526784 8.64645 0.146447C8.55268 0.240215 8.5 0.367392 8.5 0.5V3.025C7.25776 3.12716 6.07896 3.61687 5.13 4.425L3.345 2.635C3.25085 2.54085 3.12315 2.48795 2.99 2.48795C2.85685 2.48795 2.72915 2.54085 2.635 2.635C2.54085 2.72915 2.48795 2.85685 2.48795 2.99C2.48795 3.12315 2.54085 3.25085 2.635 3.345L4.425 5.13C3.61687 6.07896 3.12716 7.25776 3.025 8.5H0.5C0.367392 8.5 0.240215 8.55268 0.146447 8.64645C0.0526784 8.74021 0 8.86739 0 9C0 9.13261 0.0526784 9.25979 0.146447 9.35355C0.240215 9.44732 0.367392 9.5 0.5 9.5H3.025C3.12716 10.7422 3.61687 11.921 4.425 12.87L2.635 14.655C2.58814 14.7015 2.55094 14.7568 2.52555 14.8177C2.50017 14.8786 2.4871 14.944 2.4871 15.01C2.4871 15.076 2.50017 15.1414 2.52555 15.2023C2.55094 15.2632 2.58814 15.3185 2.635 15.365C2.68373 15.4108 2.74113 15.4463 2.80383 15.4695C2.86652 15.4927 2.93323 15.503 3 15.5C3.0658 15.5004 3.13103 15.4878 3.19195 15.4629C3.25287 15.438 3.30828 15.4013 3.355 15.355L5.14 13.565C6.08179 14.3839 7.25722 14.8859 8.5 15V17.5C8.5 17.6326 8.55268 17.7598 8.64645 17.8536C8.74021 17.9473 8.86739 18 9 18C9.13261 18 9.25979 17.9473 9.35355 17.8536C9.44732 17.7598 9.5 17.6326 9.5 17.5V15C10.7422 14.8978 11.921 14.4081 12.87 13.6L14.655 15.39C14.7522 15.4685 14.8753 15.5077 15 15.5C15.0658 15.5004 15.131 15.4878 15.192 15.4629C15.2529 15.438 15.3083 15.4013 15.355 15.355C15.4019 15.3085 15.4391 15.2532 15.4644 15.1923C15.4898 15.1314 15.5029 15.066 15.5029 15C15.5029 14.934 15.4898 14.8686 15.4644 14.8077C15.4391 14.7468 15.4019 14.6915 15.355 14.645L13.565 12.86C14.3839 11.9182 14.8859 10.7428 15 9.5H17.5C17.6326 9.5 17.7598 9.44732 17.8536 9.35355C17.9473 9.25979 18 9.13261 18 9C18 8.86739 17.9473 8.74021 17.8536 8.64645C17.7598 8.55268 17.6326 8.5 17.5 8.5Z" fill="white"/>
</svg>
