<svg width="160" height="127" viewBox="0 0 160 127" fill="none" xmlns="http://www.w3.org/2000/svg">
<path d="M174.442 -92.2188H-39.1797V321.099H174.442V-92.2188Z" fill="#32264C"/>
<path d="M161.49 175.246C136.575 228.793 96.7481 285.731 56.4283 336.031C16.1159 386.57 -24.4241 429.724 -66.5569 468.042C-108.409 506.088 -151.574 539.026 -186.967 552.423C-222.648 565.853 -250.549 559.981 -251.562 527.108C-252.568 494.473 -226.67 435.314 -214.91 385.91C-203.422 337.016 -206.065 298.115 -184.198 258.067C-162.339 217.78 -116.258 176.379 -77.6607 145.162C-38.7899 113.435 -7.68939 91.926 18.245 80.8129C44.1794 69.6998 64.6674 69.2539 95.0353 61.4554C125.403 53.6568 165.651 38.5056 180.905 55.6351C196.16 72.7645 186.413 121.936 161.49 175.246Z" fill="#6EB3F2"/>
<path d="M149.256 149.596C151.468 210.415 140.991 274.636 126.794 331.2C112.72 388.038 94.8159 436.366 73.0139 479.072C51.349 521.474 25.9232 557.951 -1.58065 572.19C-29.3451 586.457 -59.0641 578.759 -76.1148 540.876C-93.0419 503.266 -97.0536 436.019 -109.898 379.53C-122.755 323.619 -144.322 278.74 -142.867 233.361C-141.535 187.708 -117.443 141.584 -95.5702 106.936C-73.6837 71.7095 -54.2772 47.9871 -34.7576 36.0613C-15.2379 24.1356 4.25777 24.3093 29.6643 16.3486C55.0708 8.38789 86.3882 -7.70728 109.443 12.5272C132.498 32.7616 147.167 89.0511 149.256 149.596Z" fill="#F0ECE4"/>
</svg>
