<svg width="160" height="127" viewBox="0 0 160 127" fill="none" xmlns="http://www.w3.org/2000/svg">
<path d="M174.442 -92.2188H-39.1797V321.099H174.442V-92.2188Z" fill="#32264C"/>
<path d="M161.49 175.246C136.575 228.793 96.7481 285.731 56.4283 336.031C16.1159 386.57 -24.4241 429.724 -66.5569 468.042C-108.409 506.088 -151.574 539.026 -186.967 552.423C-222.648 565.853 -250.549 559.981 -251.562 527.108C-252.568 494.473 -226.67 435.314 -214.91 385.91C-203.422 337.016 -206.065 298.115 -184.198 258.067C-162.339 217.78 -116.258 176.379 -77.6607 145.162C-38.7899 113.435 -7.68939 91.926 18.245 80.8129C44.1794 69.6998 64.6674 69.2539 95.0353 61.4554C125.403 53.6568 165.651 38.5056 180.905 55.6351C196.16 72.7645 186.413 121.936 161.49 175.246Z" fill="#528A4F"/>
<path d="M156.483 155.723C166.298 219.784 163.033 287.788 154.87 347.823C146.873 408.143 133.758 459.599 115.807 505.235C97.9642 550.549 75.3941 589.72 47.8852 605.503C20.1026 621.323 -12.4536 614.041 -35.2382 574.577C-57.8576 535.399 -70.375 464.611 -90.9676 405.414C-111.504 346.825 -139.95 300.113 -143.969 252.228C-148.154 204.058 -128.186 154.753 -109.171 117.608C-90.2121 79.855 -72.4799 54.2999 -53.1801 41.179C-33.8802 28.0582 -13.1215 27.6949 12.9267 18.5895C38.9748 9.4841 70.3123 -8.36336 97.318 12.324C124.324 33.0114 146.833 91.9478 156.483 155.723Z" fill="#F0ECE4"/>
</svg>
