<svg width="22" height="26" viewBox="0 0 22 26" fill="none" xmlns="http://www.w3.org/2000/svg">
<path d="M15.8281 0C14.455 0.0949759 12.8501 0.973905 11.9148 2.11845C11.0616 3.15674 10.3598 4.69889 10.6334 6.19758C12.1337 6.24426 13.6839 5.34441 14.5822 4.18055C15.4225 3.09718 16.0583 1.56469 15.8281 0Z" fill="#32264C"/>
<path d="M21.2547 8.64121C19.9363 6.98798 18.0835 6.02856 16.3336 6.02856C14.0236 6.02856 13.0465 7.13447 11.4416 7.13447C9.78674 7.13447 8.52952 6.03178 6.53181 6.03178C4.56951 6.03178 2.48004 7.23106 1.1552 9.28189C-0.707289 12.1698 -0.388556 17.5995 2.62975 22.2244C3.7099 23.8792 5.15224 25.7401 7.03888 25.7562C8.71786 25.7723 9.19113 24.6793 11.4657 24.668C13.7403 24.6551 14.1717 25.7707 15.8475 25.753C17.7357 25.7385 19.257 23.6764 20.3371 22.0215C21.1114 20.8351 21.3996 20.2379 22 18.8986C17.6327 17.2357 16.9325 11.0253 21.2547 8.64121Z" fill="#32264C"/>
</svg>
