<svg width="70" height="70" viewBox="0 0 70 70" fill="none" xmlns="http://www.w3.org/2000/svg">
<mask id="mask0" style="mask-type:alpha" maskUnits="userSpaceOnUse" x="0" y="0" width="70" height="70">
<circle cx="35" cy="35" r="35" fill="white"/>
</mask>
<g mask="url(#mask0)">
<mask id="mask1" style="mask-type:alpha" maskUnits="userSpaceOnUse" x="-41" y="-39" width="289" height="319">
<rect x="-40.3849" y="-38.5898" width="287.882" height="318.59" fill="white"/>
</mask>
<g mask="url(#mask1)">
<rect x="-40.3853" y="-38.5898" width="287.882" height="194.992" fill="#F0ECE4"/>
<path d="M238.745 113.354C190.496 105.619 170.278 103.033 152.04 85.7028C136.853 71.2721 135.17 60.7356 95.2479 41.9508C65.4255 27.9216 63.5699 -11.3389 29.8508 -1.45774C1.93701 -4.20545 0.452492 25.3324 -5.22038 36.2176C-14.1008 53.2586 -35.0329 60.2159 -37.3656 90.1501C-46.462 105.647 -45.1002 104.883 -57.2547 113.354C-80.0937 129.272 -88.3606 155.426 -87.0882 171.859C-86.1603 183.88 -54.2086 169.006 -33.2932 171.859C-12.2187 174.739 1.22128 177.302 11.1356 188.081C29.2411 207.738 48.3009 206.285 73.4312 193.656C89.7606 185.466 105.798 187.157 132.228 191.595C158.445 196.007 159.558 165.281 181.56 162.11C204.225 158.808 317.821 172.203 316.575 162.11C315.409 152.731 286.994 121.089 238.745 113.354Z" fill="#32264C"/>
<path d="M68.7389 73.312C72.5827 110.221 56.969 135.796 30.3012 135.822C3.63338 135.875 -0.767079 119.178 -4.34576 120.419C-10.1777 122.401 -9.9126 101.529 -9.35592 92.3611C-7.68587 64.9368 2.44049 32.572 35.4704 37.4069C58.0824 40.7094 66.1676 48.7412 68.7389 73.312Z" fill="#FFA191"/>
<path d="M8.88342 115.637C8.88342 115.637 52.8349 102.136 67.6003 55.4516C73.5648 36.6403 83.6116 74.025 81.0137 107.394C79.8739 122.136 76.2157 134.818 69.2439 144.858C57.2884 162.137 10.3679 168.451 8.88342 115.637Z" fill="#D9BBA2"/>
<path d="M50.2881 128.873C33.1899 122.242 15.5616 118.939 3.18201 106.231C-1.35099 101.581 -5.38032 94.1306 -6.2286 84.5664C-6.28162 84.0645 -6.30813 83.5625 -6.36114 83.0605C-7.71309 60.8146 5.51478 34.8435 35.4432 36.2966L25.7675 59.5465C30.9632 69.6654 26.3507 81.5281 31.2548 87.3934C40.9835 99.0976 47.4782 111.885 54.7946 114.765C56.8888 115.557 52.886 129.877 50.2881 128.873Z" fill="#FFA191"/>
<path d="M25.7419 23.0605L22.5078 43.774C21.9246 49.1109 40.5338 50.1149 41.4085 44.3289V36.0857L25.7419 23.0605Z" fill="#C78E85"/>
<path d="M48.5922 21.3694C48.7778 22.4791 48.9898 23.4831 49.0163 24.5927C49.0428 26.0194 48.8573 27.4989 48.4066 28.9256C47.2402 32.6509 45.1726 37.6972 41.4083 38.3048C33.3496 39.573 23.9655 32.3867 24.2571 22.5583C24.4957 13.9718 31.5205 0.233218 34.5425 5.04171C39.2346 12.5186 43.529 9.13685 46.8161 13.734C47.5053 14.6851 48.168 15.9269 48.3536 18.8331C48.4331 19.7578 48.4597 20.6033 48.5922 21.3694Z" fill="#FDB98D"/>
<path d="M35.1533 27.2607C35.3918 29.3215 33.9074 31.2238 31.8397 31.4615C29.772 31.6993 27.8634 30.2198 27.6248 28.159C27.3862 26.0982 28.8707 24.196 30.9384 23.9582C33.0326 23.7204 34.9147 25.1999 35.1533 27.2607Z" fill="#ED715D"/>
<path d="M49.0179 24.5929C49.0444 26.0196 48.9384 27.4991 48.4082 28.9258C46.6586 28.7673 45.2006 27.4199 44.9885 25.5969C44.75 23.5097 46.2345 21.6338 48.3022 21.396C48.4082 21.396 48.4877 21.3696 48.5673 21.3696C48.7528 22.4793 48.9914 23.4832 49.0179 24.5929Z" fill="#ED715D"/>
<path d="M37.9559 31.122C37.9559 31.0956 37.9824 31.0956 37.9824 31.0956C38.0619 31.0164 38.1945 30.9899 38.274 31.0428C40.8188 32.945 42.9926 30.5408 43.0986 30.4615C43.1781 30.3823 43.3107 30.3559 43.3902 30.4351C43.4697 30.5144 43.4962 30.6465 43.4167 30.7257C43.3902 30.7522 40.8719 33.5263 38.0354 31.3862C37.9294 31.307 37.9294 31.2013 37.9559 31.122Z" fill="#ED715D"/>
<path d="M42.3621 27.0232C42.309 27.1289 42.256 27.2081 42.203 27.2874C41.6463 28.0007 40.4534 28.2385 39.3931 27.8158C39.287 27.7629 39.234 27.6573 39.287 27.5516C39.3135 27.4459 39.4461 27.3931 39.5521 27.4459C40.5595 27.8422 41.5138 27.5252 41.8849 27.0496C42.1765 26.6533 42.15 26.1777 41.7789 25.6757C39.8702 23.113 39.7907 21.3692 39.7907 21.29C39.7907 21.1843 39.8702 21.0786 40.0028 21.0786C40.1088 21.0786 40.2148 21.1579 40.2148 21.2636C40.2148 21.29 40.3209 22.9809 42.1235 25.438C42.4946 25.9664 42.5741 26.5212 42.3621 27.0232Z" fill="#ED715D"/>
<path d="M37.0079 21.6334C37.0079 21.6598 36.9813 21.6862 36.9548 21.7127C34.0389 24.1169 30.7783 21.6862 30.7518 21.6598C30.6723 21.5806 30.6457 21.4485 30.7253 21.3692C30.8048 21.2899 30.9373 21.2635 31.0169 21.3428C31.1494 21.4485 34.0389 23.5885 36.7163 21.422C36.7958 21.3428 36.9283 21.3692 37.0079 21.4485C37.0344 21.4749 37.0344 21.5541 37.0079 21.6334Z" fill="#002869"/>
<path d="M47.6375 19.3876C47.6375 19.414 47.611 19.4405 47.5845 19.4405C44.8276 22.0296 42.4418 20.6029 42.4152 20.5765C42.3092 20.5237 42.2827 20.3916 42.3357 20.2859C42.3887 20.1802 42.5213 20.1538 42.6273 20.2066C42.7068 20.2595 44.801 21.4748 47.2929 19.1234C47.3724 19.0441 47.5049 19.0441 47.5845 19.1234C47.664 19.2291 47.6905 19.3084 47.6375 19.3876Z" fill="#002869"/>
<path d="M37.3531 -1.51052C37.3531 -1.51052 25.5832 0.365321 9.70448 20.0484C4.48225 26.5214 -3.07275 61.5282 -3.07275 61.5282C1.72533 50.1675 16.0401 54.7118 23.6481 46.1781C28.6052 40.6034 27.916 31.4884 27.863 20.9995C27.81 12.0959 38.2014 15.2135 37.6182 6.8647C36.982 -2.40881 37.3531 -1.51052 37.3531 -1.51052Z" fill="#32264C"/>
</g>
</g>
</svg>
