<svg width="25" height="14" viewBox="0 0 25 14" fill="none" xmlns="http://www.w3.org/2000/svg">
<path d="M23.9538 6.31638L3.36088 6.31638L8.69892 1.31353C8.77054 1.24636 8.82735 1.16662 8.86611 1.07885C8.90487 0.991092 8.92482 0.89703 8.92482 0.802037C8.92482 0.707044 8.90487 0.612981 8.86611 0.525221C8.82735 0.437459 8.77054 0.357715 8.69892 0.290546C8.6273 0.223376 8.54228 0.170091 8.44871 0.133739C8.35513 0.0973869 8.25484 0.0786787 8.15355 0.0786787C8.05227 0.0786786 7.95198 0.0973869 7.85841 0.133739C7.76483 0.170091 7.67981 0.223376 7.60819 0.290546L0.986705 6.50073L0.95587 6.52604C0.883733 6.5933 0.826501 6.67328 0.787472 6.76137C0.748444 6.84947 0.728394 6.94394 0.728474 7.03934C0.723323 7.08741 0.723323 7.13585 0.728474 7.18393C0.75912 7.32076 0.831416 7.44633 0.9366 7.54541L0.967433 7.57071L7.60819 13.7881C7.75283 13.9238 7.949 14 8.15355 14C8.3581 14 8.55428 13.9238 8.69892 13.7881C8.84356 13.6525 8.92482 13.4685 8.92482 13.2766C8.92482 13.0848 8.84356 12.9008 8.69892 12.7651L3.36473 7.76229L23.9538 7.7623C24.1582 7.7623 24.3543 7.68613 24.4988 7.55055C24.6434 7.41497 24.7246 7.23108 24.7246 7.03934C24.7246 6.8476 24.6434 6.66371 24.4988 6.52813C24.3543 6.39255 24.1582 6.31638 23.9538 6.31638Z" fill="#32264C"/>
</svg>
