<svg width="22" height="22" viewBox="0 0 22 22" fill="none" xmlns="http://www.w3.org/2000/svg">
<path d="M10.6028 13.3528C10.3176 13.3528 10.0426 13.2612 9.81851 13.0982C9.51296 12.8741 9.2074 12.6501 8.94259 12.4667C8.11759 11.876 7.42499 11.3769 6.90555 10.8473C6.23333 10.1649 5.9074 9.45191 5.9074 8.68802C5.9074 7.92414 6.22314 7.20099 6.78333 6.68154C7.7611 5.79543 9.40092 5.63247 10.5518 6.38617C10.5722 6.39636 10.5824 6.40654 10.6028 6.41673C10.6231 6.40654 10.6333 6.39636 10.6537 6.38617C11.8046 5.63247 13.4546 5.79543 14.4222 6.68154C14.9926 7.20099 15.2981 7.91395 15.2981 8.67784C15.2981 9.44173 14.9722 10.1547 14.2898 10.8371C13.7805 11.3565 13.0778 11.8658 12.2731 12.4362L12.1 12.5584C11.8759 12.7214 11.6315 12.8945 11.3768 13.088C11.163 13.251 10.8778 13.3427 10.5926 13.3427L10.6028 13.3528ZM8.89166 7.52691C8.49444 7.52691 8.13796 7.64914 7.89351 7.88339C7.65925 8.09728 7.54722 8.37228 7.54722 8.67784C7.54722 8.90191 7.60833 9.21765 8.08703 9.69636C8.50462 10.1241 9.14629 10.5825 9.89999 11.1223C10.1241 11.2852 10.3685 11.4584 10.6231 11.6417C10.8167 11.4991 11.0102 11.3667 11.1833 11.2343L11.3361 11.1223C12.1 10.5723 12.7417 10.1139 13.1593 9.68617C13.638 9.20747 13.6991 8.88154 13.6991 8.66765C13.6991 8.3621 13.5768 8.0871 13.3528 7.87321C12.9148 7.47599 12.1204 7.38432 11.5704 7.7408C11.4583 7.8121 11.3463 7.91395 11.2546 8.02599L10.6333 8.74914L10.012 8.02599C9.92036 7.91395 9.80833 7.82228 9.69629 7.7408C9.46203 7.58802 9.2074 7.51673 8.92222 7.51673L8.89166 7.52691Z" fill="#32264C"/>
<path fill-rule="evenodd" clip-rule="evenodd" d="M0.000204782 7.42387C0.000204782 3.37681 3.109 0 7.03923 0H14.961C18.8912 0 22 3.37681 22 7.42387V11.2207C22 15.2677 18.8912 18.6445 14.961 18.6445H7.53895L4.09191 21.4155C3.6523 21.7917 3.09282 21.9991 2.51383 22L2.50795 22C2.15477 21.998 1.80615 21.9202 1.48563 21.7719L1.48062 21.7695C1.03181 21.5581 0.653461 21.2217 0.390913 20.8008C0.129562 20.3817 -0.00601492 19.8965 0.000204782 19.4028V7.42387ZM7.03923 1.62963C4.1002 1.62963 1.62983 4.18286 1.62983 7.42387V19.4208C1.62705 19.6036 1.67692 19.7833 1.77365 19.9384C1.86989 20.0927 2.00836 20.2161 2.17262 20.2941C2.27984 20.3433 2.39622 20.3693 2.51417 20.3704C2.70618 20.3693 2.89151 20.2996 3.03658 20.1737L3.04818 20.1636L6.56847 17.3338C6.80663 17.1309 7.10872 17.0179 7.42207 17.0149L7.42966 17.0149L14.961 17.0149C17.9 17.0149 20.3704 14.4617 20.3704 11.2207V7.42387C20.3704 4.18286 17.9 1.62963 14.961 1.62963H7.03923Z" fill="#32264C"/>
</svg>
