<svg width="15" height="13" viewBox="0 0 15 13" fill="none" xmlns="http://www.w3.org/2000/svg">
<path d="M7.50064 11.0586C7.50064 11.3227 7.34804 11.5626 7.10923 11.6746C7.0169 11.7183 6.91795 11.7394 6.81966 11.7394C6.664 11.7394 6.50978 11.6859 6.38522 11.5826L2.66318 8.49837H0.680822C0.304879 8.49869 0 8.19365 0 7.81771V5.10522C0 4.72911 0.304879 4.42423 0.680822 4.42423H2.66334L6.38538 1.33999C6.58874 1.17144 6.87074 1.1355 7.10939 1.2483C7.34804 1.36029 7.5008 1.6004 7.5008 1.86434L7.50064 11.0586ZM10.1171 9.99473C10.1005 9.99585 10.0845 9.9965 10.0681 9.9965C9.88827 9.9965 9.71488 9.92544 9.58678 9.79717L9.49573 9.7058C9.25692 9.46747 9.22888 9.08992 9.42999 8.81888C9.93984 8.13145 10.2089 7.31656 10.2089 6.4617C10.2089 5.54223 9.90342 4.6798 9.32524 3.96756C9.10512 3.69684 9.12543 3.30366 9.37214 3.05711L9.46302 2.96607C9.59902 2.83006 9.78127 2.75594 9.97851 2.7677C10.1706 2.77737 10.3499 2.86777 10.4718 3.01667C11.2738 3.99802 11.6974 5.18949 11.6974 6.46187C11.6974 7.6469 11.3228 8.77489 10.6137 9.72336C10.4953 9.88144 10.3142 9.98071 10.1171 9.99473ZM12.9319 12.0987C12.8088 12.2443 12.6307 12.3316 12.4401 12.3397C12.4308 12.34 12.4213 12.3403 12.4116 12.3403C12.2313 12.3403 12.0582 12.2691 11.9301 12.141L11.8407 12.0515C11.5907 11.8018 11.5738 11.4023 11.801 11.1319C12.899 9.82601 13.504 8.16755 13.504 6.4617C13.504 4.68738 12.8563 2.97928 11.6808 1.65212C11.4425 1.38269 11.4546 0.974845 11.7082 0.720242L11.7975 0.630809C11.9299 0.497706 12.102 0.424387 12.2994 0.430671C12.4868 0.435989 12.6641 0.518815 12.7887 0.659008C14.2096 2.25882 14.9923 4.31981 14.9923 6.4617C14.9926 8.52254 14.2608 10.5246 12.9319 12.0987Z" fill="#32264C" fill-opacity="0.6"/>
</svg>
