<svg width="18" height="11" viewBox="0 0 18 11" fill="none" xmlns="http://www.w3.org/2000/svg">
<path d="M10.3459 8.418C10.4299 8.59533 10.4719 8.768 10.4719 8.936C10.4719 9.244 10.3459 9.50533 10.0939 9.72C9.85121 9.93467 9.57121 10.042 9.25388 10.042C9.03921 10.042 8.84321 9.986 8.66588 9.874C8.48854 9.762 8.34855 9.594 8.24588 9.37L7.61588 7.956H3.07988L2.43588 9.37C2.33321 9.594 2.18854 9.762 2.00188 9.874C1.82454 9.986 1.62854 10.042 1.41388 10.042C1.09654 10.042 0.807211 9.93467 0.545878 9.72C0.293878 9.50533 0.167878 9.244 0.167878 8.936C0.167878 8.768 0.209878 8.59533 0.293878 8.418L3.98988 0.83C4.11121 0.577999 4.28854 0.386666 4.52188 0.255999C4.76454 0.116 5.03054 0.0459996 5.31988 0.0459996C5.59988 0.0459996 5.86121 0.116 6.10388 0.255999C6.34654 0.386666 6.52854 0.577999 6.64988 0.83L10.3459 8.418ZM3.94788 6.024H6.74788L5.34788 2.902L3.94788 6.024ZM14.5843 2.944C15.6483 2.944 16.4323 3.20067 16.9363 3.714C17.4496 4.218 17.7063 4.988 17.7063 6.024V8.95C17.7063 9.30467 17.5989 9.58467 17.3843 9.79C17.1789 9.986 16.8896 10.084 16.5163 10.084C16.1896 10.084 15.9189 9.99067 15.7043 9.804C15.4989 9.61733 15.3869 9.36533 15.3683 9.048C15.2376 9.384 15.0183 9.64533 14.7103 9.832C14.4023 10.0187 14.0336 10.112 13.6043 10.112C13.1283 10.112 12.6989 10.0187 12.3163 9.832C11.9336 9.636 11.6303 9.37 11.4063 9.034C11.1916 8.68867 11.0843 8.30133 11.0843 7.872C11.0843 7.37733 11.2103 6.98533 11.4623 6.696C11.7236 6.39733 12.1343 6.18267 12.6943 6.052C13.2543 5.92133 14.0103 5.856 14.9623 5.856H15.3403V5.688C15.3403 5.36133 15.2656 5.128 15.1163 4.988C14.9669 4.83867 14.7149 4.764 14.3603 4.764C13.9776 4.764 13.4176 4.89467 12.6803 5.156C12.4656 5.23067 12.2836 5.268 12.1343 5.268C11.9009 5.268 11.7143 5.184 11.5743 5.016C11.4343 4.848 11.3643 4.62867 11.3643 4.358C11.3643 4.15267 11.4063 3.98467 11.4903 3.854C11.5743 3.72333 11.7096 3.60667 11.8963 3.504C12.2229 3.336 12.6336 3.20067 13.1283 3.098C13.6229 2.99533 14.1083 2.944 14.5843 2.944ZM14.1923 8.446C14.5283 8.446 14.8036 8.32933 15.0183 8.096C15.2329 7.85333 15.3403 7.54533 15.3403 7.172V7.004H15.1163C14.5189 7.004 14.0943 7.06 13.8423 7.172C13.5903 7.27467 13.4643 7.452 13.4643 7.704C13.4643 7.91867 13.5296 8.096 13.6603 8.236C13.8003 8.376 13.9776 8.446 14.1923 8.446Z" fill="#32264C" fill-opacity="0.6"/>
</svg>
