<svg width="24" height="24" viewBox="0 0 24 24" fill="none" xmlns="http://www.w3.org/2000/svg">
<path d="M5.1077 17.3928L10.9937 11.505L5.1077 5.61717C5.0399 5.54937 5.00181 5.45741 5.00181 5.36153C5.00181 5.26565 5.0399 5.17369 5.1077 5.10589C5.1755 5.03809 5.26745 5 5.36334 5C5.45922 5 5.55117 5.03809 5.61897 5.10589L11.505 10.9937L17.3928 5.1077C17.4606 5.0399 17.5526 5.00181 17.6485 5.00181C17.7444 5.00181 17.8363 5.0399 17.9041 5.1077C17.9719 5.1755 18.01 5.26745 18.01 5.36334C18.01 5.45922 17.9719 5.55117 17.9041 5.61897L12.0163 11.505L17.9023 17.3928C17.9359 17.4264 17.9625 17.4663 17.9807 17.5101C17.9988 17.554 18.0082 17.601 18.0082 17.6485C18.0082 17.6959 17.9988 17.743 17.9807 17.7868C17.9625 17.8307 17.9359 17.8705 17.9023 17.9041C17.8687 17.9377 17.8289 17.9643 17.785 17.9825C17.7412 18.0006 17.6941 18.01 17.6467 18.01C17.5992 18.01 17.5522 18.0006 17.5083 17.9825C17.4645 17.9643 17.4246 17.9377 17.391 17.9041L11.505 12.0163L5.61717 17.9023C5.54937 17.9701 5.45741 18.0082 5.36153 18.0082C5.26565 18.0082 5.17369 17.9701 5.10589 17.9023C5.03809 17.8345 5 17.7425 5 17.6467C5 17.5508 5.03809 17.4588 5.10589 17.391L5.1077 17.3928Z" fill="#32264C" stroke="#32264C" stroke-width="0.8"/>
</svg>
