<svg width="35" height="11" viewBox="0 0 35 11" fill="none" xmlns="http://www.w3.org/2000/svg">
<path d="M7.16788 5.576C7.28921 5.576 7.39188 5.618 7.47588 5.702C7.56921 5.786 7.61588 5.88867 7.61588 6.01C7.61588 6.13133 7.57388 6.23867 7.48988 6.332C7.40588 6.416 7.29854 6.458 7.16788 6.458H4.63388V8.978C4.63388 9.10867 4.59188 9.216 4.50788 9.3C4.42388 9.384 4.32121 9.426 4.19988 9.426C4.07854 9.426 3.97588 9.384 3.89188 9.3C3.80788 9.20667 3.76588 9.09933 3.76588 8.978V6.458H1.23188C1.11054 6.458 1.00321 6.416 0.909878 6.332C0.825878 6.23867 0.783878 6.13133 0.783878 6.01C0.783878 5.88867 0.825878 5.786 0.909878 5.702C1.00321 5.618 1.11054 5.576 1.23188 5.576H3.76588V3.056C3.76588 2.92533 3.80788 2.818 3.89188 2.734C3.97588 2.64067 4.07854 2.594 4.19988 2.594C4.32121 2.594 4.42388 2.64067 4.50788 2.734C4.59188 2.818 4.63388 2.92533 4.63388 3.056V5.576H7.16788ZM26.7521 8.418C26.8361 8.59533 26.8781 8.768 26.8781 8.936C26.8781 9.244 26.7521 9.50533 26.5001 9.72C26.2575 9.93467 25.9775 10.042 25.6601 10.042C25.4455 10.042 25.2495 9.986 25.0721 9.874C24.8948 9.762 24.7548 9.594 24.6521 9.37L24.0221 7.956H19.4861L18.8421 9.37C18.7395 9.594 18.5948 9.762 18.4081 9.874C18.2308 9.986 18.0348 10.042 17.8201 10.042C17.5028 10.042 17.2135 9.93467 16.9521 9.72C16.7001 9.50533 16.5741 9.244 16.5741 8.936C16.5741 8.768 16.6161 8.59533 16.7001 8.418L20.3961 0.83C20.5175 0.577999 20.6948 0.386666 20.9281 0.255999C21.1708 0.116 21.4368 0.0459996 21.7261 0.0459996C22.0061 0.0459996 22.2675 0.116 22.5101 0.255999C22.7528 0.386666 22.9348 0.577999 23.0561 0.83L26.7521 8.418ZM20.3541 6.024H23.1541L21.7541 2.902L20.3541 6.024ZM30.9905 2.944C32.0545 2.944 32.8385 3.20067 33.3425 3.714C33.8559 4.218 34.1125 4.988 34.1125 6.024V8.95C34.1125 9.30467 34.0052 9.58467 33.7905 9.79C33.5852 9.986 33.2959 10.084 32.9225 10.084C32.5959 10.084 32.3252 9.99067 32.1105 9.804C31.9052 9.61733 31.7932 9.36533 31.7745 9.048C31.6439 9.384 31.4245 9.64533 31.1165 9.832C30.8085 10.0187 30.4399 10.112 30.0105 10.112C29.5345 10.112 29.1052 10.0187 28.7225 9.832C28.3399 9.636 28.0365 9.37 27.8125 9.034C27.5979 8.68867 27.4905 8.30133 27.4905 7.872C27.4905 7.37733 27.6165 6.98533 27.8685 6.696C28.1299 6.39733 28.5405 6.18267 29.1005 6.052C29.6605 5.92133 30.4165 5.856 31.3685 5.856H31.7465V5.688C31.7465 5.36133 31.6719 5.128 31.5225 4.988C31.3732 4.83867 31.1212 4.764 30.7665 4.764C30.3839 4.764 29.8239 4.89467 29.0865 5.156C28.8719 5.23067 28.6899 5.268 28.5405 5.268C28.3072 5.268 28.1205 5.184 27.9805 5.016C27.8405 4.848 27.7705 4.62867 27.7705 4.358C27.7705 4.15267 27.8125 3.98467 27.8965 3.854C27.9805 3.72333 28.1159 3.60667 28.3025 3.504C28.6292 3.336 29.0399 3.20067 29.5345 3.098C30.0292 2.99533 30.5145 2.944 30.9905 2.944ZM30.5985 8.446C30.9345 8.446 31.2099 8.32933 31.4245 8.096C31.6392 7.85333 31.7465 7.54533 31.7465 7.172V7.004H31.5225C30.9252 7.004 30.5005 7.06 30.2485 7.172C29.9965 7.27467 29.8705 7.452 29.8705 7.704C29.8705 7.91867 29.9359 8.096 30.0665 8.236C30.2065 8.376 30.3839 8.446 30.5985 8.446Z" fill="#32264C" fill-opacity="0.6"/>
</svg>
