<svg width="12" height="12" viewBox="0 0 12 12" fill="none" xmlns="http://www.w3.org/2000/svg">
<path d="M5.65908 0.321899C2.53245 0.321899 -0.00012207 2.85447 -0.00012207 5.9811C-0.00012207 9.10773 2.53245 11.6403 5.65908 11.6403C8.78571 11.6403 11.3182 9.10773 11.3182 5.9811C11.3182 2.85447 8.78571 0.321899 5.65908 0.321899ZM8.00403 6.59077H5.65908C5.40895 6.59077 5.20572 6.38754 5.20572 6.13741V3.1984C5.20572 2.94828 5.40895 2.74504 5.65908 2.74504C5.9092 2.74504 6.11244 2.94828 6.11244 3.1984V5.6997H8.00403C8.25416 5.6997 8.45739 5.90294 8.45739 6.15306C8.45739 6.38757 8.25416 6.59077 8.00403 6.59077Z" fill="#32264C" fill-opacity="0.6"/>
</svg>
