<svg width="1366" height="1366" viewBox="0 0 1366 1366" fill="none" xmlns="http://www.w3.org/2000/svg">
<g clip-path="url(#clip0_305_95)">
<path d="M1365.33 682.667C1365.33 305.64 1059.69 1.57817e-05 682.667 1.57817e-05C305.64 1.57817e-05 0 305.64 0 682.667C0 1023.41 249.641 1305.83 576 1357.04V880H402.667V682.667H576V532.267C576 361.173 677.917 266.667 833.853 266.667C908.543 266.667 986.667 280 986.667 280V448H900.584C815.78 448 789.333 500.623 789.333 554.609V682.667H978.667L948.4 880H789.333V1357.04C1115.69 1305.83 1365.33 1023.41 1365.33 682.667Z" fill="#30274A"/>
</g>
<defs>
<clipPath id="clip0_305_95">
<rect width="1365.33" height="1365.33" fill="white"/>
</clipPath>
</defs>
</svg>
