<svg width="18" height="18" viewBox="0 0 18 18" fill="none" xmlns="http://www.w3.org/2000/svg">
<path d="M8.74987 17.4997C13.7991 17.4997 17.1532 13.9555 17.1532 8.95287C17.1532 8.38004 17.0937 7.93788 17.0109 7.49689H8.75104V10.5045H13.7175C13.5145 11.782 12.2137 14.2763 8.75104 14.2763C5.76791 14.2763 3.33195 11.8053 3.33195 8.74987C3.33195 5.69442 5.76675 3.22229 8.75104 3.22229C10.4578 3.22229 11.5918 3.95028 12.237 4.57093L14.6123 2.2913C13.0828 0.859821 11.1135 0 8.74987 0C3.91528 0 0 3.91528 0 8.74987C0 13.5845 3.91528 17.4997 8.74987 17.4997Z" fill="#32264C"/>
</svg>
