<svg width="20" height="20" viewBox="0 0 20 20" fill="none" xmlns="http://www.w3.org/2000/svg">
<path fill-rule="evenodd" clip-rule="evenodd" d="M0 10C0 4.47714 4.47714 0 10 0C15.5229 0 20 4.47714 20 10C20 15.5229 15.5229 20 10 20C4.47714 20 0 15.5229 0 10ZM11.2143 6.07143C11.2143 6.66316 10.7346 7.14286 10.1429 7.14286C9.55112 7.14286 9.07143 6.66316 9.07143 6.07143C9.07143 5.4797 9.55112 5 10.1429 5C10.7346 5 11.2143 5.4797 11.2143 6.07143ZM8.21429 7.85714C8.01705 7.85714 7.85714 8.01704 7.85714 8.21429C7.85714 8.41153 8.01704 8.57143 8.21429 8.57143H8.91667L8.28572 12.8571C8.15469 13.771 8.64739 14.2857 9.64286 14.2857C10.2582 14.2857 11.0174 14.0702 11.3974 13.4382C11.4485 13.3718 11.432 13.2889 11.3821 13.2554C11.2993 13.222 11.2301 13.2554 11.183 13.3218C11.0327 13.5539 10.7995 13.7876 10.5 13.7876C10.1693 13.7876 9.93252 13.6568 10 13.1429L10.8529 8.26895C10.8865 8.05259 10.719 7.85719 10.5 7.85719L8.21429 7.85714Z" fill="#32264C"/>
</svg>
