<svg width="24" height="24" viewBox="0 0 24 24" fill="none" xmlns="http://www.w3.org/2000/svg">
<path d="M3.72792 12.6996H16.0527C16.3214 12.6996 16.5385 12.4827 16.5385 12.2146C16.5385 11.9466 16.3214 11.7297 16.0527 11.7297H3.75862L6.64444 8.63639C6.83405 8.44739 6.83405 8.14 6.64444 7.9508C6.45484 7.76119 6.14786 7.76119 5.95845 7.9508L2 12.2249L5.89786 16.5296C5.99276 16.6241 6.11676 16.6713 6.24095 16.6713C6.36515 16.6713 6.48915 16.6241 6.58405 16.5296C6.77366 16.3398 6.77366 16.0328 6.58405 15.8432L3.72792 12.6996Z" fill="#32264C" stroke="#32264C" stroke-width="0.3"/>
<path d="M19.4702 3H11.7056C10.6349 3 9.76416 3.87018 9.76416 4.9396V9.30535H10.7349V4.9396C10.7349 4.40549 11.1701 3.9695 11.7056 3.9695H19.4702C20.0055 3.9695 20.4407 4.40549 20.4407 4.9396V18.5198C20.4407 19.0547 20.0055 19.4899 19.4702 19.4899H11.7056C11.1703 19.4899 10.7349 19.0547 10.7349 18.5198V15.1245H9.76416V18.5198C9.76416 19.59 10.6349 20.46 11.7056 20.46H19.4702C20.5408 20.46 21.4116 19.59 21.4116 18.5198V4.9396C21.4116 3.87018 20.5408 3 19.4702 3Z" fill="#32264C" stroke="#32264C" stroke-width="0.3"/>
</svg>
