<svg width="25" height="23" viewBox="0 0 25 23" fill="none" xmlns="http://www.w3.org/2000/svg">
<path d="M24.2492 8.00575C24.0006 7.71508 23.6918 7.48177 23.3443 7.3219C22.9968 7.16203 22.6187 7.07941 22.2362 7.07972H18.9637L19.7889 4.88095C20.1333 3.95784 20.0987 2.93597 19.6925 2.0383C19.5069 1.62475 19.2411 1.25216 18.9104 0.942136C18.5797 0.632108 18.1908 0.39081 17.7661 0.232234C16.9997 -0.0603137 16.1553 -0.0769713 15.3779 0.18512C14.6005 0.447211 13.9386 0.971707 13.5057 1.6686L11.7368 4.49887C11.3079 5.18901 10.7305 5.77477 10.0465 6.21344C9.36258 6.65212 8.58936 6.93266 7.78325 7.03462C7.59441 6.52975 7.25629 6.09437 6.81389 5.78642C6.37148 5.47848 5.84578 5.31258 5.30676 5.3108H2.65338C1.94966 5.3108 1.27476 5.59035 0.777157 6.08796C0.279552 6.58556 0 7.26046 0 7.96418V20.3466C0 21.0503 0.279552 21.7252 0.777157 22.2228C1.27476 22.7204 1.94966 23 2.65338 23H5.30676C5.85113 22.9979 6.38167 22.8284 6.82643 22.5145C7.27118 22.2005 7.60862 21.7574 7.79298 21.2452C10.4375 21.2777 13.0757 21.5104 15.685 21.9413L16.6703 22.1049C17.0113 22.1629 17.3566 22.1925 17.7025 22.1934C19.178 22.1896 20.6037 21.6589 21.7226 20.6969C22.8415 19.735 23.5801 18.4051 23.8052 16.9468L24.8569 10.1408C24.9158 9.76219 24.8919 9.37527 24.7871 9.0067C24.6822 8.63813 24.4987 8.29665 24.2492 8.00575ZM6.19122 20.3466C6.19122 20.5812 6.09803 20.8062 5.93217 20.972C5.7663 21.1379 5.54133 21.2311 5.30676 21.2311H2.65338C2.41881 21.2311 2.19384 21.1379 2.02797 20.972C1.8621 20.8062 1.76892 20.5812 1.76892 20.3466V7.96418C1.76892 7.72961 1.8621 7.50464 2.02797 7.33878C2.19384 7.17291 2.41881 7.07972 2.65338 7.07972H5.30676C5.54133 7.07972 5.7663 7.17291 5.93217 7.33878C6.09803 7.50464 6.19122 7.72961 6.19122 7.96418V20.3466ZM22.0575 16.6735C21.9682 17.2518 21.7651 17.8066 21.4598 18.3058C21.1545 18.805 20.7532 19.2387 20.2791 19.5816C19.8049 19.9246 19.2675 20.1701 18.6978 20.3038C18.1281 20.4376 17.5376 20.4569 16.9604 20.3608L15.976 20.1963C13.3256 19.7585 10.6462 19.5191 7.96014 19.4799V8.79292C9.03573 8.66451 10.0686 8.29575 10.9824 7.71395C11.8961 7.13216 12.6672 6.35224 13.2386 5.43197L15.0075 2.6017C15.227 2.25191 15.5612 1.98927 15.9529 1.85874C16.3447 1.72821 16.7696 1.73791 17.155 1.88617C17.3609 1.96458 17.5493 2.08315 17.709 2.23499C17.8687 2.38683 17.9967 2.5689 18.0854 2.77063C18.1906 3.0037 18.2488 3.25521 18.2567 3.51077C18.2646 3.76634 18.222 4.02095 18.1314 4.26006L16.8578 7.65374C16.8075 7.7878 16.7906 7.93206 16.8084 8.07413C16.8262 8.21619 16.8782 8.35181 16.96 8.46933C17.0417 8.58686 17.1508 8.68278 17.2778 8.74885C17.4049 8.81492 17.546 8.84916 17.6892 8.84864H22.2362C22.3638 8.84867 22.4898 8.8763 22.6057 8.92963C22.7216 8.98296 22.8246 9.06073 22.9076 9.1576C22.9906 9.25447 23.0517 9.36816 23.0866 9.49085C23.1216 9.61355 23.1296 9.74235 23.1101 9.86842L22.0575 16.6735Z" fill="#32264C"/>
</svg>
