<svg width="33" height="33" viewBox="0 0 33 33" fill="none" xmlns="http://www.w3.org/2000/svg">
<circle cx="16.5" cy="16.5" r="16.5" fill="#32264C" fill-opacity="0.2"/>
<path d="M20.625 13.25H20.1667V11.5C20.1667 9.5697 18.5222 8 16.5 8C14.4778 8 12.8333 9.5697 12.8333 11.5V13.25H12.375C11.6172 13.25 11 13.8385 11 14.5625V20.6875C11 21.4115 11.6172 22 12.375 22H20.625C21.3828 22 22 21.4115 22 20.6875V14.5625C22 13.8385 21.3828 13.25 20.625 13.25ZM14.0556 11.5C14.0556 10.2131 15.1519 9.1667 16.5 9.1667C17.8481 9.1667 18.9444 10.2131 18.9444 11.5V13.25H14.0556V11.5Z" fill="white"/>
</svg>
