<svg width="17" height="22" viewBox="0 0 17 22" fill="none" xmlns="http://www.w3.org/2000/svg">
<g opacity="0.4">
<path d="M13.079 5.03049C13.079 2.28049 10.8656 0 8.04854 0C5.29854 0 3.01805 2.28049 3.01805 5.03049C3.01805 7.78049 5.23147 10.061 8.04854 10.061C10.7985 10.061 13.079 7.84756 13.079 5.03049Z" fill="white"/>
<path d="M0.737805 19.3171C2.75 20.9939 5.29878 22 8.04878 22C10.8659 22 13.4146 20.9939 15.3598 19.25C15.8293 18.8476 16.0976 18.2439 16.0976 17.6403C16.0976 14.8232 13.8171 12.5427 11 12.5427H5.09756C2.28049 12.5427 0 14.8232 0 17.6403C0 18.311 0.268293 18.8476 0.737805 19.3171Z" fill="white"/>
</g>
</svg>
