<svg width="22" height="23" viewBox="0 0 22 23" fill="none" xmlns="http://www.w3.org/2000/svg">
<path d="M12.2011 1.32563C11.4895 0.791232 10.5105 0.791232 9.79894 1.32563L0.798936 8.08498C0.29595 8.46274 0 9.05514 0 9.68418V20.4236C0 21.5282 0.895431 22.4236 2 22.4236H6.19272C7.29729 22.4236 8.19272 21.5282 8.19272 20.4236V15.4001C8.19272 14.2956 9.08815 13.4001 10.1927 13.4001H11.8073C12.9118 13.4001 13.8073 14.2956 13.8073 15.4001V20.4236C13.8073 21.5282 14.7027 22.4236 15.8073 22.4236H20C21.1046 22.4236 22 21.5282 22 20.4236V9.68418C22 9.05514 21.7041 8.46274 21.2011 8.08498L12.2011 1.32563Z" opacity="0.4" fill="white"/>
</svg>
