<svg width="8" height="12" viewBox="0 0 8 12" fill="none" xmlns="http://www.w3.org/2000/svg">
<path d="M1.08975 10.916C1.14273 10.9694 1.21471 10.9996 1.28994 11C1.32727 11.0003 1.36428 10.9931 1.3987 10.9786C1.43312 10.9642 1.46423 10.9429 1.49012 10.916L6.21043 6.20319C6.23694 6.17707 6.25799 6.14595 6.27235 6.11164C6.28672 6.07733 6.29412 6.04051 6.29412 6.00333C6.29412 5.96614 6.28672 5.92932 6.27235 5.89501C6.25799 5.8607 6.23694 5.82958 6.21043 5.80346L1.49012 1.08961C1.46416 1.06191 1.43289 1.0397 1.39817 1.02432C1.36344 1.00893 1.32597 1.00067 1.28798 1.00004C1.24999 0.999407 1.21227 1.00641 1.17705 1.02063C1.14182 1.03486 1.10983 1.05601 1.08296 1.08283C1.0561 1.10966 1.03491 1.1416 1.02067 1.17677C1.00642 1.21193 0.999406 1.2496 1.00004 1.28753C1.00067 1.32545 1.00894 1.36287 1.02435 1.39754C1.03977 1.43221 1.06201 1.46343 1.08975 1.48934L5.60988 6.00333L1.08975 10.5163C1.06336 10.5425 1.04242 10.5736 1.02813 10.6079C1.01384 10.6422 1.00648 10.679 1.00648 10.7162C1.00648 10.7533 1.01384 10.7901 1.02813 10.8244C1.04242 10.8587 1.06336 10.8899 1.08975 10.916Z" fill="#32264C" stroke="#32264C" stroke-width="2"/>
</svg>
