<svg width="24" height="22" viewBox="0 0 24 22" fill="none" xmlns="http://www.w3.org/2000/svg">
<path opacity="0.4" fill-rule="evenodd" clip-rule="evenodd" d="M2 6.10352e-05C0.89543 6.10352e-05 0 0.895491 0 2.00006V20.0001C0 21.1046 0.89543 22.0001 2 22.0001H21.76C22.8646 22.0001 23.76 21.1046 23.76 20.0001V2.00006C23.76 0.895492 22.8646 6.10352e-05 21.76 6.10352e-05H2ZM5.3999 9.68011C4.84762 9.68011 4.3999 10.1278 4.3999 10.6801V13.0801C4.3999 13.6324 4.84762 14.0801 5.3999 14.0801H7.7999C8.35219 14.0801 8.7999 13.6324 8.7999 13.0801V10.6801C8.7999 10.1278 8.35219 9.68011 7.7999 9.68011H5.3999ZM9.68018 10.6801C9.68018 10.1278 10.1279 9.68011 10.6802 9.68011H13.0802C13.6325 9.68011 14.0802 10.1278 14.0802 10.6801V13.0801C14.0802 13.6324 13.6325 14.0801 13.0802 14.0801H10.6802C10.1279 14.0801 9.68018 13.6324 9.68018 13.0801V10.6801ZM15.96 9.68011C15.4077 9.68011 14.96 10.1278 14.96 10.6801V13.0801C14.96 13.6324 15.4077 14.0801 15.96 14.0801H18.36C18.9122 14.0801 19.36 13.6324 19.36 13.0801V10.6801C19.36 10.1278 18.9122 9.68011 18.36 9.68011H15.96ZM4.39941 15.96C4.39941 15.4077 4.84713 14.96 5.39941 14.96H7.79941C8.3517 14.96 8.79941 15.4077 8.79941 15.96V18.36C8.79941 18.9123 8.3517 19.36 7.79941 19.36H5.39941C4.84713 19.36 4.39941 18.9123 4.39941 18.36V15.96ZM10.6797 14.96C10.1274 14.96 9.67969 15.4077 9.67969 15.96V18.36C9.67969 18.9123 10.1274 19.36 10.6797 19.36H13.0797C13.632 19.36 14.0797 18.9123 14.0797 18.36V15.96C14.0797 15.4077 13.632 14.96 13.0797 14.96H10.6797ZM14.9595 15.96C14.9595 15.4077 15.4072 14.96 15.9595 14.96H18.3595C18.9118 14.96 19.3595 15.4077 19.3595 15.96V18.36C19.3595 18.9123 18.9118 19.36 18.3595 19.36H15.9595C15.4072 19.36 14.9595 18.9123 14.9595 18.36V15.96ZM5.27893 1.75995C4.79292 1.75995 4.39893 2.15394 4.39893 2.63995C4.39893 3.12596 4.79292 3.51995 5.27893 3.51995H18.4789C18.9649 3.51995 19.3589 3.12596 19.3589 2.63995C19.3589 2.15394 18.9649 1.75995 18.4789 1.75995H5.27893Z" fill="white"/>
</svg>
