<svg width="14" height="14" viewBox="0 0 14 14" fill="none" xmlns="http://www.w3.org/2000/svg">
<path d="M6.48818 1.30281C5.98484 0.799463 5.14898 0.76843 4.60256 1.30281L1.30273 4.60264C0.782033 5.12334 0.782033 5.96756 1.30273 6.48826C1.80607 6.9916 2.6419 7.02856 3.18835 6.48826L3.42403 6.25243L5.39169 8.2201C4.7981 9.82665 5.19552 11.8092 6.48818 13.0879C6.62772 13.226 6.84249 13.208 6.95959 13.0879L9.78814 10.2593L11.9093 12.3808C12.0395 12.511 12.2506 12.511 12.3807 12.3808C12.5009 12.2607 12.522 12.0518 12.3807 11.9094L10.2595 9.78795L13.0878 6.95966C13.208 6.8395 13.2311 6.63154 13.0878 6.48826C11.8266 5.22703 9.91095 4.77562 8.22036 5.39143L6.25269 3.42377L6.48818 3.18842C7.02547 2.64837 6.99153 1.80615 6.48818 1.30281Z" fill="#32264C"/>
</svg>
