<svg width="40" height="38" viewBox="0 0 40 38" fill="none" xmlns="http://www.w3.org/2000/svg">
<path d="M30.4641 22.5097L30.456 22.5164L30.448 22.5233C29.7728 23.102 29.2947 24.1307 29.6182 25.1707L31.9973 34.9441C32.1897 35.9569 31.4733 36.6401 30.7754 36.6401C30.591 36.6401 30.3303 36.5727 30.1013 36.42L30.0874 36.4108L30.0732 36.402L21.4103 31.0362C21.4096 31.0357 21.4089 31.0353 21.4081 31.0348C20.5679 30.5108 19.5123 30.5106 18.6718 31.0343C18.6708 31.0349 18.6698 31.0355 18.6688 31.0362L10.0724 36.3362L10.0572 36.3455L10.0425 36.3554C9.81345 36.508 9.55277 36.5754 9.36837 36.5754C8.57298 36.5754 7.88417 35.8214 8.13242 34.9348L8.13704 34.9183L8.14109 34.9016L10.534 25.0712L10.5364 25.0615L10.5386 25.0517C10.7421 24.1356 10.449 23.1042 9.69579 22.4586L9.68897 22.4528L9.68205 22.4471L1.86004 15.9826C0.94796 15.2127 1.45948 13.6832 2.64 13.6094L2.64 13.6095L2.64752 13.6089L12.8013 12.8975L12.8216 12.8961L12.8418 12.8939C13.7875 12.7888 14.5859 12.1733 14.984 11.3771L15.0005 11.3441L15.0145 11.31L18.8949 1.86761L18.895 1.86763L18.8985 1.85889C19.1219 1.30036 19.6369 1 20.1689 1C20.7009 1 21.2159 1.30037 21.4393 1.85889L21.4393 1.8589L21.4429 1.86761L25.3233 11.31L25.3287 11.3231L25.3344 11.336C25.7149 12.1921 26.5311 12.8824 27.5667 12.8996L37.6903 13.6089L37.6936 13.6092C38.1858 13.642 38.6128 13.9985 38.7921 14.5364C38.9655 15.0566 38.8581 15.6062 38.4141 15.9817L30.4641 22.5097Z" stroke="#32264C" stroke-opacity="0.2" stroke-width="2"/>
</svg>
