<svg width="40" height="38" viewBox="0 0 40 38" fill="none" xmlns="http://www.w3.org/2000/svg">
<path d="M38.6632 16.7505L30.7084 23.2826C30.2557 23.6706 29.997 24.3173 30.191 24.8994L32.5839 34.7298C32.9073 36.3466 31.7432 37.6401 30.385 37.6401C29.997 37.6401 29.5442 37.5108 29.1562 37.2521L20.4899 31.8842C19.9725 31.5608 19.3258 31.5608 18.8084 31.8842L10.2068 37.1874C9.81875 37.4461 9.36603 37.5754 8.97799 37.5754C7.61984 37.5754 6.32636 36.282 6.77908 34.6651L9.17201 24.8347C9.30136 24.2527 9.10734 23.6059 8.65462 23.2179L0.829094 16.7505C-0.78775 15.3924 0.117683 12.7407 2.18724 12.6114L12.341 11.9C12.9231 11.8353 13.4405 11.4473 13.6992 10.9299L17.5796 1.4875C17.9676 0.517391 18.8731 0 19.7785 0C20.6839 0 21.5894 0.517391 21.9774 1.4875L25.8578 10.9299C26.1165 11.5119 26.6339 11.9 27.216 11.9L37.3698 12.6114C39.31 12.7407 40.2801 15.3924 38.6632 16.7505Z" fill="#32264C"/>
</svg>
