<svg width="35" height="43" viewBox="0 0 35 43" fill="none" xmlns="http://www.w3.org/2000/svg">
<path d="M33.624 40.8775C20.6359 32.7333 8.30677 20.7857 7.77002 4.56821C9.34367 5.85426 10.9175 7.14036 12.5396 8.44037C13.5172 9.2425 14.9554 7.86508 13.9778 7.06296C11.3781 4.96105 8.77835 2.85912 6.14395 0.694699C5.215 -0.0936351 3.80442 1.18646 4.62264 1.99609C4.48438 2.11447 4.34601 2.23264 4.27713 2.47562C3.47036 4.76707 2.61533 7.04467 1.82236 9.28745C1.0835 10.6006 0.538468 11.9687 0.305447 13.5301C0.106598 14.7862 1.78999 15.3159 2.19659 14.0661C2.66542 12.7816 3.14823 11.4483 3.61705 10.1638C3.73439 9.93453 3.85172 9.70528 4.01767 9.48982C4.19723 9.22574 4.23141 8.92048 4.14115 8.68484C4.67886 7.15731 5.21678 5.62963 5.80295 4.11579C6.14023 21.2218 18.9344 33.9312 32.6295 42.5384C33.6832 43.2568 34.6915 41.5475 33.6241 40.8775L33.624 40.8775Z" fill="white"/>
</svg>
