<svg width="35" height="43" viewBox="0 0 35 43" fill="none" xmlns="http://www.w3.org/2000/svg">
<path d="M1.19631 40.8775C14.1844 32.7333 26.5135 20.7857 27.0503 4.56821C25.4766 5.85426 23.9028 7.14036 22.2807 8.44037C21.3031 9.2425 19.8649 7.86508 20.8425 7.06296C23.4422 4.96105 26.042 2.85912 28.6764 0.694699C29.6053 -0.0936351 31.0159 1.18646 30.1977 1.99609C30.3359 2.11447 30.4743 2.23264 30.5432 2.47562C31.35 4.76707 32.205 7.04467 32.998 9.28745C33.7368 10.6006 34.2818 11.9687 34.5149 13.5301C34.7137 14.7862 33.0303 15.3159 32.6237 14.0661C32.1549 12.7816 31.6721 11.4483 31.2033 10.1638C31.0859 9.93453 30.9686 9.70528 30.8026 9.48982C30.6231 9.22574 30.5889 8.92048 30.6792 8.68484C30.1415 7.15731 29.6035 5.62963 29.0174 4.11579C28.6801 21.2218 15.8859 33.9312 2.19082 42.5384C1.13715 43.2568 0.128774 41.5475 1.19616 40.8775L1.19631 40.8775Z" fill="white"/>
</svg>
