<svg width="45" height="45" viewBox="0 0 45 45" fill="none" xmlns="http://www.w3.org/2000/svg">
<rect opacity="0.6" width="45" height="45" rx="22.5" fill="#219653"/>
<path d="M33.7403 18.7332C33.8516 18.0761 33.5177 17.3459 32.9613 16.9078L32.8871 16.8713C32.85 16.8348 32.85 16.8348 32.8129 16.8348L32.7387 16.7983C32.7387 16.7983 32.7016 16.7983 32.7016 16.7618L32.5903 16.7253C32.5532 16.6888 32.479 16.6888 32.4048 16.6523C31.4774 16.3602 30.4387 16.4697 29.4742 16.5793C29.2516 16.6158 27.1742 16.6158 27.1371 16.7618L27.471 15.7031C27.6565 15.1189 27.8048 14.5713 27.9903 13.9872C28.25 13.1475 28.3242 12.4904 28.25 11.8332C28.1387 11.03 27.6565 10.2634 26.9516 9.82528C26.5436 9.56973 26.0984 9.46021 25.6532 9.46021H25.5419C25.0968 9.49671 24.8371 9.71576 24.8 10.1539C24.7629 10.7015 24.6887 11.2126 24.6145 11.6872C24.4661 12.5269 24.2436 13.2205 23.9097 13.8046C23.7242 14.1332 23.5016 14.4618 23.2048 14.7173C22.8339 15.0824 22.4629 15.5205 22.0177 15.9951L21.0532 17.0904C20.8306 17.3459 20.6081 17.6015 20.3484 17.8205C20.3113 17.857 20.2371 17.93 20.1629 18.0031C20.0145 18.1491 19.7919 18.2586 19.6065 18.3681C19.4952 18.4046 19.3468 18.4777 19.1242 18.5142C18.3081 18.7332 17.8258 18.9523 17.7887 19.4634C17.7887 19.7189 17.7516 19.9745 17.7516 20.1935V20.3396V20.9602V28.4808H19.0129H19.0871C19.5323 28.5539 19.9774 28.6269 20.571 28.7364L20.8306 28.7729C21.9806 28.9554 23.0565 29.138 24.0952 29.2475C26.6919 29.5396 29.8452 30.3062 31.7742 27.9697C32.5532 27.0205 32.6274 25.6697 32.8129 24.5015C33.1468 22.5666 33.4807 20.6681 33.7403 18.7332Z" fill="white"/>
<path d="M15.5258 29.247H12.0758C11.6306 29.247 11.2597 28.8819 11.2597 28.4438V18.2946C11.2597 17.8565 11.6306 17.4915 12.0758 17.4915H15.5258C15.971 17.4915 16.3419 17.8565 16.3419 18.2946V28.4438C16.3419 28.8819 16.0081 29.247 15.5258 29.247Z" fill="white"/>
</svg>
