<svg width="45" height="45" viewBox="0 0 45 45" fill="none" xmlns="http://www.w3.org/2000/svg">
<rect opacity="0.6" width="45" height="45" rx="22.5" fill="#EB5757"/>
<path d="M12.2597 25.2668C12.1484 25.9239 12.4823 26.6541 13.0387 27.0922L13.1129 27.1287C13.15 27.1652 13.15 27.1652 13.1871 27.1652L13.2613 27.2017C13.2613 27.2017 13.2984 27.2017 13.2984 27.2382L13.4097 27.2747C13.4468 27.3112 13.521 27.3112 13.5952 27.3477C14.5226 27.6398 15.5613 27.5303 16.5258 27.4207C16.7484 27.3842 18.8258 27.3842 18.8629 27.2382L18.529 28.2969C18.3435 28.8811 18.1952 29.4287 18.0097 30.0128C17.75 30.8525 17.6758 31.5096 17.75 32.1668C17.8613 32.97 18.3435 33.7366 19.0484 34.1747C19.4564 34.4303 19.9016 34.5398 20.3468 34.5398H20.4581C20.9032 34.5033 21.1629 34.2842 21.2 33.8461C21.2371 33.2985 21.3113 32.7874 21.3855 32.3128C21.5339 31.4731 21.7564 30.7795 22.0903 30.1954C22.2758 29.8668 22.4984 29.5382 22.7952 29.2827C23.1661 28.9176 23.5371 28.4795 23.9823 28.0049L24.9468 26.9096C25.1694 26.6541 25.3919 26.3985 25.6516 26.1795C25.6887 26.143 25.7629 26.07 25.8371 25.9969C25.9855 25.8509 26.2081 25.7414 26.3935 25.6319C26.5048 25.5954 26.6532 25.5223 26.8758 25.4858C27.6919 25.2668 28.1742 25.0477 28.2113 24.5366C28.2113 24.2811 28.2484 24.0255 28.2484 23.8065V23.6604V23.0398V15.5192H26.9871H26.9129C26.4677 15.4461 26.0226 15.3731 25.429 15.2636L25.1694 15.2271C24.0194 15.0446 22.9435 14.862 21.9048 14.7525C19.3081 14.4604 16.1548 13.6938 14.2258 16.0303C13.4468 16.9795 13.3726 18.3303 13.1871 19.4985C12.8532 21.4334 12.5193 23.3319 12.2597 25.2668Z" fill="white"/>
<path d="M30.4742 14.753H33.9242C34.3694 14.753 34.7403 15.1181 34.7403 15.5562V25.7054C34.7403 26.1435 34.3694 26.5085 33.9242 26.5085H30.4742C30.029 26.5085 29.6581 26.1435 29.6581 25.7054V15.5562C29.6581 15.1181 29.9919 14.753 30.4742 14.753Z" fill="white"/>
</svg>
