<svg width="21" height="21" viewBox="0 0 21 21" fill="none" xmlns="http://www.w3.org/2000/svg">
<g clip-path="url(#clip0_2732_6839)">
<path d="M10.2661 0.29659C4.75523 0.29659 0.296101 4.75611 0.296101 10.2666C0.296101 15.7774 4.75562 20.2365 10.2661 20.2365C15.7769 20.2365 20.2361 15.777 20.2361 10.2666C20.2361 4.75572 15.7765 0.29659 10.2661 0.29659Z" fill="#32264C" stroke="#32264C" stroke-width="0.0992038"/>
<path d="M10.2673 8.70089C9.83876 8.70089 9.49142 9.04823 9.49142 9.47673V14.1723C9.49142 14.6008 9.83876 14.9481 10.2673 14.9481C10.6957 14.9481 11.0431 14.6008 11.0431 14.1723V9.47673C11.0431 9.04823 10.6957 8.70089 10.2673 8.70089Z" fill="#F0ECE4" stroke="#32264C" stroke-width="0.0933333"/>
<path d="M10.2666 7.90165C10.836 7.90165 11.2976 7.44003 11.2976 6.87061C11.2976 6.30118 10.836 5.83956 10.2666 5.83956C9.69717 5.83956 9.23556 6.30118 9.23556 6.87061C9.23556 7.44003 9.69717 7.90165 10.2666 7.90165Z" fill="#F0ECE4" stroke="#32264C" stroke-width="0.0933333"/>
</g>
<defs>
<clipPath id="clip0_2732_6839">
<rect width="20.5333" height="20.5333" fill="white"/>
</clipPath>
</defs>
</svg>
