<svg width="365" height="74" viewBox="0 0 365 74" fill="none" xmlns="http://www.w3.org/2000/svg">
<g filter="url(#filter0_d_239_728)">
<rect x="15" y="11" width="335" height="44" rx="20" fill="white"/>
</g>
<path d="M290.758 38.05C290.618 38.05 290.508 38.0067 290.428 37.92C290.348 37.8333 290.308 37.7133 290.308 37.56V33.57C290.308 33.41 290.348 33.29 290.428 33.21C290.508 33.1233 290.618 33.08 290.758 33.08C290.905 33.08 291.018 33.1233 291.098 33.21C291.178 33.29 291.218 33.41 291.218 33.57V37.56C291.218 37.7133 291.178 37.8333 291.098 37.92C291.025 38.0067 290.911 38.05 290.758 38.05ZM290.758 32C290.578 32 290.435 31.9533 290.328 31.86C290.228 31.76 290.178 31.63 290.178 31.47C290.178 31.2967 290.228 31.1667 290.328 31.08C290.435 30.9867 290.578 30.94 290.758 30.94C290.951 30.94 291.095 30.9867 291.188 31.08C291.288 31.1667 291.338 31.2967 291.338 31.47C291.338 31.63 291.288 31.76 291.188 31.86C291.095 31.9533 290.951 32 290.758 32ZM293.131 38.07C292.991 38.07 292.881 38.03 292.801 37.95C292.721 37.87 292.681 37.7533 292.681 37.6V33.52C292.681 33.3667 292.721 33.2533 292.801 33.18C292.881 33.1 292.991 33.06 293.131 33.06C293.271 33.06 293.378 33.1 293.451 33.18C293.531 33.2533 293.571 33.3667 293.571 33.52V34.34L293.461 34.19C293.601 33.81 293.828 33.5233 294.141 33.33C294.461 33.1367 294.825 33.04 295.231 33.04C295.625 33.04 295.948 33.11 296.201 33.25C296.455 33.39 296.645 33.6033 296.771 33.89C296.898 34.1767 296.961 34.54 296.961 34.98V37.6C296.961 37.7533 296.921 37.87 296.841 37.95C296.768 38.03 296.658 38.07 296.511 38.07C296.365 38.07 296.251 38.03 296.171 37.95C296.091 37.87 296.051 37.7533 296.051 37.6V35.03C296.051 34.5967 295.968 34.28 295.801 34.08C295.635 33.88 295.368 33.78 295.001 33.78C294.575 33.78 294.231 33.9133 293.971 34.18C293.718 34.44 293.591 34.7933 293.591 35.24V37.6C293.591 37.9133 293.438 38.07 293.131 38.07ZM300.514 38.09C300.02 38.09 299.594 37.9867 299.234 37.78C298.874 37.5667 298.597 37.27 298.404 36.89C298.21 36.5033 298.114 36.05 298.114 35.53C298.114 35.1433 298.167 34.7967 298.274 34.49C298.387 34.1833 298.547 33.9233 298.754 33.71C298.96 33.49 299.21 33.3233 299.504 33.21C299.804 33.0967 300.14 33.04 300.514 33.04C300.747 33.04 300.994 33.0767 301.254 33.15C301.514 33.2233 301.754 33.3433 301.974 33.51C302.047 33.5633 302.094 33.6267 302.114 33.7C302.134 33.7667 302.134 33.8367 302.114 33.91C302.1 33.9833 302.067 34.0467 302.014 34.1C301.967 34.1467 301.904 34.1733 301.824 34.18C301.75 34.1867 301.67 34.1633 301.584 34.11C301.424 33.99 301.254 33.9033 301.074 33.85C300.9 33.7967 300.734 33.77 300.574 33.77C300.327 33.77 300.107 33.81 299.914 33.89C299.727 33.97 299.567 34.0867 299.434 34.24C299.307 34.3867 299.21 34.57 299.144 34.79C299.077 35.0033 299.044 35.2533 299.044 35.54C299.044 36.1067 299.177 36.5533 299.444 36.88C299.71 37.2 300.087 37.36 300.574 37.36C300.734 37.36 300.9 37.3367 301.074 37.29C301.247 37.2367 301.417 37.15 301.584 37.03C301.67 36.9767 301.75 36.9567 301.824 36.97C301.897 36.9767 301.957 37.0067 302.004 37.06C302.057 37.1067 302.09 37.1667 302.104 37.24C302.117 37.3067 302.11 37.3767 302.084 37.45C302.064 37.5233 302.017 37.5833 301.944 37.63C301.73 37.79 301.497 37.9067 301.244 37.98C300.99 38.0533 300.747 38.09 300.514 38.09ZM303.522 38.07C303.369 38.07 303.252 38.03 303.172 37.95C303.092 37.87 303.052 37.7533 303.052 37.6V33.52C303.052 33.3667 303.092 33.2533 303.172 33.18C303.252 33.1 303.362 33.06 303.502 33.06C303.642 33.06 303.749 33.1 303.822 33.18C303.902 33.2533 303.942 33.3667 303.942 33.52V34.29H303.842C303.949 33.89 304.149 33.5867 304.442 33.38C304.736 33.1733 305.106 33.0567 305.552 33.03C305.659 33.0233 305.746 33.05 305.812 33.11C305.879 33.1633 305.916 33.2567 305.922 33.39C305.929 33.5167 305.899 33.62 305.832 33.7C305.766 33.7733 305.662 33.8167 305.522 33.83L305.342 33.84C304.902 33.8867 304.562 34.03 304.322 34.27C304.089 34.51 303.972 34.84 303.972 35.26V37.6C303.972 37.7533 303.932 37.87 303.852 37.95C303.779 38.03 303.669 38.07 303.522 38.07ZM308.886 38.09C308.36 38.09 307.906 37.99 307.526 37.79C307.153 37.5833 306.863 37.2933 306.656 36.92C306.45 36.54 306.346 36.0933 306.346 35.58C306.346 35.0733 306.446 34.63 306.646 34.25C306.853 33.87 307.133 33.5733 307.486 33.36C307.846 33.1467 308.256 33.04 308.716 33.04C309.043 33.04 309.336 33.0967 309.596 33.21C309.863 33.3167 310.09 33.4733 310.276 33.68C310.463 33.8867 310.603 34.14 310.696 34.44C310.796 34.7333 310.846 35.0667 310.846 35.44C310.846 35.5467 310.813 35.63 310.746 35.69C310.686 35.7433 310.596 35.77 310.476 35.77H307.056V35.19H310.246L310.076 35.33C310.076 34.9833 310.023 34.69 309.916 34.45C309.816 34.2033 309.666 34.0167 309.466 33.89C309.273 33.7633 309.03 33.7 308.736 33.7C308.416 33.7 308.143 33.7767 307.916 33.93C307.69 34.0767 307.516 34.2867 307.396 34.56C307.276 34.8267 307.216 35.1367 307.216 35.49V35.55C307.216 36.15 307.36 36.6033 307.646 36.91C307.933 37.2167 308.346 37.37 308.886 37.37C309.1 37.37 309.316 37.3433 309.536 37.29C309.763 37.2367 309.98 37.14 310.186 37C310.286 36.94 310.376 36.9133 310.456 36.92C310.543 36.92 310.613 36.9467 310.666 37C310.72 37.0467 310.753 37.1067 310.766 37.18C310.78 37.2467 310.77 37.32 310.736 37.4C310.703 37.48 310.64 37.55 310.546 37.61C310.326 37.7633 310.063 37.8833 309.756 37.97C309.456 38.05 309.166 38.09 308.886 38.09ZM312.428 38.05C312.288 38.05 312.178 38.0067 312.098 37.92C312.018 37.8333 311.978 37.7133 311.978 37.56V33.57C311.978 33.41 312.018 33.29 312.098 33.21C312.178 33.1233 312.288 33.08 312.428 33.08C312.575 33.08 312.688 33.1233 312.768 33.21C312.848 33.29 312.888 33.41 312.888 33.57V37.56C312.888 37.7133 312.848 37.8333 312.768 37.92C312.695 38.0067 312.581 38.05 312.428 38.05ZM312.788 32.43C312.735 32.5033 312.671 32.5467 312.598 32.56C312.531 32.5733 312.465 32.5633 312.398 32.53C312.331 32.49 312.285 32.4367 312.258 32.37C312.231 32.3033 312.238 32.2267 312.278 32.14L313.098 30.55C313.145 30.4433 313.208 30.3767 313.288 30.35C313.368 30.3167 313.448 30.31 313.528 30.33C313.615 30.35 313.688 30.39 313.748 30.45C313.808 30.5033 313.841 30.5733 313.848 30.66C313.861 30.74 313.841 30.8233 313.788 30.91L312.788 32.43ZM317.077 38.09C316.637 38.09 316.26 37.98 315.947 37.76C315.634 37.54 315.424 37.2433 315.317 36.87L315.427 36.72V37.6C315.427 37.7533 315.387 37.87 315.307 37.95C315.234 38.03 315.124 38.07 314.977 38.07C314.837 38.07 314.727 38.03 314.647 37.95C314.567 37.87 314.527 37.7533 314.527 37.6V31.34C314.527 31.1867 314.567 31.0733 314.647 31C314.727 30.92 314.837 30.88 314.977 30.88C315.124 30.88 315.237 30.92 315.317 31C315.397 31.0733 315.437 31.1867 315.437 31.34V34.23H315.327C315.434 33.87 315.644 33.5833 315.957 33.37C316.27 33.15 316.644 33.04 317.077 33.04C317.51 33.04 317.887 33.1433 318.207 33.35C318.534 33.55 318.784 33.84 318.957 34.22C319.137 34.5933 319.227 35.04 319.227 35.56C319.227 36.0733 319.137 36.5233 318.957 36.91C318.777 37.29 318.527 37.5833 318.207 37.79C317.887 37.99 317.51 38.09 317.077 38.09ZM316.867 37.37C317.154 37.37 317.404 37.3 317.617 37.16C317.837 37.02 318.007 36.8167 318.127 36.55C318.247 36.2833 318.307 35.9533 318.307 35.56C318.307 34.9733 318.177 34.5267 317.917 34.22C317.657 33.9133 317.307 33.76 316.867 33.76C316.574 33.76 316.317 33.83 316.097 33.97C315.884 34.1033 315.717 34.3033 315.597 34.57C315.484 34.8367 315.427 35.1667 315.427 35.56C315.427 36.1467 315.557 36.5967 315.817 36.91C316.077 37.2167 316.427 37.37 316.867 37.37ZM321.926 38.09C321.426 38.09 321.046 37.9433 320.786 37.65C320.526 37.35 320.396 36.92 320.396 36.36V31.34C320.396 31.1867 320.436 31.0733 320.516 31C320.596 30.92 320.706 30.88 320.846 30.88C320.993 30.88 321.106 30.92 321.186 31C321.266 31.0733 321.306 31.1867 321.306 31.34V36.29C321.306 36.6367 321.376 36.8967 321.516 37.07C321.663 37.2367 321.869 37.32 322.136 37.32C322.196 37.32 322.249 37.32 322.296 37.32C322.343 37.3133 322.389 37.3067 322.436 37.3C322.509 37.2933 322.563 37.3133 322.596 37.36C322.629 37.4067 322.646 37.5 322.646 37.64C322.646 37.7667 322.616 37.8667 322.556 37.94C322.503 38.0067 322.413 38.05 322.286 38.07C322.226 38.0767 322.166 38.08 322.106 38.08C322.046 38.0867 321.986 38.09 321.926 38.09ZM325.605 38.09C325.078 38.09 324.625 37.99 324.245 37.79C323.872 37.5833 323.582 37.2933 323.375 36.92C323.168 36.54 323.065 36.0933 323.065 35.58C323.065 35.0733 323.165 34.63 323.365 34.25C323.572 33.87 323.852 33.5733 324.205 33.36C324.565 33.1467 324.975 33.04 325.435 33.04C325.762 33.04 326.055 33.0967 326.315 33.21C326.582 33.3167 326.808 33.4733 326.995 33.68C327.182 33.8867 327.322 34.14 327.415 34.44C327.515 34.7333 327.565 35.0667 327.565 35.44C327.565 35.5467 327.532 35.63 327.465 35.69C327.405 35.7433 327.315 35.77 327.195 35.77H323.775V35.19H326.965L326.795 35.33C326.795 34.9833 326.742 34.69 326.635 34.45C326.535 34.2033 326.385 34.0167 326.185 33.89C325.992 33.7633 325.748 33.7 325.455 33.7C325.135 33.7 324.862 33.7767 324.635 33.93C324.408 34.0767 324.235 34.2867 324.115 34.56C323.995 34.8267 323.935 35.1367 323.935 35.49V35.55C323.935 36.15 324.078 36.6033 324.365 36.91C324.652 37.2167 325.065 37.37 325.605 37.37C325.818 37.37 326.035 37.3433 326.255 37.29C326.482 37.2367 326.698 37.14 326.905 37C327.005 36.94 327.095 36.9133 327.175 36.92C327.262 36.92 327.332 36.9467 327.385 37C327.438 37.0467 327.472 37.1067 327.485 37.18C327.498 37.2467 327.488 37.32 327.455 37.4C327.422 37.48 327.358 37.55 327.265 37.61C327.045 37.7633 326.782 37.8833 326.475 37.97C326.175 38.05 325.885 38.09 325.605 38.09Z" fill="#32264C" fill-opacity="0.6"/>
<circle cx="276.289" cy="34.9584" r="7.28942" fill="#FFA191"/>
<path fill-rule="evenodd" clip-rule="evenodd" d="M274.232 32.0171C273.856 32.0171 273.552 32.3217 273.552 32.6972C273.552 33.073 273.856 33.3774 274.232 33.3774C274.607 33.3774 274.912 33.073 274.912 32.6972C274.912 32.3217 274.607 32.0171 274.232 32.0171ZM278.141 32.0171C277.766 32.0171 277.461 32.3217 277.461 32.6972C277.461 33.073 277.766 33.3774 278.141 33.3774C278.517 33.3774 278.821 33.073 278.821 32.6972C278.821 32.3217 278.517 32.0171 278.141 32.0171ZM273.376 35.5008C273.219 35.5008 273.092 35.628 273.092 35.7852C273.092 37.0921 274.244 38.1555 275.66 38.1555H276.802C278.218 38.1555 279.37 37.0921 279.37 35.7852C279.37 35.628 279.242 35.5008 279.085 35.5008H273.376ZM273.685 36.0695H278.776C278.624 36.9281 277.797 37.5868 276.802 37.5868H275.66C274.665 37.5868 273.837 36.9281 273.685 36.0695Z" fill="#32264C" fill-opacity="0.6"/>
<path d="M234.714 38.09C234.274 38.09 233.897 37.98 233.584 37.76C233.27 37.54 233.06 37.2433 232.954 36.87L233.064 36.72V37.6C233.064 37.7533 233.024 37.87 232.944 37.95C232.87 38.03 232.76 38.07 232.614 38.07C232.474 38.07 232.364 38.03 232.284 37.95C232.204 37.87 232.164 37.7533 232.164 37.6V31.34C232.164 31.1867 232.204 31.0733 232.284 31C232.364 30.92 232.474 30.88 232.614 30.88C232.76 30.88 232.874 30.92 232.954 31C233.034 31.0733 233.074 31.1867 233.074 31.34V34.23H232.964C233.07 33.87 233.28 33.5833 233.594 33.37C233.907 33.15 234.28 33.04 234.714 33.04C235.147 33.04 235.524 33.1433 235.844 33.35C236.17 33.55 236.42 33.84 236.594 34.22C236.774 34.5933 236.864 35.04 236.864 35.56C236.864 36.0733 236.774 36.5233 236.594 36.91C236.414 37.29 236.164 37.5833 235.844 37.79C235.524 37.99 235.147 38.09 234.714 38.09ZM234.504 37.37C234.79 37.37 235.04 37.3 235.254 37.16C235.474 37.02 235.644 36.8167 235.764 36.55C235.884 36.2833 235.944 35.9533 235.944 35.56C235.944 34.9733 235.814 34.5267 235.554 34.22C235.294 33.9133 234.944 33.76 234.504 33.76C234.21 33.76 233.954 33.83 233.734 33.97C233.52 34.1033 233.354 34.3033 233.234 34.57C233.12 34.8367 233.064 35.1667 233.064 35.56C233.064 36.1467 233.194 36.5967 233.454 36.91C233.714 37.2167 234.064 37.37 234.504 37.37ZM238.483 38.05C238.343 38.05 238.233 38.0067 238.153 37.92C238.073 37.8333 238.033 37.7133 238.033 37.56V33.57C238.033 33.41 238.073 33.29 238.153 33.21C238.233 33.1233 238.343 33.08 238.483 33.08C238.629 33.08 238.743 33.1233 238.823 33.21C238.903 33.29 238.943 33.41 238.943 33.57V37.56C238.943 37.7133 238.903 37.8333 238.823 37.92C238.749 38.0067 238.636 38.05 238.483 38.05ZM238.483 32C238.303 32 238.159 31.9533 238.053 31.86C237.953 31.76 237.903 31.63 237.903 31.47C237.903 31.2967 237.953 31.1667 238.053 31.08C238.159 30.9867 238.303 30.94 238.483 30.94C238.676 30.94 238.819 30.9867 238.913 31.08C239.013 31.1667 239.063 31.2967 239.063 31.47C239.063 31.63 239.013 31.76 238.913 31.86C238.819 31.9533 238.676 32 238.483 32ZM242.656 38.09C242.129 38.09 241.676 37.99 241.296 37.79C240.922 37.5833 240.632 37.2933 240.426 36.92C240.219 36.54 240.116 36.0933 240.116 35.58C240.116 35.0733 240.216 34.63 240.416 34.25C240.622 33.87 240.902 33.5733 241.256 33.36C241.616 33.1467 242.026 33.04 242.486 33.04C242.812 33.04 243.106 33.0967 243.366 33.21C243.632 33.3167 243.859 33.4733 244.046 33.68C244.232 33.8867 244.372 34.14 244.466 34.44C244.566 34.7333 244.616 35.0667 244.616 35.44C244.616 35.5467 244.582 35.63 244.516 35.69C244.456 35.7433 244.366 35.77 244.246 35.77H240.826V35.19H244.016L243.846 35.33C243.846 34.9833 243.792 34.69 243.686 34.45C243.586 34.2033 243.436 34.0167 243.236 33.89C243.042 33.7633 242.799 33.7 242.506 33.7C242.186 33.7 241.912 33.7767 241.686 33.93C241.459 34.0767 241.286 34.2867 241.166 34.56C241.046 34.8267 240.986 35.1367 240.986 35.49V35.55C240.986 36.15 241.129 36.6033 241.416 36.91C241.702 37.2167 242.116 37.37 242.656 37.37C242.869 37.37 243.086 37.3433 243.306 37.29C243.532 37.2367 243.749 37.14 243.956 37C244.056 36.94 244.146 36.9133 244.226 36.92C244.312 36.92 244.382 36.9467 244.436 37C244.489 37.0467 244.522 37.1067 244.536 37.18C244.549 37.2467 244.539 37.32 244.506 37.4C244.472 37.48 244.409 37.55 244.316 37.61C244.096 37.7633 243.832 37.8833 243.526 37.97C243.226 38.05 242.936 38.09 242.656 38.09ZM246.198 38.07C246.058 38.07 245.948 38.03 245.868 37.95C245.788 37.87 245.748 37.7533 245.748 37.6V33.52C245.748 33.3667 245.788 33.2533 245.868 33.18C245.948 33.1 246.058 33.06 246.198 33.06C246.338 33.06 246.444 33.1 246.518 33.18C246.598 33.2533 246.638 33.3667 246.638 33.52V34.34L246.528 34.19C246.668 33.81 246.894 33.5233 247.208 33.33C247.528 33.1367 247.891 33.04 248.298 33.04C248.691 33.04 249.014 33.11 249.268 33.25C249.521 33.39 249.711 33.6033 249.838 33.89C249.964 34.1767 250.028 34.54 250.028 34.98V37.6C250.028 37.7533 249.988 37.87 249.908 37.95C249.834 38.03 249.724 38.07 249.578 38.07C249.431 38.07 249.318 38.03 249.238 37.95C249.158 37.87 249.118 37.7533 249.118 37.6V35.03C249.118 34.5967 249.034 34.28 248.868 34.08C248.701 33.88 248.434 33.78 248.068 33.78C247.641 33.78 247.298 33.9133 247.038 34.18C246.784 34.44 246.658 34.7933 246.658 35.24V37.6C246.658 37.9133 246.504 38.07 246.198 38.07Z" fill="#32264C" fill-opacity="0.6"/>
<circle cx="218.289" cy="34.9584" r="7.28942" fill="#FFB4A7"/>
<path fill-rule="evenodd" clip-rule="evenodd" d="M216.078 32.0171C215.675 32.0171 215.348 32.3435 215.348 32.7467C215.348 33.15 215.675 33.4772 216.078 33.4772C216.481 33.4772 216.808 33.15 216.808 32.7467C216.808 32.3435 216.481 32.0171 216.078 32.0171ZM220.275 32.0171C219.872 32.0171 219.545 32.3435 219.545 32.7467C219.545 33.15 219.872 33.4772 220.275 33.4772C220.678 33.4772 221.004 33.15 221.004 32.7467C221.004 32.3435 220.678 32.0171 220.275 32.0171ZM215.702 35.5538C215.536 35.5538 215.402 35.6883 215.402 35.8546C215.402 37.1233 216.446 38.1555 217.73 38.1555H218.744C220.049 38.1555 221.072 37.1571 221.072 35.8828C221.072 35.7165 220.938 35.582 220.771 35.582C220.605 35.582 220.471 35.7165 220.471 35.8828C220.471 36.8198 219.712 37.554 218.744 37.554H217.73C216.762 37.554 216.003 36.8073 216.003 35.8546C216.003 35.6883 215.869 35.5538 215.702 35.5538Z" fill="#32264C" fill-opacity="0.6"/>
<path d="M171.489 38.07C171.349 38.07 171.239 38.03 171.159 37.95C171.079 37.87 171.039 37.7533 171.039 37.6V33.52C171.039 33.3667 171.079 33.2533 171.159 33.18C171.239 33.1 171.349 33.06 171.489 33.06C171.629 33.06 171.736 33.1 171.809 33.18C171.889 33.2533 171.929 33.3667 171.929 33.52V34.37L171.819 34.19C171.946 33.8233 172.149 33.54 172.429 33.34C172.716 33.14 173.056 33.04 173.449 33.04C173.862 33.04 174.196 33.14 174.449 33.34C174.702 33.5333 174.872 33.83 174.959 34.23H174.819C174.939 33.8633 175.152 33.5733 175.459 33.36C175.772 33.1467 176.136 33.04 176.549 33.04C176.916 33.04 177.216 33.1133 177.449 33.26C177.689 33.4 177.869 33.6133 177.989 33.9C178.109 34.18 178.169 34.54 178.169 34.98V37.6C178.169 37.7533 178.129 37.87 178.049 37.95C177.969 38.03 177.859 38.07 177.719 38.07C177.572 38.07 177.459 38.03 177.379 37.95C177.299 37.87 177.259 37.7533 177.259 37.6V35.02C177.259 34.5933 177.186 34.28 177.039 34.08C176.892 33.88 176.646 33.78 176.299 33.78C175.919 33.78 175.616 33.9133 175.389 34.18C175.169 34.44 175.059 34.8 175.059 35.26V37.6C175.059 37.7533 175.019 37.87 174.939 37.95C174.866 38.03 174.756 38.07 174.609 38.07C174.462 38.07 174.349 38.03 174.269 37.95C174.189 37.87 174.149 37.7533 174.149 37.6V35.02C174.149 34.5933 174.076 34.28 173.929 34.08C173.782 33.88 173.536 33.78 173.189 33.78C172.809 33.78 172.506 33.9133 172.279 34.18C172.059 34.44 171.949 34.8 171.949 35.26V37.6C171.949 37.9133 171.796 38.07 171.489 38.07ZM181.882 38.09C181.356 38.09 180.902 37.99 180.522 37.79C180.149 37.5833 179.859 37.2933 179.652 36.92C179.446 36.54 179.342 36.0933 179.342 35.58C179.342 35.0733 179.442 34.63 179.642 34.25C179.849 33.87 180.129 33.5733 180.482 33.36C180.842 33.1467 181.252 33.04 181.712 33.04C182.039 33.04 182.332 33.0967 182.592 33.21C182.859 33.3167 183.086 33.4733 183.272 33.68C183.459 33.8867 183.599 34.14 183.692 34.44C183.792 34.7333 183.842 35.0667 183.842 35.44C183.842 35.5467 183.809 35.63 183.742 35.69C183.682 35.7433 183.592 35.77 183.472 35.77H180.052V35.19H183.242L183.072 35.33C183.072 34.9833 183.019 34.69 182.912 34.45C182.812 34.2033 182.662 34.0167 182.462 33.89C182.269 33.7633 182.026 33.7 181.732 33.7C181.412 33.7 181.139 33.7767 180.912 33.93C180.686 34.0767 180.512 34.2867 180.392 34.56C180.272 34.8267 180.212 35.1367 180.212 35.49V35.55C180.212 36.15 180.356 36.6033 180.642 36.91C180.929 37.2167 181.342 37.37 181.882 37.37C182.096 37.37 182.312 37.3433 182.532 37.29C182.759 37.2367 182.976 37.14 183.182 37C183.282 36.94 183.372 36.9133 183.452 36.92C183.539 36.92 183.609 36.9467 183.662 37C183.716 37.0467 183.749 37.1067 183.762 37.18C183.776 37.2467 183.766 37.32 183.732 37.4C183.699 37.48 183.636 37.55 183.542 37.61C183.322 37.7633 183.059 37.8833 182.752 37.97C182.452 38.05 182.162 38.09 181.882 38.09ZM185.424 38.07C185.284 38.07 185.174 38.03 185.094 37.95C185.014 37.87 184.974 37.7533 184.974 37.6V31.34C184.974 31.1867 185.014 31.0733 185.094 31C185.174 30.92 185.284 30.88 185.424 30.88C185.571 30.88 185.684 30.92 185.764 31C185.844 31.0733 185.884 31.1867 185.884 31.34V34.19H185.754C185.894 33.81 186.121 33.5233 186.434 33.33C186.754 33.1367 187.117 33.04 187.524 33.04C187.917 33.04 188.241 33.1133 188.494 33.26C188.747 33.4 188.937 33.6133 189.064 33.9C189.191 34.1867 189.254 34.5467 189.254 34.98V37.6C189.254 37.7533 189.214 37.87 189.134 37.95C189.061 38.03 188.951 38.07 188.804 38.07C188.657 38.07 188.544 38.03 188.464 37.95C188.384 37.87 188.344 37.7533 188.344 37.6V35.03C188.344 34.5967 188.261 34.28 188.094 34.08C187.927 33.88 187.661 33.78 187.294 33.78C186.867 33.78 186.524 33.9133 186.264 34.18C186.011 34.44 185.884 34.7933 185.884 35.24V37.6C185.884 37.9133 185.731 38.07 185.424 38.07Z" fill="#32264C" fill-opacity="0.6"/>
<circle cx="158.289" cy="34.9584" r="7.28942" fill="#FFC7BD"/>
<path fill-rule="evenodd" clip-rule="evenodd" d="M155.644 32.0171C155.198 32.0171 154.837 32.3787 154.837 32.8244C154.837 33.2704 155.198 33.6317 155.644 33.6317C156.09 33.6317 156.451 33.2704 156.451 32.8244C156.451 32.3787 156.09 32.0171 155.644 32.0171ZM160.284 32.0171C159.839 32.0171 159.477 32.3787 159.477 32.8244C159.477 33.2704 159.839 33.6317 160.284 33.6317C160.73 33.6317 161.091 33.2704 161.091 32.8244C161.091 32.3787 160.73 32.0171 160.284 32.0171ZM157.074 36.0659C155.956 36.0486 155.095 36.8778 155.059 36.9136C154.926 37.0443 154.925 37.2568 155.055 37.3896C155.186 37.5223 155.399 37.5247 155.532 37.3944C155.539 37.3876 156.236 36.7153 157.064 36.7409C157.514 36.7522 157.937 36.9683 158.321 37.383C158.796 37.8962 159.306 38.1555 159.838 38.1555C159.888 38.1555 159.938 38.153 159.988 38.1485C161.022 38.0551 161.701 37.0041 161.73 36.9593C161.83 36.8025 161.784 36.5947 161.627 36.4944C161.47 36.3938 161.262 36.4397 161.161 36.5963C161.156 36.6046 160.627 37.4149 159.925 37.4766C159.561 37.5076 159.186 37.3229 158.816 36.9242C158.302 36.3688 157.716 36.0801 157.074 36.0659Z" fill="#32264C" fill-opacity="0.6"/>
<path d="M116.345 38.07C116.205 38.07 116.095 38.03 116.015 37.95C115.935 37.87 115.895 37.7533 115.895 37.6V33.52C115.895 33.3667 115.935 33.2533 116.015 33.18C116.095 33.1 116.205 33.06 116.345 33.06C116.485 33.06 116.591 33.1 116.665 33.18C116.745 33.2533 116.785 33.3667 116.785 33.52V34.37L116.675 34.19C116.801 33.8233 117.005 33.54 117.285 33.34C117.571 33.14 117.911 33.04 118.305 33.04C118.718 33.04 119.051 33.14 119.305 33.34C119.558 33.5333 119.728 33.83 119.815 34.23H119.675C119.795 33.8633 120.008 33.5733 120.315 33.36C120.628 33.1467 120.991 33.04 121.405 33.04C121.771 33.04 122.071 33.1133 122.305 33.26C122.545 33.4 122.725 33.6133 122.845 33.9C122.965 34.18 123.025 34.54 123.025 34.98V37.6C123.025 37.7533 122.985 37.87 122.905 37.95C122.825 38.03 122.715 38.07 122.575 38.07C122.428 38.07 122.315 38.03 122.235 37.95C122.155 37.87 122.115 37.7533 122.115 37.6V35.02C122.115 34.5933 122.041 34.28 121.895 34.08C121.748 33.88 121.501 33.78 121.155 33.78C120.775 33.78 120.471 33.9133 120.245 34.18C120.025 34.44 119.915 34.8 119.915 35.26V37.6C119.915 37.7533 119.875 37.87 119.795 37.95C119.721 38.03 119.611 38.07 119.465 38.07C119.318 38.07 119.205 38.03 119.125 37.95C119.045 37.87 119.005 37.7533 119.005 37.6V35.02C119.005 34.5933 118.931 34.28 118.785 34.08C118.638 33.88 118.391 33.78 118.045 33.78C117.665 33.78 117.361 33.9133 117.135 34.18C116.915 34.44 116.805 34.8 116.805 35.26V37.6C116.805 37.9133 116.651 38.07 116.345 38.07ZM126.038 38.09C125.704 38.09 125.401 38.0233 125.128 37.89C124.861 37.7567 124.651 37.5767 124.498 37.35C124.351 37.1233 124.278 36.87 124.278 36.59C124.278 36.23 124.368 35.9467 124.548 35.74C124.728 35.5333 125.031 35.3867 125.458 35.3C125.884 35.2067 126.458 35.16 127.178 35.16H127.648V35.74H127.198C126.684 35.74 126.278 35.7633 125.978 35.81C125.684 35.8567 125.478 35.94 125.358 36.06C125.238 36.1733 125.178 36.3333 125.178 36.54C125.178 36.8 125.268 37.0133 125.448 37.18C125.634 37.3467 125.888 37.43 126.208 37.43C126.461 37.43 126.684 37.37 126.878 37.25C127.071 37.1233 127.224 36.9567 127.338 36.75C127.451 36.5367 127.508 36.2933 127.508 36.02V34.87C127.508 34.4767 127.428 34.1933 127.268 34.02C127.108 33.84 126.838 33.75 126.458 33.75C126.238 33.75 126.011 33.78 125.778 33.84C125.544 33.9 125.301 33.9933 125.048 34.12C124.948 34.1667 124.861 34.1833 124.788 34.17C124.714 34.15 124.654 34.11 124.608 34.05C124.568 33.9833 124.544 33.9133 124.538 33.84C124.538 33.76 124.554 33.6833 124.588 33.61C124.628 33.5367 124.694 33.4833 124.788 33.45C125.081 33.3033 125.371 33.2 125.658 33.14C125.951 33.0733 126.224 33.04 126.478 33.04C126.911 33.04 127.268 33.11 127.548 33.25C127.828 33.3833 128.038 33.5933 128.178 33.88C128.318 34.16 128.388 34.52 128.388 34.96V37.6C128.388 37.7533 128.351 37.87 128.278 37.95C128.204 38.03 128.098 38.07 127.958 38.07C127.824 38.07 127.718 38.03 127.638 37.95C127.564 37.87 127.528 37.7533 127.528 37.6V36.89H127.618C127.564 37.1367 127.464 37.35 127.318 37.53C127.171 37.71 126.988 37.85 126.768 37.95C126.554 38.0433 126.311 38.09 126.038 38.09ZM131.35 38.09C130.85 38.09 130.47 37.9433 130.21 37.65C129.95 37.35 129.82 36.92 129.82 36.36V31.34C129.82 31.1867 129.86 31.0733 129.94 31C130.02 30.92 130.13 30.88 130.27 30.88C130.417 30.88 130.53 30.92 130.61 31C130.69 31.0733 130.73 31.1867 130.73 31.34V36.29C130.73 36.6367 130.8 36.8967 130.94 37.07C131.087 37.2367 131.293 37.32 131.56 37.32C131.62 37.32 131.673 37.32 131.72 37.32C131.767 37.3133 131.813 37.3067 131.86 37.3C131.933 37.2933 131.987 37.3133 132.02 37.36C132.053 37.4067 132.07 37.5 132.07 37.64C132.07 37.7667 132.04 37.8667 131.98 37.94C131.927 38.0067 131.837 38.05 131.71 38.07C131.65 38.0767 131.59 38.08 131.53 38.08C131.47 38.0867 131.41 38.09 131.35 38.09Z" fill="#32264C" fill-opacity="0.6"/>
<circle cx="102.289" cy="34.9584" r="7.28942" fill="#FFD9D3"/>
<path fill-rule="evenodd" clip-rule="evenodd" d="M100.072 32.0171C99.6721 32.0171 99.3477 32.341 99.3477 32.7411C99.3477 33.1413 99.6721 33.4659 100.072 33.4659C100.472 33.4659 100.796 33.1413 100.796 32.7411C100.796 32.341 100.472 32.0171 100.072 32.0171ZM104.237 32.0171C103.837 32.0171 103.512 32.341 103.512 32.7411C103.512 33.1413 103.837 33.4659 104.237 33.4659C104.637 33.4659 104.961 33.1413 104.961 32.7411C104.961 32.341 104.637 32.0171 104.237 32.0171ZM101.712 35.5206C100.438 35.5206 99.4013 36.5687 99.4013 37.8571C99.4013 38.022 99.535 38.1555 99.6998 38.1555C99.8645 38.1555 99.9982 38.022 99.9982 37.8571C99.9982 36.8978 100.767 36.1176 101.712 36.1176H102.717C103.662 36.1176 104.431 36.8923 104.431 37.8443C104.431 38.0092 104.565 38.1431 104.729 38.1431C104.894 38.1431 105.028 38.0092 105.028 37.8443C105.028 36.563 103.991 35.5206 102.717 35.5206H101.712Z" fill="#32264C" fill-opacity="0.6"/>
<path d="M56.47 38.07C56.3233 38.07 56.21 38.03 56.13 37.95C56.05 37.87 56.01 37.7533 56.01 37.6V33.83H55.41C55.29 33.83 55.1967 33.8 55.13 33.74C55.0633 33.6733 55.03 33.5867 55.03 33.48C55.03 33.3667 55.0633 33.28 55.13 33.22C55.1967 33.16 55.29 33.13 55.41 33.13H56.26L56.01 33.37V33C56.01 32.3533 56.1667 31.8633 56.48 31.53C56.8 31.19 57.2667 30.9933 57.88 30.94L58.19 30.92C58.29 30.9067 58.37 30.9233 58.43 30.97C58.49 31.01 58.53 31.0633 58.55 31.13C58.57 31.1967 58.57 31.2667 58.55 31.34C58.5367 31.4067 58.5067 31.4667 58.46 31.52C58.4133 31.5733 58.3533 31.6033 58.28 31.61L58.06 31.62C57.66 31.6533 57.37 31.7733 57.19 31.98C57.01 32.18 56.92 32.48 56.92 32.88V33.28L56.79 33.13H57.94C58.0667 33.13 58.1633 33.16 58.23 33.22C58.2967 33.28 58.33 33.3667 58.33 33.48C58.33 33.5867 58.2967 33.6733 58.23 33.74C58.1633 33.8 58.0667 33.83 57.94 33.83H56.92V37.6C56.92 37.9133 56.77 38.07 56.47 38.07ZM60.6296 38.09C60.2963 38.09 59.9929 38.0233 59.7196 37.89C59.4529 37.7567 59.2429 37.5767 59.0896 37.35C58.9429 37.1233 58.8696 36.87 58.8696 36.59C58.8696 36.23 58.9596 35.9467 59.1396 35.74C59.3196 35.5333 59.6229 35.3867 60.0496 35.3C60.4763 35.2067 61.0496 35.16 61.7696 35.16H62.2396V35.74H61.7896C61.2763 35.74 60.8696 35.7633 60.5696 35.81C60.2763 35.8567 60.0696 35.94 59.9496 36.06C59.8296 36.1733 59.7696 36.3333 59.7696 36.54C59.7696 36.8 59.8596 37.0133 60.0396 37.18C60.2263 37.3467 60.4796 37.43 60.7996 37.43C61.0529 37.43 61.2763 37.37 61.4696 37.25C61.6629 37.1233 61.8163 36.9567 61.9296 36.75C62.0429 36.5367 62.0996 36.2933 62.0996 36.02V34.87C62.0996 34.4767 62.0196 34.1933 61.8596 34.02C61.6996 33.84 61.4296 33.75 61.0496 33.75C60.8296 33.75 60.6029 33.78 60.3696 33.84C60.1363 33.9 59.8929 33.9933 59.6396 34.12C59.5396 34.1667 59.4529 34.1833 59.3796 34.17C59.3063 34.15 59.2463 34.11 59.1996 34.05C59.1596 33.9833 59.1363 33.9133 59.1296 33.84C59.1296 33.76 59.1463 33.6833 59.1796 33.61C59.2196 33.5367 59.2863 33.4833 59.3796 33.45C59.6729 33.3033 59.9629 33.2 60.2496 33.14C60.5429 33.0733 60.8163 33.04 61.0696 33.04C61.5029 33.04 61.8596 33.11 62.1396 33.25C62.4196 33.3833 62.6296 33.5933 62.7696 33.88C62.9096 34.16 62.9796 34.52 62.9796 34.96V37.6C62.9796 37.7533 62.9429 37.87 62.8696 37.95C62.7963 38.03 62.6896 38.07 62.5496 38.07C62.4163 38.07 62.3096 38.03 62.2296 37.95C62.1563 37.87 62.1196 37.7533 62.1196 37.6V36.89H62.2096C62.1563 37.1367 62.0563 37.35 61.9096 37.53C61.7629 37.71 61.5796 37.85 61.3596 37.95C61.1463 38.0433 60.9029 38.09 60.6296 38.09ZM66.4316 38.09C66.0383 38.09 65.7083 38.02 65.4416 37.88C65.1816 37.74 64.985 37.5367 64.8516 37.27C64.725 37.0033 64.6616 36.6767 64.6616 36.29V33.83H64.0216C63.9016 33.83 63.8083 33.8 63.7416 33.74C63.675 33.6733 63.6416 33.5867 63.6416 33.48C63.6416 33.3667 63.675 33.28 63.7416 33.22C63.8083 33.16 63.9016 33.13 64.0216 33.13H64.6616V32.04C64.6616 31.8867 64.7016 31.7733 64.7816 31.7C64.8616 31.62 64.975 31.58 65.1216 31.58C65.2683 31.58 65.3783 31.62 65.4516 31.7C65.5316 31.7733 65.5716 31.8867 65.5716 32.04V33.13H66.7816C66.9083 33.13 67.005 33.16 67.0716 33.22C67.1383 33.28 67.1716 33.3667 67.1716 33.48C67.1716 33.5867 67.1383 33.6733 67.0716 33.74C67.005 33.8 66.9083 33.83 66.7816 33.83H65.5716V36.21C65.5716 36.5767 65.6483 36.8533 65.8016 37.04C65.955 37.2267 66.2083 37.32 66.5616 37.32C66.6883 37.32 66.795 37.31 66.8816 37.29C66.9683 37.2633 67.045 37.25 67.1116 37.25C67.1716 37.2433 67.2216 37.2633 67.2616 37.31C67.3083 37.3567 67.3316 37.4433 67.3316 37.57C67.3316 37.6633 67.315 37.75 67.2816 37.83C67.255 37.9033 67.1983 37.9533 67.1116 37.98C67.0316 38.0067 66.925 38.03 66.7916 38.05C66.6583 38.0767 66.5383 38.09 66.4316 38.09ZM69.5456 38.09C69.2123 38.09 68.909 38.0233 68.6356 37.89C68.369 37.7567 68.159 37.5767 68.0056 37.35C67.859 37.1233 67.7856 36.87 67.7856 36.59C67.7856 36.23 67.8756 35.9467 68.0556 35.74C68.2356 35.5333 68.539 35.3867 68.9656 35.3C69.3923 35.2067 69.9656 35.16 70.6856 35.16H71.1556V35.74H70.7056C70.1923 35.74 69.7856 35.7633 69.4856 35.81C69.1923 35.8567 68.9856 35.94 68.8656 36.06C68.7456 36.1733 68.6856 36.3333 68.6856 36.54C68.6856 36.8 68.7756 37.0133 68.9556 37.18C69.1423 37.3467 69.3956 37.43 69.7156 37.43C69.969 37.43 70.1923 37.37 70.3856 37.25C70.579 37.1233 70.7323 36.9567 70.8456 36.75C70.959 36.5367 71.0156 36.2933 71.0156 36.02V34.87C71.0156 34.4767 70.9356 34.1933 70.7756 34.02C70.6156 33.84 70.3456 33.75 69.9656 33.75C69.7456 33.75 69.519 33.78 69.2856 33.84C69.0523 33.9 68.809 33.9933 68.5556 34.12C68.4556 34.1667 68.369 34.1833 68.2956 34.17C68.2223 34.15 68.1623 34.11 68.1156 34.05C68.0756 33.9833 68.0523 33.9133 68.0456 33.84C68.0456 33.76 68.0623 33.6833 68.0956 33.61C68.1356 33.5367 68.2023 33.4833 68.2956 33.45C68.589 33.3033 68.879 33.2 69.1656 33.14C69.459 33.0733 69.7323 33.04 69.9856 33.04C70.419 33.04 70.7756 33.11 71.0556 33.25C71.3356 33.3833 71.5456 33.5933 71.6856 33.88C71.8256 34.16 71.8956 34.52 71.8956 34.96V37.6C71.8956 37.7533 71.859 37.87 71.7856 37.95C71.7123 38.03 71.6056 38.07 71.4656 38.07C71.3323 38.07 71.2256 38.03 71.1456 37.95C71.0723 37.87 71.0356 37.7533 71.0356 37.6V36.89H71.1256C71.0723 37.1367 70.9723 37.35 70.8256 37.53C70.679 37.71 70.4956 37.85 70.2756 37.95C70.0623 38.0433 69.819 38.09 69.5456 38.09ZM74.8577 38.09C74.3577 38.09 73.9777 37.9433 73.7177 37.65C73.4577 37.35 73.3277 36.92 73.3277 36.36V31.34C73.3277 31.1867 73.3677 31.0733 73.4477 31C73.5277 30.92 73.6377 30.88 73.7777 30.88C73.9243 30.88 74.0377 30.92 74.1177 31C74.1977 31.0733 74.2377 31.1867 74.2377 31.34V36.29C74.2377 36.6367 74.3077 36.8967 74.4477 37.07C74.5943 37.2367 74.801 37.32 75.0677 37.32C75.1277 37.32 75.181 37.32 75.2277 37.32C75.2743 37.3133 75.321 37.3067 75.3677 37.3C75.441 37.2933 75.4943 37.3133 75.5277 37.36C75.561 37.4067 75.5777 37.5 75.5777 37.64C75.5777 37.7667 75.5477 37.8667 75.4877 37.94C75.4343 38.0067 75.3443 38.05 75.2177 38.07C75.1577 38.0767 75.0977 38.08 75.0377 38.08C74.9777 38.0867 74.9177 38.09 74.8577 38.09Z" fill="#32264C" fill-opacity="0.6"/>
<circle cx="41.2894" cy="34.3754" r="7.28942" fill="#FFECE9"/>
<path fill-rule="evenodd" clip-rule="evenodd" d="M38.1518 31.4353C38.0503 31.4441 37.9548 31.5016 37.9014 31.5972C37.8161 31.7504 37.8716 31.9437 38.0245 32.029L39.0058 32.5756L38.0344 32.9719C37.8724 33.0381 37.7943 33.2232 37.8605 33.3854C37.9106 33.5086 38.0294 33.5829 38.1547 33.5829C38.1944 33.5829 38.2349 33.5757 38.2741 33.5598L39.8578 32.914C39.9709 32.8679 40.0472 32.7607 40.0544 32.6388C40.0618 32.517 39.9989 32.4018 39.8925 32.3426L38.3332 31.4745C38.2759 31.4425 38.2126 31.43 38.1518 31.4353ZM44.1486 31.4353C44.0877 31.43 44.0248 31.4425 43.9676 31.4745L42.4083 32.3426C42.3061 32.3995 42.2436 32.5082 42.2455 32.6252C42.2472 32.7422 42.3135 32.8483 42.4174 32.902L43.9767 33.7044C44.0232 33.7283 44.0726 33.7399 44.1217 33.7399C44.2368 33.7399 44.3478 33.6768 44.4043 33.5676C44.4845 33.4117 44.4229 33.2202 44.2672 33.14L43.235 32.6091L44.2762 32.029C44.4294 31.9437 44.4844 31.7504 44.399 31.5972C44.3455 31.5014 44.25 31.444 44.1486 31.4353ZM39.5082 36.2417C39.4371 36.2424 39.3661 36.267 39.3082 36.3153L38.4732 37.011C38.3387 37.1234 38.3202 37.3238 38.4323 37.4585C38.4951 37.5338 38.5857 37.5725 38.6765 37.5725C38.748 37.5725 38.8201 37.5485 38.8794 37.499L39.5152 36.9689L40.1829 37.5031C40.3029 37.5987 40.474 37.5951 40.5895 37.4945L41.1812 36.9796L41.7732 37.4945C41.8873 37.5937 42.0555 37.5989 42.1753 37.5068L42.8694 36.9726L43.4383 37.4899C43.568 37.6077 43.7686 37.5985 43.8866 37.4688C44.0045 37.3389 43.9948 37.138 43.8651 37.0201L43.0999 36.3243C42.9861 36.2209 42.8148 36.2139 42.693 36.3074L41.9939 36.8454L41.3898 36.3198C41.2703 36.2157 41.0926 36.2157 40.9733 36.3198L40.3726 36.8416L39.7094 36.3111C39.6508 36.2641 39.5794 36.241 39.5082 36.2417Z" fill="#32264C" fill-opacity="0.6"/>
<defs>
<filter id="filter0_d_239_728" x="0" y="0" width="365" height="74" filterUnits="userSpaceOnUse" color-interpolation-filters="sRGB">
<feFlood flood-opacity="0" result="BackgroundImageFix"/>
<feColorMatrix in="SourceAlpha" type="matrix" values="0 0 0 0 0 0 0 0 0 0 0 0 0 0 0 0 0 0 127 0" result="hardAlpha"/>
<feOffset dy="4"/>
<feGaussianBlur stdDeviation="7.5"/>
<feComposite in2="hardAlpha" operator="out"/>
<feColorMatrix type="matrix" values="0 0 0 0 0.196078 0 0 0 0 0.14902 0 0 0 0 0.298039 0 0 0 0.12 0"/>
<feBlend mode="normal" in2="BackgroundImageFix" result="effect1_dropShadow_239_728"/>
<feBlend mode="normal" in="SourceGraphic" in2="effect1_dropShadow_239_728" result="shape"/>
</filter>
</defs>
</svg>
