<svg width="750" height="419" viewBox="0 0 750 419" fill="none" xmlns="http://www.w3.org/2000/svg">
<mask id="mask0_3598_2494" style="mask-type:alpha" maskUnits="userSpaceOnUse" x="0" y="0" width="750" height="419">
<rect width="750" height="419" transform="matrix(-1 0 0 1 750 0)" fill="white"/>
</mask>
<g mask="url(#mask0_3598_2494)">
<path d="M375 331H0V741H375V331Z" fill="#32264C"/>
<path d="M751.32 486.795C745.91 459.287 892.82 438.295 733.82 336.795C644.82 264.295 607.82 320.956 512.32 259.295C464.983 228.731 409.237 257.427 358.5 192.999C323.808 148.946 277.5 181.499 237.5 131.499C196 120.271 178.118 81.7756 152.84 88.756C146.149 89.4168 145.653 91.0277 138.59 96.232C114.427 114.075 111.981 120.271 111.981 120.271C86.0994 156.023 101.959 239.875 65 300.999C22.048 372.035 23.5 259.944 23.5 428.999L406.983 475.795L751.32 486.795Z" fill="#32264C"/>
<path d="M379.5 362C391 313 342.301 286.856 331 277C306.872 256.024 305.677 253.6 293 225C283.185 202.946 266.372 208.756 254.587 185.177C247.338 170.71 252.729 151.557 240.498 134.523C226.594 115.147 205.143 116.969 191.5 96.0308C178.228 75.7246 161.239 63.5632 139.825 69.5137C134.174 70.0716 133.728 71.4477 127.743 75.8362C107.296 90.9728 89.9351 109.605 89.9351 109.605C79.8976 145.681 69.3768 141.366 56.9228 158.288C36.6247 185.847 52.6677 233.786 31.9997 253.5C-16.5003 299.762 1.77148 326.297 -11.5003 362L113.467 347.627L379.5 362Z" fill="#32264C"/>
<path d="M52.0161 347.627H204.438C201.724 318.544 180.013 275.403 176.556 254.092C175.998 250.745 167.447 249.295 156.704 248.737C132.242 247.547 90.5675 252.047 88.6716 257.253C80.2698 280.684 57.704 310.436 52.0161 347.627Z" fill="#6EB3F2"/>
<path d="M178.712 228.952C178.6 233.117 182.504 264.097 179.455 265.399C145.848 280.015 90.6791 267.891 85.4745 262.61C83.3183 260.415 87.5192 236.613 88.7088 230.663C91.1624 218.241 68.262 238.882 68.262 238.882C53.7634 223.894 63.2433 181.459 79.229 163.198C92.5008 148.025 112.39 138.132 135.067 138.132C196.891 138.132 219.196 194.513 211.575 223.299C209.01 233.043 178.935 221.142 178.712 228.952Z" fill="#E54925"/>
<path d="M125.179 110.871L120.198 143.004C119.268 151.298 149.232 153.008 150.533 144.045L149.418 131.066L125.179 110.871Z" fill="#FAB898"/>
<path d="M122.911 110.053C122.464 125.302 137 136.459 149.454 134.488C155.254 133.558 158.488 125.748 160.272 119.946C160.272 119.946 160.272 119.909 160.272 119.872C160.942 117.715 161.239 115.446 161.165 113.215C161.127 112.248 161.016 111.318 160.867 110.388C160.756 109.681 160.607 108.975 160.495 108.231C160.31 107.041 160.235 105.776 160.161 104.289C159.863 99.7515 158.823 97.8548 157.782 96.3671C152.689 89.2637 146.034 94.4704 138.785 82.904C134.101 75.3915 123.282 96.739 122.911 110.053Z" fill="#FAB898"/>
<path d="M137.261 115.632C138.19 119.128 135.105 122.475 131.276 121.471C130.123 121.174 129.119 120.393 128.562 119.314C126.666 115.781 129.268 111.913 132.986 112.136C134.993 112.248 136.703 113.661 137.261 115.632Z" fill="#EE5D37"/>
<path d="M156.146 115.706C156.406 117.937 158.153 119.611 160.272 119.871C160.942 117.714 161.239 115.446 161.165 113.214C161.127 112.247 161.016 111.317 160.867 110.388C160.681 110.388 160.495 110.388 160.31 110.425C157.67 110.722 155.811 113.103 156.146 115.706Z" fill="#EE5D37"/>
<path d="M139.751 69.5142C137.706 67.4316 104.657 63.7869 94.6564 92.6841C88.8569 109.42 88.7454 125.412 71.124 150.256L71.5701 174.69C83.169 153.417 100.605 158.289 118.375 144.305C127.594 137.053 126.553 121.693 127.408 105.18C128.115 91.1593 149.825 92.9445 145.848 83.6468C140.048 70.2581 139.751 69.5142 139.751 69.5142Z" fill="#32264C"/>
<path d="M144.998 170.369C138.564 172.686 133.438 177.605 130.68 183.772C130.291 184.664 129.302 184.949 128.488 184.379C123.044 180.457 116.151 178.782 109.434 180.029C92.7832 183.131 84.4401 203.059 91.5459 220.455C102.717 247.905 140.331 260.346 148.957 262.877C150.018 263.198 151.22 262.877 151.997 262.057C158.184 255.534 184.556 225.767 180.597 196.357C178.052 177.641 160.941 164.629 144.998 170.369Z" fill="#F8CFC6"/>
<path d="M150.123 228.245C153.506 227.017 157.521 226.794 159.157 226.422C162.614 225.679 164.957 222.852 166.444 224.302C169.12 226.943 158.191 230.327 158.711 232.856C159.417 233.786 163.023 234.121 165.589 234.084C168.637 234.009 177.262 231.517 177.41 233.34C177.522 234.865 171.239 236.873 169.083 237.17C171.351 236.873 181.054 234.456 180.57 236.947C180.236 238.807 169.009 240.555 167.485 240.778C168.228 240.704 178.935 238.621 178.451 240.48C177.894 242.6 168.154 243.716 166.629 243.902C167.559 243.828 176.704 241.745 176.035 244.051C175.626 245.464 166.741 247.398 165.217 247.584C158.599 248.439 141.722 244.757 139.714 243.902L137.892 233.675C137.892 233.675 141.907 231.555 143.915 230.811C146.517 229.881 148.859 228.691 150.123 228.245Z" fill="#FAB898"/>
<path d="M147.185 206.823C149.862 204.443 153.542 202.732 154.918 201.802C157.855 199.831 160.383 196.261 161.349 197.376C163.803 200.314 156.107 205.93 156.888 207.939C157.892 208.534 161.386 207.53 163.729 206.525C166.554 205.335 173.654 199.831 174.435 201.467C175.104 202.843 170.011 207.009 168.115 208.125C170.086 207.009 178.227 201.17 178.71 203.699C179.082 205.521 169.268 211.323 167.967 212.067C168.636 211.732 177.818 205.856 178.078 207.753C178.339 209.947 169.677 214.559 168.376 215.302C169.193 214.893 176.963 209.612 177.149 211.955C177.261 213.406 169.714 218.501 168.413 219.245C162.576 222.48 145.549 225.27 143.356 225.232L137.891 216.381C137.891 216.381 140.865 212.959 142.427 211.509C144.397 209.687 146.181 207.715 147.185 206.823Z" fill="#FAB898"/>
<path d="M147.67 227.315C139.082 238.286 91.1249 262.051 68.2245 238.881C68.2245 238.881 64.7671 223.782 70.0833 218.761C90.5301 199.385 113.802 216.269 139.751 211.025C143.84 210.691 150.755 223.224 147.67 227.315Z" fill="#E54925"/>
<path d="M125.921 228.579C122.501 227.463 118.449 227.426 116.813 227.129C113.356 226.534 109.898 223.261 109.452 225.306C108.709 228.654 117.594 231.592 117.519 233.563C116.85 234.53 113.244 235.013 110.716 235.05C107.668 235.125 98.9314 232.93 98.8942 234.753C98.857 236.278 105.177 238.063 107.37 238.249C105.103 238.026 95.3253 235.98 95.883 238.472C96.2919 240.294 107.593 241.633 109.118 241.782C108.374 241.745 97.5931 240.108 98.1135 241.893C98.7455 244.013 108.56 244.72 110.047 244.869C109.118 244.832 99.898 243.121 100.679 245.389C101.162 246.765 110.121 248.365 111.608 248.513C118.263 249.108 134.955 244.757 136.925 243.827L138.338 233.526C138.338 233.526 134.249 231.592 132.204 230.922C129.639 230.104 127.185 228.988 125.921 228.579Z" fill="#FAB898"/>
<path d="M133.765 246.802C155.513 254.278 205.514 251.079 211.611 223.335L204.474 202.992C177.67 200.091 154.063 227.203 132.092 228.095C128.783 228.579 128.709 245.054 133.765 246.802Z" fill="#E54925"/>
<path d="M153.804 108.341C157.633 108.341 159.157 106.147 159.231 106.035C159.38 105.775 159.343 105.477 159.083 105.291C158.822 105.142 158.525 105.18 158.339 105.44C158.265 105.551 156.406 108.155 151.313 107.002C151.015 106.928 150.755 107.113 150.681 107.411C150.607 107.709 150.792 107.969 151.09 108.043C152.094 108.229 152.986 108.341 153.804 108.341Z" fill="#2D3F4C"/>
<path d="M137.93 110.424C140.309 110.424 141.982 109.42 142.094 109.345C142.354 109.196 142.428 108.862 142.28 108.601C142.131 108.341 141.796 108.267 141.536 108.415C141.387 108.527 137.558 110.758 133.357 107.783C133.134 107.597 132.8 107.672 132.614 107.895C132.428 108.118 132.502 108.453 132.725 108.639C134.584 110.015 136.406 110.424 137.93 110.424Z" fill="#2D3F4C"/>
<path d="M147.743 119.684C148.375 119.684 148.97 119.536 149.528 119.275C150.457 118.792 151.052 118.011 151.126 117.044C151.238 115.854 150.42 114.924 149.602 114.069C149.193 113.622 148.784 113.176 148.524 112.73C147.558 111.093 147.223 108.23 147.223 108.23C147.186 107.932 146.926 107.746 146.628 107.746C146.331 107.783 146.145 108.044 146.145 108.341C146.145 108.453 146.517 111.465 147.595 113.288C147.929 113.845 148.375 114.329 148.822 114.812C149.528 115.593 150.123 116.226 150.048 116.969C149.974 117.75 149.379 118.16 149.007 118.345C148.19 118.755 147.074 118.755 146.331 118.308C146.071 118.16 145.773 118.234 145.587 118.494C145.439 118.755 145.513 119.052 145.773 119.238C146.368 119.498 147.037 119.684 147.743 119.684Z" fill="#2D3F4C"/>
<path d="M147.039 125.226C149.641 125.003 151.5 123.701 151.611 123.627C151.834 123.441 151.909 123.143 151.723 122.883C151.537 122.66 151.239 122.585 150.979 122.771C150.942 122.809 147.113 125.449 142.986 123.441C142.726 123.329 142.392 123.404 142.28 123.701C142.169 123.962 142.243 124.296 142.54 124.408C144.176 125.152 145.7 125.338 147.039 125.226Z" fill="#2D3F4C"/>
<path d="M142.837 134.895C143.134 134.895 143.357 134.671 143.357 134.374C143.357 134.076 143.134 133.853 142.837 133.853C133.878 133.853 129.268 127.419 129.231 127.382C129.045 127.159 128.747 127.084 128.487 127.27C128.264 127.456 128.19 127.754 128.376 128.014C128.524 128.237 133.32 134.895 142.837 134.895Z" fill="#ED715D"/>
<path d="M245.198 872.157C296.736 852.523 337.965 810.025 369.16 764.153C400.706 718.386 421.414 669.386 433.556 615.927C445.593 562.818 448.959 505.599 432.173 453.405C415.142 400.756 378.309 353.236 330.07 338.845C282.18 324.558 223.584 343.609 164.607 343.519C106.083 343.184 47.5291 323.813 12.2732 343.738C-23.3323 363.559 -35.8847 422.223 -41.4276 472.703C-47.4244 523.429 -46.6571 565.517 -36.2188 603.26C-25.7805 641.003 -5.5669 674.052 14.144 720.269C33.855 766.487 53.0633 825.873 93.1893 857.252C133.315 888.63 194.01 891.896 245.198 872.157Z" fill="#32264C"/>
</g>
</svg>
