<svg width="146" height="40" viewBox="0 0 146 40" fill="none" xmlns="http://www.w3.org/2000/svg">
<path d="M40.5551 20.2867C40.5551 31.9302 36.0781 38.0542 18.6974 39.3801C10.7972 39.9828 0 31.3997 0 19.7563C0 8.11293 10.9288 0 20.9359 0C32.7863 0.530365 40.0284 6.62965 40.5551 20.2867Z" fill="#32264C"/>
<path d="M25.3279 19.7051C22.888 19.7051 21.5168 24.5487 21.0167 27.6355C20.9231 28.2131 20.9025 28.8167 21.1326 29.3547C22.1297 31.6867 25.4117 32.127 26.1672 32.0012C26.9418 31.8722 29.7584 29.9583 30.5654 27.687C30.6987 27.312 30.7257 26.9097 30.7168 26.5117C30.5889 20.7511 28.5755 19.7051 25.3279 19.7051Z" fill="#8965D8"/>
<path d="M22.1212 17.0659C22.1212 21.9244 17.5687 25.8629 12.2896 25.8629C7.01068 25.8629 2.45813 21.9244 2.45813 17.0659C2.45813 12.2075 6.14495 8.64597 12.2896 8.64597C20.4826 8.26894 22.1212 12.2075 22.1212 17.0659Z" fill="#FFA191"/>
<path d="M52.979 33.1078C52.4558 33.1078 52.0158 32.9274 51.659 32.5665C51.3024 32.2058 51.1239 31.7607 51.1239 31.2315V6.80263C51.1239 6.24934 51.3024 5.8043 51.659 5.46752C52.0158 5.10668 52.4558 4.92627 52.979 4.92627H59.4359C61.4811 4.92627 63.336 5.27507 65.0008 5.9727C66.6894 6.64627 68.1519 7.62053 69.3887 8.8955C70.6253 10.1464 71.5765 11.6258 72.2424 13.3338C72.9083 15.0418 73.2413 16.9302 73.2413 18.9991C73.2413 21.0678 72.9083 22.9682 72.2424 24.7003C71.5765 26.4083 70.6253 27.8998 69.3887 29.1747C68.1519 30.4256 66.6894 31.3998 65.0008 32.0976C63.336 32.771 61.4811 33.1078 59.4359 33.1078H52.979ZM54.834 29.7881H59.4359C61.4335 29.7881 63.1934 29.3311 64.7155 28.417C66.2613 27.4787 67.4741 26.2038 68.3541 24.592C69.234 22.9562 69.674 21.0919 69.674 18.9991C69.674 16.8821 69.234 15.0178 68.3541 13.406C67.4741 11.7943 66.2613 10.5313 64.7155 9.61718C63.1934 8.70305 61.4335 8.24598 59.4359 8.24598H54.834V29.7881Z" fill="#32264C"/>
<path d="M86.8403 33.2522C85.1042 33.2522 83.5464 32.8192 82.1671 31.9532C80.7878 31.063 79.6938 29.8724 78.8851 28.3808C78.1003 26.8654 77.7079 25.1574 77.7079 23.257C77.7079 21.3565 78.136 19.6486 78.9922 18.133C79.8721 16.6175 81.0493 15.4267 82.5239 14.5607C84.0221 13.6706 85.6987 13.2256 87.5537 13.2256C89.4087 13.2256 91.0735 13.6706 92.548 14.5607C94.0224 15.4267 95.1878 16.6175 96.044 18.133C96.9239 19.6486 97.3639 21.3565 97.3639 23.257H95.9727C95.9727 25.1574 95.5683 26.8654 94.7597 28.3808C93.9749 29.8724 92.8928 31.063 91.5135 31.9532C90.1342 32.8192 88.5764 33.2522 86.8403 33.2522ZM87.5537 30.0047C88.7666 30.0047 89.8487 29.716 90.8 29.1386C91.7512 28.5372 92.5005 27.7313 93.0475 26.721C93.5943 25.6866 93.8679 24.5319 93.8679 23.257C93.8679 21.958 93.5943 20.8032 93.0475 19.7929C92.5005 18.7584 91.7512 17.9526 90.8 17.3753C89.8487 16.7739 88.7666 16.4731 87.5537 16.4731C86.3646 16.4731 85.2825 16.7739 84.3075 17.3753C83.3562 17.9526 82.5952 18.7584 82.0244 19.7929C81.4774 20.8032 81.2039 21.958 81.2039 23.257C81.2039 24.5319 81.4774 25.6866 82.0244 26.721C82.5952 27.7313 83.3562 28.5372 84.3075 29.1386C85.2825 29.716 86.3646 30.0047 87.5537 30.0047ZM95.5446 33.144C95.0213 33.144 94.5813 32.9755 94.2247 32.6387C93.8917 32.2779 93.7252 31.8329 93.7252 31.3037V25.7828L94.403 21.958L97.3639 23.257V31.3037C97.3639 31.8329 97.1856 32.2779 96.8288 32.6387C96.4958 32.9755 96.0678 33.144 95.5446 33.144Z" fill="#32264C"/>
<path d="M119.26 33.144C118.737 33.144 118.297 32.9755 117.94 32.6387C117.607 32.278 117.441 31.833 117.441 31.3037V22.427C117.441 21.0558 117.191 19.9372 116.692 19.0713C116.192 18.2052 115.514 17.5678 114.658 17.1588C113.826 16.7257 112.863 16.5093 111.769 16.5093C110.77 16.5093 109.866 16.7138 109.058 17.1226C108.249 17.5316 107.607 18.085 107.131 18.7825C106.656 19.4561 106.418 20.238 106.418 21.128H104.17C104.17 19.6124 104.527 18.2653 105.24 17.0866C105.978 15.8837 106.977 14.9336 108.237 14.236C109.498 13.5383 110.913 13.1895 112.482 13.1895C114.123 13.1895 115.586 13.5504 116.87 14.272C118.178 14.9696 119.201 16.004 119.938 17.3753C120.699 18.7465 121.079 20.4304 121.079 22.427V31.3037C121.079 31.833 120.901 32.278 120.544 32.6387C120.211 32.9755 119.783 33.144 119.26 33.144ZM104.598 33.144C104.075 33.144 103.635 32.9755 103.278 32.6387C102.946 32.278 102.779 31.833 102.779 31.3037V15.2103C102.779 14.6569 102.946 14.2119 103.278 13.8751C103.635 13.5383 104.075 13.37 104.598 13.37C105.145 13.37 105.585 13.5383 105.918 13.8751C106.251 14.2119 106.418 14.6569 106.418 15.2103V31.3037C106.418 31.833 106.251 32.278 105.918 32.6387C105.585 32.9755 105.145 33.144 104.598 33.144Z" fill="#32264C"/>
<path d="M135.229 33.2522C133.492 33.2522 131.935 32.8192 130.555 31.9532C129.176 31.063 128.082 29.8724 127.273 28.3808C126.489 26.8654 126.096 25.1574 126.096 23.257C126.096 21.3565 126.524 19.6486 127.381 18.133C128.26 16.6175 129.438 15.4267 130.912 14.5607C132.41 13.6706 134.087 13.2256 135.942 13.2256C137.797 13.2256 139.462 13.6706 140.936 14.5607C142.411 15.4267 143.576 16.6175 144.432 18.133C145.312 19.6486 145.752 21.3565 145.752 23.257H144.361C144.361 25.1574 143.957 26.8654 143.148 28.3808C142.364 29.8724 141.281 31.063 139.902 31.9532C138.523 32.8192 136.965 33.2522 135.229 33.2522ZM135.942 30.0047C137.155 30.0047 138.236 29.716 139.189 29.1386C140.14 28.5372 140.888 27.7313 141.436 26.721C141.983 25.6866 142.256 24.5319 142.256 23.257C142.256 21.958 141.983 20.8032 141.436 19.7929C140.888 18.7584 140.14 17.9526 139.189 17.3753C138.236 16.7739 137.155 16.4731 135.942 16.4731C134.753 16.4731 133.671 16.7739 132.696 17.3753C131.745 17.9526 130.984 18.7584 130.413 19.7929C129.866 20.8032 129.592 21.958 129.592 23.257C129.592 24.5319 129.866 25.6866 130.413 26.721C130.984 27.7313 131.745 28.5372 132.696 29.1386C133.671 29.716 134.753 30.0047 135.942 30.0047ZM143.933 33.144C143.41 33.144 142.969 32.9755 142.613 32.6387C142.28 32.2779 142.113 31.8329 142.113 31.3037V25.7828L142.792 21.958L145.752 23.257V31.3037C145.752 31.8329 145.573 32.2779 145.217 32.6387C144.884 32.9755 144.456 33.144 143.933 33.144Z" fill="#32264C"/>
</svg>
