<svg width="116" height="32" viewBox="0 0 116 32" fill="none" xmlns="http://www.w3.org/2000/svg">
<path d="M32.2068 16.1107C32.2068 25.3574 28.6514 30.2208 14.8485 31.2737C8.57457 31.7524 0 24.9361 0 15.6895C0 6.44288 8.67909 0 16.6262 0C26.0373 0.42119 31.7885 5.26494 32.2068 16.1107Z" fill="#32264C"/>
<path d="M20.114 15.6487C18.1764 15.6487 17.0874 19.4953 16.6903 21.9466C16.6159 22.4053 16.5996 22.8847 16.7823 23.3119C17.5742 25.1639 20.1806 25.5136 20.7806 25.4136C21.3957 25.3112 23.6325 23.7913 24.2734 21.9876C24.3793 21.6897 24.4007 21.3703 24.3936 21.0541C24.2921 16.4794 22.6931 15.6487 20.114 15.6487Z" fill="#8965D8"/>
<path d="M17.567 13.5527C17.567 17.4111 13.9516 20.5389 9.75921 20.5389C5.56695 20.5389 1.95154 17.4111 1.95154 13.5527C1.95154 9.69444 4.87943 6.86604 9.75921 6.86604C16.2656 6.56662 17.567 9.69444 17.567 13.5527Z" fill="#FFA191"/>
<path d="M42.073 26.2927C41.6575 26.2927 41.3081 26.1495 41.0247 25.8629C40.7415 25.5764 40.5998 25.223 40.5998 24.8027V5.40247C40.5998 4.96307 40.7415 4.60964 41.0247 4.34219C41.3081 4.05563 41.6575 3.91235 42.073 3.91235H47.2007C48.8249 3.91235 50.2981 4.18935 51.6202 4.74338C52.9611 5.27829 54.1226 6.05201 55.1048 7.06452C56.0869 8.05793 56.8423 9.23279 57.3711 10.5892C57.8999 11.9456 58.1643 13.4452 58.1643 15.0883C58.1643 16.7312 57.8999 18.2404 57.3711 19.6159C56.8423 20.9723 56.0869 22.1568 55.1048 23.1692C54.1226 24.1626 52.9611 24.9363 51.6202 25.4904C50.2981 26.0253 48.8249 26.2927 47.2007 26.2927H42.073ZM43.5462 23.6564H47.2007C48.7872 23.6564 50.1848 23.2934 51.3936 22.5675C52.6211 21.8224 53.5843 20.8099 54.2832 19.5299C54.9819 18.2308 55.3314 16.7503 55.3314 15.0883C55.3314 13.4071 54.9819 11.9266 54.2832 10.6465C53.5843 9.36658 52.6211 8.36358 51.3936 7.63764C50.1848 6.91168 48.7872 6.54871 47.2007 6.54871H43.5462V23.6564Z" fill="#32264C"/>
<path d="M68.9639 26.4073C67.5852 26.4073 66.3481 26.0635 65.2527 25.3757C64.1573 24.6688 63.2885 23.7232 62.6463 22.5387C62.0231 21.3352 61.7114 19.9788 61.7114 18.4696C61.7114 16.9604 62.0514 15.604 62.7314 14.4004C63.4301 13.1968 64.365 12.2512 65.536 11.5635C66.7258 10.8566 68.0574 10.5032 69.5305 10.5032C71.0036 10.5032 72.3257 10.8566 73.4967 11.5635C74.6676 12.2512 75.5931 13.1968 76.2731 14.4004C76.9718 15.604 77.3212 16.9604 77.3212 18.4696H76.2164C76.2164 19.9788 75.8953 21.3352 75.2531 22.5387C74.6299 23.7232 73.7705 24.6688 72.6751 25.3757C71.5798 26.0635 70.3426 26.4073 68.9639 26.4073ZM69.5305 23.8283C70.4937 23.8283 71.3531 23.599 72.1086 23.1405C72.864 22.6629 73.459 22.0229 73.8934 21.2206C74.3277 20.3991 74.5449 19.4821 74.5449 18.4696C74.5449 17.438 74.3277 16.5209 73.8934 15.7186C73.459 14.8971 72.864 14.2571 72.1086 13.7987C71.3531 13.321 70.4937 13.0822 69.5305 13.0822C68.5862 13.0822 67.7268 13.321 66.9525 13.7987C66.197 14.2571 65.5927 14.8971 65.1394 15.7186C64.705 16.5209 64.4878 17.438 64.4878 18.4696C64.4878 19.4821 64.705 20.3991 65.1394 21.2206C65.5927 22.0229 66.197 22.6629 66.9525 23.1405C67.7268 23.599 68.5862 23.8283 69.5305 23.8283ZM75.8764 26.3214C75.4609 26.3214 75.1115 26.1876 74.8283 25.9201C74.5638 25.6336 74.4316 25.2802 74.4316 24.8599V20.4755L74.9699 17.438L77.3212 18.4696V24.8599C77.3212 25.2802 77.1796 25.6336 76.8963 25.9201C76.6318 26.1876 76.2919 26.3214 75.8764 26.3214Z" fill="#32264C"/>
<path d="M94.7105 26.3213C94.2949 26.3213 93.9456 26.1875 93.6623 25.92C93.3979 25.6335 93.2656 25.2801 93.2656 24.8598V17.8103C93.2656 16.7214 93.0674 15.8331 92.6707 15.1454C92.2741 14.4576 91.7359 13.9514 91.0559 13.6266C90.3949 13.2827 89.63 13.1108 88.7613 13.1108C87.968 13.1108 87.2503 13.2732 86.6082 13.5979C85.9661 13.9227 85.456 14.3621 85.0784 14.9161C84.7006 15.4511 84.5117 16.0719 84.5117 16.7787H82.727C82.727 15.5752 83.0102 14.5054 83.5768 13.5693C84.1624 12.614 84.9555 11.8595 85.9566 11.3055C86.9576 10.7514 88.0813 10.4744 89.3278 10.4744C90.631 10.4744 91.7925 10.761 92.8124 11.3341C93.8511 11.8881 94.6632 12.7095 95.2487 13.7986C95.8531 14.8875 96.1553 16.2248 96.1553 17.8103V24.8598C96.1553 25.2801 96.0137 25.6335 95.7304 25.92C95.466 26.1875 95.126 26.3213 94.7105 26.3213ZM83.0669 26.3213C82.6515 26.3213 82.302 26.1875 82.0187 25.92C81.7544 25.6335 81.6221 25.2801 81.6221 24.8598V12.0792C81.6221 11.6398 81.7544 11.2864 82.0187 11.0189C82.302 10.7514 82.6515 10.6177 83.0669 10.6177C83.5013 10.6177 83.8507 10.7514 84.1152 11.0189C84.3795 11.2864 84.5117 11.6398 84.5117 12.0792V24.8598C84.5117 25.2801 84.3795 25.6335 84.1152 25.92C83.8507 26.1875 83.5013 26.3213 83.0669 26.3213Z" fill="#32264C"/>
<path d="M107.393 26.4073C106.014 26.4073 104.777 26.0635 103.682 25.3757C102.586 24.6688 101.717 23.7232 101.075 22.5387C100.452 21.3352 100.14 19.9788 100.14 18.4696C100.14 16.9604 100.48 15.604 101.16 14.4004C101.859 13.1968 102.794 12.2512 103.965 11.5635C105.155 10.8566 106.486 10.5032 107.959 10.5032C109.433 10.5032 110.754 10.8566 111.925 11.5635C113.097 12.2512 114.022 13.1968 114.702 14.4004C115.401 15.604 115.75 16.9604 115.75 18.4696H114.645C114.645 19.9788 114.324 21.3352 113.682 22.5387C113.059 23.7232 112.199 24.6688 111.104 25.3757C110.009 26.0635 108.772 26.4073 107.393 26.4073ZM107.959 23.8283C108.923 23.8283 109.781 23.599 110.538 23.1405C111.293 22.6629 111.887 22.0229 112.323 21.2206C112.757 20.3991 112.974 19.4821 112.974 18.4696C112.974 17.438 112.757 16.5209 112.323 15.7186C111.887 14.8971 111.293 14.2571 110.538 13.7987C109.781 13.321 108.923 13.0822 107.959 13.0822C107.015 13.0822 106.156 13.321 105.381 13.7987C104.626 14.2571 104.022 14.8971 103.568 15.7186C103.134 16.5209 102.917 17.438 102.917 18.4696C102.917 19.4821 103.134 20.3991 103.568 21.2206C104.022 22.0229 104.626 22.6629 105.381 23.1405C106.156 23.599 107.015 23.8283 107.959 23.8283ZM114.305 26.3214C113.89 26.3214 113.54 26.1876 113.257 25.9201C112.993 25.6336 112.86 25.2802 112.86 24.8599V20.4755L113.399 17.438L115.75 18.4696V24.8599C115.75 25.2802 115.608 25.6336 115.325 25.9201C115.061 26.1876 114.721 26.3214 114.305 26.3214Z" fill="#32264C"/>
</svg>
