<svg width="294" height="231" viewBox="0 0 294 231" fill="none" xmlns="http://www.w3.org/2000/svg">
<circle cx="16" cy="219" r="12" fill="#F0ECE4"/>
<path fill-rule="evenodd" clip-rule="evenodd" d="M12.614 214.158C11.9958 214.158 11.4949 214.659 11.4949 215.277C11.4949 215.896 11.9958 216.397 12.614 216.397C13.2322 216.397 13.7331 215.896 13.7331 215.277C13.7331 214.659 13.2322 214.158 12.614 214.158ZM19.0494 214.158C18.4314 214.158 17.9303 214.659 17.9303 215.277C17.9303 215.896 18.4314 216.397 19.0494 216.397C19.6676 216.397 20.1684 215.896 20.1684 215.277C20.1684 214.659 19.6676 214.158 19.0494 214.158ZM11.2054 219.893C10.947 219.893 10.7373 220.102 10.7373 220.361C10.7373 222.512 12.6344 224.263 14.9649 224.263H16.8447C19.1756 224.263 21.0724 222.512 21.0724 220.361C21.0724 220.102 20.8626 219.893 20.6042 219.893H11.2054ZM11.7144 220.829H20.0953C19.8453 222.242 18.4828 223.327 16.8447 223.327H14.9649C13.3269 223.327 11.9643 222.242 11.7144 220.829Z" fill="#32264C" fill-opacity="0.6"/>
<circle cx="68.4004" cy="219" r="12" fill="#F0ECE4"/>
<path fill-rule="evenodd" clip-rule="evenodd" d="M64.7604 214.158C64.0969 214.158 63.5586 214.695 63.5586 215.359C63.5586 216.023 64.0969 216.561 64.7604 216.561C65.424 216.561 65.9622 216.023 65.9622 215.359C65.9622 214.695 65.424 214.158 64.7604 214.158ZM71.6696 214.158C71.0061 214.158 70.4678 214.695 70.4678 215.359C70.4678 216.023 71.0061 216.561 71.6696 216.561C72.3335 216.561 72.8708 216.023 72.8708 215.359C72.8708 214.695 72.3335 214.158 71.6696 214.158ZM64.1427 219.98C63.8694 219.98 63.6476 220.201 63.6476 220.475C63.6476 222.564 65.3672 224.263 67.4806 224.263H69.1493C71.2987 224.263 72.9823 222.619 72.9823 220.521C72.9823 220.248 72.7608 220.026 72.4872 220.026C72.2138 220.026 71.992 220.248 71.992 220.521C71.992 222.064 70.7434 223.273 69.1493 223.273H67.4806C65.8865 223.273 64.6379 222.043 64.6379 220.475C64.6379 220.201 64.4161 219.98 64.1427 219.98Z" fill="#32264C" fill-opacity="0.6"/>
<circle cx="120.8" cy="219" r="12" fill="#F0ECE4"/>
<path fill-rule="evenodd" clip-rule="evenodd" d="M116.444 214.158C115.71 214.158 115.115 214.753 115.115 215.487C115.115 216.221 115.71 216.816 116.444 216.816C117.178 216.816 117.772 216.221 117.772 215.487C117.772 214.753 117.178 214.158 116.444 214.158ZM124.082 214.158C123.349 214.158 122.754 214.753 122.754 215.487C122.754 216.221 123.349 216.816 124.082 216.816C124.816 216.816 125.411 216.221 125.411 215.487C125.411 214.753 124.816 214.158 124.082 214.158ZM118.798 220.823C116.957 220.794 115.54 222.16 115.481 222.218C115.262 222.434 115.26 222.783 115.475 223.002C115.689 223.221 116.041 223.224 116.26 223.01C116.271 222.999 117.418 221.892 118.781 221.934C119.523 221.953 120.219 222.308 120.851 222.991C121.633 223.836 122.473 224.263 123.349 224.263C123.431 224.263 123.512 224.259 123.595 224.251C125.297 224.098 126.416 222.367 126.463 222.294C126.627 222.036 126.551 221.694 126.293 221.528C126.035 221.363 125.692 221.438 125.527 221.696C125.518 221.71 124.647 223.044 123.491 223.145C122.892 223.196 122.274 222.892 121.666 222.236C120.82 221.322 119.855 220.846 118.798 220.823Z" fill="#32264C" fill-opacity="0.6"/>
<circle cx="173.2" cy="219" r="12" fill="#F0ECE4"/>
<path fill-rule="evenodd" clip-rule="evenodd" d="M169.551 214.158C168.893 214.158 168.358 214.691 168.358 215.35C168.358 216.008 168.893 216.543 169.551 216.543C170.209 216.543 170.743 216.008 170.743 215.35C170.743 214.691 170.209 214.158 169.551 214.158ZM176.407 214.158C175.748 214.158 175.214 214.691 175.214 215.35C175.214 216.008 175.748 216.543 176.407 216.543C177.066 216.543 177.599 216.008 177.599 215.35C177.599 214.691 177.066 214.158 176.407 214.158ZM172.25 219.925C170.153 219.925 168.447 221.651 168.447 223.772C168.447 224.043 168.667 224.263 168.938 224.263C169.209 224.263 169.429 224.043 169.429 223.772C169.429 222.192 170.695 220.908 172.25 220.908H173.906C175.461 220.908 176.727 222.183 176.727 223.751C176.727 224.022 176.947 224.243 177.218 224.243C177.49 224.243 177.709 224.022 177.709 223.751C177.709 221.641 176.003 219.925 173.906 219.925H172.25Z" fill="#32264C" fill-opacity="0.6"/>
<circle cx="225.6" cy="219" r="12" fill="#F0ECE4"/>
<path fill-rule="evenodd" clip-rule="evenodd" d="M220.433 214.16C220.266 214.174 220.109 214.269 220.021 214.426C219.881 214.678 219.972 214.997 220.224 215.137L221.839 216.037L220.24 216.689C219.973 216.798 219.845 217.103 219.954 217.37C220.036 217.573 220.232 217.695 220.438 217.695C220.504 217.695 220.57 217.683 220.635 217.657L223.242 216.594C223.428 216.518 223.554 216.342 223.566 216.141C223.578 215.94 223.474 215.751 223.299 215.653L220.732 214.224C220.638 214.172 220.534 214.151 220.433 214.16ZM230.305 214.16C230.205 214.151 230.102 214.172 230.008 214.224L227.441 215.653C227.272 215.747 227.169 215.926 227.173 216.119C227.175 216.311 227.285 216.486 227.455 216.574L230.022 217.895C230.099 217.935 230.18 217.954 230.261 217.954C230.451 217.954 230.633 217.85 230.726 217.67C230.858 217.413 230.757 217.098 230.501 216.966L228.802 216.092L230.516 215.137C230.768 214.997 230.858 214.678 230.718 214.426C230.63 214.268 230.472 214.174 230.305 214.16ZM222.666 222.072C222.549 222.073 222.432 222.114 222.337 222.193L220.963 223.339C220.741 223.524 220.711 223.853 220.895 224.075C220.999 224.199 221.148 224.263 221.297 224.263C221.415 224.263 221.534 224.223 221.631 224.142L222.678 223.269L223.777 224.149C223.975 224.306 224.256 224.3 224.446 224.134L225.42 223.287L226.395 224.134C226.583 224.298 226.86 224.306 227.057 224.155L228.2 223.275L229.136 224.127C229.35 224.321 229.68 224.306 229.874 224.092C230.068 223.878 230.052 223.548 229.839 223.354L228.579 222.208C228.392 222.038 228.11 222.026 227.909 222.18L226.758 223.066L225.764 222.201C225.567 222.029 225.275 222.029 225.078 222.201L224.089 223.06L222.998 222.186C222.901 222.109 222.784 222.071 222.666 222.072Z" fill="#32264C" fill-opacity="0.6"/>
<circle cx="278" cy="219" r="12" fill="#F0ECE4"/>
<path d="M277.359 221.326C277.219 221.326 277.107 221.279 277.023 221.186C276.939 221.083 276.897 220.953 276.897 220.794C276.897 220.486 276.934 220.197 277.009 219.926C277.083 219.646 277.205 219.366 277.373 219.086C277.541 218.806 277.765 218.507 278.045 218.19C278.269 217.938 278.441 217.714 278.563 217.518C278.693 217.322 278.787 217.135 278.843 216.958C278.899 216.771 278.927 216.58 278.927 216.384C278.927 216.029 278.801 215.749 278.549 215.544C278.297 215.339 277.942 215.236 277.485 215.236C277.083 215.236 276.715 215.297 276.379 215.418C276.043 215.53 275.716 215.693 275.399 215.908C275.221 216.02 275.063 216.071 274.923 216.062C274.792 216.053 274.68 216.011 274.587 215.936C274.503 215.852 274.447 215.749 274.419 215.628C274.4 215.497 274.419 215.367 274.475 215.236C274.54 215.096 274.652 214.97 274.811 214.858C275.184 214.587 275.618 214.377 276.113 214.228C276.607 214.079 277.093 214.004 277.569 214.004C278.129 214.004 278.619 214.097 279.039 214.284C279.459 214.471 279.785 214.732 280.019 215.068C280.252 215.404 280.369 215.801 280.369 216.258C280.369 216.547 280.327 216.823 280.243 217.084C280.159 217.345 280.023 217.611 279.837 217.882C279.659 218.143 279.407 218.433 279.081 218.75C278.791 219.039 278.558 219.305 278.381 219.548C278.203 219.781 278.073 220.01 277.989 220.234C277.914 220.449 277.863 220.677 277.835 220.92C277.825 221.041 277.779 221.139 277.695 221.214C277.611 221.289 277.499 221.326 277.359 221.326ZM277.345 224.056C277.074 224.056 276.855 223.972 276.687 223.804C276.519 223.636 276.435 223.421 276.435 223.16C276.435 222.899 276.519 222.689 276.687 222.53C276.855 222.362 277.074 222.278 277.345 222.278C277.625 222.278 277.839 222.362 277.989 222.53C278.147 222.689 278.227 222.899 278.227 223.16C278.227 223.421 278.147 223.636 277.989 223.804C277.839 223.972 277.625 224.056 277.345 224.056Z" fill="#32264C" fill-opacity="0.6"/>
<path d="M6 199C2.68629 199 0 196.314 0 193L0 104C0 100.686 2.68629 98 6 98H26C29.3137 98 32 100.686 32 104L32 193C32 196.314 29.3137 199 26 199H6Z" fill="#FFA191"/>
<g opacity="0.4">
<path d="M17.6547 86.098C17.4774 86.098 17.3374 86.0467 17.2347 85.944C17.1321 85.8413 17.0807 85.6967 17.0807 85.51V83.886H13.0627C12.8761 83.886 12.7267 83.844 12.6147 83.76C12.5121 83.6667 12.4607 83.536 12.4607 83.368C12.4607 83.2653 12.4841 83.1627 12.5307 83.06C12.5774 82.948 12.6614 82.808 12.7827 82.64L17.0527 76.424C17.1367 76.2933 17.2301 76.1953 17.3327 76.13C17.4354 76.0647 17.5567 76.032 17.6967 76.032C17.8461 76.032 17.9721 76.0787 18.0747 76.172C18.1867 76.2653 18.2427 76.4147 18.2427 76.62V82.906H19.2647C19.4421 82.906 19.5774 82.948 19.6707 83.032C19.7641 83.116 19.8107 83.2373 19.8107 83.396C19.8107 83.5547 19.7641 83.676 19.6707 83.76C19.5774 83.844 19.4421 83.886 19.2647 83.886H18.2427V85.51C18.2427 85.6967 18.1914 85.8413 18.0887 85.944C17.9861 86.0467 17.8414 86.098 17.6547 86.098ZM17.0807 82.906V77.474H17.4167L13.4967 83.214V82.906H17.0807Z" fill="#32264C" fill-opacity="0.8"/>
</g>
<path d="M58.3994 199C55.0857 199 52.3994 196.314 52.3994 193L52.3994 64C52.3994 60.6863 55.0857 58 58.3994 58H78.0043C81.3181 58 84.0044 60.6863 84.0044 64L84.0044 193C84.0044 196.314 81.3181 199 78.0044 199H58.3994Z" fill="#FFB4A7"/>
<g opacity="0.4">
<path d="M62.3731 46C62.2051 46 62.0745 45.958 61.9811 45.874C61.8878 45.7807 61.8411 45.6547 61.8411 45.496C61.8411 45.3373 61.8878 45.2207 61.9811 45.146C62.0745 45.062 62.2051 45.02 62.3731 45.02H64.1931V37.082H64.7951L62.7651 38.426C62.6438 38.4913 62.5271 38.5193 62.4151 38.51C62.3125 38.5007 62.2238 38.4633 62.1491 38.398C62.0838 38.3233 62.0371 38.2393 62.0091 38.146C61.9811 38.0433 61.9858 37.9407 62.0231 37.838C62.0605 37.726 62.1398 37.6327 62.2611 37.558L64.1931 36.284C64.3145 36.2093 64.4311 36.1487 64.5431 36.102C64.6551 36.0553 64.7671 36.032 64.8791 36.032C65.0098 36.032 65.1171 36.074 65.2011 36.158C65.2945 36.2327 65.3411 36.354 65.3411 36.522V45.02H67.0211C67.1891 45.02 67.3198 45.062 67.4131 45.146C67.5065 45.2207 67.5531 45.3373 67.5531 45.496C67.5531 45.664 67.5065 45.79 67.4131 45.874C67.3198 45.958 67.1891 46 67.0211 46H62.3731ZM70.4037 46C70.1983 46 70.0443 45.9533 69.9417 45.86C69.8483 45.7573 69.8017 45.622 69.8017 45.454C69.8017 45.3513 69.825 45.2533 69.8717 45.16C69.9277 45.0573 70.0023 44.9547 70.0957 44.852L73.2317 41.492C73.7077 40.9787 74.0483 40.5073 74.2537 40.078C74.4683 39.6393 74.5757 39.196 74.5757 38.748C74.5757 38.188 74.403 37.7633 74.0577 37.474C73.7217 37.1753 73.227 37.026 72.5737 37.026C72.1537 37.026 71.757 37.0913 71.3837 37.222C71.0103 37.3527 70.651 37.5533 70.3057 37.824C70.1843 37.9173 70.0723 37.9593 69.9697 37.95C69.8763 37.9407 69.7923 37.9033 69.7177 37.838C69.643 37.7727 69.5917 37.6887 69.5637 37.586C69.5357 37.4833 69.5357 37.3807 69.5637 37.278C69.601 37.1753 69.6757 37.082 69.7877 36.998C70.1517 36.6993 70.5903 36.4613 71.1037 36.284C71.617 36.0973 72.1397 36.004 72.6717 36.004C73.3343 36.004 73.8943 36.1067 74.3517 36.312C74.809 36.5173 75.1543 36.8207 75.3877 37.222C75.621 37.614 75.7377 38.0947 75.7377 38.664C75.7377 39.056 75.6723 39.4433 75.5417 39.826C75.4203 40.1993 75.229 40.582 74.9677 40.974C74.7157 41.366 74.3843 41.772 73.9737 42.192L70.9917 45.342V45.02H75.7097C75.887 45.02 76.0177 45.062 76.1017 45.146C76.195 45.2207 76.2417 45.3373 76.2417 45.496C76.2417 45.664 76.195 45.79 76.1017 45.874C76.0177 45.958 75.887 46 75.7097 46H70.4037Z" fill="#32264C" fill-opacity="0.8"/>
</g>
<path d="M110.999 199C107.685 199 104.999 196.314 104.999 193V183C104.999 179.686 107.685 177 110.999 177H130.8C134.114 177 136.8 179.686 136.8 183V193C136.8 196.314 134.114 199 130.8 199H110.999Z" fill="#FFC7BD"/>
<g opacity="0.4">
<path d="M118.309 165C118.104 165 117.95 164.953 117.847 164.86C117.754 164.757 117.707 164.622 117.707 164.454C117.707 164.351 117.73 164.253 117.777 164.16C117.833 164.057 117.908 163.955 118.001 163.852L121.137 160.492C121.613 159.979 121.954 159.507 122.159 159.078C122.374 158.639 122.481 158.196 122.481 157.748C122.481 157.188 122.308 156.763 121.963 156.474C121.627 156.175 121.132 156.026 120.479 156.026C120.059 156.026 119.662 156.091 119.289 156.222C118.916 156.353 118.556 156.553 118.211 156.824C118.09 156.917 117.978 156.959 117.875 156.95C117.782 156.941 117.698 156.903 117.623 156.838C117.548 156.773 117.497 156.689 117.469 156.586C117.441 156.483 117.441 156.381 117.469 156.278C117.506 156.175 117.581 156.082 117.693 155.998C118.057 155.699 118.496 155.461 119.009 155.284C119.522 155.097 120.045 155.004 120.577 155.004C121.24 155.004 121.8 155.107 122.257 155.312C122.714 155.517 123.06 155.821 123.293 156.222C123.526 156.614 123.643 157.095 123.643 157.664C123.643 158.056 123.578 158.443 123.447 158.826C123.326 159.199 123.134 159.582 122.873 159.974C122.621 160.366 122.29 160.772 121.879 161.192L118.897 164.342V164.02H123.615C123.792 164.02 123.923 164.062 124.007 164.146C124.1 164.221 124.147 164.337 124.147 164.496C124.147 164.664 124.1 164.79 124.007 164.874C123.923 164.958 123.792 165 123.615 165H118.309Z" fill="#32264C" fill-opacity="0.8"/>
</g>
<path d="M163.2 199C159.886 199 157.2 196.314 157.2 193V104C157.2 100.686 159.886 98 163.2 98H182.952C186.266 98 188.952 100.686 188.952 104V193C188.952 196.314 186.266 199 182.952 199H163.2Z" fill="#FFD9D3"/>
<g opacity="0.4">
<path d="M174.979 86.098C174.802 86.098 174.662 86.0467 174.559 85.944C174.456 85.8413 174.405 85.6967 174.405 85.51V83.886H170.387C170.2 83.886 170.051 83.844 169.939 83.76C169.836 83.6667 169.785 83.536 169.785 83.368C169.785 83.2653 169.808 83.1627 169.855 83.06C169.902 82.948 169.986 82.808 170.107 82.64L174.377 76.424C174.461 76.2933 174.554 76.1953 174.657 76.13C174.76 76.0647 174.881 76.032 175.021 76.032C175.17 76.032 175.296 76.0787 175.399 76.172C175.511 76.2653 175.567 76.4147 175.567 76.62V82.906H176.589C176.766 82.906 176.902 82.948 176.995 83.032C177.088 83.116 177.135 83.2373 177.135 83.396C177.135 83.5547 177.088 83.676 176.995 83.76C176.902 83.844 176.766 83.886 176.589 83.886H175.567V85.51C175.567 85.6967 175.516 85.8413 175.413 85.944C175.31 86.0467 175.166 86.098 174.979 86.098ZM174.405 82.906V77.474H174.741L170.821 83.214V82.906H174.405Z" fill="#32264C" fill-opacity="0.8"/>
</g>
<path d="M215.601 199C212.287 199 209.601 196.314 209.601 193V104C209.601 100.686 212.287 98 215.601 98H235.353C238.666 98 241.353 100.686 241.353 104V193C241.353 196.314 238.666 199 235.353 199H215.601Z" fill="#FFECE9"/>
<g opacity="0.4">
<path d="M227.379 86.098C227.202 86.098 227.062 86.0467 226.959 85.944C226.857 85.8413 226.805 85.6967 226.805 85.51V83.886H222.787C222.601 83.886 222.451 83.844 222.339 83.76C222.237 83.6667 222.185 83.536 222.185 83.368C222.185 83.2653 222.209 83.1627 222.255 83.06C222.302 82.948 222.386 82.808 222.507 82.64L226.777 76.424C226.861 76.2933 226.955 76.1953 227.057 76.13C227.16 76.0647 227.281 76.032 227.421 76.032C227.571 76.032 227.697 76.0787 227.799 76.172C227.911 76.2653 227.967 76.4147 227.967 76.62V82.906H228.989C229.167 82.906 229.302 82.948 229.395 83.032C229.489 83.116 229.535 83.2373 229.535 83.396C229.535 83.5547 229.489 83.676 229.395 83.76C229.302 83.844 229.167 83.886 228.989 83.886H227.967V85.51C227.967 85.6967 227.916 85.8413 227.813 85.944C227.711 86.0467 227.566 86.098 227.379 86.098ZM226.805 82.906V77.474H227.141L223.221 83.214V82.906H226.805Z" fill="#32264C" fill-opacity="0.8"/>
</g>
<path opacity="0.4" d="M268 199C264.686 199 262 196.314 262 193V104C262 100.686 264.686 98 268 98H288C291.314 98 294 100.686 294 104V193C294 196.314 291.314 199 288 199H268Z" fill="#F0ECE4"/>
<g opacity="0.4">
<path d="M279.655 86.098C279.477 86.098 279.337 86.0467 279.235 85.944C279.132 85.8413 279.081 85.6967 279.081 85.51V83.886H275.063C274.876 83.886 274.727 83.844 274.615 83.76C274.512 83.6667 274.461 83.536 274.461 83.368C274.461 83.2653 274.484 83.1627 274.531 83.06C274.577 82.948 274.661 82.808 274.783 82.64L279.053 76.424C279.137 76.2933 279.23 76.1953 279.333 76.13C279.435 76.0647 279.557 76.032 279.697 76.032C279.846 76.032 279.972 76.0787 280.075 76.172C280.187 76.2653 280.243 76.4147 280.243 76.62V82.906H281.265C281.442 82.906 281.577 82.948 281.671 83.032C281.764 83.116 281.811 83.2373 281.811 83.396C281.811 83.5547 281.764 83.676 281.671 83.76C281.577 83.844 281.442 83.886 281.265 83.886H280.243V85.51C280.243 85.6967 280.191 85.8413 280.089 85.944C279.986 86.0467 279.841 86.098 279.655 86.098ZM279.081 82.906V77.474H279.417L275.497 83.214V82.906H279.081Z" fill="#32264C" fill-opacity="0.8"/>
</g>
</svg>
