<svg width="18" height="18" viewBox="0 0 18 18" fill="none" xmlns="http://www.w3.org/2000/svg">
<path d="M9 1C7.41775 1 5.87104 1.46919 4.55544 2.34824C3.23985 3.2273 2.21447 4.47672 1.60897 5.93853C1.00347 7.40034 0.84504 9.00888 1.15372 10.5607C1.4624 12.1126 2.22433 13.538 3.34315 14.6569C4.46197 15.7757 5.88743 16.5376 7.43928 16.8463C8.99113 17.155 10.5997 16.9965 12.0615 16.391C13.5233 15.7855 14.7727 14.7602 15.6518 13.4446C16.5308 12.129 17 10.5823 17 9C17 6.87827 16.1572 4.84344 14.6569 3.34315C13.1566 1.84286 11.1217 1 9 1Z" fill="white"/>
<path d="M5.04928 14.9127C3.87987 14.1313 2.96842 13.0207 2.43019 11.7213C1.89197 10.4219 1.75115 8.99211 2.02553 7.61269C2.29991 6.23327 2.97718 4.96619 3.97169 3.97169C4.9662 2.97718 6.23327 2.29991 7.6127 2.02553C8.99212 1.75114 10.4219 1.89197 11.7213 2.43019C13.0207 2.96841 14.1313 3.87986 14.9127 5.04928C15.6941 6.2187 16.1111 7.59356 16.1111 9C16.1111 10.886 15.3619 12.6947 14.0283 14.0283M9 1C7.41775 1 5.87104 1.46919 4.55544 2.34824C3.23985 3.2273 2.21447 4.47672 1.60897 5.93853C1.00347 7.40034 0.84504 9.00888 1.15372 10.5607C1.4624 12.1126 2.22433 13.538 3.34315 14.6569C4.46197 15.7757 5.88743 16.5376 7.43928 16.8463C8.99113 17.155 10.5997 16.9965 12.0615 16.391C13.5233 15.7855 14.7727 14.7602 15.6518 13.4446C16.5308 12.129 17 10.5823 17 9C17 6.87827 16.1572 4.84344 14.6569 3.34315C13.1566 1.84286 11.1217 1 9 1Z" stroke="white" stroke-width="0.3"/>
<path d="M10.2893 10.4443C10.1488 10.6598 9.95669 10.8369 9.73047 10.9594C9.50425 11.082 9.25103 11.1462 8.99375 11.1462C8.73646 11.1462 8.48324 11.082 8.25702 10.9594C8.0308 10.8369 7.83872 10.6598 7.69819 10.4443C7.66451 10.3963 7.62164 10.3553 7.57205 10.3239C7.52247 10.2925 7.46716 10.2712 7.40931 10.2613C7.35146 10.2514 7.29222 10.253 7.235 10.2661C7.17779 10.2792 7.12374 10.3036 7.07597 10.3377C6.98015 10.4056 6.91514 10.5088 6.89515 10.6245C6.87517 10.7403 6.90182 10.8593 6.9693 10.9554C7.19187 11.2882 7.49304 11.561 7.84615 11.7496C8.19925 11.9382 8.59341 12.0369 8.99375 12.0369C9.39408 12.0369 9.78824 11.9382 10.1413 11.7496C10.4945 11.561 10.7956 11.2882 11.0182 10.9554C11.0523 10.9077 11.0766 10.8536 11.0897 10.7964C11.1028 10.7392 11.1044 10.6799 11.0945 10.6221C11.0846 10.5642 11.0633 10.5089 11.0319 10.4593C11.0005 10.4098 10.9596 10.3669 10.9115 10.3332C10.8635 10.2993 10.8092 10.2753 10.7518 10.2625C10.6944 10.2498 10.6351 10.2485 10.5772 10.2589C10.5193 10.2692 10.4641 10.2909 10.4147 10.3228C10.3653 10.3546 10.3226 10.3959 10.2893 10.4443Z" fill="#32264C" stroke="#32264C" stroke-width="0.3"/>
<path d="M5.69212 7.66663C5.5506 7.66663 5.41225 7.70859 5.29458 7.78722C5.1769 7.86585 5.08519 7.9776 5.03103 8.10835C4.97687 8.2391 4.9627 8.38298 4.99031 8.52178C5.01792 8.66058 5.08607 8.78808 5.18614 8.88816C5.28622 8.98823 5.41372 9.05638 5.55252 9.08399C5.69132 9.1116 5.8352 9.09743 5.96595 9.04327C6.0967 8.98911 6.20846 8.8974 6.28708 8.77972C6.36571 8.66205 6.40767 8.52371 6.40767 8.38218C6.40767 8.1924 6.33229 8.0104 6.19809 7.87621C6.0639 7.74201 5.8819 7.66663 5.69212 7.66663Z" fill="#32264C" stroke="#32264C" stroke-width="0.3"/>
<path d="M12.2278 7.66664C12.0861 7.66576 11.9473 7.70698 11.8291 7.78507C11.7108 7.86316 11.6184 7.9746 11.5636 8.10527C11.5087 8.23594 11.4939 8.37995 11.521 8.51905C11.5481 8.65815 11.6159 8.78606 11.7158 8.88658C11.8157 8.9871 11.9432 9.05569 12.0821 9.08366C12.2211 9.11163 12.3652 9.09772 12.4962 9.0437C12.6272 8.98967 12.7392 8.89796 12.818 8.7802C12.8968 8.66243 12.9389 8.52391 12.9389 8.3822C12.9389 8.19319 12.8641 8.01185 12.7309 7.87779C12.5977 7.74372 12.4168 7.66781 12.2278 7.66664V7.66664Z" fill="#32264C" stroke="#32264C" stroke-width="0.3"/>
</svg>
