<svg width="18" height="18" viewBox="0 0 18 18" fill="none" xmlns="http://www.w3.org/2000/svg">
<g opacity="0.4">
<path d="M9 1C7.41775 1 5.87104 1.46919 4.55544 2.34824C3.23985 3.2273 2.21447 4.47672 1.60897 5.93853C1.00347 7.40034 0.84504 9.00888 1.15372 10.5607C1.4624 12.1126 2.22433 13.538 3.34315 14.6569C4.46197 15.7757 5.88743 16.5376 7.43928 16.8463C8.99113 17.155 10.5997 16.9965 12.0615 16.391C13.5233 15.7855 14.7727 14.7602 15.6518 13.4446C16.5308 12.129 17 10.5823 17 9C17 6.87827 16.1572 4.84344 14.6569 3.34315C13.1566 1.84286 11.1217 1 9 1Z" fill="white"/>
<path d="M5.04928 14.9127C3.87987 14.1313 2.96842 13.0207 2.43019 11.7213C1.89197 10.4219 1.75115 8.99211 2.02553 7.61269C2.29991 6.23327 2.97718 4.96619 3.97169 3.97169C4.9662 2.97718 6.23327 2.29991 7.6127 2.02553C8.99212 1.75114 10.4219 1.89197 11.7213 2.43019C13.0207 2.96841 14.1313 3.87986 14.9127 5.04928C15.6941 6.2187 16.1111 7.59356 16.1111 9C16.1111 10.886 15.3619 12.6947 14.0283 14.0283M9 1C7.41775 1 5.87104 1.46919 4.55544 2.34824C3.23985 3.2273 2.21447 4.47672 1.60897 5.93853C1.00347 7.40034 0.84504 9.00888 1.15372 10.5607C1.4624 12.1126 2.22433 13.538 3.34315 14.6569C4.46197 15.7757 5.88743 16.5376 7.43928 16.8463C8.99113 17.155 10.5997 16.9965 12.0615 16.391C13.5233 15.7855 14.7727 14.7602 15.6518 13.4446C16.5308 12.129 17 10.5823 17 9C17 6.87827 16.1572 4.84344 14.6569 3.34315C13.1566 1.84286 11.1217 1 9 1Z" stroke="white" stroke-width="0.3"/>
<path d="M10.2893 10.4444C10.1488 10.66 9.95669 10.837 9.73047 10.9596C9.50425 11.0821 9.25103 11.1463 8.99375 11.1463C8.73646 11.1463 8.48324 11.0821 8.25702 10.9596C8.0308 10.837 7.83872 10.66 7.69819 10.4444C7.66451 10.3964 7.62164 10.3555 7.57205 10.324C7.52247 10.2926 7.46716 10.2714 7.40931 10.2614C7.35146 10.2515 7.29222 10.2532 7.235 10.2663C7.17779 10.2794 7.12374 10.3037 7.07597 10.3378C6.98015 10.4057 6.91514 10.5089 6.89515 10.6247C6.87517 10.7404 6.90182 10.8594 6.9693 10.9556C7.19187 11.2883 7.49304 11.5611 7.84615 11.7497C8.19925 11.9383 8.59341 12.037 8.99375 12.037C9.39408 12.037 9.78824 11.9383 10.1413 11.7497C10.4945 11.5611 10.7956 11.2883 11.0182 10.9556C11.0523 10.9078 11.0766 10.8537 11.0897 10.7965C11.1028 10.7393 11.1044 10.6801 11.0945 10.6222C11.0846 10.5644 11.0633 10.5091 11.0319 10.4595C11.0005 10.4099 10.9596 10.367 10.9115 10.3333C10.8635 10.2994 10.8092 10.2754 10.7518 10.2627C10.6944 10.2499 10.6351 10.2487 10.5772 10.259C10.5193 10.2693 10.4641 10.291 10.4147 10.3229C10.3653 10.3547 10.3226 10.396 10.2893 10.4444Z" fill="#32264C" stroke="#32264C" stroke-width="0.3"/>
<path d="M5.69212 7.6666C5.5506 7.6666 5.41225 7.70856 5.29458 7.78719C5.1769 7.86581 5.08519 7.97757 5.03103 8.10832C4.97687 8.23907 4.9627 8.38294 4.99031 8.52175C5.01792 8.66055 5.08607 8.78805 5.18614 8.88813C5.28622 8.9882 5.41372 9.05635 5.55252 9.08396C5.69132 9.11157 5.8352 9.0974 5.96595 9.04324C6.0967 8.98908 6.20846 8.89737 6.28708 8.77969C6.36571 8.66202 6.40767 8.52368 6.40767 8.38215C6.40767 8.19237 6.33229 8.01037 6.19809 7.87618C6.0639 7.74198 5.8819 7.6666 5.69212 7.6666Z" fill="#32264C" stroke="#32264C" stroke-width="0.3"/>
<path d="M12.2278 7.66661C12.0861 7.66573 11.9473 7.70695 11.8291 7.78504C11.7108 7.86313 11.6184 7.97457 11.5636 8.10524C11.5087 8.23591 11.4939 8.37992 11.521 8.51902C11.5481 8.65811 11.6159 8.78603 11.7158 8.88655C11.8157 8.98706 11.9432 9.05566 12.0821 9.08363C12.2211 9.1116 12.3652 9.09769 12.4962 9.04367C12.6272 8.98964 12.7392 8.89793 12.818 8.78016C12.8968 8.6624 12.9389 8.52388 12.9389 8.38217C12.9389 8.19316 12.8641 8.01182 12.7309 7.87776C12.5977 7.74369 12.4168 7.66778 12.2278 7.66661Z" fill="#32264C" stroke="#32264C" stroke-width="0.3"/>
</g>
</svg>
