<svg width="375" height="327" viewBox="0 0 375 327" fill="none" xmlns="http://www.w3.org/2000/svg">
<path d="M85.4274 68.0104L91.2644 67.3096L87.4755 71.8047C85.4568 74.1973 84.5285 77.3166 84.8984 80.4271L85.5992 86.2641L81.1041 82.4753C78.7141 80.4613 75.5922 79.5283 72.4816 79.8982L66.6447 80.5989L70.4335 76.1038C72.4474 73.7139 73.3805 70.5919 73.0106 67.4814L72.3099 61.6444L76.805 65.4333C79.1949 67.4472 82.3169 68.3803 85.4274 68.0104Z" fill="#91B5F8"/>
<path d="M56.3867 157.451C56.4625 155.665 58.4321 155.525 59.3087 155.893C58.2373 155.849 55.6508 154.464 56.3651 152.787C56.8845 151.575 58.0749 151.52 59.0056 151.726C58.3347 151.347 57.8585 150.438 57.7611 150.092C57.3282 148.49 59.1572 147.127 61.1376 148.241C59.9796 147.592 59.4277 144.486 62.6851 144.562C65.2499 144.627 67.2737 146.077 68.713 146.348C72.8037 143.978 61.4406 134.508 66.1265 132.701C67.6633 132.106 69.5463 137.084 74.2972 141.651C76.2451 143.534 78.8641 145.384 80.2817 147.17C81.115 148.231 83.5392 151.228 84.7296 153.685C85.6603 155.611 88.4632 156.921 88.4632 156.921L80.8228 167.559C76.7862 164.28 68.2477 163.684 62.0683 161.044C60.6398 160.438 56.3326 158.901 56.3975 157.451H56.3867Z" fill="#F8B791"/>
<path d="M220.754 103.591C214.856 102.292 207.67 102.725 198.937 105.506C196.697 105.03 196.772 101.74 174.685 103.234C153.322 104.684 151.785 138.405 155.616 167.549C156.893 177.299 146.883 203.467 146.883 233.747C146.883 252.166 175.269 248.656 198.937 249.5C216.323 279.123 239.5 206.5 247.067 167.549C243.755 122.713 267.224 109.034 220.765 103.591H220.754Z" fill="#E54925"/>
<path d="M79.218 169.842C89.4881 174.116 132.233 216.656 158 178.498C188.54 133.294 191.237 104.715 191.237 104.715C150 111.5 138.544 139.432 132.278 147.581C124.974 157.104 107.063 165.773 87.3887 149.702C84.1204 147.04 75.8091 168.424 79.2072 169.831L79.218 169.842Z" fill="#E54925"/>
<path d="M182.795 108.156C173.239 125.135 145.849 128.209 153.63 102.409C156.032 94.4333 146.974 87.3665 146.682 81.4685C146.032 68.0492 157.937 67.3024 162.222 55.6471C168.694 38.083 189.396 13.3547 222.89 42.3252C235.942 53.6234 182.795 108.145 182.795 108.145V108.156Z" fill="#32264C"/>
<path d="M210.588 78.2891L210.069 111.491C209.939 121.339 184.172 121.177 184.172 112.292L184.313 94.6087L210.588 78.2891Z" fill="#C78E85"/>
<path d="M171.199 73.1767C170.81 75.2005 170.333 77.0186 170.214 79.0315C170.063 81.6504 170.312 84.3667 171.026 86.964C172.898 93.8576 177.314 103.857 184.186 104.82C196.328 106.53 213.708 94.626 213.838 76.6506C213.946 60.9695 203.633 35.6784 197.821 44.2711C188.807 57.6038 181.199 51.1756 174.922 59.3354C173.602 61.0453 172.325 63.2313 171.773 68.5666C171.6 70.2764 171.481 71.7807 171.21 73.1767H171.199Z" fill="#F8B791"/>
<path d="M195.246 84.8427C194.662 88.6088 197.249 92.1476 201.015 92.732C204.781 93.3164 208.319 90.7299 208.904 86.9638C209.488 83.1978 206.902 79.659 203.136 79.0746C199.37 78.4902 195.831 81.0767 195.246 84.8427Z" fill="#F27979"/>
<path d="M170.211 79.0413C170.059 81.6602 170.352 84.3658 171.023 86.9739C174.215 86.8007 176.964 84.4199 177.473 81.13C178.057 77.3531 175.471 73.8251 171.704 73.2407C171.531 73.2191 171.369 73.1974 171.207 73.1758C170.817 75.1995 170.341 77.0176 170.222 79.0305L170.211 79.0413Z" fill="#F27979"/>
<path d="M191.566 75.5223C191.566 75.5223 193.785 80.4139 202.865 76.2257C204.001 75.7063 199.142 76.6045 196.209 76.4963C193.19 76.3773 190.939 74.4509 191.566 75.5223Z" fill="#002869"/>
<path d="M173.01 70.3828C173.562 71.5949 179.114 77.0059 181.852 73.0991C182.566 72.071 179.947 74.0839 177.328 72.7745C174.634 71.4217 172.653 69.6144 173.01 70.3828V70.3828Z" fill="#002869"/>
<path d="M186.429 86.1091C184.611 85.9793 181.894 85.2217 181.667 83.0357C181.57 82.0725 182.143 81.3366 182.663 80.5791C184.005 78.6636 185.206 76.8996 185.422 74.4755C185.455 74.1616 185.953 74.14 185.92 74.4646C185.715 76.7806 184.708 78.5446 183.388 80.4168C182.619 81.5098 181.743 82.4621 182.555 83.8582C183.301 85.1135 185.044 85.5139 186.407 85.6113C186.721 85.633 186.743 86.1308 186.418 86.1091H186.429Z" fill="#F27979"/>
<path d="M192.599 91.3812C193.26 90.3748 183.888 91.9223 179.884 88.7623C177.503 86.8793 182.492 102.798 192.599 91.3812Z" fill="white"/>
<path d="M249.723 337.741H187.424C187.424 337.741 183.138 314.476 182.333 310.991C181.527 313.27 176.521 337.741 176.521 337.741H110.328C110.865 328.76 117.463 303.618 118.537 297.049C123.909 261.123 133.176 250.533 139.354 239.272C143.652 231.363 146.338 224.526 148.084 214.606C152.114 191.147 179.378 171.441 192.406 179.35C203.016 167.554 225.445 198.118 230.549 218.628C231.623 222.918 224.773 233.776 228.937 245.707C236.189 265.949 248.246 313.344 249.723 337.741Z" fill="#FFA191"/>
<path d="M218.194 175.567C227.335 187.381 233.622 201.844 233.88 215.439C225.498 230 243.396 259.354 182.537 259.354C128.907 259.354 124 217.5 140.505 189C157.68 159.344 148.114 182.223 157.504 169.5L218.199 175.562L218.194 175.567Z" fill="#E54925"/>
<path d="M305.219 235.917C308.968 239.963 315.777 238.227 321.411 239.16C325.754 239.879 335.627 243.518 335.342 246.069C335.06 248.599 323.673 242.933 316.994 245.433C318.533 247.315 324.961 249.266 324.336 252.059C324.116 253.047 321.048 251.537 317.751 250.959C316.198 250.687 311.574 250.765 308.359 249.637C302.759 247.67 298.462 243.251 298.462 243.251L305.219 235.919L305.219 235.917Z" fill="#FDB88E"/>
<path d="M223.41 194.839C243.08 185.021 241.465 233.054 301.028 246.939C304.163 247.141 306.923 237.818 305.782 235.729C291.948 222.835 293.545 206.378 284.597 197.452C266.239 179.14 276.756 155.601 253.032 128.826L223.41 194.839V194.839Z" fill="#E54925"/>
<path d="M193.138 32.1233C193.138 32.1233 242.865 16.7343 245.235 64.3945C246.036 80.5843 274.162 85.9195 254.239 113.591C247.951 122.325 296.641 153.171 245.235 189.275C210.594 213.604 176.564 157.972 182.538 142.745C189.15 125.896 212.509 125.409 204.836 102.055C200.93 90.1834 207.856 84.1988 209.565 80.5735C209.901 79.8267 210.236 79.0584 210.594 78.29C211.665 75.7035 212.282 73.2361 211.492 70.6388C209.133 62.9336 186.634 64.8058 193.343 48.1507C199.674 32.4155 193.148 32.1124 193.148 32.1124L193.138 32.1233Z" fill="#32264C"/>
<path d="M146.505 181.002C133.499 195.499 131.004 215.5 132.998 226.001" stroke="#32264C" stroke-width="2"/>
<path d="M58.5856 125.003L76.2906 122.923C76.4672 122.903 76.6229 123.051 76.6417 123.257L80.3349 165.017C80.3536 165.223 80.2244 165.405 80.0498 165.425L62.3447 167.505C62.1681 167.525 62.0124 167.377 61.9937 167.171L58.3005 125.411C58.2818 125.205 58.411 125.023 58.5856 125.003Z" fill="#E9CCBC"/>
<path d="M60.5387 124.768L78.2438 122.688C78.4204 122.669 78.5761 122.816 78.5948 123.022L82.288 164.782C82.3067 164.988 82.1775 165.171 82.0029 165.191L64.2979 167.271C64.1213 167.29 63.9655 167.143 63.9468 166.937L60.2537 125.177C60.2349 124.971 60.3641 124.788 60.5387 124.768Z" fill="white"/>
<path d="M61.8749 129.843L77.8919 127.868C78.0517 127.849 78.192 127.985 78.2083 128.175L81.4125 163.584C81.4287 163.774 81.3113 163.942 81.1534 163.961L65.1364 165.937C64.9766 165.955 64.8362 165.82 64.82 165.63L61.6158 130.221C61.5995 130.031 61.7169 129.863 61.8749 129.843Z" fill="#32264C"/>
<path d="M75.8415 144.399C75.8415 146.805 74.9164 148.071 71.3247 148.345C69.6921 148.469 67.4609 146.696 67.4609 144.29C67.4609 141.884 69.7193 140.207 71.7873 140.207C74.2361 140.317 75.7327 141.577 75.8415 144.399Z" fill="white"/>
<path d="M72.7014 144.281C72.1972 144.281 71.9139 145.282 71.8105 145.92C71.7912 146.039 71.787 146.164 71.8345 146.275C72.0405 146.757 72.7187 146.848 72.8749 146.822C73.0349 146.796 73.617 146.4 73.7838 145.931C73.8113 145.853 73.8169 145.77 73.815 145.688C73.7886 144.497 73.3725 144.281 72.7014 144.281Z" fill="#8965D8"/>
<path d="M72.0321 143.733C72.0321 144.737 71.0913 145.551 70.0004 145.551C68.9095 145.551 67.9687 144.737 67.9687 143.733C67.9687 142.729 68.7306 141.993 70.0004 141.993C71.6934 141.916 72.0321 142.729 72.0321 143.733Z" fill="#FFA191"/>
<path d="M68.6953 153.657C68.6445 153.662 68.6002 153.65 68.5624 153.622C68.5247 153.594 68.5035 153.557 68.499 153.511L68.2895 151.382C68.2848 151.334 68.2983 151.294 68.3301 151.261C68.3616 151.226 68.4028 151.206 68.4537 151.201L69.081 151.139C69.2798 151.12 69.463 151.132 69.6307 151.177C69.8005 151.22 69.951 151.291 70.0821 151.39C70.213 151.487 70.3181 151.607 70.3974 151.75C70.4768 151.892 70.5253 152.053 70.5431 152.234C70.5608 152.414 70.5447 152.583 70.4949 152.74C70.4448 152.895 70.3652 153.034 70.256 153.157C70.1465 153.278 70.0128 153.377 69.8547 153.454C69.6987 153.529 69.5214 153.576 69.3227 153.595L68.6953 153.657ZM68.8471 153.35L69.2942 153.306C69.4883 153.287 69.6554 153.23 69.7954 153.136C69.9376 153.039 70.0445 152.917 70.1162 152.768C70.1876 152.617 70.2144 152.45 70.1965 152.268C70.1783 152.083 70.1196 151.925 70.0203 151.793C69.9209 151.661 69.7923 151.563 69.6342 151.498C69.4785 151.433 69.3036 151.409 69.1095 151.429L68.6624 151.473L68.8471 153.35Z" fill="white"/>
<path d="M71.8339 153.352C71.6712 153.368 71.5213 153.342 71.3842 153.275C71.2469 153.206 71.1336 153.107 71.0443 152.977C70.9571 152.845 70.9049 152.691 70.8877 152.516C70.8705 152.342 70.8951 152.181 70.9616 152.033C71.0304 151.886 71.1299 151.765 71.2603 151.672C71.3926 151.576 71.5457 151.52 71.7195 151.503C71.8934 151.486 72.0534 151.511 72.1996 151.58C72.3456 151.646 72.4656 151.745 72.5596 151.876C72.6557 152.007 72.7124 152.16 72.7296 152.335L72.5993 152.348C72.6165 152.523 72.594 152.684 72.5319 152.83C72.4719 152.975 72.3813 153.094 72.2601 153.189C72.1387 153.281 71.9966 153.336 71.8339 153.352ZM71.8714 153.046C71.985 153.035 72.0838 152.999 72.1678 152.937C72.2514 152.873 72.3144 152.792 72.3565 152.694C72.3984 152.593 72.4136 152.485 72.402 152.367C72.3903 152.248 72.3542 152.144 72.2938 152.056C72.2332 151.966 72.1557 151.899 72.0613 151.855C71.9667 151.808 71.8626 151.79 71.7489 151.802C71.6375 151.813 71.5388 151.85 71.4529 151.915C71.369 151.976 71.3049 152.058 71.2608 152.158C71.2187 152.256 71.2035 152.365 71.2153 152.484C71.2268 152.601 71.2629 152.705 71.3235 152.795C71.3861 152.883 71.4647 152.95 71.5593 152.997C71.6559 153.041 71.7599 153.057 71.8714 153.046ZM72.6486 153.261C72.5996 153.266 72.5568 153.255 72.5203 153.227C72.4859 153.197 72.4663 153.157 72.4615 153.109L72.4115 152.601L72.4404 152.243L72.7296 152.335L72.8024 153.075C72.8072 153.124 72.7945 153.167 72.7644 153.203C72.7362 153.237 72.6976 153.256 72.6486 153.261Z" fill="white"/>
<path d="M74.7776 153.058C74.7249 153.063 74.6791 153.052 74.6401 153.024C74.6034 152.994 74.5826 152.955 74.5778 152.906L74.4971 152.086C74.4847 151.96 74.4494 151.859 74.3913 151.784C74.3331 151.709 74.2591 151.657 74.1692 151.628C74.0815 151.596 73.9826 151.585 73.8725 151.596C73.7719 151.606 73.6828 151.634 73.6052 151.68C73.5275 151.726 73.4679 151.783 73.4264 151.852C73.3846 151.919 73.3678 151.994 73.3758 152.076L73.1496 152.098C73.1359 151.958 73.1595 151.83 73.2206 151.714C73.2839 151.596 73.3758 151.498 73.4964 151.421C73.6169 151.345 73.7562 151.298 73.9141 151.283C74.0793 151.267 74.2298 151.285 74.3656 151.339C74.5036 151.391 74.6159 151.476 74.7026 151.595C74.7916 151.714 74.8452 151.866 74.8634 152.05L74.944 152.87C74.9488 152.919 74.9349 152.961 74.9023 152.998C74.8718 153.033 74.8302 153.052 74.7776 153.058ZM73.3019 153.203C73.2492 153.208 73.2034 153.197 73.1644 153.169C73.1276 153.139 73.1068 153.1 73.102 153.051L72.9559 151.565C72.9508 151.514 72.9636 151.472 72.994 151.437C73.0268 151.403 73.0696 151.383 73.1223 151.378C73.1773 151.372 73.2231 151.383 73.2597 151.411C73.2963 151.439 73.3171 151.478 73.3221 151.529L73.4683 153.015C73.4731 153.064 73.4604 153.107 73.4301 153.143C73.3997 153.178 73.3569 153.197 73.3019 153.203Z" fill="white"/>
<path d="M76.123 152.926C75.9603 152.942 75.8104 152.916 75.6733 152.849C75.536 152.78 75.4227 152.681 75.3334 152.551C75.2461 152.419 75.1939 152.265 75.1767 152.091C75.1595 151.916 75.1842 151.755 75.2507 151.607C75.3194 151.46 75.419 151.34 75.5493 151.246C75.6817 151.151 75.8348 151.094 76.0086 151.077C76.1824 151.06 76.3424 151.086 76.4886 151.154C76.6347 151.22 76.7547 151.319 76.8486 151.45C76.9447 151.582 77.0015 151.735 77.0187 151.909L76.8883 151.922C76.9055 152.097 76.8831 152.258 76.821 152.405C76.761 152.549 76.6703 152.669 76.5491 152.763C76.4278 152.856 76.2857 152.91 76.123 152.926ZM76.1604 152.62C76.2741 152.609 76.3728 152.573 76.4568 152.511C76.5405 152.447 76.6033 152.366 76.6456 152.268C76.6875 152.168 76.7026 152.059 76.691 151.942C76.6793 151.822 76.6433 151.718 76.5829 151.631C76.5221 151.54 76.4447 151.473 76.3504 151.429C76.2557 151.382 76.1517 151.365 76.038 151.376C75.9265 151.387 75.8279 151.424 75.7419 151.489C75.658 151.551 75.594 151.632 75.5499 151.732C75.5078 151.83 75.4926 151.939 75.5043 152.058C75.5159 152.176 75.5519 152.279 75.6126 152.369C75.6752 152.457 75.7538 152.524 75.8484 152.571C75.945 152.615 76.049 152.631 76.1604 152.62ZM76.9376 152.836C76.8886 152.84 76.8458 152.829 76.8094 152.801C76.7749 152.771 76.7553 152.732 76.7505 152.683L76.7005 152.175L76.7295 151.817L77.0187 151.909L77.0915 152.649C77.0963 152.698 77.0835 152.741 77.0534 152.777C77.0252 152.811 76.9867 152.831 76.9376 152.836Z" fill="white"/>
<path d="M62.2946 126.58C62.5957 126.223 63.0886 126.219 63.3946 126.571C63.7009 126.923 63.7061 127.497 63.4035 127.855C63.1024 128.211 62.6096 128.216 62.3035 127.863C61.9972 127.511 61.992 126.937 62.2946 126.58Z" fill="#32264C" fill-opacity="0.8"/>
<path d="M64.5979 127.475C64.4212 127.288 64.4081 126.97 64.5684 126.764C64.7284 126.559 65.001 126.545 65.1777 126.732C65.3544 126.919 65.3675 127.237 65.2073 127.443C65.0472 127.648 64.7746 127.662 64.5979 127.475Z" fill="#32264C" fill-opacity="0.8"/>
<path d="M55.3168 153.955C52.2322 152.981 53.2552 150.097 55.0905 149.381C55.2459 149.33 55.3992 149.267 55.2448 149.209C52.909 148.29 53.2046 145.06 55.4665 144.615C55.6259 144.585 55.5791 144.34 55.459 144.231C54.0472 142.959 54.2098 138.862 58.1824 139.985C65.4395 142.032 70.2648 145.592 64.0379 145.816C69.1492 147.591 70.5057 150.185 63.5017 149.918C67.6554 150.952 68.9887 154.057 63.4721 153.847C65.069 154.532 68.0239 156.842 60.3009 158.344C58.4515 158.698 57.5292 158.313 56.6298 157.99C53.9275 156.998 54.3606 155.405 54.8005 154.539C54.9299 154.294 55.1856 153.903 55.3274 153.953L55.3168 153.955Z" fill="#F8B791"/>
<path d="M119.708 27.522L112.255 35L117.298 25.8219C118.881 22.9329 117.679 19.3479 114.646 17.9189L105 13.3668L115.568 15.1778C118.894 15.7445 122.042 13.5331 122.512 10.293L124 0L125.488 10.293C125.959 13.5331 129.106 15.7445 132.432 15.1778L143 13.3668L133.354 17.9189C130.321 19.3541 129.119 22.9391 130.702 25.8219L135.745 35L128.292 27.522C125.946 25.169 122.054 25.169 119.714 27.522H119.708Z" fill="#91B5F8"/>
<path d="M285.553 93.163L278.109 92.5L285.553 91.837C292.177 90.7194 297.37 85.4028 298.462 78.6213L299.109 71L299.757 78.6213C300.849 85.4028 306.042 90.7194 312.665 91.837L320.109 92.5L312.665 93.163C306.042 94.2806 300.849 99.5972 299.757 106.379L299.109 114L298.462 106.379C297.37 99.5972 292.177 94.2806 285.553 93.163Z" fill="#91B5F8"/>
</svg>
