<svg width="20" height="19" viewBox="0 0 20 19" fill="none" xmlns="http://www.w3.org/2000/svg">
<path fill-rule="evenodd" clip-rule="evenodd" d="M9.73689 12.6688C6.19637 12.7334 3.09012 14.2674 1.26025 16.5685C0.407841 17.6405 1.34067 19 2.71021 19H17.2295C18.599 19 19.5318 17.6405 18.6794 16.5685C17.0806 14.558 14.5075 13.1331 11.5216 12.7622V5.89073C14.7325 5.6633 17.3799 3.57088 17.4688 1.06896V0.705078C17.4688 0.523139 17.3799 0.3412 17.2019 0.204746C17.1264 0.147536 17.0429 0.102308 16.9512 0.0690647C16.8245 0.0230645 16.6843 0 16.5468 0H16.0723C12.6808 0.0682916 9.82586 2.25169 9.73689 4.84445V5.02639C8.63695 4.13937 7.11914 3.57088 5.4234 3.52526L4.67932 3.50258C4.44208 3.50258 4.20484 3.57088 4.02691 3.70733C3.84628 3.84378 3.75732 4.02572 3.75732 4.20766L3.78697 4.79896C3.87594 7.2554 6.553 9.30234 9.73689 9.41599V12.6688ZM15.6545 1.38735C15.3579 2.97944 13.6622 4.29863 11.5809 4.50338C11.8775 2.91128 13.5732 1.61477 15.6545 1.38735ZM5.57168 4.88993C7.7446 5.02639 9.55896 6.39106 9.70724 8.05145C7.53432 7.93767 5.74961 6.55032 5.57168 4.88993Z" fill="white"/>
</svg>
