<svg width="23" height="23" viewBox="0 0 23 23" fill="none" xmlns="http://www.w3.org/2000/svg">
<path d="M16.0445 5.22919V5.49705V5.49745C16.0435 5.75107 15.8382 5.95629 15.5846 5.95732L15.5842 5.95732L12.1827 5.95732H12.1826V5.85732C12.0555 5.85748 11.9378 5.79098 11.8723 5.68219L16.0445 5.22919ZM16.0445 5.22919H18.5227V9.42251H18.5179L18.5189 9.44365H16.572C16.557 9.44296 16.542 9.44301 16.527 9.44378L16.527 9.44362L16.5214 9.44423C16.2868 9.46957 16.1089 9.66796 16.1093 9.90394M16.0445 5.22919L6.43118 14.5091H6.43116V14.6091M16.1093 9.90394V9.90376H16.2093L16.1093 9.90394ZM16.1093 9.90394V11.9767M16.1093 11.9767H11.4993H11.4991C11.2452 11.9773 11.0393 12.1827 11.0383 12.4366V12.437V14.5091M16.1093 11.9767V12.0767H11.4993M16.1093 11.9767H16.2093L11.4993 12.0767M11.0383 14.5091L6.43149 14.5091L6.43116 14.6091M11.0383 14.5091V14.6091M11.0383 14.5091H11.1383V12.437C11.1391 12.2381 11.3004 12.0772 11.4993 12.0767M6.43116 14.6091H11.0383M6.43116 14.6091C6.33476 14.6088 6.24223 14.6469 6.17409 14.715C6.10595 14.7831 6.06768 14.8757 6.06816 14.9721M5.96816 14.9723V14.9721H6.06816M5.96816 14.9723C5.96816 14.9724 5.96816 14.9725 5.96816 14.9726L6.06816 14.9721M5.96816 14.9723V17.045M5.96816 14.9723V17.045M6.06816 14.9721L11.0383 14.6091M5.96816 17.045H1.36106H1.3609C1.10696 17.0455 0.901037 17.2509 0.900002 17.5047V17.5052V21.6368V21.637H1M5.96816 17.045L19.3121 1.03624M5.96816 17.045V17.145H1.36106M5.96816 17.045L1.36106 17.145M1 21.637C0.999679 21.733 1.03763 21.8252 1.10528 21.8933C1.17294 21.9614 1.26498 21.9998 1.36106 22H21.6396C21.8393 21.9992 22.0006 21.8367 22 21.637M1 21.637V17.5052C1.00081 17.3063 1.16212 17.1454 1.36106 17.145M1 21.637L1.36106 17.145M22 21.637H22.1V21.6367V9.90371L22.1 9.9033C22.099 9.64979 21.8936 9.44463 21.64 9.4436H21.6396H19.4465V1.36884V1.36804H19.3465M22 21.637V9.90371C21.9992 9.70517 21.8384 9.5444 21.6396 9.5436H19.4454L22 21.637ZM19.3465 1.36804C19.3481 1.27023 19.3101 1.17596 19.2412 1.10672M19.3465 1.36804V9.4436V1.36804ZM19.2412 1.10672L19.3121 1.03624M19.2412 1.10672L19.3121 1.03616C19.3121 1.03619 19.3121 1.03621 19.3121 1.03624M19.2412 1.10672C19.1777 1.0428 19.093 1.00516 19.0035 1.00049L19.0234 0.90972L19.0229 0.909509L18.9809 0.99909L18.98 0.900239C18.9797 0.900241 18.9795 0.900244 18.9793 0.900246C18.9792 0.900246 18.9792 0.900247 18.9792 0.900247M19.3121 1.03624C19.2241 0.94762 19.1041 0.898587 18.9793 0.900031L18.9792 0.900247M18.9792 0.900247C18.9585 0.90047 18.9385 0.902274 18.9194 0.905078M18.9792 0.900247L15.1211 1.36843C15.1207 1.24549 15.1693 1.12724 15.2563 1.04024C15.3433 0.953281 15.4615 0.904714 15.5844 0.905078M15.5844 0.905078C15.5845 0.905078 15.5845 0.905078 15.5846 0.905078L15.5842 1.00508V0.905078H15.5844ZM15.5844 0.905078H18.9194M18.9194 0.905078C18.9166 0.905493 18.9137 0.905931 18.9109 0.906389L18.9271 1.00507V0.905078H18.9194ZM11.4993 12.0767L11.0383 14.6091M17.03 10.3639L17.0298 12.4366V12.4371L16.9298 12.4371C16.9306 12.6367 16.7693 12.7991 16.5695 12.7999L17.03 10.3639ZM17.03 10.3639H21.1766V21.1769H1.82398V17.9653L17.03 10.3639ZM11.8261 15.2988C11.9131 15.2125 11.9622 15.095 11.9624 14.9724V14.9722V12.8999L11.4992 15.4331M11.8261 15.2988L11.7557 15.2279L11.8262 15.2988C11.8262 15.2988 11.8262 15.2988 11.8261 15.2988ZM11.8261 15.2988C11.7394 15.3851 11.6217 15.4334 11.4992 15.4331M11.4992 15.4331C11.4991 15.4331 11.499 15.4331 11.4989 15.4331L11.4991 15.3331H11.4993V15.4331H11.4992ZM12.9528 2.55699H15.1211V5.03402L12.953 5.03416L13.4993 4.0149L13.5111 3.99277V3.99096C13.5718 3.85997 13.5679 3.70745 13.4993 3.57926L12.9528 2.55699ZM6.7915 15.3331H6.8915V15.4331H6.7915V15.3331ZM16.0445 1.8282H18.5227V4.30538H16.0445V1.8282Z" fill="#32264C" stroke="#32264C" stroke-width="0.2"/>
</svg>
