<svg width="170" height="233" viewBox="0 0 170 233" fill="none" xmlns="http://www.w3.org/2000/svg">
<path d="M99.488 37.4685C91.8856 24.3181 82.7385 29.5147 75.8036 15.5512C70.7612 5.3895 63.2723 -2.85049 52.4117 0.939608C32.7944 -3.26118 29.182 15.8836 17.6161 23.7337C0.185043 35.5616 -10.4542 33.5357 -20.1034 50.3266C-54.899 61.7236 -93.0575 91.3378 -101.245 129.912C-111.471 142.35 -14.7976 171.625 2.63351 168.95C12.7419 167.401 40.263 168.457 59.704 168.95C86.4795 169.631 157.672 155.834 165.57 149.685C184.576 55.2945 136.438 73.1291 133.699 66.9838C120.541 37.4685 107.09 50.6189 99.488 37.4685Z" fill="#32264C"/>
<path d="M15.5999 152.205C3.3894 144.578 -17.4415 192.538 -17.4918 192.652C-17.7915 193.335 -18.1472 193.785 -18.4101 193.863C-20.8035 194.566 -23.0422 195.512 -23.3399 198.346C-23.7652 202.383 -22.9571 210.522 -22.6459 212.892C-20.8634 226.396 -16.183 215.036 -15.6707 213.356C-14.7253 210.255 -14.1685 206.013 -12.1096 200.231C-11.8428 199.483 -11.4175 198.483 -10.6422 197.551C-10.6422 197.551 29.7591 161.049 15.598 152.205H15.5999Z" fill="#FDB88E"/>
<path d="M76.2415 221.358C75.2169 220.476 69.044 215.31 68.3442 214.063C66.2118 210.27 76.6379 142.718 55.4377 160.386C47.2387 167.22 60.2128 205.601 58.9388 214.62C58.904 214.868 58.8248 215.084 58.7938 215.293C58.3859 217.354 58.3724 219.345 60.352 220.745C63.4781 222.956 70.5461 226.048 72.6399 226.883C84.572 231.644 77.4962 222.438 76.2396 221.358H76.2415Z" fill="#FDB88E"/>
<path d="M76.2291 221.343C80.8071 224.107 84.3256 227.562 82.5045 230.313C80.4571 233.406 75.1774 231.86 71.3534 229.37C69.8551 228.394 66.47 226.561 64.6102 225.418C62.3753 224.046 60.0651 223.497 58.5649 222.484C56.4827 221.078 56.0207 216.871 58.9264 214.605C58.909 215.607 59.8833 216.771 60.7862 217.556C64.5773 220.852 69.3215 224.548 71.8425 225.349C74.3635 226.149 75.9256 226.041 76.6931 224.877C77.8743 223.087 77.0855 222.306 76.2272 221.345L76.2291 221.343Z" fill="#6EB3F2"/>
<path d="M-1.77156 159.542C-1.99001 161.782 -1.12004 164.007 0.598628 165.459C8.93486 172.492 27.3473 175.69 47.4378 168.821C52.5899 167.06 66.3838 162.441 68.0058 166.973C68.5104 168.048 68.3325 160.21 68.3306 156.876C68.3074 127.567 60.3539 101.095 60.6671 90.3094C61.7439 86.4409 25.5029 76.3957 24.0627 81.8398C21.0158 94.7095 3.12541 109.267 -1.76962 159.542H-1.77156Z" fill="#FFA191"/>
<path d="M115.949 71.8364C117.779 71.3448 119.607 71.4454 120.969 71.3375C123.355 71.1479 125.517 70.8699 125.611 71.3507C125.922 72.9143 121.57 73.1766 120.624 74.3983C120.442 74.6333 120.309 74.7952 120.567 74.9413C121.239 75.3225 122.716 75.5666 123.823 75.6438C125.43 75.7549 129.813 74.8689 130.079 75.7936C130.367 76.7889 126.671 77.3716 125.515 77.4314C126.717 77.3796 131.63 76.502 131.583 77.8527C131.546 78.9464 125.313 79.2197 124.514 79.2524C124.901 79.2538 130.362 78.6004 130.318 79.6027C130.26 80.8542 124.732 80.8289 123.931 80.8615C124.42 80.8679 129.007 80.1196 128.873 81.3692C128.787 82.1683 123.811 82.6963 123.011 82.731C119.485 82.8825 110.771 80.1414 109.752 79.6098L109.277 74.1303C109.277 74.1303 111.49 73.2103 112.583 72.9112C113.95 72.5384 115.258 72.0234 115.945 71.8381L115.949 71.8364Z" fill="#FDB88E"/>
<g clip-path="url(#clip0_4828_7691)">
<path d="M131.631 57.8243L130.242 57.3672L129.634 59.2146L131.022 59.6718L131.631 57.8243Z" fill="#65A4DE"/>
<path fill-rule="evenodd" clip-rule="evenodd" d="M130.347 58.6119C136.36 60.5916 139.629 67.07 137.649 73.0827C135.669 79.0954 129.191 82.3643 123.178 80.3845C117.166 78.4048 113.897 71.9264 115.876 65.9137C117.856 59.901 124.335 56.6321 130.347 58.6119Z" fill="#6EB3F2"/>
<path fill-rule="evenodd" clip-rule="evenodd" d="M132.866 58.2908C132.759 58.5006 131.838 58.3983 130.784 58.0512C129.73 57.7042 128.926 57.2449 128.967 57.007L129.43 55.6016L133.329 56.8853L132.866 58.2908Z" fill="#6EB3F2"/>
<path fill-rule="evenodd" clip-rule="evenodd" d="M131.512 55.8567C132.589 56.2113 133.4 56.6856 133.325 56.9123C133.251 57.139 132.316 57.0387 131.24 56.6841C130.163 56.3296 129.352 55.8552 129.426 55.6285C129.501 55.4019 130.435 55.5022 131.512 55.8567Z" fill="#65A4DE"/>
<path d="M124.111 78.6622C129.173 80.1246 134.462 77.2067 135.925 72.1449C137.387 67.0831 134.469 61.7941 129.407 60.3316C124.346 58.8692 119.057 61.787 117.594 66.8489C116.132 71.9107 119.05 77.1997 124.111 78.6622Z" fill="#EBFCFF"/>
<path fill-rule="evenodd" clip-rule="evenodd" d="M128.715 67.0283L129.469 61.2654L126.652 66.3491C127.014 66.3365 127.38 66.388 127.743 66.5074C128.106 66.6268 128.431 66.803 128.715 67.0283ZM124.799 71.9765L124.045 77.7394L126.862 72.6557C126.499 72.6683 126.133 72.6168 125.771 72.4974C125.408 72.378 125.083 72.2018 124.799 71.9765Z" fill="#D3ECF0"/>
<path fill-rule="evenodd" clip-rule="evenodd" d="M129.873 70.009L135.281 67.8761L129.469 67.8785C129.842 68.5035 130.001 69.2595 129.879 70.0109L129.873 70.009ZM123.653 68.9847L118.246 71.1176L124.057 71.1152C123.685 70.4902 123.526 69.7342 123.647 68.9828L123.653 68.9847Z" fill="#D3ECF0"/>
<path fill-rule="evenodd" clip-rule="evenodd" d="M127.529 72.5544L131.642 76.6599L129.321 71.329C128.882 71.9381 128.244 72.3687 127.529 72.5544ZM125.988 66.4376L121.875 62.332L124.196 67.663C124.636 67.0538 125.274 66.6232 125.986 66.4432L125.988 66.4376Z" fill="#D3ECF0"/>
<path fill-rule="evenodd" clip-rule="evenodd" d="M129.548 61.0219C134.229 62.5632 136.776 67.6103 135.235 72.2913C133.693 76.9722 128.646 79.5189 123.965 77.9777C119.284 76.4364 116.738 71.3893 118.279 66.7083C119.82 62.0274 124.867 59.4807 129.548 61.0219ZM129.384 61.5206C124.975 60.0689 120.229 62.4636 118.778 66.8725C117.326 71.2815 119.72 76.0273 124.129 77.479C128.538 78.9307 133.284 76.536 134.736 72.1271C136.188 67.7181 133.793 62.9724 129.384 61.5206Z" fill="#D3ECF0"/>
<path fill-rule="evenodd" clip-rule="evenodd" d="M127.615 66.8935C129.054 67.3675 129.837 68.9192 129.363 70.3587C128.889 71.7981 127.337 72.5811 125.898 72.1072C124.459 71.6332 123.676 70.0814 124.149 68.642C124.623 67.2026 126.175 66.4195 127.615 66.8935Z" fill="#D3ECF0"/>
<path d="M131.627 57.8237L130.703 57.5195L130.095 59.367L131.019 59.6711L131.627 57.8237Z" fill="#65A4DE"/>
<path fill-rule="evenodd" clip-rule="evenodd" d="M130.344 58.6133C136.356 60.5931 139.625 67.0714 137.646 73.0841C135.666 79.0968 129.187 82.3658 123.175 80.386L123.802 78.4818L133.76 71.9305L129.709 60.5401L130.342 58.6189L130.344 58.6133Z" fill="#6EB3F2"/>
<path fill-rule="evenodd" clip-rule="evenodd" d="M132.867 58.2879C132.761 58.4977 131.84 58.3954 130.786 58.0483C130.706 58.0222 130.633 57.998 130.553 57.9718L131.148 56.1641L133.33 56.8825L132.867 58.2879Z" fill="#6EB3F2"/>
<path fill-rule="evenodd" clip-rule="evenodd" d="M131.514 55.8578C132.59 56.2123 133.401 56.6867 133.327 56.9133C133.252 57.14 132.318 57.0397 131.241 56.6851C131.162 56.659 131.088 56.6348 131.009 56.6086L131.281 55.7812C131.355 55.8055 131.434 55.8316 131.514 55.8578Z" fill="#65A4DE"/>
<path fill-rule="evenodd" clip-rule="evenodd" d="M129.742 60.4375C134.746 62.0851 137.468 67.4788 135.82 72.4827C134.172 77.4867 128.779 80.2083 123.775 78.5606L129.742 60.4375Z" fill="#EBFCFF"/>
<path fill-rule="evenodd" clip-rule="evenodd" d="M128.714 67.0286L129.469 61.2656L127.743 66.5076C128.105 66.627 128.431 66.8032 128.714 67.0286ZM124.046 77.734L126.863 72.6502C126.501 72.6629 126.135 72.6114 125.772 72.492L124.046 77.734Z" fill="#D3ECF0"/>
<path fill-rule="evenodd" clip-rule="evenodd" d="M129.874 70.0113L135.281 67.8784L129.47 67.8808C129.842 68.5058 130.001 69.2618 129.88 70.0132L129.874 70.0113Z" fill="#D3ECF0"/>
<path fill-rule="evenodd" clip-rule="evenodd" d="M127.531 72.5557L131.644 76.6613L129.323 71.3303C128.883 71.9395 128.245 72.3701 127.531 72.5557Z" fill="#D3ECF0"/>
<path fill-rule="evenodd" clip-rule="evenodd" d="M129.547 61.0234C134.228 62.5647 136.775 67.6118 135.233 72.2928C133.692 76.9737 128.645 79.5204 123.964 77.9792L124.128 77.4805C128.537 78.9322 133.283 76.5375 134.735 72.1286C136.186 67.7196 133.792 62.9739 129.383 61.5221L129.547 61.0234Z" fill="#D3ECF0"/>
<path fill-rule="evenodd" clip-rule="evenodd" d="M127.617 66.8906C129.057 67.3646 129.84 68.9164 129.366 70.3558C128.892 71.7952 127.34 72.5782 125.901 72.1043L127.617 66.8906Z" fill="#D3ECF0"/>
<path fill-rule="evenodd" clip-rule="evenodd" d="M128.341 68.7017L126.699 69.4737L125.177 70.2981L130.956 77.8163L128.341 68.7017Z" fill="#6EB3F2"/>
<path fill-rule="evenodd" clip-rule="evenodd" d="M128.341 68.7018L122.562 61.1836L125.177 70.2982L128.341 68.7018Z" fill="#E54925"/>
<path fill-rule="evenodd" clip-rule="evenodd" d="M125.173 70.2961L130.952 77.8143L126.729 69.4452L125.173 70.2961Z" fill="#6EB3F2"/>
<path fill-rule="evenodd" clip-rule="evenodd" d="M122.562 61.1836L125.177 70.2982L126.759 69.5L122.562 61.1836Z" fill="#E54925"/>
<path fill-rule="evenodd" clip-rule="evenodd" d="M128.451 63.0997L128.785 63.2098L128.993 62.5807L129.148 63.3292L129.482 63.4393L129.899 62.1755L129.564 62.0655L129.352 62.7115L129.202 61.946L128.867 61.8359L128.451 63.0997Z" fill="#143143"/>
<path fill-rule="evenodd" clip-rule="evenodd" d="M119.445 66.5352L119.391 67.7863L119.76 67.9075L119.974 67.5634L119.958 67.9728L120.321 68.0923L120.981 67.0408L120.658 66.9345L120.261 67.6642L120.279 67.0736L120.414 66.8542L120.097 66.7497L119.7 67.4795L119.763 66.6397L119.445 66.5352Z" fill="#143143"/>
<path fill-rule="evenodd" clip-rule="evenodd" d="M133.084 71.9761C132.981 72.2878 133.24 72.3982 133.371 72.4411C133.371 72.4411 133.809 72.5791 134.022 72.6179L134.13 72.2892L133.609 72.1176C133.552 72.0989 133.484 72.0765 133.52 71.9688L133.55 71.8782L134.099 72.0403L134.208 71.7116L133.671 71.5098L133.701 71.4191C133.72 71.3625 133.738 71.3058 133.846 71.3413L134.384 71.5185L134.492 71.1898C134.266 71.0775 133.841 70.9375 133.841 70.9375C133.699 70.8909 133.448 70.8522 133.347 71.1582L133.078 71.9742L133.084 71.9761Z" fill="#143143"/>
<path fill-rule="evenodd" clip-rule="evenodd" d="M124.2 75.9455C124.17 76.0362 124.077 76.3761 124.457 76.5012L124.638 76.5609C124.723 76.5889 124.736 76.6247 124.718 76.6813L124.707 76.7153C124.686 76.7777 124.646 76.7835 124.561 76.7555C124.374 76.6939 124.131 76.5948 124.053 76.563L123.954 76.8634C124.13 76.9967 124.176 77.0116 124.55 77.1348C124.748 77.2001 124.976 77.1936 125.099 76.8195L125.122 76.7515C125.174 76.5929 125.194 76.3041 124.888 76.2034L124.701 76.1418C124.593 76.1063 124.593 76.0686 124.613 76.0063L124.621 75.9836C124.649 75.8986 124.69 75.906 124.798 75.9414C124.928 75.9844 125.148 76.0628 125.267 76.1208L125.366 75.8205C125.235 75.721 125.071 75.6291 124.77 75.5491C124.545 75.4877 124.329 75.5545 124.243 75.8152L124.204 75.9342L124.2 75.9455Z" fill="#143143"/>
</g>
<path d="M110.735 81.0963C98.6674 81.0519 96.5408 86.6584 83.9746 82.4052C78.8341 80.6652 69.6453 83.2345 66.3491 78.8924C66.1461 78.6295 65.9682 78.3414 65.8135 78.0263C65.8135 78.0225 65.8116 78.0205 65.8097 78.0167C65.481 84.7309 63.9924 98.6272 61.831 98.9771C42.6801 102.063 20.0493 94.1227 17.4819 91.1667C16.5849 90.1305 19.5563 81.4617 21.188 75.0491C21.2557 74.7842 21.3214 74.5233 21.3833 74.2661C17.0837 79.1186 10.2457 76.6885 6.066 78.732C-2.63369 82.9851 -6.11355 79.6986 -13.1081 83.4781C-15.9732 84.3384 -21.7305 78.4961 -20.439 77.3072C-13.4329 66.3649 2.46047 58.3534 7.76534 52.9963C20.0976 40.5423 31.8809 35.3959 47.8496 36.3645C63.7314 37.3272 73.7457 43.5968 82.2482 55.9078C87.265 63.1711 99.3267 66.5891 112.233 71.7954C113.919 72.2826 113.238 80.644 110.737 81.0963H110.735Z" fill="#E54925"/>
<path d="M24.1175 56.1728C31.1226 51.2949 39.2223 48.4411 46.287 49.3521C58.3737 50.9124 73.3771 66.7397 69.8498 89.8332C66.2133 113.642 50.723 117.271 39.0028 114.95C31.924 113.548 10.5174 106.088 17.8312 86.6532L30.6237 57.1666L24.1175 56.1728Z" fill="#E54925"/>
<path d="M64.2188 66.6133C70.3793 70.0358 75.6407 96.4752 59.199 110.422" stroke="#32264C" stroke-width="2"/>
<path d="M28.3502 69.5349C25.4078 73.5329 21.9763 74.7954 21.1875 75.0428C21.2552 74.778 21.3209 74.517 21.3828 74.2598C21.4253 74.2502 25.0965 73.0341 27.9114 69.2121C28.0003 69.0922 28.1705 69.0652 28.2922 69.1541C28.414 69.243 28.4392 69.4151 28.3502 69.5349Z" fill="#32264C"/>
<path d="M43.1251 25.1797L39.9487 35.0413C39.3281 37.974 54.0886 41.2026 54.8812 38.0417L55.4148 33.4289L43.1251 25.1816V25.1797Z" fill="#C78E85"/>
<path d="M43.6764 23.8825C44.4574 33.253 51.5912 35.1128 56.7317 33.8948C60.2986 33.05 61.6326 28.385 62.0888 26.1309C62.0888 26.1231 62.0927 26.1115 62.0946 26.1038C62.3266 25.0888 62.3846 24.0333 62.286 23.0164C62.2396 22.5678 62.1526 22.1464 62.0502 21.7211C61.9748 21.4001 61.8897 21.0754 61.8104 20.739C61.6848 20.1977 61.6132 19.6119 61.5204 18.9449C61.2266 16.8647 60.6911 16.0276 60.1497 15.378C57.5688 12.2771 54.6883 14.9102 50.9609 9.82569C48.5579 6.55074 43.1641 17.7617 43.6745 23.8844L43.6764 23.8825Z" fill="#FDB88E"/>
<path d="M56.127 30.6229C58.323 30.2156 58.5188 27.6697 58.0381 27.7865C57.3926 27.9381 55.9095 28.6815 53.0925 28.5709C52.1282 28.5397 53.5376 31.104 56.127 30.6229Z" fill="white"/>
<path d="M51.3662 24.9326C51.9152 26.5083 50.6025 28.1554 48.8104 27.8209C48.2671 27.7185 47.7838 27.3937 47.4841 26.9278C46.4866 25.3715 47.5653 23.5059 49.2724 23.473C50.2178 23.4556 51.053 24.0414 51.3642 24.9326H51.3662Z" fill="#ED715D"/>
<path d="M60.0566 24.3287C60.2518 25.3398 61.1141 26.0493 62.0981 26.1015C62.3301 25.0865 62.3881 24.0309 62.2895 23.014C62.2431 22.5655 62.1561 22.1441 62.0537 21.7188C61.9667 21.7245 61.8777 21.7361 61.7907 21.7535C60.6018 21.9855 59.8246 23.1378 60.0566 24.3287Z" fill="#ED715D"/>
<path d="M54.6814 34.6183C54.8012 34.6125 54.8921 34.5119 54.8863 34.3921C54.8805 34.2722 54.78 34.1814 54.6601 34.1872C54.6002 34.1891 48.6863 34.4307 45.7323 31.0089C45.655 30.918 45.5177 30.9083 45.4268 30.9857C45.336 31.063 45.3263 31.2003 45.4036 31.2911C48.4949 34.8735 54.4281 34.6318 54.6794 34.6183H54.6814Z" fill="#ED715D"/>
<path d="M58.7395 21.0151C60.5065 20.8837 61.1271 19.8204 61.158 19.7663C61.2237 19.6483 61.1812 19.4995 61.0652 19.4337C60.9473 19.368 60.8004 19.4086 60.7327 19.5265C60.6979 19.5845 59.9401 20.8354 57.5544 20.4758C57.421 20.4545 57.2973 20.5473 57.276 20.6807C57.2567 20.8141 57.3475 20.9378 57.4809 20.9591C57.9527 21.0306 58.3722 21.0441 58.7395 21.0171V21.0151Z" fill="#002869"/>
<path d="M51.3792 22.3161C52.4657 22.175 53.1713 21.6182 53.2196 21.5795C53.324 21.4944 53.3414 21.3417 53.2563 21.2354C53.1713 21.131 53.0186 21.1136 52.9142 21.1987C52.8465 21.2528 51.2361 22.5094 49.1327 21.3997C49.0128 21.3359 48.8659 21.3823 48.8021 21.5022C48.7383 21.622 48.7847 21.769 48.9046 21.8328C49.8383 22.3257 50.689 22.405 51.383 22.3161H51.3792Z" fill="#002869"/>
<path d="M56.3328 26.4366C56.617 26.4153 56.8993 26.3302 57.1429 26.1852C57.5547 25.9378 57.7963 25.5473 57.806 25.1123C57.8176 24.5536 57.4058 24.1669 57.0075 23.7919C56.8104 23.6063 56.6054 23.4149 56.4624 23.208C55.9655 22.4946 55.7142 21.1897 55.7123 21.1761C55.6871 21.0428 55.5576 20.9558 55.4261 20.9809C55.2928 21.006 55.2058 21.1336 55.2309 21.2651C55.2425 21.3231 55.5035 22.6841 56.0603 23.4845C56.2323 23.7339 56.4566 23.9426 56.6731 24.1456C57.023 24.4743 57.3246 24.7565 57.3169 25.0987C57.3092 25.4603 57.0462 25.671 56.8916 25.7638C56.5223 25.9842 56.0158 26.0132 55.662 25.8334C55.5421 25.7734 55.3952 25.8198 55.3334 25.9397C55.2715 26.0596 55.3198 26.2065 55.4397 26.2684C55.7045 26.4018 56.0177 26.4578 56.3309 26.4346L56.3328 26.4366Z" fill="#ED715D"/>
<path d="M45.376 3.88111C44.1736 2.87154 30.2163 2.66023 24.6169 20.8207C23.2848 25.1173 11.4141 42.6556 11.4141 42.6556C24.7348 38.5469 36.6409 46.8817 42.6647 38.3239C45.3643 34.4852 44.6923 32.1138 44.374 23.2273C44.1029 15.679 53.7104 13.9885 51.1169 9.19896C47.3683 2.27284 45.376 3.88111 45.376 3.88111Z" fill="#32264C"/>
<defs>
<clipPath id="clip0_4828_7691">
<rect width="22.9226" height="25.9057" fill="white" transform="translate(120.391 52.1953) rotate(18.225)"/>
</clipPath>
</defs>
</svg>
