<svg width="202" height="245" viewBox="0 0 202 245" fill="none" xmlns="http://www.w3.org/2000/svg">
<path d="M106.527 244.212C105.424 238.128 106.555 198.516 96.044 167.162L95.9613 148.718L87.0506 141.809L38.1657 144.148C27.4618 158.931 17.8338 174.319 14.8268 196.781C12.9232 210.876 15.9303 244.212 15.9303 244.212H58.8286L61.3391 218.886C63.2702 231.109 64.953 244.212 64.953 244.212H106.527Z" fill="#6EB3F2"/>
<path d="M43.375 57.0481C45.9406 67.6188 95.7911 95.3117 94.66 65.0862C94.2738 54.9835 112.344 60.8469 105.612 38.2191C103.184 30.0709 116.261 20.6014 96.8394 12.811C89.7218 9.94816 81.8318 -5.66007 71.0176 15.9492C66.7139 24.5654 43.375 57.0481 43.375 57.0481Z" fill="#32264C"/>
<path d="M118.387 113.895C114.47 105.912 119.877 63.464 79.6824 57.7933C75.0753 56.8298 70.3027 56.582 65.8059 57.05C63.792 57.2702 61.6402 57.4629 59.4056 57.7107C59.0746 56.1691 58.8539 55.2882 58.8539 55.2882C21.5558 54.2972 3.73431 103.297 12.7278 125.291C18.0797 138.422 27.956 141.037 37.584 139.138L38.1909 144.175C48.7017 152.351 75.0477 157.003 95.9865 154.085L97.3935 144.533C103.573 145.772 109.366 145.91 112.539 144.836C125.643 140.321 124.567 126.447 118.387 113.895Z" fill="#E54925"/>
<path d="M62.2199 38.332L58.1094 59.1155C58.1094 64.4558 80.5655 65.1991 79.931 59.611L78.3033 48.5723L62.2199 38.332Z" fill="#C78E85"/>
<path d="M58.9833 35.4694C57.6315 47.3889 65.7974 56.1152 74.5426 56.7759C80.6118 57.2439 85.1086 51.6007 86.9569 48.2698L86.9845 48.2423C87.8673 46.7558 88.4742 45.1317 88.8329 43.48C88.9984 42.7368 89.0536 42.0486 89.1088 41.3053C89.1639 40.7548 89.1915 40.2042 89.2191 39.6261C89.3019 38.7177 89.4674 37.7542 89.6605 36.6531C90.2398 33.2122 89.826 31.6431 89.3018 30.3493C86.7914 24.1555 80.8877 26.8533 77.5772 16.9708C75.453 10.5844 60.1144 25.3668 58.9833 35.4694Z" fill="#FDB88E"/>
<path d="M70.2511 41.4944C70.3338 44.2472 67.4096 46.2017 64.7612 44.7702C63.9611 44.3298 63.3542 43.5865 63.1059 42.7056C62.3059 39.7602 64.9543 37.3377 67.6854 38.1636C69.1752 38.5765 70.2235 39.9253 70.2511 41.4944Z" fill="#ED715D"/>
<path d="M84.6802 44.4148C84.4871 46.1215 85.4802 47.6631 87.0251 48.2411C87.9079 46.7546 88.5148 45.1305 88.8735 43.4788C89.039 42.7356 89.0942 42.0474 89.1494 41.3042C89.0114 41.2766 88.8735 41.2491 88.708 41.2216C86.7217 41.0014 84.9009 42.4328 84.6802 44.4148Z" fill="#ED715D"/>
<path d="M84.2624 38.5551C87.1315 39.1883 88.6212 37.7844 88.704 37.7293C88.8695 37.5641 88.8695 37.3164 88.704 37.1512C88.5384 36.9861 88.2901 36.9861 88.1246 37.1512C88.0419 37.2338 86.2487 38.8579 82.6071 37.1512C82.414 37.0411 82.1657 37.1512 82.0554 37.3439C81.9726 37.5366 82.0554 37.7844 82.2485 37.8945C82.9934 38.1973 83.6555 38.4175 84.2624 38.5551Z" fill="#002869"/>
<path d="M71.7427 37.1211C73.5359 37.4239 74.9153 36.8733 75.0256 36.8458C75.2463 36.7632 75.3291 36.5155 75.2463 36.3228C75.1635 36.1025 74.9153 36.02 74.7222 36.1025C74.5842 36.1576 71.4393 37.3688 68.6253 34.6161C68.4598 34.4509 68.2115 34.4509 68.046 34.6161C67.8805 34.7812 67.8805 35.029 68.046 35.1941C69.2599 36.4054 70.5841 36.9284 71.7427 37.1211Z" fill="#002869"/>
<path d="M77.39 45.5712C77.859 45.6813 78.3279 45.6813 78.7969 45.5712C79.5694 45.3785 80.1487 44.883 80.397 44.2223C80.7004 43.3414 80.2315 42.5156 79.7901 41.7448C79.5694 41.3594 79.3487 40.9465 79.2107 40.5611C78.7969 39.1847 79.0452 37.01 79.0452 36.9825C79.0728 36.7623 78.9073 36.5696 78.6866 36.5421C78.4659 36.5145 78.2728 36.6797 78.2452 36.8999C78.2452 36.9825 77.9693 39.2673 78.4383 40.8089C78.5762 41.2768 78.8245 41.7448 79.0728 42.1577C79.459 42.8459 79.7901 43.4515 79.6245 43.9745C79.4314 44.5526 78.9073 44.7453 78.6038 44.8004C77.9141 44.9655 77.0865 44.7453 76.6175 44.3049C76.452 44.1397 76.2037 44.1397 76.0382 44.3049C75.8727 44.47 75.8727 44.7178 76.0382 44.883C76.3968 45.1858 76.8658 45.4335 77.39 45.5712Z" fill="#ED715D"/>
<path d="M86.0312 13.7766C86.0312 13.7766 71.5755 -12.2096 47.8503 7.19745C40.2914 13.3912 35.7853 13.7766 29.2537 27.5754C26.2715 33.8758 17.9362 36.5723 17.9362 49.3844C17.9362 58.5926 21.0148 58.108 5.99092 71.6821C-4.18598 84.2787 0.533423 98.3456 5.99092 100.757C12.9705 103.84 8.17031 112.236 17.9362 113.97C25.8814 115.374 32.5068 110.659 39.4312 110.934C46.8197 111.214 51.0627 85.248 54.0346 77.0091C67.0559 59.5619 61.8168 41.6554 62.0302 37.8083C62.0578 37.2577 62.0578 36.7072 62.0854 36.1566C62.1957 34.3123 62.8578 32.8808 63.7958 31.3393C68.8719 22.9433 81.6724 30.073 82.5828 18.2085L86.0312 13.7766Z" fill="#32264C"/>
<path d="M62.2783 91.8411C63.2163 90.0243 65.4509 88.0423 66.8578 85.3721C68.5131 82.1789 69.3131 80.5548 70.058 80.5272C73.0374 80.4722 68.0441 88.4002 69.6441 89.694C70.5545 89.9142 72.9546 88.2625 74.4995 86.9687C76.3479 85.3996 80.3756 79.4536 81.3688 80.5272C82.1964 81.4081 79.3825 85.8125 78.1962 87.1063C79.4377 85.785 83.3551 78.9581 84.3482 80.7199C85.0931 82.0137 79.8791 89.226 79.0515 90.1069C79.4653 89.694 84.4586 82.1514 85.1207 83.5277C85.8655 85.0968 80.955 91.5658 80.1274 92.4467C80.6515 91.9237 85.231 86.0328 85.9759 87.767C86.4173 88.8406 81.9481 94.5388 81.1205 95.4197C77.5066 99.3011 69.9476 104.449 66.913 104.476C64.2646 104.504 59.961 100.127 60.0162 97.4843C60.0437 95.8602 60.8438 94.6489 62.2783 91.8411Z" fill="#FDB88E"/>
<path d="M56.0355 97.516C56.2562 97.461 56.5045 97.5986 56.5872 97.8189C56.67 98.0666 56.532 98.3143 56.2838 98.3969C56.1458 98.452 41.0831 103.187 32.4206 108.995C32.1999 109.133 31.9241 109.078 31.7861 108.857C31.6482 108.637 31.7034 108.362 31.9241 108.224C40.6969 102.333 55.8699 97.5436 56.0355 97.516C56.0079 97.516 56.0079 97.516 56.0355 97.516Z" fill="#32264C"/>
<path d="M38.5256 139.38C38.3325 139.38 38.1394 139.243 38.0842 139.05C38.0014 138.802 38.1669 138.554 38.3876 138.472C40.4567 137.894 57.1746 128.452 66.1129 107.228C66.2233 106.98 66.4716 106.87 66.7199 106.98C66.9681 107.09 67.0785 107.338 66.9681 107.586C57.9195 129.168 40.7877 138.775 38.6635 139.38C38.6083 139.38 38.5532 139.38 38.5256 139.38Z" fill="#32264C"/>
<path d="M77.6718 114.416C76.458 112.792 73.9199 111.168 72.0991 108.745C69.9473 105.855 68.899 104.368 68.1817 104.478C65.2299 104.891 71.437 111.911 70.0577 113.452C69.1749 113.81 66.5541 112.572 64.8437 111.525C62.7746 110.259 57.8364 105.056 57.0364 106.24C56.3467 107.231 59.8503 111.14 61.2021 112.241C59.7676 111.113 54.8018 105.001 54.1121 106.928C53.588 108.332 59.8779 114.609 60.8435 115.352C60.3745 115.021 54.2225 108.36 53.8087 109.819C53.3121 111.498 59.1882 117.086 60.1538 117.829C59.5469 117.416 54.0846 112.296 53.6432 114.141C53.3673 115.269 58.6917 120.197 59.6572 120.912C63.8505 124.188 72.7888 127.326 75.6855 126.418C78.9408 125.399 80.6512 122.344 80.2098 119.756C79.9064 118.187 79.5477 116.921 77.6718 114.416Z" fill="#FDB88E"/>
<path d="M115.08 120.916C115.025 120.916 114.997 120.916 114.942 120.888C102.417 117.145 82.8027 117.86 82.6096 117.86C82.3613 117.888 82.1406 117.668 82.1406 117.42C82.1406 117.172 82.3337 116.952 82.582 116.952C82.7751 116.952 102.555 116.236 115.218 120.035C115.466 120.118 115.604 120.365 115.521 120.613C115.466 120.778 115.273 120.916 115.08 120.916Z" fill="#32264C"/>
<path d="M96.2319 144.781C96.1767 144.781 96.1491 144.781 96.0939 144.754C81.9416 140.432 75.4585 129.256 75.4034 129.146C75.2654 128.926 75.3482 128.65 75.5689 128.513C75.7896 128.375 76.0655 128.458 76.2034 128.678C76.2586 128.788 82.5761 139.661 96.3698 143.873C96.6181 143.956 96.756 144.203 96.6732 144.451C96.6181 144.644 96.4526 144.781 96.2319 144.781Z" fill="#32264C"/>
<path d="M75.6954 51.1479C78.442 51.5946 79.7433 48.6916 79.1304 48.6261C78.3096 48.5323 76.2575 48.7797 73.0007 47.4641C71.8829 47.0216 72.4563 50.622 75.6954 51.1479Z" fill="white"/>
<path d="M172.579 129.227C168.511 121.244 159.687 128.438 159.687 128.438C159.687 128.438 154.193 118.558 147.409 124.506C140.624 130.452 156.02 147.237 156.02 147.237C156.02 147.237 176.645 137.208 172.579 129.227V129.227Z" fill="#528A4F"/>
<path d="M197.211 72.5977C189.385 65.7722 183.109 77.3277 183.109 77.3277C183.109 77.3277 172.93 69.0775 168.286 78.4091C163.644 87.7411 187.405 99.132 187.405 99.132C187.405 99.132 205.038 79.4233 197.211 72.5977V72.5977Z" fill="#FFA191"/>
<path d="M175.501 21.774C167.397 9.3545 154.256 22.7139 154.256 22.7139C154.256 22.7139 143.473 7.42129 133.446 18.3756C123.418 29.33 151.662 54.2558 151.662 54.2558C151.662 54.2558 183.606 34.1931 175.502 21.7736L175.501 21.774Z" fill="white"/>
</svg>
