<svg width="375" height="323" viewBox="0 0 375 323" fill="none" xmlns="http://www.w3.org/2000/svg">
<path d="M227.055 286.997C-40.4453 377 -29.9453 267.927 -29.9453 244.403C-29.9453 220.879 144.488 201.809 227.055 201.809C309.621 201.809 430 220.879 430 244.403C430 317 309.621 286.997 227.055 286.997Z" fill="#F0ECE4"/>
<path d="M307.617 166.021C307.617 166.021 326.69 98.3845 325.048 79.0577C324.122 68.1633 310.532 56.5151 304.306 53.2539C299.68 54.6971 297.218 140.377 297.218 140.377L307.617 166.021Z" fill="#F1D669"/>
<path d="M265.456 184.766L278.961 256.491H275.947L256.628 185.714L265.456 184.766Z" fill="#58362D"/>
<path d="M188.171 184.766L174.66 256.491H177.68L197 185.714L188.171 184.766Z" fill="#58362D"/>
<path d="M302.081 161.848L319.406 234.925H316.386L293.253 162.796L302.081 161.848Z" fill="#58362D"/>
<path d="M307.625 166.018C307.625 166.018 277.786 189.512 266.63 191.507C255.467 193.502 184.512 186.314 181.81 185.911C179.107 185.515 171.496 156.74 171.496 156.74L246.475 143.565L304.824 140.367L307.618 166.011L307.625 166.018Z" fill="#F1D669"/>
<path d="M304.821 140.375L262.248 168.65C260.367 169.895 258.11 170.454 255.867 170.221L177.761 162.114C175.638 161.895 174.973 159.128 176.77 157.968L214.242 133.746L304.828 140.368L304.821 140.375Z" fill="#CDB13E"/>
<path d="M218.071 140.158L286.986 133.004C318.064 37.3198 299.089 156.97 328.951 152.556C356.482 133.472 335.389 111.305 331.574 102.959C338.328 73.4269 319.808 74.4328 313.608 55.3568C308.958 46.2956 288.13 40.7167 287.222 36.4317C272.677 19.5017 285.255 22.9846 273.632 17.1154C250.264 5.31475 254.316 20.5348 231.902 33.8085C183.258 57.1768 228.785 68.5931 202.813 83.6448C169.35 103.058 186.009 127.698 208.98 114.229C198.092 121.694 220.708 134.156 218.071 140.158Z" fill="#32264C"/>
<path d="M279.323 15.4535C279.897 16.1111 280.433 16.7989 280.93 17.517C285.008 23.4069 288.254 20.188 291.904 26.981C296.39 35.3268 293.736 33.8961 306.688 43.3544C310.749 47.4877 314.362 54.436 313.885 58.4505C313.417 62.3928 310.828 65.7743 309.915 69.6374C309.082 73.1587 309.737 77.0073 311.689 80.0542C313.775 83.3102 317.133 85.5092 319.748 88.3586C322.362 91.2079 322.915 96.5675 321.214 100.041C319.391 103.764 315.712 103.707 313.466 107.192C311.05 110.94 312.669 115.828 313.718 120.163C314.767 124.497 306.025 93.1186 301.919 94.8547C300.098 95.6247 306.477 132.431 304.556 131.957C303.288 131.644 301.948 131.263 300.704 131.663C299.953 131.903 299.319 132.408 298.737 132.94C295.264 136.111 296.767 138.641 293.941 142.317C291.115 145.994 283.766 145.287 278.114 142.317C273.247 140.87 278.102 133.55 274.724 129.758C268.863 123.178 270.167 112.669 265.339 105.296C261.494 99.4229 254.438 96.5606 247.632 94.8547C240.825 93.1488 233.672 92.1957 227.575 88.7191C223.926 86.6383 220.774 83.6909 218.454 80.1869C216.929 77.884 215.733 75.1976 215.97 72.4463C216.485 66.501 223.116 62.9754 225.161 57.369C226.818 52.8282 225.732 48.0278 226.36 43.3544C226.975 38.7732 229.761 34.5972 232.184 30.7472C237.084 22.9576 244.82 11.6279 253.722 8.25659C262.548 4.91408 273.263 8.50173 279.323 15.4564V15.4535Z" fill="#32264C"/>
<path d="M300.876 140.116C300.876 140.116 312.266 102.054 297.403 75.193C277.616 59.0072 236.472 37.4051 218.362 56.3853C204.737 70.6682 219.444 134.711 219.444 134.711L300.869 140.116H300.876Z" fill="#F1D669"/>
<path d="M221.555 99.4844C221.555 99.4844 194.255 99.64 187.761 107.775C177.85 120.191 171.48 156.951 171.48 156.951L221.555 152.42V99.4844Z" fill="#F1D669"/>
<path d="M159.609 228.113C156.177 233.411 150.627 234.18 145.354 235.031C143.415 235.344 131.557 242.426 146.749 242.703C149.414 242.758 158.538 242.619 162.955 241.637C167.435 240.643 166.687 234.058 167.908 231.847C167.908 231.847 164.672 220.322 159.609 228.113Z" fill="#F8B791"/>
<path d="M145.358 235.031C139.098 235.95 133.685 238.099 134.401 241.942C135.221 246.254 144.45 247.153 148.041 246.381C149.983 245.967 153.545 244.79 156.105 244.401C159.172 243.934 161.754 243.052 163.86 242.629C166.778 242.045 168.151 237.98 167.199 234.524C166.76 235.627 166.199 237.055 163.931 237.981C158.427 240.229 151.423 241.689 148.309 241.409C145.194 241.13 143.544 240.3 143.236 238.676C142.77 236.178 143.993 235.698 145.358 235.044L145.358 235.031Z" fill="#FFA191"/>
<path d="M206.689 219.722C206.898 225.475 203.162 228.96 199.68 232.362C198.404 233.611 193.263 245.115 204.744 237.356C206.756 235.995 213.489 231.107 216.281 228.057C219.1 224.957 215.087 220.452 214.845 218.148C214.845 218.148 206.384 211.251 206.701 219.722L206.689 219.722Z" fill="#F8B791"/>
<path d="M199.672 232.362C195.484 236.331 192.575 240.781 195.126 243.259C197.999 246.047 205.363 241.867 207.624 239.412C208.852 238.086 210.905 235.337 212.594 233.704C214.63 231.75 216.1 229.721 217.456 228.309C219.328 226.352 218.339 222.87 215.831 220.784C216.074 221.837 215.857 223.766 215.078 224.798C211.842 229.14 207.696 234.133 205.215 235.56C202.748 236.987 201.075 237.23 199.997 236.184C198.338 234.571 198.991 233.561 199.673 232.35L199.672 232.362Z" fill="#FFA191"/>
<path d="M173.826 162.131C185.851 133.564 226.206 121.211 229.754 117.027C229.754 117.027 275.254 124.628 257.708 133.651C227.916 148.99 210.959 163.798 200.895 169.022C213.168 183.982 215.101 217.475 215.101 217.475C215.207 220.32 207.26 224.589 204.941 223.126C197.514 213.283 166.373 179.765 173.8 162.131L173.826 162.131Z" fill="#E54925"/>
<path d="M277.912 119.428C277.919 117.874 250.354 106.842 239.878 110.617C239.878 110.617 225.347 120.498 223.577 121.775C235.794 127.234 240.753 135.472 240.753 135.472C224.417 141.008 198.097 158.895 190.366 167.401C183.992 174.419 168.68 200.645 158.44 227.784C157.781 229.728 166.827 233.959 169.006 232.437C171.642 231.431 204.09 203.16 208.957 181.683C214.345 177.083 255.609 173.276 270.059 158.176C279.861 147.919 277.833 133.576 277.925 119.428L277.912 119.428Z" fill="#E54925"/>
<path d="M236.571 69.6313C236.888 75.045 218.713 113.87 228.225 118.16C251.632 122.549 278.177 149.895 284.847 129.769C289.659 115.239 287.898 42.3333 263.24 48.3157C248.04 45.954 235.58 53.4526 236.559 69.6311L236.571 69.6313Z" fill="#FFA191"/>
<path d="M189.086 63.6683C187.593 61.9571 185.19 60.8334 184.416 59.8193C182.656 57.5467 181.77 56.404 181.187 56.5056C178.829 56.8989 183.946 62.3742 182.884 63.6281C182.195 63.9297 180.079 63.0141 178.681 62.2019C177.008 61.2449 172.961 57.1941 172.334 58.1666C171.812 58.9895 174.68 62.0179 175.8 62.8496C174.63 61.9916 169.982 57.6756 169.457 59.2187C169.08 60.3478 174.8 64.7744 175.571 65.3463C175.185 65.0856 169.845 60.6543 169.543 61.8103C169.199 63.1676 174.291 66.7726 175.075 67.3321C174.577 67.0059 170.11 63.0601 169.802 64.5318C169.606 65.45 173.962 69.2419 174.746 69.814C178.168 72.3232 188.691 75.4092 190.065 75.564L194.201 70.4195C194.201 70.4195 192.609 68.024 191.721 66.995C190.61 65.7086 189.641 64.3241 189.086 63.6809L189.086 63.6683Z" fill="#F8B791"/>
<path d="M188.626 77.567C194.964 86.3017 219.672 112.043 235.569 91.7547C254.398 67.7246 253.744 45.6279 253.744 45.6279C229.504 44.2536 226.749 65.029 222.92 69.3208C216.945 76.0064 202.957 70.0692 193.995 66.6366C191.789 65.795 187.423 75.887 188.627 77.5543L188.626 77.567Z" fill="#FFA191"/>
<path d="M333.231 69.2232C334.12 67.1319 336.053 65.3148 336.482 64.1109C337.448 61.4021 337.944 60.048 338.526 59.959C340.884 59.6036 337.724 66.3854 339.12 67.2608C339.864 67.3394 341.589 65.8086 342.675 64.6057C343.968 63.167 346.562 58.079 347.457 58.805C348.202 59.4142 346.419 63.1925 345.612 64.3255C346.457 63.1554 349.554 57.5978 350.512 58.9062C351.225 59.8685 347.147 65.8354 346.587 66.6197C346.873 66.2593 350.583 60.3858 351.231 61.3973C351.977 62.5751 348.248 67.5764 347.676 68.3604C348.039 67.9005 351.077 62.7585 351.82 64.0752C352.283 64.8807 349.313 69.8346 348.753 70.6189C346.282 74.0671 337.221 80.2591 335.959 80.8267L330.437 77.2128C330.437 77.2128 331.215 74.4369 331.746 73.1846C332.41 71.6192 332.899 69.9996 333.231 69.2106L333.231 69.2232Z" fill="#F8B791"/>
<path d="M338.45 80.8406C325.792 103.356 283.028 119.815 279.744 85.6497C277.634 63.7248 267.691 46.6783 267.691 46.6783C295.938 46.746 301.59 69.6412 304.788 74.4324C309.763 81.8882 320.127 74.3714 329.482 72.2408C331.779 71.7199 339.46 79.0423 338.45 80.8406Z" fill="#FFA191"/>
<path d="M265.909 37.5514L265.996 52.2585C264.499 57.4324 250.354 56.6212 251.677 50.6857L253.604 43.0192L265.909 37.5388L265.909 37.5514Z" fill="#C78E85"/>
<path d="M246.315 31.3651C246.115 32.4727 245.867 33.4782 245.807 34.5761C245.739 36.0149 245.898 37.4963 246.298 38.9195C247.369 42.6939 249.846 48.1397 253.613 48.6221C260.278 49.493 269.727 42.8668 269.703 33.0249C269.679 24.4336 263.876 10.6313 260.746 15.3798C255.881 22.7326 251.683 19.2598 248.279 23.7626C247.565 24.7079 246.871 25.9063 246.608 28.8445C246.525 29.7903 246.457 30.61 246.328 31.3654L246.315 31.3651Z" fill="#F8B791"/>
<path d="M259.549 37.6286C259.254 39.6944 260.679 41.6189 262.758 41.9147C264.824 42.2102 266.748 40.772 267.044 38.7062C267.339 36.6405 265.914 34.7159 263.835 34.4201C261.757 34.1244 259.845 35.5628 259.549 37.6286Z" fill="#F27979"/>
<path d="M245.799 34.5894C245.732 36.0282 245.903 37.5099 246.29 38.9329C248.036 38.8175 249.529 37.4966 249.794 35.6955C250.089 33.6298 248.664 31.7052 246.585 31.4095C246.497 31.4076 246.396 31.3929 246.308 31.3784C246.108 32.486 245.86 33.4916 245.799 34.5894Z" fill="#F27979"/>
<path d="M257.489 32.5453C257.489 32.5453 258.735 35.2116 263.686 32.8633C264.311 32.5731 261.647 33.0863 260.043 33.0531C258.389 33.0188 257.148 31.9697 257.489 32.5453Z" fill="#32264C"/>
<path d="M247.279 29.8307C247.581 30.4939 250.666 33.4256 252.138 31.2706C252.529 30.7102 251.103 31.8176 249.652 31.118C248.164 30.3923 247.073 29.4095 247.266 29.8304L247.279 29.8307Z" fill="#32264C"/>
<path d="M254.735 38.3594C253.738 38.3009 252.243 37.9035 252.116 36.7007C252.064 36.169 252.363 35.7709 252.65 35.3474C253.367 34.2884 254.018 33.3165 254.122 31.9921C254.125 31.8153 254.403 31.8084 254.4 31.9852C254.298 33.2591 253.759 34.2333 253.043 35.2671C252.626 35.8775 252.148 36.3982 252.612 37.1532C253.028 37.844 253.984 38.0407 254.728 38.094C254.905 38.0977 254.912 38.3757 254.735 38.3721L254.735 38.3594Z" fill="#F27979"/>
<path d="M255.468 11.7483C255.468 11.7483 272.082 -1.77678 282.715 17.5428C286.106 23.7036 295.669 23.2392 292.257 36.0722C291.101 40.4179 291.837 42.1139 293.112 45.7375C295.378 52.1741 309.747 67.9407 292.543 76.8351C283.667 78.3062 285.006 91.5688 278.028 90.118C264.344 83.9263 277.437 73.1234 266.656 63.17C255.875 53.2165 263.332 39.3357 265.052 34.2245C265.178 33.8524 265.319 33.4804 265.457 33.0981C265.876 31.8253 265.815 30.7 265.606 29.4243C264.464 22.4594 254.004 23.7991 256.591 15.6256L255.469 11.7496L255.468 11.7483Z" fill="#32264C"/>
<path d="M257.943 41.0187C258.322 40.4201 252.856 41.4186 250.481 39.6006C249.063 38.5227 252.143 47.7837 257.943 41.0187Z" fill="white"/>
<path d="M234.176 136.846C210.1 142.764 189.44 162.474 178.371 183.936C178.134 184.398 178.806 184.88 179.056 184.405C190.02 163.143 210.463 143.53 234.336 137.658C234.857 137.529 234.697 136.718 234.176 136.846Z" fill="#32264C"/>
<path d="M205.374 190.114C201.858 195.815 198.374 201.781 194.035 206.896C193.686 207.306 194.371 207.762 194.72 207.365C199.059 202.25 202.555 196.284 206.059 190.583C206.334 190.134 205.662 189.665 205.374 190.114Z" fill="#32264C"/>
<path d="M228.249 97.9101C228.426 97.9011 228.567 97.7777 228.609 97.6017C231.299 84.2281 242.585 72.4604 242.701 72.3491C242.855 72.2007 242.848 71.9478 242.687 71.8055C242.538 71.6635 242.286 71.6582 242.143 71.8195C242.027 71.9434 230.587 83.8596 227.854 97.4597C227.812 97.6736 227.946 97.8785 228.16 97.9209C228.198 97.9217 228.223 97.9222 228.261 97.923L228.249 97.9101Z" fill="#32264C"/>
<path d="M286.588 101.431C286.727 101.434 286.842 101.348 286.908 101.21C287.001 101.023 286.917 100.793 286.73 100.689C286.68 100.662 282.945 98.6013 279.797 86.5217C279.738 86.3183 279.539 86.1879 279.323 86.2465C279.119 86.3055 278.989 86.5049 279.048 86.7209C282.312 99.2704 286.224 101.31 286.387 101.389C286.449 101.415 286.512 101.429 286.575 101.431L286.588 101.431Z" fill="#32264C"/>
<path d="M303.522 112.068C303.522 112.068 283.82 112.223 277.326 120.359C267.415 132.774 261.225 170.232 261.225 170.232L306.273 154.209L304.776 104.719" fill="#F1D669"/>
<path d="M52.5512 268.723H81.9478C83.0875 268.723 84.0119 267.798 84.0119 266.659V242.243H50.4844V266.659C50.4844 267.798 51.4088 268.723 52.5485 268.723H52.5512Z" fill="#6EB3F2"/>
<path d="M61.2892 239.533C61.3085 239.533 61.325 239.531 61.3444 239.525C61.4934 239.487 61.5844 239.332 61.5458 239.183C51.3965 200.018 41.857 172.274 34.6879 161.065C34.5279 160.817 34.4147 160.638 34.3706 160.547C34.3043 160.406 34.136 160.348 33.9981 160.414C33.8573 160.48 33.7994 160.649 33.8656 160.787C33.9235 160.908 34.0339 161.082 34.216 161.366C41.3548 172.525 50.8694 200.211 61.005 239.321C61.0381 239.453 61.1595 239.539 61.2919 239.531L61.2892 239.533Z" fill="#91B5F8"/>
<path d="M29.4689 158.87C30.3216 160.131 34.7588 162.554 35.1203 162.311C35.479 162.068 34.883 157.046 34.0331 155.785C33.1804 154.527 31.4695 154.196 30.2084 155.046C28.9501 155.898 28.619 157.609 29.4689 158.87Z" fill="#7DCC79"/>
<path d="M38.078 162.929C37.573 164.4 38.3263 169.519 38.7485 169.662C39.1679 169.806 42.9043 166.227 43.4092 164.756C43.9142 163.285 43.1305 161.682 41.657 161.177C40.1862 160.672 38.5829 161.455 38.078 162.929Z" fill="#7DCC79"/>
<path d="M32.3394 171.612C33.8874 171.772 38.7055 169.884 38.7496 169.443C38.7965 169.001 34.4669 166.167 32.9189 166.007C31.3708 165.847 29.9855 166.973 29.8255 168.518C29.6655 170.067 30.7913 171.449 32.3366 171.612H32.3394Z" fill="#7DCC79"/>
<path d="M50.3793 189.104C49.27 191.469 49.6039 200.148 50.2772 200.462C50.9532 200.78 57.8326 195.481 58.9419 193.116C60.0512 190.752 59.033 187.937 56.6681 186.828C54.3032 185.718 51.4886 186.737 50.3793 189.101V189.104Z" fill="#7DCC79"/>
<path d="M39.2429 202.548C41.7954 203.094 50.1759 200.818 50.3332 200.089C50.4905 199.361 43.7795 193.847 41.2242 193.301C38.6717 192.755 36.1578 194.38 35.6087 196.935C35.0623 199.488 36.6877 202.002 39.2402 202.551L39.2429 202.548Z" fill="#7DCC79"/>
<path d="M56.7857 199.046C54.8265 201.571 52.8838 212.018 53.604 212.578C54.3242 213.139 63.9658 208.668 65.925 206.143C67.8843 203.618 67.4262 199.984 64.904 198.025C62.3791 196.066 58.7449 196.521 56.7857 199.046Z" fill="#91B5F8"/>
<path d="M40.9105 216.596C44.0866 216.941 54.0014 213.114 54.1007 212.206C54.2001 211.298 45.3367 205.434 42.1605 205.089C38.9844 204.744 36.1283 207.04 35.7834 210.216C35.4385 213.392 37.7343 216.248 40.9132 216.593L40.9105 216.596Z" fill="#7DCC79"/>
<path d="M60.4966 211.834C58.5374 214.359 56.5947 224.806 57.315 225.367C58.0352 225.927 67.6768 221.457 69.636 218.932C71.5952 216.407 71.1371 212.772 68.615 210.813C66.0901 208.854 62.4558 209.312 60.4966 211.834Z" fill="#7DCC79"/>
<path d="M44.6292 229.377C47.8054 229.722 57.7201 225.895 57.8195 224.987C57.9188 224.079 49.0554 218.215 45.8793 217.87C42.7031 217.525 39.8471 219.821 39.5021 223C39.1572 226.176 41.4531 229.032 44.632 229.377H44.6292Z" fill="#7DCC79"/>
<path d="M69.0966 228.055C66.3233 229.642 60.5477 238.563 61.0003 239.355C61.4529 240.147 72.0713 239.687 74.8446 238.1C77.6178 236.513 78.5809 232.978 76.9914 230.202C75.4047 227.429 71.8671 226.466 69.0938 228.055H69.0966Z" fill="#7DCC79"/>
<path d="M47.8615 242.017C50.9714 242.757 61.2863 240.199 61.496 239.31C61.7057 238.422 53.6481 231.496 50.5381 230.756C47.4282 230.017 44.31 231.937 43.5705 235.047C42.8309 238.157 44.7515 241.275 47.8615 242.015V242.017Z" fill="#91B5F8"/>
<path d="M41.8677 171.079C41.3545 172.575 42.1216 177.773 42.5466 177.92C42.9743 178.066 46.7686 174.429 47.2818 172.933C47.7951 171.438 46.9976 169.81 45.502 169.296C44.0063 168.783 42.3782 169.581 41.865 171.076L41.8677 171.079Z" fill="#7DCC79"/>
<path d="M36.2451 180.001C37.818 180.164 42.7105 178.246 42.7574 177.799C42.8044 177.349 38.4058 174.471 36.8329 174.308C35.26 174.146 33.8526 175.288 33.6898 176.861C33.527 178.434 34.6694 179.841 36.2423 180.001H36.2451Z" fill="#7DCC79"/>
<path d="M46.2703 178.681C45.3707 180.74 45.8481 188.19 46.4359 188.447C47.0236 188.703 52.8213 183.996 53.7208 181.94C54.6204 179.881 53.6822 177.486 51.6264 176.584C49.5678 175.684 47.1726 176.622 46.2703 178.678V178.681Z" fill="#7DCC79"/>
<path d="M37.247 191.325C39.4822 191.557 46.4333 188.833 46.4995 188.196C46.5657 187.558 40.3183 183.469 38.0831 183.237C35.8479 183.005 33.8501 184.628 33.621 186.863C33.3892 189.095 35.0118 191.096 37.247 191.325Z" fill="#7DCC79"/>
<path d="M70.3367 243.188C70.3063 243.188 70.276 243.188 70.2456 243.188C70 243.158 69.8234 242.934 69.8538 242.689C77.6851 178.355 86.9625 132.285 95.9776 112.972C96.1791 112.544 96.3226 112.232 96.3722 112.081C96.4495 111.843 96.7034 111.716 96.9379 111.791C97.1752 111.868 97.3049 112.119 97.2277 112.357C97.1614 112.563 97.0235 112.859 96.7917 113.353C87.8151 132.583 78.5654 178.556 70.7451 242.799C70.7202 243.014 70.5436 243.177 70.3367 243.194V243.188Z" fill="#528A4F"/>
<path d="M103.809 108.38C102.722 110.56 96.1877 115.348 95.5641 115.036C94.9404 114.727 94.8245 106.625 95.9118 104.445C96.999 102.265 99.6453 101.377 101.828 102.464C104.008 103.551 104.897 106.198 103.809 108.38Z" fill="#528A4F"/>
<path d="M91.0114 116.651C92.1235 118.88 92.0103 127.167 91.3729 127.484C90.7355 127.802 84.0465 122.909 82.9345 120.679C81.8224 118.45 82.7275 115.74 84.9571 114.628C87.1868 113.516 89.8966 114.421 91.0087 116.651H91.0114Z" fill="#528A4F"/>
<path d="M101.96 129.216C99.537 129.798 91.4876 127.82 91.3221 127.127C91.1565 126.435 97.4287 121.021 99.8543 120.438C102.277 119.856 104.714 121.349 105.296 123.772C105.878 126.195 104.385 128.631 101.963 129.213L101.96 129.216Z" fill="#528A4F"/>
<path d="M77.0156 160.812C79.2756 164.333 80.5836 178.183 79.5792 178.826C78.5747 179.471 66.5269 172.515 64.2669 168.996C62.0069 165.475 63.0279 160.79 66.549 158.53C70.0701 156.27 74.7556 157.291 77.0156 160.812Z" fill="#528A4F"/>
<path d="M97.5446 179.806C93.6069 181.216 79.8178 179.37 79.4149 178.247C79.0121 177.124 88.5019 166.953 92.4424 165.543C96.3802 164.133 100.715 166.186 102.125 170.123C103.535 174.061 101.482 178.396 97.5446 179.806Z" fill="#528A4F"/>
<path d="M68.9355 177.959C72.5807 181.552 77.8734 197.733 76.8469 198.774C75.8203 199.814 59.5671 194.756 55.9218 191.163C52.2766 187.57 52.2324 181.701 55.828 178.055C59.4208 174.41 65.2902 174.366 68.9355 177.962V177.959Z" fill="#528A4F"/>
<path d="M97.8435 202.462C92.8709 203.682 76.3196 199.703 75.9719 198.281C75.6242 196.863 88.4558 185.676 93.4283 184.456C98.4009 183.237 103.42 186.28 104.637 191.25C105.857 196.223 102.813 201.242 97.8435 202.459V202.462Z" fill="#528A4F"/>
<path d="M65.7324 199.045C69.3776 202.638 74.6703 218.819 73.6437 219.859C72.6172 220.9 56.364 215.842 52.7187 212.249C49.0735 208.656 49.0293 202.787 52.6249 199.141C56.2177 195.496 62.0871 195.452 65.7324 199.048V199.045Z" fill="#528A4F"/>
<path d="M94.656 223.548C89.6834 224.768 73.1321 220.786 72.7844 219.368C72.4367 217.949 85.2683 206.762 90.2408 205.543C95.2134 204.323 100.233 207.364 101.45 212.336C102.669 217.309 99.6258 222.328 94.656 223.545V223.548Z" fill="#528A4F"/>
<path d="M55.518 226.615C60.2588 228.55 71.3132 241.495 70.7613 242.847C70.2094 244.199 53.2525 245.714 48.5145 243.779C43.7737 241.845 41.4999 236.436 43.4343 231.696C45.3687 226.955 50.7773 224.681 55.518 226.615Z" fill="#528A4F"/>
<path d="M92.2005 244.288C87.4211 246.121 70.5 244.239 69.9785 242.876C69.457 241.51 80.7873 228.808 85.5695 226.976C90.3489 225.143 95.7105 227.536 97.54 232.315C99.3723 237.095 96.9799 242.456 92.2005 244.286V244.288Z" fill="#528A4F"/>
<path d="M86.7082 130.387C87.8396 132.653 87.7237 141.072 87.0752 141.395C86.4295 141.717 79.6329 136.745 78.5015 134.479C77.3702 132.214 78.2918 129.46 80.5573 128.331C82.8229 127.2 85.5768 128.122 86.7054 130.387H86.7082Z" fill="#528A4F"/>
<path d="M97.5414 143.366C95.0799 143.957 86.9009 141.948 86.7325 141.244C86.5642 140.541 92.9386 135.038 95.4 134.448C97.8615 133.857 100.337 135.375 100.927 137.836C101.518 140.298 100 142.773 97.5386 143.364L97.5414 143.366Z" fill="#528A4F"/>
<path d="M81.3512 143.385C83.2166 146.461 84.0334 158.396 83.1531 158.929C82.2756 159.461 72.0739 153.214 70.2085 150.137C68.3431 147.06 69.3254 143.054 72.4022 141.191C75.479 139.325 79.4858 140.308 81.3484 143.385H81.3512Z" fill="#528A4F"/>
<path d="M98.3267 161.557C94.8277 162.396 83.2103 159.542 82.9703 158.544C82.7302 157.545 91.7868 149.727 95.2858 148.888C98.7848 148.049 102.3 150.204 103.139 153.701C103.978 157.2 101.823 160.715 98.3267 161.554V161.557Z" fill="#528A4F"/>
</svg>
