<svg width="375" height="53" viewBox="0 0 375 53" fill="none" xmlns="http://www.w3.org/2000/svg">
<path d="M570.921 244.951C549.287 309.168 495.831 368.14 436.877 416.652C378.097 465.532 313.933 502.999 242.945 531.98C172.419 560.744 95.5304 580.806 23.5211 576.512C-49.1237 572.067 -116.716 543.633 -140.682 492.822C-164.474 442.379 -144.294 370.295 -149.975 303.207C-155.945 236.706 -187.603 175.569 -164.041 129.797C-140.654 83.6575 -62.6814 52.7316 4.9097 32.1036C72.7888 10.8897 129.651 -0.176843 181.563 0.994353C233.474 2.16555 279.973 15.7922 344.193 25.1111C408.413 34.4301 490.355 39.4413 536.477 76.2012C582.6 112.961 592.728 181.102 570.921 244.951Z" fill="#32264C"/>
</svg>
