<svg width="14" height="10" viewBox="0 0 14 10" fill="none" xmlns="http://www.w3.org/2000/svg">
<path d="M13.5129 9.40341C13.2962 8.82011 12.9456 8.30104 12.4894 7.87828C12.048 7.47024 11.5289 7.1505 10.9804 6.903C10.4185 6.65015 9.83251 6.46286 9.23316 6.32372C8.67529 6.19529 8.10805 6.10833 7.53947 6.04813C7.10467 6.00264 6.66854 5.97455 6.23107 5.96518C6.1896 5.96384 6.14812 5.96384 6.10665 5.96251C5.96216 5.95983 5.83908 6.08692 5.83908 6.23007C5.83908 6.74112 5.84176 7.25084 5.83908 7.76189C5.83908 7.76724 5.83908 7.77393 5.83908 7.77928C5.83908 7.7833 5.83908 7.79266 5.83908 7.79667C5.84042 7.8542 5.85648 7.73647 5.84042 7.78998C5.83775 7.80069 5.83507 7.81005 5.8324 7.82075C5.82972 7.83012 5.82571 7.84082 5.82169 7.85019C5.83775 7.81273 5.84176 7.80202 5.8324 7.82075C5.82571 7.82878 5.81902 7.8435 5.81367 7.85286C5.7936 7.88898 5.82303 7.83681 5.82838 7.83413C5.815 7.83948 5.78557 7.87293 5.77621 7.88497C5.81233 7.83948 5.80965 7.85955 5.78156 7.87694C5.77487 7.88096 5.76015 7.88631 5.75614 7.89032C5.78156 7.86089 5.80965 7.87293 5.77219 7.88229C5.75614 7.88631 5.73875 7.89166 5.72269 7.89567C5.68122 7.90638 5.74544 7.89032 5.74945 7.89166C5.74142 7.88765 5.71467 7.89166 5.7053 7.893C5.67988 7.89434 5.67988 7.87694 5.73206 7.89835C5.71868 7.893 5.70129 7.893 5.68791 7.88898C5.68122 7.88765 5.66383 7.87828 5.65848 7.87962C5.69995 7.87694 5.70396 7.90504 5.67186 7.88363C5.66784 7.88096 5.63975 7.86089 5.63707 7.86223C5.53906 7.89835 5.67186 7.89166 5.66383 7.88363C5.65982 7.87828 5.65179 7.87427 5.64644 7.86892C5.54342 7.78062 5.43907 7.695 5.33606 7.60804C4.87317 7.22007 4.41028 6.8321 3.94739 6.44413C3.42162 6.00398 2.89586 5.5625 2.37009 5.12235C2.10921 4.90428 1.84432 4.69023 1.5888 4.46681L1.58746 4.46547C1.57408 4.45343 1.5607 4.44005 1.54732 4.42668C1.51655 4.39724 1.5607 4.43738 1.55669 4.43872C1.55267 4.44005 1.53796 4.40527 1.53394 4.40126C1.51254 4.37985 1.55 4.46012 1.53796 4.40928C1.53528 4.39724 1.53261 4.37851 1.52725 4.36781C1.52324 4.34774 1.52458 4.35711 1.52993 4.39724C1.52859 4.38654 1.52859 4.3745 1.52859 4.36246C1.52859 4.35711 1.52993 4.32768 1.52993 4.32768C1.52859 4.33972 1.52592 4.3531 1.52458 4.36514C1.52725 4.35443 1.52859 4.34239 1.53261 4.33169C1.53394 4.32768 1.54331 4.29824 1.54331 4.29824C1.55535 4.3036 1.50986 4.3531 1.54197 4.30761C1.55936 4.28219 1.5714 4.28487 1.53528 4.31029C1.54331 4.30493 1.55267 4.29022 1.55936 4.28353C1.56873 4.27416 1.57809 4.26614 1.58746 4.25811C1.60886 4.23938 1.63161 4.22199 1.65301 4.20326C1.78679 4.09088 1.92058 3.9785 2.0557 3.86612C2.54668 3.45407 3.03767 3.04336 3.52865 2.63131C4.03836 2.2032 4.54942 1.77643 5.05913 1.34833C5.21699 1.21588 5.37486 1.08344 5.53272 0.950991C5.57018 0.918883 5.60764 0.888113 5.6451 0.856005C5.65045 0.850654 5.65714 0.84664 5.66249 0.841289C5.65848 0.84664 5.61165 0.873397 5.64911 0.853329C5.65982 0.847978 5.67453 0.841289 5.6839 0.833262C5.70798 0.811857 5.62102 0.851991 5.67052 0.838613C5.68256 0.835937 5.69594 0.831924 5.70664 0.82791C5.74276 0.817208 5.72938 0.842627 5.68791 0.829248C5.6946 0.830586 5.71065 0.82791 5.71734 0.82791C5.78959 0.82791 5.67587 0.814532 5.72002 0.825235C5.74142 0.830586 5.76283 0.838613 5.7829 0.843964C5.815 0.851991 5.72269 0.810519 5.7655 0.838613C5.77353 0.843964 5.7829 0.849316 5.79092 0.853329C5.83775 0.87741 5.74677 0.809181 5.78423 0.84664C5.79092 0.853329 5.79895 0.860018 5.80564 0.866708C5.83507 0.89614 5.81233 0.898815 5.80163 0.857343C5.8043 0.869383 5.81902 0.885437 5.82571 0.894802C5.8538 0.937613 5.815 0.84664 5.82035 0.880086C5.82303 0.892126 5.82838 0.905505 5.8324 0.917545C5.83373 0.921558 5.83507 0.944302 5.83908 0.948315C5.83775 0.934937 5.83507 0.922896 5.83373 0.909518C5.83507 0.920221 5.83507 0.932261 5.83507 0.942964C5.83507 0.948315 5.83507 0.952329 5.83507 0.95768C5.83507 1.06069 5.83507 1.16371 5.83507 1.26672C5.83507 1.60118 5.83507 1.93563 5.83507 2.27009C5.83507 2.33832 5.83507 2.40655 5.83507 2.47612C5.83507 2.62328 5.95815 2.74101 6.10264 2.74368C6.31134 2.74904 6.52138 2.75974 6.72874 2.77847C6.85316 2.78917 6.97758 2.80255 7.10066 2.81727C7.13143 2.82128 7.1622 2.82529 7.19163 2.82931C7.08461 2.81593 7.19431 2.82931 7.23177 2.83466C7.3 2.84402 7.36823 2.85472 7.43779 2.86677C8.05319 2.96844 8.65923 3.12898 9.23851 3.36042C9.2733 3.3738 9.30808 3.38852 9.34286 3.40324C9.38701 3.42063 9.27731 3.37514 9.32012 3.39387C9.33082 3.39788 9.34153 3.40324 9.35089 3.40725C9.3723 3.41661 9.39236 3.42598 9.41377 3.43401C9.49003 3.46745 9.56628 3.50357 9.64254 3.53969C9.8004 3.61595 9.95425 3.69756 10.1054 3.78585C10.2606 3.87549 10.4105 3.97315 10.5576 4.07616C10.5937 4.10158 10.6299 4.12834 10.666 4.15376C10.682 4.1658 10.6981 4.17784 10.7141 4.18988C10.7235 4.19657 10.7342 4.2046 10.7436 4.21262C10.781 4.24072 10.7436 4.21396 10.7275 4.20058C10.7984 4.26212 10.8747 4.31831 10.9469 4.37985C11.0887 4.5016 11.2239 4.63003 11.3523 4.76381C11.4192 4.83338 11.4834 4.90428 11.5463 4.97786C11.6078 5.05011 11.6627 5.13439 11.7282 5.20128C11.664 5.13706 11.7269 5.19994 11.7429 5.22135C11.7563 5.23874 11.7697 5.25747 11.7831 5.27486C11.8152 5.31767 11.8459 5.36182 11.8767 5.40597C11.9329 5.48891 11.9878 5.5732 12.0399 5.65748C12.151 5.83943 12.2513 6.02672 12.3423 6.21937C12.365 6.26753 12.3878 6.31703 12.4092 6.36653C12.4185 6.38927 12.4279 6.41202 12.4386 6.43476C12.4011 6.35182 12.4426 6.44546 12.452 6.46687C12.4961 6.57523 12.5363 6.68494 12.5751 6.79598C12.6513 7.01939 12.7155 7.24549 12.7704 7.47559C12.7998 7.60269 12.8266 7.72978 12.8493 7.85688C12.8614 7.91975 12.8721 7.98263 12.8814 8.04685C12.8854 8.07628 12.8908 8.10571 12.8948 8.13381C12.8975 8.1512 12.9002 8.16859 12.9028 8.18732C12.9042 8.19267 12.9042 8.19936 12.9055 8.20471C12.9095 8.23414 12.9082 8.22879 12.9028 8.18732C12.9162 8.19936 12.9135 8.27696 12.9162 8.29568C12.9202 8.32646 12.9229 8.35589 12.9269 8.38666C12.9349 8.46024 12.9416 8.53516 12.9483 8.60874C12.9604 8.74921 12.9684 8.88968 12.9751 9.03015C12.9818 9.17731 12.9844 9.32314 12.9844 9.4703C12.9844 9.61077 13.1075 9.74456 13.252 9.73787C13.3965 9.73118 13.5196 9.62014 13.5196 9.4703C13.5182 8.40004 13.3711 7.3097 12.9644 6.31302C12.6393 5.51701 12.1657 4.78923 11.5409 4.19657C11.0004 3.68418 10.3663 3.2748 9.68669 2.97513C9.08065 2.70756 8.44518 2.51358 7.79366 2.3905C7.28528 2.29685 6.76486 2.23665 6.24311 2.21792C6.19762 2.21658 6.15214 2.21524 6.10665 2.2139C6.19629 2.30354 6.28458 2.39183 6.37422 2.48147C6.37422 1.97176 6.38358 1.4607 6.37422 0.949653C6.36887 0.658006 6.17889 0.398467 5.89394 0.319535C5.66918 0.257994 5.45513 0.326224 5.28121 0.470709C5.18622 0.548304 5.09391 0.627236 5.00026 0.706168C4.53069 1.09949 4.06111 1.49281 3.59153 1.88613C3.05238 2.33832 2.51324 2.79051 1.97409 3.2427C1.78813 3.39788 1.60217 3.55441 1.41621 3.7096C1.33594 3.77649 1.2423 3.84071 1.17139 3.91964C0.935934 4.18453 0.937271 4.60595 1.21153 4.84542C1.23026 4.86281 1.25032 4.87886 1.27039 4.89492C1.40685 5.00863 1.54331 5.12369 1.67977 5.2374C2.18814 5.66283 2.69518 6.0896 3.20356 6.51503C3.71862 6.94715 4.23369 7.37927 4.74875 7.81139C4.89859 7.93715 5.04976 8.0629 5.1996 8.18866C5.2277 8.21274 5.25579 8.23548 5.28388 8.25956C5.46984 8.41341 5.71734 8.48164 5.94879 8.38799C6.20833 8.28364 6.3702 8.0522 6.37422 7.77125C6.37556 7.67226 6.37422 7.57459 6.37422 7.47559C6.37422 7.13311 6.37422 6.79062 6.37422 6.44814C6.37422 6.3759 6.37422 6.30365 6.37422 6.23007C6.28458 6.31971 6.19629 6.408 6.10665 6.49764C6.51469 6.50299 6.92139 6.52573 7.32809 6.56185C7.45117 6.57256 7.57291 6.58594 7.69599 6.59931C7.76021 6.60734 7.82576 6.61537 7.88998 6.6234C7.90603 6.62607 7.92209 6.62741 7.93814 6.63008C7.98363 6.63544 7.87125 6.62072 7.92878 6.62875C7.96356 6.6341 7.99701 6.63811 8.03179 6.64346C8.30605 6.68226 8.57896 6.73042 8.85054 6.78661C9.42313 6.90568 9.9877 7.06622 10.5295 7.28696C10.5456 7.29365 10.563 7.30034 10.579 7.30703C10.5362 7.2883 10.6339 7.32977 10.579 7.30703C10.6138 7.32174 10.6486 7.3378 10.6834 7.35251C10.7503 7.38195 10.8172 7.41272 10.884 7.44482C11.0138 7.5077 11.1409 7.57459 11.2653 7.6455C11.3911 7.71774 11.5142 7.794 11.6332 7.87561C11.6921 7.91574 11.751 7.95721 11.8085 8.00136C11.8219 8.01206 11.8366 8.02277 11.85 8.03213C11.8727 8.04952 11.8232 8.01073 11.8245 8.0134C11.8326 8.02009 11.8406 8.02544 11.8473 8.03213C11.8767 8.05487 11.9048 8.07762 11.9329 8.1017C12.1496 8.28097 12.349 8.48164 12.5242 8.70238C12.5309 8.71041 12.5363 8.71844 12.543 8.72513C12.5456 8.7278 12.5068 8.67697 12.5229 8.69971C12.5336 8.71309 12.543 8.72647 12.5537 8.74118C12.5751 8.77061 12.5965 8.80005 12.6179 8.83082C12.658 8.88968 12.6981 8.94988 12.7343 9.01009C12.8078 9.13183 12.8747 9.25892 12.9336 9.38869C12.9403 9.40475 12.9483 9.4208 12.955 9.43685C12.9323 9.382 12.9737 9.47966 12.955 9.43685C12.9697 9.47298 12.9831 9.5091 12.9965 9.54522C13.0446 9.67633 13.1798 9.77934 13.3256 9.73252C13.454 9.69104 13.5651 9.54388 13.5129 9.40341Z" fill="#32264C" fill-opacity="0.6"/>
<path d="M5.8324 7.82075C5.83507 7.81005 5.83775 7.80069 5.84042 7.78998C5.85648 7.73647 5.84042 7.8542 5.83908 7.79667C5.83908 7.79266 5.83908 7.7833 5.83908 7.77928C5.83908 7.77393 5.83908 7.76724 5.83908 7.76189C5.84176 7.25084 5.83908 6.74112 5.83908 6.23007C5.83908 6.08692 5.96217 5.95983 6.10665 5.96251C6.14812 5.96384 6.1896 5.96384 6.23107 5.96518C6.66854 5.97455 7.10467 6.00264 7.53947 6.04813C8.10805 6.10833 8.67529 6.19529 9.23316 6.32372C9.83251 6.46286 10.4185 6.65015 10.9804 6.903C11.5289 7.1505 12.048 7.47024 12.4894 7.87828C12.9456 8.30104 13.2962 8.82011 13.5129 9.40341C13.5651 9.54388 13.454 9.69104 13.3256 9.73252C13.1798 9.77934 13.0446 9.67633 12.9965 9.54522C12.9831 9.5091 12.9697 9.47298 12.955 9.43685M5.8324 7.82075C5.82972 7.83012 5.82571 7.84082 5.82169 7.85019C5.83775 7.81273 5.84176 7.80202 5.8324 7.82075ZM5.8324 7.82075C5.82571 7.82878 5.81902 7.8435 5.81367 7.85286C5.7936 7.88898 5.82303 7.83681 5.82838 7.83413C5.815 7.83948 5.78557 7.87293 5.77621 7.88497C5.81233 7.83948 5.80965 7.85955 5.78156 7.87694C5.77487 7.88096 5.76015 7.88631 5.75614 7.89032C5.78156 7.86089 5.80965 7.87293 5.77219 7.88229C5.75614 7.88631 5.73875 7.89166 5.72269 7.89567C5.68122 7.90638 5.74544 7.89032 5.74945 7.89166C5.74142 7.88765 5.71467 7.89166 5.7053 7.893C5.67988 7.89434 5.67988 7.87694 5.73206 7.89835C5.71868 7.893 5.70129 7.893 5.68791 7.88898C5.68122 7.88765 5.66383 7.87828 5.65848 7.87962C5.69995 7.87694 5.70396 7.90504 5.67186 7.88363C5.66784 7.88096 5.63975 7.86089 5.63707 7.86223C5.53906 7.89835 5.67186 7.89166 5.66383 7.88363C5.65982 7.87828 5.65179 7.87427 5.64644 7.86892C5.54342 7.78062 5.43907 7.695 5.33606 7.60804C4.87317 7.22007 4.41028 6.8321 3.94739 6.44413C3.42162 6.00398 2.89586 5.5625 2.37009 5.12235C2.10921 4.90428 1.84432 4.69023 1.5888 4.46681L1.58746 4.46547C1.57408 4.45343 1.5607 4.44005 1.54732 4.42668C1.51655 4.39724 1.5607 4.43738 1.55669 4.43872C1.55267 4.44005 1.53796 4.40527 1.53394 4.40126C1.51254 4.37985 1.55 4.46012 1.53796 4.40928C1.53528 4.39724 1.53261 4.37851 1.52725 4.36781C1.52324 4.34774 1.52458 4.35711 1.52993 4.39724C1.52859 4.38654 1.52859 4.3745 1.52859 4.36246C1.52859 4.35711 1.52993 4.32768 1.52993 4.32768C1.52859 4.33972 1.52592 4.3531 1.52458 4.36514C1.52725 4.35443 1.52859 4.34239 1.53261 4.33169C1.53394 4.32768 1.54331 4.29824 1.54331 4.29824C1.55535 4.3036 1.50986 4.3531 1.54197 4.30761C1.55936 4.28219 1.5714 4.28487 1.53528 4.31029C1.54331 4.30493 1.55267 4.29022 1.55936 4.28353C1.56873 4.27416 1.57809 4.26614 1.58746 4.25811C1.60886 4.23938 1.63161 4.22199 1.65301 4.20326C1.78679 4.09088 1.92058 3.9785 2.0557 3.86612C2.54668 3.45407 3.03767 3.04336 3.52865 2.63131C4.03836 2.2032 4.54942 1.77643 5.05913 1.34833C5.21699 1.21588 5.37486 1.08344 5.53272 0.950991C5.57018 0.918883 5.60764 0.888113 5.6451 0.856005C5.65045 0.850654 5.65714 0.84664 5.66249 0.841289C5.65848 0.84664 5.61165 0.873397 5.64911 0.853329C5.65982 0.847978 5.67453 0.841289 5.6839 0.833262C5.70798 0.811856 5.62102 0.851991 5.67052 0.838613C5.68256 0.835937 5.69594 0.831924 5.70664 0.82791C5.74276 0.817208 5.72938 0.842627 5.68791 0.829248C5.6946 0.830586 5.71065 0.82791 5.71734 0.82791C5.78959 0.82791 5.67587 0.814532 5.72002 0.825235C5.74142 0.830586 5.76283 0.838613 5.7829 0.843964C5.815 0.851991 5.72269 0.810519 5.7655 0.838613C5.77353 0.843964 5.7829 0.849316 5.79092 0.853329C5.83775 0.87741 5.74677 0.809181 5.78423 0.84664C5.79092 0.853329 5.79895 0.860018 5.80564 0.866708C5.83507 0.89614 5.81233 0.898815 5.80163 0.857343C5.8043 0.869383 5.81902 0.885437 5.82571 0.894802C5.8538 0.937613 5.815 0.84664 5.82035 0.880086C5.82303 0.892126 5.82838 0.905505 5.8324 0.917545C5.83373 0.921559 5.83507 0.944302 5.83908 0.948315C5.83775 0.934937 5.83507 0.922896 5.83373 0.909518C5.83507 0.920221 5.83507 0.932261 5.83507 0.942964C5.83507 0.948315 5.83507 0.952329 5.83507 0.95768C5.83507 1.06069 5.83507 1.16371 5.83507 1.26672C5.83507 1.60118 5.83507 1.93563 5.83507 2.27009C5.83507 2.33832 5.83507 2.40655 5.83507 2.47612C5.83507 2.62328 5.95815 2.74101 6.10264 2.74368C6.31134 2.74904 6.52138 2.75974 6.72874 2.77847C6.85316 2.78917 6.97758 2.80255 7.10066 2.81727C7.13143 2.82128 7.1622 2.82529 7.19163 2.82931C7.08461 2.81593 7.19431 2.82931 7.23177 2.83466C7.3 2.84402 7.36823 2.85472 7.43779 2.86677C8.0532 2.96844 8.65923 3.12898 9.23851 3.36042C9.2733 3.3738 9.30808 3.38852 9.34286 3.40324C9.38701 3.42063 9.27731 3.37514 9.32012 3.39387C9.33082 3.39788 9.34153 3.40324 9.35089 3.40725C9.3723 3.41661 9.39236 3.42598 9.41377 3.43401C9.49003 3.46745 9.56628 3.50357 9.64254 3.53969C9.8004 3.61595 9.95425 3.69756 10.1054 3.78585C10.2606 3.87549 10.4105 3.97315 10.5576 4.07616C10.5937 4.10158 10.6299 4.12834 10.666 4.15376C10.682 4.1658 10.6981 4.17784 10.7141 4.18988C10.7235 4.19657 10.7342 4.2046 10.7436 4.21262C10.781 4.24072 10.7436 4.21396 10.7275 4.20058C10.7984 4.26212 10.8747 4.31831 10.9469 4.37985C11.0887 4.50159 11.2239 4.63003 11.3523 4.76381C11.4192 4.83338 11.4834 4.90428 11.5463 4.97786C11.6078 5.05011 11.6627 5.13439 11.7282 5.20128C11.664 5.13706 11.7269 5.19994 11.7429 5.22135C11.7563 5.23874 11.7697 5.25747 11.7831 5.27486C11.8152 5.31767 11.8459 5.36182 11.8767 5.40597C11.9329 5.48891 11.9878 5.5732 12.0399 5.65748C12.151 5.83943 12.2513 6.02672 12.3423 6.21937C12.365 6.26753 12.3878 6.31703 12.4092 6.36653C12.4185 6.38927 12.4279 6.41202 12.4386 6.43476C12.4011 6.35182 12.4426 6.44546 12.452 6.46687C12.4961 6.57523 12.5363 6.68494 12.5751 6.79598C12.6513 7.01939 12.7155 7.24549 12.7704 7.47559C12.7998 7.60269 12.8266 7.72978 12.8493 7.85688C12.8614 7.91975 12.8721 7.98263 12.8814 8.04685C12.8854 8.07628 12.8908 8.10571 12.8948 8.13381C12.8975 8.1512 12.9002 8.16859 12.9028 8.18732M12.9028 8.18732C12.9042 8.19267 12.9042 8.19936 12.9055 8.20471C12.9095 8.23414 12.9082 8.22879 12.9028 8.18732ZM12.9028 8.18732C12.9162 8.19936 12.9135 8.27696 12.9162 8.29568C12.9202 8.32645 12.9229 8.35589 12.9269 8.38666C12.9349 8.46024 12.9416 8.53516 12.9483 8.60874C12.9604 8.74921 12.9684 8.88968 12.9751 9.03015C12.9818 9.17731 12.9844 9.32314 12.9844 9.4703C12.9844 9.61077 13.1075 9.74456 13.252 9.73787C13.3965 9.73118 13.5196 9.62014 13.5196 9.4703C13.5182 8.40004 13.3711 7.3097 12.9644 6.31302C12.6393 5.51701 12.1657 4.78923 11.5409 4.19657C11.0004 3.68418 10.3663 3.2748 9.68669 2.97513C9.08065 2.70756 8.44518 2.51358 7.79366 2.3905C7.28528 2.29685 6.76486 2.23665 6.24311 2.21792C6.19762 2.21658 6.15214 2.21524 6.10665 2.2139C6.19629 2.30354 6.28458 2.39183 6.37422 2.48147C6.37422 1.97176 6.38358 1.4607 6.37422 0.949653C6.36887 0.658006 6.17889 0.398467 5.89394 0.319535C5.66918 0.257994 5.45513 0.326224 5.28121 0.470709C5.18622 0.548304 5.09391 0.627236 5.00026 0.706168C4.53069 1.09949 4.06111 1.49281 3.59153 1.88613C3.05238 2.33832 2.51324 2.79051 1.97409 3.2427C1.78813 3.39788 1.60217 3.55441 1.41621 3.7096C1.33594 3.77649 1.2423 3.84071 1.17139 3.91964C0.935934 4.18453 0.937271 4.60595 1.21153 4.84542C1.23026 4.86281 1.25032 4.87886 1.27039 4.89492C1.40685 5.00863 1.54331 5.12369 1.67977 5.2374C2.18814 5.66283 2.69518 6.0896 3.20356 6.51503C3.71862 6.94715 4.23369 7.37927 4.74875 7.81139C4.89859 7.93715 5.04976 8.0629 5.1996 8.18866C5.2277 8.21274 5.25579 8.23548 5.28388 8.25956C5.46984 8.41341 5.71734 8.48164 5.94879 8.38799C6.20833 8.28364 6.3702 8.0522 6.37422 7.77125C6.37555 7.67226 6.37422 7.57459 6.37422 7.47559C6.37422 7.13311 6.37422 6.79062 6.37422 6.44814C6.37422 6.3759 6.37422 6.30365 6.37422 6.23007C6.28458 6.31971 6.19629 6.408 6.10665 6.49764C6.51469 6.50299 6.92139 6.52573 7.32809 6.56185C7.45117 6.57256 7.57291 6.58594 7.69599 6.59931C7.76021 6.60734 7.82576 6.61537 7.88998 6.6234C7.90603 6.62607 7.92209 6.62741 7.93814 6.63008C7.98363 6.63544 7.87125 6.62072 7.92878 6.62875C7.96356 6.6341 7.99701 6.63811 8.03179 6.64346C8.30605 6.68226 8.57896 6.73042 8.85054 6.78661C9.42314 6.90568 9.9877 7.06622 10.5295 7.28696C10.5456 7.29365 10.563 7.30034 10.579 7.30703M10.579 7.30703C10.6339 7.32977 10.5362 7.2883 10.579 7.30703ZM10.579 7.30703C10.6138 7.32174 10.6486 7.3378 10.6834 7.35251C10.7503 7.38195 10.8172 7.41272 10.884 7.44482C11.0138 7.5077 11.1409 7.57459 11.2653 7.6455C11.3911 7.71774 11.5142 7.794 11.6332 7.87561C11.6921 7.91574 11.751 7.95721 11.8085 8.00136C11.8219 8.01206 11.8366 8.02277 11.85 8.03213C11.8727 8.04952 11.8232 8.01073 11.8245 8.0134C11.8326 8.02009 11.8406 8.02544 11.8473 8.03213C11.8767 8.05487 11.9048 8.07762 11.9329 8.1017C12.1496 8.28097 12.349 8.48164 12.5242 8.70238C12.5309 8.71041 12.5363 8.71844 12.543 8.72513C12.5456 8.7278 12.5068 8.67697 12.5229 8.69971C12.5336 8.71309 12.543 8.72647 12.5537 8.74118C12.5751 8.77061 12.5965 8.80005 12.6179 8.83082C12.658 8.88968 12.6981 8.94988 12.7343 9.01009C12.8078 9.13183 12.8747 9.25892 12.9336 9.38869C12.9403 9.40475 12.9483 9.4208 12.955 9.43685M12.955 9.43685C12.9737 9.47966 12.9323 9.382 12.955 9.43685Z" stroke="#32264C" stroke-opacity="0.6" stroke-width="0.3"/>
</svg>
