<svg width="297" height="229" viewBox="0 0 297 229" fill="none" xmlns="http://www.w3.org/2000/svg">
<circle cx="12" cy="20" r="12" fill="#F0ECE4"/>
<path fill-rule="evenodd" clip-rule="evenodd" d="M8.61402 15.1577C7.9958 15.1577 7.49494 15.6592 7.49494 16.2774C7.49494 16.8959 7.9958 17.3971 8.61402 17.3971C9.23224 17.3971 9.7331 16.8959 9.7331 16.2774C9.7331 15.6592 9.23224 15.1577 8.61402 15.1577ZM15.0494 15.1577C14.4314 15.1577 13.9303 15.6592 13.9303 16.2774C13.9303 16.8959 14.4314 17.3971 15.0494 17.3971C15.6676 17.3971 16.1684 16.8959 16.1684 16.2774C16.1684 15.6592 15.6676 15.1577 15.0494 15.1577ZM7.20542 20.8927C6.94702 20.8927 6.7373 21.1021 6.7373 21.3608C6.7373 23.5123 8.63437 25.263 10.9649 25.263H12.8447C15.1756 25.263 17.0724 23.5123 17.0724 21.3608C17.0724 21.1021 16.8626 20.8927 16.6042 20.8927H7.20542ZM7.71437 21.8289H16.0953C15.8453 23.2423 14.4828 24.3268 12.8447 24.3268H10.9649C9.32687 24.3268 7.96434 23.2423 7.71437 21.8289Z" fill="#32264C" fill-opacity="0.6"/>
<circle cx="12" cy="60" r="12" fill="#F0ECE4"/>
<path fill-rule="evenodd" clip-rule="evenodd" d="M8.36003 55.1577C7.6965 55.1577 7.1582 55.695 7.1582 56.3589C7.1582 57.0228 7.6965 57.5614 8.36003 57.5614C9.02356 57.5614 9.56185 57.0228 9.56185 56.3589C9.56185 55.695 9.02356 55.1577 8.36003 55.1577ZM15.2692 55.1577C14.6057 55.1577 14.0674 55.695 14.0674 56.3589C14.0674 57.0228 14.6057 57.5614 15.2692 57.5614C15.9331 57.5614 16.4704 57.0228 16.4704 56.3589C16.4704 55.695 15.9331 55.1577 15.2692 55.1577ZM7.74235 60.9799C7.46902 60.9799 7.24718 61.2014 7.24718 61.475C7.24718 63.5637 8.96686 65.263 11.0803 65.263H12.7489C14.8983 65.263 16.582 63.6193 16.582 61.5215C16.582 61.2478 16.3605 61.0263 16.0868 61.0263C15.8134 61.0263 15.5916 61.2478 15.5916 61.5215C15.5916 63.0641 14.343 64.2726 12.7489 64.2726H11.0803C9.48613 64.2726 8.23752 63.0434 8.23752 61.475C8.23752 61.2014 8.01569 60.9799 7.74235 60.9799Z" fill="#32264C" fill-opacity="0.6"/>
<circle cx="12" cy="100" r="12" fill="#F0ECE4"/>
<path fill-rule="evenodd" clip-rule="evenodd" d="M7.6437 95.1577C6.91029 95.1577 6.31543 95.7529 6.31543 96.4867C6.31543 97.2209 6.91029 97.8157 7.6437 97.8157C8.37785 97.8157 8.97269 97.2209 8.97269 96.4867C8.97269 95.7529 8.37785 95.1577 7.6437 95.1577ZM15.2827 95.1577C14.5493 95.1577 13.9537 95.7529 13.9537 96.4867C13.9537 97.2209 14.5493 97.8157 15.2827 97.8157C16.0165 97.8157 16.611 97.2209 16.611 96.4867C16.611 95.7529 16.0165 95.1577 15.2827 95.1577ZM9.99856 101.823C8.15687 101.794 6.74004 103.16 6.68078 103.218C6.4626 103.434 6.46052 103.783 6.67499 104.002C6.88946 104.221 7.24103 104.224 7.45994 104.01C7.47142 103.999 8.61808 102.892 9.98119 102.934C10.7231 102.953 11.4191 103.308 12.051 103.991C12.8329 104.836 13.6727 105.263 14.5491 105.263C14.631 105.263 14.7125 105.259 14.7951 105.251C16.4971 105.098 17.6158 103.367 17.6629 103.294C17.827 103.036 17.7514 102.694 17.4936 102.528C17.2354 102.363 16.8923 102.438 16.7267 102.696C16.7178 102.71 15.847 104.044 14.6909 104.145C14.0923 104.196 13.4742 103.892 12.8663 103.236C12.0203 102.322 11.055 101.846 9.99856 101.823Z" fill="#32264C" fill-opacity="0.6"/>
<circle cx="12" cy="140" r="12" fill="#F0ECE4"/>
<path fill-rule="evenodd" clip-rule="evenodd" d="M8.35075 135.158C7.69234 135.158 7.1582 135.691 7.1582 136.35C7.1582 137.008 7.69234 137.543 8.35075 137.543C9.00915 137.543 9.54329 137.008 9.54329 136.35C9.54329 135.691 9.00915 135.158 8.35075 135.158ZM15.2066 135.158C14.5482 135.158 14.014 135.691 14.014 136.35C14.014 137.008 14.5482 137.543 15.2066 137.543C15.8653 137.543 16.3985 137.008 16.3985 136.35C16.3985 135.691 15.8653 135.158 15.2066 135.158ZM11.05 140.925C8.95289 140.925 7.24649 142.651 7.24649 144.772C7.24649 145.043 7.46662 145.263 7.73784 145.263C8.00906 145.263 8.22919 145.043 8.22919 144.772C8.22919 143.192 9.49468 141.908 11.05 141.908H12.7057C14.261 141.908 15.5265 143.183 15.5265 144.751C15.5265 145.022 15.7466 145.243 16.0178 145.243C16.2894 145.243 16.5092 145.022 16.5092 144.751C16.5092 142.641 14.8028 140.925 12.7057 140.925H11.05Z" fill="#32264C" fill-opacity="0.6"/>
<circle cx="12" cy="180" r="12" fill="#F0ECE4"/>
<path fill-rule="evenodd" clip-rule="evenodd" d="M6.83375 175.16C6.66675 175.174 6.5095 175.269 6.42157 175.426C6.28122 175.678 6.37248 175.997 6.62426 176.137L8.23968 177.037L6.64058 177.689C6.37383 177.798 6.24523 178.103 6.35423 178.37C6.43677 178.573 6.63235 178.695 6.83852 178.695C6.90399 178.695 6.97066 178.683 7.03509 178.657L9.6422 177.594C9.82851 177.518 9.95412 177.342 9.96596 177.141C9.97815 176.94 9.8745 176.751 9.69933 176.653L7.13235 175.224C7.03806 175.172 6.93396 175.151 6.83375 175.16ZM16.7058 175.16C16.6056 175.151 16.5021 175.172 16.4079 175.224L13.8409 176.653C13.6727 176.747 13.5698 176.926 13.5729 177.119C13.5757 177.311 13.6849 177.486 13.8559 177.574L16.4229 178.895C16.4995 178.935 16.5808 178.954 16.6616 178.954C16.8511 178.954 17.0339 178.85 17.1269 178.67C17.2588 178.413 17.1573 178.098 16.901 177.966L15.202 177.092L16.916 176.137C17.1681 175.997 17.2587 175.678 17.118 175.426C17.0301 175.268 16.8728 175.174 16.7058 175.16ZM9.06677 183.072C8.94963 183.073 8.83281 183.114 8.73757 183.193L7.36293 184.339C7.14144 184.524 7.11102 184.853 7.29559 185.075C7.39902 185.199 7.54818 185.263 7.69758 185.263C7.81529 185.263 7.93403 185.223 8.03154 185.142L9.07833 184.269L10.1775 185.149C10.375 185.306 10.6566 185.3 10.8468 185.134L11.8208 184.287L12.7955 185.134C12.9832 185.298 13.2602 185.306 13.4573 185.155L14.6 184.275L15.5366 185.127C15.7501 185.321 16.0803 185.306 16.2746 185.092C16.4686 184.878 16.4527 184.548 16.2392 184.354L14.9795 183.208C14.7922 183.038 14.5102 183.026 14.3096 183.18L13.1587 184.066L12.1643 183.201C11.9675 183.029 11.6751 183.029 11.4787 183.201L10.4897 184.06L9.39802 183.186C9.30155 183.109 9.18391 183.071 9.06677 183.072Z" fill="#32264C" fill-opacity="0.6"/>
<g opacity="0.6">
<line opacity="0.5" x1="37" y1="160.5" x2="297" y2="160.5" stroke="#32264C" stroke-opacity="0.2" stroke-dasharray="4 4"/>
<line opacity="0.5" x1="37" y1="120.5" x2="297" y2="120.5" stroke="#32264C" stroke-opacity="0.2" stroke-dasharray="4 4"/>
<line opacity="0.5" x1="37" y1="80.5" x2="297" y2="80.5" stroke="#32264C" stroke-opacity="0.2" stroke-dasharray="4 4"/>
<line opacity="0.5" x1="37" y1="40.5" x2="297" y2="40.5" stroke="#32264C" stroke-opacity="0.2" stroke-dasharray="4 4"/>
<line opacity="0.5" x1="37" y1="0.5" x2="297" y2="0.499977" stroke="#32264C" stroke-opacity="0.2" stroke-dasharray="4 4"/>
</g>
<line opacity="0.5" x1="36.5" y1="201" x2="36.5" y2="-2.18557e-08" stroke="#32264C" stroke-opacity="0.2"/>
<path opacity="0.5" d="M53.5573 224C53.268 224 53.044 223.921 52.8853 223.762C52.7267 223.594 52.6473 223.365 52.6473 223.076V214.998C52.6473 214.699 52.722 214.475 52.8713 214.326C53.03 214.167 53.254 214.088 53.5433 214.088C53.8327 214.088 54.052 214.167 54.2013 214.326C54.36 214.475 54.4393 214.699 54.4393 214.998V222.474H58.4993C58.7513 222.474 58.9427 222.539 59.0733 222.67C59.2133 222.801 59.2833 222.987 59.2833 223.23C59.2833 223.473 59.2133 223.664 59.0733 223.804C58.9427 223.935 58.7513 224 58.4993 224H53.5573Z" fill="#32264C" fill-opacity="0.8"/>
<path opacity="0.5" d="M88.3409 224.112C88.0795 224.112 87.8789 224.037 87.7389 223.888C87.5989 223.739 87.5289 223.533 87.5289 223.272V214.858C87.5289 214.587 87.6035 214.382 87.7529 214.242C87.9022 214.093 88.1075 214.018 88.3689 214.018C88.6022 214.018 88.7842 214.065 88.9149 214.158C89.0549 214.242 89.1809 214.391 89.2929 214.606L92.7509 221.004H92.3029L95.7609 214.606C95.8729 214.391 95.9942 214.242 96.1249 214.158C96.2555 214.065 96.4375 214.018 96.6709 214.018C96.9322 214.018 97.1329 214.093 97.2729 214.242C97.4129 214.382 97.4829 214.587 97.4829 214.858V223.272C97.4829 223.533 97.4129 223.739 97.2729 223.888C97.1422 224.037 96.9415 224.112 96.6709 224.112C96.4095 224.112 96.2089 224.037 96.0689 223.888C95.9289 223.739 95.8589 223.533 95.8589 223.272V216.79H96.1669L93.2269 222.152C93.1335 222.311 93.0355 222.427 92.9329 222.502C92.8302 222.577 92.6902 222.614 92.5129 222.614C92.3355 222.614 92.1909 222.577 92.0789 222.502C91.9669 222.418 91.8689 222.301 91.7849 222.152L88.8169 216.776H89.1529V223.272C89.1529 223.533 89.0829 223.739 88.9429 223.888C88.8122 224.037 88.6115 224.112 88.3409 224.112Z" fill="#32264C" fill-opacity="0.8"/>
<path opacity="0.5" d="M125.341 224.112C125.08 224.112 124.879 224.037 124.739 223.888C124.599 223.739 124.529 223.533 124.529 223.272V214.858C124.529 214.587 124.604 214.382 124.753 214.242C124.902 214.093 125.108 214.018 125.369 214.018C125.602 214.018 125.784 214.065 125.915 214.158C126.055 214.242 126.181 214.391 126.293 214.606L129.751 221.004H129.303L132.761 214.606C132.873 214.391 132.994 214.242 133.125 214.158C133.256 214.065 133.438 214.018 133.671 214.018C133.932 214.018 134.133 214.093 134.273 214.242C134.413 214.382 134.483 214.587 134.483 214.858V223.272C134.483 223.533 134.413 223.739 134.273 223.888C134.142 224.037 133.942 224.112 133.671 224.112C133.41 224.112 133.209 224.037 133.069 223.888C132.929 223.739 132.859 223.533 132.859 223.272V216.79H133.167L130.227 222.152C130.134 222.311 130.036 222.427 129.933 222.502C129.83 222.577 129.69 222.614 129.513 222.614C129.336 222.614 129.191 222.577 129.079 222.502C128.967 222.418 128.869 222.301 128.785 222.152L125.817 216.776H126.153V223.272C126.153 223.533 126.083 223.739 125.943 223.888C125.812 224.037 125.612 224.112 125.341 224.112Z" fill="#32264C" fill-opacity="0.8"/>
<path opacity="0.5" d="M164.669 224.098C164.408 224.107 164.203 224.037 164.053 223.888C163.904 223.739 163.829 223.547 163.829 223.314C163.829 223.137 163.885 222.983 163.997 222.852C164.1 222.712 164.254 222.637 164.459 222.628L164.879 222.6C165.29 222.572 165.598 222.446 165.803 222.222C166.018 221.989 166.125 221.657 166.125 221.228V214.928C166.125 214.629 166.2 214.405 166.349 214.256C166.508 214.097 166.732 214.018 167.021 214.018C167.311 214.018 167.53 214.097 167.679 214.256C167.838 214.405 167.917 214.629 167.917 214.928V221.214C167.917 221.802 167.81 222.301 167.595 222.712C167.39 223.123 167.082 223.445 166.671 223.678C166.261 223.902 165.752 224.033 165.145 224.07L164.669 224.098Z" fill="#32264C" fill-opacity="0.8"/>
<path opacity="0.5" d="M203.508 224.112C203.256 224.112 203.046 224.056 202.878 223.944C202.719 223.823 202.588 223.645 202.486 223.412L198.832 215.208C198.729 214.975 198.701 214.769 198.748 214.592C198.794 214.415 198.892 214.275 199.042 214.172C199.191 214.069 199.368 214.018 199.574 214.018C199.844 214.018 200.045 214.079 200.176 214.2C200.316 214.312 200.432 214.485 200.526 214.718L203.844 222.404H203.242L206.546 214.704C206.648 214.48 206.77 214.312 206.91 214.2C207.05 214.079 207.246 214.018 207.498 214.018C207.703 214.018 207.871 214.069 208.002 214.172C208.142 214.275 208.23 214.415 208.268 214.592C208.305 214.769 208.272 214.975 208.17 215.208L204.516 223.412C204.413 223.645 204.282 223.823 204.124 223.944C203.974 224.056 203.769 224.112 203.508 224.112Z" fill="#32264C" fill-opacity="0.8"/>
<path opacity="0.5" d="M240.564 224.14C240.153 224.14 239.743 224.107 239.332 224.042C238.921 223.986 238.534 223.897 238.17 223.776C237.806 223.645 237.479 223.487 237.19 223.3C237.022 223.188 236.905 223.053 236.84 222.894C236.775 222.735 236.751 222.581 236.77 222.432C236.798 222.273 236.859 222.138 236.952 222.026C237.055 221.905 237.181 221.83 237.33 221.802C237.479 221.774 237.643 221.816 237.82 221.928C238.231 222.171 238.665 222.348 239.122 222.46C239.579 222.572 240.06 222.628 240.564 222.628C241.301 222.628 241.838 222.507 242.174 222.264C242.51 222.012 242.678 221.69 242.678 221.298C242.678 220.971 242.557 220.715 242.314 220.528C242.081 220.341 241.675 220.187 241.096 220.066L239.556 219.744C238.669 219.557 238.007 219.245 237.568 218.806C237.139 218.358 236.924 217.77 236.924 217.042C236.924 216.585 237.017 216.169 237.204 215.796C237.391 215.423 237.652 215.101 237.988 214.83C238.333 214.559 238.739 214.354 239.206 214.214C239.682 214.065 240.205 213.99 240.774 213.99C241.334 213.99 241.866 214.06 242.37 214.2C242.874 214.34 243.327 214.545 243.728 214.816C243.877 214.919 243.975 215.045 244.022 215.194C244.078 215.343 244.092 215.493 244.064 215.642C244.036 215.782 243.971 215.903 243.868 216.006C243.765 216.109 243.635 216.169 243.476 216.188C243.327 216.207 243.154 216.16 242.958 216.048C242.613 215.852 242.263 215.712 241.908 215.628C241.553 215.544 241.171 215.502 240.76 215.502C240.331 215.502 239.962 215.563 239.654 215.684C239.346 215.805 239.108 215.978 238.94 216.202C238.781 216.417 238.702 216.673 238.702 216.972C238.702 217.308 238.814 217.579 239.038 217.784C239.262 217.98 239.645 218.134 240.186 218.246L241.712 218.568C242.636 218.764 243.322 219.072 243.77 219.492C244.227 219.912 244.456 220.472 244.456 221.172C244.456 221.62 244.363 222.026 244.176 222.39C243.999 222.754 243.737 223.067 243.392 223.328C243.056 223.589 242.65 223.79 242.174 223.93C241.698 224.07 241.161 224.14 240.564 224.14Z" fill="#32264C" fill-opacity="0.8"/>
<path opacity="0.5" d="M274.198 224C273.89 224 273.652 223.921 273.484 223.762C273.325 223.594 273.246 223.356 273.246 223.048V215.082C273.246 214.774 273.325 214.541 273.484 214.382C273.652 214.214 273.89 214.13 274.198 214.13H276.914C278.566 214.13 279.84 214.555 280.736 215.404C281.641 216.253 282.094 217.471 282.094 219.058C282.094 219.851 281.977 220.556 281.744 221.172C281.52 221.779 281.184 222.292 280.736 222.712C280.297 223.132 279.756 223.454 279.112 223.678C278.477 223.893 277.745 224 276.914 224H274.198ZM275.038 222.516H276.802C277.381 222.516 277.88 222.446 278.3 222.306C278.729 222.157 279.084 221.942 279.364 221.662C279.653 221.373 279.868 221.013 280.008 220.584C280.148 220.145 280.218 219.637 280.218 219.058C280.218 217.901 279.933 217.037 279.364 216.468C278.795 215.899 277.941 215.614 276.802 215.614H275.038V222.516Z" fill="#32264C" fill-opacity="0.8"/>
<path opacity="0.4" d="M92 59C68.8536 59 52.0336 179.676 52.4956 202H295.996V14C270.975 14 257.074 39.8039 245.954 65.6078C229.418 103.979 217.698 138.5 205.497 138.5C185.404 138.5 187.35 59 163.997 59C145.093 59 143.398 92.7073 129.497 98.5C111.705 98.5 110.018 59 92 59Z" fill="url(#paint0_linear_239_998)"/>
<path d="M51.9973 201C51.5353 178.795 68.8536 59 92 59C110.018 59 111.707 99 129.5 99C143.4 93.2381 146.095 59 165 59C188.353 59 185.406 139 205.5 139C217.701 139 228.419 103.5 244.956 65.3333C256.076 39.6667 270.976 13.5 295.997 13.5" stroke="#FFA191" stroke-width="2"/>
<circle cx="52.5" cy="183.5" r="3.5" fill="#FFA191"/>
<circle cx="92.5" cy="59.5" r="3.5" fill="#FFA191"/>
<circle cx="129.5" cy="98.5" r="3.5" fill="#FFA191"/>
<circle cx="164.5" cy="59.5" r="3.5" fill="#FFA191"/>
<circle cx="205.5" cy="138.5" r="3.5" fill="#FFA191"/>
<circle cx="231.5" cy="98.5" r="3.5" fill="#FFA191"/>
<circle cx="277.5" cy="19.5" r="3.5" fill="#FFA191"/>
<line opacity="0.5" x1="37" y1="200.5" x2="297" y2="200.5" stroke="#32264C" stroke-opacity="0.2"/>
<defs>
<linearGradient id="paint0_linear_239_998" x1="174" y1="174" x2="173.711" y2="68.5008" gradientUnits="userSpaceOnUse">
<stop stop-color="#FFECE9"/>
<stop offset="1" stop-color="#FFA191"/>
</linearGradient>
</defs>
</svg>
