<svg width="490" height="506" viewBox="0 0 490 506" fill="none" xmlns="http://www.w3.org/2000/svg">
<path d="M245 506C98 506 0 380.005 0 261.01C0 142.014 98 16.0193 245 16.0193C322 16.0193 385 52.7679 425.25 96.5161L437.5 14.2694C439.25 5.51974 448 -1.47998 456.75 0.269946C465.5 2.01988 472.5 10.7695 470.75 19.5192L453.25 142.014C453.25 143.764 453.25 143.764 451.5 145.514C449.75 149.014 448 150.764 446.25 152.514L444.5 154.264C442.75 156.014 441 156.014 439.25 156.014L316.75 173.513C308 175.263 297.5 168.263 297.5 159.514C295.75 150.764 302.75 140.264 311.5 140.264L404.25 126.265C371 87.7665 315 51.0179 245 51.0179C119 51.0179 35 159.514 35 261.01C35 362.506 119 471.001 245 471.001C371 471.001 455 362.506 455 261.01C455 250.51 462 243.51 472.5 243.51C483 243.51 490 250.51 490 261.01C490 380.005 392 506 245 506Z" fill="#32264C"/>
<path d="M221.778 344.2C229.778 344.2 233.778 347.6 233.778 354.4C233.778 361.467 229.778 365 221.778 365H154.178C146.045 365 141.978 361.467 141.978 354.4C141.978 347.6 146.045 344.2 154.178 344.2H174.978V253L155.778 264.8C153.911 265.867 152.245 266.4 150.778 266.4C147.978 266.4 145.578 265.2 143.578 262.8C141.711 260.4 140.778 257.733 140.778 254.8C140.778 250.933 142.511 247.933 145.978 245.8L176.978 226.6C180.978 224.2 184.778 223 188.378 223C192.111 223 195.111 224.133 197.378 226.4C199.645 228.667 200.778 231.8 200.778 235.8V344.2H221.778ZM308.9 274.8C317.7 274.8 325.433 276.733 332.1 280.6C338.9 284.333 344.167 289.6 347.9 296.4C351.633 303.2 353.5 311 353.5 319.8C353.5 329 351.367 337.133 347.1 344.2C342.967 351.267 337.033 356.8 329.3 360.8C321.7 364.667 312.9 366.6 302.9 366.6C294.633 366.6 286.5 365.267 278.5 362.6C270.633 359.8 263.9 356.067 258.3 351.4C255.233 348.733 253.7 345.6 253.7 342C253.7 339.067 254.5 336.6 256.1 334.6C257.833 332.467 259.833 331.4 262.1 331.4C263.433 331.4 264.7 331.667 265.9 332.2C267.1 332.6 268.5 333.333 270.1 334.4C275.433 338.133 280.633 341 285.7 343C290.767 345 296.167 346 301.9 346C310.7 346 317.433 343.8 322.1 339.4C326.767 335 329.1 328.733 329.1 320.6C329.1 312.733 326.7 306.533 321.9 302C317.233 297.333 310.767 295 302.5 295C297.3 295 292.633 295.733 288.5 297.2C284.5 298.667 280.367 301.133 276.1 304.6C273.567 306.333 270.967 307.2 268.3 307.2C265.633 307.2 263.367 306.4 261.5 304.8C259.633 303.2 258.7 301.067 258.7 298.4V236C258.7 232.267 259.767 229.333 261.9 227.2C264.033 225.067 267.033 224 270.9 224H337.5C345.5 224 349.5 227.333 349.5 234C349.5 240.667 345.5 244 337.5 244H283.9V282C290.7 277.2 299.033 274.8 308.9 274.8Z" fill="#32264C"/>
</svg>
