<svg width="490" height="506" viewBox="0 0 490 506" fill="none" xmlns="http://www.w3.org/2000/svg">
<path d="M245 506C392 506 490 380.005 490 261.01C490 142.014 392 16.0193 245 16.0193C168 16.0193 105 52.7679 64.75 96.5161L52.5 14.2694C50.75 5.51974 42 -1.47998 33.25 0.269946C24.5 2.01988 17.5 10.7695 19.25 19.5192L36.75 142.014C36.75 143.764 36.75 143.764 38.5 145.514C40.25 149.014 42 150.764 43.75 152.514L45.5 154.264C47.25 156.014 49 156.014 50.75 156.014L173.25 173.513C182 175.263 192.5 168.263 192.5 159.514C194.25 150.764 187.25 140.264 178.5 140.264L85.75 126.265C119 87.7665 175 51.0179 245 51.0179C371 51.0179 455 159.514 455 261.01C455 362.506 371 471.001 245 471.001C119 471.001 35 362.506 35 261.01C35 250.51 28 243.51 17.5 243.51C7 243.51 0 250.51 0 261.01C0 380.005 98 506 245 506Z" fill="#32264C"/>
<path d="M225.2 344.2C233.2 344.2 237.2 347.6 237.2 354.4C237.2 361.467 233.2 365 225.2 365H157.6C149.467 365 145.4 361.467 145.4 354.4C145.4 347.6 149.467 344.2 157.6 344.2H178.4V253L159.2 264.8C157.333 265.867 155.667 266.4 154.2 266.4C151.4 266.4 149 265.2 147 262.8C145.133 260.4 144.2 257.733 144.2 254.8C144.2 250.933 145.933 247.933 149.4 245.8L180.4 226.6C184.4 224.2 188.2 223 191.8 223C195.533 223 198.533 224.133 200.8 226.4C203.067 228.667 204.2 231.8 204.2 235.8V344.2H225.2ZM312.322 274.8C321.122 274.8 328.855 276.733 335.522 280.6C342.322 284.333 347.589 289.6 351.322 296.4C355.055 303.2 356.922 311 356.922 319.8C356.922 329 354.789 337.133 350.522 344.2C346.389 351.267 340.455 356.8 332.722 360.8C325.122 364.667 316.322 366.6 306.322 366.6C298.055 366.6 289.922 365.267 281.922 362.6C274.055 359.8 267.322 356.067 261.722 351.4C258.655 348.733 257.122 345.6 257.122 342C257.122 339.067 257.922 336.6 259.522 334.6C261.255 332.467 263.255 331.4 265.522 331.4C266.855 331.4 268.122 331.667 269.322 332.2C270.522 332.6 271.922 333.333 273.522 334.4C278.855 338.133 284.055 341 289.122 343C294.189 345 299.589 346 305.322 346C314.122 346 320.855 343.8 325.522 339.4C330.189 335 332.522 328.733 332.522 320.6C332.522 312.733 330.122 306.533 325.322 302C320.655 297.333 314.189 295 305.922 295C300.722 295 296.055 295.733 291.922 297.2C287.922 298.667 283.789 301.133 279.522 304.6C276.989 306.333 274.389 307.2 271.722 307.2C269.055 307.2 266.789 306.4 264.922 304.8C263.055 303.2 262.122 301.067 262.122 298.4V236C262.122 232.267 263.189 229.333 265.322 227.2C267.455 225.067 270.455 224 274.322 224H340.922C348.922 224 352.922 227.333 352.922 234C352.922 240.667 348.922 244 340.922 244H287.322V282C294.122 277.2 302.455 274.8 312.322 274.8Z" fill="#32264C"/>
</svg>
