<svg width="20" height="20" viewBox="0 0 20 20" fill="none" xmlns="http://www.w3.org/2000/svg">
<mask id="mask0_3881_7273" style="mask-type:alpha" maskUnits="userSpaceOnUse" x="0" y="0" width="20" height="20">
<circle cx="10" cy="10" r="10" fill="#F9F7F4"/>
</mask>
<g mask="url(#mask0_3881_7273)">
<rect x="-6" y="-4" width="31" height="29" fill="#6EB3F2"/>
<path d="M13.1249 6.42987C13.1249 4.55488 11.7499 3 9.99985 3C8.29152 3 6.87485 4.55488 6.87485 6.42987C6.87485 8.30487 8.24985 9.85975 9.99985 9.85975C11.7082 9.85975 13.1249 8.3506 13.1249 6.42987Z" fill="#32264C"/>
<path d="M5.45833 16.1707C6.70833 17.314 8.29167 18 10 18C11.75 18 13.3333 17.314 14.5417 16.125C14.8333 15.8506 15 15.439 15 15.0274C15 13.1067 13.5833 11.5518 11.8333 11.5518H8.16667C6.41667 11.5518 5 13.1067 5 15.0274C5 15.4848 5.16667 15.8506 5.45833 16.1707Z" fill="#32264C"/>
</g>
</svg>
