<svg width="17" height="10" viewBox="0 0 17 10" fill="none" xmlns="http://www.w3.org/2000/svg">
<path d="M16.0538 8.63051C16.1337 8.55105 16.179 8.44307 16.1797 8.33023C16.1802 8.27423 16.1693 8.21872 16.1476 8.16708C16.126 8.11545 16.094 8.06879 16.0538 8.02996L8.98448 0.949496C8.94529 0.909731 8.89862 0.878158 8.84715 0.856608C8.79569 0.835057 8.74046 0.82396 8.68468 0.82396C8.6289 0.82396 8.57367 0.835057 8.52221 0.856608C8.47074 0.878158 8.42406 0.909731 8.38488 0.949496L1.3141 8.02996C1.27255 8.06889 1.23924 8.1158 1.21616 8.16789C1.19308 8.21998 1.18069 8.27618 1.17975 8.33317C1.1788 8.39015 1.1893 8.44674 1.21064 8.49957C1.23197 8.5524 1.2637 8.60039 1.30394 8.64069C1.34417 8.68099 1.39209 8.71277 1.44484 8.73414C1.49758 8.75551 1.55408 8.76603 1.61098 8.76508C1.66787 8.76413 1.72399 8.75172 1.77599 8.72861C1.828 8.70549 1.87483 8.67213 1.9137 8.63051L8.68468 1.85032L15.4542 8.63051C15.4934 8.67009 15.5402 8.7015 15.5916 8.72294C15.6431 8.74438 15.6982 8.75541 15.754 8.75541C15.8097 8.75541 15.8649 8.74438 15.9163 8.72294C15.9678 8.7015 16.0145 8.67009 16.0538 8.63051Z" fill="#32264C" fill-opacity="0.8" stroke="#32264C" stroke-opacity="0.8"/>
</svg>
