<svg width="17" height="10" viewBox="0 0 17 10" fill="none" xmlns="http://www.w3.org/2000/svg">
<path d="M1.30562 0.958359C1.22563 1.03782 1.18036 1.1458 1.17971 1.25863C1.17918 1.31463 1.19008 1.37015 1.21173 1.42178C1.23338 1.47341 1.26533 1.52008 1.30562 1.55891L8.3749 8.63937C8.41408 8.67914 8.46076 8.71071 8.51222 8.73226C8.56369 8.75381 8.61892 8.76491 8.6747 8.76491C8.73048 8.76491 8.7857 8.75381 8.83717 8.73226C8.88863 8.71071 8.93531 8.67914 8.9745 8.63937L16.0453 1.55891C16.0868 1.51998 16.1201 1.47307 16.1432 1.42098C16.1663 1.36889 16.1787 1.31268 16.1796 1.2557C16.1806 1.19872 16.1701 1.14213 16.1487 1.0893C16.1274 1.03647 16.0957 0.988475 16.0554 0.948177C16.0152 0.907879 15.9673 0.876101 15.9145 0.854731C15.8618 0.833362 15.8053 0.822839 15.7484 0.823789C15.6915 0.82474 15.6354 0.837143 15.5834 0.860261C15.5314 0.88338 15.4845 0.916741 15.4457 0.95836L8.6747 7.73855L1.90522 0.958359C1.86593 0.918775 1.81922 0.887362 1.76777 0.865926C1.71632 0.84449 1.66115 0.833455 1.60542 0.833455C1.5497 0.833455 1.49452 0.84449 1.44307 0.865926C1.39162 0.887362 1.34491 0.918775 1.30562 0.958359V0.958359Z" fill="#32264C" fill-opacity="0.8" stroke="#32264C" stroke-opacity="0.8"/>
</svg>
