<svg width="8" height="14" viewBox="0 0 8 14" fill="none" xmlns="http://www.w3.org/2000/svg">
<path d="M1.1077 12.8993C1.17127 12.9632 1.25765 12.9995 1.34792 13C1.39272 13.0004 1.43714 12.9917 1.47844 12.9744C1.51975 12.957 1.55708 12.9315 1.58814 12.8993L7.25251 7.24383C7.28432 7.21249 7.30958 7.17514 7.32682 7.13397C7.34406 7.0928 7.35294 7.04862 7.35294 7.00399C7.35294 6.95937 7.34406 6.91519 7.32682 6.87401C7.30958 6.83284 7.28432 6.7955 7.25251 6.76415L1.58814 1.10753C1.557 1.07429 1.51947 1.04764 1.4778 1.02918C1.43613 1.01071 1.39116 1.00081 1.34558 1.00005C1.29999 0.999288 1.25472 1.00769 1.21245 1.02476C1.17019 1.04183 1.1318 1.06721 1.09956 1.0994C1.06732 1.13159 1.0419 1.16992 1.0248 1.21212C1.00771 1.25432 0.999287 1.29952 1.00005 1.34503C1.00081 1.39054 1.01073 1.43544 1.02922 1.47704C1.04772 1.51865 1.07441 1.55612 1.1077 1.58721L6.53185 7.00399L1.1077 12.4196C1.07604 12.451 1.05091 12.4884 1.03376 12.5295C1.01661 12.5707 1.00778 12.6148 1.00778 12.6594C1.00778 12.704 1.01661 12.7481 1.03376 12.7893C1.05091 12.8305 1.07604 12.8678 1.1077 12.8993Z" fill="#32264C" fill-opacity="0.8" stroke="#32264C" stroke-opacity="0.8"/>
</svg>
