<svg width="335" height="120" viewBox="0 0 335 120" fill="none" xmlns="http://www.w3.org/2000/svg">
<mask id="mask0_4289_3180" style="mask-type:alpha" maskUnits="userSpaceOnUse" x="0" y="0" width="335" height="120">
<rect width="335" height="120" rx="10" fill="#D9D9D9"/>
</mask>
<g mask="url(#mask0_4289_3180)">
<path d="M365.247 -87.1382H-82.0234V303.399H365.247V-87.1382Z" fill="#FFA191"/>
<path d="M357.003 161.454C362.201 223.341 338.726 292.408 306.817 354.681C275.188 417.2 234.875 472.081 185.731 522.313C136.897 572.193 79.5424 617.072 17.4187 639.691C-45.2942 662.414 -112.496 663.123 -151.16 629.121C-189.543 595.365 -198.829 527.392 -228.044 473.042C-257.289 419.289 -306.183 379.406 -303.04 332.329C-300.179 285.007 -245.87 230.596 -196.54 188.627C-147.182 146.061 -103.392 116.041 -59.3081 98.1167C-15.2244 80.1924 28.8443 74.7147 86.2475 59.1589C143.651 43.6031 214.389 17.9692 266.567 32.0835C318.746 46.1977 352.085 99.8138 357.003 161.454Z" fill="#E54925"/>
<path d="M272.218 150.609C273.36 212.703 245.42 280.088 209.509 340.142C173.862 400.46 130.047 452.589 77.7252 499.501C25.7349 546.082 -34.4305 587.117 -97.8998 605.626C-161.964 624.202 -229.068 620.516 -265.427 584.06C-301.522 547.868 -306.345 479.433 -331.945 423.289C-357.613 367.74 -403.796 324.745 -397.583 277.975C-391.634 230.941 -333.885 180.196 -281.917 141.542C-229.882 102.293 -184.224 75.1995 -139.063 60.195C-93.9016 45.1906 -49.5691 42.6051 8.72814 30.8347C67.0254 19.0643 139.287 -1.89093 190.432 15.6038C241.576 33.0985 271.34 88.7791 272.218 150.609Z" fill="#F0ECE4"/>
</g>
</svg>
