<svg width="335" height="120" viewBox="0 0 335 120" fill="none" xmlns="http://www.w3.org/2000/svg">
<mask id="mask0_4289_3181" style="mask-type:alpha" maskUnits="userSpaceOnUse" x="0" y="0" width="335" height="120">
<rect width="335" height="120" rx="10" fill="#D9D9D9"/>
</mask>
<g mask="url(#mask0_4289_3181)">
<path d="M365.247 -87.1382H-82.0234V303.399H365.247V-87.1382Z" fill="#6EB3F2"/>
<path d="M110.648 599.915C61.9 574.645 21.2902 524.542 -10.2631 471.33C-42.1328 418.212 -64.1961 362.194 -78.621 301.762C-92.9287 241.727 -99.4806 177.674 -87.1318 120.541C-74.5838 62.9182 -43.4515 12.3094 0.202718 -0.595514C43.5406 -13.4069 52.956 115.553 107.382 119.304C161.374 122.752 260.059 1.08456 293.798 25.6157C327.852 50.0532 342.97 116.319 351.125 172.997C359.714 229.978 361.541 276.882 354.18 318.307C346.819 359.732 330.153 395.282 314.745 445.555C299.337 495.829 285.185 560.827 250.042 593.212C214.898 625.598 159.079 625.278 110.648 599.915Z" fill="#E54925"/>
<path d="M-182.011 499.384C-201.791 446.685 -198.33 380.66 -185.839 318.483C-173.653 256.16 -152.01 198.36 -121.521 142.44C-91.2139 86.9024 -52.2436 33.6281 -3.62954 -1.40454C45.4725 -36.6737 103.913 -53.8471 146.013 -33.7145C187.808 -13.7278 212.653 43.2729 251.524 83.4817C290.274 123.162 342.746 145.905 351.603 187.74C360.764 229.721 326.798 290.559 294.111 339.317C261.545 388.605 230.746 425.576 196.71 452.07C162.675 478.564 125.586 494.199 79.3497 521.908C33.1131 549.617 -22.2715 589.402 -71.2603 589.946C-120.249 590.489 -162.537 551.937 -182.011 499.384Z" fill="#F0ECE4"/>
</g>
</svg>
