<svg width="335" height="120" viewBox="0 0 335 120" fill="none" xmlns="http://www.w3.org/2000/svg">
<mask id="mask0_4289_3182" style="mask-type:alpha" maskUnits="userSpaceOnUse" x="0" y="0" width="335" height="120">
<rect width="335" height="120" rx="10" fill="#D9D9D9"/>
</mask>
<g mask="url(#mask0_4289_3182)">
<path d="M365.247 -87.1382H-82.0234V303.399H365.247V-87.1382Z" fill="#528A4F"/>
<path d="M345.669 86.8409C350.16 110.284 343.983 137.633 334.307 162.726C324.748 187.901 311.561 210.509 294.811 231.697C278.164 252.739 258.059 272.213 235.23 283.373C212.179 294.596 186.523 297.586 170.369 286.155C154.332 274.807 148.032 249.202 134.666 229.611C121.313 210.25 101.011 196.984 100.307 178.864C99.4853 160.661 118.041 137.666 135.197 119.629C152.34 101.362 176.839 53.1378 192.963 44.5028C209.087 35.8677 216.732 66.9687 238.042 58.6999C259.353 50.4311 285.353 37.7707 305.867 41.0537C326.382 44.3366 341.294 63.4801 345.669 86.8409Z" fill="#E54925"/>
<path d="M-219.566 85.7172C-196.174 47.8049 -153.182 17.9778 -108.223 -4.33417C-63.3201 -26.9077 -16.6647 -41.372 33.1005 -49.3894C82.5378 -57.336 134.757 -58.7648 180.234 -45.3201C226.096 -31.6846 265.16 -3.43715 272.962 32.662C280.707 68.4995 257.078 111.666 250.753 155.473C244.7 198.947 255.894 242.801 234.007 268.614C212.177 294.689 157.65 302.914 111.301 306.087C64.6803 309.591 26.6216 308.233 -6.4489 299.774C-39.5194 291.314 -67.2737 275.682 -107.017 260.176C-146.76 244.671 -198.492 229.292 -222.569 198.901C-246.647 168.51 -243.014 123.368 -219.566 85.7172Z" fill="#F0ECE4"/>
</g>
</svg>
